<svg width="105" height="140" viewBox="0 0 105 140" fill="none" xmlns="http://www.w3.org/2000/svg">
<path d="M104.983 70.1485C104.983 89.2381 104.983 108.289 104.983 127.379C104.983 132.822 102.693 136.809 97.7323 138.994C96.2058 139.645 94.4122 139.952 92.7331 139.952C65.9054 140.029 39.1158 139.99 12.2881 139.99C5.07552 139.99 0 134.969 0 127.724C0 89.2381 0 50.7523 0.0381618 12.2664C0.0381618 5.02156 5.07552 0.0383325 12.3263 0C39.0777 0 65.8672 0 92.6186 0C99.9838 0 104.983 5.02156 104.983 12.4964C105.021 31.701 104.983 50.9439 104.983 70.1485ZM89.7947 69.9952C89.7947 52.8606 89.7947 35.7643 89.7947 18.6296C89.7947 15.8313 89.1459 15.218 86.3219 15.218C67.8898 15.218 49.4958 15.218 31.0637 15.218C28.2397 15.218 27.5528 15.8697 27.5528 18.6296C27.5528 52.8606 27.5528 87.1299 27.5528 121.361C27.5528 124.121 28.2016 124.772 31.0255 124.772C49.305 124.772 67.5845 124.772 85.864 124.772C89.2986 124.772 89.7565 124.312 89.7565 120.939C89.7947 103.958 89.7947 86.9765 89.7947 69.9952ZM16.4477 2.98994C14.158 2.98994 12.021 2.68328 9.99839 3.0666C5.45713 3.83325 2.70949 7.62817 2.70949 12.6114C2.70949 47.1107 2.70949 81.5716 2.70949 116.071C2.70949 120.096 2.55684 124.121 2.74765 128.107C3.12927 135.889 9.57861 138.304 16.2951 136.924C13.4329 134.202 12.4026 130.867 12.4026 126.957C12.4407 88.9698 12.4407 51.0206 12.4026 13.0331C12.4026 9.16148 13.4329 5.78821 16.4477 2.98994Z" fill="url(#paint0_linear_133_2504)"/>
<path d="M81.9904 51.1012C81.9904 55.6135 81.9904 60.1643 81.9904 64.6766C81.9519 70.3458 78.3697 73.9711 72.669 73.9711C63.5788 74.0096 54.4501 74.0096 45.3599 73.9711C39.6207 73.9711 36 70.2687 36 64.5609C36 55.4978 36 46.4733 36 37.4102C36 31.7409 39.7362 28 45.3984 28C54.4501 28 63.5018 28 72.5535 28C78.2927 28 81.9519 31.6638 81.9519 37.3716C82.0289 41.961 81.9904 46.5504 81.9904 51.1012ZM59.1107 30.8539C54.4886 30.8539 49.8664 30.8539 45.2443 30.8539C41.277 30.8539 38.8118 33.2836 38.8118 37.2174C38.7733 46.4347 38.7733 55.6906 38.8118 64.908C38.8118 68.8032 41.354 71.2714 45.2828 71.2714C54.4116 71.2714 63.5788 71.2714 72.7076 71.2714C76.6749 71.2714 79.2556 68.7646 79.2556 64.7923C79.2941 55.6135 79.2941 46.4347 79.2556 37.2559C79.2556 33.3222 76.7134 30.8539 72.8231 30.8539C68.2395 30.8153 63.6944 30.8539 59.1107 30.8539Z" fill="url(#paint1_linear_133_2504)"/>
<path d="M58.8844 110.99C53.0285 110.99 47.134 110.99 41.2781 110.99C37.6566 110.99 36 109.245 36 105.518C36 104.09 36 102.662 36 101.195C36 97.7845 37.7337 96 41.0854 96C47.2496 96 53.4137 96 59.5779 96C65.2027 96 70.8275 96 76.4908 96C80.4975 96 82 97.5466 82 101.592C82 103.059 82 104.566 82 106.033C81.9615 109.087 80.2278 110.911 77.2228 110.95C71.1357 111.03 65.01 110.99 58.8844 110.99ZM58.8074 108.095C64.933 108.095 71.0201 108.095 77.1457 108.095C78.6868 108.095 79.2261 107.58 79.2647 105.993C79.3032 104.328 79.3032 102.623 79.2647 100.957C79.2261 99.4898 78.6868 98.9346 77.2228 98.8949C75.8744 98.8552 74.526 98.8949 73.1776 98.8949C62.5059 98.8949 51.7956 98.8949 41.124 98.8949C39.2747 98.8949 38.8509 99.3708 38.8124 101.274C38.8124 102.742 38.8124 104.249 38.8124 105.716C38.8124 107.738 39.1977 108.135 41.201 108.135C47.057 108.095 52.9514 108.095 58.8074 108.095Z" fill="url(#paint2_linear_133_2504)"/>
<path d="M50.0638 80.0031C51.1386 79.9609 52.0415 80.3408 51.9985 81.5227C51.9555 82.6623 51.0956 83 49.9778 83C48.8599 83 48 82.6201 48 81.4382C48 80.2986 48.9459 80.0031 50.0638 80.0031Z" fill="url(#paint3_linear_133_2504)"/>
<path d="M58.5326 80C59.3472 80 60.0315 80.338 59.9989 81.5211C59.9663 82.7042 59.3146 83 58.4674 83C57.6203 83 56.9686 82.662 57.0012 81.4789C57.0338 80.2958 57.718 80 58.5326 80Z" fill="url(#paint4_linear_133_2504)"/>
<path d="M67.9342 82.9957C66.7923 83.0379 65.9577 82.6582 66.0017 81.4346C66.0456 80.2532 66.924 80 67.9781 80C69.0762 80 70.0425 80.2532 69.9986 81.519C69.9546 82.7847 69.0323 83.0379 67.9342 82.9957Z" fill="url(#paint5_linear_133_2504)"/>
<path d="M6.05198 41.5383C6.05198 37.137 6.05198 32.7741 6.05198 28.3728C6.05198 27.9519 5.93259 27.416 6.13157 27.1099C6.48972 26.6123 7.08665 26 7.56419 26C8.04173 26.0383 8.51928 26.7272 8.91723 27.2247C9.07641 27.4543 8.95702 27.8753 8.95702 28.2198C8.95702 37.0988 8.95702 45.9778 8.95702 54.8185C8.95702 55.163 9.07641 55.5839 8.91723 55.8136C8.51928 56.3111 8.00194 57 7.5244 57C7.04686 57 6.44993 56.3494 6.13157 55.8136C5.8928 55.3926 6.05198 54.7802 6.05198 54.2827C6.05198 50.0346 6.05198 45.7864 6.05198 41.5383Z" fill="url(#paint6_linear_133_2504)"/>
<path d="M6.01024 68.4074C6.01024 67.1484 6.01024 65.9265 6.01024 64.6676C6.01024 63.7049 6.37884 62.9643 7.56655 63.0013C8.6314 63.0384 9 63.7419 9 64.6306C9 67.2225 9 69.8145 9 72.4064C9 73.2951 8.67236 73.9986 7.56655 73.9986C6.46075 74.0356 6.05119 73.3321 6.05119 72.4434C5.96928 71.0734 6.01024 69.7404 6.01024 68.4074Z" fill="url(#paint7_linear_133_2504)"/>
<defs>
<linearGradient id="paint0_linear_133_2504" x1="52.5" y1="140" x2="52.5" y2="0" gradientUnits="userSpaceOnUse">
<stop stop-color="#1CA7FB"/>
<stop offset="1" stop-color="#17FCD7"/>
</linearGradient>
<linearGradient id="paint1_linear_133_2504" x1="59" y1="74" x2="59" y2="28" gradientUnits="userSpaceOnUse">
<stop stop-color="#1CA7FB"/>
<stop offset="1" stop-color="#17FCD7"/>
</linearGradient>
<linearGradient id="paint2_linear_133_2504" x1="59" y1="111" x2="59" y2="96" gradientUnits="userSpaceOnUse">
<stop stop-color="#1CA7FB"/>
<stop offset="1" stop-color="#17FCD7"/>
</linearGradient>
<linearGradient id="paint3_linear_133_2504" x1="50" y1="83" x2="50" y2="80" gradientUnits="userSpaceOnUse">
<stop stop-color="#1CA7FB"/>
<stop offset="1" stop-color="#17FCD7"/>
</linearGradient>
<linearGradient id="paint4_linear_133_2504" x1="58.5" y1="83" x2="58.5" y2="80" gradientUnits="userSpaceOnUse">
<stop stop-color="#1CA7FB"/>
<stop offset="1" stop-color="#17FCD7"/>
</linearGradient>
<linearGradient id="paint5_linear_133_2504" x1="68" y1="83" x2="68" y2="80" gradientUnits="userSpaceOnUse">
<stop stop-color="#1CA7FB"/>
<stop offset="1" stop-color="#17FCD7"/>
</linearGradient>
<linearGradient id="paint6_linear_133_2504" x1="7.5" y1="57" x2="7.5" y2="26" gradientUnits="userSpaceOnUse">
<stop stop-color="#1CA7FB"/>
<stop offset="1" stop-color="#17FCD7"/>
</linearGradient>
<linearGradient id="paint7_linear_133_2504" x1="7.5" y1="74" x2="7.5" y2="63" gradientUnits="userSpaceOnUse">
<stop stop-color="#1CA7FB"/>
<stop offset="1" stop-color="#17FCD7"/>
</linearGradient>
</defs>
</svg>
