<svg width="105" height="140" viewBox="0 0 105 140" fill="none" xmlns="http://www.w3.org/2000/svg">
<path d="M104.983 70.1485C104.983 89.2381 104.983 108.289 104.983 127.379C104.983 132.822 102.693 136.809 97.7323 138.994C96.2058 139.645 94.4122 139.952 92.7331 139.952C65.9054 140.029 39.1158 139.99 12.2881 139.99C5.07552 139.99 0 134.969 0 127.724C0 89.2381 0 50.7523 0.0381618 12.2664C0.0381618 5.02156 5.07552 0.0383325 12.3263 0C39.0777 0 65.8672 0 92.6186 0C99.9838 0 104.983 5.02156 104.983 12.4964C105.021 31.701 104.983 50.9439 104.983 70.1485ZM89.7947 69.9952C89.7947 52.8606 89.7947 35.7643 89.7947 18.6296C89.7947 15.8313 89.1459 15.218 86.3219 15.218C67.8898 15.218 49.4958 15.218 31.0637 15.218C28.2397 15.218 27.5528 15.8697 27.5528 18.6296C27.5528 52.8606 27.5528 87.1299 27.5528 121.361C27.5528 124.121 28.2016 124.772 31.0255 124.772C49.305 124.772 67.5845 124.772 85.864 124.772C89.2986 124.772 89.7565 124.312 89.7565 120.939C89.7947 103.958 89.7947 86.9765 89.7947 69.9952ZM16.4477 2.98994C14.158 2.98994 12.021 2.68328 9.99839 3.0666C5.45713 3.83325 2.70949 7.62817 2.70949 12.6114C2.70949 47.1107 2.70949 81.5716 2.70949 116.071C2.70949 120.096 2.55684 124.121 2.74765 128.107C3.12927 135.889 9.57861 138.304 16.2951 136.924C13.4329 134.202 12.4026 130.867 12.4026 126.957C12.4407 88.9698 12.4407 51.0206 12.4026 13.0331C12.4026 9.16148 13.4329 5.78821 16.4477 2.98994Z" fill="url(#paint0_linear_133_2538)"/>
<path d="M81.9904 51.1012C81.9904 55.6135 81.9904 60.1643 81.9904 64.6766C81.9519 70.3458 78.3697 73.9711 72.669 73.9711C63.5788 74.0096 54.4501 74.0096 45.3599 73.9711C39.6207 73.9711 36 70.2687 36 64.5609C36 55.4978 36 46.4733 36 37.4102C36 31.7409 39.7362 28 45.3984 28C54.4501 28 63.5018 28 72.5535 28C78.2927 28 81.9519 31.6638 81.9519 37.3716C82.0289 41.961 81.9904 46.5504 81.9904 51.1012ZM59.1107 30.8539C54.4886 30.8539 49.8664 30.8539 45.2443 30.8539C41.277 30.8539 38.8118 33.2836 38.8118 37.2174C38.7733 46.4347 38.7733 55.6906 38.8118 64.908C38.8118 68.8032 41.354 71.2714 45.2828 71.2714C54.4116 71.2714 63.5788 71.2714 72.7076 71.2714C76.6749 71.2714 79.2556 68.7646 79.2556 64.7923C79.2941 55.6135 79.2941 46.4347 79.2556 37.2559C79.2556 33.3222 76.7134 30.8539 72.8231 30.8539C68.2395 30.8153 63.6944 30.8539 59.1107 30.8539Z" fill="url(#paint1_linear_133_2538)"/>
<path d="M58.8844 110.99C53.0285 110.99 47.134 110.99 41.2781 110.99C37.6566 110.99 36 109.245 36 105.518C36 104.09 36 102.662 36 101.195C36 97.7845 37.7337 96 41.0854 96C47.2496 96 53.4137 96 59.5779 96C65.2027 96 70.8275 96 76.4908 96C80.4975 96 82 97.5466 82 101.592C82 103.059 82 104.566 82 106.033C81.9615 109.087 80.2278 110.911 77.2228 110.95C71.1357 111.03 65.01 110.99 58.8844 110.99ZM58.8074 108.095C64.933 108.095 71.0201 108.095 77.1457 108.095C78.6868 108.095 79.2261 107.58 79.2647 105.993C79.3032 104.328 79.3032 102.623 79.2647 100.957C79.2261 99.4898 78.6868 98.9346 77.2228 98.8949C75.8744 98.8552 74.526 98.8949 73.1776 98.8949C62.5059 98.8949 51.7956 98.8949 41.124 98.8949C39.2747 98.8949 38.8509 99.3708 38.8124 101.274C38.8124 102.742 38.8124 104.249 38.8124 105.716C38.8124 107.738 39.1977 108.135 41.201 108.135C47.057 108.095 52.9514 108.095 58.8074 108.095Z" fill="url(#paint2_linear_133_2538)"/>
<path d="M50.0638 80.0031C51.1386 79.9609 52.0415 80.3408 51.9985 81.5227C51.9555 82.6623 51.0956 83 49.9778 83C48.8599 83 48 82.6201 48 81.4382C48 80.2986 48.9459 80.0031 50.0638 80.0031Z" fill="url(#paint3_linear_133_2538)"/>
<path d="M58.5326 80C59.3472 80 60.0315 80.338 59.9989 81.5211C59.9663 82.7042 59.3146 83 58.4674 83C57.6203 83 56.9686 82.662 57.0012 81.4789C57.0338 80.2958 57.718 80 58.5326 80Z" fill="url(#paint4_linear_133_2538)"/>
<path d="M67.9342 82.9957C66.7923 83.0379 65.9577 82.6582 66.0017 81.4346C66.0456 80.2532 66.924 80 67.9781 80C69.0762 80 70.0425 80.2532 69.9986 81.519C69.9546 82.7847 69.0323 83.0379 67.9342 82.9957Z" fill="url(#paint5_linear_133_2538)"/>
<path d="M6.05198 41.5383C6.05198 37.137 6.05198 32.7741 6.05198 28.3728C6.05198 27.9519 5.93259 27.416 6.13157 27.1099C6.48972 26.6123 7.08665 26 7.56419 26C8.04173 26.0383 8.51928 26.7272 8.91723 27.2247C9.07641 27.4543 8.95702 27.8753 8.95702 28.2198C8.95702 37.0988 8.95702 45.9778 8.95702 54.8185C8.95702 55.163 9.07641 55.5839 8.91723 55.8136C8.51928 56.3111 8.00194 57 7.5244 57C7.04686 57 6.44993 56.3494 6.13157 55.8136C5.8928 55.3926 6.05198 54.7802 6.05198 54.2827C6.05198 50.0346 6.05198 45.7864 6.05198 41.5383Z" fill="url(#paint6_linear_133_2538)"/>
<path d="M6.01024 68.4074C6.01024 67.1484 6.01024 65.9265 6.01024 64.6676C6.01024 63.7049 6.37884 62.9643 7.56655 63.0013C8.6314 63.0384 9 63.7419 9 64.6306C9 67.2225 9 69.8145 9 72.4064C9 73.2951 8.67236 73.9986 7.56655 73.9986C6.46075 74.0356 6.05119 73.3321 6.05119 72.4434C5.96928 71.0734 6.01024 69.7404 6.01024 68.4074Z" fill="url(#paint7_linear_133_2538)"/>
<path d="M59.6912 67.2121C59.1545 67.0235 58.5816 66.893 58.074 66.6464C57.0007 66.1243 56.2175 65.2541 55.5648 64.2751C55.1225 63.6079 54.7526 62.8827 54.3683 62.1793C54.2813 62.0197 54.2232 61.9545 54.0202 61.9762C52.8309 62.1285 51.6416 62.1938 50.445 61.9907C48.7843 61.7151 47.3484 61.0697 46.4855 59.5251C45.8183 58.3358 45.8183 57.0522 46.1229 55.7686C46.5 54.2022 47.2469 52.7953 48.1969 51.5045C48.4072 51.2144 48.429 51.0186 48.2042 50.7212C47.2542 49.4232 46.5072 48.0235 46.1301 46.4571C45.8183 45.1735 45.8328 43.8972 46.4782 42.6934C47.1454 41.4606 48.2259 40.7789 49.5385 40.409C50.8511 40.0464 52.1855 40.0319 53.5271 40.1842C54.2305 40.264 54.2377 40.2713 54.5641 39.6331C55.1732 38.4148 55.8984 37.2835 56.9209 36.3625C57.9362 35.456 59.1038 34.9048 60.4889 35.0136C61.8087 35.1152 62.8675 35.7606 63.774 36.6888C64.7167 37.6461 65.3984 38.7919 65.9713 39.9957C66.0148 40.0827 66.0583 40.1625 66.0874 40.2205C66.9721 40.1842 67.8423 40.0972 68.7053 40.119C70.0179 40.148 71.2942 40.3873 72.4183 41.127C73.8106 42.048 74.4488 43.3751 74.427 45.0213C74.4053 46.4644 73.8977 47.7697 73.2232 49.0098C72.8824 49.6335 72.4835 50.2281 72.0774 50.8155C71.9179 51.0476 71.9251 51.1926 72.0847 51.4102C72.9622 52.6067 73.6728 53.8976 74.1007 55.3262C74.427 56.4212 74.5431 57.5308 74.2167 58.6403C73.7091 60.3808 72.4473 61.3308 70.7721 61.8022C69.3145 62.2155 67.8278 62.172 66.3412 61.9762C66.1236 61.9472 66.0511 62.0197 65.9713 62.1938C65.4782 63.2525 64.8908 64.2533 64.1221 65.138C63.2156 66.1751 62.1568 66.9583 60.75 67.1686C60.7209 67.1758 60.6992 67.1976 60.6702 67.2121C60.3584 67.2121 60.0248 67.2121 59.6912 67.2121ZM66.7328 51.1056C66.6675 50.0178 66.6095 48.93 66.5297 47.8422C66.5225 47.7262 66.4354 47.5884 66.3412 47.5159C64.4919 46.0365 62.4904 44.8037 60.3656 43.7739C60.2641 43.7232 60.0973 43.7304 59.9958 43.7739C57.8637 44.8037 55.8694 46.051 54.0202 47.5159C53.9404 47.5812 53.8534 47.69 53.8461 47.7842C53.7881 48.4006 53.7084 49.0171 53.7156 49.6335C53.7301 51.2071 53.7881 52.7735 53.8461 54.34C53.8534 54.4632 53.9404 54.6155 54.0419 54.6953C55.8839 56.1674 57.8782 57.393 59.9958 58.4228C60.1045 58.4735 60.2858 58.4735 60.3946 58.4228C62.5339 57.4075 64.5137 56.1384 66.3702 54.6735C66.4572 54.6083 66.5297 54.4777 66.537 54.369C66.6022 53.2812 66.6675 52.1934 66.7328 51.1056ZM49.3427 52.3384C48.371 53.7598 47.5007 55.2682 47.3919 57.0812C47.3194 58.2487 47.711 59.2205 48.7335 59.8732C49.5458 60.388 50.4523 60.5911 51.3877 60.6346C52.1419 60.6709 52.9034 60.6128 53.6793 60.5983C53.6648 60.4823 53.6648 60.4533 53.6503 60.4243C53.121 58.7999 52.7221 57.1392 52.4973 55.4495C52.4828 55.3625 52.4248 55.2754 52.3668 55.2174C51.3805 54.2602 50.3725 53.3102 49.3427 52.3384ZM53.6358 41.6491C53.6431 41.6564 53.6286 41.6346 53.6068 41.6346C53.3965 41.6129 53.1935 41.5838 52.9832 41.5693C51.6416 41.4823 50.3145 41.5186 49.0816 42.135C48.0446 42.6499 47.4572 43.4766 47.3992 44.6659C47.3557 45.5361 47.5442 46.3484 47.8561 47.1461C48.2332 48.1323 48.7626 49.0388 49.35 49.851C50.3725 48.8793 51.3805 47.922 52.3885 46.9648C52.4538 46.8995 52.4973 46.7907 52.5118 46.6964C52.5916 46.2541 52.6351 45.8045 52.7366 45.3621C53.0267 44.1365 53.3313 42.9037 53.6358 41.6491ZM66.7545 60.5548C68.1179 60.7289 69.503 60.7361 70.8591 60.2575C72.3095 59.7426 73.0782 58.6041 72.9767 57.0739C72.8606 55.2609 71.9832 53.7598 71.0767 52.4109C70.3152 53.1144 69.5973 53.8686 68.7851 54.5067C68.1034 55.0434 67.8133 55.667 67.6755 56.5155C67.4725 57.8644 67.0809 59.1842 66.7545 60.5548ZM71.0332 49.8728C71.3305 49.3869 71.6641 48.8793 71.9541 48.3499C72.498 47.3491 72.9114 46.3048 72.9694 45.1445C73.0419 43.7812 72.527 42.7442 71.2725 42.1277C70.4385 41.7144 69.5393 41.5693 68.6255 41.5476C67.9801 41.5331 67.3347 41.5911 66.653 41.6201C67.2404 43.3388 67.6248 45.0285 67.8641 46.7545C67.8713 46.827 67.9221 46.914 67.9729 46.9648C68.9809 47.9293 69.9889 48.8865 71.0332 49.8728ZM55.7316 61.6644C56.3698 62.977 57.1095 64.159 58.248 65.0438C59.3358 65.885 60.5251 66.001 61.7 65.3121C63.1286 64.4709 63.9263 63.1148 64.6442 61.6789C64.579 61.6499 64.55 61.6281 64.5064 61.6209C63.0923 61.2728 61.7217 60.8014 60.3801 60.2285C60.2568 60.1777 60.0755 60.1995 59.9377 60.2503C59.053 60.5693 58.1755 60.9174 57.2908 61.222C56.7904 61.3888 56.2755 61.5121 55.7316 61.6644ZM55.7679 40.4598C57.2183 40.9892 58.6324 41.5041 60.0465 42.0117C60.1626 42.0552 60.3293 42.0045 60.4599 41.9537C61.7145 41.5258 62.969 41.0907 64.2236 40.6629C64.3542 40.6193 64.4919 40.5831 64.6442 40.5396C64.0061 39.227 63.2664 38.0449 62.1278 37.1602C61.04 36.319 59.8507 36.2029 58.6759 36.8919C57.2545 37.7331 56.4568 39.0892 55.7679 40.4598ZM61.961 59.3365C63.0633 59.6774 64.1221 59.9964 65.2099 60.33C65.645 59.1117 65.9858 57.9369 66.1889 56.7041C64.7748 57.5888 63.4042 58.4445 61.961 59.3365ZM58.4221 59.3365C56.9572 58.43 55.5866 57.5816 54.1217 56.6678C54.4626 57.9224 54.7816 59.1045 55.1152 60.3518C56.2538 60.0037 57.3198 59.6774 58.4221 59.3365ZM55.166 41.8739C54.7309 43.0995 54.39 44.2743 54.1942 45.4999C55.6011 44.6224 56.979 43.7667 58.4221 42.8674C57.3126 42.5266 56.261 42.2075 55.166 41.8739ZM66.2542 45.5361C65.9133 44.2816 65.587 43.0922 65.2534 41.8522C64.1148 42.2003 63.0561 42.5266 61.961 42.8674C63.4042 43.7667 64.7748 44.6151 66.2542 45.5361ZM52.2507 49.0098C51.5618 49.735 50.9309 50.4094 50.2637 51.1056C50.9236 51.8018 51.5618 52.4762 52.2507 53.2014C52.2507 51.7655 52.2507 50.4384 52.2507 49.0098ZM68.1251 53.2014C68.8213 52.4617 69.4522 51.7945 70.1122 51.0983C69.4377 50.3949 68.8068 49.7277 68.1251 49.0171C68.1251 50.4457 68.1251 51.7655 68.1251 53.2014Z" fill="url(#paint8_linear_133_2538)"/>
<path d="M60.1913 53.9556C58.6176 53.9556 57.3268 52.6575 57.334 51.0911C57.3485 49.5102 58.6466 48.2266 60.2058 48.2484C61.7794 48.2701 63.034 49.5247 63.0413 51.0984C63.0485 52.672 61.7649 53.9556 60.1913 53.9556ZM61.5981 51.0911C61.5909 50.3007 60.9527 49.677 60.1695 49.6915C59.3936 49.706 58.7844 50.3224 58.7844 51.0984C58.7844 51.8816 59.4153 52.5125 60.1985 52.5125C60.9745 52.5125 61.6054 51.8743 61.5981 51.0911Z" fill="url(#paint9_linear_133_2538)"/>
<defs>
<linearGradient id="paint0_linear_133_2538" x1="52.5" y1="140" x2="52.5" y2="0" gradientUnits="userSpaceOnUse">
<stop stop-color="#1CA7FB"/>
<stop offset="1" stop-color="#17FCD7"/>
</linearGradient>
<linearGradient id="paint1_linear_133_2538" x1="59" y1="74" x2="59" y2="28" gradientUnits="userSpaceOnUse">
<stop stop-color="#1CA7FB"/>
<stop offset="1" stop-color="#17FCD7"/>
</linearGradient>
<linearGradient id="paint2_linear_133_2538" x1="59" y1="111" x2="59" y2="96" gradientUnits="userSpaceOnUse">
<stop stop-color="#1CA7FB"/>
<stop offset="1" stop-color="#17FCD7"/>
</linearGradient>
<linearGradient id="paint3_linear_133_2538" x1="50" y1="83" x2="50" y2="80" gradientUnits="userSpaceOnUse">
<stop stop-color="#1CA7FB"/>
<stop offset="1" stop-color="#17FCD7"/>
</linearGradient>
<linearGradient id="paint4_linear_133_2538" x1="58.5" y1="83" x2="58.5" y2="80" gradientUnits="userSpaceOnUse">
<stop stop-color="#1CA7FB"/>
<stop offset="1" stop-color="#17FCD7"/>
</linearGradient>
<linearGradient id="paint5_linear_133_2538" x1="68" y1="83" x2="68" y2="80" gradientUnits="userSpaceOnUse">
<stop stop-color="#1CA7FB"/>
<stop offset="1" stop-color="#17FCD7"/>
</linearGradient>
<linearGradient id="paint6_linear_133_2538" x1="7.5" y1="57" x2="7.5" y2="26" gradientUnits="userSpaceOnUse">
<stop stop-color="#1CA7FB"/>
<stop offset="1" stop-color="#17FCD7"/>
</linearGradient>
<linearGradient id="paint7_linear_133_2538" x1="7.5" y1="74" x2="7.5" y2="63" gradientUnits="userSpaceOnUse">
<stop stop-color="#1CA7FB"/>
<stop offset="1" stop-color="#17FCD7"/>
</linearGradient>
<linearGradient id="paint8_linear_133_2538" x1="60.1772" y1="35" x2="60.1772" y2="67.2121" gradientUnits="userSpaceOnUse">
<stop stop-color="#1CA7FB"/>
<stop offset="1" stop-color="#17FCD7"/>
</linearGradient>
<linearGradient id="paint9_linear_133_2538" x1="60.1876" y1="48.2481" x2="60.1876" y2="53.9556" gradientUnits="userSpaceOnUse">
<stop stop-color="#1CA7FB"/>
<stop offset="1" stop-color="#17FCD7"/>
</linearGradient>
</defs>
</svg>
