<svg width="105" height="140" viewBox="0 0 105 140" fill="none" xmlns="http://www.w3.org/2000/svg">
<path d="M104.983 70.1485C104.983 89.2381 104.983 108.289 104.983 127.379C104.983 132.822 102.693 136.809 97.7323 138.994C96.2058 139.645 94.4122 139.952 92.7331 139.952C65.9054 140.029 39.1158 139.99 12.2881 139.99C5.07552 139.99 0 134.969 0 127.724C0 89.2381 0 50.7523 0.0381618 12.2664C0.0381618 5.02156 5.07552 0.0383325 12.3263 0C39.0777 0 65.8672 0 92.6186 0C99.9838 0 104.983 5.02156 104.983 12.4964C105.021 31.701 104.983 50.9439 104.983 70.1485ZM89.7947 69.9952C89.7947 52.8606 89.7947 35.7643 89.7947 18.6296C89.7947 15.8313 89.1459 15.218 86.3219 15.218C67.8898 15.218 49.4958 15.218 31.0637 15.218C28.2397 15.218 27.5528 15.8697 27.5528 18.6296C27.5528 52.8606 27.5528 87.1299 27.5528 121.361C27.5528 124.121 28.2016 124.772 31.0255 124.772C49.305 124.772 67.5845 124.772 85.864 124.772C89.2986 124.772 89.7565 124.312 89.7565 120.939C89.7947 103.958 89.7947 86.9765 89.7947 69.9952ZM16.4477 2.98994C14.158 2.98994 12.021 2.68328 9.99839 3.0666C5.45713 3.83325 2.70949 7.62817 2.70949 12.6114C2.70949 47.1107 2.70949 81.5716 2.70949 116.071C2.70949 120.096 2.55684 124.121 2.74765 128.107C3.12927 135.889 9.57861 138.304 16.2951 136.924C13.4329 134.202 12.4026 130.867 12.4026 126.957C12.4407 88.9698 12.4407 51.0206 12.4026 13.0331C12.4026 9.16148 13.4329 5.78821 16.4477 2.98994Z" fill="url(#paint0_linear_133_2565)"/>
<path d="M81.9904 51.1012C81.9904 55.6135 81.9904 60.1643 81.9904 64.6766C81.9519 70.3458 78.3697 73.9711 72.669 73.9711C63.5788 74.0096 54.4501 74.0096 45.3599 73.9711C39.6207 73.9711 36 70.2687 36 64.5609C36 55.4978 36 46.4733 36 37.4102C36 31.7409 39.7362 28 45.3984 28C54.4501 28 63.5018 28 72.5535 28C78.2927 28 81.9519 31.6638 81.9519 37.3716C82.0289 41.961 81.9904 46.5504 81.9904 51.1012ZM59.1107 30.8539C54.4886 30.8539 49.8664 30.8539 45.2443 30.8539C41.277 30.8539 38.8118 33.2836 38.8118 37.2174C38.7733 46.4347 38.7733 55.6906 38.8118 64.908C38.8118 68.8032 41.354 71.2714 45.2828 71.2714C54.4116 71.2714 63.5788 71.2714 72.7076 71.2714C76.6749 71.2714 79.2556 68.7646 79.2556 64.7923C79.2941 55.6135 79.2941 46.4347 79.2556 37.2559C79.2556 33.3222 76.7134 30.8539 72.8231 30.8539C68.2395 30.8153 63.6944 30.8539 59.1107 30.8539Z" fill="url(#paint1_linear_133_2565)"/>
<path d="M71.4939 59.5852C70.5226 59.4062 69.858 58.895 69.6194 57.9322C69.5597 57.7106 69.5597 57.4721 69.5597 57.2335C69.5597 55.376 69.5597 53.51 69.5597 51.6526C69.5597 50.3489 70.0965 49.6502 71.3576 49.3094C71.3917 49.3009 71.4172 49.2839 71.4428 49.2753C71.2468 43.6092 66.5264 37.8919 59.5993 37.5681C52.3398 37.2188 46.844 42.9275 46.5117 49.2753C46.5629 49.2924 46.6225 49.3094 46.6821 49.3265C47.7983 49.5991 48.4118 50.366 48.4118 51.5248C48.4203 53.4589 48.4203 55.3931 48.4118 57.3272C48.4033 58.8439 47.236 59.8067 45.7364 59.534C44.2708 59.2699 43.1376 58.1708 43.0354 56.6456C42.9331 55.146 42.9587 53.6293 43.0439 52.1212C43.1035 51.022 43.7681 50.2126 44.7224 49.6843C44.8928 49.5906 44.9525 49.4798 44.961 49.2924C45.2933 43.6348 48.9486 38.744 54.2739 36.8354C62.1639 33.998 70.8634 38.7695 72.6868 46.9492C72.8572 47.7246 72.9168 48.5255 73.0106 49.3179C73.0276 49.4969 73.0787 49.5906 73.2406 49.6843C74.3824 50.3234 74.9703 51.3203 74.9873 52.6239C75.0044 53.8338 75.0044 55.0522 74.9873 56.2622C74.9703 57.5573 74.3824 58.5371 73.2576 59.1847C73.0872 59.2869 73.0276 59.3892 73.0276 59.5766C73.0191 60.3265 73.0702 61.0933 72.9594 61.8346C72.6271 64.084 70.7271 65.7029 68.4436 65.7455C67.7449 65.7625 67.0377 65.754 66.339 65.7455C66.1515 65.7455 66.0663 65.8051 65.9811 65.9756C65.5466 66.8276 64.8479 67.2792 63.8936 67.2962C63.1097 67.3048 62.3173 67.3048 61.5334 67.2962C60.2383 67.2792 59.2499 66.2993 59.2158 65.0213C59.1903 63.7858 60.1275 62.7548 61.3971 62.6866C62.2747 62.644 63.1608 62.6526 64.0384 62.6866C64.9416 62.7207 65.5892 63.1979 65.9982 64.0073C66.0408 64.0925 66.143 64.2203 66.2197 64.2203C67.0973 64.2203 67.992 64.2629 68.8611 64.1692C70.3181 64.0158 71.4513 62.7207 71.4939 61.2552C71.5109 60.6928 71.4939 60.156 71.4939 59.5852ZM71.0934 54.4217C71.0934 55.376 71.0934 56.3388 71.0934 57.2931C71.0934 57.3102 71.0934 57.3357 71.0934 57.3528C71.102 57.847 71.3405 58.0685 71.8347 58.0344C72.6953 57.9833 73.4281 57.2591 73.4536 56.3559C73.4792 55.0693 73.4792 53.7827 73.4536 52.4961C73.4366 51.627 72.7379 50.8942 71.9114 50.809C71.3491 50.7494 71.0934 50.9794 71.0934 51.5418C71.0934 52.5131 71.0934 53.4674 71.0934 54.4217ZM46.8866 54.4388C46.8866 53.4674 46.8866 52.5046 46.8866 51.5333C46.8866 51.5162 46.8866 51.4907 46.8866 51.4736C46.8696 51.0306 46.6395 50.809 46.205 50.8175C45.3189 50.8346 44.5435 51.5759 44.5264 52.4961C44.5009 53.7827 44.5009 55.0693 44.5264 56.3559C44.5435 57.225 45.2422 57.9577 46.0687 58.0344C46.6395 58.0856 46.8866 57.8725 46.8866 57.3017C46.8866 56.3474 46.8866 55.3931 46.8866 54.4388ZM62.7092 65.754C63.1012 65.754 63.4931 65.7625 63.8851 65.754C64.3537 65.7455 64.6775 65.4217 64.6775 64.9787C64.6775 64.5441 64.3707 64.2118 63.9192 64.2033C63.1182 64.1862 62.3258 64.1862 61.5249 64.2033C61.0477 64.2118 60.7325 64.5526 60.741 64.9957C60.7495 65.4388 61.0733 65.754 61.5505 65.7625C61.9424 65.7625 62.3258 65.754 62.7092 65.754Z" fill="url(#paint2_linear_133_2565)"/>
<path d="M54.0863 56.5604C53.4473 56.5349 52.8594 56.3985 52.3396 56.0662C51.3086 55.4016 50.7974 54.4473 50.7889 53.2374C50.7804 51.0817 50.7633 48.9175 50.7889 46.7618C50.8145 44.8191 52.1948 43.4644 54.1375 43.4559C57.3667 43.4473 60.6045 43.4473 63.8338 43.4559C65.7765 43.4644 67.1568 44.8106 67.1824 46.7533C67.2079 48.926 67.2079 51.0902 67.1824 53.263C67.1568 55.2142 65.7509 56.5519 63.7912 56.5604C62.5046 56.5689 61.218 56.5689 59.9314 56.5604C59.7269 56.5604 59.5735 56.6201 59.4287 56.7734C58.5426 57.6596 57.6564 58.5542 56.7618 59.4233C56.3102 59.8579 55.7649 59.9771 55.1684 59.7726C54.5805 59.5682 54.2141 59.1421 54.1204 58.5287C54.0863 58.2986 54.0863 58.06 54.0863 57.83C54.0863 57.4039 54.0863 56.995 54.0863 56.5604ZM55.62 58.2645C55.6456 58.2816 55.6711 58.2901 55.6967 58.3071C55.7819 58.2304 55.8671 58.1538 55.9438 58.0771C56.8385 57.1824 57.7416 56.3048 58.6278 55.4016C58.8919 55.129 59.1816 55.0182 59.5565 55.0182C60.9368 55.0352 62.3172 55.0267 63.6975 55.0267C64.967 55.0267 65.6487 54.3451 65.6487 53.0755C65.6487 51.0221 65.6487 48.9772 65.6487 46.9237C65.6487 45.6541 64.967 44.981 63.6975 44.981C60.5534 44.981 57.4093 44.981 54.2653 44.981C52.9872 44.981 52.3141 45.6541 52.3141 46.9237C52.3141 48.9772 52.3141 51.0221 52.3141 53.0755C52.3141 53.2118 52.3141 53.3482 52.3311 53.493C52.4163 54.2599 52.9701 54.8563 53.7285 54.9841C54.0267 55.0352 54.3419 55.0267 54.6487 55.0267C55.3559 55.0352 55.6115 55.2823 55.6115 55.981C55.62 56.7393 55.62 57.5062 55.62 58.2645Z" fill="url(#paint3_linear_133_2565)"/>
<path d="M58.9947 48.9942C59.6081 48.9942 60.1364 49.5225 60.1279 50.1359C60.1194 50.7494 59.5911 51.2692 58.9776 51.2606C58.3727 51.2436 57.87 50.7409 57.8614 50.1359C57.8529 49.5139 58.3812 48.9857 58.9947 48.9942Z" fill="url(#paint4_linear_133_2565)"/>
<path d="M56.395 50.1188C56.395 50.7408 55.8838 51.2606 55.2618 51.2521C54.6398 51.2435 54.1371 50.7238 54.1456 50.1018C54.1541 49.4968 54.6568 48.9941 55.2618 48.9856C55.8838 48.9856 56.395 49.4968 56.395 50.1188Z" fill="url(#paint5_linear_133_2565)"/>
<path d="M63.8338 50.1274C63.8338 50.7494 63.3056 51.2606 62.6921 51.2521C62.0701 51.2436 61.5674 50.7238 61.5844 50.1019C61.5929 49.4884 62.0956 48.9942 62.7006 48.9942C63.3226 48.9857 63.8423 49.5054 63.8338 50.1274Z" fill="url(#paint6_linear_133_2565)"/>
<path d="M58.8844 110.99C53.0285 110.99 47.134 110.99 41.2781 110.99C37.6566 110.99 36 109.245 36 105.518C36 104.09 36 102.662 36 101.195C36 97.7845 37.7337 96 41.0854 96C47.2496 96 53.4137 96 59.5779 96C65.2027 96 70.8275 96 76.4908 96C80.4975 96 82 97.5466 82 101.592C82 103.059 82 104.566 82 106.033C81.9615 109.087 80.2278 110.911 77.2228 110.95C71.1357 111.03 65.01 110.99 58.8844 110.99ZM58.8074 108.095C64.933 108.095 71.0201 108.095 77.1457 108.095C78.6868 108.095 79.2261 107.58 79.2647 105.993C79.3032 104.328 79.3032 102.623 79.2647 100.957C79.2261 99.4898 78.6868 98.9346 77.2228 98.8949C75.8744 98.8552 74.526 98.8949 73.1776 98.8949C62.5059 98.8949 51.7956 98.8949 41.124 98.8949C39.2747 98.8949 38.8509 99.3708 38.8124 101.274C38.8124 102.742 38.8124 104.249 38.8124 105.716C38.8124 107.738 39.1977 108.135 41.201 108.135C47.057 108.095 52.9514 108.095 58.8074 108.095Z" fill="url(#paint7_linear_133_2565)"/>
<path d="M50.0638 80.0031C51.1386 79.9609 52.0415 80.3408 51.9985 81.5227C51.9555 82.6623 51.0956 83 49.9778 83C48.8599 83 48 82.6201 48 81.4382C48 80.2986 48.9459 80.0031 50.0638 80.0031Z" fill="url(#paint8_linear_133_2565)"/>
<path d="M58.5326 80C59.3472 80 60.0315 80.338 59.9989 81.5211C59.9663 82.7042 59.3146 83 58.4674 83C57.6203 83 56.9686 82.662 57.0012 81.4789C57.0338 80.2958 57.718 80 58.5326 80Z" fill="url(#paint9_linear_133_2565)"/>
<path d="M67.9342 82.9957C66.7923 83.0379 65.9577 82.6582 66.0017 81.4346C66.0456 80.2532 66.924 80 67.9781 80C69.0762 80 70.0425 80.2532 69.9986 81.519C69.9546 82.7847 69.0323 83.0379 67.9342 82.9957Z" fill="url(#paint10_linear_133_2565)"/>
<path d="M6.05198 41.5383C6.05198 37.137 6.05198 32.7741 6.05198 28.3728C6.05198 27.9519 5.93259 27.416 6.13157 27.1099C6.48972 26.6123 7.08665 26 7.56419 26C8.04173 26.0383 8.51928 26.7272 8.91723 27.2247C9.07641 27.4543 8.95702 27.8753 8.95702 28.2198C8.95702 37.0988 8.95702 45.9778 8.95702 54.8185C8.95702 55.163 9.07641 55.5839 8.91723 55.8136C8.51928 56.3111 8.00194 57 7.5244 57C7.04686 57 6.44993 56.3494 6.13157 55.8136C5.8928 55.3926 6.05198 54.7802 6.05198 54.2827C6.05198 50.0346 6.05198 45.7864 6.05198 41.5383Z" fill="url(#paint11_linear_133_2565)"/>
<path d="M6.01024 68.4074C6.01024 67.1484 6.01024 65.9265 6.01024 64.6676C6.01024 63.7049 6.37884 62.9643 7.56655 63.0013C8.6314 63.0384 9 63.7419 9 64.6306C9 67.2225 9 69.8145 9 72.4064C9 73.2951 8.67236 73.9986 7.56655 73.9986C6.46075 74.0356 6.05119 73.3321 6.05119 72.4434C5.96928 71.0734 6.01024 69.7404 6.01024 68.4074Z" fill="url(#paint12_linear_133_2565)"/>
<defs>
<linearGradient id="paint0_linear_133_2565" x1="52.5" y1="140" x2="52.5" y2="0" gradientUnits="userSpaceOnUse">
<stop stop-color="#1CA7FB"/>
<stop offset="1" stop-color="#17FCD7"/>
</linearGradient>
<linearGradient id="paint1_linear_133_2565" x1="59" y1="74" x2="59" y2="28" gradientUnits="userSpaceOnUse">
<stop stop-color="#1CA7FB"/>
<stop offset="1" stop-color="#17FCD7"/>
</linearGradient>
<linearGradient id="paint2_linear_133_2565" x1="58.9844" y1="67.3026" x2="58.9844" y2="36.0123" gradientUnits="userSpaceOnUse">
<stop stop-color="#1CA7FB"/>
<stop offset="1" stop-color="#17FCD7"/>
</linearGradient>
<linearGradient id="paint3_linear_133_2565" x1="58.9885" y1="59.8698" x2="58.9885" y2="43.4495" gradientUnits="userSpaceOnUse">
<stop stop-color="#1CA7FB"/>
<stop offset="1" stop-color="#17FCD7"/>
</linearGradient>
<linearGradient id="paint4_linear_133_2565" x1="58.9947" y1="51.2607" x2="58.9947" y2="48.9941" gradientUnits="userSpaceOnUse">
<stop stop-color="#1CA7FB"/>
<stop offset="1" stop-color="#17FCD7"/>
</linearGradient>
<linearGradient id="paint5_linear_133_2565" x1="55.2703" y1="51.2522" x2="55.2703" y2="48.9856" gradientUnits="userSpaceOnUse">
<stop stop-color="#1CA7FB"/>
<stop offset="1" stop-color="#17FCD7"/>
</linearGradient>
<linearGradient id="paint6_linear_133_2565" x1="62.709" y1="51.2522" x2="62.709" y2="48.9941" gradientUnits="userSpaceOnUse">
<stop stop-color="#1CA7FB"/>
<stop offset="1" stop-color="#17FCD7"/>
</linearGradient>
<linearGradient id="paint7_linear_133_2565" x1="59" y1="111" x2="59" y2="96" gradientUnits="userSpaceOnUse">
<stop stop-color="#1CA7FB"/>
<stop offset="1" stop-color="#17FCD7"/>
</linearGradient>
<linearGradient id="paint8_linear_133_2565" x1="50" y1="83" x2="50" y2="80" gradientUnits="userSpaceOnUse">
<stop stop-color="#1CA7FB"/>
<stop offset="1" stop-color="#17FCD7"/>
</linearGradient>
<linearGradient id="paint9_linear_133_2565" x1="58.5" y1="83" x2="58.5" y2="80" gradientUnits="userSpaceOnUse">
<stop stop-color="#1CA7FB"/>
<stop offset="1" stop-color="#17FCD7"/>
</linearGradient>
<linearGradient id="paint10_linear_133_2565" x1="68" y1="83" x2="68" y2="80" gradientUnits="userSpaceOnUse">
<stop stop-color="#1CA7FB"/>
<stop offset="1" stop-color="#17FCD7"/>
</linearGradient>
<linearGradient id="paint11_linear_133_2565" x1="7.5" y1="57" x2="7.5" y2="26" gradientUnits="userSpaceOnUse">
<stop stop-color="#1CA7FB"/>
<stop offset="1" stop-color="#17FCD7"/>
</linearGradient>
<linearGradient id="paint12_linear_133_2565" x1="7.5" y1="74" x2="7.5" y2="63" gradientUnits="userSpaceOnUse">
<stop stop-color="#1CA7FB"/>
<stop offset="1" stop-color="#17FCD7"/>
</linearGradient>
</defs>
</svg>
