<svg width="358" height="151" viewBox="0 0 358 151" fill="none" xmlns="http://www.w3.org/2000/svg">
<g clip-path="url(#clip0_246_2)">
<path d="M31.6723 55.2347C31.5473 54.7768 31.4381 54.3329 31.3453 53.9043C39.5758 65.4284 49.6697 72.5805 54.2061 74.9297C54.5591 75.139 55.1352 75.6341 55.8327 76.4389C56.5242 77.2366 57.269 78.2621 57.9534 79.4281C59.3344 81.7807 60.3797 84.5496 60.3862 87.064C60.2468 90.9009 58.405 94.1955 56.5034 96.6436C55.7384 97.6285 54.9775 98.4587 54.3385 99.1154C53.3129 96.718 51.5749 95.0019 49.8479 93.7929C47.8358 92.3843 45.7416 91.5998 44.6781 91.2015C44.5773 91.1637 44.4858 91.1293 44.4044 91.0984C39.8717 88.9355 37.3714 86.7654 36.0619 85.0289C35.9328 84.8578 35.8159 84.6919 35.7101 84.5314C36.6882 84.9477 37.6954 85.222 38.6517 85.3973C40.7738 85.7865 42.8017 85.7183 44.0665 85.5256L48.5706 84.8393L44.4514 82.8855C36.7849 79.2493 33.0921 75.5809 31.4873 72.6449C30.7695 71.3317 30.4639 70.1615 30.4015 69.1771C31.366 70.3088 32.4545 71.2792 33.5225 72.0854C35.2394 73.3816 36.971 74.3047 38.2076 74.826C38.2186 74.836 38.2301 74.8462 38.2421 74.8565C38.2827 74.8913 38.4228 75.0113 38.6327 75.0994C38.7023 75.1285 38.9049 75.201 39.1638 75.2073L43.2658 76.8251L40.4741 73.2556C40.4658 73.2324 40.4589 73.215 40.4547 73.2042C40.4539 73.2021 40.4526 73.1988 40.4526 73.1988L40.2276 72.6196L39.8957 72.4941C39.0261 71.2356 36.6335 67.2882 34.5248 62.7397C33.3717 60.2526 32.3284 57.6375 31.6723 55.2347ZM39.525 72.3528L39.5215 72.3514C39.0014 72.146 38.3169 71.8263 37.5521 71.3971L39.525 72.3528Z" stroke="#00FFFF" stroke-width="3"/>
<path d="M104.138 55.2385C104.257 54.7992 104.361 54.3726 104.451 53.96C96.3187 65.4477 86.3626 72.5799 81.8809 74.9266C81.5341 75.1347 80.9653 75.6285 80.2756 76.4332C79.5919 77.2307 78.8552 78.2563 78.1782 79.4224C76.8124 81.775 75.7774 84.5462 75.7709 87.0643C75.9089 90.9058 77.7323 94.2023 79.6124 96.6496C80.3599 97.6227 81.1034 98.4446 81.7305 99.0975C82.7454 96.7137 84.4584 95.004 86.1635 93.7972C88.1556 92.3871 90.2292 91.6017 91.281 91.2033C91.3804 91.1657 91.4706 91.1316 91.5508 91.1006C96.0305 88.9392 98.5015 86.7707 99.796 85.035C99.9223 84.8657 100.037 84.7014 100.141 84.5426C99.1813 84.9522 98.1944 85.2231 97.2567 85.397C95.1544 85.7867 93.1453 85.7185 91.8915 85.5253L87.436 84.8389L91.5034 82.8882C99.0822 79.2536 102.733 75.587 104.321 72.6506C105.023 71.3512 105.327 70.1909 105.393 69.2116C104.448 70.3264 103.384 71.2837 102.339 72.081C100.642 73.3768 98.9292 74.3003 97.7046 74.8226C97.6942 74.8322 97.6834 74.8419 97.6721 74.8516C97.6321 74.8863 97.4918 75.0079 97.2811 75.0973C97.2108 75.127 97.0088 75.1997 96.751 75.2072L92.668 76.8353L95.4326 73.2613C95.4409 73.2377 95.4478 73.22 95.452 73.209C95.4529 73.2071 95.4541 73.2037 95.4541 73.2037L95.677 72.6236L96.0059 72.4979C96.8672 71.2369 99.2321 67.2912 101.317 62.7451C102.457 60.2578 103.489 57.6422 104.138 55.2385ZM96.3771 72.3548L96.3819 72.3529C96.8989 72.1465 97.5808 71.8239 98.3426 71.3907L96.3771 72.3548Z" stroke="#00FFFF" stroke-width="3"/>
<path d="M67.8293 95.9756C78.4466 95.9756 87.0537 87.3344 87.0537 76.6749C87.0537 66.0155 78.4466 57.3743 67.8293 57.3743C57.2119 57.3743 48.6048 66.0155 48.6048 76.6749C48.6048 87.3344 57.2119 95.9756 67.8293 95.9756Z" fill="#00FFFF"/>
<path d="M68.5236 86.5171C68.1344 86.5171 67.7413 86.5171 67.3519 86.5171C67.1214 86.4868 66.8908 86.464 66.6603 86.4298C65.4659 86.2591 64.3358 85.891 63.2775 85.3067C63.1981 85.2611 63.0734 85.2535 62.9827 85.2801C62.5178 85.4167 62.0605 85.5722 61.5993 85.7203C60.798 85.9897 59.993 86.2515 59.1879 86.5171C59.0858 86.5171 58.9876 86.5171 58.8855 86.5171C58.5832 86.4147 58.3829 86.2135 58.2808 85.9099C58.2808 85.8076 58.2808 85.7089 58.2808 85.6065C58.2883 85.5988 58.3035 85.5912 58.3072 85.5799C58.7042 84.3314 59.101 83.0792 59.5054 81.8308C59.5508 81.6941 59.5432 81.5879 59.4752 81.4589C58.946 80.4988 58.5907 79.4819 58.4207 78.3966C58.3677 78.0703 58.3262 77.7401 58.2808 77.41C58.2808 77.0192 58.2808 76.6245 58.2808 76.2337C58.2921 76.1805 58.3072 76.1236 58.311 76.0705C58.4056 74.7158 58.7646 73.4295 59.4147 72.2417C60.919 69.5058 63.2056 67.8324 66.2709 67.2404C66.6414 67.1683 67.0156 67.138 67.3897 67.0886C67.7677 67.0886 68.1457 67.0886 68.5236 67.0886C68.5728 67.1 68.6219 67.1152 68.6711 67.119C70.028 67.2101 71.313 67.5706 72.4999 68.227C75.225 69.741 76.8956 72.0369 77.4814 75.1105C77.5533 75.4823 77.5834 75.858 77.6326 76.2337C77.6326 76.6132 77.6326 76.9927 77.6326 77.3721C77.6212 77.4252 77.6061 77.4821 77.6023 77.5352C77.5079 78.89 77.1526 80.1763 76.4987 81.364C74.9944 84.1 72.7077 85.7734 69.6424 86.3654C69.272 86.4336 68.8979 86.4678 68.5236 86.5171ZM60.2122 84.5819C61.0324 84.3162 61.8185 84.0961 62.5821 83.8078C63.1037 83.6105 63.5194 83.6864 64.0032 83.9595C65.7607 84.9537 67.6467 85.2383 69.6235 84.8286C71.6759 84.3997 73.3276 83.3107 74.5559 81.6107C75.9695 79.6602 76.4232 77.4783 75.9393 75.1218C75.5236 73.0879 74.4464 71.4563 72.7871 70.2192C70.9917 68.8797 68.9659 68.3826 66.7624 68.7051C64.5399 69.0315 62.7483 70.1319 61.4104 71.9419C59.9627 73.8961 59.513 76.0895 59.9703 78.4726C60.148 79.3909 60.4919 80.2522 60.9795 81.0491C61.1496 81.3299 61.1836 81.6069 61.0702 81.9142C60.9795 82.1571 60.9077 82.4038 60.8283 82.6504C60.6242 83.2803 60.4239 83.9103 60.2122 84.5819Z" fill="black"/>
<path d="M64.1809 77.7513C63.663 77.7551 63.2284 77.3188 63.2322 76.7989C63.236 76.2867 63.6593 75.8578 64.1696 75.854C64.6874 75.8502 65.122 76.2867 65.1182 76.8065C65.1182 77.3188 64.695 77.7476 64.1809 77.7513Z" fill="black"/>
<path d="M68.9018 76.8028C68.9018 77.3227 68.4671 77.7552 67.9493 77.7514C67.439 77.7476 67.0157 77.3189 67.0157 76.8065C67.0157 76.2867 67.4504 75.8541 67.9682 75.8579C68.4784 75.8617 68.898 76.2867 68.9018 76.8028Z" fill="black"/>
<path d="M72.6814 76.7951C72.6852 77.315 72.2544 77.7513 71.7327 77.7476C71.2224 77.7438 70.7954 77.3188 70.7916 76.8065C70.7878 76.2867 71.2187 75.8502 71.7403 75.854C72.2506 75.8578 72.6776 76.2829 72.6814 76.7951Z" fill="black"/>
<path d="M113.465 84.4264V69.2703H118.559L125.042 78.2896L131.525 69.2703H136.712V84.3334H132.174V74.7562L126.524 82.5668H123.653L118.004 74.7562V84.4264H113.465Z" fill="#00FFFF"/>
<path d="M153.753 69.2703H158.291V80.9861L154.864 84.4264H143.38L139.953 80.9861V69.2703H144.491V80.9861H153.66V69.2703H153.753Z" fill="#00FFFF"/>
<path d="M161.533 84.4264V69.2703H166.626L173.11 78.2896L179.593 69.2703H184.779V84.3334H180.241V74.7562L174.591 82.5668H171.628L165.978 74.7562V84.4264H161.533Z" fill="#00FFFF"/>
<path d="M188.206 69.2703H204.136L207.562 73.9194L205.432 76.8018L207.562 79.6843L204.136 84.3334H188.206V69.2703ZM201.542 75.3141L202.654 73.9194L201.542 72.7106H192.837V75.4071H201.542V75.3141ZM201.542 80.9861L202.654 79.7773L201.542 78.3825H192.837V80.9861H201.542Z" fill="#00FFFF"/>
<path d="M214.786 80.986H227.66L224.326 84.3334H210.248V69.2703L214.786 66.6667V80.986Z" fill="#00FFFF"/>
<path d="M229.698 69.2703H247.758L244.423 72.6176H234.328V75.3141H245.627L242.571 78.3825H234.328V80.9861H247.202L243.868 84.3334H229.79V69.2703H229.698Z" fill="#00FFFF"/>
<path d="M253.87 72.7106V81.079H266.744L263.41 84.4264H252.759L249.332 81.079V72.7106L252.759 69.2703H267.299L263.965 72.6176H253.87V72.7106Z" fill="#00FFFF"/>
<path d="M269.43 69.2703H273.968V75.3141H282.951V69.2703H287.49V84.4264H282.951V78.3825H273.968V84.4264H269.43V69.2703Z" fill="#00FFFF"/>
<path d="M290.731 84.4262V72.7104L294.158 69.363H305.55L308.976 72.7104V84.4262H304.438V80.149H295.269V84.5192L290.731 84.4262ZM295.362 72.7104V76.8016H304.531V72.7104H295.362Z" fill="#00FFFF"/>
<path d="M309.162 69.2703H329.259L325.925 72.6176H321.479V84.3334H316.941V72.7106H312.496L309.162 69.2703Z" fill="#00FFFF"/>
</g>
<defs>
<clipPath id="clip0_246_2">
<rect width="301" height="53" fill="white" transform="translate(29 49)"/>
</clipPath>
</defs>
</svg>
