<svg width="360" height="153" viewBox="0 0 360 153" fill="none" xmlns="http://www.w3.org/2000/svg">
<path d="M78.5435 59.7264L71.8257 50.4391C76.1434 47.6428 81.2099 45.9286 86.6366 45.6011V57.0792C83.6976 57.3464 80.9509 58.2836 78.5435 59.7264Z" fill="white" stroke="black"/>
<path d="M70.5782 68.8117L59.6945 65.2442C61.6308 60.2715 64.8116 55.9253 68.8646 52.5979L75.5826 61.8854C73.4359 63.7813 71.7188 66.1443 70.5782 68.8117Z" fill="white" stroke="black"/>
<path d="M69.4411 80.8468L58.5592 84.3931C57.911 81.8921 57.5691 79.2775 57.5691 76.5662C57.5691 73.8549 57.911 71.2403 58.5592 68.7393L69.4409 72.2855C69.1296 73.6586 68.9662 75.0857 68.9662 76.5662C68.9662 78.0267 69.1296 79.4695 69.4411 80.8468Z" fill="white" stroke="black"/>
<path d="M75.5835 91.2905L68.8658 100.557C64.8306 97.2289 61.632 92.883 59.6949 87.9122L70.578 84.3655C71.7211 87.0343 73.4551 89.3965 75.5835 91.2905Z" fill="white" stroke="black"/>
<path d="M86.6366 96.0726V107.554C81.1913 107.227 76.1427 105.513 71.8257 102.716L78.5436 93.4285C80.9536 94.8706 83.7007 95.7896 86.6366 96.0726Z" fill="white" stroke="black"/>
<path d="M98.402 93.4285L105.119 102.714C100.8 105.493 95.7334 107.225 90.3089 107.554V96.0757C93.2479 95.8085 95.9946 94.8712 98.402 93.4285Z" fill="white" stroke="black"/>
<path d="M106.367 84.3208L117.251 87.8882C115.314 92.8609 112.134 97.2072 108.081 100.535L101.363 91.2471C103.509 89.3513 105.226 86.9881 106.367 84.3208Z" fill="white" stroke="black"/>
<path d="M107.505 72.2855L118.387 68.7393C119.035 71.2403 119.377 73.8549 119.377 76.5662C119.377 79.2774 119.035 81.8921 118.387 84.3931L107.505 80.8468C107.816 79.4738 107.98 78.0467 107.98 76.5662C107.98 75.1057 107.816 73.6628 107.505 72.2855Z" fill="white" stroke="black"/>
<path d="M101.384 61.865L108.102 52.5986C112.137 55.9266 115.335 60.2727 117.273 65.2433L106.39 68.7901C105.246 66.1213 103.512 63.7592 101.384 61.865Z" fill="white" stroke="black"/>
<path d="M90.3089 57.0793V45.6011C95.7543 45.9282 100.803 47.6424 105.12 50.4392L98.402 59.7265C95.9946 58.2837 93.2479 57.3465 90.3089 57.0793Z" fill="white" stroke="black"/>
<path d="M75.9828 78.5663H76.7681L76.3044 77.93L75.8914 77.3636C76.0466 77.2217 76.1719 77.0474 76.263 76.8431L76.2645 76.8397C76.3519 76.6392 76.3905 76.4357 76.3905 76.2426C76.3905 76.0256 76.3358 75.8348 76.2726 75.6655L76.2682 75.6537L76.263 75.6423C76.1056 75.2896 75.8431 75.0098 75.4706 74.8463C75.2752 74.7556 75.0795 74.7183 74.8722 74.7183H72.5491H72.1507V75.1183V75.7965V76.1965H72.5491H74.8722C74.8772 76.1965 74.8811 76.1968 74.8839 76.197C74.8996 76.2151 74.905 76.2259 74.9066 76.2298C74.9078 76.2327 74.9088 76.2355 74.9088 76.2426C74.9088 76.2471 74.9082 76.2501 74.9082 76.2501L74.9078 76.2513C74.9078 76.2513 74.9073 76.2528 74.9057 76.2551C74.9041 76.2575 74.901 76.2613 74.8959 76.2665C74.8908 76.2716 74.8869 76.2746 74.8846 76.2763C74.8823 76.2778 74.8809 76.2785 74.8809 76.2785L74.8796 76.2788C74.8796 76.2788 74.8765 76.2794 74.8722 76.2794H72.5491H72.1507V76.6794V78.1663V78.5663H72.5491H73.2247H73.6231V78.1663V77.7671H74.3482L74.821 78.4051L74.9405 78.5663H75.1406H75.9828Z" fill="white" stroke="black" stroke-width="0.7"/>
<path d="M80.5827 78.5663H81.2612L80.9306 77.9714L79.2369 74.9233L79.1229 74.7183H78.889H78.2966H78.0634L77.9492 74.9225L76.2462 77.9706L75.9134 78.5663H76.5937H77.3711H77.6042L77.7184 78.3621L78.5915 76.8016L79.4573 78.361L79.5712 78.5663H79.8053H80.5827Z" fill="white" stroke="black" stroke-width="0.7"/>
<path d="M85.1827 78.5663H85.5811V78.1663V75.1183V74.7183H85.1827H84.4145H84.2077L84.0887 74.888L83.1847 76.1778L82.2885 74.8891L82.1695 74.7183H81.9618H81.1936H80.7952V75.1183V78.157V78.557H81.1936H81.8785H82.2769V78.157V77.4372L82.5887 77.8845L82.7077 78.0552H82.9151H83.4704H83.6778L83.7969 77.8845L84.1086 77.4372V78.1663V78.5663H84.507H85.1827Z" fill="white" stroke="black" stroke-width="0.7"/>
<path d="M89.5794 76.2152H89.857V75.8152V75.1275V74.7275H89.4586H86.0249H85.6265V75.1275V75.8152V76.2152H85.8949V76.3078V76.9862V77.088H85.6265V77.488V78.1664V78.5664H86.0249H89.4586H89.857V78.1664V77.488V77.088H89.5794V76.9862V76.3078V76.2152Z" fill="white" stroke="black" stroke-width="0.7"/>
<path d="M89.7359 77.2278C89.7359 77.4115 89.7745 77.6028 89.8598 77.7754C90.0134 78.0952 90.2643 78.3349 90.6021 78.4653C90.7608 78.5267 90.9389 78.5664 91.1246 78.5664H92.5869C92.7768 78.5664 92.9429 78.5246 93.1016 78.4715L93.1103 78.4686L93.1187 78.4653C93.4574 78.3346 93.7089 78.0937 93.8624 77.7726L93.8649 77.7672C93.9431 77.597 93.9849 77.4193 93.9849 77.2278C93.9849 77.0395 93.9445 76.8581 93.8611 76.6894C93.8194 76.6028 93.7706 76.522 93.7148 76.4476H93.9757V76.0476C93.9757 75.8638 93.9371 75.6725 93.8518 75.5C93.7 75.184 93.453 74.946 93.1212 74.8146C92.936 74.7315 92.7492 74.709 92.5869 74.709H91.1246C90.9279 74.709 90.7589 74.7494 90.6021 74.81C90.2634 74.9409 90.012 75.1817 89.8584 75.5028L89.8559 75.5083C89.7777 75.6784 89.7359 75.8562 89.7359 76.0476C89.7359 76.2314 89.7745 76.4227 89.8598 76.5952C89.8997 76.6784 89.9462 76.7561 89.9991 76.8278H89.7359V77.2278Z" fill="white" stroke="black" stroke-width="0.7"/>
<path d="M95.993 78.5663H96.3914V78.1663V76.1965H97.0944H97.4927V75.7965V75.1183V74.7183H97.0944H94.2066H93.8082V75.1183V75.7965V76.1965H94.2066H94.9189V78.1663V78.5663H95.3173H95.993Z" fill="white" stroke="black" stroke-width="0.7"/>
<path d="M99.6026 78.5663H100.001V78.1663V76.1965H100.704H101.102V75.7965V75.1183V74.7183H100.704H97.8164H97.418V75.1183V75.7965V76.1965H97.8164H98.5286V78.1663V78.5663H98.9269H99.6026Z" fill="white" stroke="black" stroke-width="0.7"/>
<path d="M104.341 78.5663H105.022L104.689 77.9706L102.986 74.9225L102.872 74.7183H102.638H102.046H101.812L101.698 74.9233L100.004 77.9714L99.6737 78.5663H100.352H101.13H101.363L101.477 78.3621L102.35 76.8016L103.216 78.361L103.33 78.5663H103.564H104.341Z" fill="white" stroke="black" stroke-width="0.7"/>
<path d="M131.35 83.8572V67.8572H138.271C139.273 67.8572 140.145 68.0324 140.889 68.3829C141.633 68.7334 142.209 69.2286 142.619 69.8686C143.029 70.5086 143.234 71.2629 143.234 72.1315V72.4057C143.234 73.3657 143.006 74.1429 142.551 74.7372C142.095 75.3315 141.534 75.7657 140.866 76.04V76.4515C141.473 76.482 141.944 76.6952 142.278 77.0915C142.611 77.4724 142.778 77.9829 142.778 78.6229V83.8572H139.773V79.0572C139.773 78.6915 139.675 78.3943 139.478 78.1657C139.295 77.9372 138.984 77.8229 138.544 77.8229H134.355V83.8572H131.35ZM134.355 75.08H137.952C138.666 75.08 139.219 74.8895 139.614 74.5086C140.024 74.1124 140.229 73.5943 140.229 72.9543V72.7257C140.229 72.0857 140.031 71.5752 139.637 71.1943C139.242 70.7981 138.681 70.6 137.952 70.6H134.355V75.08ZM149.331 84.1772C148.527 84.1772 147.806 84.04 147.168 83.7657C146.531 83.4763 146.023 83.0648 145.643 82.5315C145.279 81.9829 145.097 81.32 145.097 80.5429C145.097 79.7657 145.279 79.1181 145.643 78.6C146.023 78.0667 146.539 77.6705 147.191 77.4115C147.859 77.1372 148.618 77 149.468 77H152.564V76.36C152.564 75.8267 152.397 75.3924 152.063 75.0572C151.729 74.7067 151.198 74.5315 150.469 74.5315C149.756 74.5315 149.225 74.6991 148.876 75.0343C148.527 75.3543 148.299 75.7734 148.193 76.2915L145.552 75.4C145.734 74.8209 146.023 74.2952 146.417 73.8229C146.827 73.3352 147.366 72.9467 148.033 72.6572C148.716 72.3524 149.544 72.2 150.515 72.2C152.002 72.2 153.178 72.5734 154.043 73.32C154.908 74.0667 155.341 75.1486 155.341 76.5657V80.7943C155.341 81.2515 155.553 81.48 155.978 81.48H156.889V83.8572H154.977C154.415 83.8572 153.952 83.72 153.588 83.4457C153.224 83.1715 153.042 82.8057 153.042 82.3486V82.3257H152.609C152.548 82.5086 152.412 82.7524 152.199 83.0572C151.987 83.3467 151.653 83.6057 151.198 83.8343C150.742 84.0629 150.12 84.1772 149.331 84.1772ZM149.832 81.8457C150.636 81.8457 151.289 81.6248 151.79 81.1829C152.306 80.7257 152.564 80.1238 152.564 79.3772V79.1486H149.672C149.141 79.1486 148.724 79.2629 148.42 79.4915C148.117 79.72 147.965 80.04 147.965 80.4515C147.965 80.8629 148.124 81.1981 148.443 81.4572C148.762 81.7163 149.225 81.8457 149.832 81.8457ZM158.986 83.8572V72.52H161.809V73.7543H162.219C162.416 73.3734 162.742 73.0457 163.198 72.7715C163.653 72.482 164.253 72.3372 164.996 72.3372C165.801 72.3372 166.446 72.4972 166.931 72.8172C167.417 73.122 167.789 73.5257 168.047 74.0286H168.456C168.714 73.5409 169.079 73.1372 169.549 72.8172C170.02 72.4972 170.687 72.3372 171.552 72.3372C172.251 72.3372 172.881 72.4895 173.442 72.7943C174.019 73.0838 174.474 73.5334 174.808 74.1429C175.157 74.7372 175.331 75.4915 175.331 76.4057V83.8572H172.463V76.6115C172.463 75.9867 172.303 75.522 171.985 75.2172C171.666 74.8972 171.219 74.7372 170.642 74.7372C169.989 74.7372 169.481 74.9505 169.117 75.3772C168.768 75.7886 168.593 76.3829 168.593 77.16V83.8572H165.725V76.6115C165.725 75.9867 165.565 75.522 165.247 75.2172C164.928 74.8972 164.48 74.7372 163.903 74.7372C163.251 74.7372 162.742 74.9505 162.378 75.3772C162.029 75.7886 161.855 76.3829 161.855 77.16V83.8572H158.986ZM183.562 84.1772C182.438 84.1772 181.445 83.9409 180.58 83.4686C179.729 82.9809 179.061 82.3029 178.576 81.4343C178.105 80.5505 177.871 79.5143 177.871 78.3257V78.0515C177.871 76.8629 178.105 75.8343 178.576 74.9657C179.046 74.082 179.707 73.4038 180.557 72.9315C181.406 72.4438 182.393 72.2 183.516 72.2C184.624 72.2 185.588 72.4515 186.408 72.9543C187.227 73.442 187.864 74.1277 188.32 75.0115C188.775 75.88 189.003 76.8934 189.003 78.0515V79.0343H180.785C180.814 79.8115 181.103 80.4438 181.65 80.9315C182.196 81.4191 182.863 81.6629 183.653 81.6629C184.457 81.6629 185.048 81.4877 185.429 81.1372C185.808 80.7867 186.096 80.3981 186.294 79.9715L188.638 81.2057C188.426 81.602 188.115 82.0363 187.705 82.5086C187.31 82.9657 186.779 83.362 186.112 83.6972C185.443 84.0172 184.593 84.1772 183.562 84.1772ZM180.807 76.8857H186.089C186.027 76.2305 185.762 75.7048 185.292 75.3086C184.837 74.9124 184.237 74.7143 183.494 74.7143C182.72 74.7143 182.105 74.9124 181.65 75.3086C181.194 75.7048 180.913 76.2305 180.807 76.8857ZM196.245 84.1772C194.773 84.1772 193.566 83.8572 192.626 83.2172C191.684 82.5772 191.115 81.6629 190.918 80.4743L193.559 79.7886C193.665 80.322 193.839 80.7409 194.083 81.0457C194.34 81.3505 194.652 81.5715 195.016 81.7086C195.395 81.8305 195.805 81.8915 196.245 81.8915C196.912 81.8915 197.406 81.7772 197.725 81.5486C198.044 81.3048 198.203 81.0077 198.203 80.6572C198.203 80.3067 198.051 80.04 197.748 79.8572C197.444 79.6591 196.958 79.4991 196.291 79.3772L195.652 79.2629C194.864 79.1105 194.143 78.9048 193.491 78.6457C192.837 78.3715 192.314 77.9981 191.92 77.5257C191.525 77.0534 191.328 76.4438 191.328 75.6972C191.328 74.5695 191.738 73.7086 192.557 73.1143C193.377 72.5048 194.454 72.2 195.79 72.2C197.049 72.2 198.096 72.482 198.932 73.0457C199.766 73.6095 200.312 74.3486 200.571 75.2629L197.907 76.0857C197.785 75.5067 197.535 75.0952 197.156 74.8515C196.792 74.6077 196.336 74.4857 195.79 74.4857C195.244 74.4857 194.826 74.5848 194.538 74.7829C194.249 74.9657 194.105 75.2248 194.105 75.56C194.105 75.9257 194.257 76.2 194.561 76.3829C194.864 76.5505 195.273 76.68 195.79 76.7715L196.428 76.8857C197.277 77.0381 198.044 77.2438 198.727 77.5029C199.425 77.7467 199.971 78.1048 200.366 78.5772C200.776 79.0343 200.981 79.6591 200.981 80.4515C200.981 81.64 200.548 82.562 199.683 83.2172C198.833 83.8572 197.686 84.1772 196.245 84.1772ZM207.819 83.8572C207.075 83.8572 206.468 83.6286 205.998 83.1715C205.543 82.6991 205.315 82.0743 205.315 81.2972V74.8972H202.492V72.52H205.315V69H208.183V72.52H210.596V74.8972H208.183V80.7943C208.183 81.2515 208.395 81.48 208.821 81.48H211.006V83.8572H207.819ZM215.24 83.8572C214.496 83.8572 213.889 83.6286 213.419 83.1715C212.964 82.6991 212.736 82.0743 212.736 81.2972V74.8972H210.596V72.52H212.736V69H215.605V72.52H218.701V74.8972H215.605V80.7943C215.605 81.2515 215.816 81.48 216.242 81.48H218.428V83.8572H215.24ZM224.806 84.1772C224.003 84.1772 223.281 84.04 222.644 83.7657C222.006 83.4763 221.499 83.0648 221.118 82.5315C220.754 81.9829 220.572 81.32 220.572 80.5429C220.572 79.7657 220.754 79.1181 221.118 78.6C221.499 78.0667 222.014 77.6705 222.666 77.4115C223.335 77.1372 224.094 77 224.943 77H228.039V76.36C228.039 75.8267 227.873 75.3924 227.538 75.0572C227.205 74.7067 226.673 74.5315 225.945 74.5315C225.232 74.5315 224.7 74.6991 224.351 75.0343C224.003 75.3543 223.775 75.7734 223.668 76.2915L221.027 75.4C221.209 74.8209 221.499 74.2952 221.892 73.8229C222.302 73.3352 222.842 72.9467 223.509 72.6572C224.192 72.3524 225.019 72.2 225.99 72.2C227.478 72.2 228.654 72.5734 229.519 73.32C230.384 74.0667 230.816 75.1486 230.816 76.5657V80.7943C230.816 81.2515 231.029 81.48 231.454 81.48H232.364V83.8572H230.452C229.891 83.8572 229.428 83.72 229.063 83.4457C228.699 83.1715 228.517 82.8057 228.517 82.3486V82.3257H228.084C228.024 82.5086 227.888 82.7524 227.675 83.0572C227.463 83.3467 227.128 83.6057 226.673 83.8343C226.218 84.0629 225.596 84.1772 224.806 84.1772ZM225.307 81.8457C226.112 81.8457 226.764 81.6248 227.265 81.1829C227.782 80.7257 228.039 80.1238 228.039 79.3772V79.1486H225.148C224.617 79.1486 224.2 79.2629 223.896 79.4915C223.593 79.72 223.44 80.04 223.44 80.4515C223.44 80.8629 223.6 81.1981 223.919 81.4572C224.237 81.7163 224.7 81.8457 225.307 81.8457ZM240.537 83.8572V67.8572H246.638C247.594 67.8572 248.443 68.0477 249.188 68.4286C249.946 68.7943 250.546 69.32 250.986 70.0057C251.425 70.6915 251.646 71.522 251.646 72.4972V72.7943C251.646 73.7543 251.419 74.5848 250.963 75.2857C250.523 75.9715 249.923 76.4972 249.165 76.8629C248.406 77.2286 247.563 77.4115 246.638 77.4115H242.449V83.8572H240.537ZM242.449 75.6743H246.433C247.45 75.6743 248.254 75.4229 248.846 74.92C249.438 74.402 249.734 73.6781 249.734 72.7486V72.52C249.734 71.5905 249.438 70.8743 248.846 70.3715C248.269 69.8534 247.464 69.5943 246.433 69.5943H242.449V75.6743ZM259.066 84.1772C257.943 84.1772 256.949 83.9409 256.084 83.4686C255.234 82.9963 254.566 82.3334 254.081 81.48C253.61 80.6115 253.375 79.5905 253.375 78.4172V78.12C253.375 76.962 253.61 75.9486 254.081 75.08C254.566 74.2115 255.234 73.5409 256.084 73.0686C256.949 72.5963 257.943 72.36 259.066 72.36C260.189 72.36 261.176 72.5963 262.026 73.0686C262.891 73.5409 263.558 74.2115 264.029 75.08C264.514 75.9486 264.758 76.962 264.758 78.12V78.4172C264.758 79.5905 264.514 80.6115 264.029 81.48C263.558 82.3334 262.891 82.9963 262.026 83.4686C261.176 83.9409 260.189 84.1772 259.066 84.1772ZM259.066 82.5543C260.25 82.5543 261.19 82.1809 261.889 81.4343C262.602 80.6724 262.959 79.6515 262.959 78.3715V78.1657C262.959 76.8857 262.602 75.8724 261.889 75.1257C261.19 74.3638 260.25 73.9829 259.066 73.9829C257.898 73.9829 256.956 74.3638 256.244 75.1257C255.53 75.8724 255.174 76.8857 255.174 78.1657V78.3715C255.174 79.6515 255.53 80.6724 256.244 81.4343C256.956 82.1809 257.898 82.5543 259.066 82.5543ZM267.994 83.8572V72.68H269.747V74.0515H270.065C270.262 73.5638 270.566 73.2057 270.976 72.9772C271.386 72.7486 271.924 72.6343 272.592 72.6343H273.913V74.28H272.478C271.674 74.28 271.022 74.5086 270.521 74.9657C270.035 75.4077 269.792 76.1009 269.792 77.0457V83.8572H267.994ZM280.673 83.8572C280.035 83.8572 279.542 83.682 279.193 83.3315C278.859 82.9809 278.692 82.5009 278.692 81.8915V74.2572H275.346V72.68H278.692V68.7029H280.491V72.68H284.133V74.2572H280.491V81.6172C280.491 82.0743 280.71 82.3029 281.151 82.3029H283.632V83.8572H280.673ZM290.395 84.1772C289.62 84.1772 288.915 84.04 288.277 83.7657C287.64 83.4915 287.139 83.0952 286.775 82.5772C286.411 82.0591 286.229 81.4267 286.229 80.68C286.229 79.9181 286.411 79.2934 286.775 78.8057C287.139 78.3029 287.64 77.9295 288.277 77.6857C288.915 77.4267 289.627 77.2972 290.417 77.2972H294.173V76.4743C294.173 75.682 293.938 75.0572 293.468 74.6C293.012 74.1429 292.33 73.9143 291.419 73.9143C290.523 73.9143 289.825 74.1352 289.325 74.5772C288.824 75.0038 288.482 75.5829 288.3 76.3143L286.616 75.7657C286.798 75.1409 287.086 74.5772 287.481 74.0743C287.874 73.5563 288.398 73.1448 289.051 72.84C289.718 72.52 290.515 72.36 291.442 72.36C292.868 72.36 293.975 72.7334 294.765 73.48C295.554 74.2115 295.949 75.2477 295.949 76.5886V81.64C295.949 82.0972 296.161 82.3257 296.587 82.3257H297.611V83.8572H296.04C295.539 83.8572 295.136 83.72 294.834 83.4457C294.53 83.1563 294.378 82.7752 294.378 82.3029V82.1886H294.105C293.938 82.4781 293.71 82.7829 293.422 83.1029C293.149 83.4077 292.769 83.6591 292.284 83.8572C291.798 84.0705 291.169 84.1772 290.395 84.1772ZM290.599 82.6229C291.661 82.6229 292.518 82.3105 293.172 81.6857C293.839 81.0457 294.173 80.1543 294.173 79.0115V78.76H290.486C289.772 78.76 289.18 78.92 288.71 79.24C288.255 79.5448 288.027 80.0095 288.027 80.6343C288.027 81.2591 288.261 81.7467 288.733 82.0972C289.218 82.4477 289.84 82.6229 290.599 82.6229ZM300.074 83.8572V67.8572H301.873V83.8572H300.074Z" fill="white"/>
</svg>
