<svg width="360" height="153" viewBox="0 0 360 153" fill="none" xmlns="http://www.w3.org/2000/svg">
<path d="M95.1864 85.9907H97.9545C98.8367 85.9907 99.1105 85.6865 99.1105 84.7435V79.1159C99.1105 77.0778 99.0801 75.3439 98.1675 71.6327H98.4413C98.9888 73.6099 99.5972 75.5568 100.236 76.9561L101.787 80.576C102.061 81.2453 102.396 81.4582 103.126 81.4582H105.012C105.803 81.4582 106.077 81.1844 106.35 80.576L107.871 76.9561C108.51 75.496 109.24 73.4578 109.788 71.6327H110.062C108.997 75.2222 109.058 77.169 109.058 79.0855V84.7435C109.058 85.6865 109.362 85.9907 110.274 85.9907H113.134C114.046 85.9907 114.32 85.6865 114.32 84.7435V65.64C114.32 64.697 114.046 64.3928 113.134 64.3928H110.214C109.301 64.3928 109.027 64.5145 108.662 65.3662L104.099 75.5872L99.5972 65.3358C99.2626 64.5449 98.928 64.3928 97.9545 64.3928H95.1864C94.3346 64.3928 94 64.697 94 65.64V84.7435C94 85.6865 94.3346 85.9907 95.1864 85.9907Z" fill="url(#paint0_linear_246_5)"/>
<path d="M128.167 86.447C133.673 86.447 136.745 83.2529 136.745 78.112V72.2715C136.745 67.1306 133.673 63.9365 128.167 63.9365C122.661 63.9365 119.588 67.1306 119.588 72.2715V78.112C119.588 83.2529 122.661 86.447 128.167 86.447ZM128.167 81.5799C126.098 81.5799 125.003 80.4543 125.003 78.2946V72.089C125.003 69.9292 126.098 68.8037 128.167 68.8037C130.235 68.8037 131.33 69.9292 131.33 72.089V78.2946C131.33 80.4543 130.235 81.5799 128.167 81.5799Z" fill="url(#paint1_linear_246_5)"/>
<path d="M150.025 86.447C155.531 86.447 158.603 83.2529 158.603 78.112V72.2715C158.603 67.1306 155.531 63.9365 150.025 63.9365C144.519 63.9365 141.446 67.1306 141.446 72.2715V78.112C141.446 83.2529 144.519 86.447 150.025 86.447ZM150.025 81.5799C147.956 81.5799 146.861 80.4543 146.861 78.2946V72.089C146.861 69.9292 147.956 68.8037 150.025 68.8037C152.093 68.8037 153.188 69.9292 153.188 72.089V78.2946C153.188 80.4543 152.093 81.5799 150.025 81.5799Z" fill="url(#paint2_linear_246_5)"/>
<path d="M165.038 85.9907H167.837C168.75 85.9907 169.023 85.6561 169.023 84.7435V78.4467C169.023 75.4351 168.719 73.397 168.233 71.2068H168.445C169.176 73.5187 169.632 75.0701 170.727 77.169L175.046 85.3823C175.259 85.8082 175.564 85.9907 176.172 85.9907H179.427C180.309 85.9907 180.613 85.6561 180.613 84.7435V65.64C180.613 64.7274 180.309 64.3928 179.427 64.3928H176.628C175.716 64.3928 175.412 64.7274 175.412 65.64V71.9369C175.412 74.8571 175.959 76.6215 176.598 79.0855H176.355C175.624 76.9865 175.229 75.5264 174.073 73.3666L169.632 65.0012C169.419 64.5753 169.084 64.3928 168.476 64.3928H165.038C164.187 64.3928 163.852 64.7274 163.852 65.64V84.7435C163.852 85.6561 164.187 85.9907 165.038 85.9907Z" fill="url(#paint3_linear_246_5)"/>
<path d="M187.64 85.9907H198.561C199.473 85.9907 199.777 85.6561 199.777 84.7435V82.3708C199.777 81.4278 199.473 81.1236 198.561 81.1236H191.838V65.64C191.838 64.7274 191.534 64.3928 190.621 64.3928H187.64C186.758 64.3928 186.423 64.7274 186.423 65.64V84.7435C186.423 85.6561 186.758 85.9907 187.64 85.9907Z" fill="url(#paint4_linear_246_5)"/>
<path d="M203.481 85.9907H206.31C207.679 85.9907 208.074 85.7169 208.317 84.8043L209.047 82.2187H215.253L215.922 84.8043C216.166 85.7169 216.592 85.9907 218.021 85.9907H220.942C221.793 85.9907 222.037 85.5648 221.763 84.7739L215.314 65.3662C215.071 64.6058 214.645 64.3928 213.854 64.3928H210.599C209.778 64.3928 209.413 64.5753 209.139 65.4271L202.72 84.7739C202.446 85.5648 202.629 85.9907 203.481 85.9907ZM214.067 77.8383H210.295L211.359 73.6708C211.755 72.1498 211.968 70.3551 212.059 69.4425H212.272C212.363 70.3551 212.607 72.1194 213.002 73.6708L214.067 77.8383Z" fill="url(#paint5_linear_246_5)"/>
<path d="M227.256 85.9907H230.055C230.967 85.9907 231.241 85.6561 231.241 84.7435V78.4467C231.241 75.4351 230.937 73.397 230.45 71.2068H230.663C231.393 73.5187 231.849 75.0701 232.944 77.169L237.264 85.3823C237.477 85.8082 237.781 85.9907 238.39 85.9907H241.644C242.527 85.9907 242.831 85.6561 242.831 84.7435V65.64C242.831 64.7274 242.527 64.3928 241.644 64.3928H238.846C237.933 64.3928 237.629 64.7274 237.629 65.64V71.9369C237.629 74.8571 238.177 76.6215 238.815 79.0855H238.572C237.842 76.9865 237.447 75.5264 236.291 73.3666L231.849 65.0012C231.636 64.5753 231.302 64.3928 230.693 64.3928H227.256C226.404 64.3928 226.07 64.7274 226.07 65.64V84.7435C226.07 85.6561 226.404 85.9907 227.256 85.9907Z" fill="url(#paint6_linear_246_5)"/>
<path d="M249.827 85.9907H256.611C262.147 85.9907 265.219 82.7967 265.219 77.6557V72.7278C265.219 67.5869 262.147 64.3928 256.611 64.3928H249.827C248.975 64.3928 248.641 64.7274 248.641 65.64V84.7435C248.641 85.6561 248.975 85.9907 249.827 85.9907ZM256.398 81.1236H254.055V69.2599H256.398C258.892 69.2599 259.805 70.4463 259.805 72.7582V77.6253C259.805 79.9372 258.892 81.1236 256.398 81.1236Z" fill="url(#paint7_linear_246_5)"/>
<path d="M158.147 85.7023C152.724 95.8782 140.081 99.729 129.905 94.306C119.729 88.883 115.875 76.2365 121.298 66.0642C126.721 55.8884 139.367 52.0339 149.543 57.457C159.719 62.88 163.57 75.5265 158.147 85.7023Z" fill="url(#paint8_radial_246_5)"/>
<g style="mix-blend-mode:multiply" opacity="0.1">
<path d="M156.538 63.5019C160.389 69.0517 161.074 76.507 157.679 82.8791C152.847 91.9465 141.577 95.3807 132.51 90.5481C123.442 85.7156 120.008 74.4457 124.841 65.3747C129.633 56.3871 140.747 52.9348 149.775 57.5862C149.695 57.5427 149.619 57.4992 149.539 57.4594C139.367 52.0327 126.721 55.8872 121.298 66.063C115.875 76.2389 119.729 88.8817 129.901 94.3048C140.077 99.7278 152.72 95.877 158.143 85.7011C162.048 78.3762 161.146 69.7726 156.535 63.5019H156.538Z" fill="#9899BD"/>
</g>
<path opacity="0.4" d="M157.449 77.0727C153.982 83.5789 145.386 85.767 138.246 81.9632C131.106 78.1595 128.132 69.7986 131.598 63.2924C135.065 56.7862 143.662 54.5982 150.802 58.4019C157.942 62.2056 160.916 70.5666 157.449 77.0691V77.0727Z" fill="white"/>
<path opacity="0.6" d="M155.459 70.3773C153.35 74.3368 148.119 75.6663 143.776 73.3514C139.432 71.0366 137.621 65.9505 139.729 61.9946C141.838 58.0351 147.069 56.7056 151.412 59.0204C155.756 61.3353 157.567 66.4214 155.455 70.3773H155.459Z" fill="white"/>
<g style="mix-blend-mode:multiply">
<path d="M144.566 68.6975C144.566 69.9863 143.548 71.0311 142.292 71.0311C141.036 71.0311 140.018 69.9863 140.018 68.6975C140.018 67.4088 141.036 66.364 142.292 66.364C143.548 66.364 144.566 67.4088 144.566 68.6975Z" fill="#AAC0DC" fill-opacity="0.5"/>
<path d="M140.616 78.2134C140.616 80.2622 138.901 81.9231 136.786 81.9231C134.671 81.9231 132.957 80.2622 132.957 78.2134C132.957 76.1646 134.671 74.5037 136.786 74.5037C138.901 74.5037 140.616 76.1646 140.616 78.2134Z" fill="#AAC0DC" fill-opacity="0.5"/>
<path d="M127.845 76.1778C128.134 78.6005 126.985 80.7295 125.278 80.933C123.571 81.1366 121.953 79.3376 121.664 76.9148C121.375 74.4921 122.525 72.3631 124.232 72.1595C125.938 71.956 127.556 73.755 127.845 76.1778Z" fill="#AAC0DC" fill-opacity="0.5"/>
<path d="M151.044 62.2812C151.071 63.0644 150.591 63.7166 149.972 63.7378C149.353 63.759 148.829 63.1413 148.802 62.3581C148.776 61.5749 149.256 60.9227 149.875 60.9015C150.494 60.8803 151.017 61.498 151.044 62.2812Z" fill="#AAC0DC" fill-opacity="0.5"/>
<path d="M152.534 68.9937C153.016 70.5104 152.435 72.0486 151.236 72.4294C150.037 72.8101 148.675 71.8892 148.193 70.3725C147.711 68.8558 148.293 67.3176 149.491 66.9368C150.69 66.5561 152.052 67.477 152.534 68.9937Z" fill="#AAC0DC" fill-opacity="0.5"/>
<path d="M140.022 89.2558C141.875 89.2376 143.39 90.3906 143.404 91.8313C143.418 93.272 141.927 94.4547 140.073 94.473C138.22 94.4913 136.705 93.3382 136.691 91.8975C136.677 90.4569 138.168 89.2741 140.022 89.2558Z" fill="#AAC0DC" fill-opacity="0.5"/>
<path d="M130.041 60.0319C131.605 59.0362 133.525 59.2534 134.329 60.517C135.134 61.7807 134.519 63.6123 132.955 64.608C131.392 65.6037 129.472 65.3865 128.667 64.1229C127.862 62.8592 128.478 61.0276 130.041 60.0319Z" fill="#AAC0DC" fill-opacity="0.5"/>
<path d="M150.662 86.7281C151.713 86.7178 152.571 87.3985 152.58 88.2485C152.588 89.0986 151.743 89.7961 150.693 89.8064C149.642 89.8168 148.784 89.1361 148.776 88.286C148.767 87.436 149.612 86.7385 150.662 86.7281Z" fill="#AAC0DC" fill-opacity="0.5"/>
<path d="M133.231 68.9896C133.963 69.1826 134.419 69.8624 134.249 70.5079C134.079 71.1535 133.347 71.5204 132.615 71.3274C131.883 71.1345 131.427 70.4547 131.598 69.8091C131.768 69.1635 132.499 68.7966 133.231 68.9896Z" fill="#AAC0DC" fill-opacity="0.5"/>
<path d="M126.109 84.4242C126.51 85.0828 126.364 85.9031 125.783 86.2565C125.203 86.6099 124.407 86.3625 124.006 85.7039C123.605 85.0454 123.751 84.225 124.332 83.8716C124.913 83.5182 125.708 83.7656 126.109 84.4242Z" fill="#AAC0DC" fill-opacity="0.5"/>
<path d="M131.565 83.3752C131.97 83.6564 132.098 84.174 131.85 84.5313C131.602 84.8886 131.072 84.9503 130.667 84.6691C130.262 84.3879 130.134 83.8703 130.382 83.5129C130.63 83.1556 131.16 83.0939 131.565 83.3752Z" fill="#AAC0DC" fill-opacity="0.5"/>
<path d="M125.619 67.3794C125.407 67.7456 125.008 67.9113 124.728 67.7493C124.448 67.5874 124.393 67.1591 124.604 66.7928C124.816 66.4266 125.215 66.2609 125.495 66.4229C125.775 66.5849 125.83 67.0131 125.619 67.3794Z" fill="#AAC0DC" fill-opacity="0.5"/>
<path d="M156.283 77.8687C157.244 78.139 157.772 79.2463 157.464 80.3421C157.155 81.4378 156.127 82.107 155.167 81.8367C154.206 81.5665 153.678 80.4591 153.986 79.3634C154.295 78.2677 155.323 77.5985 156.283 77.8687Z" fill="#AAC0DC" fill-opacity="0.5"/>
<path d="M140.296 57.515C141.013 57.7167 141.445 58.4063 141.263 59.0553C141.08 59.7043 140.351 60.067 139.635 59.8654C138.918 59.6637 138.486 58.9741 138.668 58.3251C138.851 57.676 139.58 57.3134 140.296 57.515Z" fill="#AAC0DC" fill-opacity="0.5"/>
</g>
<path d="M158.869 66.0125L158.633 66.4786C153.127 77.5378 137.638 88.4884 127.755 90.9589C125.123 91.6171 123.567 89.1041 123.388 88.9844C123.567 89.6825 127.516 94.5729 127.995 94.4293C128.593 94.2498 136.611 89.4631 144.868 83.3002C151.474 78.3699 156.954 70.5954 158.869 67.3245L158.869 66.0125Z" fill="#050135"/>
<path fill-rule="evenodd" clip-rule="evenodd" d="M120.877 84.9173C120.936 84.9173 120.489 83.9393 120.278 83.4812C115.378 90.5993 114.484 96.2914 119.301 96.9372C125.993 97.8346 140.553 89.4243 151.822 78.1524C163.09 66.8805 166.8 57.0154 160.108 56.118C157.858 55.8164 154.518 56.6738 150.913 58.2313C151.272 58.5305 151.811 58.8296 152.17 59.1297C154.345 58.3582 156.125 58.0853 157.554 58.2769C163.262 59.0424 159.619 67.936 149.417 78.1414C139.214 88.3468 126.316 95.9994 120.607 95.2339C116.852 94.7304 117.334 90.5142 120.877 84.9173Z" fill="url(#paint9_linear_246_5)"/>
<defs>
<linearGradient id="paint0_linear_246_5" x1="293.071" y1="63.9658" x2="87.0839" y2="86.3962" gradientUnits="userSpaceOnUse">
<stop stop-color="#03E1FF"/>
<stop offset="1" stop-color="#EB00FF"/>
</linearGradient>
<linearGradient id="paint1_linear_246_5" x1="293.071" y1="63.9658" x2="87.0839" y2="86.3962" gradientUnits="userSpaceOnUse">
<stop stop-color="#03E1FF"/>
<stop offset="1" stop-color="#EB00FF"/>
</linearGradient>
<linearGradient id="paint2_linear_246_5" x1="293.071" y1="63.9658" x2="87.0839" y2="86.3962" gradientUnits="userSpaceOnUse">
<stop stop-color="#03E1FF"/>
<stop offset="1" stop-color="#EB00FF"/>
</linearGradient>
<linearGradient id="paint3_linear_246_5" x1="293.071" y1="63.9658" x2="87.0839" y2="86.3962" gradientUnits="userSpaceOnUse">
<stop stop-color="#03E1FF"/>
<stop offset="1" stop-color="#EB00FF"/>
</linearGradient>
<linearGradient id="paint4_linear_246_5" x1="293.071" y1="63.9658" x2="87.0839" y2="86.3962" gradientUnits="userSpaceOnUse">
<stop stop-color="#03E1FF"/>
<stop offset="1" stop-color="#EB00FF"/>
</linearGradient>
<linearGradient id="paint5_linear_246_5" x1="293.071" y1="63.9658" x2="87.0839" y2="86.3962" gradientUnits="userSpaceOnUse">
<stop stop-color="#03E1FF"/>
<stop offset="1" stop-color="#EB00FF"/>
</linearGradient>
<linearGradient id="paint6_linear_246_5" x1="293.071" y1="63.9658" x2="87.0839" y2="86.3962" gradientUnits="userSpaceOnUse">
<stop stop-color="#03E1FF"/>
<stop offset="1" stop-color="#EB00FF"/>
</linearGradient>
<linearGradient id="paint7_linear_246_5" x1="293.071" y1="63.9658" x2="87.0839" y2="86.3962" gradientUnits="userSpaceOnUse">
<stop stop-color="#03E1FF"/>
<stop offset="1" stop-color="#EB00FF"/>
</linearGradient>
<radialGradient id="paint8_radial_246_5" cx="0" cy="0" r="1" gradientUnits="userSpaceOnUse" gradientTransform="translate(139.83 76.243) rotate(28.05) scale(27.644)">
<stop stop-color="white"/>
<stop offset="1" stop-color="#CFE0F3"/>
</radialGradient>
<linearGradient id="paint9_linear_246_5" x1="161.481" y1="53.6924" x2="122.228" y2="93.8803" gradientUnits="userSpaceOnUse">
<stop stop-color="#EB00FF"/>
<stop offset="1" stop-color="#03E1FF"/>
</linearGradient>
</defs>
</svg>
