<svg width="360" height="153" viewBox="0 0 360 153" fill="none" xmlns="http://www.w3.org/2000/svg">
<path fill-rule="evenodd" clip-rule="evenodd" d="M113.054 64.5695C119.969 60.8432 125.762 57.7175 132.229 58.0203C142.066 58.4771 152.536 60.8843 162.29 63.1221C177.442 66.602 190.87 69.6867 197.537 64.4771C197.851 64.2 198.17 63.9228 198.484 63.6354C198.556 63.5584 198.633 63.4865 198.705 63.4044C199.672 62.3574 200.531 61.685 201.267 61.3206C202.008 60.9151 202.6 60.8484 203.042 61.0691C204.894 61.7055 204.827 65.8168 202.281 69.6149C197.769 79.3823 183.909 93.4353 157.228 89.591C147.581 88.2001 139.905 85.4131 132.63 82.7646C118.816 77.7398 106.448 73.2436 84.7578 79.8698C73.2849 83.3754 81.3108 84.1197 91.1683 85.0333C100.269 85.875 110.929 86.8656 109.263 90.3045C106.289 91.5055 103.778 91.1462 99.544 90.5457C94.4301 89.8169 86.8003 88.7287 72.8013 89.5859C64.7394 89.5859 61.2924 91.5722 58.2209 93.3378C56.8884 94.1026 55.6331 94.8314 54.0948 95.3344C52.3404 95.9144 51.2857 94.0307 52.5668 92.7014C59.893 85.1103 77.4831 73.5465 96.2308 72.3916C96.1999 72.3814 96.1639 72.3711 96.133 72.3608C102.76 70.1179 108.192 67.1872 113.07 64.5593L113.054 64.5695ZM106.33 72.7201C112.37 73.3412 118.662 74.5525 125.129 75.7946C141.459 78.9357 158.874 82.2873 175.991 76.8519C178.249 75.5841 177.097 74.3677 175.934 73.8955C175.759 73.839 175.579 73.7877 175.404 73.7312C175.265 73.7004 175.137 73.6851 175.024 73.6851L175.168 73.6543C170.959 72.33 167.101 70.8364 163.396 69.4044C149.428 63.9998 137.616 59.4318 117.34 67.9109C112.324 70.0101 108.81 71.5755 106.33 72.715V72.7201Z" fill="white"/>
<path fill-rule="evenodd" clip-rule="evenodd" d="M113.054 64.5695C119.969 60.8432 125.762 57.7175 132.229 58.0203C142.066 58.4771 152.536 60.8843 162.29 63.1221C177.442 66.602 190.87 69.6867 197.537 64.4771C197.851 64.2 198.17 63.9228 198.484 63.6354C198.556 63.5584 198.633 63.4865 198.705 63.4044C199.672 62.3574 200.531 61.685 201.267 61.3206C202.008 60.9151 202.6 60.8484 203.042 61.0691C204.894 61.7055 204.827 65.8168 202.281 69.6149C197.769 79.3823 183.909 93.4353 157.228 89.591C147.581 88.2001 139.905 85.4131 132.63 82.7646C118.816 77.7398 106.448 73.2436 84.7578 79.8698C73.2849 83.3754 81.3108 84.1197 91.1683 85.0333C100.269 85.875 110.929 86.8656 109.263 90.3045C106.289 91.5055 103.778 91.1462 99.544 90.5457C94.4301 89.8169 86.8003 88.7287 72.8013 89.5859C64.7394 89.5859 61.2924 91.5722 58.2209 93.3378C56.8884 94.1026 55.6331 94.8314 54.0948 95.3344C52.3404 95.9144 51.2857 94.0307 52.5668 92.7014C59.893 85.1103 77.4831 73.5465 96.2308 72.3916C96.1999 72.3814 96.1639 72.3711 96.133 72.3608C102.76 70.1179 108.192 67.1872 113.07 64.5593L113.054 64.5695ZM106.33 72.7201C112.37 73.3412 118.662 74.5525 125.129 75.7946C141.459 78.9357 158.874 82.2873 175.991 76.8519C178.249 75.5841 177.097 74.3677 175.934 73.8955C175.759 73.839 175.579 73.7877 175.404 73.7312C175.265 73.7004 175.137 73.6851 175.024 73.6851L175.168 73.6543C170.959 72.33 167.101 70.8364 163.396 69.4044C149.428 63.9998 137.616 59.4318 117.34 67.9109C112.324 70.0101 108.81 71.5755 106.33 72.715V72.7201Z" fill="url(#paint0_linear_246_6)"/>
<path fill-rule="evenodd" clip-rule="evenodd" d="M300.577 65.3911C302.075 65.3911 303.361 65.6529 304.441 66.1764C305.537 66.6845 306.371 67.4134 306.942 68.368C307.528 69.3227 307.821 70.4519 307.821 71.7607C307.821 72.3458 307.77 72.9155 307.662 73.4699C307.384 75.0866 306.782 76.5032 305.856 77.7197C304.945 78.9207 303.788 79.8548 302.383 80.5169C300.979 81.179 299.42 81.5075 297.707 81.5075H293.442C292.721 81.5075 292.176 80.8608 292.299 80.1525L294.759 66.3407C294.856 65.7915 295.335 65.386 295.901 65.386H300.577V65.3911ZM298.077 78.8796C299.775 78.8796 301.164 78.4023 302.244 77.4476C303.34 76.493 304.04 75.1688 304.349 73.475C304.426 72.9669 304.467 72.5306 304.467 72.161C304.467 70.8676 304.081 69.8668 303.309 69.1585C302.553 68.4502 301.442 68.096 299.976 68.096H298.679C298.118 68.096 297.635 68.4964 297.537 69.0507L296.045 77.5246C295.921 78.2329 296.467 78.8796 297.187 78.8796H298.077Z" fill="white"/>
<path fill-rule="evenodd" clip-rule="evenodd" d="M254.717 67.9318C254.156 67.9318 253.672 68.3321 253.574 68.8864L253.245 70.7598C253.122 71.4681 253.667 72.1148 254.387 72.1148H267.162C267.882 72.1148 268.428 72.7615 268.304 73.4698L268.273 73.6546C268.175 74.2089 267.697 74.6093 267.131 74.6093H253.538C252.978 74.6093 252.494 75.0148 252.396 75.5639L252.036 77.6221C251.913 78.3304 252.458 78.9771 253.178 78.9771H265.999C266.719 78.9771 267.265 79.629 267.136 80.3373L267.09 80.5888C266.992 81.138 266.509 81.5383 265.953 81.5383H249.453C248.733 81.5383 248.188 80.8916 248.311 80.1833L250.771 66.3509C250.868 65.8017 251.347 65.3962 251.908 65.3962H268.623C269.343 65.3962 269.884 66.043 269.765 66.7461L269.724 66.9771C269.626 67.5314 269.148 67.9369 268.582 67.9369H254.711L254.717 67.9318Z" fill="white"/>
<path fill-rule="evenodd" clip-rule="evenodd" d="M276.711 67.9318C276.15 67.9318 275.666 68.3321 275.568 68.8864L275.239 70.7598C275.116 71.4681 275.661 72.1148 276.381 72.1148H289.156C289.876 72.1148 290.422 72.7615 290.298 73.4698L290.267 73.6546C290.169 74.2089 289.691 74.6093 289.125 74.6093H275.532C274.972 74.6093 274.488 75.0148 274.39 75.5639L274.03 77.6221C273.907 78.3304 274.452 78.9771 275.172 78.9771H287.993C288.713 78.9771 289.259 79.629 289.13 80.3373L289.084 80.5888C288.986 81.138 288.503 81.5383 287.947 81.5383H271.447C270.727 81.5383 270.182 80.8916 270.305 80.1833L272.765 66.3509C272.862 65.8017 273.341 65.3962 273.902 65.3962H290.617C291.337 65.3962 291.878 66.043 291.759 66.7461L291.718 66.9771C291.62 67.5314 291.142 67.9369 290.576 67.9369H276.705L276.711 67.9318Z" fill="white"/>
<path fill-rule="evenodd" clip-rule="evenodd" d="M247.931 70.38C247.776 71.2423 247.432 72.0481 246.891 72.8077C246.351 73.5622 245.605 74.1679 244.643 74.6349C243.702 75.0969 242.57 75.3279 241.242 75.3279H239.503C238.943 75.3279 238.459 75.7333 238.361 76.2825L237.61 80.5631C237.512 81.1174 237.034 81.5178 236.468 81.5178H235.557C234.837 81.5178 234.292 80.8711 234.415 80.1628L236.874 66.3509C236.972 65.8017 237.451 65.3962 238.017 65.3962H242.997C244.648 65.3962 245.898 65.7658 246.747 66.5049C247.596 67.2286 248.018 68.1986 248.018 69.4151C248.018 69.7692 247.987 70.0926 247.925 70.3851L247.931 70.38ZM241.566 72.7821C242.446 72.7821 243.141 72.5665 243.65 72.1354C244.159 71.7042 244.484 71.1191 244.623 70.38C244.653 70.2414 244.669 70.0413 244.669 69.7795C244.669 68.5631 243.913 67.9574 242.4 67.9574H240.826C240.265 67.9574 239.781 68.3578 239.683 68.9121L239.236 71.4322C239.112 72.1405 239.658 72.7872 240.378 72.7872H241.566V72.7821Z" fill="white"/>
<path fill-rule="evenodd" clip-rule="evenodd" d="M227.274 72.9155C226.93 73.2748 226.857 73.8188 227.089 74.2551L230.083 79.8599C230.495 80.6298 229.934 81.5588 229.059 81.5588H227.413C226.986 81.5588 226.59 81.3227 226.389 80.948L224.614 77.617C224.234 76.9035 223.256 76.7906 222.721 77.4014L219.423 81.1687C219.202 81.4202 218.888 81.5639 218.554 81.5639H217.52C216.511 81.5639 215.987 80.368 216.666 79.6289L221.816 74.0344C222.145 73.6751 222.217 73.1464 221.985 72.7102L218.996 67.09C218.59 66.3201 219.145 65.3962 220.02 65.3962H221.723C222.124 65.3962 222.495 65.6015 222.706 65.9454L224.465 68.7837C224.815 69.3483 225.566 69.5023 226.112 69.1225L234.77 63.0917C235.12 62.8504 235.573 62.8145 235.948 63.0044L236.026 63.0403C236.257 63.1584 236.314 63.4612 236.134 63.6511L227.274 72.9155Z" fill="white"/>
<path d="M214.5 67.5056L217.54 73.1104L212.38 78.4791" stroke="white" stroke-width="2" stroke-linecap="round" stroke-linejoin="round"/>
<defs>
<linearGradient id="paint0_linear_246_6" x1="51.9854" y1="76.7287" x2="193.843" y2="76.7287" gradientUnits="userSpaceOnUse">
<stop stop-color="#00FFFF"/>
<stop offset="1" stop-color="#0085FF"/>
</linearGradient>
</defs>
</svg>
