<svg width="179" height="179" viewBox="0 0 179 179" fill="none" xmlns="http://www.w3.org/2000/svg">
<path d="M41.7628 107.205C40.0627 107.205 38.5813 107.201 37.1048 107.205C35.2953 107.21 34.1868 106.345 33.794 104.576C33.3516 102.577 32.929 100.579 32.4618 98.5905C32.1337 97.1985 26.1583 94.6831 24.9454 95.4338C23.2552 96.4777 21.6097 97.5863 19.9195 98.6302C18.0503 99.7835 16.9418 99.6891 15.4256 98.2077C13.2482 96.08 11.1156 93.9076 8.95807 91.77C7.60591 90.4278 7.4866 89.0011 8.53055 87.4202C9.51981 85.9189 10.4743 84.3928 11.4437 82.8816C11.6425 82.5684 11.8761 82.2701 12.0303 81.9321C12.5174 80.8881 9.70872 75.042 8.58026 74.7736C6.65145 74.3113 4.71766 73.8638 2.77394 73.4562C0.914718 73.0685 -0.00494844 71.9698 2.27292e-05 70.0708C0.00996507 67.0335 0.0049939 63.9911 2.27292e-05 60.9537C-0.00494844 59.1591 0.805352 58.0158 2.59994 57.628C2.96284 57.5485 3.32076 57.3645 3.68366 57.3645C8.41621 57.4043 10.9217 54.7895 11.9408 50.4447C12.0601 49.9277 12.0452 49.2317 11.7916 48.7893C10.7924 47.0742 9.65403 45.4437 8.60512 43.7634C7.44186 41.9042 7.52637 40.7907 9.00778 39.2745C11.1305 37.0971 13.3078 34.9694 15.4405 32.797C16.7727 31.4449 18.1995 31.256 19.7902 32.3049C20.1531 32.5435 20.526 32.7672 20.8939 33.0008C26.0291 36.257 26.039 36.2768 31.4476 33.7614C31.905 33.5477 32.3226 32.9263 32.4568 32.4142C32.944 30.56 33.277 28.661 33.7145 26.7918C34.2166 24.6393 35.6234 23.5308 37.3285 23.8787C39.0983 24.2416 39.9831 25.7429 39.5556 27.9153C39.0038 30.7091 38.5117 33.5328 37.6765 36.247C37.3683 37.2462 36.3194 38.2752 35.345 38.7674C32.8097 40.04 30.0955 40.9547 27.5105 42.1378C26.1832 42.7443 25.0199 42.7294 23.8219 41.9489C22.3653 40.9994 20.869 40.1096 19.4423 39.1203C18.6519 38.5735 18.0802 38.5089 17.3842 39.2943C16.564 40.214 15.5946 41.0044 14.5655 41.9738C15.7537 43.8181 16.7976 45.553 17.9559 47.2084C18.9998 48.7048 18.975 50.0669 18.1547 51.7073C17.0213 53.9643 16.0867 56.3355 15.2416 58.7167C14.6898 60.2627 13.8845 61.2719 12.2042 61.595C10.1512 61.9877 8.11794 62.5147 6.04994 62.9919C6.04994 64.707 6.04994 66.3077 6.04994 68.0327C8.11297 68.5049 10.1462 69.0219 12.1993 69.4296C13.7702 69.7428 14.6302 70.6227 15.182 72.1239C16.1166 74.6741 17.1754 77.1796 18.3238 79.6453C18.965 81.0223 18.9998 82.2254 18.1597 83.493C17.1655 84.9943 16.1563 86.4856 15.2963 88.0615C15.0676 88.4791 15.1521 89.3739 15.4604 89.7368C18.0354 92.7841 18.0603 92.7593 21.4755 90.5819C22.2062 90.1146 22.9668 89.6871 23.6727 89.18C25.0547 88.1908 26.3572 88.3399 27.8535 89.0557C30.1899 90.1743 32.601 91.1685 35.0468 92.0434C36.6127 92.6002 37.5672 93.4602 37.8704 95.1255C38.2383 97.1339 38.7403 99.1174 39.1977 101.175C40.0428 101.175 40.8233 101.175 41.7032 101.175C41.7032 95.2548 41.7032 89.3938 41.7032 83.4483C36.379 83.1749 31.8851 81.246 28.3556 77.2741C21.4954 69.5588 22.7232 57.3596 31.0698 51.2947C31.9646 50.6435 33.3914 50.2607 34.4552 50.4397C35.2257 50.569 36.2846 51.8068 36.3393 52.6071C36.4039 53.5914 35.8272 54.9684 35.0567 55.5948C32.4319 57.7225 30.6572 60.2528 30.0309 63.5934C28.7234 70.5879 34.5546 77.5276 41.7976 77.3238C41.7976 76.603 41.7976 75.8722 41.7976 75.1414C41.7976 55.4755 41.7976 35.8095 41.7976 16.1436C41.7678 6.20126 47.9668 0.00718058 57.9141 0.00220941C78.8577 -0.00276176 99.8012 0.00220941 120.75 0.00220941C131.139 0.00220941 137.229 6.05212 137.229 16.3673C137.229 33.9255 137.229 51.4787 137.229 69.0368C137.229 69.7726 137.229 70.5083 137.229 71.4727C138.691 71.4727 140.038 71.4678 141.38 71.4727C143.93 71.4876 144.8 72.1886 145.357 74.6891C145.745 76.4439 146.103 78.2037 146.505 79.9535C146.878 81.5841 152.824 84.005 154.241 83.1152C155.926 82.0613 157.596 80.9925 159.266 79.9187C160.797 78.9344 162.194 79.0935 163.472 80.3711C165.669 82.5634 167.866 84.7607 170.064 86.948C171.346 88.2256 171.51 89.6175 170.531 91.1436C169.562 92.6549 168.592 94.1711 167.623 95.6873C167.424 96.0005 167.2 96.3037 167.031 96.6318C166.504 97.6459 169.164 103.601 170.277 103.87C172.331 104.362 174.389 104.814 176.447 105.287C178.147 105.674 178.977 106.763 178.982 108.473C178.997 111.575 178.987 114.677 178.987 117.779C178.987 119.584 178.117 120.677 176.332 121.065C174.394 121.493 172.46 121.95 170.531 122.407C168.876 122.795 166.41 128.671 167.31 130.098C168.369 131.773 169.452 133.438 170.531 135.104C171.52 136.63 171.356 138.032 170.089 139.309C167.901 141.517 165.709 143.709 163.522 145.911C162.184 147.258 160.743 147.378 159.157 146.334C157.656 145.344 156.13 144.39 154.608 143.42C154.295 143.222 153.997 142.988 153.659 142.834C152.615 142.357 146.764 145.2 146.51 146.314C146.088 148.188 145.715 150.072 145.273 151.941C144.77 154.069 143.324 155.167 141.619 154.785C139.864 154.392 139.024 152.9 139.461 150.703C140.003 147.969 140.659 145.26 141.216 142.526C141.504 141.094 142.325 140.318 143.687 139.811C146.292 138.837 148.867 137.763 151.387 136.595C152.769 135.954 153.977 135.929 155.24 136.769C156.686 137.728 158.203 138.593 159.619 139.598C160.459 140.194 160.986 140.05 161.667 139.349C162.527 138.464 163.532 137.723 164.526 136.873C163.213 134.825 162.17 133.08 161.016 131.415C160.017 129.978 160.022 128.661 160.792 127.08C161.931 124.754 162.91 122.343 163.78 119.902C164.337 118.341 165.202 117.386 166.862 117.073C168.871 116.695 170.859 116.198 172.932 115.736C172.932 114.031 172.932 112.38 172.932 110.601C170.934 110.158 168.95 109.671 166.952 109.293C165.227 108.97 164.322 107.986 163.755 106.34C162.93 103.949 161.966 101.598 160.847 99.3312C160.077 97.7752 159.952 96.4479 160.981 95.0013C161.911 93.6889 162.667 92.2472 163.626 90.9498C164.342 89.9804 164.123 89.3938 163.333 88.6034C160.758 86.0482 160.788 86.0134 157.676 88.0019C157.258 88.2703 156.806 88.499 156.428 88.8171C154.395 90.5222 152.451 90.5023 150.149 89.0856C148.335 87.9671 146.187 87.3407 144.129 86.6795C142.489 86.1476 141.46 85.2876 141.146 83.5278C140.789 81.5244 140.281 79.5459 139.834 77.5177C138.964 77.5177 138.179 77.5177 137.314 77.5177C137.314 83.4135 137.314 89.2248 137.314 95.1603C138.566 95.3443 139.864 95.4238 141.097 95.737C148.295 97.5863 153.037 102.09 154.648 109.323C156.279 116.651 153.838 122.78 147.922 127.418C147.132 128.04 145.859 128.452 144.88 128.343C142.673 128.099 141.827 125.276 143.344 123.585C143.791 123.083 144.388 122.706 144.91 122.268C148.723 119.072 150.129 113.812 148.434 109.114C146.749 104.456 142.344 101.33 137.234 101.335C137.234 102.05 137.234 102.771 137.234 103.492C137.234 123.158 137.234 142.824 137.234 162.49C137.234 172.542 131.06 178.681 120.954 178.686C99.9454 178.686 78.9422 178.686 57.934 178.686C47.9818 178.686 41.7728 172.487 41.7678 162.559C41.7628 144.942 41.7678 127.324 41.7678 109.706C41.7628 108.955 41.7628 108.22 41.7628 107.205ZM47.7282 89.2397C47.7282 113.743 47.7282 138.241 47.7282 162.743C47.7282 169.166 51.3124 172.721 57.7998 172.721C78.9273 172.726 100.055 172.726 121.182 172.721C127.66 172.721 131.259 169.161 131.259 162.753C131.264 113.812 131.259 64.876 131.259 15.9348C131.259 9.51206 127.67 5.96264 121.187 5.96264C100.119 5.96264 79.0565 5.96264 57.9887 5.96264C51.1732 5.96264 47.7233 9.43749 47.7233 16.3027C47.7282 40.6117 47.7282 64.9257 47.7282 89.2397Z" fill="#17FCD7"/>
<path d="M149.165 27.0305C149.19 25.1414 150.512 23.7744 152.252 23.839C153.853 23.8986 155.146 25.2707 155.111 26.8764C155.076 28.6163 153.555 30.1474 151.934 30.0778C150.244 30.0082 149.145 28.7952 149.165 27.0305Z" fill="#17FCD7"/>
<path d="M149.17 38.8818C149.215 37.0673 150.453 35.7599 152.133 35.7499C153.809 35.74 155.186 37.1667 155.121 38.847C155.056 40.5073 153.625 41.9838 152.069 41.9937C150.314 42.0037 149.121 40.7211 149.17 38.8818Z" fill="#17FCD7"/>
<path d="M149.165 50.8025C149.21 48.9234 150.562 47.5663 152.302 47.6608C153.903 47.7503 155.17 49.1422 155.116 50.7479C155.056 52.4082 153.629 53.8896 152.073 53.9046C150.323 53.9195 149.125 52.6419 149.165 50.8025Z" fill="#17FCD7"/>
<path d="M23.8676 127.672C23.8925 125.798 25.2347 124.426 26.9647 124.495C28.5654 124.565 29.8529 125.942 29.8181 127.538C29.7783 129.302 28.3218 130.739 26.6316 130.679C24.9116 130.63 23.8428 129.461 23.8676 127.672Z" fill="#17FCD7"/>
<path d="M23.8666 139.528C23.9114 137.738 25.174 136.416 26.8394 136.411C28.5097 136.406 29.8867 137.838 29.8171 139.513C29.7425 141.283 28.2711 142.68 26.5759 142.595C24.8658 142.506 23.8219 141.323 23.8666 139.528Z" fill="#17FCD7"/>
<path d="M23.8672 151.543C23.8722 149.664 25.1895 148.277 26.9195 148.322C28.5202 148.362 29.8326 149.719 29.8227 151.32C29.8078 153.074 28.3611 154.546 26.6809 154.511C24.9559 154.476 23.8622 153.318 23.8672 151.543Z" fill="#17FCD7"/>
<path d="M66.8629 89.4236C69.8903 92.4113 72.7587 95.2398 75.6271 98.0684C76.0247 98.4612 76.4374 98.839 76.7853 99.2764C77.8492 100.614 77.7945 102.19 76.6859 103.318C75.5773 104.446 73.8673 104.635 72.6593 103.462C68.5183 99.4455 64.432 95.3741 60.4153 91.2331C59.2073 89.9903 59.3763 88.4393 60.5793 87.2164C64.4966 83.2394 68.4437 79.2874 72.4306 75.385C73.7281 74.1124 75.4282 74.1621 76.6163 75.2856C77.8541 76.4588 77.9237 78.2235 76.5964 79.5956C73.9269 82.3595 71.1679 85.044 68.4487 87.7632C67.9764 88.2454 67.5191 88.7376 66.8629 89.4236Z" fill="#17FCD7"/>
<path d="M112.121 89.2695C109.118 86.2917 106.255 83.4582 103.396 80.6196C102.998 80.2269 102.581 79.8491 102.233 79.4166C101.159 78.0893 101.194 76.5085 102.297 75.375C103.396 74.2366 105.116 74.0279 106.324 75.201C110.47 79.2128 114.551 83.2891 118.578 87.4252C119.791 88.6729 119.637 90.2289 118.439 91.4468C114.527 95.4337 110.579 99.3808 106.588 103.283C105.235 104.606 103.431 104.511 102.263 103.273C101.104 102.045 101.154 100.355 102.521 98.9583C105.211 96.2092 107.955 93.5148 110.674 90.7906C111.096 90.3631 111.509 89.9107 112.121 89.2695Z" fill="#17FCD7"/>
<path d="M87.3433 104.198C84.6638 104.253 83.1526 102.538 83.6248 100.589C85.5686 92.6002 87.5719 84.6214 89.6201 76.6576C90.0525 74.9774 91.7079 74.1323 93.2341 74.5548C94.795 74.9873 95.7694 76.4985 95.3568 78.1738C93.4081 86.1028 91.4644 94.0319 89.3466 101.911C89.0732 102.945 87.7956 103.706 87.3433 104.198Z" fill="#17FCD7"/>
<path d="M89.4761 17.8686C86.6823 17.8686 83.8836 17.8885 81.0898 17.8637C78.8975 17.8438 77.5702 16.6805 77.5801 14.871C77.595 13.0665 78.9223 11.9281 81.1295 11.9231C86.7221 11.9032 92.3147 11.9032 97.9072 11.9231C100.09 11.9331 101.432 13.1112 101.417 14.9108C101.402 16.7104 100.065 17.8488 97.8675 17.8637C95.0687 17.8885 92.2699 17.8686 89.4761 17.8686Z" fill="#17FCD7"/>
</svg>
