<svg width="159" height="162" viewBox="0 0 159 162" fill="none" xmlns="http://www.w3.org/2000/svg">
<path d="M70.789 161.9C67.5434 160.804 64.9722 158.992 64.087 155.451C63.8341 154.482 63.792 153.47 63.792 152.5C63.792 121.141 63.792 89.8227 63.792 58.4627C63.792 52.6038 67.3748 49.0632 73.2759 49.0632C98.5662 49.0632 123.856 49.0632 149.147 49.0632C155.048 49.0632 158.631 52.6038 158.631 58.4627C158.631 89.8227 158.631 121.141 158.673 152.5C158.673 157.474 156.144 160.425 151.634 161.9C124.657 161.9 97.7231 161.9 70.789 161.9ZM68.5128 105.376C68.5128 120.972 68.5128 136.568 68.5128 152.163C68.5128 155.873 69.8617 157.179 73.5709 157.179C98.6505 157.179 123.73 157.179 148.81 157.179C152.519 157.179 153.868 155.873 153.868 152.163C153.868 121.098 153.868 89.9913 153.868 58.9264C153.868 55.1328 152.561 53.8262 148.725 53.8262C123.688 53.8262 98.6926 53.8262 73.6552 53.8262C69.8617 53.8262 68.5128 55.1328 68.5128 58.9264C68.5128 74.3956 68.5128 89.907 68.5128 105.376Z" fill="#17FCD7"/>
<path d="M7.05789 161.9C3.8123 160.804 1.24112 158.992 0.355963 155.451C0.10306 154.482 0.0609097 153.47 0.0609097 152.5C0.0187593 144.956 0.0187593 137.453 0.0609097 129.908C0.0609097 124.091 3.6437 120.55 9.37617 120.508C11.1043 120.508 12.8325 120.508 14.5607 120.508C16.4996 120.508 17.5955 121.393 17.5955 122.953C17.5534 124.428 16.5418 125.229 14.645 125.271C12.7482 125.271 10.8514 125.229 8.95466 125.271C6.38348 125.313 4.78177 126.873 4.78177 129.402C4.73961 137.284 4.73961 145.208 4.78177 153.091C4.78177 155.535 6.42563 157.137 8.87036 157.137C20.8411 157.179 32.854 157.179 44.8247 157.137C47.3538 157.137 48.9976 155.535 48.9976 153.006C49.0398 145.166 49.0398 137.326 48.9976 129.444C48.9976 126.789 47.3538 125.229 44.5718 125.229C38.9658 125.187 33.3176 125.229 27.7116 125.229C27.2901 125.229 26.8686 125.229 26.4471 125.229C24.9297 125.145 24.0024 124.26 24.0024 122.911C24.0024 121.562 24.9297 120.508 26.405 120.508C32.854 120.466 39.3452 120.34 45.7942 120.55C50.3464 120.719 53.7606 124.555 53.7606 129.149C53.8028 137.031 53.8028 144.956 53.7606 152.838C53.7606 157.053 51.4845 160.172 47.4802 161.521C47.2273 161.605 47.0166 161.731 46.8058 161.858C33.5706 161.9 20.3353 161.9 7.05789 161.9Z" fill="#17FCD7"/>
<path d="M16.2053 0.0421505C17.3434 0.927311 17.6806 2.06537 17.6384 3.49849C17.5963 7.16558 17.6384 10.8748 17.5963 14.5419C17.5541 18.757 15.5731 21.5389 11.6531 22.8456C7.98597 24.0679 3.85523 22.9299 1.6634 19.8107C0.820391 18.5884 0.188133 16.9445 0.145983 15.4692C-0.0647697 11.212 0.0616817 6.95483 0.0195312 2.65548C0.0195312 1.39097 0.693939 0.632257 1.70555 0.0421505C2.21136 0.0421505 2.75931 0.0421505 3.26512 0.0421505C4.52963 0.88516 4.82469 2.14968 4.78254 3.58279C4.74039 7.24989 4.74039 10.9591 4.78254 14.6262C4.78254 15.4271 4.99329 16.3544 5.41479 16.9866C6.46856 18.5041 8.49178 18.9677 10.22 18.3355C12.0746 17.6611 12.8333 16.6073 12.8333 14.4998C12.8754 10.8748 12.8754 7.24989 12.8333 3.58279C12.7911 2.14968 13.0862 0.88516 14.2664 0C14.9408 0.0421505 15.5731 0.0421505 16.2053 0.0421505Z" fill="#17FCD7"/>
<path d="M67.628 0.0421505C68.8082 0.84301 69.1876 1.98107 69.1876 3.41419C69.1033 7.29204 69.2297 11.212 69.1454 15.0899C69.0611 19.5578 65.6048 22.972 60.8418 23.3514C56.711 23.6886 52.4538 20.6959 51.6951 16.7337C51.4422 15.3006 51.5265 13.7832 51.5265 12.3501C51.5265 9.35741 51.5687 6.36472 51.4844 3.37204C51.4844 1.89677 51.8637 0.800859 53.1282 0.0421505C53.6341 0.0421505 54.182 0.0421505 54.6878 0.0421505C55.9102 0.800859 56.2895 1.93892 56.2895 3.37204C56.2052 7.08128 56.2474 10.8327 56.2474 14.5419C56.2474 16.9445 57.9334 18.6305 60.2517 18.5884C62.6964 18.5884 64.3824 16.9023 64.4246 14.4576C64.4246 10.6641 64.4667 6.91268 64.4246 3.11914C64.3824 1.68602 64.8461 0.674408 66.0684 0C66.5743 0.0421505 67.1222 0.0421505 67.628 0.0421505Z" fill="#17FCD7"/>
<path d="M88.1555 0.0421505C90.0522 1.60172 90.1787 2.48688 88.7456 4.55225C87.4389 6.40688 86.1744 8.2615 84.8256 10.074C84.2776 10.7905 84.3198 11.2963 84.8256 12.0129C86.5116 14.3312 88.1555 16.7337 89.7993 19.0942C90.9374 20.6959 90.8109 22.0869 89.5464 22.9299C88.3241 23.7307 87.0595 23.3514 85.9636 21.7918C84.4462 19.6421 82.9288 17.4925 81.2849 15.132C79.9783 16.9866 78.7559 18.7148 77.5335 20.443C77.112 21.0331 76.7327 21.6654 76.269 22.2555C75.2996 23.4357 74.035 23.6464 72.9391 22.8877C71.8854 22.129 71.6325 20.738 72.4333 19.5157C73.9929 17.1974 75.6368 14.9634 77.2385 12.6873C77.6178 12.1815 77.955 11.6335 78.3765 11.0434C76.9013 8.89375 75.3839 6.78623 73.9086 4.63655C72.4755 2.57118 72.5176 1.77032 74.3301 0.0421505C74.9624 0.0421505 75.5946 0.0421505 76.2269 0.0421505C77.9129 2.27613 79.6411 4.46795 81.4114 6.78623C81.9172 6.06967 82.3808 5.39526 82.8445 4.76301C84.109 3.16129 85.3735 1.60172 86.638 0C87.1017 0.0421505 87.6075 0.0421505 88.1555 0.0421505Z" fill="#17FCD7"/>
<path d="M44.6143 0.0421753C46.3424 1.43314 46.511 2.02325 45.668 4.08862C43.2233 9.90539 40.7786 15.7222 38.3338 21.4968C37.4487 23.6043 35.3833 24.0258 34.1609 22.4662C33.4022 21.4968 33.613 20.5273 34.0766 19.5157C36.3106 14.2469 38.5446 8.97808 40.7786 3.70927C40.9472 3.28776 41.0736 2.78196 41.3265 2.4026C41.8745 1.60174 42.5067 0.843035 43.0968 0.0843258C43.5605 0.0421753 44.0663 0.0421753 44.6143 0.0421753Z" fill="#17FCD7"/>
<path d="M25.9841 0.0421753C27.2064 0.843035 27.5858 1.93895 27.5436 3.41421C27.5015 9.06238 27.5858 14.6684 27.4593 20.3166C27.4593 21.2439 26.9535 22.4662 26.237 22.972C24.7196 24.1523 22.7806 22.8034 22.7806 20.7381C22.7385 16.523 22.7806 12.308 22.7806 8.09292C22.7806 6.44905 22.8649 4.80518 22.7385 3.20346C22.6542 1.77035 23.16 0.758734 24.3823 0.0843258C24.9303 0.0421753 25.4783 0.0421753 25.9841 0.0421753Z" fill="#17FCD7"/>
<path d="M156.944 0.0421505C157.324 0.379354 157.914 0.632257 158.082 1.05376C158.335 1.81247 158.673 2.82408 158.335 3.37204C157.914 4.04645 156.902 4.72086 156.144 4.72086C150.748 4.84731 145.311 4.76301 139.916 4.80516C138.651 4.80516 137.766 4.1729 137.513 2.95053C137.134 1.43312 138.103 0.632257 139.326 0C145.142 0.0421505 151.043 0.0421505 156.944 0.0421505Z" fill="#17FCD7"/>
<path d="M53.7606 78.99C53.7606 85.9027 53.7606 92.7732 53.7606 99.6859C53.7606 105.208 50.22 108.875 44.7404 108.917C32.854 108.959 20.9675 108.959 9.08109 108.917C3.55937 108.875 0.0187336 105.292 0.0187336 99.7702C-0.0234169 93.0683 0.0187336 86.4085 0.0187336 79.7066C0.0187336 77.7255 0.946044 76.7139 2.50561 76.8403C3.98088 76.9246 4.73959 77.9362 4.73959 79.9173C4.73959 85.9027 4.73959 91.9302 4.73959 97.9156C4.73959 103.395 5.54045 104.196 11.0622 104.196C21.937 104.196 32.8118 104.196 43.6866 104.196C47.7752 104.196 48.9976 102.974 48.9976 98.8007C48.9976 85.5233 48.9976 72.2459 48.9976 58.9685C48.9976 55.1328 47.6488 53.784 43.7709 53.784C32.4325 53.784 21.0518 53.784 9.71335 53.784C6.13056 53.784 4.73959 55.1328 4.73959 58.7156C4.73959 61.624 4.73959 64.4902 4.73959 67.3986C4.73959 69.2532 3.85443 70.3491 2.42131 70.3913C0.946044 70.4334 0.0187336 69.2954 0.0187336 67.3565C0.0187336 64.1952 -0.0234169 61.0339 0.0187336 57.8726C0.103035 52.6881 3.77013 49.021 8.91249 49.021C20.8832 48.9788 32.8961 48.9788 44.8669 49.021C49.9671 49.021 53.7185 52.7724 53.7185 57.9148C53.8028 64.996 53.7606 71.993 53.7606 78.99Z" fill="#17FCD7"/>
<path d="M79.5151 33.8468C104.637 33.8468 129.758 33.8468 154.88 33.8468C155.386 33.8468 155.934 33.8047 156.44 33.889C157.62 34.0154 158.379 34.6898 158.547 35.8701C158.716 37.1346 158.126 38.0619 156.946 38.3991C156.355 38.5677 155.723 38.5677 155.091 38.5677C104.595 38.5677 54.0562 38.5677 3.5599 38.5677C2.88549 38.5677 2.16893 38.5255 1.53667 38.3148C0.398611 37.8933 -0.233647 36.8817 0.187858 35.8279C0.482912 35.0271 1.36807 34.3948 2.12678 33.889C2.54829 33.6361 3.26484 33.8047 3.8128 33.8047C29.0609 33.8468 54.2669 33.8468 79.5151 33.8468Z" fill="#17FCD7"/>
<path d="M26.7845 143.565C23.4968 143.565 20.1669 143.565 16.8791 143.565C15.0667 143.565 13.9707 142.595 14.0129 141.162C14.055 139.771 15.1088 138.844 16.837 138.844C23.5389 138.844 30.283 138.844 36.9849 138.844C38.6709 138.844 39.7668 139.813 39.7668 141.204C39.7668 142.595 38.7131 143.565 37.0271 143.565C33.6129 143.607 30.1987 143.565 26.7845 143.565Z" fill="#17FCD7"/>
<path d="M147.968 14.0361C145.396 14.0361 142.825 14.0361 140.254 14.0361C138.442 14.0361 137.346 13.0666 137.388 11.6335C137.43 10.2426 138.484 9.31524 140.212 9.31524C145.396 9.27309 150.623 9.27309 155.808 9.31524C157.578 9.31524 158.547 10.2004 158.547 11.6757C158.547 13.1509 157.62 13.9939 155.808 14.0361C153.236 14.0782 150.581 14.0361 147.968 14.0361Z" fill="#17FCD7"/>
<path d="M147.968 23.3092C145.396 23.3092 142.825 23.3514 140.254 23.3092C138.484 23.3092 137.472 22.4241 137.43 21.0331C137.388 19.6 138.484 18.6305 140.296 18.5884C145.481 18.5462 150.707 18.5462 155.892 18.5884C157.704 18.5884 158.632 19.4735 158.632 20.9488C158.632 22.4241 157.662 23.2671 155.892 23.3092C153.194 23.3092 150.581 23.3092 147.968 23.3092Z" fill="#17FCD7"/>
<path d="M33.4017 68.7053C31.2942 68.7053 29.1867 68.7474 27.0791 68.7053C25.4774 68.6631 24.4658 67.6937 24.4658 66.3449C24.4658 64.996 25.5196 63.9844 27.0791 63.9844C31.1677 63.9423 35.2563 63.9423 39.3871 63.9844C41.0731 63.9844 42.0847 64.996 42.0426 66.4292C42.0004 67.8201 41.031 68.6631 39.3449 68.7053C37.406 68.7474 35.4249 68.7053 33.4017 68.7053Z" fill="#17FCD7"/>
<path d="M33.4017 81.3504C31.2942 81.3504 29.1867 81.3926 27.0791 81.3504C25.5196 81.3083 24.4658 80.3388 24.4658 78.99C24.4658 77.7255 25.4774 76.6717 26.9527 76.6296C31.1677 76.5874 35.3406 76.5874 39.5557 76.6296C41.1574 76.6296 42.1269 77.7255 42.0426 79.0743C42.0004 80.381 41.031 81.2661 39.5135 81.3083C37.4903 81.3504 35.4671 81.3504 33.4017 81.3504Z" fill="#17FCD7"/>
<path d="M33.2753 93.9956C31.2099 93.9956 29.1867 94.0377 27.1213 93.9956C25.5196 93.9534 24.508 93.0261 24.4658 91.6773C24.4658 90.3285 25.5196 89.3169 27.0791 89.2747C31.1677 89.2326 35.2985 89.2326 39.3871 89.2747C41.0731 89.2747 42.1269 90.2863 42.0847 91.7194C42.0426 93.1104 41.0731 93.9956 39.4292 93.9956C37.3639 93.9956 35.3406 93.9956 33.2753 93.9956Z" fill="#17FCD7"/>
<path d="M14.6871 81.3505C12.7481 81.3505 11.7787 80.5918 11.7365 79.0743C11.6944 77.5148 12.7903 76.6296 14.6871 76.5875C16.5838 76.5875 17.764 77.5148 17.764 78.99C17.764 80.5075 16.626 81.3505 14.6871 81.3505Z" fill="#17FCD7"/>
<path d="M14.6871 93.9955C12.7482 93.9955 11.6944 93.1104 11.7366 91.5508C11.7787 90.0756 12.8325 89.2325 14.6871 89.2325C16.5839 89.2325 17.7641 90.1177 17.7641 91.6351C17.7641 93.1104 16.626 93.9955 14.6871 93.9955Z" fill="#17FCD7"/>
<path d="M14.7293 68.7053C12.7482 68.7053 11.6944 67.8623 11.7366 66.3027C11.7787 64.8274 12.7903 63.9844 14.645 63.9423C16.5839 63.9423 17.7219 64.7853 17.7641 66.3027C17.8062 67.8201 16.6682 68.7053 14.7293 68.7053Z" fill="#17FCD7"/>
<path d="M111.339 66.3448C124.447 66.3448 135.154 76.5874 136.039 89.9913C136.84 102.468 127.356 114.059 114.837 115.787C102.403 117.516 90.8112 110.097 87.397 98.1685C87.1863 97.3676 87.0598 96.2717 87.4392 95.6394C87.7764 95.0072 88.8301 94.5014 89.5889 94.4592C90.7269 94.3749 91.4435 95.2601 91.7385 96.3982C92.708 99.9809 94.5205 103.1 97.1759 105.671C103.33 111.657 112.814 113.09 120.401 109.128C128.241 105.039 132.498 96.4403 131.023 87.7151C129.59 79.285 122.508 72.4567 114.036 71.2343C104.215 69.8433 94.8155 75.8287 91.9493 85.3547C91.865 85.6076 91.7807 85.8605 91.6964 86.1134C91.1484 87.6308 90.0525 88.3053 88.6615 87.9259C87.3549 87.5465 86.7648 86.3242 87.1863 84.7225C88.4508 79.9595 90.9377 75.913 94.6048 72.6674C99.3678 68.4102 104.974 66.3448 111.339 66.3448Z" fill="#17FCD7"/>
<path d="M111.127 145.504C104.257 145.504 97.3443 145.546 90.4737 145.504C85.6686 145.461 81.58 141.836 80.9477 137.242C80.2733 132.437 82.9288 127.927 87.4811 126.409C88.5348 126.072 89.7572 125.904 90.8953 125.861C104.468 125.819 118.04 125.819 131.57 125.861C137.261 125.861 141.56 130.119 141.56 135.64C141.56 141.204 137.303 145.461 131.655 145.504C124.784 145.546 117.956 145.504 111.127 145.504ZM111.254 140.741C118.124 140.741 125.037 140.783 131.908 140.698C134.732 140.656 136.839 138.38 136.797 135.598C136.755 132.858 134.69 130.582 131.95 130.582C118.124 130.54 104.299 130.54 90.4737 130.582C88.3241 130.582 86.8066 131.762 85.9636 133.701C84.5305 137.073 86.9753 140.698 90.7266 140.741C97.555 140.783 104.383 140.741 111.254 140.741Z" fill="#17FCD7"/>
</svg>
