<svg width="148" height="149" viewBox="0 0 148 149" fill="none" xmlns="http://www.w3.org/2000/svg">
<path d="M73.9004 98.6198C60.3864 98.6198 49.3115 87.479 49.3115 73.965C49.3115 60.3191 60.4523 49.3101 74.0982 49.376C87.6122 49.4419 98.6212 60.5828 98.5553 74.0968C98.5553 87.6108 87.4804 98.6198 73.9004 98.6198ZM93.743 74.0309C93.743 63.0878 84.9094 54.1883 73.9664 54.1883C63.0892 54.1883 54.1898 62.956 54.1898 73.8331C54.1238 84.8421 62.9574 93.7416 73.8345 93.7416C84.8435 93.8075 93.743 84.9739 93.743 74.0309Z" fill="#17FCD7"/>
<path d="M9.75957 4.94415C9.75957 6.85589 9.75957 8.63579 9.75957 10.4157C9.75957 16.2827 9.75957 22.1498 9.75957 28.0169C9.75957 28.3465 9.75957 28.742 9.75957 29.0716C9.75957 30.9174 8.77074 32.0381 7.32046 31.9722C5.87017 31.9722 4.94727 30.8515 4.94727 29.1375C4.94727 26.1051 4.94727 23.0727 4.94727 20.0403C4.94727 15.1621 4.94727 10.2838 4.94727 5.40561C4.94727 1.97766 6.92493 0 10.2869 0C24.7898 0 39.2926 0 53.7296 0C57.0916 0 59.0693 1.97766 59.0693 5.40561C59.0693 13.2503 59.0693 21.0951 59.0693 29.0057C59.0693 30.8515 58.1463 31.9722 56.6961 32.0381C55.2458 32.0381 54.2569 30.8515 54.2569 28.9398C54.2569 21.5565 54.2569 14.1732 54.2569 6.72405C54.2569 6.19667 54.2569 5.60337 54.2569 4.94415C39.4245 4.94415 24.7239 4.94415 9.75957 4.94415Z" fill="#17FCD7"/>
<path d="M138.174 4.94384C123.276 4.94384 108.641 4.94384 93.6771 4.94384C93.6771 5.47122 93.6771 6.06452 93.6771 6.5919C93.6771 13.9092 93.6771 21.1607 93.6771 28.478C93.6771 28.9395 93.6771 29.4009 93.6111 29.8624C93.4134 31.1149 92.3586 32.1037 91.172 32.0378C89.7877 31.9719 88.9966 31.1808 88.7988 29.8624C88.7329 29.4668 88.7988 29.0713 88.7988 28.6099C88.7988 21.0288 88.7988 13.5137 88.7988 5.93267C88.7988 1.84551 90.6446 0.0656128 94.7318 0.0656128C108.839 0.0656128 123.012 0.0656128 137.12 0.0656128C141.141 0.0656128 142.987 1.91143 142.987 5.86675C142.987 13.4478 142.987 21.0947 142.987 28.6758C142.987 29.0054 142.987 29.4009 142.987 29.7305C142.855 31.1149 141.8 32.1037 140.482 31.9719C139.097 31.84 138.306 31.049 138.174 29.7305C138.108 28.9395 138.108 28.0825 138.108 27.2914C138.174 19.9081 138.174 12.459 138.174 4.94384Z" fill="#17FCD7"/>
<path d="M54.2565 113.518C39.3581 113.518 24.6575 113.518 9.75908 113.518C9.75908 114.111 9.75908 114.639 9.75908 115.232C9.75908 122.483 9.75908 129.735 9.75908 136.986C9.75908 137.448 9.82501 137.909 9.75908 138.371C9.56132 139.689 8.77025 140.48 7.45181 140.612C6.19929 140.678 5.07862 139.689 5.0127 138.371C4.94678 137.514 5.0127 136.657 5.0127 135.734C5.0127 128.614 5.0127 121.429 5.0127 114.309C5.0127 110.552 6.92444 108.64 10.7479 108.64C25.053 108.64 39.2922 108.64 53.5972 108.64C57.3548 108.64 59.2665 110.552 59.2665 114.375C59.2665 122.022 59.2665 129.669 59.2665 137.316C59.2665 139.425 58.4096 140.612 56.8933 140.612C55.3112 140.612 54.4542 139.491 54.4542 137.382C54.4542 130.064 54.4542 122.681 54.4542 115.364C54.2565 114.705 54.2565 114.177 54.2565 113.518Z" fill="#17FCD7"/>
<path d="M138.175 113.518C123.277 113.518 108.576 113.518 93.6775 113.518C93.6775 114.111 93.6775 114.704 93.6775 115.232C93.6775 122.351 93.6775 129.405 93.6775 136.524C93.6775 136.854 93.6775 137.25 93.6775 137.579C93.6775 139.425 92.7546 140.546 91.3044 140.546C89.8541 140.546 88.8652 139.425 88.8652 137.645C88.8652 136.59 88.8652 135.602 88.8652 134.547C88.8652 127.757 88.8652 120.967 88.8652 114.177C88.8652 110.485 90.777 108.574 94.4686 108.574C108.774 108.574 123.145 108.574 137.45 108.574C141.141 108.574 143.053 110.485 143.053 114.177C143.053 121.956 143.053 129.669 143.053 137.447C143.053 139.425 142.13 140.546 140.614 140.546C139.098 140.546 138.175 139.359 138.175 137.447C138.175 130.064 138.175 122.681 138.175 115.232C138.175 114.704 138.175 114.111 138.175 113.518Z" fill="#17FCD7"/>
<path d="M31.8423 39.4214C22.4154 39.4214 12.9227 39.4214 3.49582 39.4214C2.96845 39.4214 2.44107 39.4874 1.97961 39.3555C0.727096 39.0259 0.00195312 38.1689 0.00195312 36.9164C0.0678752 35.7298 0.793018 34.9387 1.91369 34.6091C2.44107 34.4773 3.03437 34.5432 3.62767 34.5432C22.5473 34.5432 41.4669 34.5432 60.3865 34.5432C62.8916 34.5432 64.0782 35.4002 64.0123 37.0483C64.0123 38.6304 62.8257 39.4214 60.3865 39.4214C50.8938 39.4214 41.401 39.4214 31.8423 39.4214Z" fill="#17FCD7"/>
<path d="M115.761 39.4214C106.334 39.4214 96.8414 39.4214 87.4145 39.4214C86.8871 39.4214 86.3598 39.4874 85.8983 39.3555C84.6458 39.0259 83.9206 38.2349 83.9866 36.9164C84.0525 35.7298 84.7776 34.9387 85.8983 34.6091C86.4257 34.4773 87.019 34.5432 87.6123 34.5432C106.532 34.5432 125.452 34.5432 144.371 34.5432C146.876 34.5432 148.063 35.4002 147.997 37.0483C147.931 38.6304 146.744 39.4214 144.371 39.4214C134.747 39.4214 125.254 39.4214 115.761 39.4214Z" fill="#17FCD7"/>
<path d="M32.1719 143.117C41.5328 143.117 50.8938 143.117 60.2547 143.117C60.6502 143.117 61.0457 143.117 61.5072 143.117C63.0893 143.183 64.1441 144.237 64.1441 145.556C64.1441 146.874 63.0893 147.863 61.639 147.929C61.3094 147.929 60.9139 147.929 60.5843 147.929C41.6647 147.929 22.745 147.929 3.82543 147.929C3.69359 147.929 3.62766 147.929 3.49582 147.929C1.18855 147.929 0.00195312 147.072 0.00195312 145.49C0.00195312 143.974 1.18855 143.117 3.29805 143.117C5.07795 143.117 6.92377 143.117 8.70366 143.117C16.5484 143.117 24.3272 143.117 32.1719 143.117Z" fill="#17FCD7"/>
<path d="M116.09 143.117C125.517 143.117 135.01 143.117 144.437 143.117C144.964 143.117 145.491 143.051 145.953 143.183C147.205 143.512 147.93 144.304 147.864 145.622C147.799 146.875 147.073 147.6 145.953 147.929C145.425 148.061 144.832 147.995 144.239 147.995C125.319 147.995 106.399 147.995 87.4799 147.995C84.9748 147.995 83.7882 147.138 83.8542 145.49C83.9201 143.908 85.1067 143.117 87.4799 143.117C97.0386 143.117 106.531 143.117 116.09 143.117Z" fill="#17FCD7"/>
<path d="M29.6006 54.583C29.6006 52.1439 29.6006 49.7707 29.6006 47.3316C29.6006 45.5517 30.5894 44.431 32.1056 44.431C33.49 44.497 34.4788 45.5517 34.4788 47.2657C34.4788 51.8143 34.4788 56.4288 34.4788 60.9775C34.4788 63.2847 35.3358 64.1417 37.6431 64.1417C39.7526 64.1417 41.8621 64.1417 43.9716 64.1417C45.6856 64.1417 46.8062 65.0646 46.8062 66.5149C46.8722 67.9652 45.6856 68.954 43.9057 69.02C41.5984 69.02 39.2911 69.0859 36.9839 69.02C32.8308 68.954 29.7324 65.7898 29.6006 61.6367C29.5347 59.2635 29.6006 56.8903 29.6006 54.583Z" fill="#17FCD7"/>
<path d="M118.332 54.583C118.332 56.8903 118.332 59.1976 118.332 61.5048C118.266 65.7239 115.168 68.8881 110.949 69.02C108.641 69.0859 106.334 69.02 104.027 69.02C102.313 69.02 101.192 68.0971 101.192 66.6468C101.126 65.1965 102.313 64.2076 104.093 64.1417C106.07 64.1417 107.982 64.1417 109.96 64.1417C112.794 64.1417 113.519 63.4166 113.519 60.6479C113.519 56.297 113.519 51.9461 113.519 47.5294C113.519 45.5517 114.376 44.431 115.893 44.431C117.409 44.431 118.332 45.5517 118.332 47.5294C118.332 49.8366 118.332 52.2098 118.332 54.583Z" fill="#17FCD7"/>
<path d="M29.6016 93.4775C29.6016 91.1043 29.5356 88.7311 29.6016 86.4238C29.6675 82.2707 32.8318 79.1065 36.9189 79.0405C39.2921 78.9746 41.6653 79.0405 43.9726 79.0405C45.6866 79.0405 46.7413 80.0294 46.7413 81.4796C46.7413 82.9299 45.6206 83.8528 43.9067 83.9188C41.7971 83.9188 39.6876 83.9188 37.5781 83.9188C35.2049 83.9188 34.348 84.7757 34.348 87.2149C34.348 91.7635 34.348 96.2462 34.348 100.795C34.348 102.245 33.8206 103.3 32.3044 103.629C30.7882 103.959 29.4697 102.772 29.4697 100.993C29.5356 98.4216 29.6016 95.9166 29.6016 93.4775Z" fill="#17FCD7"/>
<path d="M118.333 93.4778C118.333 95.851 118.333 98.2242 118.333 100.531C118.333 102.377 117.41 103.498 115.959 103.498C114.443 103.498 113.52 102.377 113.52 100.466C113.52 95.9829 113.52 91.5661 113.52 87.0834C113.52 84.6443 112.663 83.8532 110.29 83.7873C108.181 83.7873 106.071 83.7873 103.962 83.7873C102.248 83.7873 101.193 82.7985 101.127 81.3482C101.127 79.8979 102.248 78.9091 103.896 78.9091C106.269 78.9091 108.642 78.8431 110.949 78.9091C114.971 78.975 118.135 82.1392 118.267 86.1605C118.399 88.6655 118.333 91.0387 118.333 93.4778Z" fill="#17FCD7"/>
<path d="M5.27638 74.0306C5.27638 75.415 4.22163 76.4038 2.70542 76.4697C1.18921 76.4697 0.0685401 75.4809 0.00261802 74.0965C-0.063304 72.6462 1.12329 71.5915 2.70542 71.5915C4.22163 71.5915 5.27638 72.5803 5.27638 74.0306Z" fill="#17FCD7"/>
<path d="M15.166 73.9638C15.166 75.3482 14.1113 76.4029 12.5951 76.4029C11.0129 76.4029 9.82634 75.3482 9.89227 73.8979C9.95819 72.5135 11.0789 71.5247 12.5951 71.5247C14.1113 71.5906 15.166 72.5795 15.166 73.9638Z" fill="#17FCD7"/>
<path d="M22.3488 71.5247C23.865 71.5247 24.9857 72.4476 25.0516 73.8979C25.1175 75.3482 24.0628 76.337 22.5466 76.4029C20.9644 76.4689 19.7778 75.4141 19.7119 73.9638C19.7119 72.6454 20.8326 71.5906 22.3488 71.5247Z" fill="#17FCD7"/>
<path d="M125.517 71.5247C127.033 71.5247 128.154 72.5135 128.22 73.8979C128.286 75.3482 127.099 76.4029 125.517 76.4029C124.001 76.4029 122.946 75.4141 122.946 73.9638C122.946 72.5795 124.001 71.5906 125.517 71.5247Z" fill="#17FCD7"/>
<path d="M138.043 74.0298C137.978 75.48 136.791 76.4689 135.209 76.4029C133.693 76.337 132.704 75.2823 132.77 73.832C132.836 72.4476 133.956 71.5247 135.473 71.5247C136.989 71.5906 138.109 72.6454 138.043 74.0298Z" fill="#17FCD7"/>
<path d="M145.293 76.4034C143.777 76.4034 142.656 75.4805 142.656 74.0302C142.59 72.58 143.645 71.5911 145.161 71.5252C146.743 71.4593 147.93 72.514 147.93 73.9643C147.93 75.3487 146.809 76.4034 145.293 76.4034Z" fill="#17FCD7"/>
</svg>
