<svg width="441" height="429" viewBox="0 0 441 429" fill="none" xmlns="http://www.w3.org/2000/svg">
<path opacity="0.7" d="M399.913 317.455C399.913 317.455 400.749 315.991 402.224 313.419C402.903 312.101 403.729 310.501 404.67 308.671C405.58 306.821 406.73 304.792 407.734 302.46C412.157 293.321 417.02 280.616 420.47 267.514C420.962 265.894 421.296 264.231 421.694 262.589C422.07 260.948 422.447 259.306 422.823 257.685C423.22 256.064 423.492 254.433 423.785 252.833C424.067 251.223 424.35 249.634 424.632 248.076C424.768 247.291 424.904 246.517 425.04 245.754C425.144 244.98 425.239 244.217 425.343 243.464C425.531 241.948 425.73 240.474 425.908 239.031C426.086 237.588 426.284 236.186 426.41 234.827C426.514 233.468 426.619 232.15 426.713 230.885C426.891 228.354 427.11 226.043 427.194 223.983C427.246 221.924 427.298 220.135 427.34 218.661C427.414 215.712 427.445 214.018 427.445 214.018H435.685C435.685 214.018 435.643 215.775 435.58 218.839C435.538 220.376 435.486 222.237 435.434 224.37C435.35 226.504 435.12 228.909 434.932 231.544C434.827 232.861 434.723 234.22 434.608 235.643C434.472 237.054 434.263 238.508 434.085 240.013C433.897 241.509 433.698 243.056 433.499 244.625C433.395 245.409 433.29 246.204 433.186 247.009C433.05 247.804 432.903 248.609 432.767 249.424C432.475 251.045 432.182 252.697 431.889 254.37C431.586 256.043 431.303 257.737 430.885 259.421C430.498 261.104 430.101 262.809 429.714 264.524C429.306 266.228 428.951 267.953 428.449 269.637C424.852 283.262 419.791 296.469 415.2 305.974C414.155 308.4 412.963 310.512 412.011 312.425C411.028 314.328 410.171 315.991 409.46 317.361C407.933 320.027 407.055 321.554 407.055 321.554L399.913 317.455ZM338.135 394.823C338.135 394.823 338.428 394.635 338.961 394.29C339.494 393.935 340.31 393.443 341.272 392.743C343.227 391.352 346.051 389.396 349.365 386.95C355.922 381.962 364.36 374.924 372.15 367.187C379.899 359.407 386.988 351 391.955 344.444C394.433 341.16 396.368 338.316 397.769 336.371C398.47 335.399 399.003 334.614 399.338 334.071C399.683 333.527 399.871 333.244 399.871 333.244L393.001 328.706C393.001 328.706 392.823 328.989 392.489 329.501C392.164 330.024 391.652 330.777 390.983 331.718C389.634 333.59 387.773 336.329 385.388 339.487C380.599 345.803 373.782 353.886 366.326 361.373C358.839 368.828 350.714 375.594 344.409 380.393C341.22 382.746 338.501 384.628 336.629 385.967C335.699 386.646 334.914 387.117 334.402 387.462C333.879 387.797 333.607 387.974 333.607 387.974L338.135 394.823ZM217.654 428.044C217.654 428.044 219.39 428.117 222.422 428.013C225.455 427.908 229.794 427.939 234.991 427.458C245.385 426.768 259.23 424.886 272.729 421.362C276.086 420.411 279.432 419.459 282.736 418.529C285.998 417.462 289.188 416.364 292.283 415.318C295.347 414.189 298.275 412.997 301.056 411.899C302.457 411.366 303.785 410.77 305.061 410.184C306.347 409.609 307.581 409.044 308.773 408.511C309.965 407.967 311.105 407.455 312.182 406.953C313.238 406.409 314.252 405.897 315.193 405.426C317.075 404.454 318.728 403.617 320.077 402.917C321.436 402.237 322.471 401.62 323.172 401.223C323.883 400.815 324.259 400.606 324.259 400.606L321.185 395.137C321.185 395.137 320.819 395.346 320.129 395.744C319.439 396.13 318.445 396.737 317.117 397.396C315.8 398.075 314.2 398.891 312.37 399.832C311.45 400.303 310.477 400.794 309.453 401.317C308.397 401.798 307.299 402.3 306.138 402.823C296.967 407.12 284.284 411.972 271.161 415.297C258.069 418.717 244.622 420.547 234.531 421.216C229.491 421.686 225.277 421.645 222.328 421.749C219.379 421.854 217.696 421.781 217.696 421.781L217.654 428.044ZM120.962 404.109C120.962 404.109 122.175 404.726 124.287 405.813C126.378 406.943 129.505 408.302 133.217 409.986C134.148 410.404 135.12 410.832 136.124 411.282C137.149 411.69 138.205 412.108 139.292 412.537C141.467 413.394 143.757 414.315 146.141 415.203C150.972 416.855 156.107 418.664 161.366 420.055C162.673 420.421 163.991 420.798 165.287 421.164C166.595 421.519 167.912 421.791 169.219 422.115C171.833 422.711 174.395 423.339 176.894 423.84C181.913 424.719 186.588 425.67 190.645 426.11C194.691 426.632 198.058 427.072 200.432 427.208C202.795 427.385 204.155 427.49 204.155 427.49L204.594 421.226C204.594 421.226 203.276 421.122 200.976 420.954C198.675 420.829 195.402 420.4 191.481 419.898C187.55 419.48 183.011 418.549 178.139 417.702C175.713 417.211 173.224 416.594 170.694 416.019C169.428 415.716 168.142 415.454 166.877 415.099C165.612 414.743 164.336 414.388 163.071 414.022C157.957 412.673 152.98 410.906 148.285 409.306C145.964 408.438 143.747 407.539 141.635 406.713C140.579 406.294 139.554 405.886 138.56 405.489C137.588 405.05 136.647 404.632 135.737 404.224C132.13 402.582 129.097 401.275 127.069 400.177C125.009 399.121 123.838 398.525 123.838 398.525L120.962 404.109ZM27.1349 320.111C27.1349 320.111 28.0237 321.659 29.5713 324.367C30.3764 325.705 31.2548 327.389 32.4468 329.208C33.618 331.038 34.946 333.109 36.389 335.357C37.1 336.497 37.8947 337.636 38.7417 338.807C39.5783 339.979 40.4357 341.202 41.3245 342.446C43.0603 344.977 45.068 347.507 47.1384 350.132C48.184 351.439 49.2088 352.788 50.3067 354.116C51.4256 355.412 52.5653 356.74 53.7155 358.068C54.8762 359.386 56.016 360.745 57.2081 362.052C58.4315 363.339 59.6549 364.635 60.8888 365.921C70.718 376.252 81.7183 385.402 90.3764 391.676C92.5618 393.224 94.559 394.646 96.3262 395.9C98.1352 397.103 99.7455 398.117 101.053 398.964C103.688 400.648 105.183 401.599 105.183 401.599L110.903 392.23C110.903 392.23 109.47 391.32 106.971 389.721C105.727 388.915 104.21 387.933 102.485 386.814C100.802 385.622 98.8985 384.273 96.8281 382.798C88.5988 376.838 78.1526 368.138 68.8045 358.33C59.3935 348.574 51.1432 337.772 45.528 329.302C44.1582 327.159 42.9035 325.203 41.7846 323.457C40.6448 321.732 39.8187 320.132 39.0554 318.856C37.581 316.284 36.734 314.81 36.734 314.81L27.1349 320.111ZM0 221.589C0 221.589 0.041827 222.98 0.115023 225.406C0.303242 227.831 0.564669 231.303 0.878367 235.465C1.77763 243.767 3.24156 254.851 5.99164 265.684C8.63716 276.528 12.0774 287.183 15.2771 294.921C16.0613 296.866 16.7306 298.665 17.4207 300.223C18.1213 301.77 18.7278 303.129 19.2297 304.238C20.244 306.465 20.8191 307.73 20.8191 307.73L30.7424 303.035C30.7424 303.035 30.1987 301.833 29.2367 299.721C28.7557 298.665 28.1805 297.378 27.5218 295.904C26.863 294.43 26.2356 292.715 25.4932 290.874C22.4503 283.523 19.1879 273.401 16.6783 263.102C14.0537 252.812 12.6734 242.283 11.816 234.398C11.5127 230.446 11.2618 227.141 11.0945 224.841C11.0317 222.53 10.9899 221.212 10.9899 221.212L0 221.589ZM37.4137 101.296C37.4137 101.296 36.4413 102.739 34.946 105.395C33.4402 108.041 31.1816 111.763 28.8707 116.448C24.0607 125.712 18.5082 138.543 14.5138 151.906C10.4461 165.238 7.85292 178.989 6.77589 189.362C6.40991 191.944 6.25305 194.329 6.08575 196.441C5.9289 198.553 5.79296 200.393 5.67794 201.91C5.54201 203.426 5.56292 204.618 5.53155 205.433C5.51064 206.249 5.50018 206.678 5.50018 206.678L11.7741 206.887C11.7741 206.887 11.7846 206.469 11.8055 205.674C11.8473 204.89 11.816 203.729 11.9519 202.255C12.0669 200.78 12.1924 198.992 12.3493 196.943C12.5061 194.893 12.6525 192.582 13.0185 190.073C14.0641 180.003 16.5842 166.66 20.5368 153.726C24.4162 140.759 29.8118 128.306 34.4754 119.313C36.7131 114.764 38.9195 111.157 40.373 108.584C41.8264 106.012 42.7675 104.611 42.7675 104.611L37.4137 101.296ZM108.059 31.1742C108.059 31.1742 106.908 31.9062 104.911 33.1819C102.924 34.489 100.007 36.2352 96.7131 38.6402C95.0505 39.8218 93.2624 41.108 91.3593 42.4569C89.519 43.8999 87.5845 45.4161 85.5768 46.9846C83.5482 48.5322 81.572 50.2575 79.5538 52.0142C77.5462 53.7709 75.4548 55.5067 73.5204 57.4098C65.4897 64.7295 58.3165 72.9274 53.1404 79.2119C50.6309 82.422 48.4873 85.0571 47.107 86.9916C45.7267 88.926 44.9425 90.0344 44.9425 90.0344L50.0557 93.6733C50.0557 93.6733 50.8191 92.5963 52.1575 90.7246C53.496 88.8424 55.5768 86.291 58.0132 83.1749C63.0429 77.0787 69.9965 69.1212 77.7971 62.0107C79.6793 60.1599 81.7079 58.4764 83.6633 56.772C85.6187 55.0676 87.5427 53.3945 89.519 51.8888C91.4639 50.3621 93.3461 48.8877 95.1342 47.497C96.9745 46.1794 98.7208 44.9351 100.331 43.7849C103.52 41.4426 106.354 39.7486 108.289 38.4834C110.233 37.2391 111.342 36.528 111.342 36.528L108.059 31.1742ZM228.424 0.212235C228.424 0.212235 226.689 0.17041 223.656 0.0867569C222.14 0.0763003 220.3 -0.038722 218.187 0.013561C216.075 0.065844 213.691 0.128582 211.087 0.191321C208.484 0.212234 205.671 0.473649 202.691 0.693238C201.206 0.80826 199.669 0.93374 198.111 1.04876C196.553 1.1847 194.963 1.4252 193.343 1.61342C190.111 2.03168 186.755 2.39767 183.388 3.05643C180.021 3.68383 176.57 4.1962 173.193 5.03273C159.568 7.99195 146.33 12.4883 136.71 16.5559C134.305 17.5702 132.14 18.5845 130.195 19.4524C128.271 20.3412 126.567 21.0627 125.218 21.7842C122.51 23.1749 120.952 23.9592 120.952 23.9592L123.838 29.5325C123.838 29.5325 125.343 28.7588 127.978 27.4203C129.285 26.7197 130.938 26.0191 132.809 25.1617C134.691 24.3252 136.793 23.3318 139.125 22.3489C148.463 18.4067 161.314 14.0359 174.542 11.1708C177.825 10.3447 181.171 9.85322 184.444 9.24674C187.706 8.60888 190.969 8.25336 194.106 7.84555C195.674 7.65733 197.222 7.42729 198.738 7.29135C200.254 7.17633 201.739 7.06131 203.182 6.94628C206.068 6.73715 208.808 6.47574 211.328 6.46528C213.858 6.40254 216.169 6.35026 218.219 6.29798C220.268 6.24569 222.056 6.35026 223.531 6.37117C226.48 6.44437 228.163 6.49665 228.163 6.49665L228.424 0.212235ZM324.259 27.4726C324.259 27.4726 323.088 26.7825 321.007 25.6322C318.884 24.5447 315.863 22.9972 312.234 21.1359C304.841 17.6852 294.845 13.3353 284.44 10.0937C281.868 9.21537 279.223 8.5566 276.65 7.79327C275.364 7.42729 274.078 7.07177 272.813 6.71624C271.537 6.413 270.272 6.12021 269.027 5.82743C266.539 5.26277 264.144 4.6772 261.854 4.20666C259.554 3.78839 257.379 3.4015 255.371 3.04597C251.366 2.27218 247.978 1.95849 245.626 1.62387C243.262 1.33109 241.913 1.16379 241.913 1.16379L241.255 7.40638C241.255 7.40638 242.562 7.57368 244.852 7.85601C247.142 8.18017 250.425 8.47295 254.315 9.23628C256.26 9.58135 258.372 9.96824 260.61 10.3656C262.837 10.8152 265.158 11.3903 267.574 11.9341C268.776 12.2164 270 12.4987 271.244 12.7915C272.468 13.1366 273.712 13.4817 274.967 13.8372C277.455 14.5691 280.028 15.207 282.527 16.0644C292.628 19.2014 302.332 23.4363 309.505 26.7825C313.029 28.5914 315.967 30.0867 318.017 31.1429C320.045 32.2513 321.174 32.9309 321.174 32.9309L324.259 27.4726ZM416.33 114.053C416.33 114.053 415.503 112.453 414.071 109.661C413.37 108.25 412.367 106.629 411.3 104.716C410.192 102.833 409.02 100.658 407.577 98.3788C401.983 89.177 393.597 77.4656 384.008 66.7894C374.472 56.0609 363.733 46.4722 355.221 39.895C351.039 36.5071 347.295 34.0289 344.754 32.1781C343.478 31.2579 342.464 30.5677 341.743 30.1181C341.032 29.658 340.655 29.4175 340.655 29.4175L333.973 39.5709C333.973 39.5709 334.329 39.8009 334.998 40.2296C335.678 40.6479 336.64 41.3067 337.842 42.1746C340.237 43.9208 343.782 46.2526 347.734 49.4628C355.775 55.674 365.939 64.7399 374.942 74.8828C384.008 84.9734 391.945 96.0365 397.225 104.736C398.585 106.88 399.693 108.94 400.739 110.728C401.753 112.527 402.694 114.064 403.363 115.402C404.723 118.048 405.496 119.553 405.496 119.553L416.33 114.053ZM440.265 214.039C440.265 214.039 440.233 212.638 440.181 210.191C440.15 208.968 440.108 207.483 440.066 205.779C440.045 204.932 440.014 204.022 439.993 203.07C439.951 202.119 439.857 201.115 439.794 200.059C439.324 191.673 437.954 180.515 435.768 169.494C433.457 158.494 430.289 147.692 427.434 139.766C426.786 137.758 426.023 135.981 425.416 134.381C424.789 132.791 424.235 131.401 423.785 130.261C422.896 127.971 422.3 126.695 422.3 126.695L411.133 131.505C411.133 131.505 411.697 132.708 412.534 134.872C412.963 135.949 413.475 137.267 414.071 138.762C414.646 140.278 415.378 141.951 415.984 143.844C418.682 151.341 421.673 161.537 423.858 171.931C425.908 182.345 427.215 192.886 427.654 200.812C427.717 201.805 427.811 202.746 427.842 203.656C427.863 204.555 427.895 205.413 427.915 206.218C427.957 207.828 427.989 209.229 428.02 210.39C428.072 212.701 428.104 214.029 428.104 214.029H440.265V214.039ZM423.733 214.039C423.733 214.039 423.701 212.784 423.649 210.369C423.618 209.156 423.576 207.65 423.534 205.862C423.524 204.074 423.367 202.004 423.179 199.661C422.562 190.313 421.046 176.5 416.33 159.55C415.723 157.438 415.106 155.273 414.468 153.046C413.726 150.85 412.973 148.612 412.199 146.312C411.457 144.001 410.516 141.701 409.596 139.337C408.654 136.985 407.755 134.548 406.626 132.154C402.433 122.429 397.027 112.286 390.314 102.07C383.6 91.8539 375.549 81.5855 366.002 71.7458C356.455 61.9271 345.455 52.4848 332.938 44.13C320.422 35.7856 306.441 28.466 291.248 22.7148C289.376 21.9306 287.421 21.345 285.486 20.6758C283.541 20.0275 281.607 19.3374 279.63 18.7309C277.644 18.1662 275.657 17.6016 273.649 17.0264C272.645 16.7441 271.642 16.4618 270.638 16.1795C269.623 15.918 268.609 15.6985 267.584 15.458C265.545 14.9874 263.496 14.5169 261.436 14.0463C259.376 13.5862 257.274 13.2725 255.193 12.8752C254.148 12.687 253.102 12.4987 252.046 12.321L250.467 12.0387L248.878 11.8295C246.755 11.5576 244.622 11.2858 242.489 11.0139C240.355 10.7002 238.191 10.5747 236.037 10.4074C233.872 10.2506 231.708 10.0624 229.533 9.93687C227.358 9.88459 225.172 9.82185 222.977 9.76957L219.662 9.665C218.564 9.665 217.455 9.70683 216.358 9.72774C214.151 9.78002 211.934 9.84276 209.718 9.89505C207.501 9.9787 205.274 10.1983 203.046 10.3551C198.581 10.6061 194.116 11.2649 189.63 11.8295C180.69 13.2202 171.676 14.9874 162.809 17.6434C158.334 18.825 153.973 20.4248 149.54 21.9097C147.354 22.7148 145.19 23.6036 143.004 24.4506L139.732 25.7473L136.511 27.1903C119.289 34.7922 102.903 45.0083 88.0655 57.4203C86.2356 58.9992 84.4057 60.5886 82.5758 62.178C80.7668 63.7884 79.0414 65.5032 77.2743 67.1763C76.3959 68.0233 75.5071 68.8494 74.6497 69.7068L72.1192 72.3523C70.4566 74.1299 68.7103 75.8448 67.1209 77.7061C60.5646 84.9734 54.6148 92.8263 49.0833 101.003C43.5831 109.212 38.7835 117.912 34.4754 126.873L31.4012 133.68C30.4078 135.97 29.5399 138.302 28.6093 140.623C28.1596 141.784 27.6786 142.945 27.2604 144.116L26.0579 147.661L24.8553 151.216C24.4475 152.398 24.0502 153.579 23.726 154.792L21.6765 162.018C21.0178 164.433 20.5159 166.89 19.9303 169.327L19.0938 172.987L18.4245 176.688C18.0063 179.156 17.4939 181.613 17.1698 184.102C15.7058 194.025 15.0784 204.043 14.9634 214.05C15.0784 224.057 15.7058 234.074 17.1698 243.997C17.5044 246.476 18.0063 248.943 18.4245 251.411L19.0938 255.113L19.9303 258.773C20.5054 261.209 21.0178 263.666 21.6765 266.082L23.726 273.307C24.0502 274.52 24.4475 275.702 24.8553 276.883L26.0579 280.439L27.2604 283.983C27.6891 285.155 28.1596 286.315 28.6093 287.476C29.5399 289.787 30.4078 292.129 31.4012 294.419L34.4754 301.226C38.794 310.188 43.5831 318.898 49.0833 327.096C54.6148 335.273 60.5646 343.126 67.1209 350.393C68.7103 352.255 70.4566 353.959 72.1192 355.747L74.6497 358.393C75.5176 359.25 76.4064 360.087 77.2743 360.923C79.0414 362.596 80.7668 364.301 82.5758 365.921C84.4057 367.511 86.2356 369.1 88.0655 370.679C102.903 383.091 119.289 393.307 136.511 400.909L139.732 402.352L143.004 403.649C145.19 404.506 147.354 405.385 149.54 406.19C153.963 407.664 158.334 409.274 162.809 410.456C171.676 413.102 180.69 414.869 189.63 416.27C194.116 416.835 198.581 417.493 203.046 417.744C205.274 417.901 207.501 418.121 209.718 418.204C211.934 418.267 214.151 418.319 216.358 418.372C217.466 418.393 218.564 418.434 219.662 418.434L222.956 418.361C225.152 418.298 227.337 418.246 229.512 418.183C231.687 418.058 233.862 417.87 236.016 417.713C238.18 417.546 240.335 417.41 242.468 417.106C244.601 416.835 246.734 416.563 248.857 416.291L250.446 416.082L252.025 415.799C253.071 415.611 254.127 415.423 255.172 415.245C257.264 414.858 259.355 414.534 261.415 414.074C263.475 413.603 265.524 413.133 267.563 412.662C268.588 412.422 269.603 412.192 270.617 411.941C271.621 411.659 272.624 411.376 273.628 411.094C275.626 410.519 277.623 409.954 279.609 409.389C281.575 408.783 283.52 408.093 285.465 407.445C287.4 406.765 289.355 406.179 291.227 405.405C306.42 399.654 320.401 392.335 332.917 383.99C345.434 375.636 356.434 366.204 365.981 356.374C375.528 346.535 383.579 336.266 390.293 326.05C397.006 315.834 402.412 305.691 406.605 295.967C407.734 293.572 408.633 291.136 409.575 288.783C410.505 286.42 411.446 284.119 412.178 281.808C412.952 279.508 413.715 277.26 414.447 275.074C415.085 272.847 415.713 270.683 416.309 268.57C421.025 251.62 422.541 237.807 423.158 228.459C423.346 226.117 423.492 224.046 423.513 222.258C423.555 220.47 423.597 218.964 423.628 217.751C423.701 215.284 423.733 214.039 423.733 214.039H420.334C420.334 214.039 420.303 215.273 420.251 217.657C420.219 218.849 420.178 220.334 420.136 222.091C420.125 223.848 419.968 225.887 419.791 228.187C419.184 237.389 417.689 250.962 413.057 267.629C412.461 269.71 411.854 271.833 411.227 274.029C410.495 276.183 409.752 278.389 408.989 280.658C408.268 282.938 407.337 285.196 406.427 287.518C405.496 289.839 404.618 292.234 403.51 294.586C399.39 304.154 394.067 314.119 387.469 324.168C374.304 344.234 355.671 364.656 331.046 381.146C318.738 389.355 304.988 396.549 290.056 402.206C288.215 402.969 286.291 403.544 284.388 404.213C282.475 404.851 280.572 405.531 278.637 406.127C276.682 406.681 274.726 407.246 272.76 407.8C271.777 408.082 270.795 408.354 269.801 408.637C268.808 408.888 267.804 409.107 266.8 409.348C264.792 409.808 262.774 410.278 260.756 410.738C258.728 411.188 256.668 411.502 254.608 411.889C253.583 412.066 252.548 412.255 251.513 412.443L249.965 412.715L248.397 412.913C246.305 413.175 244.214 413.447 242.112 413.718C240.01 414.022 237.888 414.147 235.765 414.315C233.642 414.471 231.509 414.649 229.366 414.775C227.222 414.827 225.068 414.89 222.914 414.942L219.672 415.015C218.595 415.015 217.508 414.973 216.42 414.952C214.245 414.9 212.07 414.837 209.895 414.785C207.71 414.701 205.525 414.482 203.339 414.335C198.947 414.084 194.566 413.436 190.143 412.882C181.349 411.512 172.492 409.776 163.771 407.173C159.369 406.012 155.082 404.433 150.732 402.98C148.578 402.185 146.455 401.317 144.301 400.48L141.08 399.205L137.923 397.783C120.983 390.317 104.88 380.257 90.2823 368.055C88.4837 366.496 86.6852 364.938 84.8867 363.37C83.109 361.781 81.4151 360.097 79.6688 358.455C78.8114 357.629 77.933 356.814 77.0861 355.967L74.5974 353.373C72.9662 351.617 71.2408 349.933 69.6828 348.114C63.2415 340.972 57.3858 333.244 51.9484 325.203C46.5423 317.131 41.8264 308.567 37.581 299.762L34.5591 293.07C33.5866 290.822 32.7292 288.522 31.8194 286.242C31.3802 285.102 30.9097 283.963 30.4914 282.812L29.3098 279.32L28.1282 275.827C27.7309 274.667 27.344 273.495 27.0199 272.314L25.0017 265.214C24.3534 262.84 23.862 260.425 23.2869 258.03L22.4712 254.423L21.8125 250.784C21.4047 248.358 20.9028 245.942 20.5681 243.495C19.1251 233.74 18.5082 223.879 18.4036 214.039C18.5186 204.2 19.1356 194.339 20.5681 184.583C20.8923 182.136 21.3942 179.721 21.8125 177.295L22.4712 173.656L23.2869 170.048C23.862 167.654 24.3534 165.238 25.0017 162.865L27.0199 155.765C27.3336 154.573 27.7309 153.412 28.1282 152.251L29.3098 148.759L30.4914 145.266C30.9097 144.116 31.3802 142.976 31.8194 141.836C32.7292 139.557 33.5866 137.256 34.5591 135.008L37.581 128.316C41.8264 119.501 46.5423 110.937 51.9484 102.875C57.3858 94.834 63.2415 87.117 69.6828 79.9647C71.2513 78.1348 72.9662 76.4513 74.5974 74.7051L77.0861 72.1118C77.933 71.2648 78.8114 70.4492 79.6688 69.6231C81.4046 67.9815 83.109 66.2979 84.8867 64.7085C86.6852 63.1505 88.4942 61.582 90.2823 60.024C104.88 47.8211 120.983 37.7723 137.923 30.2959L141.08 28.8738L144.301 27.5981C146.445 26.7615 148.578 25.8936 150.732 25.0989C155.082 23.6455 159.38 22.0665 163.771 20.9058C172.492 18.3021 181.349 16.5664 190.143 15.1965C194.555 14.6423 198.947 13.994 203.339 13.7431C205.535 13.5967 207.72 13.3771 209.895 13.2934C212.081 13.2412 214.256 13.1784 216.42 13.1261C217.508 13.1052 218.585 13.0634 219.672 13.0634L222.914 13.1366C225.068 13.1889 227.222 13.2516 229.366 13.3039C231.509 13.4294 233.642 13.6071 235.765 13.764C237.888 13.9313 240.01 14.0568 242.112 14.36C244.214 14.6319 246.305 14.8933 248.397 15.1652L249.965 15.3639L251.513 15.6357C252.548 15.8239 253.573 16.0017 254.608 16.1795C256.668 16.5664 258.728 16.8801 260.756 17.3297C262.785 17.8002 264.792 18.2603 266.8 18.7204C267.804 18.9609 268.808 19.1805 269.801 19.4315C270.795 19.7138 271.777 19.9857 272.76 20.268C274.726 20.8326 276.692 21.3869 278.637 21.9411C280.572 22.5475 282.485 23.2168 284.388 23.8546C286.291 24.5238 288.215 25.0989 290.056 25.8623C304.988 31.5193 318.738 38.7134 331.046 46.9219C355.671 63.4119 374.304 83.8441 387.469 103.9C394.067 113.949 399.39 123.914 403.51 133.482C404.629 135.834 405.507 138.229 406.427 140.55C407.337 142.872 408.268 145.13 408.989 147.41C409.752 149.668 410.495 151.885 411.227 154.039C411.854 156.225 412.461 158.358 413.057 160.439C417.689 177.107 419.184 190.69 419.791 199.881C419.968 202.181 420.125 204.221 420.136 205.977C420.178 207.734 420.219 209.219 420.251 210.411C420.303 212.795 420.334 214.029 420.334 214.029H423.733V214.039ZM365.605 214.039C365.605 214.039 365.584 213.14 365.531 211.394C365.51 210.526 365.479 209.438 365.448 208.152C365.458 206.866 365.333 205.381 365.186 203.698C364.758 196.985 363.67 187.103 360.293 175.015C359.864 173.509 359.425 171.962 358.975 170.372C358.442 168.814 357.898 167.204 357.344 165.562C356.831 163.9 356.141 162.269 355.483 160.585C354.803 158.902 354.196 157.155 353.36 155.451C350.39 148.497 346.5 141.261 341.701 133.942C332.112 119.344 318.519 104.423 300.585 92.4081C291.614 86.4374 281.628 81.2195 270.784 77.0996C269.456 76.5245 268.044 76.1376 266.664 75.6462C265.273 75.1861 263.893 74.6841 262.492 74.245C261.07 73.8476 259.648 73.4398 258.226 73.0425L256.082 72.4255C255.361 72.2478 254.629 72.0909 253.897 71.9236C252.443 71.589 250.979 71.2439 249.505 70.9093C248.031 70.5747 246.535 70.3656 245.04 70.0832L242.792 69.6754L241.663 69.4663L240.523 69.3304C239.007 69.1421 237.48 68.9435 235.943 68.7552C234.416 68.5147 232.868 68.4416 231.321 68.3265C229.773 68.2115 228.215 68.0965 226.657 67.971C225.089 67.9292 223.52 67.8978 221.941 67.856L219.568 67.7932C218.773 67.7932 217.989 67.8351 217.194 67.8455C215.605 67.8874 214.015 67.9187 212.415 67.9605C210.816 68.0128 209.226 68.201 207.626 68.2952C204.416 68.452 201.237 68.9644 198.017 69.3408C191.628 70.3656 185.186 71.5785 178.86 73.4921C175.66 74.3077 172.555 75.4998 169.386 76.5245C167.828 77.1101 166.281 77.7479 164.723 78.3544L162.381 79.2746L160.091 80.3202C147.783 85.7368 136.061 93.0668 125.416 101.944C124.109 103.084 122.792 104.214 121.474 105.353C120.178 106.504 118.954 107.748 117.679 108.94C117.051 109.546 116.403 110.132 115.786 110.749L113.987 112.652C112.806 113.938 111.53 115.141 110.401 116.49C105.695 121.697 101.45 127.344 97.4764 133.178C93.5238 139.045 90.1255 145.287 87.0303 151.687L84.8344 156.549C84.1234 158.18 83.5273 159.853 82.8477 161.505C82.5235 162.331 82.1784 163.157 81.8752 163.994L81.0282 166.524L80.1708 169.055C79.878 169.902 79.5852 170.738 79.3656 171.606L77.9017 176.761C77.4311 178.487 77.0861 180.244 76.6678 181.979L76.0613 184.593L75.6012 187.239C75.3085 189.006 74.9215 190.752 74.6915 192.53C73.6458 199.63 73.2171 206.814 73.1021 214.018C73.2171 221.223 73.6458 228.417 74.6915 235.507C74.9215 237.284 75.3085 239.031 75.6012 240.798L76.0613 243.443L76.6678 246.057C77.0965 247.793 77.4311 249.55 77.9017 251.275L79.3656 256.43C79.5852 257.298 79.878 258.135 80.1708 258.982L81.0282 261.512L81.8752 264.043C82.1784 264.879 82.5235 265.705 82.8477 266.531C83.5169 268.184 84.1234 269.857 84.8344 271.488L87.0303 276.35C90.1359 282.739 93.5343 288.982 97.4764 294.858C101.45 300.704 105.695 306.35 110.401 311.547C111.53 312.885 112.806 314.098 113.987 315.385L115.786 317.288C116.403 317.905 117.051 318.49 117.679 319.097C118.954 320.289 120.178 321.533 121.474 322.683C122.792 323.823 124.099 324.963 125.416 326.092C136.061 334.98 147.783 342.31 160.091 347.716L162.381 348.762L164.723 349.682C166.281 350.289 167.828 350.927 169.386 351.512C172.555 352.537 175.65 353.729 178.86 354.545C185.176 356.458 191.617 357.682 198.017 358.696C201.237 359.072 204.416 359.595 207.626 359.742C209.226 359.846 210.816 360.024 212.415 360.076C214.015 360.118 215.605 360.149 217.194 360.191C217.989 360.212 218.783 360.254 219.568 360.243L221.941 360.181C223.52 360.139 225.089 360.107 226.657 360.066C228.215 359.951 229.773 359.836 231.321 359.71C232.868 359.585 234.427 359.522 235.943 359.281C237.469 359.083 238.996 358.895 240.523 358.706L241.663 358.57L242.792 358.361L245.04 357.953C246.535 357.671 248.041 357.462 249.505 357.127C250.969 356.782 252.433 356.448 253.897 356.113C254.629 355.946 255.361 355.789 256.082 355.611L258.226 354.994C259.658 354.586 261.08 354.189 262.492 353.792C263.893 353.353 265.273 352.851 266.664 352.391C268.044 351.899 269.446 351.512 270.784 350.937C281.617 346.828 291.614 341.599 300.585 335.629C318.519 323.614 332.123 308.703 341.701 294.095C346.5 286.775 350.39 279.539 353.36 272.586C354.186 270.881 354.803 269.135 355.483 267.452C356.141 265.768 356.842 264.126 357.344 262.474C357.898 260.833 358.442 259.233 358.975 257.664C359.425 256.075 359.864 254.527 360.293 253.021C363.67 240.934 364.758 231.052 365.186 224.339C365.322 222.655 365.448 221.171 365.448 219.884C365.479 218.598 365.51 217.511 365.531 216.643C365.584 214.939 365.605 214.039 365.605 214.039H362.206C362.206 214.039 362.185 214.918 362.133 216.622C362.112 217.479 362.091 218.536 362.06 219.79C362.07 221.056 361.945 222.499 361.809 224.14C361.391 230.707 360.324 240.348 357.03 252.154C356.612 253.628 356.183 255.134 355.744 256.692C355.221 258.218 354.698 259.787 354.144 261.387C353.653 263.008 352.973 264.597 352.325 266.249C351.666 267.891 351.07 269.606 350.254 271.258C347.347 278.044 343.552 285.123 338.867 292.265C329.508 306.528 316.218 321.104 298.703 332.837C289.941 338.661 280.185 343.764 269.603 347.79C268.306 348.354 266.926 348.731 265.587 349.212C264.228 349.661 262.889 350.153 261.509 350.582C260.129 350.968 258.738 351.366 257.337 351.753L255.246 352.359C254.545 352.537 253.824 352.683 253.112 352.851C251.69 353.185 250.258 353.509 248.825 353.844C247.393 354.168 245.918 354.367 244.465 354.649L242.269 355.047L241.171 355.245L240.063 355.381C238.578 355.569 237.093 355.758 235.598 355.946C234.113 356.186 232.597 356.249 231.08 356.364C229.564 356.479 228.048 356.594 226.521 356.709C224.984 356.74 223.447 356.782 221.91 356.814L219.589 356.876C218.815 356.876 218.041 356.835 217.267 356.824C215.72 356.782 214.162 356.751 212.604 356.709C211.046 356.657 209.488 356.479 207.93 356.374C204.793 356.228 201.687 355.716 198.539 355.35C192.297 354.356 186.012 353.164 179.833 351.293C176.706 350.498 173.684 349.327 170.589 348.333C169.062 347.769 167.557 347.131 166.04 346.545L163.75 345.656L161.513 344.632C149.498 339.341 138.048 332.188 127.654 323.509C126.378 322.401 125.092 321.293 123.806 320.184C122.541 319.055 121.338 317.842 120.094 316.681C119.477 316.096 118.85 315.521 118.243 314.914L116.487 313.053C115.326 311.798 114.082 310.616 112.973 309.309C108.372 304.227 104.231 298.706 100.352 293.008C96.4935 287.277 93.1788 281.181 90.1464 274.928L88.0028 270.181C87.3126 268.591 86.727 266.95 86.0683 265.339C85.7546 264.524 85.4095 263.729 85.1167 262.913L84.2907 260.435L83.4541 257.957C83.1613 257.131 82.879 256.315 82.6699 255.468L81.2373 250.439C80.7772 248.755 80.4426 247.04 80.0348 245.346L79.4388 242.795L78.9892 240.212C78.7068 238.487 78.3199 236.782 78.1003 235.036C77.0756 228.103 76.6574 221.077 76.5528 214.039C76.6678 206.992 77.0756 199.975 78.1003 193.042C78.3199 191.307 78.7068 189.592 78.9892 187.866L79.4388 185.284L80.0348 182.732C80.4531 181.038 80.7772 179.313 81.2373 177.64L82.6699 172.61C82.8895 171.763 83.1718 170.937 83.4541 170.122L84.2907 167.643L85.1167 165.165C85.4095 164.349 85.7546 163.544 86.0683 162.739C86.727 161.129 87.3126 159.487 88.0028 157.898L90.1464 153.15C93.1788 146.908 96.4935 140.812 100.352 135.071C104.231 129.362 108.372 123.851 112.973 118.769C114.071 117.462 115.326 116.281 116.487 115.026L118.243 113.164C118.85 112.568 119.477 111.993 120.094 111.397C121.338 110.237 122.53 109.024 123.806 107.894C125.092 106.786 126.378 105.678 127.654 104.569C138.059 95.8901 149.498 88.7274 161.523 83.4468L163.761 82.422L166.051 81.5332C167.577 80.9476 169.083 80.3203 170.599 79.7451C173.695 78.7518 176.717 77.5806 179.843 76.7859C186.012 74.9142 192.307 73.7221 198.55 72.7288C201.697 72.3628 204.803 71.8504 207.94 71.704C209.508 71.5994 211.056 71.4217 212.614 71.3694C214.172 71.3276 215.73 71.2962 217.278 71.2544C218.051 71.2439 218.825 71.1916 219.599 71.2021L221.92 71.2648C223.458 71.2962 224.995 71.338 226.532 71.3694C228.058 71.4844 229.575 71.5994 231.091 71.7145C232.607 71.8295 234.123 71.9027 235.608 72.1327C237.103 72.321 238.588 72.5092 240.073 72.6974L241.181 72.8333L242.279 73.032L244.475 73.4294C245.929 73.7117 247.403 73.9104 248.836 74.2345C250.268 74.5691 251.701 74.9037 253.123 75.2279C253.834 75.3952 254.545 75.5416 255.256 75.7194L257.347 76.3258C258.738 76.7232 260.129 77.1101 261.52 77.497C262.889 77.9257 264.238 78.4171 265.598 78.8668C266.947 79.3478 268.316 79.7242 269.613 80.2889C280.195 84.3042 289.951 89.407 298.714 95.2418C316.228 106.974 329.519 121.551 338.878 135.813C343.573 142.955 347.368 150.034 350.265 156.821C351.08 158.483 351.666 160.198 352.335 161.829C352.983 163.482 353.663 165.071 354.155 166.692C354.698 168.292 355.232 169.86 355.754 171.387C356.194 172.934 356.622 174.451 357.041 175.925C360.345 187.73 361.401 197.382 361.819 203.938C361.955 205.58 362.081 207.033 362.07 208.288C362.102 209.543 362.123 210.599 362.143 211.456C362.196 213.161 362.217 214.039 362.217 214.039H365.605ZM414.468 214.039C414.468 214.039 414.437 212.847 414.385 210.526C414.353 209.365 414.322 207.933 414.27 206.218C414.259 204.503 414.113 202.537 413.935 200.299C413.349 191.369 411.896 178.184 407.4 162.007C406.824 159.989 406.228 157.919 405.622 155.796C404.911 153.705 404.189 151.561 403.447 149.365C402.746 147.159 401.847 144.963 400.958 142.704C400.059 140.456 399.212 138.124 398.125 135.845C394.13 126.559 388.954 116.887 382.555 107.131C369.777 87.6503 351.676 67.8246 327.773 51.8051C315.821 43.8372 302.478 36.8522 287.985 31.3624C286.197 30.62 284.325 30.0554 282.485 29.4175C280.634 28.8006 278.783 28.1418 276.901 27.5562C275.009 27.0125 273.105 26.4792 271.192 25.9355C270.24 25.6636 269.278 25.3917 268.316 25.1199C267.354 24.8794 266.371 24.6598 265.399 24.4297C263.454 23.9801 261.488 23.5305 259.533 23.0808C257.567 22.6416 255.559 22.3384 253.573 21.962C252.569 21.7842 251.575 21.6064 250.572 21.4287L249.066 21.1673L247.55 20.9686C245.521 20.7072 243.492 20.4562 241.443 20.1948C239.404 19.902 237.344 19.7765 235.284 19.6197C233.224 19.4733 231.154 19.2955 229.073 19.1701C226.992 19.1178 224.901 19.0655 222.809 19.0027L219.662 18.9295C218.616 18.9295 217.56 18.9714 216.504 18.9923C214.392 19.0446 212.279 19.0969 210.157 19.1596C208.034 19.2432 205.911 19.4524 203.789 19.5988C199.522 19.8393 195.267 20.4771 190.979 21.0104C182.447 22.3384 173.841 24.0219 165.382 26.5524C161.105 27.6713 156.943 29.2188 152.719 30.62C150.627 31.3938 148.567 32.2408 146.476 33.046L143.35 34.2798L140.286 35.6601C123.848 42.9065 108.205 52.673 94.0362 64.5203C92.2899 66.0365 90.5437 67.5423 88.7975 69.069C87.0721 70.6061 85.42 72.2478 83.7365 73.8372C82.8999 74.6423 82.0529 75.437 81.2269 76.2526L78.8114 78.7727C77.222 80.4771 75.549 82.1083 74.0327 83.8859C67.7692 90.8187 62.0913 98.3265 56.8107 106.127C51.5615 113.959 46.9815 122.272 42.8616 130.826L39.9233 137.319C38.9822 139.505 38.1562 141.732 37.2673 143.949C36.8386 145.057 36.3785 146.155 35.9812 147.284L34.8309 150.672L33.6807 154.06C33.2938 155.189 32.9174 156.319 32.6037 157.469L30.6483 164.36C30.0209 166.66 29.5399 169.013 28.9857 171.335L28.191 174.827L27.5531 178.361C27.1558 180.714 26.6643 183.067 26.3506 185.43C24.9495 194.904 24.3534 204.471 24.2489 214.029C24.3639 223.586 24.9599 233.154 26.3506 242.628C26.6643 245.001 27.1558 247.344 27.5531 249.707L28.191 253.241L28.9857 256.734C29.5399 259.055 30.0209 261.397 30.6483 263.708L32.6037 270.599C32.9069 271.749 33.2938 272.879 33.6807 274.008L34.8309 277.396L35.9812 280.784C36.389 281.903 36.8386 283.001 37.2673 284.119C38.1562 286.326 38.9822 288.563 39.9233 290.749L42.8616 297.242C46.9815 305.796 51.5511 314.109 56.8107 321.941C62.0913 329.742 67.7692 337.249 74.0327 344.182C75.549 345.96 77.222 347.591 78.8114 349.295L81.2269 351.815C82.0529 352.631 82.8999 353.426 83.7365 354.231C85.4304 355.82 87.0721 357.462 88.7975 358.999C90.5437 360.515 92.3004 362.032 94.0362 363.548C108.205 375.395 123.848 385.151 140.286 392.408L143.35 393.788L146.476 395.022C148.557 395.838 150.627 396.685 152.719 397.448C156.943 398.86 161.105 400.397 165.382 401.516C173.841 404.046 182.447 405.73 190.979 407.058C195.267 407.591 199.522 408.229 203.789 408.469C205.922 408.616 208.045 408.825 210.157 408.908C212.279 408.961 214.392 409.013 216.504 409.076C217.56 409.097 218.606 409.139 219.662 409.139L222.809 409.065C224.901 409.013 226.992 408.961 229.073 408.898C231.154 408.773 233.224 408.595 235.284 408.448C237.344 408.281 239.404 408.166 241.443 407.873C243.482 407.612 245.521 407.35 247.55 407.099L249.066 406.901L250.572 406.639C251.575 406.462 252.579 406.284 253.573 406.106C255.57 405.73 257.567 405.426 259.533 404.987C261.499 404.538 263.454 404.088 265.399 403.638C266.371 403.408 267.344 403.199 268.316 402.948C269.278 402.676 270.23 402.404 271.192 402.133C273.105 401.589 275.009 401.045 276.901 400.512C278.783 399.926 280.634 399.267 282.485 398.651C284.325 398.002 286.197 397.448 287.985 396.706C302.478 391.216 315.821 384.231 327.773 376.263C351.687 360.243 369.777 340.418 382.555 320.937C388.965 311.181 394.13 301.509 398.125 292.223C399.212 289.944 400.059 287.612 400.958 285.364C401.847 283.105 402.746 280.92 403.447 278.703C404.189 276.507 404.911 274.363 405.622 272.272C406.228 270.149 406.824 268.079 407.4 266.061C411.896 249.884 413.349 236.699 413.935 227.769C414.113 225.531 414.259 223.555 414.27 221.85C414.311 220.146 414.353 218.703 414.385 217.542C414.447 215.231 414.468 214.039 414.468 214.039H412.722C412.722 214.039 412.691 215.221 412.638 217.521C412.607 218.672 412.576 220.094 412.534 221.788C412.523 223.482 412.377 225.437 412.199 227.654C411.614 236.51 410.181 249.571 405.716 265.601C405.141 267.598 404.555 269.647 403.949 271.749C403.248 273.82 402.527 275.942 401.795 278.117C401.094 280.303 400.205 282.478 399.327 284.715C398.428 286.943 397.591 289.254 396.514 291.512C392.551 300.714 387.427 310.303 381.08 319.975C368.417 339.278 350.484 358.936 326.779 374.809C314.932 382.704 301.715 389.626 287.347 395.064C285.57 395.806 283.719 396.35 281.899 396.998C280.059 397.605 278.229 398.264 276.368 398.839C274.486 399.372 272.604 399.905 270.711 400.449C269.759 400.721 268.818 400.982 267.867 401.254C266.905 401.495 265.943 401.704 264.981 401.934C263.046 402.384 261.112 402.823 259.167 403.272C257.222 403.712 255.235 404.004 253.259 404.381C252.265 404.559 251.272 404.736 250.279 404.914L248.783 405.175L247.278 405.374C245.27 405.625 243.252 405.887 241.234 406.148C239.216 406.441 237.177 406.556 235.127 406.723C233.078 406.869 231.028 407.047 228.968 407.173C226.908 407.225 224.838 407.277 222.757 407.329L219.641 407.403C218.595 407.403 217.56 407.361 216.514 407.34C214.423 407.288 212.332 407.235 210.23 407.183C208.128 407.099 206.026 406.89 203.914 406.744C199.69 406.503 195.465 405.876 191.22 405.343C182.76 404.025 174.238 402.352 165.852 399.843C161.617 398.734 157.497 397.208 153.304 395.806C151.234 395.043 149.184 394.206 147.124 393.401L144.029 392.178L140.986 390.808C124.695 383.624 109.198 373.952 95.1446 362.209C93.4193 360.714 91.6835 359.208 89.9477 357.702C88.2328 356.176 86.6016 354.555 84.9285 352.976C84.1024 352.181 83.2554 351.397 82.4398 350.582L80.0453 348.082C78.4768 346.399 76.8142 344.778 75.3085 343.021C69.1077 336.151 63.4716 328.717 58.2433 320.979C53.0359 313.22 48.5082 304.98 44.4196 296.5L41.5127 290.059C40.5716 287.894 39.756 285.688 38.8776 283.492C38.4489 282.394 37.9993 281.296 37.602 280.188L36.4622 276.831L35.3224 273.475C34.9355 272.356 34.5591 271.237 34.2558 270.097L32.3214 263.269C31.694 260.989 31.2234 258.658 30.6797 256.357L29.885 252.896L29.2576 249.393C28.8602 247.061 28.3792 244.729 28.0655 242.387C26.6852 232.997 26.0892 223.513 25.9742 214.039C26.0892 204.566 26.6748 195.081 28.0655 185.691C28.3792 183.339 28.8602 181.017 29.2576 178.685L29.885 175.183L30.6797 171.721C31.2339 169.421 31.7044 167.1 32.3214 164.81L34.2558 157.981C34.5591 156.842 34.9355 155.712 35.3224 154.604L36.4622 151.247L37.602 147.891C37.9993 146.782 38.4594 145.695 38.8776 144.587C39.756 142.401 40.5716 140.184 41.5127 138.02L44.4196 131.578C48.5082 123.098 53.0359 114.858 58.2433 107.1C63.4716 99.3617 69.1077 91.9271 75.3085 85.0571C76.8142 83.3004 78.4663 81.6796 80.0453 79.9961L82.4398 77.497C83.2554 76.6814 84.1024 75.8971 84.9285 75.1024C86.6016 73.5235 88.2328 71.9027 89.9477 70.376C91.6835 68.8703 93.4193 67.375 95.1446 65.8692C109.188 54.1265 124.685 44.4541 140.986 37.2704L144.029 35.9006L147.124 34.6772C149.184 33.872 151.234 33.0355 153.304 32.2722C157.497 30.8814 161.617 29.3443 165.852 28.2359C174.238 25.7263 182.76 24.0637 191.22 22.7357C195.465 22.2025 199.69 21.5751 203.914 21.345C206.026 21.1986 208.128 20.9895 210.23 20.9058C212.332 20.8536 214.423 20.8013 216.514 20.749C217.56 20.7281 218.606 20.6863 219.641 20.6863L222.757 20.7595C224.838 20.8117 226.908 20.864 228.968 20.9163C231.028 21.0418 233.078 21.2195 235.127 21.3659C237.177 21.5332 239.216 21.6483 241.234 21.9411C243.252 22.2025 245.27 22.4534 247.278 22.7148L248.783 22.9135L250.279 23.1749C251.272 23.3527 252.265 23.5304 253.259 23.7082C255.235 24.0742 257.222 24.3774 259.167 24.8166C261.112 25.2663 263.057 25.7159 264.981 26.1551C265.943 26.3851 266.915 26.5942 267.867 26.8347C268.818 27.1066 269.77 27.368 270.711 27.6399C272.604 28.1836 274.486 28.7169 276.368 29.2502C278.229 29.8253 280.07 30.4841 281.899 31.0906C283.729 31.7284 285.58 32.2826 287.347 33.025C301.715 38.4625 314.942 45.3952 326.779 53.2795C350.474 69.1526 368.407 88.811 381.08 108.114C387.427 117.786 392.551 127.375 396.514 136.577C397.591 138.835 398.428 141.146 399.327 143.374C400.205 145.611 401.094 147.786 401.795 149.972C402.527 152.147 403.248 154.269 403.949 156.34C404.555 158.442 405.141 160.491 405.716 162.488C410.181 178.518 411.614 191.589 412.199 200.435C412.377 202.652 412.523 204.607 412.534 206.301C412.576 207.995 412.617 209.417 412.638 210.568C412.691 212.868 412.722 214.05 412.722 214.05H414.468V214.039ZM408.267 221.693L408.445 214.468L396.964 214.437L396.797 221.223L408.267 221.693ZM364.256 219.717L364.392 214.374L352.91 214.342L352.774 219.268L364.256 219.717ZM362.959 234.388C362.959 234.388 363.283 231.826 363.618 229.254C363.816 226.671 364.026 224.088 364.026 224.088L352.565 223.304C352.565 223.304 352.377 225.688 352.199 228.062C351.896 230.425 351.593 232.788 351.593 232.788L362.959 234.388ZM360.47 247.563C360.47 247.563 360.742 246.382 361.014 245.2C361.15 244.614 361.286 244.018 361.391 243.579C361.506 243.14 361.537 242.837 361.537 242.837L350.275 240.568C350.275 240.568 350.244 240.85 350.139 241.247C350.045 241.655 349.92 242.199 349.784 242.743C349.533 243.83 349.282 244.918 349.282 244.918L360.47 247.563ZM314.744 323.248C314.744 323.248 315.664 322.453 316.584 321.659C317.055 321.272 317.462 320.822 317.807 320.519C318.132 320.205 318.351 319.996 318.351 319.996L310.509 311.61C310.509 311.61 310.31 311.808 310.007 312.091C309.693 312.373 309.317 312.791 308.888 313.147C308.041 313.879 307.194 314.6 307.194 314.6L314.744 323.248ZM351.781 273.203C351.781 273.203 352.22 272.241 352.879 270.787C353.485 269.323 354.238 267.337 355.023 265.371C355.221 264.879 355.42 264.388 355.608 263.907C355.775 263.415 355.932 262.924 356.089 262.453C356.403 261.512 356.706 260.634 356.957 259.881C357.469 258.375 357.814 257.371 357.814 257.371L346.856 253.942C346.856 253.942 346.542 254.862 346.061 256.242C345.831 256.932 345.559 257.748 345.266 258.605C345.12 259.034 344.974 259.484 344.827 259.944C344.65 260.393 344.472 260.843 344.284 261.293C343.562 263.102 342.851 264.921 342.307 266.28C341.701 267.608 341.293 268.497 341.293 268.497L351.781 273.203ZM323.318 315.134C323.318 315.134 324.05 314.36 325.148 313.21C325.692 312.624 326.361 311.976 327.02 311.233C327.668 310.48 328.369 309.675 329.059 308.87C329.759 308.065 330.449 307.27 331.108 306.517C331.746 305.754 332.3 305.001 332.792 304.384C333.775 303.129 334.433 302.293 334.433 302.293L325.326 295.297C325.326 295.297 324.719 296.071 323.81 297.222C323.349 297.797 322.848 298.487 322.262 299.187C321.655 299.877 321.018 300.62 320.369 301.352C319.731 302.094 319.094 302.837 318.498 303.527C317.902 304.217 317.274 304.813 316.772 305.346C315.758 306.413 315.089 307.113 315.089 307.113L323.318 315.134ZM342.109 291.272C342.109 291.272 343.614 289.013 344.911 286.639C345.591 285.468 346.27 284.297 346.772 283.419C347.264 282.53 347.556 281.913 347.556 281.913L337.414 276.528C337.414 276.528 337.152 277.093 336.703 277.908C336.232 278.713 335.605 279.801 334.988 280.878C333.796 283.074 332.415 285.144 332.415 285.144L342.109 291.272ZM304.381 331.519C304.381 331.519 304.653 331.331 305.061 331.038C305.458 330.745 306.033 330.39 306.546 329.961C307.591 329.135 308.637 328.309 308.637 328.309L301.558 319.264C301.558 319.264 300.596 320.027 299.634 320.791C299.163 321.188 298.641 321.512 298.275 321.784C297.898 322.045 297.647 322.223 297.647 322.223L304.381 331.519ZM292.042 339.539C292.042 339.539 292.607 339.215 293.444 338.734C294.301 338.274 295.378 337.574 296.466 336.862C297.553 336.162 298.641 335.472 299.467 334.949C299.874 334.688 300.219 334.468 300.46 334.322C300.69 334.154 300.826 334.06 300.826 334.06L294.364 324.566C294.364 324.566 294.238 324.649 294.029 324.806C293.81 324.942 293.496 325.141 293.119 325.381C292.367 325.862 291.363 326.5 290.359 327.148C289.355 327.797 288.362 328.455 287.577 328.874C286.804 329.313 286.281 329.616 286.281 329.616L292.042 339.539ZM280.153 345.73C280.153 345.73 281.262 345.228 282.36 344.736C283.437 344.182 284.514 343.628 284.514 343.628L279.348 333.37C279.348 333.37 278.355 333.882 277.372 334.395C276.357 334.855 275.343 335.315 275.343 335.315L280.153 345.73ZM192.349 356.542L197.117 357.399L198.864 346.043L194.472 345.249L192.349 356.542ZM254.629 354.754C254.629 354.754 255.664 354.545 257.191 354.074C258.717 353.635 260.756 353.06 262.795 352.474C264.803 351.795 266.811 351.115 268.316 350.602C269.08 350.362 269.686 350.121 270.115 349.944C270.544 349.776 270.795 349.672 270.795 349.672L266.717 338.933C266.717 338.933 266.486 339.027 266.089 339.184C265.692 339.351 265.127 339.571 264.427 339.79C263.046 340.261 261.195 340.888 259.355 341.516C257.483 342.049 255.612 342.582 254.2 342.99C252.799 343.419 251.847 343.617 251.847 343.617L254.629 354.754ZM204.008 358.278C204.008 358.278 204.27 358.33 204.73 358.361C205.19 358.393 205.859 358.445 206.654 358.497C208.243 358.602 210.355 358.811 212.489 358.915C214.622 358.968 216.744 359.02 218.344 359.062C219.139 359.104 219.808 359.083 220.279 359.062C220.749 359.051 221.011 359.041 221.011 359.041L220.885 347.56C220.885 347.56 220.645 347.57 220.206 347.58C219.777 347.601 219.16 347.612 218.428 347.58C216.954 347.549 214.988 347.497 213.032 347.445C211.077 347.35 209.122 347.152 207.658 347.058C206.926 347.005 206.319 346.964 205.89 346.932C205.462 346.901 205.221 346.859 205.221 346.859L204.008 358.278ZM234.437 358.309C234.437 358.309 237.124 357.964 239.812 357.619C241.161 357.483 242.489 357.242 243.492 357.044C244.496 356.866 245.155 356.74 245.155 356.74L243.126 345.437C243.126 345.437 242.509 345.552 241.6 345.709C240.68 345.887 239.456 346.117 238.212 346.232C235.734 346.545 233.266 346.869 233.266 346.869L234.437 358.309ZM179.477 353.488C179.477 353.488 180.753 353.854 182.029 354.22C182.666 354.409 183.304 354.586 183.796 354.681C184.277 354.796 184.611 354.869 184.611 354.869L187.351 343.712C187.351 343.712 187.048 343.649 186.609 343.544C186.159 343.461 185.563 343.293 184.988 343.116C183.817 342.781 182.635 342.436 182.635 342.436L179.477 353.488ZM165.58 348.752C165.58 348.752 166.176 348.992 167.086 349.348C167.996 349.682 169.167 350.236 170.401 350.613C172.848 351.439 175.294 352.265 175.294 352.265L178.776 341.317C178.776 341.317 176.528 340.554 174.28 339.79C173.14 339.456 172.063 338.933 171.227 338.63C170.401 338.305 169.847 338.086 169.847 338.086L165.58 348.752ZM153.388 343.199C153.388 343.199 154.465 343.753 155.542 344.308C156.075 344.59 156.619 344.872 157.037 345.04C157.455 345.228 157.727 345.353 157.727 345.353L162.611 334.959C162.611 334.959 162.36 334.844 161.973 334.677C161.586 334.52 161.094 334.259 160.592 333.997C159.599 333.485 158.606 332.973 158.606 332.973L153.388 343.199ZM90.596 280.815C90.596 280.815 91.1397 281.892 91.6939 282.98C92.3004 284.036 92.8964 285.081 92.8964 285.081L102.903 279.445C102.903 279.445 102.349 278.473 101.795 277.511C101.293 276.517 100.791 275.524 100.791 275.524L90.596 280.815ZM130.498 328.644C130.498 328.644 131.335 329.302 132.579 330.296C133.876 331.216 135.612 332.45 137.337 333.673C138.184 334.311 139.094 334.865 139.93 335.399C140.767 335.932 141.551 336.434 142.22 336.862C142.889 337.291 143.444 337.657 143.841 337.908C144.228 338.17 144.468 338.285 144.468 338.285L150.408 328.455C150.408 328.455 150.188 328.351 149.833 328.11C149.477 327.88 148.965 327.546 148.348 327.148C147.731 326.751 147.009 326.291 146.236 325.799C145.462 325.308 144.625 324.806 143.841 324.21C142.241 323.081 140.652 321.951 139.449 321.094C138.299 320.184 137.536 319.578 137.536 319.578L130.498 328.644ZM96.4621 291.052C96.4621 291.052 97.0372 291.941 97.8947 293.29C98.3339 293.949 98.794 294.764 99.3795 295.569C99.9547 296.375 100.572 297.242 101.189 298.11C101.805 298.978 102.412 299.846 102.987 300.662C103.604 301.446 104.179 302.178 104.671 302.805C105.653 304.06 106.312 304.897 106.312 304.897L115.263 297.692C115.263 297.692 114.657 296.918 113.757 295.768C113.308 295.193 112.774 294.524 112.21 293.802C111.676 293.049 111.122 292.255 110.558 291.449C109.993 290.655 109.418 289.86 108.885 289.118C108.341 288.375 107.923 287.633 107.515 287.016C106.72 285.782 106.197 284.956 106.197 284.956L96.4621 291.052ZM115.211 314.935C115.211 314.935 115.681 315.426 116.372 316.169C117.062 316.911 118.086 317.811 119.059 318.762C120.042 319.703 121.014 320.634 121.757 321.345C122.53 322.014 123.043 322.453 123.043 322.453L130.676 313.868C130.676 313.868 130.206 313.461 129.495 312.844C128.815 312.195 127.916 311.327 127.016 310.46C126.128 309.592 125.176 308.766 124.538 308.075C123.89 307.396 123.461 306.936 123.461 306.936L115.211 314.935ZM85.0331 268.821C85.0331 268.821 85.1586 269.135 85.3363 269.595C85.5141 270.066 85.7546 270.683 86.0474 271.279C86.6016 272.492 87.1453 273.705 87.1453 273.705L97.6124 268.968C97.6124 268.968 97.1 267.849 96.5981 266.741C96.3262 266.186 96.1066 265.622 95.9498 265.193C95.7825 264.764 95.6779 264.482 95.6779 264.482L85.0331 268.821ZM80.1917 254.956C80.1917 254.956 80.8504 257.455 81.7393 259.881C82.1471 261.104 82.5653 262.328 82.8686 263.248C83.0149 263.708 83.1509 264.085 83.2659 264.346C83.3705 264.607 83.4332 264.754 83.4332 264.754L94.1931 260.738C94.1931 260.738 94.1408 260.603 94.0362 260.362C93.9316 260.121 93.8062 259.776 93.6702 259.348C93.3879 258.501 93.0115 257.382 92.635 256.253C91.8089 254.025 91.2129 251.725 91.2129 251.725L80.1917 254.956ZM77.0129 241.937C77.0129 241.937 77.0652 242.241 77.1384 242.68C77.2011 243.13 77.337 243.715 77.4834 244.311C77.7553 245.493 78.0376 246.674 78.0376 246.674L89.2366 244.102C89.2366 244.102 88.9857 243.014 88.7243 241.937C88.5883 241.394 88.4629 240.85 88.4106 240.442C88.3374 240.034 88.2955 239.752 88.2955 239.752L77.0129 241.937ZM87.2812 154.06C87.2812 154.06 86.7793 155.158 86.2774 156.267C86.0265 156.821 85.7651 157.364 85.5977 157.783C85.4304 158.201 85.3259 158.483 85.3259 158.483L95.9393 162.886C95.9393 162.886 96.0439 162.624 96.1903 162.237C96.3367 161.85 96.5876 161.348 96.8177 160.836C97.2777 159.822 97.7378 158.807 97.7378 158.807L87.2812 154.06ZM74.3255 214.918C74.3255 214.918 74.3569 215.984 74.3987 217.574C74.4614 219.163 74.4092 221.307 74.6392 223.419C74.817 225.542 74.9425 227.664 75.0888 229.243C75.298 230.822 75.4339 231.878 75.4339 231.878L86.8316 230.477C86.8316 230.477 86.7062 229.505 86.5179 228.051C86.382 226.587 86.2669 224.632 86.0996 222.687C85.8801 220.742 85.9428 218.766 85.8801 217.291C85.8382 215.817 85.8069 214.834 85.8069 214.834L74.3255 214.918ZM82.8268 164.966C82.8268 164.966 82.4921 165.97 81.9797 167.476C81.4778 168.982 80.7354 170.969 80.2126 173.028C79.6584 175.078 78.9996 177.086 78.665 178.644C78.3095 180.191 78.0794 181.226 78.0794 181.226L89.268 183.809C89.268 183.809 89.4876 182.858 89.8118 181.436C90.115 180.003 90.7424 178.152 91.2443 176.27C91.7149 174.377 92.405 172.547 92.8651 171.167C93.3252 169.776 93.6389 168.856 93.6389 168.856L82.8268 164.966ZM75.664 194.402C75.664 194.402 75.5803 195.071 75.4548 196.085C75.3398 197.1 75.1098 198.428 75.0052 199.787C74.7961 202.495 74.5974 205.193 74.5974 205.193L86.0578 205.883C86.0578 205.883 86.246 203.394 86.4343 200.895C86.5284 199.651 86.748 198.417 86.8421 197.486C86.9571 196.556 87.0408 195.939 87.0408 195.939L75.664 194.402ZM93.3147 142.286C93.3147 142.286 92.6455 143.436 91.9763 144.587C91.6417 145.162 91.3698 145.768 91.1293 146.207C90.8992 146.657 90.7528 146.95 90.7528 146.95L100.927 152.272C100.927 152.272 101.063 152 101.272 151.592C101.492 151.185 101.732 150.63 102.046 150.097C102.663 149.041 103.28 147.974 103.28 147.974L93.3147 142.286ZM101.241 129.895C101.241 129.895 100.864 130.418 100.3 131.213C99.7351 132.007 98.9613 133.042 98.292 134.151C96.8909 136.326 95.5001 138.501 95.5001 138.501L105.298 144.492C105.298 144.492 106.584 142.485 107.87 140.488C108.487 139.463 109.198 138.511 109.721 137.779C110.244 137.047 110.589 136.566 110.589 136.566L101.241 129.895ZM109.543 119.334C109.543 119.334 108.749 120.254 107.954 121.164C107.546 121.613 107.17 122.084 106.898 122.45C106.616 122.805 106.427 123.046 106.427 123.046L115.368 130.261C115.368 130.261 115.535 130.041 115.796 129.707C116.047 129.372 116.392 128.933 116.769 128.525C117.501 127.678 118.243 126.842 118.243 126.842L109.543 119.334ZM184.946 73.1261C184.946 73.1261 184.653 73.1889 184.203 73.2934C183.764 73.398 183.168 73.5025 182.583 73.6908C181.422 74.0254 180.251 74.36 180.251 74.36L183.336 85.4231C183.336 85.4231 184.402 85.1094 185.479 84.8061C186.012 84.6284 186.567 84.5447 186.964 84.4401C187.372 84.346 187.644 84.2833 187.644 84.2833L184.946 73.1261ZM129.118 100.522C129.118 100.522 128.282 101.181 127.027 102.164C125.824 103.21 124.214 104.6 122.614 105.991C121.004 107.382 119.529 108.909 118.358 109.986C117.783 110.529 117.302 110.989 116.957 111.314C116.622 111.638 116.445 111.836 116.445 111.836L124.59 119.93C124.59 119.93 124.747 119.742 125.061 119.449C125.375 119.156 125.814 118.738 126.347 118.236C127.435 117.243 128.784 115.831 130.268 114.555C131.743 113.269 133.228 111.993 134.336 111.031C135.497 110.132 136.26 109.526 136.26 109.526L129.118 100.522ZM173.621 76.3781C173.621 76.3781 172.618 76.7127 171.112 77.2251C169.585 77.6852 167.64 78.5217 165.664 79.285C164.681 79.6719 163.688 80.0588 162.767 80.4248C161.868 80.8326 161.021 81.2195 160.3 81.5541C158.846 82.2024 157.884 82.6416 157.884 82.6416L162.757 93.0459C162.757 93.0459 163.646 92.6486 164.984 92.0421C165.653 91.7389 166.427 91.3833 167.253 91.0069C168.1 90.6723 169.01 90.3168 169.92 89.9612C171.739 89.2607 173.527 88.4764 174.928 88.0686C176.309 87.598 177.239 87.2948 177.239 87.2948L173.621 76.3781ZM146.026 88.8947C146.026 88.8947 145.441 89.2293 144.552 89.7312C143.674 90.2436 142.555 91.0069 141.405 91.7284C140.265 92.4604 139.125 93.1819 138.268 93.7361C137.442 94.3321 136.887 94.719 136.887 94.719L143.423 104.161C143.423 104.161 143.925 103.795 144.688 103.252C145.472 102.75 146.528 102.08 147.584 101.411C148.641 100.752 149.665 100.031 150.481 99.5708C151.297 99.1108 151.84 98.7971 151.84 98.7971L146.026 88.8947ZM197.923 70.5642C197.923 70.5642 197.588 70.6061 197.096 70.6688C196.605 70.7629 195.946 70.8779 195.298 70.993C193.991 71.223 192.684 71.4635 192.684 71.4635L194.786 82.7566C194.786 82.7566 195.988 82.537 197.201 82.3279C197.807 82.2129 198.404 82.1083 198.853 82.0247C199.303 81.9515 199.616 81.9306 199.616 81.9306L197.923 70.5642ZM212.583 69.1526C212.583 69.1526 211.934 69.1421 210.962 69.2363C209.989 69.3094 208.703 69.414 207.407 69.5081C206.121 69.6231 204.813 69.6545 203.862 69.8009C202.9 69.9264 202.262 70.01 202.262 70.01L203.6 81.4182C203.6 81.4182 204.186 81.345 205.075 81.2195C205.964 81.0836 207.156 81.0522 208.348 80.9476C209.54 80.8535 210.732 80.7594 211.621 80.6862C212.509 80.5921 213.116 80.6026 213.116 80.6026L212.583 69.1526ZM226.051 69.1526L221.188 69.0376L221.042 80.5189L225.528 80.6235L226.051 69.1526ZM308.898 99.9682C308.898 99.9682 307.947 99.2153 306.995 98.4624C306.525 98.086 306.044 97.6991 305.667 97.4482C305.291 97.1867 305.05 97.009 305.05 97.009L298.254 106.274C298.254 106.274 298.484 106.43 298.829 106.671C299.184 106.901 299.613 107.256 300.052 107.602C300.931 108.292 301.809 108.992 301.809 108.992L308.898 99.9682ZM252.903 72.9274C252.903 72.9274 251.868 72.6869 250.321 72.3314C248.783 71.9131 246.682 71.6099 244.601 71.223C243.555 71.0348 242.509 70.8466 241.537 70.6688C240.554 70.5433 239.623 70.4283 238.839 70.3342C237.26 70.1355 236.204 69.9996 236.204 69.9996L234.887 81.4077C234.887 81.4077 235.859 81.5332 237.313 81.7214C238.045 81.8155 238.892 81.9201 239.801 82.0247C240.701 82.192 241.662 82.3697 242.624 82.537C244.538 82.8926 246.483 83.1644 247.895 83.5513C249.317 83.8859 250.268 84.1055 250.268 84.1055L252.903 72.9274ZM299.341 93.0459C299.341 93.0459 298.442 92.4708 297.103 91.6134C296.434 91.1847 295.65 90.6827 294.813 90.139C293.966 89.6162 293.036 89.1143 292.116 88.581C290.265 87.5353 288.466 86.4164 287.023 85.7368C285.612 85.0153 284.66 84.5343 284.66 84.5343L279.474 94.7817C279.474 94.7817 280.341 95.2209 281.649 95.8901C282.977 96.5071 284.639 97.5527 286.333 98.5043C287.18 98.9957 288.038 99.4558 288.822 99.9368C289.596 100.439 290.307 100.899 290.924 101.296C292.157 102.08 292.983 102.614 292.983 102.614L299.341 93.0459ZM272.447 79.055C272.447 79.055 271.819 78.804 270.878 78.4381C270.408 78.2498 269.853 78.0303 269.268 77.8002C268.672 77.6015 268.024 77.382 267.386 77.1728C266.11 76.7441 264.824 76.3049 263.862 75.9808C263.381 75.8135 262.984 75.6775 262.701 75.5834C262.419 75.4788 262.262 75.4475 262.262 75.4475L258.874 86.4165C258.874 86.4165 259.031 86.4478 259.282 86.5419C259.543 86.6256 259.909 86.7615 260.348 86.9079C261.227 87.2112 262.408 87.6085 263.59 88.0058C264.176 88.2045 264.772 88.4032 265.326 88.581C265.87 88.8006 266.371 88.9992 266.8 89.177C267.668 89.5221 268.243 89.7521 268.243 89.7521L272.447 79.055ZM318.937 108.637C318.937 108.637 317.975 107.717 317.013 106.786C316.009 105.908 314.995 105.04 314.995 105.04L307.414 113.666C307.414 113.666 308.344 114.472 309.275 115.277C310.164 116.124 311.042 116.981 311.042 116.981L318.937 108.637ZM329.121 119.282C329.121 119.282 328.693 118.79 328.065 118.058C327.438 117.316 326.601 116.333 325.681 115.413C323.893 113.541 322.105 111.659 322.105 111.659L313.97 119.763C313.97 119.763 315.612 121.488 317.264 123.224C318.111 124.06 318.884 124.98 319.46 125.66C320.045 126.34 320.432 126.789 320.432 126.789L329.121 119.282ZM337.424 129.832C337.424 129.832 336.723 128.839 336.023 127.856C335.688 127.354 335.301 126.883 335.019 126.528C334.737 126.172 334.548 125.932 334.548 125.932L325.43 132.917C325.43 132.917 325.608 133.137 325.87 133.461C326.131 133.785 326.486 134.224 326.8 134.684C327.448 135.594 328.086 136.514 328.086 136.514L337.424 129.832ZM364.413 214.039L364.277 209.177L352.795 209.553L352.921 214.039H364.413ZM351.059 153.265C351.059 153.265 350.955 153.025 350.756 152.596C350.558 152.178 350.317 151.561 349.951 150.85C349.23 149.438 348.257 147.546 347.295 145.664C346.312 143.781 345.193 141.983 344.419 140.592C344.022 139.902 343.698 139.327 343.468 138.919C343.217 138.532 343.071 138.302 343.071 138.302L333.283 144.315C333.283 144.315 333.419 144.524 333.649 144.879C333.858 145.256 334.162 145.779 334.528 146.416C335.239 147.703 336.274 149.355 337.173 151.091C338.062 152.826 338.951 154.562 339.62 155.869C340.247 157.187 340.634 158.086 340.634 158.086L351.059 153.265ZM363.879 202.213C363.879 202.213 363.806 201.157 363.681 199.567C363.524 197.978 363.21 195.887 362.959 193.774C362.76 191.662 362.279 189.592 362.028 188.023C361.757 186.455 361.568 185.409 361.568 185.409L350.307 187.657C350.307 187.657 350.474 188.619 350.725 190.062C350.955 191.505 351.404 193.408 351.582 195.364C351.812 197.309 352.095 199.243 352.251 200.697C352.356 202.161 352.429 203.143 352.429 203.143L363.879 202.213ZM358.316 172.412C358.316 172.412 358.128 171.763 357.856 170.791C357.532 169.829 357.093 168.553 356.654 167.277C356.215 166.002 355.817 164.705 355.451 163.764C355.075 162.823 354.824 162.195 354.824 162.195L344.095 166.305C344.095 166.305 344.325 166.88 344.67 167.748C345.016 168.616 345.371 169.808 345.779 170.989C346.187 172.171 346.584 173.342 346.887 174.221C347.138 175.12 347.306 175.716 347.306 175.716L358.316 172.412ZM389.623 231.533C389.623 231.533 389.948 227.267 390.272 223.001C390.387 218.724 390.491 214.437 390.491 214.437L379.01 214.405C379.01 214.405 378.905 218.4 378.801 222.405C378.498 226.388 378.194 230.372 378.194 230.372L389.623 231.533ZM385.232 256.315C385.232 256.315 385.472 255.27 385.828 253.712C386.173 252.143 386.696 250.073 387.124 247.971C387.501 245.869 387.877 243.757 388.159 242.178C388.306 241.383 388.421 240.735 388.504 240.264C388.578 239.804 388.609 239.532 388.609 239.532L377.253 237.838C377.253 237.838 377.232 238.089 377.159 238.518C377.086 238.947 376.971 239.564 376.835 240.296C376.574 241.77 376.218 243.736 375.873 245.702C374.984 249.592 374.106 253.482 374.106 253.482L385.232 256.315ZM377.253 280.167C377.253 280.167 377.64 279.173 378.236 277.678C378.811 276.183 379.648 274.207 380.359 272.188C381.049 270.16 381.729 268.131 382.241 266.615C382.492 265.852 382.722 265.224 382.858 264.775C382.983 264.325 383.057 264.064 383.057 264.064L372.067 260.707C372.067 260.707 372.004 260.948 371.879 261.366C371.753 261.784 371.544 262.37 371.303 263.081C370.822 264.503 370.185 266.385 369.547 268.278C368.878 270.16 368.093 271.99 367.56 273.391C367.016 274.782 366.65 275.712 366.65 275.712L377.253 280.167ZM365.835 302.596C365.835 302.596 367.957 298.884 370.08 295.162C371.052 293.258 372.035 291.355 372.757 289.923C373.123 289.212 373.426 288.616 373.635 288.197C373.823 287.769 373.938 287.528 373.938 287.528L363.566 282.593C363.566 282.593 363.461 282.823 363.283 283.22C363.085 283.607 362.802 284.161 362.457 284.83C361.777 286.158 360.868 287.936 359.958 289.714C357.982 293.185 355.995 296.646 355.995 296.646L365.835 302.596ZM351.248 323.102C351.248 323.102 351.425 322.903 351.708 322.526C352.001 322.16 352.408 321.627 352.91 321C353.904 319.735 355.221 318.051 356.549 316.368C357.793 314.621 359.027 312.875 359.958 311.568C360.429 310.909 360.815 310.365 361.087 309.989C361.37 309.613 361.495 309.383 361.495 309.383L351.959 302.973C351.959 302.973 351.833 303.192 351.572 303.537C351.321 303.893 350.955 304.405 350.516 305.012C349.648 306.235 348.498 307.866 347.337 309.487C346.103 311.056 344.869 312.624 343.938 313.806C343.478 314.391 343.092 314.883 342.82 315.228C342.558 315.573 342.391 315.761 342.391 315.761L351.248 323.102ZM333.816 341.265C333.816 341.265 334.015 341.087 334.371 340.784C334.705 340.46 335.197 339.999 335.772 339.445C336.933 338.337 338.48 336.862 340.028 335.388C342.987 332.293 345.957 329.208 345.957 329.208L337.466 321.481C337.466 321.481 334.705 324.367 331.934 327.253C330.491 328.633 329.038 330.013 327.961 331.038C327.417 331.551 326.967 331.99 326.654 332.283C326.319 332.565 326.131 332.732 326.131 332.732L333.816 341.265ZM313.918 356.678C313.918 356.678 314.148 356.531 314.535 356.28C314.932 356.04 315.476 355.643 316.134 355.182C317.441 354.252 319.188 353.007 320.934 351.774C322.68 350.529 324.311 349.149 325.587 348.177C326.852 347.183 327.689 346.524 327.689 346.524L320.411 337.636C320.411 337.636 319.627 338.253 318.445 339.173C317.253 340.083 315.727 341.369 314.106 342.53C312.475 343.691 310.854 344.841 309.63 345.709C309.024 346.148 308.512 346.514 308.146 346.733C307.78 346.964 307.57 347.099 307.57 347.099L313.918 356.678ZM291.99 369.017C291.99 369.017 292.231 368.902 292.659 368.713C293.088 368.525 293.695 368.253 294.406 367.877C295.838 367.145 297.741 366.172 299.644 365.189C300.606 364.719 301.537 364.196 302.405 363.684C303.273 363.182 304.088 362.722 304.779 362.314C306.169 361.519 307.1 360.986 307.1 360.986L301.202 351.125C301.202 351.125 300.334 351.617 299.038 352.37C298.39 352.746 297.637 353.175 296.821 353.645C296.016 354.126 295.148 354.618 294.249 355.047C292.471 355.956 290.694 356.866 289.366 357.546C288.707 357.901 288.132 358.152 287.734 358.33C287.337 358.508 287.107 358.612 287.107 358.612L291.99 369.017ZM268.494 377.999C268.494 377.999 268.756 377.926 269.205 377.8C269.655 377.675 270.303 377.507 271.056 377.235C272.572 376.723 274.601 376.033 276.629 375.353C277.131 375.186 277.644 375.008 278.146 374.841C278.637 374.653 279.118 374.464 279.589 374.276C280.519 373.91 281.387 373.565 282.14 373.272C283.635 372.687 284.629 372.289 284.629 372.289L280.247 361.676C280.247 361.676 279.317 362.042 277.926 362.586C277.225 362.858 276.42 363.182 275.552 363.527C275.113 363.694 274.664 363.872 274.214 364.06C273.743 364.217 273.273 364.374 272.802 364.531C270.91 365.169 269.027 365.806 267.605 366.287C266.905 366.538 266.298 366.695 265.88 366.821C265.462 366.936 265.221 367.009 265.221 367.009L268.494 377.999ZM243.921 383.405C243.921 383.405 244.183 383.373 244.653 383.311C245.124 383.258 245.782 383.164 246.567 383.007C248.146 382.725 250.258 382.349 252.36 381.972C252.882 381.878 253.416 381.784 253.928 381.69C254.44 381.575 254.942 381.449 255.434 381.345C256.406 381.115 257.326 380.906 258.1 380.728C259.669 380.372 260.704 380.132 260.704 380.132L257.933 368.985C257.933 368.985 256.961 369.205 255.507 369.539C254.775 369.707 253.928 369.905 253.018 370.114C252.558 370.219 252.088 370.334 251.617 370.439C251.136 370.522 250.645 370.616 250.153 370.7C248.187 371.056 246.222 371.401 244.747 371.662C244.015 371.808 243.398 371.903 242.959 371.944C242.53 371.997 242.279 372.028 242.279 372.028L243.921 383.405ZM218.815 385.172C218.815 385.172 219.087 385.193 219.547 385.182C220.017 385.172 220.687 385.151 221.492 385.13C223.102 385.088 225.235 385.036 227.379 384.984C229.522 384.9 231.645 384.681 233.255 384.576C234.855 384.45 235.922 384.377 235.922 384.377L234.824 372.948C234.824 372.948 233.83 373.021 232.335 373.136C230.84 373.231 228.853 373.44 226.856 373.523C224.859 373.576 222.862 373.628 221.356 373.659C220.603 373.68 219.986 373.701 219.547 373.712C219.108 373.722 218.857 373.701 218.857 373.701L218.815 385.172ZM193.709 383.269C193.709 383.269 197.954 383.802 202.199 384.325C204.332 384.482 206.466 384.649 208.065 384.775C208.871 384.837 209.529 384.89 210 384.921C210.47 384.963 210.732 384.963 210.732 384.963L211.297 373.492C211.297 373.492 207.313 373.189 203.329 372.896C199.366 372.404 195.402 371.903 195.402 371.903L193.709 383.269ZM169.167 377.695C169.167 377.695 170.192 377.988 171.739 378.427C173.287 378.846 175.326 379.494 177.407 379.996C179.488 380.477 181.579 380.958 183.137 381.313C183.921 381.491 184.569 381.659 185.03 381.742C185.49 381.826 185.751 381.868 185.751 381.868L187.989 370.606C187.989 370.606 187.748 370.564 187.309 370.491C186.88 370.407 186.274 370.25 185.542 370.094C184.088 369.759 182.144 369.309 180.199 368.86C178.264 368.389 176.361 367.783 174.908 367.396C173.465 366.988 172.513 366.716 172.513 366.716L169.167 377.695ZM145.723 368.567C145.723 368.567 146.696 369.006 148.16 369.665C149.634 370.303 151.558 371.244 153.534 372.049C155.521 372.833 157.518 373.617 159.003 374.203C160.488 374.82 161.513 375.134 161.513 375.134L165.392 364.322C165.392 364.322 164.44 364.029 163.06 363.454C161.669 362.91 159.808 362.178 157.957 361.446C156.107 360.704 154.319 359.815 152.949 359.219C151.589 358.602 150.68 358.194 150.68 358.194L145.723 368.567ZM123.869 356.092C123.869 356.092 124.768 356.667 126.117 357.535C127.476 358.393 129.254 359.585 131.084 360.693C132.935 361.76 134.796 362.826 136.187 363.621C136.887 364.018 137.462 364.353 137.87 364.583C138.289 364.792 138.529 364.918 138.529 364.918L143.966 354.796C143.966 354.796 143.747 354.681 143.36 354.482C142.984 354.262 142.44 353.959 141.792 353.583C140.495 352.84 138.759 351.847 137.034 350.853C133.667 348.71 130.3 346.566 130.3 346.566L123.869 356.092ZM104.085 340.543C104.085 340.543 104.273 340.731 104.629 341.035C104.984 341.338 105.486 341.777 106.093 342.3C107.306 343.346 108.926 344.747 110.547 346.148C112.231 347.465 113.914 348.793 115.179 349.787C115.807 350.278 116.34 350.697 116.706 350.989C117.072 351.282 117.292 351.429 117.292 351.429L124.151 342.216C124.151 342.216 123.942 342.08 123.597 341.808C123.252 341.537 122.76 341.15 122.175 340.69C120.993 339.769 119.425 338.536 117.856 337.302C116.351 335.995 114.834 334.688 113.705 333.705C113.14 333.213 112.67 332.805 112.335 332.523C112.001 332.241 111.823 332.063 111.823 332.063L104.085 340.543ZM86.7794 322.255C86.7794 322.255 86.9466 322.464 87.229 322.83C87.5322 323.185 87.9714 323.687 88.4942 324.294C89.5503 325.507 90.9515 327.127 92.3527 328.748C95.3015 331.854 98.2398 334.959 98.2398 334.959L106.365 326.845C106.365 326.845 103.614 323.949 100.864 321.042C99.5573 319.536 98.2502 318.02 97.2673 316.89C96.7759 316.326 96.368 315.855 96.0857 315.521C95.8138 315.176 95.6675 314.977 95.6675 314.977L86.7794 322.255ZM72.3283 301.655C72.3283 301.655 72.4643 301.885 72.6943 302.293C72.9139 302.701 73.2903 303.265 73.719 303.935C74.5869 305.284 75.7372 307.093 76.8979 308.891C78.0585 310.69 79.3552 312.394 80.2753 313.712C81.206 315.019 81.8229 315.897 81.8229 315.897L91.0456 309.058C91.0456 309.058 90.4705 308.243 89.6026 307.019C88.7556 305.785 87.5322 304.196 86.4552 302.523C85.3781 300.839 84.3011 299.156 83.496 297.901C83.0882 297.274 82.7431 296.751 82.5444 296.364C82.3248 295.988 82.1993 295.768 82.1993 295.768L72.3283 301.655ZM61.0561 279.153C61.0561 279.153 61.1502 279.403 61.328 279.832C61.4953 280.271 61.7462 280.888 62.0913 281.62C62.7501 283.084 63.6389 285.029 64.5172 286.984C64.9355 287.967 65.427 288.919 65.887 289.808C66.3471 290.697 66.7759 291.533 67.1419 292.244C67.8738 293.677 68.3653 294.628 68.3653 294.628L78.4977 289.212C78.4977 289.212 78.0481 288.323 77.3579 286.995C77.0129 286.326 76.6155 285.552 76.1868 284.715C75.7476 283.889 75.298 283.001 74.9111 282.08C74.085 280.261 73.2694 278.441 72.6525 277.082C72.3283 276.402 72.0983 275.827 71.9414 275.419C71.7846 275.012 71.6904 274.782 71.6904 274.782L61.0561 279.153ZM53.2346 255.249C53.2346 255.249 53.2973 255.51 53.4019 255.97C53.496 256.43 53.6633 257.079 53.8933 257.842C54.3325 259.39 54.9181 261.439 55.5037 263.499C55.65 264.011 55.7964 264.524 55.9428 265.036C56.1101 265.538 56.2774 266.029 56.4343 266.5C56.7584 267.452 57.0512 268.34 57.3126 269.093C57.825 270.609 58.1701 271.624 58.1701 271.624L68.9822 267.755C68.9822 267.755 68.6685 266.814 68.1875 265.392C67.947 264.681 67.6647 263.855 67.3614 262.976C67.215 262.537 67.0582 262.077 66.9013 261.617C66.7654 261.146 66.6295 260.665 66.4935 260.184C65.9498 258.271 65.406 256.347 64.9982 254.904C64.7786 254.193 64.6322 253.586 64.5381 253.157C64.444 252.729 64.3813 252.488 64.3813 252.488L53.2346 255.249ZM48.9996 230.446C48.9996 230.446 49.0519 231.512 49.282 233.102C49.4806 234.691 49.7525 236.814 50.0244 238.936C50.2858 241.059 50.7459 243.15 50.9969 244.74C51.2792 246.319 51.4674 247.375 51.4674 247.375L62.7396 245.148C62.7396 245.148 62.5619 244.165 62.3004 242.69C62.0599 241.216 61.6208 239.261 61.3907 237.284C61.1398 235.308 60.8888 233.321 60.7006 231.836C60.481 230.352 60.4392 229.358 60.4392 229.358L48.9996 230.446ZM48.4245 205.277C48.4245 205.277 48.32 209.553 48.2049 213.841C48.3095 218.117 48.4141 222.405 48.4141 222.405L59.885 221.85C59.885 221.85 59.7908 217.856 59.6967 213.851C59.8013 209.857 59.8954 205.852 59.8954 205.852L48.4245 205.277ZM51.5406 180.296C51.5406 180.296 51.3524 181.352 51.07 182.931C50.8086 184.51 50.3695 186.612 50.0767 188.734C49.8048 190.857 49.5329 192.98 49.3342 194.569C49.2297 195.364 49.146 196.033 49.0833 196.493C49.0519 196.964 49.031 197.225 49.031 197.225L60.4601 198.344C60.4601 198.344 60.481 198.093 60.5123 197.664C60.5646 197.236 60.6483 196.608 60.7424 195.866C60.9306 194.381 61.1816 192.405 61.4325 190.418C61.7149 188.441 62.1227 186.486 62.3632 185.012C62.6246 183.537 62.8023 182.554 62.8023 182.554L51.5406 180.296ZM58.2851 156.057C58.2851 156.057 57.94 157.072 57.4277 158.588C56.9362 160.115 56.1729 162.122 55.5978 164.172C55.0122 166.232 54.4266 168.292 53.9874 169.829C53.5273 171.366 53.3182 172.412 53.3182 172.412L64.4649 175.193C64.4649 175.193 64.6532 174.21 65.0923 172.778C65.5001 171.335 66.0439 169.421 66.5876 167.497C67.1314 165.573 67.8424 163.712 68.3025 162.29C68.7835 160.867 69.0972 159.926 69.0972 159.926L58.2851 156.057ZM68.5326 133.084C68.5326 133.084 68.0411 134.036 67.3196 135.468C66.6086 136.911 65.5629 138.783 64.6741 140.728C63.7957 142.673 62.9069 144.628 62.2481 146.092C61.558 147.546 61.2025 148.55 61.2025 148.55L71.8159 152.952C71.8159 152.952 72.1506 152.011 72.7884 150.662C73.4053 149.302 74.2314 147.483 75.047 145.664C75.8731 143.844 76.8456 142.108 77.5148 140.759C78.1945 139.431 78.6441 138.543 78.6441 138.543L68.5326 133.084ZM82.0425 111.847C82.0425 111.847 81.4256 112.715 80.4949 114.032C79.5747 115.35 78.299 117.065 77.107 118.842C75.9568 120.641 74.7961 122.45 73.9282 123.799C73.4995 124.478 73.123 125.033 72.8825 125.43C72.6525 125.838 72.5165 126.068 72.5165 126.068L82.3667 131.976C82.3667 131.976 82.4921 131.756 82.7117 131.38C82.9313 131.003 83.2868 130.491 83.6842 129.853C84.4893 128.588 85.5664 126.915 86.6434 125.231C88.9439 121.969 91.2548 118.706 91.2548 118.706L82.0425 111.847ZM98.5326 92.8263C98.5326 92.8263 98.3339 93.0041 98.0202 93.3492C97.696 93.6838 97.2359 94.1753 96.6817 94.7504C95.5733 95.911 94.099 97.4586 92.6246 99.0166C91.2234 100.637 89.8222 102.258 88.7765 103.471C88.2537 104.078 87.8145 104.58 87.5008 104.935C87.1871 105.28 87.0303 105.5 87.0303 105.5L95.9079 112.788C95.9079 112.788 96.0543 112.579 96.3471 112.255C96.6295 111.92 97.0477 111.45 97.5392 110.885C98.5221 109.756 99.8292 108.239 101.136 106.734C102.517 105.291 103.897 103.837 104.932 102.76C105.444 102.216 105.873 101.767 106.176 101.443C106.469 101.118 106.657 100.951 106.657 100.951L98.5326 92.8263ZM117.616 76.4095C117.616 76.4095 117.396 76.5663 117.02 76.8382C116.654 77.131 116.121 77.5388 115.493 78.0303C114.228 79.0236 112.544 80.3412 110.861 81.6692C107.619 84.4611 104.378 87.253 104.378 87.253L112.095 95.7542C112.095 95.7542 115.117 93.1505 118.149 90.5363C119.718 89.3025 121.286 88.0686 122.468 87.1484C123.053 86.6883 123.545 86.3014 123.89 86.0295C124.245 85.7786 124.454 85.6322 124.454 85.6322L117.616 76.4095ZM138.885 62.9728C138.885 62.9728 137.912 63.4328 136.532 64.2485C135.141 65.0432 133.29 66.1097 131.429 67.1868C129.578 68.2638 127.811 69.4768 126.452 70.3237C125.103 71.1916 124.203 71.7667 124.203 71.7667L130.592 81.3032C130.592 81.3032 131.429 80.7699 132.694 79.9543C133.97 79.17 135.612 78.0303 137.337 77.0264C139.062 76.0331 140.798 75.0397 142.095 74.2868C143.381 73.513 144.28 73.0947 144.28 73.0947L138.885 62.9728ZM161.9 52.7985C161.9 52.7985 161.649 52.8821 161.199 53.0285C160.749 53.1645 160.122 53.405 159.38 53.7082C157.884 54.2938 155.897 55.078 153.911 55.8623C152.907 56.2387 151.934 56.6883 151.025 57.0961C150.115 57.5144 149.258 57.8908 148.526 58.2255C147.062 58.8842 146.089 59.3234 146.089 59.3234L151.014 69.6963C151.014 69.6963 151.924 69.2885 153.283 68.6716C153.963 68.3579 154.758 68.0024 155.615 67.6155C156.462 67.2286 157.372 66.7999 158.302 66.4652C160.153 65.7333 162.015 65.0013 163.405 64.4576C164.095 64.1753 164.681 63.9557 165.099 63.8302C165.518 63.6943 165.748 63.6106 165.748 63.6106L161.9 52.7985ZM186.159 46.1272C186.159 46.1272 185.897 46.169 185.437 46.2527C184.977 46.3258 184.329 46.4827 183.545 46.6605C181.976 47.0264 179.895 47.5074 177.814 47.9884C176.769 48.208 175.744 48.5113 174.772 48.7831C173.81 49.055 172.91 49.3164 172.137 49.536C170.589 49.9752 169.564 50.268 169.564 50.268L172.9 61.2579C172.9 61.2579 173.862 60.986 175.294 60.5782C176.016 60.3691 176.852 60.139 177.752 59.8776C178.651 59.6162 179.603 59.3339 180.585 59.1352C182.53 58.6855 184.475 58.2359 185.929 57.9013C186.661 57.734 187.267 57.5771 187.696 57.5249C188.125 57.4517 188.376 57.4098 188.376 57.4098L186.159 46.1272ZM211.14 43.0948C211.14 43.0948 210.868 43.1052 210.408 43.1157C209.937 43.147 209.278 43.1993 208.473 43.2621C206.873 43.3875 204.74 43.5444 202.607 43.7117C200.474 43.9104 198.362 44.2345 196.762 44.4123C195.172 44.611 194.106 44.7469 194.106 44.7469L195.789 56.1132C195.789 56.1132 196.783 55.9877 198.268 55.7995C199.752 55.6322 201.729 55.3185 203.715 55.1408C205.713 54.9944 207.699 54.8375 209.195 54.7225C209.937 54.6598 210.565 54.6179 211.004 54.5866C211.443 54.5761 211.694 54.5656 211.694 54.5656L211.14 43.0948ZM236.309 43.7221C236.309 43.7221 232.042 43.4085 227.766 43.0948C223.489 42.9902 219.202 42.8856 219.202 42.8856L219.212 54.367C219.212 54.367 223.207 54.4611 227.211 54.5656C231.195 54.8584 235.179 55.1512 235.179 55.1512L236.309 43.7221ZM261.101 48.0303C261.101 48.0303 260.056 47.7898 258.498 47.4342C256.929 47.0996 254.859 46.535 252.757 46.169C250.655 45.7926 248.543 45.4161 246.964 45.1338C245.385 44.8306 244.318 44.7155 244.318 44.7155L242.656 56.0818C242.656 56.0818 243.649 56.176 245.124 56.4687C246.598 56.7302 248.564 57.0857 250.53 57.4307C252.496 57.7758 254.42 58.3091 255.883 58.6124C257.337 58.947 258.309 59.1665 258.309 59.1665L261.101 48.0303ZM284.984 55.9355C284.984 55.9355 283.991 55.5486 282.496 54.9525C281.753 54.6598 280.875 54.3147 279.944 53.9487C279.013 53.5723 278.02 53.1749 276.995 52.8508C274.967 52.1606 272.938 51.4809 271.422 50.9686C270.659 50.7072 270.031 50.498 269.571 50.383C269.122 50.2575 268.86 50.1843 268.86 50.1843L265.545 61.1847C265.545 61.1847 265.786 61.2474 266.204 61.3729C266.633 61.4775 267.218 61.6761 267.929 61.9271C269.352 62.4081 271.234 63.0459 273.126 63.6838C274.078 63.9766 275.009 64.353 275.876 64.7085C276.744 65.0536 277.56 65.3778 278.25 65.6496C279.641 66.1934 280.572 66.5594 280.572 66.5594L284.984 55.9355ZM307.445 67.2809C307.445 67.2809 306.514 66.7476 305.124 65.9529C303.722 65.1686 301.903 64.0393 300 63.0669C298.097 62.0944 296.194 61.1115 294.761 60.3795C294.05 60.0135 293.454 59.6998 293.025 59.5221C292.597 59.3339 292.356 59.2188 292.356 59.2188L287.452 69.6022C287.452 69.6022 287.682 69.7068 288.079 69.8846C288.487 70.0519 289.031 70.3447 289.7 70.6897C291.028 71.3694 292.806 72.2791 294.583 73.1888C296.361 74.0986 298.055 75.1651 299.362 75.8867C300.659 76.6291 301.527 77.131 301.527 77.131L307.445 67.2809ZM328.003 81.7946C328.003 81.7946 327.156 81.1359 325.901 80.1425C324.625 79.1596 322.973 77.8002 321.258 76.5245C319.512 75.2802 317.766 74.0463 316.459 73.1156C315.8 72.6556 315.266 72.2582 314.869 71.9968C314.472 71.7458 314.252 71.5994 314.252 71.5994L307.874 81.1568C307.874 81.1568 308.083 81.2927 308.449 81.5228C308.815 81.7633 309.317 82.1397 309.923 82.5684C311.147 83.4363 312.767 84.597 314.399 85.7472C315.998 86.9393 317.546 88.2045 318.728 89.1247C319.909 90.0449 320.693 90.6618 320.693 90.6618L328.003 81.7946ZM346.228 99.163C346.228 99.163 346.061 98.9539 345.727 98.6193C345.402 98.2847 344.942 97.7932 344.388 97.2181C343.28 96.0574 341.805 94.5099 340.321 92.9623C338.773 91.4879 337.225 90.0135 336.054 88.9051C335.469 88.3509 334.988 87.8908 334.653 87.5667C334.318 87.2425 334.109 87.0752 334.109 87.0752L326.403 95.5974C326.403 95.5974 326.601 95.7542 326.915 96.0574C327.229 96.3607 327.678 96.7894 328.222 97.3122C329.31 98.3474 330.753 99.7277 332.206 101.098C333.586 102.541 334.967 103.994 335.991 105.071C336.514 105.615 336.943 106.064 337.246 106.378C337.55 106.692 337.706 106.88 337.706 106.88L346.228 99.163ZM361.704 119.01C361.704 119.01 361.558 118.78 361.307 118.393C361.035 118.006 360.648 117.462 360.188 116.814C359.257 115.507 358.013 113.76 356.779 112.014C354.144 108.637 351.509 105.27 351.509 105.27L342.642 112.579C342.642 112.579 345.099 115.726 347.556 118.874C348.717 120.505 349.867 122.126 350.735 123.349C351.174 123.956 351.53 124.468 351.781 124.824C352.011 125.19 352.147 125.399 352.147 125.399L361.704 119.01ZM374.116 140.906C374.116 140.906 373.698 139.923 372.945 138.501C372.213 137.068 371.241 135.165 370.258 133.262C369.264 131.369 368.146 129.539 367.361 128.138C366.567 126.748 366.033 125.817 366.033 125.817L356.194 131.746C356.194 131.746 356.685 132.614 357.438 133.91C358.17 135.217 359.216 136.922 360.136 138.689C361.046 140.467 361.955 142.244 362.635 143.572C363.346 144.89 363.722 145.82 363.722 145.82L374.116 140.906ZM383.161 164.381C383.161 164.381 383.088 164.119 382.963 163.67C382.848 163.22 382.628 162.582 382.366 161.829C381.854 160.313 381.164 158.285 380.484 156.256C379.805 154.227 378.937 152.262 378.372 150.766C377.787 149.271 377.389 148.278 377.389 148.278L366.786 152.69C366.786 152.69 367.152 153.621 367.696 155.012C368.219 156.413 369.034 158.243 369.662 160.135C370.3 162.028 370.937 163.91 371.418 165.332C371.659 166.043 371.868 166.629 371.973 167.047C372.088 167.466 372.161 167.706 372.161 167.706L383.161 164.381ZM388.661 188.933C388.661 188.933 388.546 187.866 388.243 186.287C387.961 184.708 387.584 182.596 387.208 180.494C386.821 178.393 386.267 176.322 385.932 174.754C385.577 173.185 385.336 172.15 385.336 172.15L374.2 174.952C374.2 174.952 374.419 175.925 374.754 177.378C375.068 178.842 375.591 180.766 375.946 182.732C376.302 184.698 376.647 186.664 376.908 188.138C377.201 189.602 377.306 190.606 377.306 190.606L388.661 188.933ZM390.512 214.039C390.512 214.039 390.408 209.763 390.293 205.475C389.979 201.209 389.655 196.932 389.655 196.932L378.226 198.062C378.226 198.062 378.518 202.046 378.822 206.03C378.926 210.024 379.02 214.029 379.02 214.029H390.512V214.039ZM406.344 242.303L407.253 235.13L395.835 233.865L394.977 240.599L406.344 242.303ZM402.14 262.579C402.14 262.579 402.265 262.14 402.443 261.491C402.61 260.833 402.809 259.954 403.018 259.076C403.426 257.309 403.834 255.552 403.834 255.552L392.624 253.042C392.624 253.042 392.238 254.695 391.861 256.357C391.662 257.183 391.485 258.009 391.328 258.626C391.15 259.243 391.035 259.651 391.035 259.651L402.14 262.579ZM395.72 282.258C395.72 282.258 396.378 280.575 397.037 278.891C397.623 277.176 398.198 275.461 398.198 275.461L387.333 271.728C387.333 271.728 386.79 273.339 386.246 274.949C385.629 276.528 385.012 278.107 385.012 278.107L395.72 282.258ZM387.197 301.132C387.197 301.132 388.024 299.522 388.85 297.912C389.257 297.106 389.686 296.312 389.968 295.695C390.251 295.078 390.439 294.67 390.439 294.67L380.056 289.766C380.056 289.766 379.878 290.153 379.616 290.738C379.355 291.324 378.947 292.066 378.571 292.819C377.797 294.335 377.023 295.841 377.023 295.841L387.197 301.132ZM376.678 318.961L380.578 312.875L370.791 306.863L367.121 312.582L376.678 318.961ZM364.256 335.503C364.256 335.503 365.458 334.144 366.546 332.711C367.664 331.289 368.783 329.867 368.783 329.867L359.707 322.819C359.707 322.819 358.661 324.158 357.605 325.486C356.581 326.845 355.451 328.11 355.451 328.11L364.256 335.503ZM350.097 350.592C350.097 350.592 351.405 349.348 352.712 348.093C353.37 347.476 353.966 346.796 354.447 346.315C354.918 345.824 355.232 345.5 355.232 345.5L346.981 337.511C346.981 337.511 346.689 337.814 346.249 338.274C345.8 338.724 345.235 339.362 344.618 339.947C343.384 341.118 342.161 342.289 342.161 342.289L350.097 350.592ZM334.402 364.081C334.402 364.081 335.824 362.962 337.246 361.843C337.957 361.289 338.668 360.724 339.202 360.306C339.745 359.898 340.07 359.585 340.07 359.585L332.729 350.749C332.729 350.749 332.415 351.042 331.913 351.429C331.411 351.826 330.742 352.349 330.073 352.872C328.735 353.917 327.407 354.973 327.407 354.973L334.402 364.081ZM317.337 375.803L323.433 371.903L317.107 362.314L311.387 365.974L317.337 375.803ZM299.059 385.517C299.059 385.517 299.467 385.329 300.083 385.047C300.7 384.775 301.527 384.398 302.321 383.969C303.932 383.143 305.542 382.317 305.542 382.317L300.303 372.101C300.303 372.101 298.787 372.875 297.281 373.649C296.528 374.046 295.754 374.402 295.179 374.653C294.594 374.914 294.217 375.092 294.217 375.092L299.059 385.517ZM279.829 393.203C279.829 393.203 281.544 392.617 283.259 392.042C284.116 391.77 284.963 391.435 285.591 391.185C286.218 390.934 286.647 390.766 286.647 390.766L282.558 380.038C282.558 380.038 282.161 380.195 281.575 380.425C280.99 380.665 280.195 380.968 279.379 381.23C277.769 381.774 276.159 382.317 276.159 382.317L279.829 393.203ZM259.878 398.745C259.878 398.745 261.645 398.337 263.402 397.929C264.28 397.72 265.169 397.521 265.828 397.364C266.486 397.218 266.926 397.092 266.926 397.092L264.04 385.977C264.04 385.977 263.632 386.092 263.004 386.228C262.387 386.374 261.561 386.563 260.725 386.751C259.073 387.138 257.41 387.514 257.41 387.514L259.878 398.745ZM239.446 402.07L246.619 401.16L244.977 389.794L238.243 390.651L239.446 402.07ZM218.794 403.126C218.794 403.126 219.244 403.157 219.923 403.126C220.603 403.105 221.502 403.084 222.401 403.063C224.21 403.021 226.009 402.969 226.009 402.969L225.612 391.488C225.612 391.488 223.918 391.53 222.213 391.571C221.366 391.592 220.519 391.613 219.881 391.634C219.244 391.665 218.825 391.634 218.825 391.634L218.794 403.126ZM198.142 401.923C198.142 401.923 198.592 401.976 199.261 402.07C199.93 402.174 200.829 402.227 201.739 402.3C203.538 402.436 205.347 402.572 205.347 402.572L206.183 391.122C206.183 391.122 204.489 390.996 202.795 390.86C201.948 390.798 201.101 390.745 200.474 390.651C199.847 390.568 199.418 390.515 199.418 390.515L198.142 401.923ZM177.72 398.483C177.72 398.483 179.488 398.891 181.244 399.288C183.022 399.613 184.799 399.926 184.799 399.926L186.891 388.633C186.891 388.633 185.218 388.33 183.545 388.037C181.893 387.65 180.24 387.274 180.24 387.274L177.72 398.483ZM157.801 392.837C157.801 392.837 159.515 393.412 161.23 393.997C162.935 394.604 164.681 395.085 164.681 395.085L167.996 384.084C167.996 384.084 166.354 383.645 164.754 383.07C163.144 382.526 161.534 381.983 161.534 381.983L157.801 392.837ZM138.613 385.057L145.2 388.037L149.707 377.476L143.517 374.674L138.613 385.057ZM120.408 375.196C120.408 375.196 120.784 375.437 121.359 375.803C121.945 376.137 122.729 376.598 123.513 377.047C125.082 377.946 126.65 378.846 126.65 378.846L132.286 368.839C132.286 368.839 130.812 367.992 129.338 367.145C128.606 366.727 127.863 366.298 127.309 365.984C126.776 365.639 126.41 365.419 126.41 365.419L120.408 375.196ZM103.416 363.38C103.416 363.38 104.838 364.499 106.26 365.608C107.734 366.653 109.209 367.709 109.209 367.709L115.911 358.382C115.911 358.382 114.531 357.399 113.14 356.416C111.802 355.371 110.464 354.325 110.464 354.325L103.416 363.38ZM87.7936 349.818C87.7936 349.818 89.1007 351.063 90.4078 352.317C91.0666 352.945 91.7148 353.562 92.2063 354.032C92.7187 354.482 93.0637 354.775 93.0637 354.775L100.739 346.232C100.739 346.232 100.415 345.949 99.9337 345.541C99.4736 345.102 98.8567 344.517 98.2398 343.931C97.0059 342.76 95.7825 341.589 95.7825 341.589L87.7936 349.818ZM73.719 334.656L78.4559 340.125L87.0094 332.46L82.5653 327.326L73.719 334.656ZM61.4221 318.009C61.4221 318.009 61.6626 318.386 62.0286 318.961C62.3841 319.536 62.9069 320.278 63.4297 321.01C64.4754 322.485 65.5211 323.959 65.5211 323.959L74.8588 317.277C74.8588 317.277 73.8759 315.897 72.893 314.506C72.3911 313.816 71.91 313.126 71.5754 312.582C71.2304 312.049 71.0003 311.693 71.0003 311.693L61.4221 318.009ZM50.9969 300.118C50.9969 300.118 51.8229 301.728 52.649 303.339C53.0463 304.154 53.5169 304.928 53.8515 305.514C54.1861 306.099 54.4162 306.497 54.4162 306.497L64.4336 300.871C64.4336 300.871 64.2245 300.505 63.9003 299.951C63.5866 299.396 63.1474 298.675 62.771 297.901C61.9972 296.385 61.2234 294.879 61.2234 294.879L50.9969 300.118ZM42.5793 281.212C42.5793 281.212 43.2381 282.896 43.9073 284.579C44.2419 285.416 44.5765 286.263 44.817 286.89C45.0575 287.528 45.2457 287.936 45.2457 287.936L55.8173 283.44C55.8173 283.44 55.6396 283.053 55.4095 282.457C55.1795 281.861 54.8658 281.077 54.5521 280.282C53.9247 278.703 53.3078 277.124 53.3078 277.124L42.5793 281.212ZM36.2635 261.481L38.2398 268.445L49.2401 265.141L47.3893 258.605L36.2635 261.481ZM32.2168 241.174C32.2168 241.174 32.4155 242.973 32.771 244.75C33.0847 246.528 33.4089 248.316 33.4089 248.316L44.702 246.246C44.702 246.246 44.3987 244.573 44.1059 242.899C43.7713 241.237 43.5831 239.543 43.5831 239.543L32.2168 241.174ZM30.4078 220.564C30.4078 220.564 30.4392 222.373 30.5228 224.172C30.6588 225.97 30.7947 227.779 30.7947 227.779L42.2551 226.953C42.2551 226.953 42.1296 225.259 41.9937 223.565C41.9101 221.871 41.8891 220.167 41.8891 220.167L30.4078 220.564ZM30.8261 199.891C30.8261 199.891 30.6901 201.69 30.5542 203.499C30.4705 204.398 30.4705 205.308 30.4496 205.977C30.4287 206.657 30.4182 207.107 30.4182 207.107L41.8996 207.525C41.8996 207.525 41.9101 207.096 41.931 206.469C41.9519 205.831 41.9414 204.984 42.0251 204.137C42.1506 202.443 42.2865 200.749 42.2865 200.749L30.8261 199.891ZM33.4716 179.365C33.4716 179.365 33.1579 181.143 32.8337 182.931C32.6769 183.82 32.5201 184.708 32.405 185.378C32.3214 186.047 32.2586 186.497 32.2586 186.497L43.6249 188.159C43.6249 188.159 43.6772 187.741 43.7609 187.103C43.8759 186.476 44.0223 185.639 44.1687 184.803C44.4719 183.13 44.7647 181.456 44.7647 181.456L33.4716 179.365ZM38.3444 159.236L36.3681 166.2L47.4834 169.097L49.3342 162.561L38.3444 159.236ZM45.413 139.776C45.413 139.776 45.2143 140.184 44.9634 140.812C44.7124 141.439 44.3778 142.286 44.0537 143.123C43.3949 144.806 42.7257 146.49 42.7257 146.49L53.4541 150.599C53.4541 150.599 54.0815 149.02 54.6985 147.441C55.0122 146.646 55.3259 145.862 55.5559 145.266C55.786 144.67 55.9742 144.294 55.9742 144.294L45.413 139.776ZM54.6044 121.226C54.6044 121.226 54.3743 121.613 54.0397 122.209C53.7155 122.805 53.2346 123.569 52.8268 124.374C52.0007 125.984 51.1746 127.595 51.1746 127.595L61.3907 132.854C61.3907 132.854 62.1645 131.338 62.9383 129.832C63.3147 129.069 63.7748 128.358 64.078 127.793C64.3917 127.239 64.6113 126.873 64.6113 126.873L54.6044 121.226ZM65.7511 103.785C65.7511 103.785 64.7054 105.259 63.6598 106.734C62.5828 108.187 61.6312 109.724 61.6312 109.724L71.2095 116.071C71.2095 116.071 72.0983 114.628 73.1126 113.259C74.0955 111.878 75.0784 110.488 75.0784 110.488L65.7511 103.785ZM78.7068 87.6503L73.97 93.1191L82.7953 100.47L87.2394 95.3359L78.7068 87.6503ZM93.367 73.0529C93.367 73.0529 91.9867 74.2241 90.7006 75.4893C89.3935 76.7336 88.0864 77.978 88.0864 77.978L96.0648 86.2387C96.0648 86.2387 97.2987 85.0676 98.5221 83.8964C99.7351 82.7044 101.032 81.6064 101.032 81.6064L93.367 73.0529ZM109.533 60.1286C109.533 60.1286 108.059 61.1742 106.584 62.2303C105.852 62.7532 105.152 63.3387 104.618 63.7465C104.085 64.1648 103.729 64.4471 103.729 64.4471L110.756 73.5339C110.756 73.5339 111.091 73.2725 111.593 72.8752C112.095 72.4883 112.754 71.9445 113.444 71.4531C114.824 70.4701 116.215 69.4872 116.215 69.4872L109.533 60.1286ZM126.995 49.0236C126.995 49.0236 125.427 49.9229 123.858 50.8222C123.074 51.2718 122.29 51.7214 121.704 52.0665C121.108 52.4011 120.742 52.6521 120.742 52.6521L126.744 62.4499C126.744 62.4499 127.09 62.199 127.654 61.8957C128.208 61.582 128.94 61.1533 129.683 60.735C131.157 59.8881 132.632 59.0411 132.632 59.0411L126.995 49.0236ZM145.566 39.8741L138.968 42.8543L143.851 53.2481L150.042 50.4457L145.566 39.8741ZM165.068 32.8787C165.068 32.8787 164.629 33.0041 163.98 33.1923C163.322 33.3597 162.464 33.6524 161.607 33.9452C159.892 34.5203 158.177 35.1059 158.177 35.1059L161.889 45.9703C161.889 45.9703 163.499 45.4266 165.11 44.8828C165.915 44.611 166.72 44.3286 167.337 44.1718C167.954 43.994 168.362 43.879 168.362 43.879L165.068 32.8787ZM185.207 28.0686C185.207 28.0686 183.43 28.3928 181.652 28.7065C179.885 29.0725 178.118 29.5012 178.118 29.5012L180.617 40.7106C180.617 40.7106 182.269 40.3133 183.932 39.9682C185.605 39.665 187.278 39.3722 187.278 39.3722L185.207 28.0686ZM205.734 25.4649C205.734 25.4649 203.935 25.6009 202.126 25.7368C201.227 25.81 200.328 25.8623 199.648 25.9459C198.979 26.0296 198.529 26.0819 198.529 26.0819L199.784 37.5005C199.784 37.5005 200.202 37.4482 200.84 37.3645C201.467 37.2809 202.325 37.2391 203.161 37.1659C204.855 37.0404 206.549 36.9044 206.549 36.9044L205.734 25.4649ZM226.406 25.1094L219.181 24.9421L219.191 36.4234L225.978 36.5907L226.406 25.1094ZM247.016 26.9707L239.843 26.0609L238.609 37.4796L245.343 38.337L247.016 26.9707ZM267.313 31.0801C267.313 31.0801 266.884 30.9442 266.215 30.7873C265.556 30.6305 264.677 30.4318 263.789 30.2227C262.022 29.8149 260.265 29.4071 260.265 29.4071L257.787 40.627C257.787 40.627 259.439 41.0139 261.101 41.3903C261.927 41.5785 262.753 41.7772 263.381 41.9132C263.998 42.0491 264.406 42.185 264.406 42.185L267.313 31.0801ZM287.013 37.4482C287.013 37.4482 286.595 37.2809 285.957 37.0299C285.319 36.7894 284.493 36.4234 283.625 36.1516C281.91 35.566 280.195 34.9909 280.195 34.9909L276.504 45.8658C276.504 45.8658 278.114 46.4095 279.725 46.9532C280.54 47.2042 281.314 47.5493 281.91 47.7793C282.506 48.0094 282.893 48.1662 282.893 48.1662L287.013 37.4482ZM305.908 45.918C305.908 45.918 304.298 45.092 302.687 44.2659C301.882 43.8476 301.077 43.4398 300.45 43.1784C299.833 42.8961 299.425 42.7079 299.425 42.7079L294.552 53.1122C294.552 53.1122 294.939 53.2899 295.514 53.5514C296.1 53.8023 296.863 54.1788 297.616 54.5761C299.132 55.3499 300.638 56.1237 300.638 56.1237L305.908 45.918ZM323.768 56.3851L317.682 52.4848L311.701 62.2931L317.421 65.9633L323.768 56.3851ZM340.373 68.7448C340.373 68.7448 340.028 68.452 339.515 68.0128C338.982 67.5946 338.271 67.0299 337.56 66.4757C336.138 65.3569 334.716 64.238 334.716 64.238L327.699 73.3352C327.699 73.3352 329.038 74.3809 330.366 75.437C331.035 75.9598 331.704 76.4827 332.206 76.88C332.687 77.2983 333.011 77.5702 333.011 77.5702L340.373 68.7448ZM355.493 82.8612C355.493 82.8612 354.238 81.5541 352.994 80.247C351.687 79.0027 350.38 77.7479 350.38 77.7479L342.422 86.0295C342.422 86.0295 343.656 87.2007 344.88 88.3718C346.051 89.5953 347.222 90.8291 347.222 90.8291L355.493 82.8612ZM369.024 98.5147C369.024 98.5147 367.905 97.0926 366.786 95.6705C366.222 94.9595 365.667 94.2484 365.249 93.7152C364.81 93.2028 364.507 92.8577 364.507 92.8577L355.692 100.219C355.692 100.219 355.974 100.543 356.382 101.024C356.779 101.526 357.302 102.195 357.825 102.854C358.871 104.193 359.927 105.521 359.927 105.521L369.024 98.5147ZM380.798 115.538L376.898 109.452L367.33 115.81L371 121.53L380.798 115.538ZM390.585 133.774C390.585 133.774 389.874 132.112 389.017 130.512C388.191 128.902 387.365 127.291 387.365 127.291L377.159 132.572C377.159 132.572 377.933 134.088 378.707 135.594C379.512 137.089 380.181 138.658 380.181 138.658L390.585 133.774ZM398.323 152.983C398.323 152.983 397.738 151.268 397.163 149.553C396.88 148.696 396.514 147.87 396.274 147.232C396.023 146.605 395.856 146.176 395.856 146.176L385.138 150.296C385.138 150.296 385.294 150.693 385.524 151.279C385.744 151.875 386.089 152.649 386.361 153.464C386.905 155.074 387.448 156.685 387.448 156.685L398.323 152.983ZM403.918 172.913C403.918 172.913 403.51 171.146 403.102 169.39C402.893 168.511 402.694 167.622 402.537 166.964C402.36 166.305 402.234 165.876 402.234 165.876L391.129 168.794C391.129 168.794 391.255 169.201 391.411 169.818C391.558 170.435 391.746 171.261 391.934 172.098C392.321 173.75 392.698 175.413 392.698 175.413L403.918 172.913ZM407.306 193.335L406.396 186.162L395.029 187.845L395.887 194.58L407.306 193.335ZM408.456 213.997L408.278 206.772L396.797 207.211L396.964 213.997H408.456Z" fill="url(#paint0_linear_122_14390)"/>
<defs>
<linearGradient id="paint0_linear_122_14390" x1="-0.00334611" y1="214.034" x2="440.264" y2="214.034" gradientUnits="userSpaceOnUse">
<stop stop-color="#1CA7FB"/>
<stop offset="0.995" stop-color="#17FCD7"/>
</linearGradient>
</defs>
</svg>
