<svg width="733" height="379" viewBox="0 0 733 379" fill="none" xmlns="http://www.w3.org/2000/svg">
<g clip-path="url(#clip0_280_2)">
<path d="M296.49 353.338L275.907 340.89L284.966 335.431L260.425 320.246" stroke="#17FCD7" stroke-width="0.2845" stroke-miterlimit="10"/>
<path d="M297.308 352.521L276.725 340.073L285.783 334.614L261.255 319.43" stroke="#17FCD7" stroke-width="0.2845" stroke-miterlimit="10"/>
<path d="M102.148 269.442L76.3612 254.115L86.6136 249.447L66.0828 236.337" stroke="#17FCD7" stroke-width="0.2845" stroke-miterlimit="10"/>
<path d="M104.108 269.442L78.3338 254.115L88.5733 249.447L68.0425 236.337" stroke="#17FCD7" stroke-width="0.2845" stroke-miterlimit="10"/>
<path d="M245.864 269.442L271.638 254.115L261.398 249.447L281.929 236.337" stroke="#17FCD7" stroke-width="0.2845" stroke-miterlimit="10"/>
<path d="M243.891 269.442L269.678 254.115L259.425 249.447L279.956 236.337" stroke="#17FCD7" stroke-width="0.2845" stroke-miterlimit="10"/>
<path opacity="0.2" d="M327.52 365.826L306.236 378.65C305.458 379.117 304.471 379.117 303.693 378.637L282.305 365.579C281.786 365.255 281.786 364.503 282.305 364.179L304.03 351.095C304.705 350.693 305.549 350.693 306.223 351.095L327.52 364.088C328.169 364.503 328.169 365.437 327.52 365.826Z" fill="url(#paint0_linear_280_2)"/>
<path d="M328 358.823C327.974 358.512 327.831 358.214 327.52 358.032L306.223 345.039C305.548 344.624 304.705 344.624 304.03 345.026L282.305 358.11C282.033 358.266 281.903 358.551 281.916 358.823V362.376H281.929C281.968 362.597 282.085 362.791 282.305 362.921L303.693 375.979C304.471 376.459 305.458 376.458 306.236 375.992L327.52 363.167C327.87 362.96 328.026 362.597 328 362.234H328.013L328 358.823Z" fill="#EDEDED"/>
<path d="M327.52 359.757L306.237 372.581C305.458 373.048 304.472 373.048 303.693 372.568L282.306 359.511C281.787 359.186 281.787 358.434 282.306 358.11L304.031 345.026C304.705 344.624 305.549 344.624 306.224 345.039L327.52 358.032C328.169 358.421 328.169 359.355 327.52 359.757Z" fill="white"/>
<path d="M32.4443 347.918L53.04 335.47L43.9686 329.998L74.7259 311.014" stroke="#17FCD7" stroke-width="0.2845" stroke-miterlimit="10"/>
<path d="M31.6267 347.101L52.2224 334.653L43.151 329.181L73.9083 310.197" stroke="#17FCD7" stroke-width="0.2845" stroke-miterlimit="10"/>
<path opacity="0.2" d="M0.493204 359.07L21.7767 371.894C22.5554 372.361 23.5417 372.361 24.3204 371.881L45.7077 358.823C46.2268 358.499 46.2268 357.747 45.7077 357.423L23.983 344.339C23.3081 343.937 22.4646 343.937 21.7897 344.339L0.480226 357.345C-0.168662 357.747 -0.155685 358.681 0.493204 359.07Z" fill="url(#paint1_linear_280_2)"/>
<path d="M0.0129778 352.068C0.0389333 351.756 0.181689 351.458 0.493155 351.276L21.7897 338.284C22.4645 337.869 23.3081 337.869 23.9829 338.271L45.7077 351.354C45.9802 351.51 46.11 351.795 46.097 352.068V355.62H46.084C46.0451 355.841 45.9283 356.035 45.7077 356.165L24.3203 369.223C23.5417 369.703 22.5554 369.703 21.7767 369.236L0.493155 356.411C0.142755 356.204 -0.0129778 355.841 0.0129778 355.478H0L0.0129778 352.068Z" fill="#EDEDED"/>
<path d="M0.493204 353.001L21.7767 365.825C22.5554 366.292 23.5417 366.292 24.3204 365.813L45.7077 352.755C46.2268 352.431 46.2268 351.678 45.7077 351.354L23.983 338.271C23.3081 337.869 22.4646 337.869 21.7897 338.284L0.480226 351.276C-0.168662 351.666 -0.155685 352.599 0.493204 353.001Z" fill="white"/>
<path d="M265.59 283.096C248.771 269.883 213.341 260.78 172.345 260.78C132.944 260.78 98.6829 269.182 81.1369 281.566L68.6653 281.462V300.446C68.6653 322.347 115.087 340.112 172.345 340.112C229.603 340.112 276.024 322.36 276.024 300.446V283.187L265.59 283.096Z" fill="#1CA7FB"/>
<path opacity="0.2" d="M168.088 345.26C225.349 345.26 271.767 327.501 271.767 305.594C271.767 283.687 225.349 265.928 168.088 265.928C110.828 265.928 64.4087 283.687 64.4087 305.594C64.4087 327.501 110.828 345.26 168.088 345.26Z" fill="url(#paint2_linear_280_2)"/>
<path d="M265.59 283.096C248.771 269.883 213.341 260.78 172.345 260.78C132.944 260.78 98.6829 269.182 81.1369 281.566L68.6653 281.462V300.446C68.6653 322.347 115.087 340.112 172.345 340.112C229.603 340.112 276.024 322.36 276.024 300.446V283.187L265.59 283.096Z" fill="#1CA7FB"/>
<path d="M265.59 283.096C248.771 269.883 213.341 260.78 172.345 260.78C132.944 260.78 98.6829 269.182 81.1369 281.566L68.6653 281.462V300.446C68.6653 322.347 115.087 340.112 172.345 340.112C229.603 340.112 276.024 322.36 276.024 300.446V283.187L265.59 283.096Z" fill="#1CA7FB"/>
<path d="M172.345 321.128C229.605 321.128 276.024 303.369 276.024 281.462C276.024 259.555 229.605 241.796 172.345 241.796C115.084 241.796 68.6653 259.555 68.6653 281.462C68.6653 303.369 115.084 321.128 172.345 321.128Z" fill="#1CA7FB"/>
<path d="M172.345 241.809C115.074 241.809 68.6653 259.561 68.6653 281.462C68.6653 303.376 115.074 321.128 172.345 321.128C229.603 321.128 276.024 303.376 276.024 281.462C276.024 259.561 229.59 241.809 172.345 241.809ZM172.345 320.039C116.644 320.039 71.5074 302.767 71.5074 281.462C71.5074 260.17 116.644 242.898 172.345 242.898C228.032 242.898 273.182 260.17 273.182 281.462C273.182 302.767 228.032 320.039 172.345 320.039Z" fill="#17FCD7"/>
<path opacity="0.2" d="M172.345 312.09C216.561 312.09 252.405 298.377 252.405 281.462C252.405 264.547 216.561 250.834 172.345 250.834C128.129 250.834 92.2849 264.547 92.2849 281.462C92.2849 298.377 128.129 312.09 172.345 312.09Z" fill="url(#paint3_linear_280_2)"/>
<path opacity="0.2" d="M172.345 303.584C204.276 303.584 230.161 293.68 230.161 281.462C230.161 269.245 204.276 259.34 172.345 259.34C140.414 259.34 114.529 269.245 114.529 281.462C114.529 293.68 140.414 303.584 172.345 303.584Z" fill="url(#paint4_linear_280_2)"/>
<path opacity="0.2" d="M172.345 295.674C192.858 295.674 209.487 289.311 209.487 281.462C209.487 273.613 192.858 267.25 172.345 267.25C151.832 267.25 135.202 273.613 135.202 281.462C135.202 289.311 151.832 295.674 172.345 295.674Z" fill="url(#paint5_linear_280_2)"/>
<path opacity="0.2" d="M193.226 281.462C193.226 285.871 183.869 289.45 172.332 289.45C160.794 289.45 151.438 285.871 151.438 281.462C151.438 277.053 160.794 273.474 172.332 273.474C183.869 273.474 193.226 277.053 193.226 281.462Z" fill="url(#paint6_linear_280_2)"/>
<path d="M136.228 164.707C136.163 165.667 136.111 166.211 136.111 166.211L134.281 215.836C132.879 215.149 131.556 214.643 130.271 214.306C126.403 213.294 123.068 213.826 120.187 215.421C119.551 215.771 118.941 216.173 118.344 216.627C117.358 217.379 116.437 218.248 115.567 219.233C110.22 225.289 107.067 235.364 105.47 243.923C105.341 244.636 104.912 244.96 104.51 244.921C104.056 244.882 103.615 244.415 103.615 243.585V190.693C103.615 176.261 107.677 162.412 114.905 152.194C119.344 145.918 125.041 139.59 132.14 136.322C133.918 135.505 135.709 134.416 136.734 136.517C137.564 138.19 137.551 140.433 137.616 142.248C137.889 149.769 136.76 157.225 136.228 164.707Z" fill="url(#paint7_linear_280_2)"/>
<path d="M205.905 164.707C205.97 165.667 206.022 166.211 206.022 166.211L207.852 215.836C209.254 215.149 210.577 214.643 211.862 214.306C215.729 213.294 219.065 213.826 221.946 215.421C222.582 215.771 223.192 216.173 223.789 216.627C224.775 217.379 225.696 218.248 226.566 219.233C231.913 225.289 235.066 235.364 236.663 243.923C236.792 244.636 237.221 244.96 237.623 244.921C238.077 244.882 238.518 244.415 238.518 243.585V190.693C238.518 176.261 234.456 162.412 227.228 152.194C222.789 145.918 217.092 139.59 209.993 136.322C208.215 135.505 206.424 134.416 205.399 136.517C204.569 138.19 204.582 140.433 204.517 142.248C204.244 149.769 205.373 157.225 205.905 164.707Z" fill="url(#paint8_linear_280_2)"/>
<path opacity="0.5" d="M171.216 184.184L134.787 209.884L134.566 299.875L208.631 300.057L208.695 209.884L171.216 184.184Z" fill="url(#paint9_linear_280_2)"/>
<path opacity="0.5" d="M172.397 196.009L145.935 215.901L145.779 285.547L199.598 285.676L199.637 215.901L172.397 196.009Z" fill="url(#paint10_linear_280_2)"/>
<path opacity="0.5" d="M172.501 185.493L154.721 205.372L154.604 275.03L190.773 275.16L190.799 205.372L172.501 185.493Z" fill="url(#paint11_linear_280_2)"/>
<path opacity="0.5" d="M129.453 185.493L120.992 215.058L120.94 275.03L138.135 275.16L138.148 205.372L129.453 185.493Z" fill="url(#paint12_linear_280_2)"/>
<path opacity="0.5" d="M129.492 198.188L124.613 220.336L124.587 265.227L134.502 265.331L134.515 213.074L129.492 198.188Z" fill="url(#paint13_linear_280_2)"/>
<path opacity="0.5" d="M212.783 185.493L204.335 215.058L204.283 275.03L221.478 275.16L221.491 215.68L217.858 205.462L212.783 185.493Z" fill="url(#paint14_linear_280_2)"/>
<path opacity="0.5" d="M212.835 198.188L207.956 220.336L207.917 265.227L217.845 265.331L217.858 213.074L212.835 198.188Z" fill="url(#paint15_linear_280_2)"/>
<path d="M172.786 26.9195H170.489L171.631 0L172.786 26.9195Z" fill="url(#paint16_linear_280_2)"/>
<path d="M172.786 26.9195H171.864L171.631 0L172.786 26.9195Z" fill="url(#paint17_linear_280_2)"/>
<path d="M192.032 260.935C190.916 275.432 172.734 315.254 172.734 315.254C172.734 315.254 154.864 275.419 153.436 260.935C151.905 245.349 155.253 228.051 172.734 228.051C190.215 228.064 193.382 243.313 192.032 260.935Z" fill="url(#paint18_linear_280_2)"/>
<path d="M167.673 226.728C167.673 226.728 157.654 233.705 158.108 252.183C158.445 266.044 162.066 279.141 167.218 283.822C167.763 284.315 163.818 275.834 168.36 267.989C167.75 280.036 173.279 296.621 173.279 296.621C173.279 296.621 177.549 280.93 177.458 273.28C179.106 277.04 179.327 280.049 178.652 283.705C185.738 277.922 188.813 254.932 187.438 245.362C186.075 235.87 181.299 228.414 177.899 226.145C174.473 223.863 167.673 226.728 167.673 226.728Z" fill="url(#paint19_linear_280_2)"/>
<path d="M139.9 231.759C139.29 242.885 129.44 273.41 129.44 273.41C129.44 273.41 119.759 242.859 118.98 231.759C118.15 219.804 119.967 206.539 129.44 206.539C138.914 206.552 140.64 218.248 139.9 231.759Z" fill="url(#paint20_linear_280_2)"/>
<path d="M126.702 205.527C126.702 205.527 121.277 210.87 121.524 225.043C121.705 235.663 123.665 245.712 126.455 249.304C126.754 249.68 124.612 243.17 127.065 237.167C126.741 246.412 129.726 259.12 129.726 259.12C129.726 259.12 132.036 247.087 131.984 241.212C132.879 244.091 132.996 246.399 132.633 249.2C136.474 244.765 138.135 227.13 137.396 219.791C136.656 212.503 134.073 206.798 132.23 205.047C130.401 203.323 126.702 205.527 126.702 205.527Z" fill="url(#paint21_linear_280_2)"/>
<path d="M223.814 231.759C223.205 242.885 213.354 273.41 213.354 273.41C213.354 273.41 203.673 242.859 202.894 231.759C202.064 219.804 203.881 206.539 213.354 206.539C222.828 206.552 224.554 218.248 223.814 231.759Z" fill="url(#paint22_linear_280_2)"/>
<path d="M210.616 205.527C210.616 205.527 205.191 210.87 205.438 225.043C205.62 235.663 207.579 245.712 210.369 249.304C210.668 249.68 208.527 243.17 210.979 237.167C210.655 246.412 213.64 259.12 213.64 259.12C213.64 259.12 215.95 247.087 215.898 241.212C216.793 244.091 216.91 246.399 216.547 249.2C220.388 244.765 222.049 227.13 221.31 219.791C220.57 212.503 217.987 206.798 216.145 205.047C214.302 203.323 210.616 205.527 210.616 205.527Z" fill="url(#paint23_linear_280_2)"/>
<path d="M208.462 89.6799C203.92 96.1375 189.333 100.767 171.631 100.767C153.877 100.767 139.342 96.1375 134.8 89.6799C134.891 88.1627 135.124 86.6975 135.397 85.2841H135.851C135.851 91.5212 150.205 98.2122 171.631 98.2122C193.005 98.2122 207.411 91.5212 207.411 85.2841H207.826C208.15 86.7104 208.332 88.1757 208.462 89.6799Z" fill="white"/>
<path d="M208.695 93.8942V213.787C208.695 219.052 201.194 223.655 190.033 226.119C189.527 226.236 189.008 226.339 188.476 226.443C183.428 227.429 177.692 227.986 171.618 227.986C165.544 227.986 159.821 227.429 154.76 226.417C154.565 226.391 154.371 226.352 154.189 226.313C142.496 223.927 134.553 219.194 134.553 213.774V93.8942C134.553 92.4808 134.592 91.0544 134.774 89.6928C134.787 89.3298 134.839 88.9537 134.865 88.5906V88.5647L135.332 85.4397L135.345 85.3748C135.345 85.3489 135.358 85.3359 135.358 85.297C135.527 84.4412 135.708 83.5854 135.929 82.7296C136.189 81.6403 136.526 80.5641 136.889 79.5008C137.46 77.7502 138.174 76.0126 138.992 74.3399C142.457 67.1821 148.388 56.3935 158.433 41.6111C159.315 40.3144 160.236 38.9788 161.184 37.6173C164.298 33.1566 167.738 28.3848 171.592 23.2369C171.605 23.2239 171.605 23.2109 171.605 23.2109C175.446 28.3459 178.898 33.1566 182 37.6173C182.948 38.9918 183.856 40.3144 184.751 41.6371C194.77 56.4065 200.701 67.1951 204.179 74.3529C205.01 76.0386 205.698 77.7632 206.295 79.5267C206.645 80.603 206.969 81.7052 207.255 82.8203C207.463 83.6502 207.644 84.4671 207.8 85.31C207.813 85.3359 207.813 85.3878 207.826 85.4137V85.4267C208.06 86.49 208.215 87.5662 208.345 88.6684V88.6814C208.397 89.0056 208.695 92.4808 208.695 93.8942Z" fill="url(#paint24_linear_280_2)"/>
<path d="M208.708 209.443V213.8C208.708 221.632 192.097 227.999 171.631 227.999C151.139 227.999 134.566 221.632 134.566 213.8V209.443C134.566 217.275 151.126 223.642 171.631 223.642C192.097 223.642 208.708 217.275 208.708 209.443Z" fill="url(#paint25_linear_280_2)"/>
<path d="M208.371 88.6555V88.6685C206.749 93.2847 199.351 97.1878 189.06 99.2885C183.856 100.352 177.912 100.961 171.618 100.961C152.735 100.961 137.214 95.541 134.878 88.5777V88.5518L135.345 85.4267L135.358 85.3619C138.927 91.7806 153.774 96.5913 171.605 96.5913C177.912 96.5913 183.856 95.9819 189.047 94.9186C198.495 92.9865 205.516 89.5373 207.839 85.4008C208.085 86.4641 208.241 87.5403 208.371 88.6555Z" fill="url(#paint26_linear_280_2)"/>
<path d="M207.281 82.7944C202.829 88.7333 188.541 93.0773 171.618 93.0773C154.604 93.0773 140.316 88.6944 135.955 82.7166C136.215 81.6274 136.552 80.5511 136.915 79.4879C142.171 84.8951 155.707 88.7204 171.618 88.7204C187.503 88.7204 201.052 84.8821 206.321 79.5008C206.671 80.5771 206.995 81.6922 207.281 82.7944Z" fill="url(#paint27_linear_280_2)"/>
<path d="M184.777 41.5982C180.793 43.9842 176.238 44.5936 171.618 44.5936C166.985 44.5936 162.572 43.4525 158.458 41.5853C159.341 40.2886 160.262 38.953 161.21 37.5914C164.324 33.1308 167.764 28.3589 171.618 23.211C171.631 23.198 171.631 23.1851 171.631 23.1851C175.472 28.32 178.924 33.1308 182.026 37.5914C182.973 38.9659 183.895 40.2886 184.777 41.5982Z" fill="url(#paint28_linear_280_2)"/>
<path d="M184.777 41.5983C180.793 43.9712 176.238 44.5936 171.618 44.5936C166.985 44.5936 162.572 43.4396 158.458 41.5853C158.913 40.911 159.393 40.2238 159.86 39.5365C163.572 41.0536 167.491 41.9613 171.618 41.9613C175.745 41.9613 179.807 41.4686 183.454 39.6791C183.908 40.3145 184.349 40.9499 184.777 41.5983Z" fill="white"/>
<path opacity="0.2" d="M171.618 23.2109C171.086 24.4169 154.202 63.3828 154.202 94.9185C154.202 126.973 154.202 226.326 154.202 226.326C142.509 223.94 134.566 219.207 134.566 213.787V93.8942C134.566 92.4808 134.605 91.0544 134.787 89.6928C134.878 88.1757 135.111 86.7104 135.384 85.297C136.124 81.4847 137.318 77.815 139.018 74.3269C143.794 64.485 153.215 47.7575 171.618 23.2109Z" fill="url(#paint29_linear_280_2)"/>
<path opacity="0.2" d="M171.644 23.2109C172.176 24.4169 189.06 63.3828 189.06 94.9185C189.06 126.973 189.06 226.326 189.06 226.326C200.753 223.94 208.696 219.207 208.696 213.787V93.8942C208.696 92.4808 208.657 91.0544 208.475 89.6928C208.384 88.1757 208.15 86.7104 207.878 85.297C207.138 81.4847 205.944 77.815 204.244 74.3269C199.481 64.485 190.059 47.7575 171.644 23.2109Z" fill="url(#paint30_linear_280_2)"/>
<path opacity="0.3" d="M190.034 226.132C189.527 226.248 189.008 226.352 188.476 226.456C183.428 227.441 177.692 227.999 171.618 227.999C165.544 227.999 159.821 227.441 154.76 226.43C154.721 225.574 154.721 220.128 154.695 219.272C154.695 218.105 154.708 216.847 154.773 215.473C155.305 205.333 157.991 194.752 162.819 183.976L163.183 183.133C163.221 183.042 163.273 182.952 163.312 182.848L163.325 182.835C163.351 182.731 163.403 182.64 163.442 182.576C163.481 182.446 163.559 182.329 163.611 182.213C163.676 182.083 163.741 181.914 163.831 181.72L164.052 181.279C164.13 181.097 164.182 180.981 164.26 180.864C165.077 179.165 165.895 177.596 166.7 176.144C167.024 175.534 167.348 174.977 167.647 174.458L167.971 173.927C168.477 173.045 168.932 172.332 169.243 171.813C169.321 171.709 169.581 171.268 169.581 171.268C169.827 170.879 169.996 170.711 169.996 170.711L172.423 167.262L174.772 170.763L175.187 171.424C175.265 171.541 175.356 171.657 175.434 171.813C175.784 172.358 176.225 173.058 176.718 173.914L176.835 174.121C176.913 174.238 176.965 174.354 177.03 174.458C177.354 175.003 177.692 175.599 178.055 176.248C178.847 177.7 179.638 179.23 180.43 180.825C180.521 181.02 180.612 181.214 180.69 181.434C180.728 181.538 180.819 181.668 180.884 181.823C180.962 181.953 181.014 182.083 181.079 182.238C181.157 182.355 181.209 182.524 181.287 182.653L181.403 182.913L181.442 183.042L181.806 183.859C181.883 183.976 181.922 184.08 181.974 184.183C185.219 191.51 189.281 202.908 189.917 215.486C189.982 216.744 190.008 218.014 189.995 219.311C190.008 220.037 190.072 224.29 190.034 226.132Z" fill="url(#paint31_linear_280_2)"/>
<path d="M187.126 213.554C187.113 216.809 186.841 220.141 186.244 223.474C186.023 224.744 185.751 226.028 185.426 227.312C185.05 228.829 184.596 230.359 184.064 231.876C176.329 238.1 162.624 235.014 160.691 231.876C160.159 230.359 159.704 228.842 159.328 227.312C159.004 226.028 158.731 224.744 158.51 223.474C157.926 220.128 157.641 216.822 157.628 213.554C157.615 212.335 157.641 211.116 157.706 209.923C158.303 198.136 161.976 187.335 165.493 179.464C165.557 179.321 165.622 179.178 165.687 179.036C165.752 178.893 165.817 178.75 165.882 178.608C165.934 178.491 165.986 178.387 166.038 178.271C166.051 178.232 166.064 178.206 166.077 178.18C166.141 178.037 166.206 177.895 166.271 177.752C166.336 177.596 166.414 177.441 166.492 177.285C166.557 177.142 166.635 176.987 166.699 176.844C166.777 176.689 166.855 176.546 166.92 176.39C167.751 174.679 168.555 173.162 169.269 171.865C169.593 171.268 169.905 170.724 170.19 170.218C170.294 170.049 170.385 169.881 170.489 169.725C170.995 168.857 171.423 168.169 171.748 167.664C171.865 167.469 171.968 167.313 172.046 167.184C172.254 166.86 172.384 166.691 172.384 166.691C172.384 166.691 172.501 166.86 172.708 167.184C172.799 167.326 172.903 167.482 173.02 167.664C173.344 168.156 173.759 168.844 174.265 169.699C174.356 169.855 174.46 170.024 174.551 170.192C174.862 170.724 175.2 171.32 175.55 171.956C176.251 173.226 177.03 174.718 177.847 176.39C177.938 176.572 178.029 176.753 178.107 176.948C178.172 177.091 178.25 177.233 178.315 177.389C178.379 177.506 178.431 177.635 178.496 177.765C178.561 177.908 178.639 178.05 178.691 178.193C178.717 178.258 178.756 178.322 178.782 178.387C178.808 178.465 178.847 178.556 178.886 178.634C178.963 178.815 179.054 178.997 179.132 179.178C179.197 179.321 179.262 179.464 179.327 179.619C182.831 187.464 186.465 198.227 187.049 209.949C187.113 211.116 187.139 212.335 187.126 213.554Z" fill="url(#paint32_linear_280_2)"/>
<path d="M158.498 223.487C158.718 224.757 158.991 226.041 159.315 227.325C162.949 228.544 167.426 229.244 172.371 229.244C177.315 229.244 181.793 228.544 185.413 227.325C185.738 226.041 186.01 224.757 186.231 223.487C182.844 224.965 178.042 225.989 172.358 225.989C166.7 225.989 161.885 224.965 158.498 223.487Z" fill="url(#paint33_linear_280_2)"/>
<path d="M179.47 190.913C179.47 194.829 176.29 198.006 172.371 198.006C168.452 198.006 165.272 194.829 165.272 190.913C165.272 186.997 168.452 183.82 172.371 183.82C176.29 183.82 179.47 186.997 179.47 190.913Z" fill="url(#paint34_linear_280_2)"/>
<path d="M179.47 190.33C179.47 194.246 176.29 197.423 172.371 197.423C168.452 197.423 165.272 194.246 165.272 190.33C165.272 186.414 168.452 183.237 172.371 183.237C176.29 183.237 179.47 186.414 179.47 190.33Z" fill="url(#paint35_linear_280_2)"/>
<path d="M179.47 190.33C179.47 194.246 176.29 197.423 172.371 197.423C168.452 197.423 165.272 194.246 165.272 190.33C165.272 186.414 168.452 183.237 172.371 183.237C176.29 183.237 179.47 186.414 179.47 190.33Z" fill="url(#paint36_linear_280_2)"/>
<path d="M178.055 190.33C178.055 193.468 175.511 196.009 172.371 196.009C169.23 196.009 166.687 193.468 166.687 190.33C166.687 187.192 169.23 184.65 172.371 184.65C175.511 184.65 178.055 187.192 178.055 190.33Z" fill="url(#paint37_linear_280_2)"/>
<path d="M172.163 188.553C171.592 189.357 170.632 189.643 170.009 189.202C169.386 188.761 169.334 187.762 169.905 186.958C170.476 186.155 171.436 185.869 172.059 186.31C172.682 186.751 172.734 187.762 172.163 188.553Z" fill="url(#paint38_linear_280_2)"/>
<path d="M169.658 191.341C169.412 191.691 168.893 191.756 168.503 191.484C168.114 191.212 168.01 190.706 168.257 190.356C168.503 190.006 169.023 189.941 169.412 190.213C169.788 190.486 169.905 190.991 169.658 191.341Z" fill="url(#paint39_linear_280_2)"/>
<path d="M134.58 144.673V213.476C129.025 213.476 124.003 211.674 122.887 209.871C122.354 208.354 121.913 206.837 121.524 205.294C121.199 204.023 120.914 202.739 120.693 201.456C120.096 198.123 119.837 194.804 119.824 191.536C119.811 190.33 119.837 189.098 119.902 187.905C120.083 184.508 120.499 181.201 121.109 178.011C121.122 177.83 121.173 177.648 121.212 177.467C121.29 177 121.394 176.546 121.498 176.092C122.329 172.215 123.419 168.532 124.6 165.174C124.69 164.889 124.794 164.629 124.898 164.357C124.963 164.175 125.015 164.02 125.08 163.838C125.936 161.556 126.819 159.391 127.688 157.433C127.753 157.29 127.818 157.147 127.883 157.005C127.948 156.862 128.013 156.719 128.078 156.577C128.143 156.46 128.181 156.356 128.246 156.24C128.259 156.201 128.272 156.162 128.285 156.149C128.35 156.006 128.415 155.851 128.48 155.708C128.558 155.565 128.623 155.397 128.701 155.254C128.778 155.111 128.843 154.956 128.908 154.813C128.986 154.671 129.051 154.502 129.129 154.359C129.972 152.648 130.764 151.131 131.478 149.847C131.802 149.237 132.114 148.693 132.412 148.2C132.516 148.031 132.607 147.863 132.711 147.707C133.217 146.839 133.645 146.138 133.97 145.646C134.073 145.451 134.19 145.308 134.268 145.153C134.463 144.842 134.58 144.673 134.58 144.673Z" fill="url(#paint40_linear_280_2)"/>
<path d="M134.58 203.971V207.239C129.635 207.239 125.158 206.526 121.524 205.307C121.199 204.036 120.914 202.752 120.693 201.469C124.068 202.96 128.882 203.971 134.58 203.971Z" fill="url(#paint41_linear_280_2)"/>
<path d="M129.921 171.165C129.921 175.081 126.741 178.245 122.822 178.245C122.225 178.245 121.654 178.167 121.109 178.024C121.122 177.843 121.174 177.661 121.212 177.48C121.29 177.013 121.394 176.559 121.498 176.105C122.329 172.228 123.419 168.545 124.6 165.187C124.691 164.902 124.794 164.642 124.898 164.37C127.74 165.226 129.804 167.793 129.921 170.879C129.921 170.97 129.921 171.074 129.921 171.165Z" fill="url(#paint42_linear_280_2)"/>
<path d="M129.92 170.594C129.92 170.698 129.92 170.802 129.908 170.892C129.765 174.666 126.637 177.687 122.822 177.687C122.264 177.687 121.732 177.622 121.212 177.493C121.29 177.026 121.394 176.572 121.498 176.118C122.328 172.241 123.419 168.558 124.6 165.2C124.69 164.915 124.794 164.655 124.898 164.383C124.963 164.201 125.015 164.046 125.08 163.864C127.883 164.785 129.92 167.443 129.92 170.594Z" fill="url(#paint43_linear_280_2)"/>
<path d="M129.92 170.594C129.92 170.698 129.92 170.802 129.908 170.892C129.765 174.666 126.637 177.687 122.822 177.687C122.264 177.687 121.732 177.622 121.212 177.493C121.29 177.026 121.394 176.572 121.498 176.118C122.328 172.241 123.419 168.558 124.6 165.2C124.69 164.915 124.794 164.655 124.898 164.383C124.963 164.201 125.015 164.046 125.08 163.864C127.883 164.785 129.92 167.443 129.92 170.594Z" fill="url(#paint44_linear_280_2)"/>
<path d="M128.506 170.594C128.506 173.719 125.962 176.274 122.822 176.274C122.368 176.274 121.926 176.209 121.498 176.105C122.329 172.228 123.419 168.545 124.6 165.187C126.871 165.926 128.506 168.066 128.506 170.594Z" fill="url(#paint45_linear_280_2)"/>
<path d="M208.696 144.673V213.476C214.25 213.476 219.272 211.674 220.389 209.871C220.921 208.354 221.362 206.837 221.751 205.294C222.076 204.023 222.361 202.739 222.582 201.456C223.179 198.123 223.438 194.804 223.451 191.536C223.464 190.33 223.438 189.098 223.373 187.905C223.192 184.508 222.776 181.201 222.166 178.011C222.154 177.83 222.102 177.648 222.063 177.467C221.985 177 221.881 176.546 221.777 176.092C220.947 172.215 219.856 168.532 218.675 165.174C218.585 164.889 218.481 164.629 218.377 164.357C218.312 164.175 218.26 164.02 218.195 163.838C217.339 161.556 216.456 159.391 215.587 157.433C215.522 157.29 215.457 157.147 215.392 157.005C215.327 156.862 215.262 156.719 215.197 156.577C215.133 156.46 215.094 156.356 215.029 156.24C215.016 156.201 215.003 156.162 214.99 156.149C214.925 156.006 214.86 155.851 214.795 155.708C214.717 155.565 214.652 155.397 214.574 155.254C214.497 155.111 214.432 154.956 214.367 154.813C214.289 154.671 214.224 154.502 214.146 154.359C213.303 152.648 212.511 151.131 211.797 149.847C211.473 149.237 211.161 148.693 210.863 148.2C210.759 148.031 210.668 147.863 210.564 147.707C210.058 146.839 209.63 146.138 209.306 145.646C209.202 145.451 209.085 145.308 209.007 145.153C208.812 144.842 208.696 144.673 208.696 144.673Z" fill="url(#paint46_linear_280_2)"/>
<path d="M208.696 203.971V207.239C213.64 207.239 218.117 206.526 221.751 205.307C222.076 204.036 222.361 202.752 222.582 201.469C219.195 202.96 214.38 203.971 208.696 203.971Z" fill="url(#paint47_linear_280_2)"/>
<path d="M213.342 171.165C213.342 175.081 216.521 178.245 220.44 178.245C221.037 178.245 221.608 178.167 222.153 178.024C222.14 177.843 222.089 177.661 222.05 177.48C221.972 177.013 221.868 176.559 221.764 176.105C220.934 172.228 219.843 168.545 218.662 165.187C218.572 164.902 218.468 164.642 218.364 164.37C215.522 165.226 213.458 167.793 213.342 170.879C213.342 170.97 213.342 171.074 213.342 171.165Z" fill="url(#paint48_linear_280_2)"/>
<path d="M213.342 170.594C213.342 170.698 213.342 170.802 213.355 170.892C213.497 174.666 216.625 177.687 220.44 177.687C220.998 177.687 221.531 177.622 222.05 177.493C221.972 177.026 221.868 176.572 221.764 176.118C220.934 172.241 219.843 168.558 218.662 165.2C218.572 164.915 218.468 164.655 218.364 164.383C218.299 164.201 218.247 164.046 218.182 163.864C215.392 164.785 213.342 167.443 213.342 170.594Z" fill="url(#paint49_linear_280_2)"/>
<path d="M213.342 170.594C213.342 170.698 213.342 170.802 213.355 170.892C213.497 174.666 216.625 177.687 220.44 177.687C220.998 177.687 221.531 177.622 222.05 177.493C221.972 177.026 221.868 176.572 221.764 176.118C220.934 172.241 219.843 168.558 218.662 165.2C218.572 164.915 218.468 164.655 218.364 164.383C218.299 164.201 218.247 164.046 218.182 163.864C215.392 164.785 213.342 167.443 213.342 170.594Z" fill="url(#paint50_linear_280_2)"/>
<path d="M214.769 170.594C214.769 173.719 217.313 176.274 220.453 176.274C220.908 176.274 221.349 176.209 221.777 176.105C220.946 172.228 219.856 168.545 218.675 165.187C216.404 165.926 214.769 168.066 214.769 170.594Z" fill="url(#paint51_linear_280_2)"/>
<path d="M171.631 152.388C180.167 152.388 187.088 145.474 187.088 136.945C187.088 128.415 180.167 121.501 171.631 121.501C163.095 121.501 156.175 128.415 156.175 136.945C156.175 145.474 163.095 152.388 171.631 152.388Z" fill="url(#paint52_linear_280_2)"/>
<path d="M171.631 152.388C180.167 152.388 187.088 145.474 187.088 136.945C187.088 128.415 180.167 121.501 171.631 121.501C163.095 121.501 156.175 128.415 156.175 136.945C156.175 145.474 163.095 152.388 171.631 152.388Z" fill="url(#paint53_linear_280_2)"/>
<path d="M171.631 150.936C180.167 150.936 187.088 144.022 187.088 135.492C187.088 126.963 180.167 120.049 171.631 120.049C163.095 120.049 156.175 126.963 156.175 135.492C156.175 144.022 163.095 150.936 171.631 150.936Z" fill="url(#paint54_linear_280_2)"/>
<path opacity="0.7" d="M182.662 124.691C179.885 121.955 176.056 120.269 171.839 120.269C163.299 120.269 156.395 127.18 156.395 135.713C156.395 139.901 158.056 143.688 160.769 146.475C157.939 143.688 156.188 139.797 156.188 135.505C156.188 126.986 163.105 120.075 171.631 120.075C175.953 120.049 179.872 121.825 182.662 124.691Z" fill="#47E6FC"/>
<path d="M183.493 135.492C183.493 142.028 178.198 147.344 171.631 147.344C170.762 147.344 169.918 147.253 169.113 147.085C167.803 146.8 166.557 146.294 165.454 145.594C163.546 144.453 162.002 142.78 161.015 140.757C160.211 139.162 159.743 137.373 159.743 135.492C159.743 135.077 159.769 134.637 159.808 134.222C160.405 128.672 164.792 124.276 170.359 123.679C170.775 123.64 171.216 123.615 171.631 123.615C173.539 123.615 175.356 124.068 176.926 124.885C178.938 125.871 180.625 127.427 181.741 129.32C182.442 130.409 182.948 131.654 183.233 132.977C183.415 133.794 183.493 134.624 183.493 135.492Z" fill="url(#paint55_linear_280_2)"/>
<path d="M183.493 135.492C183.493 142.028 178.198 147.344 171.631 147.344C170.762 147.344 169.931 147.253 169.113 147.085C167.803 146.8 166.557 146.294 165.454 145.594C163.559 144.453 162.002 142.767 161.015 140.757C160.211 139.162 159.743 137.373 159.743 135.492C159.743 135.402 159.743 135.298 159.743 135.207C159.782 136.997 160.237 138.708 161.015 140.238C162.002 142.248 163.546 143.934 165.454 145.075C166.544 145.775 167.79 146.281 169.113 146.566C169.918 146.748 170.749 146.826 171.631 146.826C178.107 146.826 183.35 141.652 183.493 135.233C183.493 135.311 183.493 135.402 183.493 135.492Z" fill="#D5E5EA"/>
<path opacity="0.5" d="M183.493 134.974C183.493 135.064 183.493 135.142 183.493 135.22C183.48 134.442 183.389 133.703 183.233 132.977C182.948 131.667 182.441 130.422 181.741 129.32C180.625 127.427 178.937 125.871 176.926 124.885C175.343 124.068 173.539 123.615 171.631 123.615C171.216 123.615 170.787 123.641 170.359 123.679C164.805 124.276 160.405 128.659 159.821 134.209C159.782 134.533 159.769 134.87 159.756 135.194C159.756 135.116 159.756 135.039 159.756 134.961C159.756 134.546 159.782 134.105 159.821 133.69C160.418 128.127 164.805 123.744 170.359 123.148C170.774 123.109 171.216 123.083 171.631 123.083C173.539 123.083 175.356 123.537 176.926 124.354C178.937 125.339 180.625 126.882 181.741 128.788C182.441 129.878 182.935 131.122 183.233 132.432C183.402 133.262 183.493 134.092 183.493 134.974Z" fill="url(#paint56_linear_280_2)"/>
<path opacity="0.2" d="M187.088 135.492C187.088 144.025 180.17 150.936 171.644 150.936C165.986 150.936 161.028 147.889 158.329 143.337C160.626 144.699 163.325 145.477 166.18 145.477C174.72 145.477 181.637 138.566 181.637 130.033C181.637 127.168 180.858 124.483 179.496 122.188C184.038 124.885 187.088 129.826 187.088 135.492Z" fill="url(#paint57_linear_280_2)"/>
<path opacity="0.5" d="M168.4 132.562C170.192 132.562 171.644 131.041 171.644 129.164C171.644 127.288 170.192 125.767 168.4 125.767C166.608 125.767 165.155 127.288 165.155 129.164C165.155 131.041 166.608 132.562 168.4 132.562Z" fill="url(#paint58_linear_280_2)"/>
<path opacity="0.5" d="M166.544 135.492C166.544 136.802 165.532 137.865 164.286 137.865C163.04 137.865 162.028 136.802 162.028 135.492C162.028 134.183 163.04 133.119 164.286 133.119C165.532 133.119 166.544 134.183 166.544 135.492Z" fill="url(#paint59_linear_280_2)"/>
<g opacity="0.74">
<path d="M132.918 254.983C132.918 255.463 132.529 255.852 132.049 255.852C131.569 255.852 131.179 255.463 131.179 254.983C131.179 254.504 131.569 254.115 132.049 254.115C132.529 254.115 132.918 254.504 132.918 254.983Z" fill="url(#paint60_radial_280_2)"/>
<path d="M140.42 240.421C140.9 240.421 141.289 240.033 141.289 239.553C141.289 239.073 140.9 238.684 140.42 238.684C139.939 238.684 139.55 239.073 139.55 239.553C139.55 240.033 139.939 240.421 140.42 240.421Z" fill="url(#paint61_radial_280_2)"/>
<path d="M173.565 245.232C173.565 245.712 173.175 246.101 172.695 246.101C172.215 246.101 171.826 245.712 171.826 245.232C171.826 244.752 172.215 244.363 172.695 244.363C173.188 244.363 173.565 244.752 173.565 245.232Z" fill="url(#paint62_radial_280_2)"/>
<path d="M196.899 265.422C196.899 265.902 196.509 266.291 196.029 266.291C195.549 266.291 195.16 265.902 195.16 265.422C195.16 264.942 195.549 264.553 196.029 264.553C196.509 264.553 196.899 264.942 196.899 265.422Z" fill="url(#paint63_radial_280_2)"/>
<path d="M153.177 254.983C153.177 255.463 152.787 255.852 152.307 255.852C151.827 255.852 151.438 255.463 151.438 254.983C151.438 254.504 151.827 254.115 152.307 254.115C152.787 254.115 153.177 254.504 153.177 254.983Z" fill="url(#paint64_radial_280_2)"/>
<path d="M154.903 228.388C154.903 228.868 154.513 229.257 154.033 229.257C153.553 229.257 153.164 228.868 153.164 228.388C153.164 227.908 153.553 227.519 154.033 227.519C154.513 227.532 154.903 227.908 154.903 228.388Z" fill="url(#paint65_radial_280_2)"/>
<path d="M150.996 240.94C150.996 241.161 150.815 241.355 150.581 241.355C150.36 241.355 150.166 241.174 150.166 240.94C150.166 240.72 150.347 240.525 150.581 240.525C150.815 240.525 150.996 240.72 150.996 240.94Z" fill="url(#paint66_radial_280_2)"/>
<path d="M124.106 225.937C124.336 225.937 124.522 225.752 124.522 225.522C124.522 225.293 124.336 225.107 124.106 225.107C123.877 225.107 123.691 225.293 123.691 225.522C123.691 225.752 123.877 225.937 124.106 225.937Z" fill="url(#paint67_radial_280_2)"/>
<path d="M131.192 219.441C131.422 219.441 131.608 219.255 131.608 219.026C131.608 218.797 131.422 218.611 131.192 218.611C130.963 218.611 130.777 218.797 130.777 219.026C130.777 219.255 130.963 219.441 131.192 219.441Z" fill="url(#paint68_radial_280_2)"/>
<path d="M145.014 225.522C145.014 225.743 144.832 225.937 144.598 225.937C144.378 225.937 144.183 225.756 144.183 225.522C144.183 225.302 144.365 225.107 144.598 225.107C144.832 225.12 145.014 225.302 145.014 225.522Z" fill="url(#paint69_radial_280_2)"/>
<path d="M129.44 237.569C129.67 237.569 129.855 237.383 129.855 237.154C129.855 236.925 129.67 236.739 129.44 236.739C129.211 236.739 129.025 236.925 129.025 237.154C129.025 237.383 129.211 237.569 129.44 237.569Z" fill="url(#paint70_radial_280_2)"/>
<path d="M161.43 244.363C161.43 244.584 161.249 244.778 161.015 244.778C160.782 244.778 160.6 244.597 160.6 244.363C160.6 244.143 160.782 243.949 161.015 243.949C161.249 243.949 161.43 244.143 161.43 244.363Z" fill="url(#paint71_radial_280_2)"/>
<path d="M141.704 271.841C141.934 271.841 142.12 271.655 142.12 271.426C142.12 271.196 141.934 271.011 141.704 271.011C141.475 271.011 141.289 271.196 141.289 271.426C141.289 271.655 141.475 271.841 141.704 271.841Z" fill="url(#paint72_radial_280_2)"/>
<path d="M150.996 279.854C150.996 280.075 150.815 280.269 150.581 280.269C150.36 280.269 150.166 280.088 150.166 279.854C150.166 279.634 150.347 279.439 150.581 279.439C150.815 279.452 150.996 279.634 150.996 279.854Z" fill="url(#paint73_radial_280_2)"/>
<path d="M166.687 279.452C166.916 279.452 167.102 279.266 167.102 279.037C167.102 278.808 166.916 278.622 166.687 278.622C166.457 278.622 166.271 278.808 166.271 279.037C166.271 279.266 166.457 279.452 166.687 279.452Z" fill="url(#paint74_radial_280_2)"/>
<path d="M176.16 282.785C176.16 283.005 175.978 283.2 175.745 283.2C175.524 283.2 175.33 283.018 175.33 282.785C175.33 282.564 175.511 282.37 175.745 282.37C175.978 282.37 176.16 282.551 176.16 282.785Z" fill="url(#paint75_radial_280_2)"/>
<path d="M181.533 276.833C181.533 277.053 181.351 277.248 181.118 277.248C180.897 277.248 180.702 277.066 180.702 276.833C180.702 276.612 180.884 276.418 181.118 276.418C181.351 276.431 181.533 276.612 181.533 276.833Z" fill="url(#paint76_radial_280_2)"/>
<path d="M190.046 279.867C190.276 279.867 190.462 279.681 190.462 279.452C190.462 279.223 190.276 279.037 190.046 279.037C189.817 279.037 189.631 279.223 189.631 279.452C189.631 279.681 189.817 279.867 190.046 279.867Z" fill="url(#paint77_radial_280_2)"/>
<path d="M183.999 262.063C184.228 262.063 184.414 261.878 184.414 261.649C184.414 261.419 184.228 261.234 183.999 261.234C183.769 261.234 183.583 261.419 183.583 261.649C183.583 261.878 183.769 262.063 183.999 262.063Z" fill="url(#paint78_radial_280_2)"/>
<path d="M194.394 257.123C194.623 257.123 194.809 256.937 194.809 256.708C194.809 256.479 194.623 256.293 194.394 256.293C194.165 256.293 193.979 256.479 193.979 256.708C193.979 256.937 194.165 257.123 194.394 257.123Z" fill="url(#paint79_radial_280_2)"/>
<path d="M198.768 240.823C198.997 240.823 199.183 240.638 199.183 240.409C199.183 240.179 198.997 239.994 198.768 239.994C198.538 239.994 198.352 240.179 198.352 240.409C198.352 240.638 198.538 240.823 198.768 240.823Z" fill="url(#paint80_radial_280_2)"/>
<path d="M212.887 242.626C213.117 242.626 213.302 242.44 213.302 242.211C213.302 241.982 213.117 241.796 212.887 241.796C212.658 241.796 212.472 241.982 212.472 242.211C212.472 242.44 212.658 242.626 212.887 242.626Z" fill="url(#paint81_radial_280_2)"/>
<path d="M224.801 245.193C225.03 245.193 225.216 245.008 225.216 244.778C225.216 244.549 225.03 244.363 224.801 244.363C224.571 244.363 224.385 244.549 224.385 244.778C224.385 245.008 224.571 245.193 224.801 245.193Z" fill="url(#paint82_radial_280_2)"/>
<path d="M166.232 251.703C166.232 251.923 166.05 252.118 165.817 252.118C165.596 252.118 165.402 251.936 165.402 251.703C165.402 251.482 165.583 251.288 165.817 251.288C166.05 251.288 166.232 251.482 166.232 251.703Z" fill="url(#paint83_radial_280_2)"/>
<path d="M156.304 273.889C156.534 273.889 156.719 273.704 156.719 273.474C156.719 273.245 156.534 273.06 156.304 273.06C156.075 273.06 155.889 273.245 155.889 273.474C155.889 273.704 156.075 273.889 156.304 273.889Z" fill="url(#paint84_radial_280_2)"/>
<path d="M173.98 271.024C174.209 271.024 174.395 270.838 174.395 270.609C174.395 270.38 174.209 270.194 173.98 270.194C173.751 270.194 173.565 270.38 173.565 270.609C173.565 270.838 173.751 271.024 173.98 271.024Z" fill="url(#paint85_radial_280_2)"/>
<path d="M192.94 271.011C192.94 271.231 192.759 271.426 192.525 271.426C192.305 271.426 192.11 271.244 192.11 271.011C192.11 270.777 192.292 270.596 192.525 270.596C192.759 270.609 192.94 270.79 192.94 271.011Z" fill="url(#paint86_radial_280_2)"/>
<path d="M202.726 272.256C202.955 272.256 203.141 272.07 203.141 271.841C203.141 271.611 202.955 271.426 202.726 271.426C202.496 271.426 202.31 271.611 202.31 271.841C202.31 272.07 202.496 272.256 202.726 272.256Z" fill="url(#paint87_radial_280_2)"/>
<path d="M178.133 254.53C178.362 254.53 178.548 254.344 178.548 254.115C178.548 253.885 178.362 253.7 178.133 253.7C177.903 253.7 177.718 253.885 177.718 254.115C177.718 254.344 177.903 254.53 178.133 254.53Z" fill="url(#paint88_radial_280_2)"/>
<path d="M206.749 259.107C206.978 259.107 207.164 258.921 207.164 258.692C207.164 258.463 206.978 258.277 206.749 258.277C206.519 258.277 206.333 258.463 206.333 258.692C206.333 258.921 206.519 259.107 206.749 259.107Z" fill="url(#paint89_radial_280_2)"/>
<path d="M216.547 254.53C216.776 254.53 216.962 254.344 216.962 254.115C216.962 253.885 216.776 253.7 216.547 253.7C216.318 253.7 216.132 253.885 216.132 254.115C216.132 254.344 216.318 254.53 216.547 254.53Z" fill="url(#paint90_radial_280_2)"/>
<path d="M190.176 249.252C190.406 249.252 190.592 249.066 190.592 248.837C190.592 248.608 190.406 248.422 190.176 248.422C189.947 248.422 189.761 248.608 189.761 248.837C189.761 249.066 189.947 249.252 190.176 249.252Z" fill="url(#paint91_radial_280_2)"/>
<path d="M201 230.074C201.229 230.074 201.415 229.888 201.415 229.659C201.415 229.43 201.229 229.244 201 229.244C200.77 229.244 200.584 229.43 200.584 229.659C200.584 229.888 200.77 230.074 201 230.074Z" fill="url(#paint92_radial_280_2)"/>
<path d="M181.948 240.007C181.948 240.227 181.767 240.422 181.533 240.422C181.312 240.422 181.118 240.24 181.118 240.007C181.118 239.773 181.299 239.592 181.533 239.592C181.767 239.592 181.948 239.773 181.948 240.007Z" fill="url(#paint93_radial_280_2)"/>
<path d="M135.202 268.08C135.432 268.08 135.618 267.894 135.618 267.665C135.618 267.436 135.432 267.25 135.202 267.25C134.973 267.25 134.787 267.436 134.787 267.665C134.787 267.894 134.973 268.08 135.202 268.08Z" fill="url(#paint94_radial_280_2)"/>
<path d="M141.704 259.107C141.934 259.107 142.12 258.921 142.12 258.692C142.12 258.463 141.934 258.277 141.704 258.277C141.475 258.277 141.289 258.463 141.289 258.692C141.289 258.921 141.475 259.107 141.704 259.107Z" fill="url(#paint95_radial_280_2)"/>
<path d="M123.704 248.85C123.933 248.85 124.119 248.664 124.119 248.435C124.119 248.206 123.933 248.02 123.704 248.02C123.475 248.02 123.289 248.206 123.289 248.435C123.289 248.664 123.475 248.85 123.704 248.85Z" fill="url(#paint96_radial_280_2)"/>
<path d="M202.726 250.834C202.726 251.314 202.336 251.703 201.856 251.703C201.376 251.703 200.987 251.314 200.987 250.834C200.987 250.354 201.376 249.965 201.856 249.965C202.336 249.978 202.726 250.367 202.726 250.834Z" fill="url(#paint97_radial_280_2)"/>
<path d="M192.525 229.257C192.525 229.737 192.136 230.126 191.656 230.126C191.175 230.126 190.786 229.737 190.786 229.257C190.786 228.777 191.175 228.388 191.656 228.388C192.149 228.388 192.525 228.777 192.525 229.257Z" fill="url(#paint98_radial_280_2)"/>
<path d="M231.887 255.839C231.887 256.319 231.497 256.708 231.017 256.708C230.537 256.708 230.148 256.319 230.148 255.839C230.148 255.36 230.537 254.971 231.017 254.971C231.497 254.983 231.887 255.36 231.887 255.839Z" fill="url(#paint99_radial_280_2)"/>
<path d="M167.543 260.78C167.543 261.26 167.154 261.649 166.673 261.649C166.193 261.649 165.804 261.26 165.804 260.78C165.804 260.3 166.193 259.911 166.673 259.911C167.154 259.911 167.543 260.3 167.543 260.78Z" fill="url(#paint100_radial_280_2)"/>
<path d="M219.584 235.883C219.584 236.363 219.194 236.752 218.714 236.752C218.234 236.752 217.845 236.363 217.845 235.883C217.845 235.403 218.234 235.014 218.714 235.014C219.194 235.014 219.584 235.403 219.584 235.883Z" fill="url(#paint101_radial_280_2)"/>
</g>
<path opacity="0.2" d="M50.9376 242.561C67.6305 242.561 81.1628 237.383 81.1628 230.994C81.1628 224.606 67.6305 219.428 50.9376 219.428C34.2447 219.428 20.7124 224.606 20.7124 230.994C20.7124 237.383 34.2447 242.561 50.9376 242.561Z" fill="url(#paint102_linear_280_2)"/>
<path d="M78.9046 224.615C73.999 220.764 63.6687 218.105 51.7162 218.105C40.2309 218.105 30.238 220.556 25.1247 224.161L21.491 224.135V229.672C21.491 236.065 35.0268 241.238 51.7162 241.238C68.4056 241.238 81.9414 236.065 81.9414 229.672V224.641L78.9046 224.615Z" fill="url(#paint103_linear_280_2)"/>
<path d="M78.9046 224.615C73.999 220.764 63.6687 218.105 51.7162 218.105C40.2309 218.105 30.238 220.556 25.1247 224.161L21.491 224.135V229.672C21.491 236.065 35.0268 241.238 51.7162 241.238C68.4056 241.238 81.9414 236.065 81.9414 229.672V224.641L78.9046 224.615Z" fill="#1CA7FB"/>
<path d="M51.7162 235.702C68.4091 235.702 81.9414 230.523 81.9414 224.135C81.9414 217.747 68.4091 212.568 51.7162 212.568C35.0233 212.568 21.491 217.747 21.491 224.135C21.491 230.523 35.0233 235.702 51.7162 235.702Z" fill="#1CA7FB"/>
<path d="M51.7162 212.568C35.0138 212.568 21.491 217.742 21.491 224.135C21.491 230.528 35.0268 235.702 51.7162 235.702C68.4056 235.702 81.9414 230.528 81.9414 224.135C81.9544 217.742 68.4186 212.568 51.7162 212.568ZM51.7162 235.377C35.481 235.377 22.3215 230.346 22.3215 224.135C22.3215 217.924 35.481 212.893 51.7162 212.893C67.9514 212.893 81.1108 217.924 81.1108 224.135C81.1238 230.346 67.9514 235.377 51.7162 235.377Z" fill="#17FCD7"/>
<path opacity="0.2" d="M75.0633 224.135C75.0633 229.062 64.6162 233.069 51.7293 233.069C38.8424 233.069 28.3953 229.075 28.3953 224.135C28.3953 219.207 38.8424 215.201 51.7293 215.201C64.6162 215.201 75.0633 219.207 75.0633 224.135Z" fill="url(#paint104_linear_280_2)"/>
<path opacity="0.2" d="M68.5744 224.135C68.5744 227.701 61.0213 230.58 51.7163 230.58C42.4112 230.58 34.8582 227.688 34.8582 224.135C34.8582 220.569 42.4112 217.69 51.7163 217.69C61.0213 217.69 68.5744 220.569 68.5744 224.135Z" fill="url(#paint105_linear_280_2)"/>
<path opacity="0.2" d="M62.5527 224.135C62.5527 226.417 57.699 228.271 51.7292 228.271C45.7465 228.271 40.9058 226.417 40.9058 224.135C40.9058 221.853 45.7594 219.998 51.7292 219.998C57.699 219.998 62.5527 221.853 62.5527 224.135Z" fill="url(#paint106_linear_280_2)"/>
<path opacity="0.2" d="M57.8157 224.135C57.8157 225.419 55.0904 226.469 51.7292 226.469C48.3679 226.469 45.6426 225.432 45.6426 224.135C45.6426 222.851 48.3679 221.801 51.7292 221.801C55.0774 221.801 57.8157 222.851 57.8157 224.135Z" fill="url(#paint107_linear_280_2)"/>
<path d="M78.9046 212.918C73.999 209.067 63.6687 206.409 51.7162 206.409C40.2309 206.409 30.238 208.86 25.1247 212.465L21.491 212.439V217.976C21.491 224.368 35.0268 229.542 51.7162 229.542C68.4056 229.542 81.9414 224.368 81.9414 217.976V212.944L78.9046 212.918Z" fill="url(#paint108_linear_280_2)"/>
<path d="M78.9046 212.918C73.999 209.067 63.6687 206.409 51.7162 206.409C40.2309 206.409 30.238 208.86 25.1247 212.465L21.491 212.439V217.976C21.491 224.368 35.0268 229.542 51.7162 229.542C68.4056 229.542 81.9414 224.368 81.9414 217.976V212.944L78.9046 212.918Z" fill="#1CA7FB"/>
<path d="M81.9414 217.327V217.976C81.9414 224.368 68.4056 229.529 51.7162 229.529C35.0138 229.529 21.478 224.368 21.478 217.976V217.327C21.478 223.72 35.0138 228.894 51.7162 228.894C68.4186 228.894 81.9414 223.72 81.9414 217.327Z" fill="#1CA7FB"/>
<path d="M51.7162 224.005C68.4091 224.005 81.9414 218.827 81.9414 212.439C81.9414 206.051 68.4091 200.872 51.7162 200.872C35.0233 200.872 21.491 206.051 21.491 212.439C21.491 218.827 35.0233 224.005 51.7162 224.005Z" fill="#1CA7FB"/>
<path d="M51.7162 200.872C35.0138 200.872 21.491 206.046 21.491 212.439C21.491 218.831 35.0268 224.005 51.7162 224.005C68.4056 224.005 81.9414 218.831 81.9414 212.439C81.9544 206.046 68.4186 200.872 51.7162 200.872ZM51.7162 223.681C35.481 223.681 22.3215 218.65 22.3215 212.439C22.3215 206.227 35.481 201.196 51.7162 201.196C67.9514 201.196 81.1108 206.227 81.1108 212.439C81.1238 218.65 67.9514 223.681 51.7162 223.681Z" fill="#17FCD7"/>
<path opacity="0.2" d="M75.0633 212.439C75.0633 217.366 64.6162 221.373 51.7293 221.373C38.8424 221.373 28.3953 217.379 28.3953 212.439C28.3953 207.498 38.8424 203.504 51.7293 203.504C64.6162 203.504 75.0633 207.511 75.0633 212.439Z" fill="url(#paint109_linear_280_2)"/>
<path opacity="0.2" d="M68.5744 212.439C68.5744 216.005 61.0213 218.883 51.7163 218.883C42.4112 218.883 34.8582 215.992 34.8582 212.439C34.8582 208.873 42.4112 205.994 51.7163 205.994C61.0213 205.994 68.5744 208.873 68.5744 212.439Z" fill="url(#paint110_linear_280_2)"/>
<path opacity="0.2" d="M62.5527 212.439C62.5527 214.721 57.699 216.575 51.7292 216.575C45.7465 216.575 40.9058 214.721 40.9058 212.439C40.9058 210.156 45.7594 208.302 51.7292 208.302C57.699 208.302 62.5527 210.156 62.5527 212.439Z" fill="url(#paint111_linear_280_2)"/>
<path opacity="0.2" d="M57.8157 212.439C57.8157 213.722 55.0904 214.773 51.7292 214.773C48.3679 214.773 45.6426 213.735 45.6426 212.439C45.6426 211.142 48.3679 210.105 51.7292 210.105C55.0774 210.105 57.8157 211.155 57.8157 212.439Z" fill="url(#paint112_linear_280_2)"/>
<path d="M78.9046 201.222C73.999 197.371 63.6687 194.713 51.7162 194.713C40.2309 194.713 30.238 197.164 25.1247 200.768L21.491 200.742V206.279C21.491 212.672 35.0268 217.846 51.7162 217.846C68.4056 217.846 81.9414 212.672 81.9414 206.279V201.248L78.9046 201.222Z" fill="url(#paint113_linear_280_2)"/>
<path d="M78.9046 201.222C73.999 197.371 63.6687 194.713 51.7162 194.713C40.2309 194.713 30.238 197.164 25.1247 200.768L21.491 200.742V206.279C21.491 212.672 35.0268 217.846 51.7162 217.846C68.4056 217.846 81.9414 212.672 81.9414 206.279V201.248L78.9046 201.222Z" fill="#1CA7FB"/>
<path d="M81.9414 205.631V206.279C81.9414 212.672 68.4056 217.833 51.7162 217.833C35.0138 217.833 21.478 212.672 21.478 206.279V205.631C21.478 212.024 35.0138 217.198 51.7162 217.198C68.4186 217.198 81.9414 212.024 81.9414 205.631Z" fill="#1CA7FB"/>
<path d="M51.7162 212.309C68.4091 212.309 81.9414 207.13 81.9414 200.742C81.9414 194.354 68.4091 189.176 51.7162 189.176C35.0233 189.176 21.491 194.354 21.491 200.742C21.491 207.13 35.0233 212.309 51.7162 212.309Z" fill="#1CA7FB"/>
<path d="M51.7162 189.176C35.0138 189.176 21.491 194.35 21.491 200.742C21.491 207.135 35.0268 212.309 51.7162 212.309C68.4056 212.309 81.9414 207.135 81.9414 200.742C81.9544 194.363 68.4186 189.176 51.7162 189.176ZM51.7162 211.985C35.481 211.985 22.3215 206.954 22.3215 200.742C22.3215 194.531 35.481 189.5 51.7162 189.5C67.9514 189.5 81.1108 194.531 81.1108 200.742C81.1238 206.954 67.9514 211.985 51.7162 211.985Z" fill="#17FCD7"/>
<path opacity="0.2" d="M75.0633 200.742C75.0633 205.67 64.6162 209.677 51.7293 209.677C38.8424 209.677 28.3953 205.683 28.3953 200.742C28.3953 195.802 38.8424 191.808 51.7293 191.808C64.6162 191.821 75.0633 195.815 75.0633 200.742Z" fill="url(#paint114_linear_280_2)"/>
<path opacity="0.2" d="M68.5744 200.742C68.5744 204.308 61.0213 207.187 51.7163 207.187C42.4112 207.187 34.8582 204.295 34.8582 200.742C34.8582 197.176 42.4112 194.298 51.7163 194.298C61.0213 194.298 68.5744 197.176 68.5744 200.742Z" fill="url(#paint115_linear_280_2)"/>
<path opacity="0.2" d="M62.5527 200.742C62.5527 203.025 57.699 204.879 51.7292 204.879C45.7465 204.879 40.9058 203.025 40.9058 200.742C40.9058 198.46 45.7594 196.606 51.7292 196.606C57.699 196.606 62.5527 198.46 62.5527 200.742Z" fill="url(#paint116_linear_280_2)"/>
<path opacity="0.2" d="M57.8157 200.742C57.8157 202.026 55.0904 203.076 51.7292 203.076C48.3679 203.076 45.6426 202.039 45.6426 200.742C45.6426 199.446 48.3679 198.408 51.7292 198.408C55.0774 198.408 57.8157 199.459 57.8157 200.742Z" fill="url(#paint117_linear_280_2)"/>
<path d="M78.9046 188.904C73.999 185.052 63.6687 182.394 51.7162 182.394C40.2309 182.394 30.238 184.845 25.1247 188.45L21.491 188.424V193.961C21.491 200.353 35.0268 205.527 51.7162 205.527C68.4056 205.527 81.9414 200.353 81.9414 193.961V188.929L78.9046 188.904Z" fill="url(#paint118_linear_280_2)"/>
<path d="M78.9046 188.904C73.999 185.052 63.6687 182.394 51.7162 182.394C40.2309 182.394 30.238 184.845 25.1247 188.45L21.491 188.424V193.961C21.491 200.353 35.0268 205.527 51.7162 205.527C68.4056 205.527 81.9414 200.353 81.9414 193.961V188.929L78.9046 188.904Z" fill="#1CA7FB"/>
<path d="M81.9414 193.312V193.961C81.9414 200.353 68.4056 205.514 51.7162 205.514C35.0138 205.514 21.478 200.353 21.478 193.961V193.312C21.478 199.705 35.0138 204.879 51.7162 204.879C68.4186 204.879 81.9414 199.705 81.9414 193.312Z" fill="#1CA7FB"/>
<path d="M51.7162 199.99C68.4091 199.99 81.9414 194.812 81.9414 188.424C81.9414 182.036 68.4091 176.857 51.7162 176.857C35.0233 176.857 21.491 182.036 21.491 188.424C21.491 194.812 35.0233 199.99 51.7162 199.99Z" fill="#1CA7FB"/>
<path d="M51.7162 176.857C35.0138 176.857 21.491 182.031 21.491 188.424C21.491 194.816 35.0268 199.99 51.7162 199.99C68.4056 199.99 81.9414 194.816 81.9414 188.424C81.9544 182.031 68.4186 176.857 51.7162 176.857ZM51.7162 199.666C35.481 199.666 22.3215 194.635 22.3215 188.424C22.3215 182.213 35.481 177.181 51.7162 177.181C67.9514 177.181 81.1108 182.213 81.1108 188.424C81.1238 194.635 67.9514 199.666 51.7162 199.666Z" fill="#17FCD7"/>
<path opacity="0.2" d="M75.0633 188.424C75.0633 193.351 64.6162 197.358 51.7293 197.358C38.8424 197.358 28.3953 193.364 28.3953 188.424C28.3953 183.483 38.8424 179.49 51.7293 179.49C64.6162 179.49 75.0633 183.496 75.0633 188.424Z" fill="url(#paint119_linear_280_2)"/>
<path opacity="0.2" d="M68.5744 188.424C68.5744 191.99 61.0213 194.868 51.7163 194.868C42.4112 194.868 34.8582 191.977 34.8582 188.424C34.8582 184.871 42.4112 181.979 51.7163 181.979C61.0213 181.979 68.5744 184.858 68.5744 188.424Z" fill="url(#paint120_linear_280_2)"/>
<path opacity="0.2" d="M62.5527 188.424C62.5527 190.706 57.699 192.56 51.7292 192.56C45.7465 192.56 40.9058 190.706 40.9058 188.424C40.9058 186.142 45.7594 184.287 51.7292 184.287C57.699 184.287 62.5527 186.142 62.5527 188.424Z" fill="url(#paint121_linear_280_2)"/>
<path opacity="0.2" d="M57.8157 188.424C57.8157 189.707 55.0904 190.758 51.7292 190.758C48.3679 190.758 45.6426 189.72 45.6426 188.424C45.6426 187.127 48.3679 186.09 51.7292 186.09C55.0774 186.09 57.8157 187.14 57.8157 188.424Z" fill="url(#paint122_linear_280_2)"/>
<path opacity="0.2" d="M289.028 242.717C305.721 242.717 319.253 237.538 319.253 231.15C319.253 224.762 305.721 219.583 289.028 219.583C272.335 219.583 258.802 224.762 258.802 231.15C258.802 237.538 272.335 242.717 289.028 242.717Z" fill="url(#paint123_linear_280_2)"/>
<path d="M317.371 224.615C312.466 220.763 302.135 218.105 290.183 218.105C278.697 218.105 268.705 220.556 263.591 224.161L259.958 224.135V229.672C259.958 236.065 273.493 241.238 290.183 241.238C306.872 241.238 320.408 236.065 320.408 229.672V224.641L317.371 224.615Z" fill="url(#paint124_linear_280_2)"/>
<path d="M317.371 224.615C312.466 220.763 302.135 218.105 290.183 218.105C278.697 218.105 268.705 220.556 263.591 224.161L259.958 224.135V229.672C259.958 236.065 273.493 241.238 290.183 241.238C306.872 241.238 320.408 236.065 320.408 229.672V224.641L317.371 224.615Z" fill="#1CA7FB"/>
<path d="M290.183 235.701C306.876 235.701 320.408 230.523 320.408 224.135C320.408 217.747 306.876 212.568 290.183 212.568C273.49 212.568 259.958 217.747 259.958 224.135C259.958 230.523 273.49 235.701 290.183 235.701Z" fill="#1CA7FB"/>
<path d="M290.183 212.568C273.48 212.568 259.958 217.742 259.958 224.135C259.958 230.528 273.493 235.701 290.183 235.701C306.872 235.701 320.408 230.528 320.408 224.135C320.408 217.742 306.872 212.568 290.183 212.568ZM290.183 235.377C273.948 235.377 260.788 230.346 260.788 224.135C260.788 217.924 273.948 212.892 290.183 212.892C306.418 212.892 319.577 217.924 319.577 224.135C319.577 230.346 306.418 235.377 290.183 235.377Z" fill="#17FCD7"/>
<path opacity="0.2" d="M313.517 224.135C313.517 229.062 303.07 233.069 290.183 233.069C277.296 233.069 266.849 229.075 266.849 224.135C266.849 219.207 277.296 215.201 290.183 215.201C303.07 215.201 313.517 219.207 313.517 224.135Z" fill="url(#paint125_linear_280_2)"/>
<path opacity="0.2" d="M307.041 224.135C307.041 227.701 299.488 230.58 290.183 230.58C280.878 230.58 273.325 227.688 273.325 224.135C273.325 220.569 280.878 217.69 290.183 217.69C299.488 217.69 307.041 220.569 307.041 224.135Z" fill="url(#paint126_linear_280_2)"/>
<path opacity="0.2" d="M301.006 224.135C301.006 226.417 296.153 228.271 290.183 228.271C284.2 228.271 279.359 226.417 279.359 224.135C279.359 221.853 284.213 219.998 290.183 219.998C296.153 219.998 301.006 221.853 301.006 224.135Z" fill="url(#paint127_linear_280_2)"/>
<path opacity="0.2" d="M296.269 224.135C296.269 225.419 293.544 226.469 290.183 226.469C286.822 226.469 284.096 225.432 284.096 224.135C284.096 222.851 286.822 221.801 290.183 221.801C293.544 221.801 296.269 222.851 296.269 224.135Z" fill="url(#paint128_linear_280_2)"/>
<path d="M317.371 212.918C312.466 209.067 302.135 206.409 290.183 206.409C278.697 206.409 268.705 208.86 263.591 212.465L259.958 212.439V217.976C259.958 224.368 273.493 229.542 290.183 229.542C306.872 229.542 320.408 224.368 320.408 217.976V212.944L317.371 212.918Z" fill="url(#paint129_linear_280_2)"/>
<path d="M317.371 212.918C312.466 209.067 302.135 206.409 290.183 206.409C278.697 206.409 268.705 208.86 263.591 212.465L259.958 212.439V217.976C259.958 224.368 273.493 229.542 290.183 229.542C306.872 229.542 320.408 224.368 320.408 217.976V212.944L317.371 212.918Z" fill="#1CA7FB"/>
<path d="M320.408 217.327V217.976C320.408 224.368 306.872 229.529 290.183 229.529C273.48 229.529 259.945 224.368 259.945 217.976V217.327C259.945 223.72 273.48 228.894 290.183 228.894C306.872 228.894 320.408 223.72 320.408 217.327Z" fill="#1CA7FB"/>
<path d="M290.183 224.005C306.876 224.005 320.408 218.827 320.408 212.439C320.408 206.051 306.876 200.872 290.183 200.872C273.49 200.872 259.958 206.051 259.958 212.439C259.958 218.827 273.49 224.005 290.183 224.005Z" fill="#1CA7FB"/>
<path d="M290.183 200.872C273.48 200.872 259.958 206.046 259.958 212.439C259.958 218.831 273.493 224.005 290.183 224.005C306.872 224.005 320.408 218.831 320.408 212.439C320.408 206.046 306.872 200.872 290.183 200.872ZM290.183 223.681C273.948 223.681 260.788 218.65 260.788 212.439C260.788 206.227 273.948 201.196 290.183 201.196C306.418 201.196 319.577 206.227 319.577 212.439C319.577 218.65 306.418 223.681 290.183 223.681Z" fill="#17FCD7"/>
<path opacity="0.2" d="M313.517 212.439C313.517 217.366 303.07 221.373 290.183 221.373C277.296 221.373 266.849 217.379 266.849 212.439C266.849 207.498 277.296 203.504 290.183 203.504C303.07 203.504 313.517 207.511 313.517 212.439Z" fill="url(#paint130_linear_280_2)"/>
<path opacity="0.2" d="M307.041 212.439C307.041 216.005 299.488 218.883 290.183 218.883C280.878 218.883 273.325 215.992 273.325 212.439C273.325 208.873 280.878 205.994 290.183 205.994C299.488 205.994 307.041 208.873 307.041 212.439Z" fill="url(#paint131_linear_280_2)"/>
<path opacity="0.2" d="M301.006 212.439C301.006 214.721 296.153 216.575 290.183 216.575C284.2 216.575 279.359 214.721 279.359 212.439C279.359 210.156 284.213 208.302 290.183 208.302C296.153 208.302 301.006 210.156 301.006 212.439Z" fill="url(#paint132_linear_280_2)"/>
<path opacity="0.2" d="M296.269 212.439C296.269 213.722 293.544 214.773 290.183 214.773C286.822 214.773 284.096 213.735 284.096 212.439C284.096 211.142 286.822 210.105 290.183 210.105C293.544 210.105 296.269 211.155 296.269 212.439Z" fill="url(#paint133_linear_280_2)"/>
<path d="M56.8425 289.411L39.3485 278.882C38.7645 278.532 38.4011 277.896 38.4011 277.209V259.716C38.4011 258.964 39.2317 258.498 39.8806 258.887L57.6731 269.597C58.2571 269.947 58.6205 270.583 58.6205 271.27V288.425C58.6075 289.307 57.6212 289.878 56.8425 289.411Z" fill="#063444"/>
<path d="M56.3495 288.503L39.8937 278.596C39.3487 278.259 39.0112 277.663 39.0112 277.027V260.559C39.0112 259.846 39.7899 259.405 40.3999 259.781L57.1412 269.857C57.6862 270.194 58.0237 270.79 58.0237 271.426V287.57C58.0237 288.425 57.0893 288.957 56.3495 288.503Z" fill="#1CA7FB"/>
<path opacity="0.2" d="M53.8837 285.261L36.1951 274.615C35.5851 274.252 35.2087 273.591 35.2087 272.878V255.489C35.2087 254.698 36.0653 254.218 36.7401 254.62L54.4288 265.266C55.0388 265.629 55.4151 266.291 55.4151 267.004V284.393C55.4151 285.184 54.5586 285.663 53.8837 285.261Z" fill="url(#paint134_linear_280_2)"/>
<path d="M37.2593 258.731L42.6321 261.96L53.3647 268.43" stroke="white" stroke-width="0.15" stroke-miterlimit="10" stroke-linecap="round"/>
<path d="M37.2593 260.961L42.6321 264.19L53.3647 270.648" stroke="white" stroke-width="0.15" stroke-miterlimit="10" stroke-linecap="round"/>
<path d="M37.2593 263.179L42.6321 266.407L53.3647 272.878" stroke="white" stroke-width="0.15" stroke-miterlimit="10" stroke-linecap="round"/>
<path d="M37.2593 265.396L42.6321 268.625L53.3647 275.095" stroke="white" stroke-width="0.15" stroke-miterlimit="10" stroke-linecap="round"/>
<path d="M37.2593 267.626L42.6321 270.855L53.3647 277.313" stroke="white" stroke-width="0.15" stroke-miterlimit="10" stroke-linecap="round"/>
<path d="M37.2593 269.844L42.6321 273.072L53.3647 279.53" stroke="white" stroke-width="0.15" stroke-miterlimit="10" stroke-linecap="round"/>
<path d="M37.2593 272.061L42.6321 275.29L53.3647 281.76" stroke="white" stroke-width="0.15" stroke-miterlimit="10" stroke-linecap="round"/>
</g>
<path d="M289 212L289 206.693" stroke="white" stroke-miterlimit="10" stroke-linecap="round"/>
<path d="M289 195.017L289 107.221" stroke="white" stroke-miterlimit="10" stroke-linecap="round" stroke-dasharray="7.72 7.72"/>
<path d="M289 101.307L289 96L301.514 96" stroke="white" stroke-miterlimit="10" stroke-linecap="round"/>
<path d="M326.185 96L706.972 96" stroke="white" stroke-miterlimit="10" stroke-linecap="round" stroke-dasharray="6.88 6.88"/>
<path d="M719.486 96L732 96L732 101.307" stroke="white" stroke-miterlimit="10" stroke-linecap="round"/>
<path d="M732 108.283L732 113.59" stroke="white" stroke-miterlimit="10" stroke-linecap="round"/>
<defs>
<linearGradient id="paint0_linear_280_2" x1="281.924" y1="364.9" x2="328.006" y2="364.9" gradientUnits="userSpaceOnUse">
<stop stop-color="#772681"/>
<stop offset="1" stop-color="#A038A0"/>
</linearGradient>
<linearGradient id="paint1_linear_280_2" x1="46.0819" y1="358.143" x2="4.94404e-05" y2="358.143" gradientUnits="userSpaceOnUse">
<stop stop-color="#772681"/>
<stop offset="1" stop-color="#A038A0"/>
</linearGradient>
<linearGradient id="paint2_linear_280_2" x1="64.4192" y1="305.6" x2="271.765" y2="305.6" gradientUnits="userSpaceOnUse">
<stop stop-color="#772681"/>
<stop offset="1" stop-color="#A038A0"/>
</linearGradient>
<linearGradient id="paint3_linear_280_2" x1="92.2861" y1="281.466" x2="252.393" y2="281.466" gradientUnits="userSpaceOnUse">
<stop stop-color="#772681"/>
<stop offset="1" stop-color="#A038A0"/>
</linearGradient>
<linearGradient id="paint4_linear_280_2" x1="114.523" y1="281.466" x2="230.157" y2="281.466" gradientUnits="userSpaceOnUse">
<stop stop-color="#772681"/>
<stop offset="1" stop-color="#A038A0"/>
</linearGradient>
<linearGradient id="paint5_linear_280_2" x1="135.202" y1="281.466" x2="209.478" y2="281.466" gradientUnits="userSpaceOnUse">
<stop stop-color="#772681"/>
<stop offset="1" stop-color="#A038A0"/>
</linearGradient>
<linearGradient id="paint6_linear_280_2" x1="151.45" y1="281.467" x2="193.23" y2="281.467" gradientUnits="userSpaceOnUse">
<stop stop-color="#772681"/>
<stop offset="1" stop-color="#A038A0"/>
</linearGradient>
<linearGradient id="paint7_linear_280_2" x1="104.37" y1="237.844" x2="149.953" y2="109.359" gradientUnits="userSpaceOnUse">
<stop offset="0.0595" stop-color="#EAEBEB"/>
<stop offset="1" stop-color="#9AB8E9"/>
</linearGradient>
<linearGradient id="paint8_linear_280_2" x1="237.763" y1="237.844" x2="192.18" y2="109.359" gradientUnits="userSpaceOnUse">
<stop offset="0.0595" stop-color="#EAEBEB"/>
<stop offset="1" stop-color="#9AB8E9"/>
</linearGradient>
<linearGradient id="paint9_linear_280_2" x1="171.163" y1="302.258" x2="172.405" y2="195.107" gradientUnits="userSpaceOnUse">
<stop stop-color="white" stop-opacity="0"/>
<stop offset="0.7473" stop-color="white"/>
<stop offset="0.9509" stop-color="#FFE7A6"/>
<stop offset="1" stop-color="#FFE190"/>
</linearGradient>
<linearGradient id="paint10_linear_280_2" x1="172.341" y1="287.369" x2="173.302" y2="204.464" gradientUnits="userSpaceOnUse">
<stop stop-color="white" stop-opacity="0"/>
<stop offset="0.7473" stop-color="white"/>
<stop offset="0.9509" stop-color="#FFE7A6"/>
<stop offset="1" stop-color="#FFE190"/>
</linearGradient>
<linearGradient id="paint11_linear_280_2" x1="172.322" y1="276.742" x2="173.283" y2="193.931" gradientUnits="userSpaceOnUse">
<stop stop-color="white" stop-opacity="0"/>
<stop offset="0.7473" stop-color="white"/>
<stop offset="0.9509" stop-color="#FFE7A6"/>
<stop offset="1" stop-color="#FFE190"/>
</linearGradient>
<linearGradient id="paint12_linear_280_2" x1="129.202" y1="276.631" x2="130.161" y2="193.92" gradientUnits="userSpaceOnUse">
<stop stop-color="white" stop-opacity="0"/>
<stop offset="0.7473" stop-color="white"/>
<stop offset="0.9509" stop-color="#FFE7A6"/>
<stop offset="1" stop-color="#FFE190"/>
</linearGradient>
<linearGradient id="paint13_linear_280_2" x1="129.286" y1="266.419" x2="130.004" y2="204.497" gradientUnits="userSpaceOnUse">
<stop stop-color="white" stop-opacity="0"/>
<stop offset="0.7473" stop-color="white"/>
<stop offset="0.9509" stop-color="#FFE7A6"/>
<stop offset="1" stop-color="#FFE190"/>
</linearGradient>
<linearGradient id="paint14_linear_280_2" x1="212.539" y1="276.631" x2="213.498" y2="193.92" gradientUnits="userSpaceOnUse">
<stop stop-color="white" stop-opacity="0"/>
<stop offset="0.7473" stop-color="white"/>
<stop offset="0.9509" stop-color="#FFE7A6"/>
<stop offset="1" stop-color="#FFE190"/>
</linearGradient>
<linearGradient id="paint15_linear_280_2" x1="212.623" y1="266.419" x2="213.341" y2="204.497" gradientUnits="userSpaceOnUse">
<stop stop-color="white" stop-opacity="0"/>
<stop offset="0.7473" stop-color="white"/>
<stop offset="0.9509" stop-color="#FFE7A6"/>
<stop offset="1" stop-color="#FFE190"/>
</linearGradient>
<linearGradient id="paint16_linear_280_2" x1="171.635" y1="2.27001" x2="171.635" y2="22.8728" gradientUnits="userSpaceOnUse">
<stop stop-color="#1796FE"/>
<stop offset="0.8483" stop-color="#1E22F8"/>
</linearGradient>
<linearGradient id="paint17_linear_280_2" x1="172.206" y1="2.27001" x2="172.206" y2="22.8728" gradientUnits="userSpaceOnUse">
<stop stop-color="#1796FE"/>
<stop offset="0.8483" stop-color="#1E22F8"/>
</linearGradient>
<linearGradient id="paint18_linear_280_2" x1="172.706" y1="227.702" x2="172.706" y2="307.166" gradientUnits="userSpaceOnUse">
<stop stop-color="#FDEB04"/>
<stop offset="0.1133" stop-color="#F1BE1A"/>
<stop offset="0.2185" stop-color="#E89C2C"/>
<stop offset="0.305" stop-color="#E38736"/>
<stop offset="0.3618" stop-color="#E17F3A"/>
<stop offset="0.4067" stop-color="#EA6F59" stop-opacity="0.8195"/>
<stop offset="0.4611" stop-color="#F35F78" stop-opacity="0.6012"/>
<stop offset="0.5142" stop-color="#FA548E" stop-opacity="0.388"/>
<stop offset="0.565" stop-color="#FE4D9B" stop-opacity="0.1841"/>
<stop offset="0.6108" stop-color="#FF4BA0" stop-opacity="0"/>
</linearGradient>
<linearGradient id="paint19_linear_280_2" x1="172.915" y1="224.964" x2="172.915" y2="290.001" gradientUnits="userSpaceOnUse">
<stop stop-color="#FDEB04"/>
<stop offset="0.21" stop-color="#F3C417" stop-opacity="0.79"/>
<stop offset="0.4187" stop-color="#EBA626" stop-opacity="0.5813"/>
<stop offset="0.6225" stop-color="#E69031" stop-opacity="0.3775"/>
<stop offset="0.8189" stop-color="#E28338" stop-opacity="0.1811"/>
<stop offset="1" stop-color="#E17F3A" stop-opacity="0"/>
</linearGradient>
<linearGradient id="paint20_linear_280_2" x1="129.436" y1="206.272" x2="129.436" y2="267.214" gradientUnits="userSpaceOnUse">
<stop stop-color="#FDEB04"/>
<stop offset="0.1133" stop-color="#F1BE1A"/>
<stop offset="0.2185" stop-color="#E89C2C"/>
<stop offset="0.305" stop-color="#E38736"/>
<stop offset="0.3618" stop-color="#E17F3A"/>
<stop offset="0.4067" stop-color="#EA6F59" stop-opacity="0.8195"/>
<stop offset="0.4611" stop-color="#F35F78" stop-opacity="0.6012"/>
<stop offset="0.5142" stop-color="#FA548E" stop-opacity="0.388"/>
<stop offset="0.565" stop-color="#FE4D9B" stop-opacity="0.1841"/>
<stop offset="0.6108" stop-color="#FF4BA0" stop-opacity="0"/>
</linearGradient>
<linearGradient id="paint21_linear_280_2" x1="129.549" y1="204.173" x2="129.549" y2="254.05" gradientUnits="userSpaceOnUse">
<stop stop-color="#FDEB04"/>
<stop offset="0.21" stop-color="#F3C417" stop-opacity="0.79"/>
<stop offset="0.4187" stop-color="#EBA626" stop-opacity="0.5813"/>
<stop offset="0.6225" stop-color="#E69031" stop-opacity="0.3775"/>
<stop offset="0.8189" stop-color="#E28338" stop-opacity="0.1811"/>
<stop offset="1" stop-color="#E17F3A" stop-opacity="0"/>
</linearGradient>
<linearGradient id="paint22_linear_280_2" x1="213.347" y1="206.272" x2="213.347" y2="267.214" gradientUnits="userSpaceOnUse">
<stop stop-color="#FDEB04"/>
<stop offset="0.1133" stop-color="#F1BE1A"/>
<stop offset="0.2185" stop-color="#E89C2C"/>
<stop offset="0.305" stop-color="#E38736"/>
<stop offset="0.3618" stop-color="#E17F3A"/>
<stop offset="0.4067" stop-color="#EA6F59" stop-opacity="0.8195"/>
<stop offset="0.4611" stop-color="#F35F78" stop-opacity="0.6012"/>
<stop offset="0.5142" stop-color="#FA548E" stop-opacity="0.388"/>
<stop offset="0.565" stop-color="#FE4D9B" stop-opacity="0.1841"/>
<stop offset="0.6108" stop-color="#FF4BA0" stop-opacity="0"/>
</linearGradient>
<linearGradient id="paint23_linear_280_2" x1="213.461" y1="204.173" x2="213.461" y2="254.05" gradientUnits="userSpaceOnUse">
<stop stop-color="#FDEB04"/>
<stop offset="0.21" stop-color="#F3C417" stop-opacity="0.79"/>
<stop offset="0.4187" stop-color="#EBA626" stop-opacity="0.5813"/>
<stop offset="0.6225" stop-color="#E69031" stop-opacity="0.3775"/>
<stop offset="0.8189" stop-color="#E28338" stop-opacity="0.1811"/>
<stop offset="1" stop-color="#E17F3A" stop-opacity="0"/>
</linearGradient>
<linearGradient id="paint24_linear_280_2" x1="134.575" y1="125.594" x2="208.695" y2="125.594" gradientUnits="userSpaceOnUse">
<stop stop-color="#EAEBEB"/>
<stop offset="0.1229" stop-color="#C8D5EA"/>
<stop offset="0.24" stop-color="#AEC5EA"/>
<stop offset="0.3464" stop-color="#9FBBE9"/>
<stop offset="0.4324" stop-color="#9AB8E9"/>
<stop offset="0.9405" stop-color="#EAEBEB"/>
</linearGradient>
<linearGradient id="paint25_linear_280_2" x1="134.567" y1="218.726" x2="208.703" y2="218.726" gradientUnits="userSpaceOnUse">
<stop stop-color="#1796FE"/>
<stop offset="1" stop-color="#1E22F8"/>
</linearGradient>
<linearGradient id="paint26_linear_280_2" x1="134.885" y1="93.1621" x2="208.37" y2="93.1621" gradientUnits="userSpaceOnUse">
<stop stop-color="#1796FE"/>
<stop offset="1" stop-color="#1E22F8"/>
</linearGradient>
<linearGradient id="paint27_linear_280_2" x1="135.964" y1="86.2846" x2="207.277" y2="86.2846" gradientUnits="userSpaceOnUse">
<stop stop-color="#1796FE"/>
<stop offset="1" stop-color="#1E22F8"/>
</linearGradient>
<linearGradient id="paint28_linear_280_2" x1="158.459" y1="33.8918" x2="184.781" y2="33.8918" gradientUnits="userSpaceOnUse">
<stop stop-color="#1796FE"/>
<stop offset="0.4483" stop-color="#1E22F8"/>
<stop offset="0.6005" stop-color="#1C3EF9"/>
<stop offset="0.9278" stop-color="#1885FD"/>
<stop offset="1" stop-color="#1796FE"/>
</linearGradient>
<linearGradient id="paint29_linear_280_2" x1="134.575" y1="124.775" x2="171.62" y2="124.775" gradientUnits="userSpaceOnUse">
<stop stop-color="#EAEBEB"/>
<stop offset="0.1229" stop-color="#C8D5EA"/>
<stop offset="0.24" stop-color="#AEC5EA"/>
<stop offset="0.3464" stop-color="#9FBBE9"/>
<stop offset="0.4324" stop-color="#9AB8E9"/>
<stop offset="0.9405" stop-color="#EAEBEB"/>
</linearGradient>
<linearGradient id="paint30_linear_280_2" x1="208.695" y1="124.775" x2="171.65" y2="124.775" gradientUnits="userSpaceOnUse">
<stop stop-color="#EAEBEB"/>
<stop offset="0.1229" stop-color="#C8D5EA"/>
<stop offset="0.24" stop-color="#AEC5EA"/>
<stop offset="0.3464" stop-color="#9FBBE9"/>
<stop offset="0.4324" stop-color="#9AB8E9"/>
<stop offset="0.9405" stop-color="#EAEBEB"/>
</linearGradient>
<linearGradient id="paint31_linear_280_2" x1="156.598" y1="197.338" x2="189.883" y2="198.006" gradientUnits="userSpaceOnUse">
<stop stop-color="#1796FE"/>
<stop offset="1" stop-color="#1796FE"/>
</linearGradient>
<linearGradient id="paint32_linear_280_2" x1="159.067" y1="200.82" x2="186.779" y2="201.376" gradientUnits="userSpaceOnUse">
<stop stop-color="#1796FE"/>
<stop offset="0.4483" stop-color="#1E22F8"/>
<stop offset="0.6005" stop-color="#1C3EF9"/>
<stop offset="0.9278" stop-color="#1885FD"/>
<stop offset="1" stop-color="#1796FE"/>
</linearGradient>
<linearGradient id="paint33_linear_280_2" x1="155.402" y1="213.187" x2="182.132" y2="231.999" gradientUnits="userSpaceOnUse">
<stop stop-color="#EAEBEB"/>
<stop offset="0.3027" stop-color="#9AB8E9"/>
<stop offset="0.7568" stop-color="#EAEBEB"/>
</linearGradient>
<linearGradient id="paint34_linear_280_2" x1="180.266" y1="184.467" x2="166.882" y2="195.405" gradientUnits="userSpaceOnUse">
<stop stop-color="#1796FE"/>
<stop offset="0.067" stop-color="#247BFD"/>
<stop offset="0.1776" stop-color="#3755FC"/>
<stop offset="0.2798" stop-color="#443AFB"/>
<stop offset="0.3697" stop-color="#4C29FA"/>
<stop offset="0.4375" stop-color="#4F23FA"/>
<stop offset="0.5238" stop-color="#4C29FA"/>
<stop offset="0.6412" stop-color="#443BFB"/>
<stop offset="0.7763" stop-color="#3657FC"/>
<stop offset="0.9237" stop-color="#227FFD"/>
<stop offset="1" stop-color="#1796FE"/>
</linearGradient>
<linearGradient id="paint35_linear_280_2" x1="180.266" y1="183.893" x2="166.883" y2="194.83" gradientUnits="userSpaceOnUse">
<stop stop-color="#1CA7FB"/>
<stop offset="1" stop-color="#17FCD7"/>
</linearGradient>
<linearGradient id="paint36_linear_280_2" x1="180.266" y1="183.893" x2="166.883" y2="194.83" gradientUnits="userSpaceOnUse">
<stop stop-color="#1CA7FB"/>
<stop offset="1" stop-color="#17FCD7"/>
</linearGradient>
<linearGradient id="paint37_linear_280_2" x1="178.695" y1="185.174" x2="167.974" y2="193.936" gradientUnits="userSpaceOnUse">
<stop stop-color="#D5E5EA"/>
<stop offset="1" stop-color="#5CC0BF"/>
</linearGradient>
<linearGradient id="paint38_linear_280_2" x1="173.256" y1="187.608" x2="169.489" y2="187.867" gradientUnits="userSpaceOnUse">
<stop stop-color="#D5E5EA"/>
<stop offset="1" stop-color="#5CC0BF"/>
</linearGradient>
<linearGradient id="paint39_linear_280_2" x1="170.186" y1="190.956" x2="168.252" y2="191.425" gradientUnits="userSpaceOnUse">
<stop stop-color="#D5E5EA"/>
<stop offset="1" stop-color="#5CC0BF"/>
</linearGradient>
<linearGradient id="paint40_linear_280_2" x1="120.673" y1="178.803" x2="134.956" y2="179.09" gradientUnits="userSpaceOnUse">
<stop stop-color="#1796FE"/>
<stop offset="0.1197" stop-color="#1885FD"/>
<stop offset="0.6617" stop-color="#1C3EF9"/>
<stop offset="0.9138" stop-color="#1E22F8"/>
</linearGradient>
<linearGradient id="paint41_linear_280_2" x1="117.437" y1="197.186" x2="133.629" y2="208.582" gradientUnits="userSpaceOnUse">
<stop stop-color="#EAEBEB"/>
<stop offset="0.3027" stop-color="#9AB8E9"/>
<stop offset="0.7568" stop-color="#EAEBEB"/>
</linearGradient>
<linearGradient id="paint42_linear_280_2" x1="131.473" y1="166.131" x2="119.427" y2="175.976" gradientUnits="userSpaceOnUse">
<stop stop-color="#1796FE"/>
<stop offset="0.067" stop-color="#247BFD"/>
<stop offset="0.1776" stop-color="#3755FC"/>
<stop offset="0.2798" stop-color="#443AFB"/>
<stop offset="0.3697" stop-color="#4C29FA"/>
<stop offset="0.4375" stop-color="#4F23FA"/>
<stop offset="0.5238" stop-color="#4C29FA"/>
<stop offset="0.6412" stop-color="#443BFB"/>
<stop offset="0.7763" stop-color="#3657FC"/>
<stop offset="0.9237" stop-color="#227FFD"/>
<stop offset="1" stop-color="#1796FE"/>
</linearGradient>
<linearGradient id="paint43_linear_280_2" x1="131.513" y1="165.624" x2="119.524" y2="175.422" gradientUnits="userSpaceOnUse">
<stop stop-color="#1CA7FB"/>
<stop offset="1" stop-color="#17FCD7"/>
</linearGradient>
<linearGradient id="paint44_linear_280_2" x1="131.513" y1="165.624" x2="119.524" y2="175.422" gradientUnits="userSpaceOnUse">
<stop stop-color="#1CA7FB"/>
<stop offset="1" stop-color="#17FCD7"/>
</linearGradient>
<linearGradient id="paint45_linear_280_2" x1="129.779" y1="166.6" x2="120.149" y2="174.471" gradientUnits="userSpaceOnUse">
<stop stop-color="#D5E5EA"/>
<stop offset="1" stop-color="#5CC0BF"/>
</linearGradient>
<linearGradient id="paint46_linear_280_2" x1="222.597" y1="178.803" x2="208.314" y2="179.09" gradientUnits="userSpaceOnUse">
<stop stop-color="#1796FE"/>
<stop offset="0.1197" stop-color="#1885FD"/>
<stop offset="0.6617" stop-color="#1C3EF9"/>
<stop offset="0.9138" stop-color="#1E22F8"/>
</linearGradient>
<linearGradient id="paint47_linear_280_2" x1="225.833" y1="197.186" x2="209.641" y2="208.582" gradientUnits="userSpaceOnUse">
<stop stop-color="#EAEBEB"/>
<stop offset="0.3027" stop-color="#9AB8E9"/>
<stop offset="0.7568" stop-color="#EAEBEB"/>
</linearGradient>
<linearGradient id="paint48_linear_280_2" x1="211.797" y1="166.131" x2="223.843" y2="175.976" gradientUnits="userSpaceOnUse">
<stop stop-color="#1796FE"/>
<stop offset="0.067" stop-color="#247BFD"/>
<stop offset="0.1776" stop-color="#3755FC"/>
<stop offset="0.2798" stop-color="#443AFB"/>
<stop offset="0.3697" stop-color="#4C29FA"/>
<stop offset="0.4375" stop-color="#4F23FA"/>
<stop offset="0.5238" stop-color="#4C29FA"/>
<stop offset="0.6412" stop-color="#443BFB"/>
<stop offset="0.7763" stop-color="#3657FC"/>
<stop offset="0.9237" stop-color="#227FFD"/>
<stop offset="1" stop-color="#1796FE"/>
</linearGradient>
<linearGradient id="paint49_linear_280_2" x1="211.757" y1="165.624" x2="223.746" y2="175.422" gradientUnits="userSpaceOnUse">
<stop stop-color="#1CA7FB"/>
<stop offset="1" stop-color="#17FCD7"/>
</linearGradient>
<linearGradient id="paint50_linear_280_2" x1="211.757" y1="165.624" x2="223.746" y2="175.422" gradientUnits="userSpaceOnUse">
<stop stop-color="#1CA7FB"/>
<stop offset="1" stop-color="#17FCD7"/>
</linearGradient>
<linearGradient id="paint51_linear_280_2" x1="213.49" y1="166.6" x2="223.121" y2="174.471" gradientUnits="userSpaceOnUse">
<stop stop-color="#D5E5EA"/>
<stop offset="1" stop-color="#5CC0BF"/>
</linearGradient>
<linearGradient id="paint52_linear_280_2" x1="156.184" y1="136.949" x2="187.086" y2="136.949" gradientUnits="userSpaceOnUse">
<stop stop-color="#6A23FA"/>
<stop offset="1" stop-color="#1796FE"/>
</linearGradient>
<linearGradient id="paint53_linear_280_2" x1="156.184" y1="136.949" x2="187.086" y2="136.949" gradientUnits="userSpaceOnUse">
<stop stop-color="#1E22F8"/>
<stop offset="1" stop-color="#1796FE"/>
</linearGradient>
<linearGradient id="paint54_linear_280_2" x1="158.454" y1="130.026" x2="186.997" y2="141.881" gradientUnits="userSpaceOnUse">
<stop stop-color="#1796FE"/>
<stop offset="1" stop-color="#1E22F8"/>
</linearGradient>
<linearGradient id="paint55_linear_280_2" x1="162.026" y1="128.731" x2="181.44" y2="142.394" gradientUnits="userSpaceOnUse">
<stop stop-color="#D5E5EA"/>
<stop offset="1" stop-color="#5CC0BF"/>
</linearGradient>
<linearGradient id="paint56_linear_280_2" x1="159.756" y1="129.164" x2="183.499" y2="129.164" gradientUnits="userSpaceOnUse">
<stop stop-color="#D5E5EA"/>
<stop offset="1" stop-color="#A6E5D8"/>
</linearGradient>
<linearGradient id="paint57_linear_280_2" x1="158.327" y1="136.565" x2="187.086" y2="136.565" gradientUnits="userSpaceOnUse">
<stop stop-color="#256290"/>
<stop offset="1" stop-color="#43BAC5"/>
</linearGradient>
<linearGradient id="paint58_linear_280_2" x1="165.154" y1="129.164" x2="171.638" y2="129.164" gradientUnits="userSpaceOnUse">
<stop stop-color="#D5E5EA"/>
<stop offset="1" stop-color="#A6E5D8"/>
</linearGradient>
<linearGradient id="paint59_linear_280_2" x1="162.025" y1="135.492" x2="166.542" y2="135.492" gradientUnits="userSpaceOnUse">
<stop stop-color="#D5E5EA"/>
<stop offset="1" stop-color="#A6E5D8"/>
</linearGradient>
<radialGradient id="paint60_radial_280_2" cx="0" cy="0" r="1" gradientUnits="userSpaceOnUse" gradientTransform="translate(132.056 254.979) scale(0.863668 0.862953)">
<stop stop-color="white"/>
<stop offset="1" stop-color="#0ADBFB"/>
</radialGradient>
<radialGradient id="paint61_radial_280_2" cx="0" cy="0" r="1" gradientUnits="userSpaceOnUse" gradientTransform="translate(140.424 239.547) scale(0.863802 0.863082)">
<stop stop-color="white"/>
<stop offset="1" stop-color="#0ADBFB"/>
</radialGradient>
<radialGradient id="paint62_radial_280_2" cx="0" cy="0" r="1" gradientUnits="userSpaceOnUse" gradientTransform="translate(172.706 245.23) scale(0.863807 0.863082)">
<stop stop-color="white"/>
<stop offset="1" stop-color="#0ADBFB"/>
</radialGradient>
<radialGradient id="paint63_radial_280_2" cx="0" cy="0" r="1" gradientUnits="userSpaceOnUse" gradientTransform="translate(196.038 265.42) scale(0.863798 0.863082)">
<stop stop-color="white"/>
<stop offset="1" stop-color="#0ADBFB"/>
</radialGradient>
<radialGradient id="paint64_radial_280_2" cx="0" cy="0" r="1" gradientUnits="userSpaceOnUse" gradientTransform="translate(152.313 254.979) scale(0.863798 0.863082)">
<stop stop-color="white"/>
<stop offset="1" stop-color="#0ADBFB"/>
</radialGradient>
<radialGradient id="paint65_radial_280_2" cx="0" cy="0" r="1" gradientUnits="userSpaceOnUse" gradientTransform="translate(154.041 228.389) scale(0.863673 0.862953)">
<stop stop-color="white"/>
<stop offset="1" stop-color="#0ADBFB"/>
</radialGradient>
<radialGradient id="paint66_radial_280_2" cx="0" cy="0" r="1" gradientUnits="userSpaceOnUse" gradientTransform="translate(150.586 240.941) scale(0.409837 0.409498)">
<stop stop-color="white"/>
<stop offset="1" stop-color="#0ADBFB"/>
</radialGradient>
<radialGradient id="paint67_radial_280_2" cx="0" cy="0" r="1" gradientUnits="userSpaceOnUse" gradientTransform="translate(124.112 225.526) scale(0.409837 0.409498)">
<stop stop-color="white"/>
<stop offset="1" stop-color="#0ADBFB"/>
</radialGradient>
<radialGradient id="paint68_radial_280_2" cx="0" cy="0" r="1" gradientUnits="userSpaceOnUse" gradientTransform="translate(131.193 219.02) scale(0.409842 0.409498)">
<stop stop-color="white"/>
<stop offset="1" stop-color="#0ADBFB"/>
</radialGradient>
<radialGradient id="paint69_radial_280_2" cx="0" cy="0" r="1" gradientUnits="userSpaceOnUse" gradientTransform="translate(144.609 225.526) scale(0.409837 0.409498)">
<stop stop-color="white"/>
<stop offset="1" stop-color="#0ADBFB"/>
</radialGradient>
<radialGradient id="paint70_radial_280_2" cx="0" cy="0" r="1" gradientUnits="userSpaceOnUse" gradientTransform="translate(129.436 237.156) scale(0.409837 0.409498)">
<stop stop-color="white"/>
<stop offset="1" stop-color="#0ADBFB"/>
</radialGradient>
<radialGradient id="paint71_radial_280_2" cx="0" cy="0" r="1" gradientUnits="userSpaceOnUse" gradientTransform="translate(161.021 244.367) scale(0.409837 0.409498)">
<stop stop-color="white"/>
<stop offset="1" stop-color="#0ADBFB"/>
</radialGradient>
<radialGradient id="paint72_radial_280_2" cx="0" cy="0" r="1" gradientUnits="userSpaceOnUse" gradientTransform="translate(141.698 271.426) scale(0.409837 0.409498)">
<stop stop-color="white"/>
<stop offset="1" stop-color="#0ADBFB"/>
</radialGradient>
<radialGradient id="paint73_radial_280_2" cx="0" cy="0" r="1" gradientUnits="userSpaceOnUse" gradientTransform="translate(150.586 279.857) scale(0.409837 0.409498)">
<stop stop-color="white"/>
<stop offset="1" stop-color="#0ADBFB"/>
</radialGradient>
<radialGradient id="paint74_radial_280_2" cx="0" cy="0" r="1" gradientUnits="userSpaceOnUse" gradientTransform="translate(166.685 279.038) scale(0.409837 0.409498)">
<stop stop-color="white"/>
<stop offset="1" stop-color="#0ADBFB"/>
</radialGradient>
<radialGradient id="paint75_radial_280_2" cx="0" cy="0" r="1" gradientUnits="userSpaceOnUse" gradientTransform="translate(175.751 282.782) scale(0.409837 0.409498)">
<stop stop-color="white"/>
<stop offset="1" stop-color="#0ADBFB"/>
</radialGradient>
<radialGradient id="paint76_radial_280_2" cx="0" cy="0" r="1" gradientUnits="userSpaceOnUse" gradientTransform="translate(181.126 276.838) scale(0.409837 0.409498)">
<stop stop-color="white"/>
<stop offset="1" stop-color="#0ADBFB"/>
</radialGradient>
<radialGradient id="paint77_radial_280_2" cx="0" cy="0" r="1" gradientUnits="userSpaceOnUse" gradientTransform="translate(190.048 279.447) scale(0.409837 0.409498)">
<stop stop-color="white"/>
<stop offset="1" stop-color="#0ADBFB"/>
</radialGradient>
<radialGradient id="paint78_radial_280_2" cx="0" cy="0" r="1" gradientUnits="userSpaceOnUse" gradientTransform="translate(183.998 261.645) scale(0.409837 0.409498)">
<stop stop-color="white"/>
<stop offset="1" stop-color="#0ADBFB"/>
</radialGradient>
<radialGradient id="paint79_radial_280_2" cx="0" cy="0" r="1" gradientUnits="userSpaceOnUse" gradientTransform="translate(194.389 256.705) scale(0.409837 0.409498)">
<stop stop-color="white"/>
<stop offset="1" stop-color="#0ADBFB"/>
</radialGradient>
<radialGradient id="paint80_radial_280_2" cx="0" cy="0" r="1" gradientUnits="userSpaceOnUse" gradientTransform="translate(198.769 240.411) scale(0.409837 0.409498)">
<stop stop-color="white"/>
<stop offset="1" stop-color="#0ADBFB"/>
</radialGradient>
<radialGradient id="paint81_radial_280_2" cx="0" cy="0" r="1" gradientUnits="userSpaceOnUse" gradientTransform="translate(212.886 242.214) scale(0.409837 0.409498)">
<stop stop-color="white"/>
<stop offset="1" stop-color="#0ADBFB"/>
</radialGradient>
<radialGradient id="paint82_radial_280_2" cx="0" cy="0" r="1" gradientUnits="userSpaceOnUse" gradientTransform="translate(224.802 244.776) scale(0.409837 0.409498)">
<stop stop-color="white"/>
<stop offset="1" stop-color="#0ADBFB"/>
</radialGradient>
<radialGradient id="paint83_radial_280_2" cx="0" cy="0" r="1" gradientUnits="userSpaceOnUse" gradientTransform="translate(165.821 251.703) scale(0.409837 0.409498)">
<stop stop-color="white"/>
<stop offset="1" stop-color="#0ADBFB"/>
</radialGradient>
<radialGradient id="paint84_radial_280_2" cx="0" cy="0" r="1" gradientUnits="userSpaceOnUse" gradientTransform="translate(156.303 273.475) scale(0.409837 0.409498)">
<stop stop-color="white"/>
<stop offset="1" stop-color="#0ADBFB"/>
</radialGradient>
<radialGradient id="paint85_radial_280_2" cx="0" cy="0" r="1" gradientUnits="userSpaceOnUse" gradientTransform="translate(173.98 270.607) scale(0.409837 0.409498)">
<stop stop-color="white"/>
<stop offset="1" stop-color="#0ADBFB"/>
</radialGradient>
<radialGradient id="paint86_radial_280_2" cx="0" cy="0" r="1" gradientUnits="userSpaceOnUse" gradientTransform="translate(192.53 271.017) scale(0.409837 0.409508)">
<stop stop-color="white"/>
<stop offset="1" stop-color="#0ADBFB"/>
</radialGradient>
<radialGradient id="paint87_radial_280_2" cx="0" cy="0" r="1" gradientUnits="userSpaceOnUse" gradientTransform="translate(202.728 271.836) scale(0.409837 0.409498)">
<stop stop-color="white"/>
<stop offset="1" stop-color="#0ADBFB"/>
</radialGradient>
<radialGradient id="paint88_radial_280_2" cx="0" cy="0" r="1" gradientUnits="userSpaceOnUse" gradientTransform="translate(178.13 254.116) scale(0.409837 0.409498)">
<stop stop-color="white"/>
<stop offset="1" stop-color="#0ADBFB"/>
</radialGradient>
<radialGradient id="paint89_radial_280_2" cx="0" cy="0" r="1" gradientUnits="userSpaceOnUse" gradientTransform="translate(206.749 258.69) scale(0.409837 0.409508)">
<stop stop-color="white"/>
<stop offset="1" stop-color="#0ADBFB"/>
</radialGradient>
<radialGradient id="paint90_radial_280_2" cx="0" cy="0" r="1" gradientUnits="userSpaceOnUse" gradientTransform="translate(216.546 254.116) scale(0.409837 0.409498)">
<stop stop-color="white"/>
<stop offset="1" stop-color="#0ADBFB"/>
</radialGradient>
<radialGradient id="paint91_radial_280_2" cx="0" cy="0" r="1" gradientUnits="userSpaceOnUse" gradientTransform="translate(190.172 248.843) scale(0.409837 0.409498)">
<stop stop-color="white"/>
<stop offset="1" stop-color="#0ADBFB"/>
</radialGradient>
<radialGradient id="paint92_radial_280_2" cx="0" cy="0" r="1" gradientUnits="userSpaceOnUse" gradientTransform="translate(201.001 229.662) scale(0.409837 0.409498)">
<stop stop-color="white"/>
<stop offset="1" stop-color="#0ADBFB"/>
</radialGradient>
<radialGradient id="paint93_radial_280_2" cx="0" cy="0" r="1" gradientUnits="userSpaceOnUse" gradientTransform="translate(181.536 240.001) scale(0.409837 0.409498)">
<stop stop-color="white"/>
<stop offset="1" stop-color="#0ADBFB"/>
</radialGradient>
<radialGradient id="paint94_radial_280_2" cx="0" cy="0" r="1" gradientUnits="userSpaceOnUse" gradientTransform="translate(135.202 267.668) scale(0.409837 0.409498)">
<stop stop-color="white"/>
<stop offset="1" stop-color="#0ADBFB"/>
</radialGradient>
<radialGradient id="paint95_radial_280_2" cx="0" cy="0" r="1" gradientUnits="userSpaceOnUse" gradientTransform="translate(141.698 258.69) scale(0.409837 0.409508)">
<stop stop-color="white"/>
<stop offset="1" stop-color="#0ADBFB"/>
</radialGradient>
<radialGradient id="paint96_radial_280_2" cx="0" cy="0" r="1" gradientUnits="userSpaceOnUse" gradientTransform="translate(123.702 248.433) scale(0.409837 0.409498)">
<stop stop-color="white"/>
<stop offset="1" stop-color="#0ADBFB"/>
</radialGradient>
<radialGradient id="paint97_radial_280_2" cx="0" cy="0" r="1" gradientUnits="userSpaceOnUse" gradientTransform="translate(201.864 250.84) scale(0.863807 0.863082)">
<stop stop-color="white"/>
<stop offset="1" stop-color="#0ADBFB"/>
</radialGradient>
<radialGradient id="paint98_radial_280_2" cx="0" cy="0" r="1" gradientUnits="userSpaceOnUse" gradientTransform="translate(191.666 229.252) scale(0.863807 0.863082)">
<stop stop-color="white"/>
<stop offset="1" stop-color="#0ADBFB"/>
</radialGradient>
<radialGradient id="paint99_radial_280_2" cx="0" cy="0" r="1" gradientUnits="userSpaceOnUse" gradientTransform="translate(231.02 255.842) scale(0.863798 0.863082)">
<stop stop-color="white"/>
<stop offset="1" stop-color="#0ADBFB"/>
</radialGradient>
<radialGradient id="paint100_radial_280_2" cx="0" cy="0" r="1" gradientUnits="userSpaceOnUse" gradientTransform="translate(166.685 260.782) scale(0.863802 0.863082)">
<stop stop-color="white"/>
<stop offset="1" stop-color="#0ADBFB"/>
</radialGradient>
<radialGradient id="paint101_radial_280_2" cx="0" cy="0" r="1" gradientUnits="userSpaceOnUse" gradientTransform="translate(218.717 235.884) scale(0.863798 0.863082)">
<stop stop-color="white"/>
<stop offset="1" stop-color="#0ADBFB"/>
</radialGradient>
<linearGradient id="paint102_linear_280_2" x1="20.7081" y1="230.994" x2="81.1614" y2="230.994" gradientUnits="userSpaceOnUse">
<stop stop-color="#772681"/>
<stop offset="1" stop-color="#A038A0"/>
</linearGradient>
<linearGradient id="paint103_linear_280_2" x1="21.4927" y1="229.668" x2="81.9461" y2="229.668" gradientUnits="userSpaceOnUse">
<stop stop-color="#004EFF"/>
<stop offset="0.1726" stop-color="#0053FF"/>
<stop offset="0.3689" stop-color="#0160FF"/>
<stop offset="0.5768" stop-color="#0377FF"/>
<stop offset="0.7914" stop-color="#0597FF"/>
<stop offset="1" stop-color="#08BDFF"/>
</linearGradient>
<linearGradient id="paint104_linear_280_2" x1="28.3792" y1="224.135" x2="75.0598" y2="224.135" gradientUnits="userSpaceOnUse">
<stop stop-color="#772681"/>
<stop offset="1" stop-color="#A038A0"/>
</linearGradient>
<linearGradient id="paint105_linear_280_2" x1="34.8624" y1="224.135" x2="68.5765" y2="224.135" gradientUnits="userSpaceOnUse">
<stop stop-color="#772681"/>
<stop offset="1" stop-color="#A038A0"/>
</linearGradient>
<linearGradient id="paint106_linear_280_2" x1="40.8916" y1="224.135" x2="62.5472" y2="224.135" gradientUnits="userSpaceOnUse">
<stop stop-color="#772681"/>
<stop offset="1" stop-color="#A038A0"/>
</linearGradient>
<linearGradient id="paint107_linear_280_2" x1="45.6287" y1="224.135" x2="57.81" y2="224.135" gradientUnits="userSpaceOnUse">
<stop stop-color="#772681"/>
<stop offset="1" stop-color="#A038A0"/>
</linearGradient>
<linearGradient id="paint108_linear_280_2" x1="21.4927" y1="217.973" x2="81.9461" y2="217.973" gradientUnits="userSpaceOnUse">
<stop stop-color="#004EFF"/>
<stop offset="0.1726" stop-color="#0053FF"/>
<stop offset="0.3689" stop-color="#0160FF"/>
<stop offset="0.5768" stop-color="#0377FF"/>
<stop offset="0.7914" stop-color="#0597FF"/>
<stop offset="1" stop-color="#08BDFF"/>
</linearGradient>
<linearGradient id="paint109_linear_280_2" x1="28.3792" y1="212.44" x2="75.0598" y2="212.44" gradientUnits="userSpaceOnUse">
<stop stop-color="#772681"/>
<stop offset="1" stop-color="#A038A0"/>
</linearGradient>
<linearGradient id="paint110_linear_280_2" x1="34.8624" y1="212.44" x2="68.5765" y2="212.44" gradientUnits="userSpaceOnUse">
<stop stop-color="#772681"/>
<stop offset="1" stop-color="#A038A0"/>
</linearGradient>
<linearGradient id="paint111_linear_280_2" x1="40.8916" y1="212.44" x2="62.5472" y2="212.44" gradientUnits="userSpaceOnUse">
<stop stop-color="#772681"/>
<stop offset="1" stop-color="#A038A0"/>
</linearGradient>
<linearGradient id="paint112_linear_280_2" x1="45.6287" y1="212.44" x2="57.81" y2="212.44" gradientUnits="userSpaceOnUse">
<stop stop-color="#772681"/>
<stop offset="1" stop-color="#A038A0"/>
</linearGradient>
<linearGradient id="paint113_linear_280_2" x1="21.4927" y1="206.277" x2="81.9461" y2="206.277" gradientUnits="userSpaceOnUse">
<stop stop-color="#004EFF"/>
<stop offset="0.1726" stop-color="#0053FF"/>
<stop offset="0.3689" stop-color="#0160FF"/>
<stop offset="0.5768" stop-color="#0377FF"/>
<stop offset="0.7914" stop-color="#0597FF"/>
<stop offset="1" stop-color="#08BDFF"/>
</linearGradient>
<linearGradient id="paint114_linear_280_2" x1="28.3792" y1="200.744" x2="75.0598" y2="200.744" gradientUnits="userSpaceOnUse">
<stop stop-color="#772681"/>
<stop offset="1" stop-color="#A038A0"/>
</linearGradient>
<linearGradient id="paint115_linear_280_2" x1="34.8624" y1="200.744" x2="68.5765" y2="200.744" gradientUnits="userSpaceOnUse">
<stop stop-color="#772681"/>
<stop offset="1" stop-color="#A038A0"/>
</linearGradient>
<linearGradient id="paint116_linear_280_2" x1="40.8916" y1="200.744" x2="62.5472" y2="200.744" gradientUnits="userSpaceOnUse">
<stop stop-color="#772681"/>
<stop offset="1" stop-color="#A038A0"/>
</linearGradient>
<linearGradient id="paint117_linear_280_2" x1="45.6287" y1="200.744" x2="57.81" y2="200.744" gradientUnits="userSpaceOnUse">
<stop stop-color="#772681"/>
<stop offset="1" stop-color="#A038A0"/>
</linearGradient>
<linearGradient id="paint118_linear_280_2" x1="21.4927" y1="193.957" x2="81.9461" y2="193.957" gradientUnits="userSpaceOnUse">
<stop stop-color="#1CA7FB"/>
<stop offset="0.1726" stop-color="#1CA7FB" stop-opacity="0.86"/>
<stop offset="0.3689" stop-color="#1CA7FB" stop-opacity="0.79"/>
<stop offset="0.5768" stop-color="#1CA7FB" stop-opacity="0.62"/>
<stop offset="0.7914" stop-color="#0597FF"/>
<stop offset="1" stop-color="#17FCD7"/>
</linearGradient>
<linearGradient id="paint119_linear_280_2" x1="28.3792" y1="188.424" x2="75.0598" y2="188.424" gradientUnits="userSpaceOnUse">
<stop stop-color="#772681"/>
<stop offset="1" stop-color="#A038A0"/>
</linearGradient>
<linearGradient id="paint120_linear_280_2" x1="34.8624" y1="188.424" x2="68.5765" y2="188.424" gradientUnits="userSpaceOnUse">
<stop stop-color="#772681"/>
<stop offset="1" stop-color="#A038A0"/>
</linearGradient>
<linearGradient id="paint121_linear_280_2" x1="40.8916" y1="188.424" x2="62.5472" y2="188.424" gradientUnits="userSpaceOnUse">
<stop stop-color="#772681"/>
<stop offset="1" stop-color="#A038A0"/>
</linearGradient>
<linearGradient id="paint122_linear_280_2" x1="45.6287" y1="188.424" x2="57.81" y2="188.424" gradientUnits="userSpaceOnUse">
<stop stop-color="#772681"/>
<stop offset="1" stop-color="#A038A0"/>
</linearGradient>
<linearGradient id="paint123_linear_280_2" x1="258.798" y1="231.146" x2="319.251" y2="231.146" gradientUnits="userSpaceOnUse">
<stop stop-color="#772681"/>
<stop offset="1" stop-color="#A038A0"/>
</linearGradient>
<linearGradient id="paint124_linear_280_2" x1="259.952" y1="229.668" x2="320.405" y2="229.668" gradientUnits="userSpaceOnUse">
<stop stop-color="#004EFF"/>
<stop offset="0.1726" stop-color="#0053FF"/>
<stop offset="0.3689" stop-color="#0160FF"/>
<stop offset="0.5768" stop-color="#0377FF"/>
<stop offset="0.7914" stop-color="#0597FF"/>
<stop offset="1" stop-color="#08BDFF"/>
</linearGradient>
<linearGradient id="paint125_linear_280_2" x1="266.838" y1="224.135" x2="313.519" y2="224.135" gradientUnits="userSpaceOnUse">
<stop stop-color="#772681"/>
<stop offset="1" stop-color="#A038A0"/>
</linearGradient>
<linearGradient id="paint126_linear_280_2" x1="273.322" y1="224.135" x2="307.036" y2="224.135" gradientUnits="userSpaceOnUse">
<stop stop-color="#772681"/>
<stop offset="1" stop-color="#A038A0"/>
</linearGradient>
<linearGradient id="paint127_linear_280_2" x1="279.351" y1="224.135" x2="301.007" y2="224.135" gradientUnits="userSpaceOnUse">
<stop stop-color="#772681"/>
<stop offset="1" stop-color="#A038A0"/>
</linearGradient>
<linearGradient id="paint128_linear_280_2" x1="284.088" y1="224.135" x2="296.269" y2="224.135" gradientUnits="userSpaceOnUse">
<stop stop-color="#772681"/>
<stop offset="1" stop-color="#A038A0"/>
</linearGradient>
<linearGradient id="paint129_linear_280_2" x1="259.952" y1="217.973" x2="320.405" y2="217.973" gradientUnits="userSpaceOnUse">
<stop stop-color="#004EFF"/>
<stop offset="0.1726" stop-color="#0053FF"/>
<stop offset="0.3689" stop-color="#0160FF"/>
<stop offset="0.5768" stop-color="#0377FF"/>
<stop offset="0.7914" stop-color="#0597FF"/>
<stop offset="1" stop-color="#08BDFF"/>
</linearGradient>
<linearGradient id="paint130_linear_280_2" x1="266.838" y1="212.44" x2="313.519" y2="212.44" gradientUnits="userSpaceOnUse">
<stop stop-color="#772681"/>
<stop offset="1" stop-color="#A038A0"/>
</linearGradient>
<linearGradient id="paint131_linear_280_2" x1="273.322" y1="212.44" x2="307.036" y2="212.44" gradientUnits="userSpaceOnUse">
<stop stop-color="#772681"/>
<stop offset="1" stop-color="#A038A0"/>
</linearGradient>
<linearGradient id="paint132_linear_280_2" x1="279.351" y1="212.44" x2="301.007" y2="212.44" gradientUnits="userSpaceOnUse">
<stop stop-color="#772681"/>
<stop offset="1" stop-color="#A038A0"/>
</linearGradient>
<linearGradient id="paint133_linear_280_2" x1="284.088" y1="212.44" x2="296.269" y2="212.44" gradientUnits="userSpaceOnUse">
<stop stop-color="#772681"/>
<stop offset="1" stop-color="#A038A0"/>
</linearGradient>
<linearGradient id="paint134_linear_280_2" x1="35.2121" y1="269.937" x2="55.4186" y2="269.937" gradientUnits="userSpaceOnUse">
<stop stop-color="#772681"/>
<stop offset="1" stop-color="#A038A0"/>
</linearGradient>
<clipPath id="clip0_280_2">
<rect width="328" height="379" fill="white"/>
</clipPath>
</defs>
</svg>
