<svg width="1060" height="311" viewBox="0 0 1060 311" fill="none" xmlns="http://www.w3.org/2000/svg">
<path d="M1 152L1 159.229" stroke="white" stroke-miterlimit="10" stroke-linecap="round"/>
<path d="M0.999995 175.132L1 294.717" stroke="white" stroke-miterlimit="10" stroke-linecap="round" stroke-dasharray="7.72 7.72"/>
<path d="M1 302.771L1 310L24.8418 310" stroke="white" stroke-miterlimit="10" stroke-linecap="round"/>
<path d="M71.8442 310L797.316 310" stroke="white" stroke-miterlimit="10" stroke-linecap="round" stroke-dasharray="6.88 6.88"/>
<path d="M820.76 310L845 310L845 175.44" stroke="white" stroke-miterlimit="10" stroke-linecap="round"/>
<path d="M845 293.27L845 286.041" stroke="white" stroke-miterlimit="10" stroke-linecap="round"/>
<g clip-path="url(#clip0_261_19)">
<mask id="mask0_261_19" style="mask-type:luminance" maskUnits="userSpaceOnUse" x="751" y="18" width="196" height="124">
<path d="M946.28 18.9404H751.034V141.668H946.28V18.9404Z" fill="white"/>
</mask>
<g mask="url(#mask0_261_19)">
<path d="M946.28 18.9404H751.034V141.668H946.28V18.9404Z" fill="url(#paint0_linear_261_19)"/>
</g>
<mask id="mask1_261_19" style="mask-type:luminance" maskUnits="userSpaceOnUse" x="643" y="63" width="153" height="191">
<path d="M644.076 208.575C643.384 211.424 643 214.35 643 217.275V217.352C643 230.903 650.761 243.838 663.823 249.843C668.587 251.999 673.582 253.077 678.576 253.077H678.73C690.255 253.077 701.32 247.457 708.005 237.679L795.831 119.109L736.051 91.6222L734.745 91.0063L674.888 63.5967L644.076 208.575Z" fill="white"/>
</mask>
<g mask="url(#mask1_261_19)">
<path d="M795.831 63.5967H643V253H795.831V63.5967Z" fill="url(#paint1_linear_261_19)"/>
</g>
<mask id="mask2_261_19" style="mask-type:luminance" maskUnits="userSpaceOnUse" x="907" y="63" width="153" height="191">
<path d="M968.255 91.0833L966.949 91.6992L907.169 119.109L994.995 237.679C1001.76 247.457 1012.82 253.077 1024.27 253.077H1024.42C1029.34 253.077 1034.34 251.999 1039.18 249.843C1052.24 243.838 1060 230.903 1060 217.352C1060 214.504 1059.62 211.578 1058.92 208.652L1028.11 63.5967L968.255 91.0833Z" fill="white"/>
</mask>
<g mask="url(#mask2_261_19)">
<path d="M1060 63.5967H907.169V253H1060V63.5967Z" fill="url(#paint2_linear_261_19)"/>
</g>
<mask id="mask3_261_19" style="mask-type:luminance" maskUnits="userSpaceOnUse" x="666" y="0" width="158" height="157">
<path d="M744.81 0C706.007 0 672.352 29.0265 667.434 68.601C662.133 111.486 692.484 150.599 735.282 155.911C778.081 161.224 817.115 130.812 822.417 87.9264C827.795 45.0411 797.444 5.92848 754.569 0.615946C751.342 0.23098 748.114 0 744.81 0Z" fill="white"/>
</mask>
<g mask="url(#mask3_261_19)">
<path d="M827.795 0H662.133V161.224H827.795V0Z" fill="url(#paint3_linear_261_19)"/>
</g>
<mask id="mask4_261_19" style="mask-type:luminance" maskUnits="userSpaceOnUse" x="879" y="0" width="158" height="157">
<path d="M958.113 0C954.886 0 951.658 0.23098 948.354 0.615946C905.556 5.92848 875.205 45.0411 880.506 87.9264C885.808 130.812 924.842 161.224 967.641 155.911C1010.44 150.599 1040.79 111.486 1035.49 68.601C1030.65 29.0265 996.993 0 958.113 0Z" fill="white"/>
</mask>
<g mask="url(#mask4_261_19)">
<path d="M1040.87 0H875.205V161.224H1040.87V0Z" fill="url(#paint4_linear_261_19)"/>
</g>
<mask id="mask5_261_19" style="mask-type:luminance" maskUnits="userSpaceOnUse" x="643" y="0" width="417" height="253">
<path d="M1060 0H643V253H1060V0Z" fill="white"/>
</mask>
<g mask="url(#mask5_261_19)">
<path d="M780.386 63.8273H761.331V44.733C761.331 40.6524 758.027 37.2646 753.877 37.2646H735.82C731.748 37.2646 728.367 40.5754 728.367 44.733V63.8273H709.465C705.392 63.8273 702.012 67.138 702.012 71.2957V89.3121C702.012 93.3928 705.316 96.7805 709.465 96.7805H728.521V115.875C728.521 119.955 731.825 123.343 735.974 123.343H754.031C758.103 123.343 761.484 120.032 761.484 115.875V96.7805H780.54C784.612 96.7805 787.993 93.4698 787.993 89.3121V71.2187C787.84 67.138 784.536 63.8273 780.386 63.8273Z" fill="#F3F3F3"/>
</g>
<mask id="mask6_261_19" style="mask-type:luminance" maskUnits="userSpaceOnUse" x="643" y="0" width="417" height="253">
<path d="M1060 0H643V253H1060V0Z" fill="white"/>
</mask>
<g mask="url(#mask6_261_19)">
<path d="M1004.75 58.5918H979.704V33.492C979.704 28.1025 975.324 23.7139 969.946 23.7139H946.126C940.747 23.7139 936.368 28.1025 936.368 33.492V58.5918H911.318C905.94 58.5918 901.56 62.9805 901.56 68.37V92.2379C901.56 97.6274 905.94 102.016 911.318 102.016H936.368V127.116C936.368 132.505 940.747 136.894 946.126 136.894H969.946C975.324 136.894 979.704 132.505 979.704 127.116V102.016H1004.75C1010.13 102.016 1014.51 97.6274 1014.51 92.2379V68.37C1014.51 62.9805 1010.13 58.5918 1004.75 58.5918Z" fill="white"/>
</g>
<mask id="mask7_261_19" style="mask-type:luminance" maskUnits="userSpaceOnUse" x="643" y="0" width="417" height="253">
<path d="M1060 0H643V253H1060V0Z" fill="white"/>
</mask>
<g mask="url(#mask7_261_19)">
<path d="M831.791 139.358C831.791 157.913 816.808 172.927 798.29 172.927C779.772 172.927 764.788 157.913 764.788 139.358C764.788 120.802 779.772 105.789 798.29 105.789C816.808 105.789 831.791 120.879 831.791 139.358Z" fill="#F3F3F3"/>
</g>
<mask id="mask8_261_19" style="mask-type:luminance" maskUnits="userSpaceOnUse" x="643" y="0" width="417" height="253">
<path d="M1060 0H643V253H1060V0Z" fill="white"/>
</mask>
<g mask="url(#mask8_261_19)">
<path d="M822.34 139.358C822.34 152.678 811.583 163.457 798.29 163.457C784.997 163.457 774.239 152.678 774.239 139.358C774.239 126.038 784.997 115.259 798.29 115.259C811.583 115.259 822.34 126.038 822.34 139.358Z" fill="#253E53"/>
</g>
<mask id="mask9_261_19" style="mask-type:luminance" maskUnits="userSpaceOnUse" x="643" y="0" width="417" height="253">
<path d="M1060 0H643V253H1060V0Z" fill="white"/>
</mask>
<g mask="url(#mask9_261_19)">
<path d="M818.575 139.358C818.575 150.599 809.508 159.684 798.29 159.684C787.071 159.684 778.004 150.599 778.004 139.358C778.004 128.117 787.071 119.032 798.29 119.032C809.508 119.032 818.575 128.194 818.575 139.358Z" fill="white"/>
</g>
<mask id="mask10_261_19" style="mask-type:luminance" maskUnits="userSpaceOnUse" x="643" y="0" width="417" height="253">
<path d="M1060 0H643V253H1060V0Z" fill="white"/>
</mask>
<g mask="url(#mask10_261_19)">
<path d="M813.273 132.89C813.273 136.432 810.353 139.358 806.819 139.358C803.284 139.358 800.364 136.432 800.364 132.89C800.364 129.349 803.284 126.423 806.819 126.423C810.43 126.423 813.273 129.349 813.273 132.89Z" fill="#253E53"/>
</g>
<mask id="mask11_261_19" style="mask-type:luminance" maskUnits="userSpaceOnUse" x="643" y="0" width="417" height="253">
<path d="M1060 0H643V253H1060V0Z" fill="white"/>
</mask>
<g mask="url(#mask11_261_19)">
<path d="M866.676 139.358C866.676 157.913 881.659 172.927 900.177 172.927C918.695 172.927 933.678 157.913 933.678 139.358C933.678 120.802 918.695 105.789 900.177 105.789C881.659 105.789 866.676 120.802 866.676 139.358Z" fill="#F3F3F3"/>
</g>
<mask id="mask12_261_19" style="mask-type:luminance" maskUnits="userSpaceOnUse" x="643" y="0" width="417" height="253">
<path d="M1060 0H643V253H1060V0Z" fill="white"/>
</mask>
<g mask="url(#mask12_261_19)">
<path d="M876.127 139.358C876.127 152.678 886.884 163.457 900.177 163.457C913.47 163.457 924.227 152.678 924.227 139.358C924.227 126.038 913.47 115.259 900.177 115.259C886.884 115.336 876.127 126.115 876.127 139.358Z" fill="#253E53"/>
</g>
<mask id="mask13_261_19" style="mask-type:luminance" maskUnits="userSpaceOnUse" x="643" y="0" width="417" height="253">
<path d="M1060 0H643V253H1060V0Z" fill="white"/>
</mask>
<g mask="url(#mask13_261_19)">
<path d="M879.969 139.358C879.969 150.599 889.035 159.684 900.254 159.684C911.472 159.684 920.539 150.599 920.539 139.358C920.539 128.117 911.472 119.032 900.254 119.032C889.035 119.109 879.969 128.194 879.969 139.358Z" fill="white"/>
</g>
<mask id="mask14_261_19" style="mask-type:luminance" maskUnits="userSpaceOnUse" x="643" y="0" width="417" height="253">
<path d="M1060 0H643V253H1060V0Z" fill="white"/>
</mask>
<g mask="url(#mask14_261_19)">
<path d="M915.007 132.89C915.007 136.432 912.087 139.358 908.552 139.358C905.018 139.358 902.098 136.432 902.098 132.89C902.098 129.349 905.018 126.423 908.552 126.423C912.164 126.423 915.007 129.349 915.007 132.89Z" fill="#253E53"/>
</g>
<mask id="mask15_261_19" style="mask-type:luminance" maskUnits="userSpaceOnUse" x="643" y="0" width="417" height="253">
<path d="M1060 0H643V253H1060V0Z" fill="white"/>
</mask>
<g mask="url(#mask15_261_19)">
<path d="M840.09 110.408H827.027C826.412 110.408 825.875 109.869 825.875 109.253V103.633C825.875 103.017 826.412 102.478 827.027 102.478H840.09C840.704 102.478 841.242 103.017 841.242 103.633V109.253C841.242 109.869 840.704 110.408 840.09 110.408Z" fill="#253E53"/>
</g>
<mask id="mask16_261_19" style="mask-type:luminance" maskUnits="userSpaceOnUse" x="643" y="0" width="417" height="253">
<path d="M1060 0H643V253H1060V0Z" fill="white"/>
</mask>
<g mask="url(#mask16_261_19)">
<path d="M872.592 110.408H859.53C858.915 110.408 858.377 109.869 858.377 109.253V103.633C858.377 103.017 858.915 102.478 859.53 102.478H872.592C873.207 102.478 873.745 103.017 873.745 103.633V109.253C873.745 109.869 873.207 110.408 872.592 110.408Z" fill="#253E53"/>
</g>
<mask id="mask17_261_19" style="mask-type:luminance" maskUnits="userSpaceOnUse" x="643" y="0" width="417" height="253">
<path d="M1060 0H643V253H1060V0Z" fill="white"/>
</mask>
<g mask="url(#mask17_261_19)">
<path d="M975.017 43.3471C975.017 52.7402 967.41 60.3626 958.036 60.3626C948.662 60.3626 941.055 52.7402 941.055 43.3471C941.055 33.9539 948.662 26.3315 958.036 26.3315C967.41 26.3315 975.017 33.9539 975.017 43.3471Z" fill="#253E53"/>
</g>
<mask id="mask18_261_19" style="mask-type:luminance" maskUnits="userSpaceOnUse" x="643" y="0" width="417" height="253">
<path d="M1060 0H643V253H1060V0Z" fill="white"/>
</mask>
<g mask="url(#mask18_261_19)">
<path d="M975.017 117.261C975.017 126.654 967.41 134.276 958.036 134.276C948.662 134.276 941.055 126.654 941.055 117.261C941.055 107.867 948.662 100.245 958.036 100.245C967.41 100.322 975.017 107.944 975.017 117.261Z" fill="#253E53"/>
</g>
<mask id="mask19_261_19" style="mask-type:luminance" maskUnits="userSpaceOnUse" x="643" y="0" width="417" height="253">
<path d="M1060 0H643V253H1060V0Z" fill="white"/>
</mask>
<g mask="url(#mask19_261_19)">
<path d="M921.154 63.2886C930.528 63.2886 938.135 70.9109 938.135 80.3041C938.135 89.6973 930.528 97.3196 921.154 97.3196C911.779 97.3196 904.172 89.6973 904.172 80.3041C904.172 70.9109 911.779 63.2886 921.154 63.2886Z" fill="#1CA7FB"/>
</g>
<mask id="mask20_261_19" style="mask-type:luminance" maskUnits="userSpaceOnUse" x="643" y="0" width="417" height="253">
<path d="M1060 0H643V253H1060V0Z" fill="white"/>
</mask>
<g mask="url(#mask20_261_19)">
<path d="M994.995 63.2886C1004.37 63.2886 1011.98 70.9109 1011.98 80.3041C1011.98 89.6973 1004.37 97.3196 994.995 97.3196C985.621 97.3196 978.014 89.6973 978.014 80.3041C978.014 70.9109 985.621 63.2886 994.995 63.2886Z" fill="#1CA7FB"/>
</g>
</g>
<defs>
<linearGradient id="paint0_linear_261_19" x1="751.052" y1="80.3109" x2="946.298" y2="80.3109" gradientUnits="userSpaceOnUse">
<stop stop-color="#1CA7FB"/>
<stop offset="0.00124199" stop-color="#1CA7FB"/>
<stop offset="1" stop-color="#17FCD7"/>
</linearGradient>
<linearGradient id="paint1_linear_261_19" x1="642.998" y1="158.334" x2="795.838" y2="158.334" gradientUnits="userSpaceOnUse">
<stop stop-color="#1CA7FB"/>
<stop offset="0.00124199" stop-color="#1CA7FB"/>
<stop offset="1" stop-color="#17FCD7"/>
</linearGradient>
<linearGradient id="paint2_linear_261_19" x1="907.171" y1="158.325" x2="1060.01" y2="158.325" gradientUnits="userSpaceOnUse">
<stop stop-color="#1CA7FB"/>
<stop offset="0.00124199" stop-color="#1CA7FB"/>
<stop offset="1" stop-color="#17FCD7"/>
</linearGradient>
<linearGradient id="paint3_linear_261_19" x1="666.849" y1="80.6235" x2="823.055" y2="80.6235" gradientUnits="userSpaceOnUse">
<stop stop-color="#1CA7FB"/>
<stop offset="0.00124199" stop-color="#1CA7FB"/>
<stop offset="1" stop-color="#17FCD7"/>
</linearGradient>
<linearGradient id="paint4_linear_261_19" x1="879.946" y1="80.6235" x2="1036.15" y2="80.6235" gradientUnits="userSpaceOnUse">
<stop stop-color="#1CA7FB"/>
<stop offset="0.00124199" stop-color="#1CA7FB"/>
<stop offset="1" stop-color="#17FCD7"/>
</linearGradient>
<clipPath id="clip0_261_19">
<rect width="417" height="253" fill="white" transform="translate(643)"/>
</clipPath>
</defs>
</svg>
