<svg width="80" height="80" viewBox="0 0 80 80" fill="none" xmlns="http://www.w3.org/2000/svg">
<path d="M56.7752 32.958C56.7752 37.4783 56.7752 41.9987 56.7752 46.519C56.7566 46.6366 56.7334 46.7535 56.7208 46.8718C56.6491 47.5351 56.6152 48.2044 56.5037 48.8611C56.1446 50.9765 55.2366 52.8099 53.605 54.2508C51.8368 55.812 49.7081 56.435 47.4041 56.5903C46.6049 56.6445 45.8038 56.6795 45.0039 56.7231C41.6094 56.7231 38.2149 56.7231 34.8204 56.7231C34.6133 56.7052 34.4062 56.6762 34.1991 56.6709C32.8437 56.6365 31.4909 56.5837 30.166 56.2599C27.3809 55.5794 25.3086 54.0018 24.0753 51.402C23.308 49.7847 23.0763 48.0458 23.0577 46.2805C23.0199 42.6507 22.9894 39.021 23.0033 35.3906C23.01 33.7376 23.0272 32.076 23.3856 30.4474C24.0215 27.5636 25.6026 25.3986 28.3121 24.1189C29.9151 23.3617 31.6383 23.1371 33.388 23.0955C38.0583 22.9851 42.7292 22.931 47.3975 23.1563C48.7575 23.2217 50.0877 23.484 51.3356 24.0462C54.4348 25.4442 56.0643 27.9224 56.5734 31.2013C56.6644 31.7833 56.7095 32.3726 56.7752 32.958ZM39.9049 53.7441C39.9055 53.7269 39.9055 53.7097 39.9062 53.6919C40.799 53.6919 41.6924 53.7183 42.5838 53.6866C44.5088 53.6179 46.449 53.6417 48.354 53.4019C50.9579 53.0748 52.7169 51.5791 53.3541 48.9998C53.609 47.9678 53.698 46.8751 53.7159 45.8081C53.7736 42.4083 53.7869 39.0071 53.7663 35.606C53.7584 34.249 53.6913 32.8833 53.5221 31.5376C53.1796 28.8196 51.4836 26.9842 48.7808 26.4458C47.6232 26.2152 46.4198 26.1471 45.2356 26.13C42.0847 26.0837 38.9324 26.0758 35.7809 26.1128C34.2754 26.1306 32.7527 26.1676 31.2712 26.4041C28.727 26.8111 27.0364 28.3135 26.4629 30.8472C26.2067 31.9809 26.1343 33.1707 26.1078 34.3382C26.0454 37.0687 26.0281 39.8013 26.0573 42.5325C26.0772 44.4055 26.1297 46.2851 26.3095 48.1482C26.4894 50.0139 27.3663 51.5513 29.0124 52.5635C30.1076 53.2367 31.3363 53.5096 32.6021 53.5551C35.0355 53.6443 37.4708 53.6846 39.9049 53.7441Z" fill="white"/>
<path d="M39.8896 48.5327C35.0727 48.503 31.175 44.6017 31.2102 39.8462C31.246 35.0484 35.1676 31.1755 39.9454 31.2191C44.775 31.2634 48.656 35.1627 48.6029 39.9175C48.5492 44.716 44.6595 48.5624 39.8896 48.5327ZM34.2748 39.8759C34.2755 42.9824 36.7839 45.4797 39.9042 45.4824C43.0266 45.485 45.5363 42.9949 45.5443 39.8865C45.5529 36.7674 43.0332 34.2582 39.8983 34.2635C36.7799 34.2681 34.2735 36.7688 34.2748 39.8759Z" fill="white"/>
<path d="M50.9738 30.8827C50.9692 32.0098 50.0585 32.9024 48.9241 32.8918C47.8163 32.8819 46.9189 31.9715 46.9229 30.8629C46.9268 29.7523 47.8256 28.861 48.944 28.8584C50.0824 28.8558 50.9785 29.7497 50.9738 30.8827Z" fill="white"/>
</svg>
