<svg width="236" height="62" viewBox="0 0 236 62" fill="none" xmlns="http://www.w3.org/2000/svg">
<path d="M31.8743 49.2367H22.2338L26.229 30.5971L15.9371 49.2367H10.0313L8.07713 29.9499L3.90829 49.2367H0L5.86244 21.8382H16.9359L18.2821 37.2849L26.6198 21.8382H37.7801L31.8743 49.2367Z" fill="url(#paint0_linear_188_7)"/>
<path d="M45.8525 40.5641C45.7367 41.1969 45.6499 41.801 45.592 42.3763C45.563 42.9516 45.5485 43.4693 45.5485 43.9296C45.5485 44.1885 45.563 44.4761 45.592 44.7925C45.6209 45.1089 45.6788 45.411 45.7657 45.6986C45.8815 45.9575 46.0262 46.1876 46.1999 46.389C46.4026 46.5616 46.6776 46.6479 47.025 46.6479C47.2856 46.6479 47.5751 46.5616 47.8935 46.389C48.2409 46.2164 48.5739 45.9719 48.8923 45.6555C49.2397 45.3391 49.5582 44.9507 49.8477 44.4905C50.1661 44.0302 50.4122 43.5125 50.5859 42.9372H57.7077L56.5786 47.5539C55.9996 47.9279 55.3338 48.2443 54.581 48.5032C53.8283 48.7621 53.0322 48.9778 52.1926 49.1504C51.3531 49.2942 50.4991 49.3949 49.6305 49.4524C48.762 49.5387 47.937 49.5819 47.1553 49.5819C45.7078 49.5819 44.3616 49.4524 43.1167 49.1935C41.8719 48.9347 40.7862 48.4888 39.8598 47.856C38.9334 47.2231 38.1952 46.389 37.6451 45.3534C37.124 44.2891 36.8635 42.9803 36.8635 41.427C36.8635 40.0176 37.0806 38.6368 37.5148 37.2849C37.978 35.9329 38.7308 34.7392 39.773 33.7037C40.8441 32.6394 42.2627 31.7908 44.0287 31.158C45.8236 30.5252 48.0528 30.2087 50.7162 30.2087C53.6112 30.2087 55.7825 30.6546 57.23 31.5463C58.7065 32.438 59.4447 33.8331 59.4447 35.7316C59.4447 36.5082 59.3289 37.3568 59.0973 38.2773C58.8657 39.169 58.5183 39.9313 58.0551 40.5641H45.8525ZM51.6281 35.4296C51.6281 34.5379 51.4834 33.9338 51.1939 33.6174C50.9044 33.301 50.557 33.1428 50.1516 33.1428C49.6884 33.1428 49.2542 33.301 48.8489 33.6174C48.4725 33.905 48.1251 34.3077 47.8067 34.8255C47.4882 35.3145 47.1987 35.8898 46.9382 36.5514C46.6776 37.1842 46.4605 37.8602 46.2868 38.5793H51.2373C51.2952 38.2341 51.3531 37.8746 51.411 37.5006C51.4689 37.1842 51.5123 36.839 51.5413 36.4651C51.5992 36.0912 51.6281 35.746 51.6281 35.4296Z" fill="url(#paint1_linear_188_7)"/>
<path d="M61.9196 30.6834C62.9908 30.4532 63.9317 30.1944 64.7423 29.9067C65.5529 29.6191 66.2911 29.2595 66.957 28.828C67.6518 28.3966 68.3031 27.8644 68.9111 27.2316C69.548 26.5988 70.2283 25.8221 70.9521 24.9016H75.4249L74.1656 30.6834H77.5528L76.9882 33.5742H73.5576L71.7772 41.9879C71.6324 42.6495 71.5166 43.2392 71.4298 43.757C71.3429 44.2748 71.2995 44.6775 71.2995 44.9651C71.2995 45.5404 71.5022 45.9 71.9075 46.0438C72.3417 46.1876 73.1379 46.2595 74.2959 46.2595L73.6445 49.2367C73.4418 49.2942 73.1234 49.3374 72.6891 49.3661C72.2838 49.3949 71.8206 49.4237 71.2995 49.4524C70.8073 49.51 70.2862 49.5387 69.7362 49.5387C69.2151 49.5675 68.7519 49.5819 68.3466 49.5819C67.6228 49.5819 66.9135 49.5243 66.2187 49.4093C65.5239 49.323 64.9015 49.136 64.3514 48.8484C63.8014 48.5319 63.3526 48.0861 63.0052 47.5108C62.6868 46.9355 62.5276 46.1589 62.5276 45.1808C62.5276 44.8357 62.542 44.4042 62.571 43.8864C62.6289 43.3687 62.7302 42.7934 62.875 42.1605L64.6988 33.5742H61.3116L61.9196 30.6834Z" fill="url(#paint2_linear_188_7)"/>
<path d="M80.0541 32.2798C81.5306 31.5607 83.036 31.0429 84.5704 30.7265C86.1337 30.3813 87.8707 30.2087 89.7814 30.2087C91.6343 30.2087 93.1686 30.3526 94.3845 30.6402C95.6005 30.9279 96.5703 31.345 97.294 31.8915C98.0178 32.438 98.5244 33.0852 98.8139 33.8331C99.1034 34.581 99.2482 35.4296 99.2482 36.3788C99.2482 36.9253 99.2048 37.515 99.1179 38.1478C99.06 38.7807 98.9876 39.3128 98.9008 39.7443L96.8598 49.2367H89.8683L89.0866 46.4753H88.8261C87.8997 47.482 86.814 48.2587 85.5692 48.8052C84.3533 49.323 83.1374 49.5819 81.9214 49.5819C81.2266 49.5819 80.5463 49.4812 79.8804 49.2798C79.2146 49.0785 78.6211 48.7765 78.1 48.3737C77.5789 47.9423 77.1591 47.4101 76.8407 46.7773C76.5222 46.1157 76.363 45.3247 76.363 44.4042C76.363 42.9084 76.7683 41.7291 77.5789 40.8661C78.4185 39.9744 79.5041 39.3128 80.8358 38.8813C82.1965 38.4211 83.7164 38.1335 85.3955 38.0184C87.1035 37.9033 88.8116 37.8458 90.5197 37.8458C90.5776 37.5582 90.65 37.1555 90.7368 36.6377C90.8237 36.0912 90.8671 35.6165 90.8671 35.2138C90.8671 34.6961 90.7223 34.2214 90.4328 33.79C90.1723 33.3297 89.6077 33.0996 88.7392 33.0996C87.726 33.0996 86.9733 33.4016 86.4811 34.0057C86.0179 34.581 85.7139 35.2857 85.5692 36.1199H79.2291L80.0541 32.2798ZM90.042 39.8737H89.2603C88.4208 39.8737 87.697 39.9888 87.0891 40.2189C86.5101 40.4203 86.0324 40.6935 85.656 41.0387C85.3086 41.3839 85.0481 41.7722 84.8744 42.2037C84.7007 42.6352 84.6138 43.0666 84.6138 43.4981C84.6138 44.1885 84.7875 44.7062 85.1349 45.0514C85.5113 45.3966 85.9455 45.5692 86.4377 45.5692C87.0456 45.5692 87.6391 45.3534 88.2181 44.922C88.8261 44.4905 89.2024 43.9152 89.3472 43.1961L90.042 39.8737Z" fill="url(#paint3_linear_188_7)"/>
<path d="M106.538 21.8382H124.82L124.126 25.1174H115.223L113.53 33.0133H120.955L120.261 36.3357H112.835L110.056 49.2367H100.676L106.538 21.8382Z" fill="url(#paint4_linear_188_7)"/>
<path d="M130.431 49.2367H121.573L127.739 20.2417H136.641L130.431 49.2367Z" fill="url(#paint5_linear_188_7)"/>
<path d="M148.408 30.2087C151.853 30.2087 154.357 30.8128 155.921 32.0209C157.571 33.2866 158.396 35.3864 158.396 38.3204C158.396 40.1326 158.092 41.7722 157.484 43.2392C156.876 44.6775 156.022 45.8712 154.922 46.8204C152.722 48.6614 149.537 49.5819 145.368 49.5819C141.808 49.5819 139.26 48.9059 137.726 47.5539C136.075 46.1445 135.25 44.0303 135.25 41.2113C135.25 39.3416 135.627 37.6445 136.379 36.1199C137.161 34.5954 138.276 33.3297 139.723 32.323C141.836 30.9135 144.731 30.2087 148.408 30.2087ZM145.455 46.6479C146.179 46.6479 146.801 46.2451 147.323 45.4397C147.873 44.6343 148.307 43.6563 148.625 42.5057C148.944 41.3264 149.175 40.1182 149.32 38.8813C149.494 37.6157 149.581 36.5226 149.581 35.6022C149.581 34.7967 149.494 34.1927 149.32 33.79C149.175 33.3585 148.842 33.1428 148.321 33.1428C147.54 33.1428 146.859 33.5599 146.28 34.394C145.73 35.2282 145.282 36.2206 144.934 37.3712C144.587 38.5218 144.326 39.7011 144.152 40.9093C144.008 42.1174 143.935 43.0954 143.935 43.8433C143.935 45.713 144.442 46.6479 145.455 46.6479Z" fill="url(#paint6_linear_188_7)"/>
<path d="M160.336 30.6834H169.542L171.062 43.3687L176.316 30.6834H184.61L186.087 43.3687L191.341 30.6834H195.944L187.303 49.2367H178.227L176.62 39.8306L172.234 49.2367H163.158L160.336 30.6834Z" fill="url(#paint7_linear_188_7)"/>
<path d="M234.671 48.4455C227.765 42.4349 220.784 36.4842 213.812 30.5758C212.73 29.6551 212.587 28.9795 213.205 27.7043C217.241 19.5001 221.182 11.2714 225.071 3.00932C225.439 2.22732 225.708 0.980827 225.337 0.485061C224.966 -0.010706 223.662 -0.0914667 222.812 0.0858126C217.609 1.08276 212.496 2.50198 207.273 3.19448C203.267 3.76547 200.745 5.48175 199.283 9.26974C198.326 11.6736 196.798 13.8882 195.391 16.4741C192.327 13.939 189.664 11.6285 186.901 9.4714C186.052 8.81091 184.82 8.2302 183.816 8.30739C181.552 8.51495 179.335 9.15365 176.785 9.68549C177.456 10.3392 177.903 10.775 178.384 11.1597C186.1 17.4419 193.784 23.7753 201.576 29.9975C202.804 30.976 203.049 31.7184 202.297 33.1979C197.671 41.9662 193.106 50.8101 188.54 59.654C188.189 60.3005 187.931 60.9714 187.438 62C189.606 61.5479 191.297 61.1512 193.006 60.8388C195.191 60.4712 196.612 59.4254 197.546 57.3349C198.863 54.3268 200.513 51.4255 202.201 48.0754C205.393 50.584 208.25 52.7656 210.997 55.0583C212.285 56.1124 213.6 56.4554 215.206 56.0763C221.444 54.7311 227.658 53.4791 233.897 52.1339C234.704 51.9655 235.899 51.3195 235.995 50.7263C236.065 50.0063 235.323 49.0148 234.671 48.4455ZM205.826 11.2558C206.119 10.7537 206.737 10.3163 207.28 10.1588C209.642 9.57801 212.074 9.11499 215.091 8.48565C212.184 14.4706 209.52 19.92 206.781 25.6495C204.635 23.8927 202.746 22.3027 200.754 20.646C202.469 17.4226 204.126 14.3436 205.826 11.2558ZM215.241 49.1031C214.731 49.2094 213.987 48.8357 213.549 48.4421C210.819 46.2338 208.123 43.9745 205.264 41.5729C206.359 39.4046 207.412 37.2453 208.589 34.8393C213.458 38.9821 218.164 42.9826 223.401 47.4012C220.265 48.0993 217.767 48.6645 215.241 49.1031Z" fill="url(#paint8_linear_188_7)"/>
<defs>
<linearGradient id="paint0_linear_188_7" x1="2.4184e-08" y1="31" x2="262.314" y2="43.498" gradientUnits="userSpaceOnUse">
<stop stop-color="#1CA7FB"/>
<stop offset="1" stop-color="#17FCD7"/>
</linearGradient>
<linearGradient id="paint1_linear_188_7" x1="2.4184e-08" y1="31" x2="262.314" y2="43.498" gradientUnits="userSpaceOnUse">
<stop stop-color="#1CA7FB"/>
<stop offset="1" stop-color="#17FCD7"/>
</linearGradient>
<linearGradient id="paint2_linear_188_7" x1="2.4184e-08" y1="31" x2="262.314" y2="43.498" gradientUnits="userSpaceOnUse">
<stop stop-color="#1CA7FB"/>
<stop offset="1" stop-color="#17FCD7"/>
</linearGradient>
<linearGradient id="paint3_linear_188_7" x1="2.4184e-08" y1="31" x2="262.314" y2="43.498" gradientUnits="userSpaceOnUse">
<stop stop-color="#1CA7FB"/>
<stop offset="1" stop-color="#17FCD7"/>
</linearGradient>
<linearGradient id="paint4_linear_188_7" x1="2.4184e-08" y1="31" x2="262.314" y2="43.498" gradientUnits="userSpaceOnUse">
<stop stop-color="#1CA7FB"/>
<stop offset="1" stop-color="#17FCD7"/>
</linearGradient>
<linearGradient id="paint5_linear_188_7" x1="2.4184e-08" y1="31" x2="262.314" y2="43.498" gradientUnits="userSpaceOnUse">
<stop stop-color="#1CA7FB"/>
<stop offset="1" stop-color="#17FCD7"/>
</linearGradient>
<linearGradient id="paint6_linear_188_7" x1="2.4184e-08" y1="31" x2="262.314" y2="43.498" gradientUnits="userSpaceOnUse">
<stop stop-color="#1CA7FB"/>
<stop offset="1" stop-color="#17FCD7"/>
</linearGradient>
<linearGradient id="paint7_linear_188_7" x1="2.4184e-08" y1="31" x2="262.314" y2="43.498" gradientUnits="userSpaceOnUse">
<stop stop-color="#1CA7FB"/>
<stop offset="1" stop-color="#17FCD7"/>
</linearGradient>
<linearGradient id="paint8_linear_188_7" x1="200.788" y1="4.51156" x2="211.723" y2="56.9418" gradientUnits="userSpaceOnUse">
<stop stop-color="#1CA7FB"/>
<stop offset="1" stop-color="#17FCD7"/>
</linearGradient>
</defs>
</svg>
