<svg width="80" height="80" viewBox="0 0 80 80" fill="none" xmlns="http://www.w3.org/2000/svg">
<path d="M40 80C62.0914 80 80 62.0914 80 40C80 17.9086 62.0914 0 40 0C17.9086 0 0 17.9086 0 40C0 62.0914 17.9086 80 40 80Z" fill="url(#paint0_linear_117_9640)"/>
<path d="M40.5022 24.0042C43.9696 24.0042 47.4369 24.0032 50.9032 24.0042C55.4273 24.0053 59.0142 26.9287 59.8572 31.3204C59.9558 31.8359 59.9887 32.3708 59.9898 32.8971C59.9997 37.2931 60.0052 41.6891 59.9931 46.0851C59.981 50.4377 57.0125 54.0003 52.701 54.8283C52.074 54.9487 51.4217 54.978 50.7804 54.9791C43.9279 54.9899 37.0754 54.9465 30.224 54.9997C25.7349 55.0334 22.261 52.085 21.3171 48.415C21.1297 47.6868 21.0266 46.9174 21.0223 46.1665C20.9949 41.7163 20.9938 37.266 21.0135 32.8158C21.0343 27.9097 24.9763 24.0249 29.9368 24.0064C33.4589 23.9934 36.98 24.0042 40.5022 24.0042ZM56.6101 29.6015C56.3679 29.85 56.1815 30.0475 55.9875 30.2385C52.7909 33.4039 49.5921 36.5661 46.3977 39.7337C44.8487 41.2703 42.9895 42.1123 40.7938 42.1818C38.3788 42.2577 36.3201 41.4276 34.6133 39.738C31.3191 36.4771 28.026 33.2162 24.7319 29.9553C24.6277 29.8522 24.5192 29.7545 24.3833 29.6275C23.7869 30.6064 23.4964 31.6394 23.4942 32.7376C23.4822 37.2541 23.4636 41.7716 23.4975 46.287C23.5238 49.6889 26.3762 52.5028 29.8118 52.5136C36.9362 52.5364 44.0595 52.531 51.1838 52.5158C53.8257 52.5104 56.2309 50.8273 57.0925 48.3564C57.3512 47.6152 57.4926 46.7959 57.5003 46.0113C57.5387 41.6718 57.5178 37.3311 57.5189 32.9905C57.5189 31.8055 57.2591 30.691 56.6101 29.6015ZM26.055 27.7546C26.146 27.8576 26.2041 27.9304 26.2688 27.9944C29.6671 31.3616 33.0522 34.743 36.4703 38.0907C38.7559 40.3294 42.2934 40.299 44.5933 38.0397C47.9763 34.7148 51.3373 31.3671 54.706 28.028C54.7882 27.9466 54.8584 27.8533 54.9472 27.7502C53.738 26.8647 52.4226 26.4556 50.9657 26.4589C47.8699 26.4643 44.7742 26.46 41.6784 26.461C37.6783 26.4621 33.6782 26.4513 29.6781 26.4752C28.3538 26.4817 27.1644 26.9439 26.055 27.7546Z" fill="white"/>
<defs>
<linearGradient id="paint0_linear_117_9640" x1="40" y1="80" x2="40" y2="0" gradientUnits="userSpaceOnUse">
<stop stop-color="#181C1F"/>
<stop offset="1" stop-color="#2D3037"/>
</linearGradient>
</defs>
</svg>
