<svg width="523" height="523" viewBox="0 0 523 523" fill="none" xmlns="http://www.w3.org/2000/svg">
<mask id="mask0_122_14359" style="mask-type:luminance" maskUnits="userSpaceOnUse" x="0" y="0" width="523" height="523">
<path d="M522.83 0H0V522.83H522.83V0Z" fill="white"/>
</mask>
<g mask="url(#mask0_122_14359)">
<g opacity="0.13">
<path d="M46.1885 -12.7256V532.095" stroke="white" stroke-width="0.9023" stroke-miterlimit="10"/>
<path d="M103.416 -12.7256V532.095" stroke="white" stroke-width="0.9023" stroke-miterlimit="10"/>
<path d="M160.656 -12.7256V532.095" stroke="white" stroke-width="0.9023" stroke-miterlimit="10"/>
<path d="M217.896 -12.7256V532.095" stroke="white" stroke-width="0.9023" stroke-miterlimit="10"/>
<path d="M275.135 -12.7256V532.095" stroke="white" stroke-width="0.9023" stroke-miterlimit="10"/>
<path d="M332.364 -12.7256V532.095" stroke="white" stroke-width="0.9023" stroke-miterlimit="10"/>
<path d="M389.604 -12.7256V532.095" stroke="white" stroke-width="0.9023" stroke-miterlimit="10"/>
<path d="M446.843 -12.7256V532.095" stroke="white" stroke-width="0.9023" stroke-miterlimit="10"/>
<path d="M504.071 -12.7256V532.095" stroke="white" stroke-width="0.9023" stroke-miterlimit="10"/>
<path d="M-194.868 3.70172H764.232" stroke="white" stroke-width="0.9023" stroke-miterlimit="10"/>
<path d="M-194.868 61.7254H764.232" stroke="white" stroke-width="0.9023" stroke-miterlimit="10"/>
<path d="M-194.868 119.749H764.232" stroke="white" stroke-width="0.9023" stroke-miterlimit="10"/>
<path d="M-194.868 177.773H764.232" stroke="white" stroke-width="0.9023" stroke-miterlimit="10"/>
<path d="M-194.868 235.796H764.232" stroke="white" stroke-width="0.9023" stroke-miterlimit="10"/>
<path d="M-194.868 293.82H764.232" stroke="white" stroke-width="0.9023" stroke-miterlimit="10"/>
<path d="M-194.868 351.844H764.232" stroke="white" stroke-width="0.9023" stroke-miterlimit="10"/>
<path d="M-194.868 409.867H764.232" stroke="white" stroke-width="0.9023" stroke-miterlimit="10"/>
<path d="M-194.868 467.891H764.232" stroke="white" stroke-width="0.9023" stroke-miterlimit="10"/>
</g>
</g>
</svg>
