<svg width="872" height="373" viewBox="0 0 872 373" fill="none" xmlns="http://www.w3.org/2000/svg">
<path d="M731.013 0.181641C653.738 0.181641 591.025 62.8947 591.025 140.169H871C871 62.8947 808.287 0.181641 731.013 0.181641Z" fill="url(#paint0_linear_253_13)"/>
<path d="M731.013 0.181641C677.069 0.181641 633.551 62.8947 633.551 140.169H828.64C828.474 62.8947 784.956 0.181641 731.013 0.181641Z" fill="white"/>
<path d="M731.013 0.181641C707.35 0.181641 688.156 62.8947 688.156 140.169H773.869C773.869 62.8947 754.675 0.181641 731.013 0.181641Z" fill="url(#paint1_linear_253_13)"/>
<path d="M591.025 140.168L728.696 248.717L871 140.168" stroke="white" stroke-miterlimit="10"/>
<path d="M634.709 140.168L729.523 248.717L827.316 140.168" stroke="white" stroke-miterlimit="10"/>
<path d="M690.141 140.168L730.351 248.717L771.884 140.168" stroke="white" stroke-miterlimit="10"/>
<path d="M634.709 140.168L729.523 248.717L827.316 140.168" stroke="white" stroke-miterlimit="10"/>
<path d="M731.013 147.284C808.325 147.284 871 144.098 871 140.168C871 136.239 808.325 133.053 731.013 133.053C653.7 133.053 591.025 136.239 591.025 140.168C591.025 144.098 653.7 147.284 731.013 147.284Z" fill="url(#paint2_linear_253_13)"/>
<path d="M726.876 344.193C766.812 344.193 799.186 311.818 799.186 271.883C799.186 231.947 766.812 199.572 726.876 199.572C686.94 199.572 654.565 231.947 654.565 271.883C654.565 311.818 686.94 344.193 726.876 344.193Z" fill="white"/>
<path d="M726.876 331.453C759.775 331.453 786.445 304.783 786.445 271.884C786.445 238.984 759.775 212.314 726.876 212.314C693.977 212.314 667.307 238.984 667.307 271.884C667.307 304.783 693.977 331.453 726.876 331.453Z" fill="url(#paint3_linear_253_13)"/>
<path d="M683.635 287.182V263.587H688.057L698.98 271.243H699.145L710.068 263.587H714.49V287.182H709.21V270.187L701.719 275.203V287.182H696.439V275.203L688.915 270.187V287.182H683.635ZM719.117 287.182V263.587H744.329V267.877H724.397V274.411H741.755V278.701H724.397V287.182H719.117ZM745.979 287.182L754.823 275.401L745.979 263.587H752.414L759.509 273.256H762.545L769.64 263.587H776.075L767.231 275.401L776.075 287.182H769.607L762.545 277.546H759.509L752.447 287.182H745.979Z" fill="white"/>
<path d="M0.800003 190L0.800003 198.327" stroke="white" stroke-miterlimit="10" stroke-linecap="round"/>
<path d="M0.799997 216.646L0.800003 354.395" stroke="white" stroke-miterlimit="10" stroke-linecap="round" stroke-dasharray="7.72 7.72"/>
<path d="M0.800003 363.673L0.800003 372L21.4554 372" stroke="white" stroke-miterlimit="10" stroke-linecap="round"/>
<path d="M62.1759 372L690.689 372" stroke="white" stroke-miterlimit="10" stroke-linecap="round" stroke-dasharray="6.88 6.88"/>
<path d="M711.345 372L732 372L732 363.673" stroke="white" stroke-miterlimit="10" stroke-linecap="round"/>
<path d="M732 352.729L732 344.402" stroke="white" stroke-miterlimit="10" stroke-linecap="round"/>
<defs>
<linearGradient id="paint0_linear_253_13" x1="681.487" y1="-92.2157" x2="758.926" y2="259.053" gradientUnits="userSpaceOnUse">
<stop stop-color="#1CA7FB"/>
<stop offset="0.5" stop-color="#17FCD7"/>
<stop offset="1" stop-color="#1CA7FB"/>
</linearGradient>
<linearGradient id="paint1_linear_253_13" x1="684.62" y1="-92.9061" x2="762.058" y2="258.362" gradientUnits="userSpaceOnUse">
<stop stop-color="#1CA7FB"/>
<stop offset="0.5" stop-color="#17FCD7"/>
<stop offset="1" stop-color="#1CA7FB"/>
</linearGradient>
<linearGradient id="paint2_linear_253_13" x1="733.617" y1="268.011" x2="730.823" y2="130.298" gradientUnits="userSpaceOnUse">
<stop stop-color="#1CA7FB"/>
<stop offset="0.5" stop-color="#17FCD7"/>
<stop offset="1" stop-color="#1CA7FB"/>
</linearGradient>
<linearGradient id="paint3_linear_253_13" x1="511.003" y1="65.5786" x2="820.836" y2="361.809" gradientUnits="userSpaceOnUse">
<stop stop-color="#1CA7FB"/>
<stop offset="0.5" stop-color="#17FCD7"/>
<stop offset="0.9947" stop-color="#1CA7FB"/>
</linearGradient>
</defs>
</svg>
