<svg width="80" height="80" viewBox="0 0 80 80" fill="none" xmlns="http://www.w3.org/2000/svg">
<path d="M40 80C62.0914 80 80 62.0914 80 40C80 17.9086 62.0914 0 40 0C17.9086 0 0 17.9086 0 40C0 62.0914 17.9086 80 40 80Z" fill="url(#paint0_linear_117_9644)"/>
<path d="M49.3291 56.0564C48.7488 55.9628 48.1638 55.8918 47.59 55.7699C45.5538 55.339 43.6807 54.4972 41.8948 53.4497C39.268 51.9083 36.926 49.9933 34.7196 47.9071C32.7577 46.0518 30.9056 44.0923 29.2399 41.9626C27.3095 39.4963 25.6325 36.8816 24.6697 33.8698C23.9902 31.7465 23.7489 29.5885 24.3187 27.3918C24.5664 26.4371 25.0797 25.6551 25.9061 25.1217C26.8979 24.4817 27.9172 23.8853 28.9324 23.2833C29.1406 23.1598 29.3819 23.0928 29.6079 23C29.8226 23 30.0372 23 30.2527 23C30.9839 23.1913 31.4431 23.6924 31.845 24.3074C33.1846 26.358 34.555 28.3893 35.9099 30.4302C36.4627 31.2631 36.4539 32.1371 35.8825 32.8529C35.7566 33.0103 35.5992 33.1467 35.4403 33.2726C34.7067 33.852 33.9674 34.4242 33.2314 34.9988C32.6988 35.4144 32.635 35.7639 32.9474 36.3683C33.8464 38.1123 35.023 39.6537 36.3627 41.0757C38.0219 42.8382 39.7239 44.558 41.7294 45.9331C42.3831 46.381 43.0811 46.7652 43.7736 47.1533C44.2473 47.4189 44.6298 47.3115 44.9833 46.8596C45.5466 46.1405 46.1034 45.4158 46.6643 44.6952C47.5302 43.5815 48.5261 43.4176 49.6914 44.1964C51.6921 45.532 53.6846 46.879 55.6957 48.1976C56.309 48.5995 56.811 49.0587 56.999 49.7931C56.999 50.0086 56.999 50.2233 56.999 50.4387C56.9006 50.6744 56.8279 50.9262 56.6996 51.1441C56.1218 52.1254 55.5432 53.1067 54.9363 54.0695C54.3851 54.9435 53.5861 55.5036 52.5798 55.7384C52.0181 55.8692 51.4451 55.9515 50.877 56.0556C50.3597 56.0564 49.844 56.0564 49.3291 56.0564ZM50.4791 54.9548C50.7438 54.9258 51.2143 54.8862 51.6816 54.8209C52.8106 54.6627 53.6862 54.1333 54.2535 53.1059C54.7103 52.2787 55.222 51.483 55.7046 50.6695C56.0225 50.1329 55.9225 49.6922 55.4003 49.3436C53.2674 47.916 51.1336 46.4908 48.999 45.0672C48.4164 44.6782 48.0201 44.7452 47.5851 45.3012C46.996 46.055 46.4149 46.8144 45.8234 47.5665C45.139 48.4357 44.1884 48.6375 43.2175 48.1145C42.7075 47.8401 42.2007 47.5569 41.7092 47.251C39.945 46.1551 38.4319 44.7525 36.9663 43.2966C35.0246 41.367 33.2161 39.3317 31.9531 36.8671C31.4148 35.8171 31.59 34.8858 32.5229 34.1571C33.2589 33.5817 33.9981 33.0095 34.7333 32.4317C35.2893 31.9951 35.3571 31.5964 34.9714 31.0153C33.551 28.8759 32.1299 26.7373 30.7063 24.6003C30.3584 24.0782 29.917 23.9773 29.3819 24.2961C28.5152 24.8126 27.6525 25.3355 26.7874 25.8544C26.0949 26.2692 25.6019 26.8471 25.3961 27.6347C25.2847 28.0592 25.2096 28.4966 25.1588 28.9324C24.9837 30.4319 25.2121 31.8918 25.6422 33.3242C26.3492 35.6775 27.5452 37.7846 28.9647 39.7667C31.4826 43.2821 34.4767 46.3576 37.7677 49.1459C40.0387 51.0698 42.467 52.7573 45.2367 53.8976C46.8475 54.5594 48.5164 54.9694 50.4791 54.9548Z" fill="white"/>
<path d="M43.24 27.4346C47.7416 27.6355 51.805 30.8797 52.8589 35.5249C53.0268 36.2634 53.0623 37.0341 53.1309 37.7927C53.1648 38.1687 52.9211 38.4238 52.5991 38.4254C52.2851 38.427 52.0874 38.1825 52.0366 37.7983C51.9252 36.9598 51.8808 36.0987 51.6532 35.2901C50.9285 32.7181 49.3347 30.8192 46.9806 29.5691C45.7692 28.9251 44.4708 28.5829 43.0964 28.5386C42.9358 28.5337 42.7744 28.5176 42.6154 28.4917C42.3338 28.4457 42.182 28.2698 42.1643 27.9874C42.1473 27.7065 42.3112 27.483 42.5993 27.441C42.8091 27.4103 43.0262 27.4346 43.24 27.4346Z" fill="white"/>
<path d="M43.0455 30.7272C46.7643 30.9048 49.7349 33.944 49.8398 37.6918C49.8528 38.1454 49.6502 38.4214 49.3016 38.4254C48.9691 38.4295 48.7649 38.1761 48.7431 37.7346C48.6132 35.09 47.0774 32.9893 44.6071 32.1452C44.1068 31.9741 43.5604 31.9354 43.035 31.8409C42.8987 31.8167 42.7558 31.8224 42.6202 31.7957C42.3136 31.736 42.1473 31.5238 42.1643 31.2308C42.1804 30.9468 42.383 30.7506 42.6921 30.7281C42.8091 30.72 42.9269 30.7272 43.0455 30.7272Z" fill="white"/>
<path d="M42.8748 34.0312C44.831 34.086 46.5023 35.7751 46.5459 37.7427C46.5548 38.1308 46.3667 38.3859 46.048 38.4206C45.7413 38.4536 45.4839 38.2253 45.454 37.8443C45.387 37.001 45.0844 36.2844 44.4162 35.7421C43.9868 35.3934 43.497 35.1973 42.9482 35.1432C42.8417 35.1328 42.7327 35.1295 42.6286 35.1069C42.3026 35.0359 42.138 34.8196 42.1662 34.513C42.1928 34.2289 42.3986 34.0473 42.7134 34.0312C42.7674 34.0287 42.8215 34.0312 42.8748 34.0312Z" fill="white"/>
<defs>
<linearGradient id="paint0_linear_117_9644" x1="40" y1="80" x2="40" y2="0" gradientUnits="userSpaceOnUse">
<stop stop-color="#181C1F"/>
<stop offset="1" stop-color="#2D3037"/>
</linearGradient>
</defs>
</svg>
