<svg width="141" height="163" viewBox="0 0 141 163" fill="none" xmlns="http://www.w3.org/2000/svg">
<g clip-path="url(#clip0_105_2897)">
<path d="M127.455 151.963L118.607 146.61L122.501 144.262L111.951 137.731" stroke="#17FCD7" stroke-width="0.2845" stroke-miterlimit="10"/>
<path d="M127.806 151.612L118.958 146.258L122.852 143.91L112.308 137.38" stroke="#17FCD7" stroke-width="0.2845" stroke-miterlimit="10"/>
<path d="M43.9111 115.881L32.8259 109.289L37.2332 107.282L28.4075 101.644" stroke="#17FCD7" stroke-width="0.2845" stroke-miterlimit="10"/>
<path d="M44.7536 115.881L33.674 109.289L38.0757 107.282L29.25 101.644" stroke="#17FCD7" stroke-width="0.2845" stroke-miterlimit="10"/>
<path d="M105.691 115.881L116.771 109.289L112.369 107.282L121.195 101.644" stroke="#17FCD7" stroke-width="0.2845" stroke-miterlimit="10"/>
<path d="M104.844 115.881L115.929 109.289L111.521 107.282L120.347 101.644" stroke="#17FCD7" stroke-width="0.2845" stroke-miterlimit="10"/>
<path opacity="0.2" d="M140.794 157.334L131.644 162.849C131.31 163.05 130.886 163.05 130.551 162.844L121.357 157.228C121.134 157.089 121.134 156.765 121.357 156.626L130.696 150.999C130.986 150.826 131.349 150.826 131.639 150.999L140.794 156.587C141.073 156.765 141.073 157.167 140.794 157.334Z" fill="url(#paint0_linear_105_2897)"/>
<path d="M141 154.322C140.989 154.189 140.928 154.06 140.794 153.982L131.639 148.394C131.349 148.216 130.986 148.216 130.696 148.389L121.357 154.016C121.24 154.083 121.184 154.205 121.19 154.322V155.85H121.195C121.212 155.945 121.262 156.029 121.357 156.085L130.551 161.701C130.886 161.907 131.31 161.907 131.644 161.706L140.794 156.191C140.944 156.101 141.011 155.945 141 155.789H141.006L141 154.322Z" fill="#EDEDED"/>
<path d="M140.794 154.724L131.645 160.239C131.31 160.44 130.886 160.44 130.551 160.234L121.357 154.618C121.134 154.479 121.134 154.155 121.357 154.016L130.696 148.389C130.986 148.216 131.349 148.216 131.639 148.394L140.794 153.982C141.073 154.15 141.073 154.551 140.794 154.724Z" fill="white"/>
<path d="M13.947 149.632L22.8007 144.279L18.901 141.925L32.1229 133.761" stroke="#17FCD7" stroke-width="0.2845" stroke-miterlimit="10"/>
<path d="M13.5957 149.281L22.4493 143.927L18.5497 141.574L31.7716 133.409" stroke="#17FCD7" stroke-width="0.2845" stroke-miterlimit="10"/>
<path opacity="0.2" d="M0.212017 154.428L9.36134 159.944C9.69607 160.145 10.1201 160.145 10.4548 159.938L19.6488 154.322C19.8719 154.183 19.8719 153.86 19.6488 153.72L10.3097 148.093C10.0196 147.92 9.65702 147.92 9.36692 148.093L0.206439 153.687C-0.0725042 153.859 -0.0669253 154.261 0.212017 154.428Z" fill="url(#paint1_linear_105_2897)"/>
<path d="M0.00557886 151.417C0.0167366 151.283 0.078104 151.155 0.211997 151.077L9.3669 145.489C9.657 145.31 10.0196 145.31 10.3097 145.483L19.6487 151.11C19.7659 151.177 19.8217 151.3 19.8161 151.417V152.945H19.8105C19.7938 153.04 19.7436 153.123 19.6487 153.179L10.4548 158.795C10.12 159.001 9.69605 159.001 9.36132 158.801L0.211997 153.285C0.0613674 153.196 -0.00557886 153.04 0.00557886 152.884H0L0.00557886 151.417Z" fill="#EDEDED"/>
<path d="M0.212017 151.818L9.36134 157.334C9.69607 157.535 10.1201 157.535 10.4548 157.328L19.6488 151.712C19.8719 151.573 19.8719 151.25 19.6488 151.11L10.3097 145.483C10.0196 145.31 9.65702 145.31 9.36692 145.489L0.206439 151.077C-0.0725042 151.244 -0.0669253 151.646 0.212017 151.818Z" fill="white"/>
<path d="M114.171 121.754C106.941 116.071 91.7107 112.156 74.0871 112.156C57.1497 112.156 42.4215 115.77 34.8789 121.096L29.5176 121.051V129.215C29.5176 138.635 49.4731 146.275 74.0871 146.275C98.701 146.275 118.657 138.64 118.657 129.215V121.793L114.171 121.754Z" fill="#1CA7FB"/>
<path opacity="0.2" d="M72.2572 148.489C96.8723 148.489 116.827 140.851 116.827 131.43C116.827 122.008 96.8723 114.37 72.2572 114.37C47.6422 114.37 27.6877 122.008 27.6877 131.43C27.6877 140.851 47.6422 148.489 72.2572 148.489Z" fill="url(#paint2_linear_105_2897)"/>
<path d="M114.171 121.754C106.941 116.071 91.7107 112.156 74.0871 112.156C57.1497 112.156 42.4215 115.77 34.8789 121.096L29.5176 121.051V129.215C29.5176 138.635 49.4731 146.275 74.0871 146.275C98.701 146.275 118.657 138.64 118.657 129.215V121.793L114.171 121.754Z" fill="#1CA7FB"/>
<path d="M114.171 121.754C106.941 116.071 91.7107 112.156 74.0871 112.156C57.1497 112.156 42.4215 115.77 34.8789 121.096L29.5176 121.051V129.215C29.5176 138.635 49.4731 146.275 74.0871 146.275C98.701 146.275 118.657 138.64 118.657 129.215V121.793L114.171 121.754Z" fill="#1CA7FB"/>
<path d="M74.0871 138.111C98.7021 138.111 118.657 130.473 118.657 121.051C118.657 111.629 98.7021 103.991 74.0871 103.991C49.472 103.991 29.5176 111.629 29.5176 121.051C29.5176 130.473 49.472 138.111 74.0871 138.111Z" fill="#1CA7FB"/>
<path d="M74.0871 103.997C49.4676 103.997 29.5176 111.632 29.5176 121.051C29.5176 130.476 49.4676 138.111 74.0871 138.111C98.701 138.111 118.657 130.476 118.657 121.051C118.657 111.632 98.6954 103.997 74.0871 103.997ZM74.0871 137.642C50.1426 137.642 30.7393 130.214 30.7393 121.051C30.7393 111.894 50.1426 104.466 74.0871 104.466C98.0259 104.466 117.435 111.894 117.435 121.051C117.435 130.214 98.0259 137.642 74.0871 137.642Z" fill="#17FCD7"/>
<path opacity="0.2" d="M74.0871 134.224C93.0945 134.224 108.503 128.326 108.503 121.051C108.503 113.776 93.0945 107.879 74.0871 107.879C55.0797 107.879 39.6711 113.776 39.6711 121.051C39.6711 128.326 55.0797 134.224 74.0871 134.224Z" fill="url(#paint3_linear_105_2897)"/>
<path opacity="0.2" d="M74.0872 130.565C87.8136 130.565 98.941 126.305 98.941 121.051C98.941 115.796 87.8136 111.537 74.0872 111.537C60.3608 111.537 49.2334 115.796 49.2334 121.051C49.2334 126.305 60.3608 130.565 74.0872 130.565Z" fill="url(#paint4_linear_105_2897)"/>
<path opacity="0.2" d="M74.087 127.163C82.9052 127.163 90.0537 124.427 90.0537 121.051C90.0537 117.675 82.9052 114.939 74.087 114.939C65.2689 114.939 58.1204 117.675 58.1204 121.051C58.1204 124.427 65.2689 127.163 74.087 127.163Z" fill="url(#paint5_linear_105_2897)"/>
<path opacity="0.2" d="M83.0635 121.051C83.0635 122.947 79.0412 124.486 74.0816 124.486C69.122 124.486 65.0996 122.947 65.0996 121.051C65.0996 119.155 69.122 117.616 74.0816 117.616C79.0412 117.616 83.0635 119.155 83.0635 121.051Z" fill="url(#paint6_linear_105_2897)"/>
<path d="M58.5612 70.8371C58.5333 71.2498 58.511 71.484 58.511 71.484L57.7243 92.8266C57.1218 92.531 56.5528 92.3135 56.0005 92.1685C54.338 91.7335 52.9042 91.9622 51.6657 92.6481C51.3923 92.7987 51.1301 92.9716 50.8735 93.1668C50.4495 93.4902 50.0534 93.8639 49.6796 94.2877C47.3811 96.8921 46.0255 101.225 45.3393 104.906C45.2835 105.213 45.0994 105.352 44.9264 105.335C44.7312 105.319 44.5415 105.118 44.5415 104.761V82.0131C44.5415 75.8061 46.2877 69.85 49.3951 65.4554C51.3031 62.7562 53.7522 60.0347 56.8038 58.6294C57.5681 58.278 58.338 57.8096 58.7787 58.713C59.1358 59.4324 59.1302 60.3972 59.1581 61.178C59.2753 64.4126 58.7899 67.6192 58.5612 70.8371Z" fill="url(#paint7_linear_105_2897)"/>
<path d="M88.5141 70.8371C88.542 71.2498 88.5643 71.484 88.5643 71.484L89.3509 92.8266C89.9534 92.531 90.5225 92.3135 91.0748 92.1685C92.7373 91.7335 94.171 91.9622 95.4095 92.6481C95.6829 92.7987 95.9451 92.9716 96.2017 93.1668C96.6257 93.4902 97.0218 93.8639 97.3956 94.2877C99.6941 96.8921 101.05 101.225 101.736 104.906C101.792 105.213 101.976 105.352 102.149 105.335C102.344 105.319 102.534 105.118 102.534 104.761V82.0131C102.534 75.8061 100.788 69.85 97.6801 65.4554C95.7722 62.7562 93.3231 60.0347 90.2714 58.6294C89.5071 58.278 88.7372 57.8096 88.2965 58.713C87.9395 59.4324 87.945 60.3972 87.9171 61.178C87.8 64.4126 88.2853 67.6192 88.5141 70.8371Z" fill="url(#paint8_linear_105_2897)"/>
<path opacity="0.5" d="M73.6019 79.2135L57.942 90.2668L57.8472 128.97L89.6857 129.048L89.7136 90.2668L73.6019 79.2135Z" fill="url(#paint9_linear_105_2897)"/>
<path opacity="0.5" d="M74.1095 84.2996L62.7342 92.8544L62.6672 122.808L85.8028 122.863L85.8195 92.8544L74.1095 84.2996Z" fill="url(#paint10_linear_105_2897)"/>
<path opacity="0.5" d="M74.1542 79.7767L66.5111 88.326L66.4609 118.285L82.0092 118.341L82.0204 88.326L74.1542 79.7767Z" fill="url(#paint11_linear_105_2897)"/>
<path opacity="0.5" d="M55.649 79.7767L52.0116 92.4919L51.9893 118.285L59.3812 118.341L59.3868 88.326L55.649 79.7767Z" fill="url(#paint12_linear_105_2897)"/>
<path opacity="0.5" d="M55.6657 85.2365L53.568 94.7617L53.5569 114.069L57.8191 114.113L57.8247 91.6387L55.6657 85.2365Z" fill="url(#paint13_linear_105_2897)"/>
<path opacity="0.5" d="M91.4708 79.7767L87.839 92.4919L87.8167 118.285L95.2086 118.341L95.2142 92.7596L93.6521 88.3651L91.4708 79.7767Z" fill="url(#paint14_linear_105_2897)"/>
<path opacity="0.5" d="M91.493 85.2365L89.3954 94.7617L89.3787 114.069L93.6465 114.113L93.6521 91.6387L91.493 85.2365Z" fill="url(#paint15_linear_105_2897)"/>
<path d="M74.2768 11.5775H73.2893L73.7802 0L74.2768 11.5775Z" fill="url(#paint16_linear_105_2897)"/>
<path d="M74.2768 11.5775H73.8807L73.7803 0L74.2768 11.5775Z" fill="url(#paint17_linear_105_2897)"/>
<path d="M82.5502 112.223C82.0704 118.458 74.2544 135.584 74.2544 135.584C74.2544 135.584 66.5723 118.452 65.9587 112.223C65.3003 105.519 66.7397 98.08 74.2544 98.08C81.7691 98.0855 83.1304 104.644 82.5502 112.223Z" fill="url(#paint18_linear_105_2897)"/>
<path d="M72.0788 97.5111C72.0788 97.5111 67.7719 100.511 67.9671 108.458C68.1122 114.42 69.6687 120.053 71.8835 122.066C72.1178 122.278 70.4218 118.631 72.3744 115.257C72.1122 120.437 74.4888 127.57 74.4888 127.57C74.4888 127.57 76.3243 120.822 76.2852 117.532C76.9937 119.149 77.0886 120.443 76.7985 122.016C79.8445 119.528 81.1667 109.641 80.5753 105.525C79.9896 101.443 77.9366 98.2361 76.4749 97.2601C75.0021 96.2786 72.0788 97.5111 72.0788 97.5111Z" fill="url(#paint19_linear_105_2897)"/>
<path d="M60.1401 99.6748C59.8779 104.46 55.6435 117.588 55.6435 117.588C55.6435 117.588 51.4817 104.449 51.147 99.6748C50.7899 94.533 51.571 88.8279 55.6435 88.8279C59.7161 88.8335 60.4581 93.8638 60.1401 99.6748Z" fill="url(#paint20_linear_105_2897)"/>
<path d="M54.4663 88.3929C54.4663 88.3929 52.1343 90.6906 52.2403 96.7861C52.3184 101.354 53.1608 105.676 54.3603 107.22C54.4886 107.382 53.5681 104.583 54.6225 102C54.483 105.977 55.7662 111.442 55.7662 111.442C55.7662 111.442 56.7592 106.267 56.7369 103.74C57.1218 104.978 57.172 105.971 57.0158 107.176C58.6672 105.268 59.3813 97.684 59.0633 94.5275C58.7453 91.3933 57.6351 88.9395 56.8429 88.1866C56.0563 87.4449 54.4663 88.3929 54.4663 88.3929Z" fill="url(#paint21_linear_105_2897)"/>
<path d="M96.2128 99.6748C95.9506 104.46 91.7163 117.588 91.7163 117.588C91.7163 117.588 87.5544 104.449 87.2197 99.6748C86.8627 94.533 87.6437 88.8279 91.7163 88.8279C95.7888 88.8335 96.5308 93.8638 96.2128 99.6748Z" fill="url(#paint22_linear_105_2897)"/>
<path d="M90.539 88.3929C90.539 88.3929 88.2071 90.6906 88.3131 96.7861C88.3912 101.354 89.2336 105.676 90.433 107.22C90.5614 107.382 89.6408 104.583 90.6953 102C90.5558 105.977 91.8389 111.442 91.8389 111.442C91.8389 111.442 92.8319 106.267 92.8096 103.74C93.1946 104.978 93.2448 105.971 93.0886 107.176C94.7399 105.268 95.454 97.684 95.136 94.5275C94.818 91.3933 93.7078 88.9395 92.9156 88.1866C92.1234 87.4449 90.539 88.3929 90.539 88.3929Z" fill="url(#paint23_linear_105_2897)"/>
<path d="M89.6131 38.5695C87.6605 41.3468 81.3899 43.3377 73.7803 43.3377C66.1484 43.3377 59.9001 41.3468 57.9475 38.5695C57.9866 37.917 58.087 37.2868 58.2041 36.679H58.3994C58.3994 39.3614 64.5696 42.2391 73.7803 42.2391C82.9687 42.2391 89.1612 39.3614 89.1612 36.679H89.3397C89.4792 37.2924 89.5573 37.9226 89.6131 38.5695Z" fill="white"/>
<path d="M89.7136 40.3819V91.9454C89.7136 94.2096 86.489 96.1894 81.6912 97.249C81.4736 97.2992 81.2504 97.3438 81.0217 97.3884C78.8515 97.8123 76.3857 98.0521 73.7748 98.0521C71.1639 98.0521 68.7036 97.8123 66.5278 97.3773C66.4441 97.3661 66.3605 97.3494 66.2824 97.3327C61.2558 96.3065 57.8416 94.271 57.8416 91.9398V40.3819C57.8416 39.774 57.8583 39.1606 57.9364 38.575C57.942 38.4189 57.9643 38.2571 57.9754 38.101V38.0898L58.1763 36.7458L58.1819 36.7179C58.1819 36.7068 58.1874 36.7012 58.1874 36.6845C58.26 36.3164 58.3381 35.9483 58.4329 35.5803C58.5445 35.1118 58.6895 34.6489 58.8457 34.1916C59.0912 33.4388 59.3981 32.6915 59.7495 31.972C61.2391 28.8936 63.7886 24.2537 68.1066 17.8961C68.486 17.3384 68.8821 16.764 69.2894 16.1784C70.6283 14.26 72.1067 12.2077 73.7636 9.9937C73.7692 9.98812 73.7692 9.98254 73.7692 9.98254C75.4205 12.191 76.9045 14.26 78.2379 16.1784C78.6451 16.7696 79.0356 17.3384 79.4206 17.9072C83.7274 24.2593 86.277 28.8992 87.7721 31.9776C88.1292 32.7026 88.4248 33.4443 88.6815 34.2028C88.8321 34.6657 88.9716 35.1397 89.0943 35.6193C89.1836 35.9762 89.2617 36.3276 89.3286 36.6901C89.3342 36.7012 89.3342 36.7235 89.3398 36.7347V36.7402C89.4402 37.1975 89.5071 37.6604 89.5629 38.1345V38.14C89.5852 38.2794 89.7136 39.774 89.7136 40.3819Z" fill="url(#paint24_linear_105_2897)"/>
<path d="M89.7192 90.0771V91.951C89.7192 95.3194 82.5782 98.0576 73.7804 98.0576C64.9714 98.0576 57.8472 95.3194 57.8472 91.951V90.0771C57.8472 93.4456 64.9658 96.1838 73.7804 96.1838C82.5782 96.1838 89.7192 93.4456 89.7192 90.0771Z" fill="url(#paint25_linear_105_2897)"/>
<path d="M89.574 38.1289V38.1345C88.8767 40.1199 85.6967 41.7985 81.2727 42.7019C79.0356 43.1592 76.4804 43.4213 73.7747 43.4213C65.6575 43.4213 58.9852 41.0902 57.981 38.0955V38.0843L58.1818 36.7403L58.1874 36.7124C59.7216 39.4729 66.1038 41.5419 73.7691 41.5419C76.4804 41.5419 79.0356 41.2798 81.2671 40.8225C85.3285 39.9916 88.3467 38.5081 89.3453 36.7291C89.4513 37.1864 89.5182 37.6493 89.574 38.1289Z" fill="url(#paint26_linear_105_2897)"/>
<path d="M89.1055 35.6081C87.1919 38.1623 81.0496 40.0306 73.7748 40.0306C66.4609 40.0306 60.3186 38.1456 58.4441 35.5747C58.5557 35.1062 58.7007 34.6433 58.8569 34.186C61.1164 36.5116 66.9351 38.1567 73.7748 38.1567C80.6033 38.1567 86.4276 36.506 88.6926 34.1916C88.8433 34.6545 88.9827 35.1341 89.1055 35.6081Z" fill="url(#paint27_linear_105_2897)"/>
<path d="M79.4316 17.8906C77.7189 18.9167 75.7607 19.1788 73.7746 19.1788C71.783 19.1788 69.8862 18.688 68.1177 17.885C68.497 17.3273 68.8931 16.7529 69.3004 16.1673C70.6393 14.2489 72.1177 12.1966 73.7746 9.98259C73.7802 9.97701 73.7802 9.97144 73.7802 9.97144C75.4316 12.1799 76.9155 14.2489 78.2489 16.1673C78.6561 16.7585 79.0522 17.3273 79.4316 17.8906Z" fill="url(#paint28_linear_105_2897)"/>
<path d="M79.4316 17.8905C77.7189 18.9111 75.7607 19.1788 73.7746 19.1788C71.783 19.1788 69.8862 18.6824 68.1177 17.8849C68.3129 17.5949 68.5194 17.2994 68.7202 17.0038C70.3157 17.6563 72.0006 18.0467 73.7746 18.0467C75.5487 18.0467 77.2949 17.8347 78.8626 17.0651C79.0578 17.3384 79.2475 17.6117 79.4316 17.8905Z" fill="white"/>
<path opacity="0.2" d="M73.7748 9.98254C73.5461 10.5012 66.288 27.2596 66.288 40.8225C66.288 54.6084 66.288 97.3382 66.288 97.3382C61.2614 96.3121 57.8472 94.2765 57.8472 91.9454V40.3819C57.8472 39.774 57.8639 39.1606 57.942 38.575C57.9811 37.9225 58.0815 37.2923 58.1986 36.6845C58.5166 35.0449 59.0299 33.4666 59.7607 31.9665C61.8137 27.7336 65.864 20.5395 73.7748 9.98254Z" fill="url(#paint29_linear_105_2897)"/>
<path opacity="0.2" d="M73.7859 9.98254C74.0146 10.5012 81.2727 27.2596 81.2727 40.8225C81.2727 54.6084 81.2727 97.3382 81.2727 97.3382C86.2993 96.3121 89.7135 94.2765 89.7135 91.9454V40.3819C89.7135 39.774 89.6968 39.1606 89.6187 38.575C89.5796 37.9225 89.4792 37.2923 89.3621 36.6845C89.0441 35.0449 88.5308 33.4666 87.8 31.9665C85.7525 27.7336 81.7023 20.5395 73.7859 9.98254Z" fill="url(#paint30_linear_105_2897)"/>
<path opacity="0.3" d="M81.6912 97.2545C81.4736 97.3047 81.2505 97.3493 81.0218 97.394C78.8516 97.8178 76.3857 98.0576 73.7748 98.0576C71.1639 98.0576 68.7036 97.8178 66.5279 97.3828C66.5112 97.0147 66.5112 94.6725 66.5 94.3044C66.5 93.8025 66.5056 93.2615 66.5335 92.6704C66.7622 88.3093 67.917 83.7586 69.9924 79.1242L70.1486 78.7617C70.1653 78.7227 70.1876 78.6836 70.2044 78.639L70.2099 78.6335C70.2211 78.5888 70.2434 78.5498 70.2602 78.5219C70.2769 78.4662 70.3104 78.416 70.3327 78.3658C70.3606 78.31 70.3885 78.2375 70.4275 78.1538L70.5224 77.9642C70.5558 77.8862 70.5781 77.836 70.6116 77.7858C70.9631 77.0552 71.3146 76.3804 71.6604 75.7558C71.7999 75.4937 71.9394 75.2539 72.0677 75.0308L72.2072 74.8022C72.4247 74.4229 72.62 74.1162 72.7539 73.8931C72.7874 73.8485 72.8989 73.6589 72.8989 73.6589C73.0049 73.4916 73.0775 73.4191 73.0775 73.4191L74.1207 71.9357L75.1305 73.4414L75.309 73.7258C75.3425 73.776 75.3815 73.8262 75.415 73.8931C75.5656 74.1274 75.7553 74.4285 75.9673 74.7966L76.0175 74.8858C76.051 74.936 76.0733 74.9862 76.1012 75.0308C76.2407 75.265 76.3857 75.5216 76.5419 75.8004C76.8823 76.425 77.2226 77.0831 77.5629 77.769C77.6019 77.8527 77.641 77.9363 77.6744 78.0312C77.6912 78.0758 77.7302 78.1315 77.7581 78.1985C77.7916 78.2542 77.8139 78.31 77.8418 78.3769C77.8753 78.4271 77.8976 78.4996 77.9311 78.5554L77.9813 78.6669L77.998 78.7227L78.1542 79.074C78.1877 79.1242 78.2044 79.1688 78.2268 79.2134C79.6215 82.3644 81.3677 87.2664 81.641 92.6759C81.6689 93.2169 81.6801 93.7634 81.6745 94.3211C81.6801 94.6334 81.708 96.4626 81.6912 97.2545Z" fill="url(#paint31_linear_105_2897)"/>
<path d="M80.4414 91.845C80.4358 93.2448 80.3187 94.6781 80.062 96.1113C79.9672 96.6578 79.8501 97.2099 79.7106 97.7621C79.5488 98.4145 79.3535 99.0726 79.1248 99.7251C75.7998 102.402 69.9085 101.075 69.0773 99.7251C68.8485 99.0726 68.6533 98.4201 68.4915 97.7621C68.352 97.2099 68.2349 96.6578 68.14 96.1113C67.889 94.6725 67.7663 93.2504 67.7607 91.845C67.7551 91.3208 67.7662 90.7966 67.7941 90.2835C68.0508 85.2142 69.6296 80.5686 71.1415 77.1835C71.1694 77.1221 71.1972 77.0608 71.2251 76.9995C71.253 76.9381 71.2809 76.8768 71.3088 76.8154C71.3311 76.7652 71.3535 76.7206 71.3758 76.6704C71.3814 76.6537 71.3869 76.6425 71.3925 76.6314C71.4204 76.57 71.4483 76.5087 71.4762 76.4474C71.5041 76.3804 71.5376 76.3135 71.571 76.2466C71.5989 76.1852 71.6324 76.1183 71.6603 76.057C71.6938 75.9901 71.7272 75.9287 71.7551 75.8618C72.1122 75.1256 72.4581 74.4731 72.7649 73.9155C72.9044 73.6589 73.0383 73.4247 73.161 73.2072C73.2056 73.1347 73.2447 73.0622 73.2893 72.9953C73.5069 72.6216 73.691 72.3261 73.8305 72.1086C73.8807 72.0249 73.9253 71.958 73.9588 71.9022C74.048 71.7628 74.1038 71.6903 74.1038 71.6903C74.1038 71.6903 74.154 71.7628 74.2433 71.9022C74.2824 71.9636 74.327 72.0305 74.3772 72.1086C74.5167 72.3205 74.6952 72.6161 74.9128 72.9841C74.9518 73.0511 74.9964 73.1236 75.0355 73.1961C75.1694 73.4247 75.3144 73.6812 75.4651 73.9545C75.7663 74.501 76.1011 75.1424 76.4525 75.8618C76.4916 75.9399 76.5306 76.0179 76.5641 76.1016C76.592 76.1629 76.6255 76.2243 76.6534 76.2912C76.6813 76.3414 76.7036 76.3972 76.7315 76.4529C76.7594 76.5143 76.7928 76.5756 76.8152 76.637C76.8263 76.6648 76.843 76.6927 76.8542 76.7206C76.8654 76.7541 76.8821 76.7931 76.8988 76.8266C76.9323 76.9047 76.9714 76.9827 77.0048 77.0608C77.0327 77.1221 77.0606 77.1835 77.0885 77.2504C78.5948 80.6244 80.1569 85.2532 80.4079 90.2947C80.4358 90.7966 80.447 91.3208 80.4414 91.845Z" fill="url(#paint32_linear_105_2897)"/>
<path d="M68.1345 96.1169C68.2294 96.6635 68.3465 97.2156 68.486 97.7677C70.0481 98.2919 71.9728 98.5931 74.0983 98.5931C76.2239 98.5931 78.1486 98.2919 79.7051 97.7677C79.8445 97.2156 79.9617 96.6635 80.0565 96.1169C78.6005 96.7527 76.5363 97.1933 74.0927 97.1933C71.6604 97.1933 69.5906 96.7527 68.1345 96.1169Z" fill="url(#paint33_linear_105_2897)"/>
<path d="M77.1499 82.1079C77.1499 83.7921 75.7831 85.1584 74.0983 85.1584C72.4135 85.1584 71.0466 83.7921 71.0466 82.1079C71.0466 80.4237 72.4135 79.0574 74.0983 79.0574C75.7831 79.0574 77.1499 80.4237 77.1499 82.1079Z" fill="url(#paint34_linear_105_2897)"/>
<path d="M77.1499 81.8569C77.1499 83.5411 75.7831 84.9075 74.0983 84.9075C72.4135 84.9075 71.0466 83.5411 71.0466 81.8569C71.0466 80.1727 72.4135 78.8064 74.0983 78.8064C75.7831 78.8064 77.1499 80.1727 77.1499 81.8569Z" fill="url(#paint35_linear_105_2897)"/>
<path d="M77.1499 81.8569C77.1499 83.5411 75.7831 84.9075 74.0983 84.9075C72.4135 84.9075 71.0466 83.5411 71.0466 81.8569C71.0466 80.1727 72.4135 78.8064 74.0983 78.8064C75.7831 78.8064 77.1499 80.1727 77.1499 81.8569Z" fill="url(#paint36_linear_105_2897)"/>
<path d="M76.5419 81.857C76.5419 83.2066 75.4484 84.2996 74.0983 84.2996C72.7482 84.2996 71.6548 83.2066 71.6548 81.857C71.6548 80.5074 72.7482 79.4143 74.0983 79.4143C75.4484 79.4143 76.5419 80.5074 76.5419 81.857Z" fill="url(#paint37_linear_105_2897)"/>
<path d="M74.0089 81.0929C73.7634 81.4386 73.3506 81.5613 73.0828 81.3717C72.815 81.1821 72.7927 80.7527 73.0382 80.4069C73.2836 80.0612 73.6965 79.9385 73.9643 80.1281C74.232 80.3177 74.2544 80.7527 74.0089 81.0929Z" fill="url(#paint38_linear_105_2897)"/>
<path d="M72.9322 82.2919C72.8262 82.4425 72.603 82.4704 72.4357 82.3533C72.2683 82.2362 72.2237 82.0187 72.3297 81.8681C72.4357 81.7175 72.6588 81.6896 72.8262 81.8067C72.988 81.9239 73.0382 82.1413 72.9322 82.2919Z" fill="url(#paint39_linear_105_2897)"/>
<path d="M57.8526 62.2208V91.8116C55.4649 91.8116 53.3058 91.0364 52.8261 90.2612C52.5973 89.6087 52.4076 88.9562 52.2403 88.2926C52.1008 87.746 51.9781 87.1939 51.8832 86.6418C51.6266 85.2086 51.515 83.7809 51.5095 82.3755C51.5039 81.8569 51.515 81.3271 51.5429 80.814C51.621 79.3529 51.7996 77.9308 52.0618 76.5589C52.0673 76.4808 52.0897 76.4027 52.1064 76.3247C52.1399 76.1239 52.1845 75.9287 52.2291 75.7335C52.5862 74.066 53.0548 72.4822 53.5625 71.0378C53.6015 70.9151 53.6462 70.8036 53.6908 70.6865C53.7187 70.6084 53.741 70.5415 53.7689 70.4634C54.1371 69.4819 54.5165 68.5505 54.8902 67.7084C54.9181 67.6471 54.946 67.5858 54.9739 67.5244C55.0018 67.4631 55.0297 67.4017 55.0576 67.3404C55.0855 67.2902 55.1022 67.2456 55.1301 67.1954C55.1357 67.1786 55.1413 67.1619 55.1469 67.1563C55.1748 67.095 55.2027 67.0281 55.2305 66.9667C55.264 66.9054 55.2919 66.8329 55.3254 66.7715C55.3589 66.7102 55.3868 66.6433 55.4147 66.5819C55.4481 66.5206 55.476 66.4481 55.5095 66.3867C55.8721 65.6506 56.2124 64.9981 56.5193 64.446C56.6587 64.1839 56.7926 63.9496 56.9209 63.7377C56.9656 63.6652 57.0046 63.5927 57.0493 63.5258C57.2668 63.1522 57.4509 62.851 57.5904 62.6391C57.635 62.5554 57.6852 62.4941 57.7187 62.4272C57.8024 62.2933 57.8526 62.2208 57.8526 62.2208Z" fill="url(#paint40_linear_105_2897)"/>
<path d="M57.8527 87.7238V89.1292C55.7271 89.1292 53.8024 88.8224 52.2403 88.2982C52.1009 87.7517 51.9781 87.1996 51.8833 86.6475C53.3338 87.2888 55.4036 87.7238 57.8527 87.7238Z" fill="url(#paint41_linear_105_2897)"/>
<path d="M55.8498 73.6144C55.8498 75.2986 54.483 76.6594 52.7982 76.6594C52.5415 76.6594 52.2961 76.6259 52.0618 76.5646C52.0673 76.4865 52.0897 76.4084 52.1064 76.3303C52.1399 76.1296 52.1845 75.9344 52.2291 75.7392C52.5862 74.0717 53.0548 72.4879 53.5625 71.0435C53.6015 70.9208 53.6462 70.8093 53.6908 70.6921C54.9126 71.0602 55.7996 72.1644 55.8498 73.4917C55.8498 73.5308 55.8498 73.5754 55.8498 73.6144Z" fill="url(#paint42_linear_105_2897)"/>
<path d="M55.8499 73.369C55.8499 73.4136 55.8499 73.4582 55.8443 73.4973C55.7829 75.1201 54.4384 76.4195 52.7982 76.4195C52.5583 76.4195 52.3296 76.3916 52.1064 76.3359C52.1399 76.1351 52.1845 75.9399 52.2292 75.7447C52.5862 74.0773 53.0549 72.4934 53.5625 71.049C53.6016 70.9263 53.6462 70.8148 53.6908 70.6977C53.7187 70.6196 53.741 70.5527 53.7689 70.4746C54.974 70.8706 55.8499 72.0138 55.8499 73.369Z" fill="url(#paint43_linear_105_2897)"/>
<path d="M55.8499 73.369C55.8499 73.4136 55.8499 73.4582 55.8443 73.4973C55.7829 75.1201 54.4384 76.4195 52.7982 76.4195C52.5583 76.4195 52.3296 76.3916 52.1064 76.3359C52.1399 76.1351 52.1845 75.9399 52.2292 75.7447C52.5862 74.0773 53.0549 72.4934 53.5625 71.049C53.6016 70.9263 53.6462 70.8148 53.6908 70.6977C53.7187 70.6196 53.741 70.5527 53.7689 70.4746C54.974 70.8706 55.8499 72.0138 55.8499 73.369Z" fill="url(#paint44_linear_105_2897)"/>
<path d="M55.2418 73.369C55.2418 74.713 54.1484 75.8117 52.7983 75.8117C52.603 75.8117 52.4134 75.7838 52.2292 75.7392C52.5863 74.0717 53.0549 72.4879 53.5626 71.0435C54.5389 71.3613 55.2418 72.2815 55.2418 73.369Z" fill="url(#paint45_linear_105_2897)"/>
<path d="M89.7134 62.2208V91.8116C92.1011 91.8116 94.2602 91.0364 94.7399 90.2612C94.9687 89.6087 95.1583 88.9562 95.3257 88.2926C95.4652 87.746 95.5879 87.1939 95.6828 86.6418C95.9394 85.2086 96.051 83.7809 96.0565 82.3755C96.0621 81.8569 96.051 81.3271 96.0231 80.814C95.945 79.3529 95.7664 77.9308 95.5042 76.5589C95.4987 76.4808 95.4763 76.4027 95.4596 76.3247C95.4261 76.1239 95.3815 75.9287 95.3369 75.7335C94.9798 74.066 94.5112 72.4822 94.0035 71.0378C93.9645 70.9151 93.9198 70.8036 93.8752 70.6865C93.8473 70.6084 93.825 70.5415 93.7971 70.4634C93.4289 69.4819 93.0495 68.5505 92.6758 67.7084C92.6479 67.6471 92.62 67.5858 92.5921 67.5244C92.5642 67.4631 92.5363 67.4017 92.5084 67.3404C92.4805 67.2902 92.4638 67.2456 92.4359 67.1954C92.4303 67.1786 92.4247 67.1619 92.4191 67.1563C92.3912 67.095 92.3633 67.0281 92.3354 66.9667C92.302 66.9054 92.2741 66.8329 92.2406 66.7715C92.2071 66.7102 92.1792 66.6433 92.1513 66.5819C92.1179 66.5206 92.09 66.4481 92.0565 66.3867C91.6939 65.6506 91.3536 64.9981 91.0467 64.446C90.9073 64.1839 90.7734 63.9496 90.645 63.7377C90.6004 63.6652 90.5614 63.5927 90.5167 63.5258C90.2992 63.1522 90.1151 62.851 89.9756 62.6391C89.931 62.5554 89.8807 62.4941 89.8473 62.4272C89.7636 62.2933 89.7134 62.2208 89.7134 62.2208Z" fill="url(#paint46_linear_105_2897)"/>
<path d="M89.7134 87.7238V89.1292C91.8389 89.1292 93.7636 88.8224 95.3257 88.2982C95.4652 87.7517 95.5879 87.1996 95.6828 86.6475C94.2267 87.2888 92.1569 87.7238 89.7134 87.7238Z" fill="url(#paint47_linear_105_2897)"/>
<path d="M91.7107 73.6144C91.7107 75.2986 93.0775 76.6594 94.7623 76.6594C95.019 76.6594 95.2644 76.6259 95.4987 76.5646C95.4932 76.4865 95.4708 76.4084 95.4541 76.3303C95.4206 76.1296 95.376 75.9344 95.3314 75.7392C94.9743 74.0717 94.5057 72.4879 93.998 71.0435C93.959 70.9208 93.9143 70.8093 93.8697 70.6921C92.6479 71.0602 91.7609 72.1644 91.7107 73.4917C91.7107 73.5308 91.7107 73.5754 91.7107 73.6144Z" fill="url(#paint48_linear_105_2897)"/>
<path d="M91.7107 73.369C91.7107 73.4136 91.7107 73.4582 91.7163 73.4973C91.7776 75.1201 93.1221 76.4195 94.7623 76.4195C95.0022 76.4195 95.231 76.3916 95.4541 76.3359C95.4206 76.1351 95.376 75.9399 95.3314 75.7447C94.9743 74.0773 94.5057 72.4934 93.998 71.049C93.959 70.9263 93.9143 70.8148 93.8697 70.6977C93.8418 70.6196 93.8195 70.5527 93.7916 70.4746C92.5922 70.8706 91.7107 72.0138 91.7107 73.369Z" fill="url(#paint49_linear_105_2897)"/>
<path d="M91.7107 73.369C91.7107 73.4136 91.7107 73.4582 91.7163 73.4973C91.7776 75.1201 93.1221 76.4195 94.7623 76.4195C95.0022 76.4195 95.231 76.3916 95.4541 76.3359C95.4206 76.1351 95.376 75.9399 95.3314 75.7447C94.9743 74.0773 94.5057 72.4934 93.998 71.049C93.959 70.9263 93.9143 70.8148 93.8697 70.6977C93.8418 70.6196 93.8195 70.5527 93.7916 70.4746C92.5922 70.8706 91.7107 72.0138 91.7107 73.369Z" fill="url(#paint50_linear_105_2897)"/>
<path d="M92.3245 73.369C92.3245 74.713 93.4179 75.8117 94.768 75.8117C94.9633 75.8117 95.1529 75.7838 95.337 75.7392C94.98 74.0717 94.5114 72.4879 94.0037 71.0435C93.0274 71.3613 92.3245 72.2815 92.3245 73.369Z" fill="url(#paint51_linear_105_2897)"/>
<path d="M73.7804 65.539C77.45 65.539 80.4248 62.5653 80.4248 58.897C80.4248 55.2287 77.45 52.255 73.7804 52.255C70.1108 52.255 67.136 55.2287 67.136 58.897C67.136 62.5653 70.1108 65.539 73.7804 65.539Z" fill="url(#paint52_linear_105_2897)"/>
<path d="M73.7804 65.539C77.45 65.539 80.4248 62.5653 80.4248 58.897C80.4248 55.2287 77.45 52.255 73.7804 52.255C70.1108 52.255 67.136 55.2287 67.136 58.897C67.136 62.5653 70.1108 65.539 73.7804 65.539Z" fill="url(#paint53_linear_105_2897)"/>
<path d="M73.7804 64.9144C77.45 64.9144 80.4248 61.9407 80.4248 58.2724C80.4248 54.6041 77.45 51.6304 73.7804 51.6304C70.1108 51.6304 67.136 54.6041 67.136 58.2724C67.136 61.9407 70.1108 64.9144 73.7804 64.9144Z" fill="url(#paint54_linear_105_2897)"/>
<path opacity="0.7" d="M78.5225 53.6268C77.3286 52.4501 75.6828 51.7251 73.8697 51.7251C70.1988 51.7251 67.2309 54.6976 67.2309 58.3672C67.2309 60.1685 67.945 61.7969 69.1109 62.9959C67.8947 61.7969 67.1416 60.1239 67.1416 58.2779C67.1416 54.6139 70.1151 51.6415 73.7804 51.6415C75.6382 51.6303 77.323 52.3944 78.5225 53.6268Z" fill="#47E6FC"/>
<path d="M78.8795 58.2724C78.8795 61.0832 76.6033 63.3697 73.7804 63.3697C73.4066 63.3697 73.044 63.3306 72.6981 63.2582C72.1346 63.1355 71.5991 62.918 71.1249 62.6168C70.3048 62.126 69.6409 61.4066 69.2169 60.5367C68.871 59.8507 68.6702 59.0811 68.6702 58.2724C68.6702 58.094 68.6813 57.9044 68.6981 57.7259C68.9547 55.339 70.8403 53.4485 73.2337 53.1919C73.4122 53.1752 73.6019 53.1641 73.7804 53.1641C74.6005 53.1641 75.3815 53.3592 76.0566 53.7106C76.9213 54.1344 77.6465 54.8037 78.1263 55.6179C78.4276 56.0863 78.6452 56.6217 78.7679 57.1905C78.846 57.5419 78.8795 57.8988 78.8795 58.2724Z" fill="url(#paint55_linear_105_2897)"/>
<path d="M78.8795 58.2723C78.8795 61.0831 76.6033 63.3696 73.7804 63.3696C73.4066 63.3696 73.0496 63.3305 72.6981 63.258C72.1346 63.1354 71.5991 62.9179 71.1249 62.6167C70.3104 62.1259 69.6409 61.401 69.2169 60.5366C68.871 59.8506 68.6702 59.081 68.6702 58.2723C68.6702 58.2333 68.6702 58.1887 68.6702 58.1497C68.6869 58.9193 68.8822 59.6554 69.2169 60.3135C69.6409 61.1779 70.3048 61.9029 71.1249 62.3936C71.5935 62.6948 72.1291 62.9123 72.6981 63.035C73.044 63.1131 73.401 63.1465 73.7804 63.1465C76.5642 63.1465 78.8181 60.9214 78.8795 58.1608C78.8795 58.1943 78.8795 58.2333 78.8795 58.2723Z" fill="#D5E5EA"/>
<path opacity="0.5" d="M78.8795 58.0493C78.8795 58.0883 78.8795 58.1218 78.8795 58.1552C78.8739 57.8206 78.8349 57.5027 78.7679 57.1904C78.6452 56.6272 78.4276 56.0918 78.1264 55.6178C77.6466 54.8035 76.9213 54.1343 76.0566 53.7105C75.376 53.3591 74.6005 53.164 73.7804 53.164C73.6019 53.164 73.4178 53.1751 73.2337 53.1918C70.846 53.4484 68.9547 55.3333 68.7037 57.7202C68.6869 57.8597 68.6814 58.0047 68.6758 58.1441C68.6758 58.1106 68.6758 58.0772 68.6758 58.0437C68.6758 57.8652 68.6869 57.6756 68.7037 57.4972C68.9603 55.1047 70.846 53.2197 73.2337 52.9632C73.4122 52.9465 73.6019 52.9353 73.7804 52.9353C74.6005 52.9353 75.3816 53.1305 76.0566 53.4818C76.9213 53.9057 77.6466 54.5693 78.1264 55.3891C78.4276 55.8576 78.6396 56.3929 78.7679 56.9562C78.8405 57.3131 78.8795 57.67 78.8795 58.0493Z" fill="url(#paint56_linear_105_2897)"/>
<path opacity="0.2" d="M80.4248 58.2724C80.4248 61.9419 77.4512 64.9144 73.7859 64.9144C71.3535 64.9144 69.2224 63.6038 68.062 61.6464C69.0495 62.2319 70.2099 62.5665 71.4372 62.5665C75.1081 62.5665 78.0816 59.5941 78.0816 55.9245C78.0816 54.692 77.7469 53.5376 77.1611 52.5505C79.1137 53.7105 80.4248 55.8353 80.4248 58.2724Z" fill="url(#paint57_linear_105_2897)"/>
<path opacity="0.5" d="M72.3913 57.012C73.1616 57.012 73.786 56.3578 73.786 55.5509C73.786 54.7439 73.1616 54.0897 72.3913 54.0897C71.621 54.0897 70.9966 54.7439 70.9966 55.5509C70.9966 56.3578 71.621 57.012 72.3913 57.012Z" fill="url(#paint58_linear_105_2897)"/>
<path opacity="0.5" d="M71.5935 58.2724C71.5935 58.8357 71.1584 59.293 70.6228 59.293C70.0872 59.293 69.6521 58.8357 69.6521 58.2724C69.6521 57.7091 70.0872 57.2518 70.6228 57.2518C71.1584 57.2518 71.5935 57.7091 71.5935 58.2724Z" fill="url(#paint59_linear_105_2897)"/>
<g opacity="0.74">
<path d="M57.1384 109.663C57.1384 109.869 56.9711 110.037 56.7647 110.037C56.5582 110.037 56.3909 109.869 56.3909 109.663C56.3909 109.457 56.5582 109.289 56.7647 109.289C56.9711 109.289 57.1384 109.457 57.1384 109.663Z" fill="url(#paint60_radial_105_2897)"/>
<path d="M60.363 103.4C60.5695 103.4 60.7368 103.233 60.7368 103.027C60.7368 102.82 60.5695 102.653 60.363 102.653C60.1566 102.653 59.9893 102.82 59.9893 103.027C59.9893 103.233 60.1566 103.4 60.363 103.4Z" fill="url(#paint61_radial_105_2897)"/>
<path d="M74.6116 105.469C74.6116 105.676 74.4442 105.843 74.2378 105.843C74.0314 105.843 73.864 105.676 73.864 105.469C73.864 105.263 74.0314 105.096 74.2378 105.096C74.4498 105.096 74.6116 105.263 74.6116 105.469Z" fill="url(#paint62_radial_105_2897)"/>
<path d="M84.6423 114.152C84.6423 114.359 84.475 114.526 84.2686 114.526C84.0621 114.526 83.8948 114.359 83.8948 114.152C83.8948 113.946 84.0621 113.779 84.2686 113.779C84.475 113.779 84.6423 113.946 84.6423 114.152Z" fill="url(#paint63_radial_105_2897)"/>
<path d="M65.8472 109.663C65.8472 109.869 65.6798 110.037 65.4734 110.037C65.267 110.037 65.0996 109.869 65.0996 109.663C65.0996 109.457 65.267 109.289 65.4734 109.289C65.6798 109.289 65.8472 109.457 65.8472 109.663Z" fill="url(#paint64_radial_105_2897)"/>
<path d="M66.5891 98.225C66.5891 98.4313 66.4218 98.5986 66.2153 98.5986C66.0089 98.5986 65.8416 98.4313 65.8416 98.225C65.8416 98.0186 66.0089 97.8513 66.2153 97.8513C66.4218 97.8569 66.5891 98.0186 66.5891 98.225Z" fill="url(#paint65_radial_105_2897)"/>
<path d="M64.9098 103.623C64.9098 103.718 64.8317 103.802 64.7313 103.802C64.6364 103.802 64.5527 103.724 64.5527 103.623C64.5527 103.529 64.6308 103.445 64.7313 103.445C64.8317 103.445 64.9098 103.529 64.9098 103.623Z" fill="url(#paint66_radial_105_2897)"/>
<path d="M53.3504 97.1709C53.449 97.1709 53.5289 97.091 53.5289 96.9924C53.5289 96.8939 53.449 96.814 53.3504 96.814C53.2518 96.814 53.1719 96.8939 53.1719 96.9924C53.1719 97.091 53.2518 97.1709 53.3504 97.1709Z" fill="url(#paint67_radial_105_2897)"/>
<path d="M56.3965 94.3769C56.4951 94.3769 56.5751 94.297 56.5751 94.1985C56.5751 94.0999 56.4951 94.02 56.3965 94.02C56.2979 94.02 56.218 94.0999 56.218 94.1985C56.218 94.297 56.2979 94.3769 56.3965 94.3769Z" fill="url(#paint68_radial_105_2897)"/>
<path d="M62.338 96.9924C62.338 97.0872 62.2599 97.1709 62.1595 97.1709C62.0646 97.1709 61.981 97.0928 61.981 96.9924C61.981 96.8976 62.0591 96.814 62.1595 96.814C62.2599 96.8195 62.338 96.8976 62.338 96.9924Z" fill="url(#paint69_radial_105_2897)"/>
<path d="M55.6434 102.173C55.742 102.173 55.8219 102.093 55.8219 101.995C55.8219 101.896 55.742 101.816 55.6434 101.816C55.5448 101.816 55.4648 101.896 55.4648 101.995C55.4648 102.093 55.5448 102.173 55.6434 102.173Z" fill="url(#paint70_radial_105_2897)"/>
<path d="M69.3954 105.096C69.3954 105.19 69.3173 105.274 69.2169 105.274C69.1164 105.274 69.0383 105.196 69.0383 105.096C69.0383 105.001 69.1164 104.917 69.2169 104.917C69.3173 104.917 69.3954 105.001 69.3954 105.096Z" fill="url(#paint71_radial_105_2897)"/>
<path d="M60.9153 116.913C61.0139 116.913 61.0939 116.833 61.0939 116.734C61.0939 116.636 61.0139 116.556 60.9153 116.556C60.8167 116.556 60.7368 116.636 60.7368 116.734C60.7368 116.833 60.8167 116.913 60.9153 116.913Z" fill="url(#paint72_radial_105_2897)"/>
<path d="M64.9098 120.359C64.9098 120.454 64.8317 120.538 64.7313 120.538C64.6364 120.538 64.5527 120.46 64.5527 120.359C64.5527 120.265 64.6308 120.181 64.7313 120.181C64.8317 120.187 64.9098 120.265 64.9098 120.359Z" fill="url(#paint73_radial_105_2897)"/>
<path d="M71.6546 120.187C71.7532 120.187 71.8331 120.107 71.8331 120.008C71.8331 119.91 71.7532 119.83 71.6546 119.83C71.556 119.83 71.4761 119.91 71.4761 120.008C71.4761 120.107 71.556 120.187 71.6546 120.187Z" fill="url(#paint74_radial_105_2897)"/>
<path d="M75.7272 121.62C75.7272 121.715 75.6491 121.798 75.5486 121.798C75.4538 121.798 75.3701 121.72 75.3701 121.62C75.3701 121.525 75.4482 121.441 75.5486 121.441C75.6491 121.441 75.7272 121.519 75.7272 121.62Z" fill="url(#paint75_radial_105_2897)"/>
<path d="M78.037 119.06C78.037 119.155 77.9589 119.239 77.8585 119.239C77.7636 119.239 77.6799 119.16 77.6799 119.06C77.6799 118.965 77.758 118.882 77.8585 118.882C77.9589 118.887 78.037 118.965 78.037 119.06Z" fill="url(#paint76_radial_105_2897)"/>
<path d="M81.6966 120.365C81.7952 120.365 81.8751 120.285 81.8751 120.187C81.8751 120.088 81.7952 120.008 81.6966 120.008C81.598 120.008 81.5181 120.088 81.5181 120.187C81.5181 120.285 81.598 120.365 81.6966 120.365Z" fill="url(#paint77_radial_105_2897)"/>
<path d="M79.097 112.708C79.1956 112.708 79.2755 112.628 79.2755 112.53C79.2755 112.431 79.1956 112.351 79.097 112.351C78.9984 112.351 78.9185 112.431 78.9185 112.53C78.9185 112.628 78.9984 112.708 79.097 112.708Z" fill="url(#paint78_radial_105_2897)"/>
<path d="M83.5655 110.583C83.6641 110.583 83.744 110.503 83.744 110.405C83.744 110.306 83.6641 110.226 83.5655 110.226C83.4669 110.226 83.387 110.306 83.387 110.405C83.387 110.503 83.4669 110.583 83.5655 110.583Z" fill="url(#paint79_radial_105_2897)"/>
<path d="M85.4456 103.573C85.5442 103.573 85.6241 103.493 85.6241 103.395C85.6241 103.296 85.5442 103.216 85.4456 103.216C85.347 103.216 85.2671 103.296 85.2671 103.395C85.2671 103.493 85.347 103.573 85.4456 103.573Z" fill="url(#paint80_radial_105_2897)"/>
<path d="M91.5154 104.348C91.614 104.348 91.694 104.268 91.694 104.17C91.694 104.071 91.614 103.991 91.5154 103.991C91.4168 103.991 91.3369 104.071 91.3369 104.17C91.3369 104.268 91.4168 104.348 91.5154 104.348Z" fill="url(#paint81_radial_105_2897)"/>
<path d="M96.6368 105.452C96.7354 105.452 96.8153 105.373 96.8153 105.274C96.8153 105.175 96.7354 105.096 96.6368 105.096C96.5382 105.096 96.4583 105.175 96.4583 105.274C96.4583 105.373 96.5382 105.452 96.6368 105.452Z" fill="url(#paint82_radial_105_2897)"/>
<path d="M71.4593 108.252C71.4593 108.347 71.3812 108.431 71.2808 108.431C71.186 108.431 71.1023 108.352 71.1023 108.252C71.1023 108.157 71.1804 108.074 71.2808 108.074C71.3812 108.074 71.4593 108.157 71.4593 108.252Z" fill="url(#paint83_radial_105_2897)"/>
<path d="M67.1917 117.794C67.2903 117.794 67.3702 117.714 67.3702 117.616C67.3702 117.517 67.2903 117.437 67.1917 117.437C67.0931 117.437 67.0132 117.517 67.0132 117.616C67.0132 117.714 67.0931 117.794 67.1917 117.794Z" fill="url(#paint84_radial_105_2897)"/>
<path d="M74.7901 116.562C74.8887 116.562 74.9686 116.482 74.9686 116.383C74.9686 116.285 74.8887 116.205 74.7901 116.205C74.6915 116.205 74.6116 116.285 74.6116 116.383C74.6116 116.482 74.6915 116.562 74.7901 116.562Z" fill="url(#paint85_radial_105_2897)"/>
<path d="M82.9408 116.556C82.9408 116.651 82.8627 116.734 82.7623 116.734C82.6674 116.734 82.5837 116.656 82.5837 116.556C82.5837 116.456 82.6618 116.378 82.7623 116.378C82.8627 116.383 82.9408 116.461 82.9408 116.556Z" fill="url(#paint86_radial_105_2897)"/>
<path d="M87.1473 117.091C87.2459 117.091 87.3258 117.012 87.3258 116.913C87.3258 116.814 87.2459 116.734 87.1473 116.734C87.0487 116.734 86.9688 116.814 86.9688 116.913C86.9688 117.012 87.0487 117.091 87.1473 117.091Z" fill="url(#paint87_radial_105_2897)"/>
<path d="M76.5752 109.468C76.6738 109.468 76.7538 109.388 76.7538 109.289C76.7538 109.191 76.6738 109.111 76.5752 109.111C76.4767 109.111 76.3967 109.191 76.3967 109.289C76.3967 109.388 76.4767 109.468 76.5752 109.468Z" fill="url(#paint88_radial_105_2897)"/>
<path d="M88.8768 111.437C88.9754 111.437 89.0553 111.357 89.0553 111.258C89.0553 111.159 88.9754 111.08 88.8768 111.08C88.7782 111.08 88.6982 111.159 88.6982 111.258C88.6982 111.357 88.7782 111.437 88.8768 111.437Z" fill="url(#paint89_radial_105_2897)"/>
<path d="M93.0887 109.468C93.1873 109.468 93.2672 109.388 93.2672 109.289C93.2672 109.191 93.1873 109.111 93.0887 109.111C92.9901 109.111 92.9102 109.191 92.9102 109.289C92.9102 109.388 92.9901 109.468 93.0887 109.468Z" fill="url(#paint90_radial_105_2897)"/>
<path d="M81.7525 107.198C81.8511 107.198 81.931 107.118 81.931 107.02C81.931 106.921 81.8511 106.841 81.7525 106.841C81.6539 106.841 81.574 106.921 81.574 107.02C81.574 107.118 81.6539 107.198 81.7525 107.198Z" fill="url(#paint91_radial_105_2897)"/>
<path d="M86.4051 98.9499C86.5037 98.9499 86.5836 98.87 86.5836 98.7715C86.5836 98.6729 86.5037 98.593 86.4051 98.593C86.3065 98.593 86.2266 98.6729 86.2266 98.7715C86.2266 98.87 86.3065 98.9499 86.4051 98.9499Z" fill="url(#paint92_radial_105_2897)"/>
<path d="M78.2154 103.222C78.2154 103.317 78.1373 103.4 78.0369 103.4C77.9421 103.4 77.8584 103.322 77.8584 103.222C77.8584 103.121 77.9365 103.043 78.0369 103.043C78.1373 103.043 78.2154 103.121 78.2154 103.222Z" fill="url(#paint93_radial_105_2897)"/>
<path d="M58.1204 115.296C58.219 115.296 58.2989 115.216 58.2989 115.117C58.2989 115.019 58.219 114.939 58.1204 114.939C58.0218 114.939 57.9419 115.019 57.9419 115.117C57.9419 115.216 58.0218 115.296 58.1204 115.296Z" fill="url(#paint94_radial_105_2897)"/>
<path d="M60.9153 111.437C61.0139 111.437 61.0939 111.357 61.0939 111.258C61.0939 111.159 61.0139 111.08 60.9153 111.08C60.8167 111.08 60.7368 111.159 60.7368 111.258C60.7368 111.357 60.8167 111.437 60.9153 111.437Z" fill="url(#paint95_radial_105_2897)"/>
<path d="M53.1775 107.025C53.2761 107.025 53.3561 106.945 53.3561 106.847C53.3561 106.748 53.2761 106.668 53.1775 106.668C53.079 106.668 52.999 106.748 52.999 106.847C52.999 106.945 53.079 107.025 53.1775 107.025Z" fill="url(#paint96_radial_105_2897)"/>
<path d="M87.1472 107.879C87.1472 108.085 86.9799 108.252 86.7734 108.252C86.567 108.252 86.3997 108.085 86.3997 107.879C86.3997 107.672 86.567 107.505 86.7734 107.505C86.9799 107.51 87.1472 107.678 87.1472 107.879Z" fill="url(#paint97_radial_105_2897)"/>
<path d="M82.7622 98.5986C82.7622 98.805 82.5948 98.9723 82.3884 98.9723C82.182 98.9723 82.0146 98.805 82.0146 98.5986C82.0146 98.3923 82.182 98.225 82.3884 98.225C82.6004 98.225 82.7622 98.3923 82.7622 98.5986Z" fill="url(#paint98_radial_105_2897)"/>
<path d="M99.6829 110.031C99.6829 110.237 99.5155 110.405 99.3091 110.405C99.1027 110.405 98.9353 110.237 98.9353 110.031C98.9353 109.825 99.1027 109.657 99.3091 109.657C99.5155 109.663 99.6829 109.825 99.6829 110.031Z" fill="url(#paint99_radial_105_2897)"/>
<path d="M72.023 112.156C72.023 112.362 71.8556 112.53 71.6492 112.53C71.4428 112.53 71.2754 112.362 71.2754 112.156C71.2754 111.95 71.4428 111.782 71.6492 111.782C71.8556 111.782 72.023 111.95 72.023 112.156Z" fill="url(#paint100_radial_105_2897)"/>
<path d="M94.394 101.448C94.394 101.655 94.2267 101.822 94.0203 101.822C93.8138 101.822 93.6465 101.655 93.6465 101.448C93.6465 101.242 93.8138 101.075 94.0203 101.075C94.2267 101.075 94.394 101.242 94.394 101.448Z" fill="url(#paint101_radial_105_2897)"/>
</g>
<path opacity="0.2" d="M21.897 104.321C29.0729 104.321 34.8901 102.093 34.8901 99.346C34.8901 96.5986 29.0729 94.3715 21.897 94.3715C14.721 94.3715 8.90381 96.5986 8.90381 99.346C8.90381 102.093 14.721 104.321 21.897 104.321Z" fill="url(#paint102_linear_105_2897)"/>
<path d="M33.9194 96.6022C31.8106 94.9459 27.3698 93.8026 22.2317 93.8026C17.2944 93.8026 12.9987 94.8566 10.8006 96.407L9.23853 96.3958V98.7772C9.23853 101.527 15.0573 103.752 22.2317 103.752C29.4061 103.752 35.2248 101.527 35.2248 98.7772V96.6133L33.9194 96.6022Z" fill="url(#paint103_linear_105_2897)"/>
<path d="M33.9194 96.6022C31.8106 94.9459 27.3698 93.8026 22.2317 93.8026C17.2944 93.8026 12.9987 94.8566 10.8006 96.407L9.23853 96.3958V98.7772C9.23853 101.527 15.0573 103.752 22.2317 103.752C29.4061 103.752 35.2248 101.527 35.2248 98.7772V96.6133L33.9194 96.6022Z" fill="#1CA7FB"/>
<path d="M22.2317 101.37C29.4076 101.37 35.2248 99.1432 35.2248 96.3958C35.2248 93.6485 29.4076 91.4213 22.2317 91.4213C15.0558 91.4213 9.23853 93.6485 9.23853 96.3958C9.23853 99.1432 15.0558 101.37 22.2317 101.37Z" fill="#1CA7FB"/>
<path d="M22.2317 91.4213C15.0517 91.4213 9.23853 93.6464 9.23853 96.3958C9.23853 99.1452 15.0573 101.37 22.2317 101.37C29.4061 101.37 35.2248 99.1452 35.2248 96.3958C35.2304 93.6464 29.4117 91.4213 22.2317 91.4213ZM22.2317 101.231C15.2525 101.231 9.59557 99.0671 9.59557 96.3958C9.59557 93.7245 15.2525 91.5607 22.2317 91.5607C29.2108 91.5607 34.8678 93.7245 34.8678 96.3958C34.8734 99.0671 29.2108 101.231 22.2317 101.231Z" fill="#17FCD7"/>
<path opacity="0.2" d="M32.2681 96.3958C32.2681 98.515 27.7771 100.238 22.2373 100.238C16.6975 100.238 12.2065 98.5206 12.2065 96.3958C12.2065 94.2766 16.6975 92.5533 22.2373 92.5533C27.7771 92.5533 32.2681 94.2766 32.2681 96.3958Z" fill="url(#paint104_linear_105_2897)"/>
<path opacity="0.2" d="M29.4787 96.3958C29.4787 97.9295 26.2318 99.1675 22.2318 99.1675C18.2318 99.1675 14.9849 97.9239 14.9849 96.3958C14.9849 94.8622 18.2318 93.6241 22.2318 93.6241C26.2318 93.6241 29.4787 94.8622 29.4787 96.3958Z" fill="url(#paint105_linear_105_2897)"/>
<path opacity="0.2" d="M26.89 96.3958C26.89 97.3774 24.8035 98.1748 22.2372 98.1748C19.6654 98.1748 17.5845 97.3774 17.5845 96.3958C17.5845 95.4143 19.671 94.6168 22.2372 94.6168C24.8035 94.6168 26.89 95.4143 26.89 96.3958Z" fill="url(#paint106_linear_105_2897)"/>
<path opacity="0.2" d="M24.8538 96.3958C24.8538 96.9479 23.6823 97.3996 22.2373 97.3996C20.7924 97.3996 19.6208 96.9535 19.6208 96.3958C19.6208 95.8437 20.7924 95.392 22.2373 95.392C23.6767 95.392 24.8538 95.8437 24.8538 96.3958Z" fill="url(#paint107_linear_105_2897)"/>
<path d="M33.9194 91.5719C31.8106 89.9156 27.3698 88.7723 22.2317 88.7723C17.2944 88.7723 12.9987 89.8264 10.8006 91.3767L9.23853 91.3656V93.7469C9.23853 96.4963 15.0573 98.7214 22.2317 98.7214C29.4061 98.7214 35.2248 96.4963 35.2248 93.7469V91.5831L33.9194 91.5719Z" fill="url(#paint108_linear_105_2897)"/>
<path d="M33.9194 91.5719C31.8106 89.9156 27.3698 88.7723 22.2317 88.7723C17.2944 88.7723 12.9987 89.8264 10.8006 91.3767L9.23853 91.3656V93.7469C9.23853 96.4963 15.0573 98.7214 22.2317 98.7214C29.4061 98.7214 35.2248 96.4963 35.2248 93.7469V91.5831L33.9194 91.5719Z" fill="#1CA7FB"/>
<path d="M35.2248 93.468V93.7469C35.2248 96.4962 29.4061 98.7158 22.2316 98.7158C15.0517 98.7158 9.23291 96.4962 9.23291 93.7469V93.468C9.23291 96.2174 15.0517 98.4426 22.2316 98.4426C29.4116 98.4426 35.2248 96.2174 35.2248 93.468Z" fill="#1CA7FB"/>
<path d="M22.2317 96.3401C29.4076 96.3401 35.2248 94.1129 35.2248 91.3655C35.2248 88.6182 29.4076 86.391 22.2317 86.391C15.0558 86.391 9.23853 88.6182 9.23853 91.3655C9.23853 94.1129 15.0558 96.3401 22.2317 96.3401Z" fill="#1CA7FB"/>
<path d="M22.2317 86.391C15.0517 86.391 9.23853 88.6162 9.23853 91.3655C9.23853 94.1149 15.0573 96.3401 22.2317 96.3401C29.4061 96.3401 35.2248 94.1149 35.2248 91.3655C35.2304 88.6162 29.4117 86.391 22.2317 86.391ZM22.2317 96.2007C15.2525 96.2007 9.59557 94.0368 9.59557 91.3655C9.59557 88.6942 15.2525 86.5304 22.2317 86.5304C29.2108 86.5304 34.8678 88.6942 34.8678 91.3655C34.8734 94.0368 29.2108 96.2007 22.2317 96.2007Z" fill="#17FCD7"/>
<path opacity="0.2" d="M32.2681 91.3655C32.2681 93.4847 27.7771 95.208 22.2373 95.208C16.6975 95.208 12.2065 93.4903 12.2065 91.3655C12.2065 89.2407 16.6975 87.5231 22.2373 87.5231C27.7771 87.5231 32.2681 89.2463 32.2681 91.3655Z" fill="url(#paint109_linear_105_2897)"/>
<path opacity="0.2" d="M29.4785 91.3656C29.4785 92.8992 26.2316 94.1373 22.2316 94.1373C18.2315 94.1373 14.9846 92.8936 14.9846 91.3656C14.9846 89.8319 18.2315 88.5939 22.2316 88.5939C26.2316 88.5939 29.4785 89.8319 29.4785 91.3656Z" fill="url(#paint110_linear_105_2897)"/>
<path opacity="0.2" d="M26.89 91.3656C26.89 92.3471 24.8035 93.1446 22.2372 93.1446C19.6654 93.1446 17.5845 92.3471 17.5845 91.3656C17.5845 90.384 19.671 89.5865 22.2372 89.5865C24.8035 89.5865 26.89 90.384 26.89 91.3656Z" fill="url(#paint111_linear_105_2897)"/>
<path opacity="0.2" d="M24.8538 91.3655C24.8538 91.9176 23.6823 92.3694 22.2373 92.3694C20.7924 92.3694 19.6208 91.9232 19.6208 91.3655C19.6208 90.8078 20.7924 90.3617 22.2373 90.3617C23.6767 90.3617 24.8538 90.8134 24.8538 91.3655Z" fill="url(#paint112_linear_105_2897)"/>
<path d="M33.9194 86.5415C31.8106 84.8852 27.3698 83.7419 22.2317 83.7419C17.2944 83.7419 12.9987 84.796 10.8006 86.3463L9.23853 86.3352V88.7165C9.23853 91.4659 15.0573 93.691 22.2317 93.691C29.4061 93.691 35.2248 91.4659 35.2248 88.7165V86.5527L33.9194 86.5415Z" fill="url(#paint113_linear_105_2897)"/>
<path d="M33.9194 86.5415C31.8106 84.8852 27.3698 83.7419 22.2317 83.7419C17.2944 83.7419 12.9987 84.796 10.8006 86.3463L9.23853 86.3352V88.7165C9.23853 91.4659 15.0573 93.691 22.2317 93.691C29.4061 93.691 35.2248 91.4659 35.2248 88.7165V86.5527L33.9194 86.5415Z" fill="#1CA7FB"/>
<path d="M35.2248 88.4376V88.7165C35.2248 91.4658 29.4061 93.6854 22.2316 93.6854C15.0517 93.6854 9.23291 91.4658 9.23291 88.7165V88.4376C9.23291 91.187 15.0517 93.4122 22.2316 93.4122C29.4116 93.4122 35.2248 91.187 35.2248 88.4376Z" fill="#1CA7FB"/>
<path d="M22.2317 91.3097C29.4076 91.3097 35.2248 89.0825 35.2248 86.3351C35.2248 83.5878 29.4076 81.3606 22.2317 81.3606C15.0558 81.3606 9.23853 83.5878 9.23853 86.3351C9.23853 89.0825 15.0558 91.3097 22.2317 91.3097Z" fill="#1CA7FB"/>
<path d="M22.2317 81.3606C15.0517 81.3606 9.23853 83.5858 9.23853 86.3351C9.23853 89.0845 15.0573 91.3097 22.2317 91.3097C29.4061 91.3097 35.2248 89.0845 35.2248 86.3351C35.2304 83.5913 29.4117 81.3606 22.2317 81.3606ZM22.2317 91.1703C15.2525 91.1703 9.59557 89.0064 9.59557 86.3351C9.59557 83.6638 15.2525 81.5 22.2317 81.5C29.2108 81.5 34.8678 83.6638 34.8678 86.3351C34.8734 89.0064 29.2108 91.1703 22.2317 91.1703Z" fill="#17FCD7"/>
<path opacity="0.2" d="M32.2681 86.3351C32.2681 88.4543 27.7771 90.1776 22.2373 90.1776C16.6975 90.1776 12.2065 88.4599 12.2065 86.3351C12.2065 84.2103 16.6975 82.4927 22.2373 82.4927C27.7771 82.4983 32.2681 84.2159 32.2681 86.3351Z" fill="url(#paint114_linear_105_2897)"/>
<path opacity="0.2" d="M29.4785 86.3352C29.4785 87.8688 26.2316 89.1069 22.2316 89.1069C18.2315 89.1069 14.9846 87.8632 14.9846 86.3352C14.9846 84.8015 18.2315 83.5635 22.2316 83.5635C26.2316 83.5635 29.4785 84.8015 29.4785 86.3352Z" fill="url(#paint115_linear_105_2897)"/>
<path opacity="0.2" d="M26.89 86.3352C26.89 87.3167 24.8035 88.1142 22.2372 88.1142C19.6654 88.1142 17.5845 87.3167 17.5845 86.3352C17.5845 85.3536 19.671 84.5562 22.2372 84.5562C24.8035 84.5562 26.89 85.3536 26.89 86.3352Z" fill="url(#paint116_linear_105_2897)"/>
<path opacity="0.2" d="M24.8538 86.3351C24.8538 86.8872 23.6823 87.339 22.2373 87.339C20.7924 87.339 19.6208 86.8928 19.6208 86.3351C19.6208 85.7774 20.7924 85.3313 22.2373 85.3313C23.6767 85.3313 24.8538 85.783 24.8538 86.3351Z" fill="url(#paint117_linear_105_2897)"/>
<path d="M33.9194 81.2435C31.8106 79.5872 27.3698 78.444 22.2317 78.444C17.2944 78.444 12.9987 79.498 10.8006 81.0484L9.23853 81.0372V83.4185C9.23853 86.1679 15.0573 88.3931 22.2317 88.3931C29.4061 88.3931 35.2248 86.1679 35.2248 83.4185V81.2547L33.9194 81.2435Z" fill="url(#paint118_linear_105_2897)"/>
<path d="M33.9194 81.2435C31.8106 79.5872 27.3698 78.444 22.2317 78.444C17.2944 78.444 12.9987 79.498 10.8006 81.0484L9.23853 81.0372V83.4185C9.23853 86.1679 15.0573 88.3931 22.2317 88.3931C29.4061 88.3931 35.2248 86.1679 35.2248 83.4185V81.2547L33.9194 81.2435Z" fill="#1CA7FB"/>
<path d="M35.2248 83.1396V83.4185C35.2248 86.1679 29.4061 88.3875 22.2316 88.3875C15.0517 88.3875 9.23291 86.1679 9.23291 83.4185V83.1396C9.23291 85.889 15.0517 88.1142 22.2316 88.1142C29.4116 88.1142 35.2248 85.889 35.2248 83.1396Z" fill="#1CA7FB"/>
<path d="M22.2317 86.0117C29.4076 86.0117 35.2248 83.7845 35.2248 81.0372C35.2248 78.2898 29.4076 76.0626 22.2317 76.0626C15.0558 76.0626 9.23853 78.2898 9.23853 81.0372C9.23853 83.7845 15.0558 86.0117 22.2317 86.0117Z" fill="#1CA7FB"/>
<path d="M22.2317 76.0626C15.0517 76.0626 9.23853 78.2878 9.23853 81.0372C9.23853 83.7866 15.0573 86.0117 22.2317 86.0117C29.4061 86.0117 35.2248 83.7866 35.2248 81.0372C35.2304 78.2878 29.4117 76.0626 22.2317 76.0626ZM22.2317 85.8723C15.2525 85.8723 9.59557 83.7085 9.59557 81.0372C9.59557 78.3659 15.2525 76.202 22.2317 76.202C29.2108 76.202 34.8678 78.3659 34.8678 81.0372C34.8734 83.7085 29.2108 85.8723 22.2317 85.8723Z" fill="#17FCD7"/>
<path opacity="0.2" d="M32.2681 81.0371C32.2681 83.1563 27.7771 84.8796 22.2373 84.8796C16.6975 84.8796 12.2065 83.1619 12.2065 81.0371C12.2065 78.9124 16.6975 77.1947 22.2373 77.1947C27.7771 77.1947 32.2681 78.9179 32.2681 81.0371Z" fill="url(#paint119_linear_105_2897)"/>
<path opacity="0.2" d="M29.4785 81.0372C29.4785 82.5708 26.2316 83.8089 22.2316 83.8089C18.2315 83.8089 14.9846 82.5653 14.9846 81.0372C14.9846 79.5091 18.2315 78.2655 22.2316 78.2655C26.2316 78.2655 29.4785 79.5036 29.4785 81.0372Z" fill="url(#paint120_linear_105_2897)"/>
<path opacity="0.2" d="M26.89 81.0372C26.89 82.0187 24.8035 82.8162 22.2372 82.8162C19.6654 82.8162 17.5845 82.0187 17.5845 81.0372C17.5845 80.0557 19.671 79.2582 22.2372 79.2582C24.8035 79.2582 26.89 80.0557 26.89 81.0372Z" fill="url(#paint121_linear_105_2897)"/>
<path opacity="0.2" d="M24.8538 81.0372C24.8538 81.5893 23.6823 82.041 22.2373 82.041C20.7924 82.041 19.6208 81.5948 19.6208 81.0372C19.6208 80.4795 20.7924 80.0333 22.2373 80.0333C23.6767 80.0333 24.8538 80.4851 24.8538 81.0372Z" fill="url(#paint122_linear_105_2897)"/>
<path opacity="0.2" d="M124.247 104.387C131.422 104.387 137.24 102.16 137.24 99.4128C137.24 96.6654 131.422 94.4382 124.247 94.4382C117.071 94.4382 111.253 96.6654 111.253 99.4128C111.253 102.16 117.071 104.387 124.247 104.387Z" fill="url(#paint123_linear_105_2897)"/>
<path d="M136.431 96.6021C134.322 94.9457 129.881 93.8025 124.743 93.8025C119.806 93.8025 115.51 94.8565 113.312 96.4069L111.75 96.3957V98.777C111.75 101.526 117.569 103.752 124.743 103.752C131.918 103.752 137.736 101.526 137.736 98.777V96.6132L136.431 96.6021Z" fill="url(#paint124_linear_105_2897)"/>
<path d="M136.431 96.6021C134.322 94.9457 129.881 93.8025 124.743 93.8025C119.806 93.8025 115.51 94.8565 113.312 96.4069L111.75 96.3957V98.777C111.75 101.526 117.569 103.752 124.743 103.752C131.918 103.752 137.736 101.526 137.736 98.777V96.6132L136.431 96.6021Z" fill="#1CA7FB"/>
<path d="M124.743 101.37C131.919 101.37 137.736 99.1431 137.736 96.3957C137.736 93.6483 131.919 91.4211 124.743 91.4211C117.567 91.4211 111.75 93.6483 111.75 96.3957C111.75 99.1431 117.567 101.37 124.743 101.37Z" fill="#1CA7FB"/>
<path d="M124.743 91.4211C117.563 91.4211 111.75 93.6463 111.75 96.3957C111.75 99.1451 117.569 101.37 124.743 101.37C131.918 101.37 137.736 99.1451 137.736 96.3957C137.736 93.6463 131.918 91.4211 124.743 91.4211ZM124.743 101.231C117.764 101.231 112.107 99.067 112.107 96.3957C112.107 93.7244 117.764 91.5606 124.743 91.5606C131.722 91.5606 137.379 93.7244 137.379 96.3957C137.379 99.067 131.722 101.231 124.743 101.231Z" fill="#17FCD7"/>
<path opacity="0.2" d="M134.774 96.3957C134.774 98.5149 130.283 100.238 124.743 100.238C119.203 100.238 114.712 98.5204 114.712 96.3957C114.712 94.2765 119.203 92.5532 124.743 92.5532C130.283 92.5532 134.774 94.2765 134.774 96.3957Z" fill="url(#paint125_linear_105_2897)"/>
<path opacity="0.2" d="M131.99 96.3957C131.99 97.9293 128.743 99.1674 124.743 99.1674C120.743 99.1674 117.496 97.9238 117.496 96.3957C117.496 94.8621 120.743 93.624 124.743 93.624C128.743 93.624 131.99 94.8621 131.99 96.3957Z" fill="url(#paint126_linear_105_2897)"/>
<path opacity="0.2" d="M129.396 96.3957C129.396 97.3772 127.309 98.1747 124.743 98.1747C122.171 98.1747 120.09 97.3772 120.09 96.3957C120.09 95.4142 122.177 94.6167 124.743 94.6167C127.309 94.6167 129.396 95.4142 129.396 96.3957Z" fill="url(#paint127_linear_105_2897)"/>
<path opacity="0.2" d="M127.36 96.3957C127.36 96.9478 126.188 97.3995 124.743 97.3995C123.298 97.3995 122.127 96.9534 122.127 96.3957C122.127 95.8436 123.298 95.3918 124.743 95.3918C126.188 95.3918 127.36 95.8436 127.36 96.3957Z" fill="url(#paint128_linear_105_2897)"/>
<path d="M136.431 91.5718C134.322 89.9155 129.881 88.7722 124.743 88.7722C119.806 88.7722 115.51 89.8262 113.312 91.3766L111.75 91.3655V93.7468C111.75 96.4962 117.569 98.7213 124.743 98.7213C131.918 98.7213 137.736 96.4962 137.736 93.7468V91.583L136.431 91.5718Z" fill="url(#paint129_linear_105_2897)"/>
<path d="M136.431 91.5718C134.322 89.9155 129.881 88.7722 124.743 88.7722C119.806 88.7722 115.51 89.8262 113.312 91.3766L111.75 91.3655V93.7468C111.75 96.4962 117.569 98.7213 124.743 98.7213C131.918 98.7213 137.736 96.4962 137.736 93.7468V91.583L136.431 91.5718Z" fill="#1CA7FB"/>
<path d="M137.736 93.4679V93.7467C137.736 96.4961 131.918 98.7157 124.743 98.7157C117.563 98.7157 111.744 96.4961 111.744 93.7467V93.4679C111.744 96.2173 117.563 98.4424 124.743 98.4424C131.918 98.4424 137.736 96.2173 137.736 93.4679Z" fill="#1CA7FB"/>
<path d="M124.743 96.34C131.919 96.34 137.736 94.1128 137.736 91.3654C137.736 88.618 131.919 86.3909 124.743 86.3909C117.567 86.3909 111.75 88.618 111.75 91.3654C111.75 94.1128 117.567 96.34 124.743 96.34Z" fill="#1CA7FB"/>
<path d="M124.743 86.3909C117.563 86.3909 111.75 88.616 111.75 91.3654C111.75 94.1148 117.569 96.34 124.743 96.34C131.918 96.34 137.736 94.1148 137.736 91.3654C137.736 88.616 131.918 86.3909 124.743 86.3909ZM124.743 96.2005C117.764 96.2005 112.107 94.0367 112.107 91.3654C112.107 88.6941 117.764 86.5303 124.743 86.5303C131.722 86.5303 137.379 88.6941 137.379 91.3654C137.379 94.0367 131.722 96.2005 124.743 96.2005Z" fill="#17FCD7"/>
<path opacity="0.2" d="M134.774 91.3654C134.774 93.4846 130.283 95.2078 124.743 95.2078C119.203 95.2078 114.712 93.4902 114.712 91.3654C114.712 89.2406 119.203 87.5229 124.743 87.5229C130.283 87.5229 134.774 89.2462 134.774 91.3654Z" fill="url(#paint130_linear_105_2897)"/>
<path opacity="0.2" d="M131.99 91.3654C131.99 92.8991 128.743 94.1371 124.743 94.1371C120.743 94.1371 117.496 92.8935 117.496 91.3654C117.496 89.8318 120.743 88.5938 124.743 88.5938C128.743 88.5938 131.99 89.8318 131.99 91.3654Z" fill="url(#paint131_linear_105_2897)"/>
<path opacity="0.2" d="M129.396 91.3654C129.396 92.347 127.309 93.1445 124.743 93.1445C122.171 93.1445 120.09 92.347 120.09 91.3654C120.09 90.3839 122.177 89.5864 124.743 89.5864C127.309 89.5864 129.396 90.3839 129.396 91.3654Z" fill="url(#paint132_linear_105_2897)"/>
<path opacity="0.2" d="M127.36 91.3654C127.36 91.9175 126.188 92.3692 124.743 92.3692C123.298 92.3692 122.127 91.9231 122.127 91.3654C122.127 90.8077 123.298 90.3616 124.743 90.3616C126.188 90.3616 127.36 90.8133 127.36 91.3654Z" fill="url(#paint133_linear_105_2897)"/>
<path d="M24.4354 124.47L16.9151 119.941C16.664 119.791 16.5078 119.517 16.5078 119.222V111.699C16.5078 111.375 16.8649 111.174 17.1438 111.342L24.7924 115.948C25.0435 116.099 25.1997 116.372 25.1997 116.668V124.046C25.1941 124.425 24.7701 124.67 24.4354 124.47Z" fill="#063444"/>
<path d="M24.2234 124.079L17.1494 119.818C16.9151 119.673 16.77 119.417 16.77 119.144V112.061C16.77 111.754 17.1048 111.565 17.367 111.726L24.5637 116.06C24.798 116.205 24.943 116.461 24.943 116.734V123.678C24.943 124.046 24.5414 124.274 24.2234 124.079Z" fill="#1CA7FB"/>
<path opacity="0.2" d="M23.1635 122.685L15.5595 118.106C15.2973 117.95 15.1355 117.666 15.1355 117.359V109.881C15.1355 109.54 15.5037 109.334 15.7938 109.507L23.3978 114.086C23.66 114.242 23.8218 114.526 23.8218 114.833V122.311C23.8218 122.652 23.4536 122.858 23.1635 122.685Z" fill="url(#paint134_linear_105_2897)"/>
<path d="M16.0168 111.275L18.3265 112.663L22.9402 115.446" stroke="white" stroke-width="0.15" stroke-miterlimit="10" stroke-linecap="round"/>
<path d="M16.0168 112.234L18.3265 113.623L22.9402 116.4" stroke="white" stroke-width="0.15" stroke-miterlimit="10" stroke-linecap="round"/>
<path d="M16.0168 113.188L18.3265 114.576L22.9402 117.359" stroke="white" stroke-width="0.15" stroke-miterlimit="10" stroke-linecap="round"/>
<path d="M16.0168 114.141L18.3265 115.53L22.9402 118.313" stroke="white" stroke-width="0.15" stroke-miterlimit="10" stroke-linecap="round"/>
<path d="M16.0168 115.1L18.3265 116.489L22.9402 119.266" stroke="white" stroke-width="0.15" stroke-miterlimit="10" stroke-linecap="round"/>
<path d="M16.0168 116.054L18.3265 117.443L22.9402 120.22" stroke="white" stroke-width="0.15" stroke-miterlimit="10" stroke-linecap="round"/>
<path d="M16.0168 117.008L18.3265 118.396L22.9402 121.179" stroke="white" stroke-width="0.15" stroke-miterlimit="10" stroke-linecap="round"/>
</g>
<defs>
<linearGradient id="paint0_linear_105_2897" x1="121.193" y1="156.936" x2="141.003" y2="156.936" gradientUnits="userSpaceOnUse">
<stop stop-color="#772681"/>
<stop offset="1" stop-color="#A038A0"/>
</linearGradient>
<linearGradient id="paint1_linear_105_2897" x1="19.8096" y1="154.03" x2="2.12534e-05" y2="154.03" gradientUnits="userSpaceOnUse">
<stop stop-color="#772681"/>
<stop offset="1" stop-color="#A038A0"/>
</linearGradient>
<linearGradient id="paint2_linear_105_2897" x1="27.6923" y1="131.432" x2="116.826" y2="131.432" gradientUnits="userSpaceOnUse">
<stop stop-color="#772681"/>
<stop offset="1" stop-color="#A038A0"/>
</linearGradient>
<linearGradient id="paint3_linear_105_2897" x1="39.6716" y1="121.053" x2="108.498" y2="121.053" gradientUnits="userSpaceOnUse">
<stop stop-color="#772681"/>
<stop offset="1" stop-color="#A038A0"/>
</linearGradient>
<linearGradient id="paint4_linear_105_2897" x1="49.2308" y1="121.053" x2="98.9393" y2="121.053" gradientUnits="userSpaceOnUse">
<stop stop-color="#772681"/>
<stop offset="1" stop-color="#A038A0"/>
</linearGradient>
<linearGradient id="paint5_linear_105_2897" x1="58.1201" y1="121.053" x2="90.0496" y2="121.053" gradientUnits="userSpaceOnUse">
<stop stop-color="#772681"/>
<stop offset="1" stop-color="#A038A0"/>
</linearGradient>
<linearGradient id="paint6_linear_105_2897" x1="65.1048" y1="121.053" x2="83.0651" y2="121.053" gradientUnits="userSpaceOnUse">
<stop stop-color="#772681"/>
<stop offset="1" stop-color="#A038A0"/>
</linearGradient>
<linearGradient id="paint7_linear_105_2897" x1="44.8664" y1="102.292" x2="64.4778" y2="47.039" gradientUnits="userSpaceOnUse">
<stop offset="0.0595" stop-color="#EAEBEB"/>
<stop offset="1" stop-color="#9AB8E9"/>
</linearGradient>
<linearGradient id="paint8_linear_105_2897" x1="102.209" y1="102.292" x2="82.5976" y2="47.0389" gradientUnits="userSpaceOnUse">
<stop offset="0.0595" stop-color="#EAEBEB"/>
<stop offset="1" stop-color="#9AB8E9"/>
</linearGradient>
<linearGradient id="paint9_linear_105_2897" x1="73.5792" y1="129.995" x2="74.1138" y2="83.9115" gradientUnits="userSpaceOnUse">
<stop stop-color="white" stop-opacity="0"/>
<stop offset="0.7473" stop-color="white"/>
<stop offset="0.9509" stop-color="#FFE7A6"/>
<stop offset="1" stop-color="#FFE190"/>
</linearGradient>
<linearGradient id="paint10_linear_105_2897" x1="74.0854" y1="123.592" x2="74.499" y2="87.9359" gradientUnits="userSpaceOnUse">
<stop stop-color="white" stop-opacity="0"/>
<stop offset="0.7473" stop-color="white"/>
<stop offset="0.9509" stop-color="#FFE7A6"/>
<stop offset="1" stop-color="#FFE190"/>
</linearGradient>
<linearGradient id="paint11_linear_105_2897" x1="74.0776" y1="119.021" x2="74.4908" y2="83.4056" gradientUnits="userSpaceOnUse">
<stop stop-color="white" stop-opacity="0"/>
<stop offset="0.7473" stop-color="white"/>
<stop offset="0.9509" stop-color="#FFE7A6"/>
<stop offset="1" stop-color="#FFE190"/>
</linearGradient>
<linearGradient id="paint12_linear_105_2897" x1="55.5408" y1="118.973" x2="55.9535" y2="83.4009" gradientUnits="userSpaceOnUse">
<stop stop-color="white" stop-opacity="0"/>
<stop offset="0.7473" stop-color="white"/>
<stop offset="0.9509" stop-color="#FFE7A6"/>
<stop offset="1" stop-color="#FFE190"/>
</linearGradient>
<linearGradient id="paint13_linear_105_2897" x1="55.577" y1="114.581" x2="55.8859" y2="87.9497" gradientUnits="userSpaceOnUse">
<stop stop-color="white" stop-opacity="0"/>
<stop offset="0.7473" stop-color="white"/>
<stop offset="0.9509" stop-color="#FFE7A6"/>
<stop offset="1" stop-color="#FFE190"/>
</linearGradient>
<linearGradient id="paint14_linear_105_2897" x1="91.3657" y1="118.973" x2="91.7783" y2="83.4009" gradientUnits="userSpaceOnUse">
<stop stop-color="white" stop-opacity="0"/>
<stop offset="0.7473" stop-color="white"/>
<stop offset="0.9509" stop-color="#FFE7A6"/>
<stop offset="1" stop-color="#FFE190"/>
</linearGradient>
<linearGradient id="paint15_linear_105_2897" x1="91.4018" y1="114.581" x2="91.7107" y2="87.9497" gradientUnits="userSpaceOnUse">
<stop stop-color="white" stop-opacity="0"/>
<stop offset="0.7473" stop-color="white"/>
<stop offset="0.9509" stop-color="#FFE7A6"/>
<stop offset="1" stop-color="#FFE190"/>
</linearGradient>
<linearGradient id="paint16_linear_105_2897" x1="73.7819" y1="0.976282" x2="73.7819" y2="9.83711" gradientUnits="userSpaceOnUse">
<stop stop-color="#1796FE"/>
<stop offset="0.8483" stop-color="#1E22F8"/>
</linearGradient>
<linearGradient id="paint17_linear_105_2897" x1="74.0274" y1="0.976282" x2="74.0274" y2="9.83711" gradientUnits="userSpaceOnUse">
<stop stop-color="#1796FE"/>
<stop offset="0.8483" stop-color="#1E22F8"/>
</linearGradient>
<linearGradient id="paint18_linear_105_2897" x1="74.2424" y1="97.9297" x2="74.2424" y2="132.106" gradientUnits="userSpaceOnUse">
<stop stop-color="#FDEB04"/>
<stop offset="0.1133" stop-color="#F1BE1A"/>
<stop offset="0.2185" stop-color="#E89C2C"/>
<stop offset="0.305" stop-color="#E38736"/>
<stop offset="0.3618" stop-color="#E17F3A"/>
<stop offset="0.4067" stop-color="#EA6F59" stop-opacity="0.8195"/>
<stop offset="0.4611" stop-color="#F35F78" stop-opacity="0.6012"/>
<stop offset="0.5142" stop-color="#FA548E" stop-opacity="0.388"/>
<stop offset="0.565" stop-color="#FE4D9B" stop-opacity="0.1841"/>
<stop offset="0.6108" stop-color="#FF4BA0" stop-opacity="0"/>
</linearGradient>
<linearGradient id="paint19_linear_105_2897" x1="74.3323" y1="96.7521" x2="74.3323" y2="124.723" gradientUnits="userSpaceOnUse">
<stop stop-color="#FDEB04"/>
<stop offset="0.21" stop-color="#F3C417" stop-opacity="0.79"/>
<stop offset="0.4187" stop-color="#EBA626" stop-opacity="0.5813"/>
<stop offset="0.6225" stop-color="#E69031" stop-opacity="0.3775"/>
<stop offset="0.8189" stop-color="#E28338" stop-opacity="0.1811"/>
<stop offset="1" stop-color="#E17F3A" stop-opacity="0"/>
</linearGradient>
<linearGradient id="paint20_linear_105_2897" x1="55.6415" y1="88.7133" x2="55.6415" y2="114.923" gradientUnits="userSpaceOnUse">
<stop stop-color="#FDEB04"/>
<stop offset="0.1133" stop-color="#F1BE1A"/>
<stop offset="0.2185" stop-color="#E89C2C"/>
<stop offset="0.305" stop-color="#E38736"/>
<stop offset="0.3618" stop-color="#E17F3A"/>
<stop offset="0.4067" stop-color="#EA6F59" stop-opacity="0.8195"/>
<stop offset="0.4611" stop-color="#F35F78" stop-opacity="0.6012"/>
<stop offset="0.5142" stop-color="#FA548E" stop-opacity="0.388"/>
<stop offset="0.565" stop-color="#FE4D9B" stop-opacity="0.1841"/>
<stop offset="0.6108" stop-color="#FF4BA0" stop-opacity="0"/>
</linearGradient>
<linearGradient id="paint21_linear_105_2897" x1="55.6901" y1="87.8103" x2="55.6901" y2="109.262" gradientUnits="userSpaceOnUse">
<stop stop-color="#FDEB04"/>
<stop offset="0.21" stop-color="#F3C417" stop-opacity="0.79"/>
<stop offset="0.4187" stop-color="#EBA626" stop-opacity="0.5813"/>
<stop offset="0.6225" stop-color="#E69031" stop-opacity="0.3775"/>
<stop offset="0.8189" stop-color="#E28338" stop-opacity="0.1811"/>
<stop offset="1" stop-color="#E17F3A" stop-opacity="0"/>
</linearGradient>
<linearGradient id="paint22_linear_105_2897" x1="91.7133" y1="88.7133" x2="91.7133" y2="114.923" gradientUnits="userSpaceOnUse">
<stop stop-color="#FDEB04"/>
<stop offset="0.1133" stop-color="#F1BE1A"/>
<stop offset="0.2185" stop-color="#E89C2C"/>
<stop offset="0.305" stop-color="#E38736"/>
<stop offset="0.3618" stop-color="#E17F3A"/>
<stop offset="0.4067" stop-color="#EA6F59" stop-opacity="0.8195"/>
<stop offset="0.4611" stop-color="#F35F78" stop-opacity="0.6012"/>
<stop offset="0.5142" stop-color="#FA548E" stop-opacity="0.388"/>
<stop offset="0.565" stop-color="#FE4D9B" stop-opacity="0.1841"/>
<stop offset="0.6108" stop-color="#FF4BA0" stop-opacity="0"/>
</linearGradient>
<linearGradient id="paint23_linear_105_2897" x1="91.7619" y1="87.8103" x2="91.7619" y2="109.262" gradientUnits="userSpaceOnUse">
<stop stop-color="#FDEB04"/>
<stop offset="0.21" stop-color="#F3C417" stop-opacity="0.79"/>
<stop offset="0.4187" stop-color="#EBA626" stop-opacity="0.5813"/>
<stop offset="0.6225" stop-color="#E69031" stop-opacity="0.3775"/>
<stop offset="0.8189" stop-color="#E28338" stop-opacity="0.1811"/>
<stop offset="1" stop-color="#E17F3A" stop-opacity="0"/>
</linearGradient>
<linearGradient id="paint24_linear_105_2897" x1="57.8508" y1="54.0154" x2="89.7133" y2="54.0154" gradientUnits="userSpaceOnUse">
<stop stop-color="#EAEBEB"/>
<stop offset="0.1229" stop-color="#C8D5EA"/>
<stop offset="0.24" stop-color="#AEC5EA"/>
<stop offset="0.3464" stop-color="#9FBBE9"/>
<stop offset="0.4324" stop-color="#9AB8E9"/>
<stop offset="0.9405" stop-color="#EAEBEB"/>
</linearGradient>
<linearGradient id="paint25_linear_105_2897" x1="57.8473" y1="94.0693" x2="89.7167" y2="94.0693" gradientUnits="userSpaceOnUse">
<stop stop-color="#1796FE"/>
<stop offset="1" stop-color="#1E22F8"/>
</linearGradient>
<linearGradient id="paint26_linear_105_2897" x1="57.9841" y1="40.0671" x2="89.5735" y2="40.0671" gradientUnits="userSpaceOnUse">
<stop stop-color="#1796FE"/>
<stop offset="1" stop-color="#1E22F8"/>
</linearGradient>
<linearGradient id="paint27_linear_105_2897" x1="58.4477" y1="37.1092" x2="89.1037" y2="37.1092" gradientUnits="userSpaceOnUse">
<stop stop-color="#1796FE"/>
<stop offset="1" stop-color="#1E22F8"/>
</linearGradient>
<linearGradient id="paint28_linear_105_2897" x1="68.118" y1="14.5762" x2="79.433" y2="14.5762" gradientUnits="userSpaceOnUse">
<stop stop-color="#1796FE"/>
<stop offset="0.4483" stop-color="#1E22F8"/>
<stop offset="0.6005" stop-color="#1C3EF9"/>
<stop offset="0.9278" stop-color="#1885FD"/>
<stop offset="1" stop-color="#1796FE"/>
</linearGradient>
<linearGradient id="paint29_linear_105_2897" x1="57.8509" y1="53.6631" x2="73.7757" y2="53.6631" gradientUnits="userSpaceOnUse">
<stop stop-color="#EAEBEB"/>
<stop offset="0.1229" stop-color="#C8D5EA"/>
<stop offset="0.24" stop-color="#AEC5EA"/>
<stop offset="0.3464" stop-color="#9FBBE9"/>
<stop offset="0.4324" stop-color="#9AB8E9"/>
<stop offset="0.9405" stop-color="#EAEBEB"/>
</linearGradient>
<linearGradient id="paint30_linear_105_2897" x1="89.7132" y1="53.6631" x2="73.7883" y2="53.6631" gradientUnits="userSpaceOnUse">
<stop stop-color="#EAEBEB"/>
<stop offset="0.1229" stop-color="#C8D5EA"/>
<stop offset="0.24" stop-color="#AEC5EA"/>
<stop offset="0.3464" stop-color="#9FBBE9"/>
<stop offset="0.4324" stop-color="#9AB8E9"/>
<stop offset="0.9405" stop-color="#EAEBEB"/>
</linearGradient>
<linearGradient id="paint31_linear_105_2897" x1="67.3179" y1="84.871" x2="81.6264" y2="85.1579" gradientUnits="userSpaceOnUse">
<stop stop-color="#1796FE"/>
<stop offset="1" stop-color="#1796FE"/>
</linearGradient>
<linearGradient id="paint32_linear_105_2897" x1="68.3791" y1="86.3684" x2="80.292" y2="86.6073" gradientUnits="userSpaceOnUse">
<stop stop-color="#1796FE"/>
<stop offset="0.4483" stop-color="#1E22F8"/>
<stop offset="0.6005" stop-color="#1C3EF9"/>
<stop offset="0.9278" stop-color="#1885FD"/>
<stop offset="1" stop-color="#1796FE"/>
</linearGradient>
<linearGradient id="paint33_linear_105_2897" x1="66.8039" y1="91.6873" x2="78.298" y2="99.7729" gradientUnits="userSpaceOnUse">
<stop stop-color="#EAEBEB"/>
<stop offset="0.3027" stop-color="#9AB8E9"/>
<stop offset="0.7568" stop-color="#EAEBEB"/>
</linearGradient>
<linearGradient id="paint34_linear_105_2897" x1="77.492" y1="79.3356" x2="71.7368" y2="84.037" gradientUnits="userSpaceOnUse">
<stop stop-color="#1796FE"/>
<stop offset="0.067" stop-color="#247BFD"/>
<stop offset="0.1776" stop-color="#3755FC"/>
<stop offset="0.2798" stop-color="#443AFB"/>
<stop offset="0.3697" stop-color="#4C29FA"/>
<stop offset="0.4375" stop-color="#4F23FA"/>
<stop offset="0.5238" stop-color="#4C29FA"/>
<stop offset="0.6412" stop-color="#443BFB"/>
<stop offset="0.7763" stop-color="#3657FC"/>
<stop offset="0.9237" stop-color="#227FFD"/>
<stop offset="1" stop-color="#1796FE"/>
</linearGradient>
<linearGradient id="paint35_linear_105_2897" x1="77.492" y1="79.0885" x2="71.7368" y2="83.7898" gradientUnits="userSpaceOnUse">
<stop stop-color="#1CA7FB"/>
<stop offset="1" stop-color="#17FCD7"/>
</linearGradient>
<linearGradient id="paint36_linear_105_2897" x1="77.492" y1="79.0885" x2="71.7368" y2="83.7898" gradientUnits="userSpaceOnUse">
<stop stop-color="#1CA7FB"/>
<stop offset="1" stop-color="#17FCD7"/>
</linearGradient>
<linearGradient id="paint37_linear_105_2897" x1="76.8171" y1="79.6395" x2="72.2065" y2="83.4058" gradientUnits="userSpaceOnUse">
<stop stop-color="#D5E5EA"/>
<stop offset="1" stop-color="#5CC0BF"/>
</linearGradient>
<linearGradient id="paint38_linear_105_2897" x1="74.4786" y1="80.6863" x2="72.8594" y2="80.7974" gradientUnits="userSpaceOnUse">
<stop stop-color="#D5E5EA"/>
<stop offset="1" stop-color="#5CC0BF"/>
</linearGradient>
<linearGradient id="paint39_linear_105_2897" x1="73.1588" y1="82.1264" x2="72.3277" y2="82.3279" gradientUnits="userSpaceOnUse">
<stop stop-color="#D5E5EA"/>
<stop offset="1" stop-color="#5CC0BF"/>
</linearGradient>
<linearGradient id="paint40_linear_105_2897" x1="51.8744" y1="76.8995" x2="58.0143" y2="77.0226" gradientUnits="userSpaceOnUse">
<stop stop-color="#1796FE"/>
<stop offset="0.1197" stop-color="#1885FD"/>
<stop offset="0.6617" stop-color="#1C3EF9"/>
<stop offset="0.9138" stop-color="#1E22F8"/>
</linearGradient>
<linearGradient id="paint41_linear_105_2897" x1="50.4835" y1="84.8058" x2="57.4463" y2="89.7038" gradientUnits="userSpaceOnUse">
<stop stop-color="#EAEBEB"/>
<stop offset="0.3027" stop-color="#9AB8E9"/>
<stop offset="0.7568" stop-color="#EAEBEB"/>
</linearGradient>
<linearGradient id="paint42_linear_105_2897" x1="56.517" y1="71.4496" x2="51.3367" y2="75.6813" gradientUnits="userSpaceOnUse">
<stop stop-color="#1796FE"/>
<stop offset="0.067" stop-color="#247BFD"/>
<stop offset="0.1776" stop-color="#3755FC"/>
<stop offset="0.2798" stop-color="#443AFB"/>
<stop offset="0.3697" stop-color="#4C29FA"/>
<stop offset="0.4375" stop-color="#4F23FA"/>
<stop offset="0.5238" stop-color="#4C29FA"/>
<stop offset="0.6412" stop-color="#443BFB"/>
<stop offset="0.7763" stop-color="#3657FC"/>
<stop offset="0.9237" stop-color="#227FFD"/>
<stop offset="1" stop-color="#1796FE"/>
</linearGradient>
<linearGradient id="paint43_linear_105_2897" x1="56.5344" y1="71.2314" x2="51.3786" y2="75.4432" gradientUnits="userSpaceOnUse">
<stop stop-color="#1CA7FB"/>
<stop offset="1" stop-color="#17FCD7"/>
</linearGradient>
<linearGradient id="paint44_linear_105_2897" x1="56.5344" y1="71.2314" x2="51.3786" y2="75.4432" gradientUnits="userSpaceOnUse">
<stop stop-color="#1CA7FB"/>
<stop offset="1" stop-color="#17FCD7"/>
</linearGradient>
<linearGradient id="paint45_linear_105_2897" x1="55.7892" y1="71.6513" x2="51.6477" y2="75.0345" gradientUnits="userSpaceOnUse">
<stop stop-color="#D5E5EA"/>
<stop offset="1" stop-color="#5CC0BF"/>
</linearGradient>
<linearGradient id="paint46_linear_105_2897" x1="95.6894" y1="76.8995" x2="89.5495" y2="77.0226" gradientUnits="userSpaceOnUse">
<stop stop-color="#1796FE"/>
<stop offset="0.1197" stop-color="#1885FD"/>
<stop offset="0.6617" stop-color="#1C3EF9"/>
<stop offset="0.9138" stop-color="#1E22F8"/>
</linearGradient>
<linearGradient id="paint47_linear_105_2897" x1="97.0804" y1="84.8058" x2="90.1175" y2="89.7038" gradientUnits="userSpaceOnUse">
<stop stop-color="#EAEBEB"/>
<stop offset="0.3027" stop-color="#9AB8E9"/>
<stop offset="0.7568" stop-color="#EAEBEB"/>
</linearGradient>
<linearGradient id="paint48_linear_105_2897" x1="91.0469" y1="71.4496" x2="96.2272" y2="75.6813" gradientUnits="userSpaceOnUse">
<stop stop-color="#1796FE"/>
<stop offset="0.067" stop-color="#247BFD"/>
<stop offset="0.1776" stop-color="#3755FC"/>
<stop offset="0.2798" stop-color="#443AFB"/>
<stop offset="0.3697" stop-color="#4C29FA"/>
<stop offset="0.4375" stop-color="#4F23FA"/>
<stop offset="0.5238" stop-color="#4C29FA"/>
<stop offset="0.6412" stop-color="#443BFB"/>
<stop offset="0.7763" stop-color="#3657FC"/>
<stop offset="0.9237" stop-color="#227FFD"/>
<stop offset="1" stop-color="#1796FE"/>
</linearGradient>
<linearGradient id="paint49_linear_105_2897" x1="91.0295" y1="71.2314" x2="96.1854" y2="75.4432" gradientUnits="userSpaceOnUse">
<stop stop-color="#1CA7FB"/>
<stop offset="1" stop-color="#17FCD7"/>
</linearGradient>
<linearGradient id="paint50_linear_105_2897" x1="91.0295" y1="71.2314" x2="96.1854" y2="75.4432" gradientUnits="userSpaceOnUse">
<stop stop-color="#1CA7FB"/>
<stop offset="1" stop-color="#17FCD7"/>
</linearGradient>
<linearGradient id="paint51_linear_105_2897" x1="91.7748" y1="71.6513" x2="95.9164" y2="75.0345" gradientUnits="userSpaceOnUse">
<stop stop-color="#D5E5EA"/>
<stop offset="1" stop-color="#5CC0BF"/>
</linearGradient>
<linearGradient id="paint52_linear_105_2897" x1="67.1398" y1="58.899" x2="80.4243" y2="58.899" gradientUnits="userSpaceOnUse">
<stop stop-color="#6A23FA"/>
<stop offset="1" stop-color="#1796FE"/>
</linearGradient>
<linearGradient id="paint53_linear_105_2897" x1="67.1398" y1="58.899" x2="80.4243" y2="58.899" gradientUnits="userSpaceOnUse">
<stop stop-color="#1E22F8"/>
<stop offset="1" stop-color="#1796FE"/>
</linearGradient>
<linearGradient id="paint54_linear_105_2897" x1="68.1157" y1="55.9215" x2="80.3875" y2="61.0161" gradientUnits="userSpaceOnUse">
<stop stop-color="#1796FE"/>
<stop offset="1" stop-color="#1E22F8"/>
</linearGradient>
<linearGradient id="paint55_linear_105_2897" x1="69.6514" y1="55.3646" x2="77.9995" y2="61.2371" gradientUnits="userSpaceOnUse">
<stop stop-color="#D5E5EA"/>
<stop offset="1" stop-color="#5CC0BF"/>
</linearGradient>
<linearGradient id="paint56_linear_105_2897" x1="68.6754" y1="55.5508" x2="78.8821" y2="55.5508" gradientUnits="userSpaceOnUse">
<stop stop-color="#D5E5EA"/>
<stop offset="1" stop-color="#A6E5D8"/>
</linearGradient>
<linearGradient id="paint57_linear_105_2897" x1="68.061" y1="58.7336" x2="80.424" y2="58.7336" gradientUnits="userSpaceOnUse">
<stop stop-color="#256290"/>
<stop offset="1" stop-color="#43BAC5"/>
</linearGradient>
<linearGradient id="paint58_linear_105_2897" x1="70.9961" y1="55.5508" x2="73.7835" y2="55.5508" gradientUnits="userSpaceOnUse">
<stop stop-color="#D5E5EA"/>
<stop offset="1" stop-color="#A6E5D8"/>
</linearGradient>
<linearGradient id="paint59_linear_105_2897" x1="69.6508" y1="58.2722" x2="71.5925" y2="58.2722" gradientUnits="userSpaceOnUse">
<stop stop-color="#D5E5EA"/>
<stop offset="1" stop-color="#A6E5D8"/>
</linearGradient>
<radialGradient id="paint60_radial_105_2897" cx="0" cy="0" r="1" gradientUnits="userSpaceOnUse" gradientTransform="translate(56.7678 109.661) scale(0.371272 0.371138)">
<stop stop-color="white"/>
<stop offset="1" stop-color="#0ADBFB"/>
</radialGradient>
<radialGradient id="paint61_radial_105_2897" cx="0" cy="0" r="1" gradientUnits="userSpaceOnUse" gradientTransform="translate(60.3651 103.024) scale(0.37133 0.371194)">
<stop stop-color="white"/>
<stop offset="1" stop-color="#0ADBFB"/>
</radialGradient>
<radialGradient id="paint62_radial_105_2897" cx="0" cy="0" r="1" gradientUnits="userSpaceOnUse" gradientTransform="translate(74.2425 105.468) scale(0.371332 0.371194)">
<stop stop-color="white"/>
<stop offset="1" stop-color="#0ADBFB"/>
</radialGradient>
<radialGradient id="paint63_radial_105_2897" cx="0" cy="0" r="1" gradientUnits="userSpaceOnUse" gradientTransform="translate(84.2722 114.152) scale(0.371328 0.371194)">
<stop stop-color="white"/>
<stop offset="1" stop-color="#0ADBFB"/>
</radialGradient>
<radialGradient id="paint64_radial_105_2897" cx="0" cy="0" r="1" gradientUnits="userSpaceOnUse" gradientTransform="translate(65.4761 109.661) scale(0.371328 0.371194)">
<stop stop-color="white"/>
<stop offset="1" stop-color="#0ADBFB"/>
</radialGradient>
<radialGradient id="paint65_radial_105_2897" cx="0" cy="0" r="1" gradientUnits="userSpaceOnUse" gradientTransform="translate(66.2187 98.2254) scale(0.371274 0.371138)">
<stop stop-color="white"/>
<stop offset="1" stop-color="#0ADBFB"/>
</radialGradient>
<radialGradient id="paint66_radial_105_2897" cx="0" cy="0" r="1" gradientUnits="userSpaceOnUse" gradientTransform="translate(64.7333 103.624) scale(0.17618 0.176117)">
<stop stop-color="white"/>
<stop offset="1" stop-color="#0ADBFB"/>
</radialGradient>
<radialGradient id="paint67_radial_105_2897" cx="0" cy="0" r="1" gradientUnits="userSpaceOnUse" gradientTransform="translate(53.3526 96.994) scale(0.17618 0.176117)">
<stop stop-color="white"/>
<stop offset="1" stop-color="#0ADBFB"/>
</radialGradient>
<radialGradient id="paint68_radial_105_2897" cx="0" cy="0" r="1" gradientUnits="userSpaceOnUse" gradientTransform="translate(56.3967 94.1961) scale(0.176182 0.176117)">
<stop stop-color="white"/>
<stop offset="1" stop-color="#0ADBFB"/>
</radialGradient>
<radialGradient id="paint69_radial_105_2897" cx="0" cy="0" r="1" gradientUnits="userSpaceOnUse" gradientTransform="translate(62.1642 96.994) scale(0.17618 0.176117)">
<stop stop-color="white"/>
<stop offset="1" stop-color="#0ADBFB"/>
</radialGradient>
<radialGradient id="paint70_radial_105_2897" cx="0" cy="0" r="1" gradientUnits="userSpaceOnUse" gradientTransform="translate(55.6414 101.996) scale(0.17618 0.176117)">
<stop stop-color="white"/>
<stop offset="1" stop-color="#0ADBFB"/>
</radialGradient>
<radialGradient id="paint71_radial_105_2897" cx="0" cy="0" r="1" gradientUnits="userSpaceOnUse" gradientTransform="translate(69.2193 105.097) scale(0.17618 0.176117)">
<stop stop-color="white"/>
<stop offset="1" stop-color="#0ADBFB"/>
</radialGradient>
<radialGradient id="paint72_radial_105_2897" cx="0" cy="0" r="1" gradientUnits="userSpaceOnUse" gradientTransform="translate(60.9126 116.735) scale(0.17618 0.176117)">
<stop stop-color="white"/>
<stop offset="1" stop-color="#0ADBFB"/>
</radialGradient>
<radialGradient id="paint73_radial_105_2897" cx="0" cy="0" r="1" gradientUnits="userSpaceOnUse" gradientTransform="translate(64.7333 120.361) scale(0.17618 0.176117)">
<stop stop-color="white"/>
<stop offset="1" stop-color="#0ADBFB"/>
</radialGradient>
<radialGradient id="paint74_radial_105_2897" cx="0" cy="0" r="1" gradientUnits="userSpaceOnUse" gradientTransform="translate(71.6541 120.008) scale(0.17618 0.176117)">
<stop stop-color="white"/>
<stop offset="1" stop-color="#0ADBFB"/>
</radialGradient>
<radialGradient id="paint75_radial_105_2897" cx="0" cy="0" r="1" gradientUnits="userSpaceOnUse" gradientTransform="translate(75.5513 121.619) scale(0.17618 0.176117)">
<stop stop-color="white"/>
<stop offset="1" stop-color="#0ADBFB"/>
</radialGradient>
<radialGradient id="paint76_radial_105_2897" cx="0" cy="0" r="1" gradientUnits="userSpaceOnUse" gradientTransform="translate(77.8622 119.062) scale(0.17618 0.176117)">
<stop stop-color="white"/>
<stop offset="1" stop-color="#0ADBFB"/>
</radialGradient>
<radialGradient id="paint77_radial_105_2897" cx="0" cy="0" r="1" gradientUnits="userSpaceOnUse" gradientTransform="translate(81.6971 120.184) scale(0.17618 0.176117)">
<stop stop-color="white"/>
<stop offset="1" stop-color="#0ADBFB"/>
</radialGradient>
<radialGradient id="paint78_radial_105_2897" cx="0" cy="0" r="1" gradientUnits="userSpaceOnUse" gradientTransform="translate(79.0966 112.528) scale(0.17618 0.176117)">
<stop stop-color="white"/>
<stop offset="1" stop-color="#0ADBFB"/>
</radialGradient>
<radialGradient id="paint79_radial_105_2897" cx="0" cy="0" r="1" gradientUnits="userSpaceOnUse" gradientTransform="translate(83.5635 110.403) scale(0.17618 0.176117)">
<stop stop-color="white"/>
<stop offset="1" stop-color="#0ADBFB"/>
</radialGradient>
<radialGradient id="paint80_radial_105_2897" cx="0" cy="0" r="1" gradientUnits="userSpaceOnUse" gradientTransform="translate(85.4462 103.396) scale(0.17618 0.176117)">
<stop stop-color="white"/>
<stop offset="1" stop-color="#0ADBFB"/>
</radialGradient>
<radialGradient id="paint81_radial_105_2897" cx="0" cy="0" r="1" gradientUnits="userSpaceOnUse" gradientTransform="translate(91.5149 104.171) scale(0.17618 0.176117)">
<stop stop-color="white"/>
<stop offset="1" stop-color="#0ADBFB"/>
</radialGradient>
<radialGradient id="paint82_radial_105_2897" cx="0" cy="0" r="1" gradientUnits="userSpaceOnUse" gradientTransform="translate(96.6373 105.273) scale(0.17618 0.176117)">
<stop stop-color="white"/>
<stop offset="1" stop-color="#0ADBFB"/>
</radialGradient>
<radialGradient id="paint83_radial_105_2897" cx="0" cy="0" r="1" gradientUnits="userSpaceOnUse" gradientTransform="translate(71.2828 108.252) scale(0.17618 0.176117)">
<stop stop-color="white"/>
<stop offset="1" stop-color="#0ADBFB"/>
</radialGradient>
<radialGradient id="paint84_radial_105_2897" cx="0" cy="0" r="1" gradientUnits="userSpaceOnUse" gradientTransform="translate(67.1911 117.616) scale(0.17618 0.176117)">
<stop stop-color="white"/>
<stop offset="1" stop-color="#0ADBFB"/>
</radialGradient>
<radialGradient id="paint85_radial_105_2897" cx="0" cy="0" r="1" gradientUnits="userSpaceOnUse" gradientTransform="translate(74.79 116.383) scale(0.17618 0.176117)">
<stop stop-color="white"/>
<stop offset="1" stop-color="#0ADBFB"/>
</radialGradient>
<radialGradient id="paint86_radial_105_2897" cx="0" cy="0" r="1" gradientUnits="userSpaceOnUse" gradientTransform="translate(82.7642 116.559) scale(0.17618 0.176121)">
<stop stop-color="white"/>
<stop offset="1" stop-color="#0ADBFB"/>
</radialGradient>
<radialGradient id="paint87_radial_105_2897" cx="0" cy="0" r="1" gradientUnits="userSpaceOnUse" gradientTransform="translate(87.1483 116.911) scale(0.17618 0.176117)">
<stop stop-color="white"/>
<stop offset="1" stop-color="#0ADBFB"/>
</radialGradient>
<radialGradient id="paint88_radial_105_2897" cx="0" cy="0" r="1" gradientUnits="userSpaceOnUse" gradientTransform="translate(76.5741 109.29) scale(0.17618 0.176117)">
<stop stop-color="white"/>
<stop offset="1" stop-color="#0ADBFB"/>
</radialGradient>
<radialGradient id="paint89_radial_105_2897" cx="0" cy="0" r="1" gradientUnits="userSpaceOnUse" gradientTransform="translate(88.8767 111.257) scale(0.17618 0.176121)">
<stop stop-color="white"/>
<stop offset="1" stop-color="#0ADBFB"/>
</radialGradient>
<radialGradient id="paint90_radial_105_2897" cx="0" cy="0" r="1" gradientUnits="userSpaceOnUse" gradientTransform="translate(93.088 109.29) scale(0.17618 0.176117)">
<stop stop-color="white"/>
<stop offset="1" stop-color="#0ADBFB"/>
</radialGradient>
<radialGradient id="paint91_radial_105_2897" cx="0" cy="0" r="1" gradientUnits="userSpaceOnUse" gradientTransform="translate(81.7508 107.022) scale(0.17618 0.176117)">
<stop stop-color="white"/>
<stop offset="1" stop-color="#0ADBFB"/>
</radialGradient>
<radialGradient id="paint92_radial_105_2897" cx="0" cy="0" r="1" gradientUnits="userSpaceOnUse" gradientTransform="translate(86.4055 98.7726) scale(0.17618 0.176117)">
<stop stop-color="white"/>
<stop offset="1" stop-color="#0ADBFB"/>
</radialGradient>
<radialGradient id="paint93_radial_105_2897" cx="0" cy="0" r="1" gradientUnits="userSpaceOnUse" gradientTransform="translate(78.0383 103.219) scale(0.17618 0.176117)">
<stop stop-color="white"/>
<stop offset="1" stop-color="#0ADBFB"/>
</radialGradient>
<radialGradient id="paint94_radial_105_2897" cx="0" cy="0" r="1" gradientUnits="userSpaceOnUse" gradientTransform="translate(58.1202 115.118) scale(0.17618 0.176117)">
<stop stop-color="white"/>
<stop offset="1" stop-color="#0ADBFB"/>
</radialGradient>
<radialGradient id="paint95_radial_105_2897" cx="0" cy="0" r="1" gradientUnits="userSpaceOnUse" gradientTransform="translate(60.9126 111.257) scale(0.17618 0.176121)">
<stop stop-color="white"/>
<stop offset="1" stop-color="#0ADBFB"/>
</radialGradient>
<radialGradient id="paint96_radial_105_2897" cx="0" cy="0" r="1" gradientUnits="userSpaceOnUse" gradientTransform="translate(53.1765 106.846) scale(0.17618 0.176117)">
<stop stop-color="white"/>
<stop offset="1" stop-color="#0ADBFB"/>
</radialGradient>
<radialGradient id="paint97_radial_105_2897" cx="0" cy="0" r="1" gradientUnits="userSpaceOnUse" gradientTransform="translate(86.777 107.881) scale(0.371332 0.371194)">
<stop stop-color="white"/>
<stop offset="1" stop-color="#0ADBFB"/>
</radialGradient>
<radialGradient id="paint98_radial_105_2897" cx="0" cy="0" r="1" gradientUnits="userSpaceOnUse" gradientTransform="translate(82.3929 98.5966) scale(0.371332 0.371194)">
<stop stop-color="white"/>
<stop offset="1" stop-color="#0ADBFB"/>
</radialGradient>
<radialGradient id="paint99_radial_105_2897" cx="0" cy="0" r="1" gradientUnits="userSpaceOnUse" gradientTransform="translate(99.3105 110.032) scale(0.371328 0.371194)">
<stop stop-color="white"/>
<stop offset="1" stop-color="#0ADBFB"/>
</radialGradient>
<radialGradient id="paint100_radial_105_2897" cx="0" cy="0" r="1" gradientUnits="userSpaceOnUse" gradientTransform="translate(71.6543 112.157) scale(0.37133 0.371194)">
<stop stop-color="white"/>
<stop offset="1" stop-color="#0ADBFB"/>
</radialGradient>
<radialGradient id="paint101_radial_105_2897" cx="0" cy="0" r="1" gradientUnits="userSpaceOnUse" gradientTransform="translate(94.0214 101.449) scale(0.371328 0.371194)">
<stop stop-color="white"/>
<stop offset="1" stop-color="#0ADBFB"/>
</radialGradient>
<linearGradient id="paint102_linear_105_2897" x1="8.90197" y1="99.3457" x2="34.8895" y2="99.3457" gradientUnits="userSpaceOnUse">
<stop stop-color="#772681"/>
<stop offset="1" stop-color="#A038A0"/>
</linearGradient>
<linearGradient id="paint103_linear_105_2897" x1="9.23925" y1="98.7757" x2="35.2268" y2="98.7757" gradientUnits="userSpaceOnUse">
<stop stop-color="#004EFF"/>
<stop offset="0.1726" stop-color="#0053FF"/>
<stop offset="0.3689" stop-color="#0160FF"/>
<stop offset="0.5768" stop-color="#0377FF"/>
<stop offset="0.7914" stop-color="#0597FF"/>
<stop offset="1" stop-color="#08BDFF"/>
</linearGradient>
<linearGradient id="paint104_linear_105_2897" x1="12.1996" y1="96.396" x2="32.2666" y2="96.396" gradientUnits="userSpaceOnUse">
<stop stop-color="#772681"/>
<stop offset="1" stop-color="#A038A0"/>
</linearGradient>
<linearGradient id="paint105_linear_105_2897" x1="14.9867" y1="96.3961" x2="29.4796" y2="96.3961" gradientUnits="userSpaceOnUse">
<stop stop-color="#772681"/>
<stop offset="1" stop-color="#A038A0"/>
</linearGradient>
<linearGradient id="paint106_linear_105_2897" x1="17.5784" y1="96.3961" x2="26.8877" y2="96.3961" gradientUnits="userSpaceOnUse">
<stop stop-color="#772681"/>
<stop offset="1" stop-color="#A038A0"/>
</linearGradient>
<linearGradient id="paint107_linear_105_2897" x1="19.6149" y1="96.396" x2="24.8514" y2="96.396" gradientUnits="userSpaceOnUse">
<stop stop-color="#772681"/>
<stop offset="1" stop-color="#A038A0"/>
</linearGradient>
<linearGradient id="paint108_linear_105_2897" x1="9.23925" y1="93.7457" x2="35.2268" y2="93.7457" gradientUnits="userSpaceOnUse">
<stop stop-color="#004EFF"/>
<stop offset="0.1726" stop-color="#0053FF"/>
<stop offset="0.3689" stop-color="#0160FF"/>
<stop offset="0.5768" stop-color="#0377FF"/>
<stop offset="0.7914" stop-color="#0597FF"/>
<stop offset="1" stop-color="#08BDFF"/>
</linearGradient>
<linearGradient id="paint109_linear_105_2897" x1="12.1996" y1="91.3659" x2="32.2666" y2="91.3659" gradientUnits="userSpaceOnUse">
<stop stop-color="#772681"/>
<stop offset="1" stop-color="#A038A0"/>
</linearGradient>
<linearGradient id="paint110_linear_105_2897" x1="14.9865" y1="91.366" x2="29.4794" y2="91.366" gradientUnits="userSpaceOnUse">
<stop stop-color="#772681"/>
<stop offset="1" stop-color="#A038A0"/>
</linearGradient>
<linearGradient id="paint111_linear_105_2897" x1="17.5784" y1="91.366" x2="26.8877" y2="91.366" gradientUnits="userSpaceOnUse">
<stop stop-color="#772681"/>
<stop offset="1" stop-color="#A038A0"/>
</linearGradient>
<linearGradient id="paint112_linear_105_2897" x1="19.6149" y1="91.3659" x2="24.8514" y2="91.3659" gradientUnits="userSpaceOnUse">
<stop stop-color="#772681"/>
<stop offset="1" stop-color="#A038A0"/>
</linearGradient>
<linearGradient id="paint113_linear_105_2897" x1="9.23925" y1="88.7155" x2="35.2268" y2="88.7155" gradientUnits="userSpaceOnUse">
<stop stop-color="#004EFF"/>
<stop offset="0.1726" stop-color="#0053FF"/>
<stop offset="0.3689" stop-color="#0160FF"/>
<stop offset="0.5768" stop-color="#0377FF"/>
<stop offset="0.7914" stop-color="#0597FF"/>
<stop offset="1" stop-color="#08BDFF"/>
</linearGradient>
<linearGradient id="paint114_linear_105_2897" x1="12.1996" y1="86.3358" x2="32.2666" y2="86.3358" gradientUnits="userSpaceOnUse">
<stop stop-color="#772681"/>
<stop offset="1" stop-color="#A038A0"/>
</linearGradient>
<linearGradient id="paint115_linear_105_2897" x1="14.9865" y1="86.3358" x2="29.4794" y2="86.3358" gradientUnits="userSpaceOnUse">
<stop stop-color="#772681"/>
<stop offset="1" stop-color="#A038A0"/>
</linearGradient>
<linearGradient id="paint116_linear_105_2897" x1="17.5784" y1="86.3358" x2="26.8877" y2="86.3358" gradientUnits="userSpaceOnUse">
<stop stop-color="#772681"/>
<stop offset="1" stop-color="#A038A0"/>
</linearGradient>
<linearGradient id="paint117_linear_105_2897" x1="19.6149" y1="86.3358" x2="24.8514" y2="86.3358" gradientUnits="userSpaceOnUse">
<stop stop-color="#772681"/>
<stop offset="1" stop-color="#A038A0"/>
</linearGradient>
<linearGradient id="paint118_linear_105_2897" x1="9.23925" y1="83.417" x2="35.2268" y2="83.417" gradientUnits="userSpaceOnUse">
<stop stop-color="#1CA7FB"/>
<stop offset="0.1726" stop-color="#1CA7FB" stop-opacity="0.86"/>
<stop offset="0.3689" stop-color="#1CA7FB" stop-opacity="0.79"/>
<stop offset="0.5768" stop-color="#1CA7FB" stop-opacity="0.62"/>
<stop offset="0.7914" stop-color="#0597FF"/>
<stop offset="1" stop-color="#17FCD7"/>
</linearGradient>
<linearGradient id="paint119_linear_105_2897" x1="12.1996" y1="81.0373" x2="32.2666" y2="81.0373" gradientUnits="userSpaceOnUse">
<stop stop-color="#772681"/>
<stop offset="1" stop-color="#A038A0"/>
</linearGradient>
<linearGradient id="paint120_linear_105_2897" x1="14.9865" y1="81.0374" x2="29.4794" y2="81.0374" gradientUnits="userSpaceOnUse">
<stop stop-color="#772681"/>
<stop offset="1" stop-color="#A038A0"/>
</linearGradient>
<linearGradient id="paint121_linear_105_2897" x1="17.5784" y1="81.0374" x2="26.8877" y2="81.0374" gradientUnits="userSpaceOnUse">
<stop stop-color="#772681"/>
<stop offset="1" stop-color="#A038A0"/>
</linearGradient>
<linearGradient id="paint122_linear_105_2897" x1="19.6149" y1="81.0373" x2="24.8514" y2="81.0373" gradientUnits="userSpaceOnUse">
<stop stop-color="#772681"/>
<stop offset="1" stop-color="#A038A0"/>
</linearGradient>
<linearGradient id="paint123_linear_105_2897" x1="111.251" y1="99.4109" x2="137.239" y2="99.4109" gradientUnits="userSpaceOnUse">
<stop stop-color="#772681"/>
<stop offset="1" stop-color="#A038A0"/>
</linearGradient>
<linearGradient id="paint124_linear_105_2897" x1="111.748" y1="98.7756" x2="137.735" y2="98.7756" gradientUnits="userSpaceOnUse">
<stop stop-color="#004EFF"/>
<stop offset="0.1726" stop-color="#0053FF"/>
<stop offset="0.3689" stop-color="#0160FF"/>
<stop offset="0.5768" stop-color="#0377FF"/>
<stop offset="0.7914" stop-color="#0597FF"/>
<stop offset="1" stop-color="#08BDFF"/>
</linearGradient>
<linearGradient id="paint125_linear_105_2897" x1="114.708" y1="96.3959" x2="134.775" y2="96.3959" gradientUnits="userSpaceOnUse">
<stop stop-color="#772681"/>
<stop offset="1" stop-color="#A038A0"/>
</linearGradient>
<linearGradient id="paint126_linear_105_2897" x1="117.495" y1="96.3959" x2="131.988" y2="96.3959" gradientUnits="userSpaceOnUse">
<stop stop-color="#772681"/>
<stop offset="1" stop-color="#A038A0"/>
</linearGradient>
<linearGradient id="paint127_linear_105_2897" x1="120.087" y1="96.3959" x2="129.396" y2="96.3959" gradientUnits="userSpaceOnUse">
<stop stop-color="#772681"/>
<stop offset="1" stop-color="#A038A0"/>
</linearGradient>
<linearGradient id="paint128_linear_105_2897" x1="122.123" y1="96.3959" x2="127.36" y2="96.3959" gradientUnits="userSpaceOnUse">
<stop stop-color="#772681"/>
<stop offset="1" stop-color="#A038A0"/>
</linearGradient>
<linearGradient id="paint129_linear_105_2897" x1="111.748" y1="93.7455" x2="137.735" y2="93.7455" gradientUnits="userSpaceOnUse">
<stop stop-color="#004EFF"/>
<stop offset="0.1726" stop-color="#0053FF"/>
<stop offset="0.3689" stop-color="#0160FF"/>
<stop offset="0.5768" stop-color="#0377FF"/>
<stop offset="0.7914" stop-color="#0597FF"/>
<stop offset="1" stop-color="#08BDFF"/>
</linearGradient>
<linearGradient id="paint130_linear_105_2897" x1="114.708" y1="91.3658" x2="134.775" y2="91.3658" gradientUnits="userSpaceOnUse">
<stop stop-color="#772681"/>
<stop offset="1" stop-color="#A038A0"/>
</linearGradient>
<linearGradient id="paint131_linear_105_2897" x1="117.495" y1="91.3658" x2="131.988" y2="91.3658" gradientUnits="userSpaceOnUse">
<stop stop-color="#772681"/>
<stop offset="1" stop-color="#A038A0"/>
</linearGradient>
<linearGradient id="paint132_linear_105_2897" x1="120.087" y1="91.3658" x2="129.396" y2="91.3658" gradientUnits="userSpaceOnUse">
<stop stop-color="#772681"/>
<stop offset="1" stop-color="#A038A0"/>
</linearGradient>
<linearGradient id="paint133_linear_105_2897" x1="122.123" y1="91.3658" x2="127.36" y2="91.3658" gradientUnits="userSpaceOnUse">
<stop stop-color="#772681"/>
<stop offset="1" stop-color="#A038A0"/>
</linearGradient>
<linearGradient id="paint134_linear_105_2897" x1="15.1369" y1="116.095" x2="23.8233" y2="116.095" gradientUnits="userSpaceOnUse">
<stop stop-color="#772681"/>
<stop offset="1" stop-color="#A038A0"/>
</linearGradient>
<clipPath id="clip0_105_2897">
<rect width="141" height="163" fill="white"/>
</clipPath>
</defs>
</svg>
