<svg width="130" height="130" viewBox="0 0 130 130" fill="none" xmlns="http://www.w3.org/2000/svg">
<path d="M64.1474 99.2121C63.0111 98.8128 61.7979 98.5364 60.7229 98.0143C58.4502 96.9086 56.7916 95.0658 55.4095 92.9927C54.4728 91.5799 53.6896 90.0442 52.8757 88.5546C52.6914 88.2168 52.5686 88.0786 52.1386 88.1246C49.6201 88.4471 47.1016 88.5853 44.5678 88.1554C41.0511 87.5718 38.0105 86.2051 36.1831 82.9341C34.7703 80.4156 34.7703 77.6975 35.4153 74.9794C36.2138 71.6624 37.7955 68.6832 39.8073 65.9497C40.2526 65.3355 40.2987 64.9208 39.8226 64.2912C37.8109 61.5424 36.2292 58.5786 35.4306 55.2615C34.7703 52.5434 34.801 49.8407 36.1677 47.2915C37.5806 44.6809 39.8687 43.2373 42.6482 42.4541C45.4278 41.6863 48.2534 41.6556 51.0943 41.9781C52.5839 42.147 52.5993 42.1624 53.2903 40.811C54.5803 38.2311 56.116 35.8355 58.2812 33.8852C60.4312 31.9656 62.9036 30.7985 65.8367 31.0288C68.6316 31.2438 70.8736 32.6106 72.7932 34.5762C74.7896 36.6033 76.2331 39.0296 77.4462 41.5788C77.5384 41.7631 77.6305 41.932 77.692 42.0549C79.5655 41.9781 81.4082 41.7938 83.2357 41.8399C86.0152 41.9013 88.718 42.4081 91.0983 43.9745C94.0467 45.9247 95.3981 48.735 95.352 52.2209C95.306 55.2769 94.231 58.0411 92.8028 60.6671C92.0811 61.9877 91.2365 63.247 90.3765 64.4909C90.0387 64.9823 90.054 65.2894 90.3919 65.7501C92.25 68.2839 93.7549 71.0174 94.661 74.0426C95.352 76.3615 95.5977 78.7111 94.9067 81.0606C93.8317 84.7462 91.1597 86.7579 87.6123 87.7561C84.5256 88.6314 81.3775 88.5393 78.2294 88.1246C77.7687 88.0632 77.6152 88.2168 77.4462 88.5853C76.402 90.8274 75.1581 92.9466 73.5303 94.8201C71.6107 97.0161 69.3687 98.6746 66.3895 99.12C66.3281 99.1353 66.282 99.1814 66.2206 99.2121C65.5603 99.2121 64.8538 99.2121 64.1474 99.2121ZM79.0587 65.1051C78.9205 62.8016 78.7976 60.4981 78.6287 58.1947C78.6133 57.9489 78.4291 57.6572 78.2294 57.5036C74.3135 54.3709 70.0751 51.7602 65.5756 49.5796C65.3606 49.4721 65.0074 49.4875 64.7924 49.5796C60.2776 51.7602 56.0545 54.4016 52.1386 57.5036C51.9697 57.6418 51.7854 57.8722 51.77 58.0718C51.6472 59.3771 51.4783 60.6824 51.4936 61.9877C51.5243 65.3201 51.6472 68.6371 51.77 71.9542C51.7854 72.2152 51.9697 72.5377 52.1847 72.7066C56.0852 75.824 60.3083 78.4193 64.7924 80.5999C65.0228 80.7074 65.4067 80.7074 65.637 80.5999C70.1672 78.45 74.3596 75.7626 78.2909 72.6606C78.4751 72.5223 78.6287 72.2459 78.6441 72.0156C78.7823 69.7121 78.9205 67.4086 79.0587 65.1051ZM42.2336 67.7157C40.1758 70.7256 38.333 73.9198 38.1027 77.7589C37.9491 80.2314 38.7784 82.2891 40.9436 83.6712C42.6636 84.7615 44.5832 85.1915 46.5642 85.2837C48.1612 85.3605 49.7737 85.2376 51.4168 85.2069C51.3861 84.9612 51.3861 84.8998 51.3554 84.8383C50.2344 81.3985 49.3898 77.8818 48.9137 74.3037C48.883 74.1194 48.7601 73.9352 48.6373 73.8123C46.5488 71.7852 44.4142 69.7735 42.2336 67.7157ZM51.3247 45.0801C51.3401 45.0955 51.3093 45.0494 51.2633 45.0494C50.8179 45.0033 50.3879 44.9419 49.9426 44.9112C47.1016 44.7269 44.2914 44.8037 41.6808 46.109C39.4848 47.1993 38.2409 48.95 38.118 51.4685C38.0259 53.3113 38.4252 55.0312 39.0855 56.7204C39.884 58.8089 41.0051 60.7285 42.249 62.4484C44.4142 60.3906 46.5488 58.3636 48.6834 56.3365C48.8216 56.1983 48.9137 55.9679 48.9444 55.7683C49.1133 54.8316 49.2055 53.8794 49.4205 52.9427C50.0347 50.3474 50.6797 47.7368 51.3247 45.0801ZM79.1048 85.1147C81.9918 85.4833 84.9249 85.4987 87.7966 84.4851C90.8679 83.3948 92.4957 80.9838 92.2807 77.7436C92.035 73.9044 90.1769 70.7256 88.2573 67.8693C86.6448 69.3589 85.1245 70.956 83.4046 72.3074C81.9611 73.4437 81.3468 74.7644 81.055 76.5611C80.6251 79.4175 79.7958 82.2124 79.1048 85.1147ZM88.1651 62.4945C88.7948 61.4656 89.5012 60.3906 90.1154 59.2696C91.2672 57.1504 92.1425 54.9391 92.2654 52.482C92.4189 49.595 91.3286 47.399 88.6719 46.0937C86.9059 45.2183 85.0017 44.9112 83.0668 44.8651C81.7 44.8344 80.3333 44.9573 78.8898 45.0187C80.1336 48.6582 80.9476 52.2363 81.4543 55.8912C81.4697 56.0447 81.5772 56.229 81.6847 56.3365C83.8192 58.3789 85.9538 60.406 88.1651 62.4945ZM55.7627 87.4643C57.1141 90.2439 58.6805 92.747 61.0915 94.6205C63.395 96.4018 65.9135 96.6475 68.4012 95.1887C71.4265 93.4073 73.1157 90.5356 74.636 87.495C74.4978 87.4336 74.4364 87.3875 74.3442 87.3722C71.3497 86.6351 68.4473 85.6369 65.6063 84.4237C65.3453 84.3162 64.9613 84.3623 64.6696 84.4698C62.7961 85.1455 60.9379 85.8826 59.0644 86.5276C58.0048 86.8808 56.9145 87.1418 55.7627 87.4643ZM55.8395 42.5616C58.9109 43.6827 61.9054 44.773 64.8999 45.848C65.1456 45.9401 65.4988 45.8326 65.7752 45.7251C68.4319 44.8191 71.0886 43.8977 73.7453 42.9916C74.0217 42.8995 74.3135 42.8227 74.636 42.7306C73.2846 39.951 71.7182 37.4479 69.3073 35.5744C67.0038 33.793 64.4853 33.5473 61.9975 35.0062C58.9876 36.7876 57.2984 39.6593 55.8395 42.5616ZM68.9541 82.5348C71.2883 83.2566 73.5303 83.9323 75.8338 84.6387C76.7552 82.0588 77.477 79.571 77.9069 76.9604C74.9124 78.8339 72.01 80.646 68.9541 82.5348ZM61.46 82.5348C58.358 80.6153 55.4556 78.8185 52.3536 76.8836C53.0753 79.5403 53.751 82.0434 54.4574 84.6848C56.8684 83.9476 59.1258 83.2566 61.46 82.5348ZM54.5649 45.5562C53.6435 48.1514 52.9218 50.6392 52.5072 53.2345C55.4863 51.3763 58.4041 49.5642 61.46 47.66C59.1105 46.9383 56.8838 46.2626 54.5649 45.5562ZM78.0452 53.3113C77.3234 50.6546 76.6324 48.1361 75.9259 45.5101C73.515 46.2472 71.2729 46.9383 68.9541 47.66C72.01 49.5642 74.9124 51.361 78.0452 53.3113ZM48.3916 60.6671C46.9327 62.2027 45.5967 63.6309 44.1839 65.1051C45.5813 66.5793 46.9327 68.0075 48.3916 69.5432C48.3916 66.5026 48.3916 63.6923 48.3916 60.6671ZM82.0072 69.5432C83.4814 67.9768 84.8174 66.564 86.2149 65.0898C84.7867 63.6002 83.4507 62.1874 82.0072 60.6824C82.0072 63.7077 82.0072 66.5026 82.0072 69.5432Z" fill="url(#paint0_linear_131_1718)"/>
<path d="M65.2068 71.1402C61.8744 71.1402 59.141 68.3913 59.1563 65.0743C59.187 61.7266 61.9359 59.0085 65.2375 59.0545C68.5699 59.1006 71.2266 61.7573 71.2419 65.0897C71.2573 68.4221 68.5392 71.1402 65.2068 71.1402ZM68.186 65.0743C68.1706 63.4004 66.8193 62.0798 65.1607 62.1105C63.5176 62.1412 62.2276 63.4465 62.2276 65.0897C62.2276 66.7482 63.5637 68.0842 65.2222 68.0842C66.8653 68.0842 68.2013 66.7328 68.186 65.0743Z" fill="url(#paint1_linear_131_1718)"/>
<defs>
<linearGradient id="paint0_linear_131_1718" x1="65.1766" y1="31" x2="65.1766" y2="99.2121" gradientUnits="userSpaceOnUse">
<stop stop-color="#1CA7FB"/>
<stop offset="1" stop-color="#17FCD7"/>
</linearGradient>
<linearGradient id="paint1_linear_131_1718" x1="65.1991" y1="59.054" x2="65.1991" y2="71.1402" gradientUnits="userSpaceOnUse">
<stop stop-color="#1CA7FB"/>
<stop offset="1" stop-color="#17FCD7"/>
</linearGradient>
</defs>
</svg>
