<svg width="223" height="39" viewBox="0 0 223 39" fill="none" xmlns="http://www.w3.org/2000/svg">
<g clip-path="url(#clip0_55_7709)">
<path d="M1.97981 4.58786C1.88718 4.25094 1.8063 3.92427 1.7376 3.60889C7.83521 12.0889 15.3135 17.3518 18.6743 19.0804C18.9358 19.2344 19.3627 19.5987 19.8794 20.1909C20.3917 20.778 20.9435 21.5326 21.4506 22.3905C22.4737 24.1217 23.2481 26.1592 23.253 28.0094C23.1496 30.8328 21.7851 33.2572 20.3763 35.0585C19.8096 35.7833 19.2458 36.3942 18.7724 36.8774C18.0126 35.1133 16.725 33.8505 15.4455 32.9609C13.9547 31.9244 12.4033 31.3471 11.6154 31.054C11.5406 31.0261 11.4729 31.0009 11.4125 30.9781C8.05444 29.3866 6.2021 27.7897 5.23194 26.5119C5.13631 26.386 5.04969 26.2639 4.9713 26.1458C5.6959 26.4521 6.4421 26.654 7.15064 26.783C8.72282 27.0694 10.2252 27.0192 11.1622 26.8774L14.4991 26.3724L11.4474 24.9347C5.76758 22.2589 3.03172 19.5596 1.84274 17.3991C1.31095 16.4328 1.0846 15.5717 1.03833 14.8474C1.7529 15.6801 2.55934 16.3942 3.35058 16.9874C4.62259 17.9412 5.90542 18.6205 6.82158 19.0041C6.82973 19.0115 6.83826 19.0189 6.84714 19.0265C6.8772 19.0521 6.98102 19.1405 7.1365 19.2052C7.1881 19.2267 7.33823 19.28 7.53001 19.2847L10.5691 20.4751L8.50078 17.8485C8.49461 17.8315 8.48953 17.8186 8.48637 17.8107C8.48582 17.8092 8.48486 17.8067 8.48486 17.8067L8.31813 17.3805L8.07228 17.2882C7.42798 16.3621 5.65538 13.4574 4.09313 10.1104C3.23887 8.28025 2.46589 6.35594 1.97981 4.58786ZM7.79761 17.1842L7.795 17.1832C7.40973 17.0321 6.90259 16.7968 6.33597 16.4809L7.79761 17.1842Z" stroke="#00FFFF" stroke-width="3"/>
<path d="M55.6672 4.59075C55.7551 4.26745 55.8323 3.95353 55.8985 3.6499C49.874 12.1031 42.4979 17.3514 39.1775 19.0782C38.9205 19.2313 38.4992 19.5947 37.9882 20.1868C37.4817 20.7736 36.9359 21.5283 36.4343 22.3864C35.4225 24.1176 34.6556 26.1567 34.6508 28.0097C34.7531 30.8365 36.104 33.2622 37.4968 35.063C38.0506 35.7791 38.6015 36.3839 39.0661 36.8644C39.818 35.1102 41.0871 33.8521 42.3504 32.9641C43.8262 31.9265 45.3624 31.3485 46.1417 31.0554C46.2153 31.0277 46.2822 31.0026 46.3416 30.9798C49.6604 29.3894 51.4911 27.7936 52.4502 26.5164C52.5437 26.3918 52.6285 26.271 52.7054 26.1541C51.9947 26.4555 51.2636 26.6548 50.5689 26.7828C49.0114 27.0696 47.5229 27.0194 46.594 26.8772L43.2931 26.3721L46.3065 24.9367C51.9213 22.2622 54.6262 19.5642 55.8023 17.4034C56.3226 16.4472 56.5477 15.5934 56.597 14.8728C55.8965 15.6931 55.1082 16.3976 54.3343 16.9843C53.0767 17.9378 51.808 18.6173 50.9007 19.0017C50.893 19.0087 50.885 19.0158 50.8766 19.023C50.847 19.0485 50.743 19.138 50.5869 19.2038C50.5349 19.2257 50.3852 19.2791 50.1943 19.2847L47.1693 20.4827L49.2175 17.8527C49.2236 17.8354 49.2288 17.8224 49.2319 17.8143C49.2325 17.8129 49.2334 17.8104 49.2334 17.8104L49.3985 17.3835L49.6422 17.291C50.2803 16.3631 52.0324 13.4597 53.5767 10.1145C54.4217 8.28413 55.1863 6.35947 55.6672 4.59075ZM49.9173 17.1857L49.9208 17.1843C50.3038 17.0324 50.809 16.7951 51.3734 16.4763L49.9173 17.1857Z" stroke="#00FFFF" stroke-width="3"/>
<path d="M28.7672 34.5668C36.6332 34.5668 43.0099 28.2082 43.0099 20.3645C43.0099 12.5207 36.6332 6.16211 28.7672 6.16211C20.9012 6.16211 14.5245 12.5207 14.5245 20.3645C14.5245 28.2082 20.9012 34.5668 28.7672 34.5668Z" fill="#00FFFF"/>
<path d="M29.2816 27.607C28.9932 27.607 28.702 27.607 28.4136 27.607C28.2428 27.5847 28.0719 27.5679 27.9012 27.5427C27.0163 27.4171 26.1791 27.1462 25.395 26.7163C25.3362 26.6828 25.2438 26.6771 25.1766 26.6967C24.8321 26.7972 24.4933 26.9117 24.1517 27.0206C23.558 27.2189 22.9616 27.4115 22.3651 27.607C22.2895 27.607 22.2167 27.607 22.1411 27.607C21.9171 27.5316 21.7687 27.3836 21.6931 27.1602C21.6931 27.0849 21.6931 27.0123 21.6931 26.9369C21.6987 26.9313 21.7099 26.9257 21.7127 26.9173C22.0068 25.9986 22.3008 25.0772 22.6003 24.1586C22.634 24.058 22.6283 23.9799 22.578 23.8849C22.1859 23.1784 21.9227 22.4301 21.7967 21.6315C21.7575 21.3914 21.7267 21.1485 21.6931 20.9056C21.6931 20.6179 21.6931 20.3275 21.6931 20.04C21.7015 20.0008 21.7127 19.959 21.7155 19.9199C21.7855 18.923 22.0515 17.9765 22.5332 17.1024C23.6476 15.0892 25.3417 13.8578 27.6127 13.4222C27.8872 13.3692 28.1644 13.3469 28.4416 13.3105C28.7216 13.3105 29.0016 13.3105 29.2816 13.3105C29.3181 13.3189 29.3544 13.3301 29.3909 13.3329C30.3962 13.3999 31.3482 13.6652 32.2275 14.1482C34.2464 15.2623 35.4841 16.9517 35.9181 19.2134C35.9714 19.4871 35.9937 19.7635 36.0302 20.04C36.0302 20.3192 36.0302 20.5984 36.0302 20.8776C36.0217 20.9167 36.0105 20.9586 36.0077 20.9977C35.9377 21.9945 35.6745 22.9411 35.1901 23.8151C34.0756 25.8283 32.3815 27.0597 30.1105 27.4953C29.8361 27.5455 29.5589 27.5707 29.2816 27.607ZM23.124 26.1829C23.7317 25.9875 24.3141 25.8255 24.8798 25.6133C25.2662 25.4681 25.5742 25.524 25.9326 25.725C27.2347 26.4566 28.632 26.666 30.0965 26.3645C31.617 26.0489 32.8407 25.2476 33.7508 23.9966C34.798 22.5613 35.1341 20.9558 34.7757 19.2218C34.4677 17.7251 33.6696 16.5245 32.4403 15.6141C31.1102 14.6285 29.6093 14.2627 27.9768 14.5C26.3302 14.7402 25.0029 15.55 24.0117 16.8819C22.9392 18.3199 22.606 19.9338 22.9448 21.6874C23.0764 22.3631 23.3312 22.997 23.6924 23.5834C23.8185 23.79 23.8437 23.9938 23.7597 24.2199C23.6924 24.3987 23.6393 24.5802 23.5805 24.7617C23.4292 25.2252 23.2808 25.6887 23.124 26.1829Z" fill="black"/>
<path d="M26.0642 21.1569C25.6806 21.1597 25.3586 20.8386 25.3614 20.4561C25.3642 20.0791 25.6779 19.7636 26.0559 19.7608C26.4395 19.758 26.7615 20.0791 26.7587 20.4617C26.7587 20.8386 26.4451 21.1542 26.0642 21.1569Z" fill="black"/>
<path d="M29.5618 20.4585C29.5618 20.841 29.2398 21.1593 28.8561 21.1565C28.4781 21.1537 28.1645 20.8382 28.1645 20.4612C28.1645 20.0787 28.4865 19.7604 28.8701 19.7632C29.2481 19.766 29.559 20.0787 29.5618 20.4585Z" fill="black"/>
<path d="M32.362 20.4533C32.3648 20.8358 32.0456 21.1569 31.6591 21.1542C31.2811 21.1513 30.9647 20.8386 30.9619 20.4617C30.9591 20.0791 31.2783 19.758 31.6647 19.7608C32.0428 19.7636 32.3592 20.0763 32.362 20.4533Z" fill="black"/>
<path d="M62.5774 26.0686V14.916H66.3512L71.1542 21.5529L75.9573 14.916H79.7997V26.0002H76.4376V18.9529L72.252 24.7002H70.1249L65.9395 18.9529V26.0686H62.5774Z" fill="#00FFFF"/>
<path d="M92.4249 14.916H95.7871V23.5371L93.2483 26.0686H84.74L82.2012 23.5371V14.916H85.5634V23.5371H92.3563V14.916H92.4249Z" fill="#00FFFF"/>
<path d="M98.1886 26.0686V14.916H101.962L106.766 21.5529L111.569 14.916H115.411V26.0002H112.049V18.9529L107.863 24.7002H105.668L101.482 18.9529V26.0686H98.1886Z" fill="#00FFFF"/>
<path d="M117.95 14.916H129.752L132.29 18.3371L130.712 20.4581L132.29 22.5792L129.752 26.0002H117.95V14.916ZM127.83 19.3634L128.654 18.3371L127.83 17.4476H121.381V19.4318H127.83V19.3634ZM127.83 23.5371L128.654 22.6476L127.83 21.6213H121.381V23.5371H127.83Z" fill="#00FFFF"/>
<path d="M137.642 23.5368H147.18L144.71 26H134.28V14.9158L137.642 13V23.5368Z" fill="#00FFFF"/>
<path d="M148.69 14.916H162.07L159.599 17.3792H152.12V19.3634H160.491L158.227 21.6213H152.12V23.5371H161.658L159.188 26.0002H148.758V14.916H148.69Z" fill="#00FFFF"/>
<path d="M166.598 17.4476V23.6055H176.136L173.666 26.0686H165.775L163.236 23.6055V17.4476L165.775 14.916H176.547L174.077 17.3792H166.598V17.4476Z" fill="#00FFFF"/>
<path d="M178.126 14.916H181.488V19.3634H188.143V14.916H191.506V26.0686H188.143V21.6213H181.488V26.0686H178.126V14.916Z" fill="#00FFFF"/>
<path d="M193.907 26.0686V17.4475L196.446 14.9844H204.886L207.424 17.4475V26.0686H204.062V22.9212H197.269V26.137L193.907 26.0686ZM197.338 17.4475V20.4581H204.131V17.4475H197.338Z" fill="#00FFFF"/>
<path d="M207.562 14.916H222.451L219.981 17.3792H216.687V26.0002H213.325V17.4476H210.032L207.562 14.916Z" fill="#00FFFF"/>
</g>
<defs>
<clipPath id="clip0_55_7709">
<rect width="223" height="39" fill="white"/>
</clipPath>
</defs>
</svg>
