<svg width="194" height="34" viewBox="0 0 194 34" fill="none" xmlns="http://www.w3.org/2000/svg">
<path d="M17 0L20.8167 11.7467L33.168 11.7467L23.1756 19.0066L26.9923 30.7533L17 23.4934L7.00765 30.7533L10.8244 19.0066L0.832039 11.7467L13.1833 11.7467L17 0Z" fill="#EF9B3C"/>
<path d="M57 0L60.8167 11.7467L73.168 11.7467L63.1756 19.0066L66.9923 30.7533L57 23.4934L47.0077 30.7533L50.8244 19.0066L40.832 11.7467L53.1833 11.7467L57 0Z" fill="#EF9B3C"/>
<path d="M97 0L100.817 11.7467L113.168 11.7467L103.176 19.0066L106.992 30.7533L97 23.4934L87.0077 30.7533L90.8244 19.0066L80.832 11.7467L93.1833 11.7467L97 0Z" fill="#EF9B3C"/>
<path d="M137 0L140.817 11.7467L153.168 11.7467L143.176 19.0066L146.992 30.7533L137 23.4934L127.008 30.7533L130.824 19.0066L120.832 11.7467L133.183 11.7467L137 0Z" fill="#EF9B3C"/>
<path d="M177 0L180.817 11.7467L193.168 11.7467L183.176 19.0066L186.992 30.7533L177 23.4934L167.008 30.7533L170.824 19.0066L160.832 11.7467L173.183 11.7467L177 0Z" fill="#EF9B3C"/>
</svg>
