<svg width="61" height="61" viewBox="0 0 61 61" fill="none" xmlns="http://www.w3.org/2000/svg">
<path d="M30.1825 40.2777C24.6632 40.2777 20.14 35.7276 20.14 30.2083C20.14 24.6351 24.6901 20.1389 30.2632 20.1658C35.7825 20.1928 40.2788 24.7428 40.2518 30.2621C40.2518 35.7815 35.7287 40.2777 30.1825 40.2777ZM38.2864 30.2352C38.2864 25.7659 34.6787 22.1312 30.2094 22.1312C25.767 22.1312 22.1324 25.7121 22.1324 30.1544C22.1054 34.6507 25.7132 38.2853 30.1555 38.2853C34.6518 38.3123 38.2864 34.7045 38.2864 30.2352Z" fill="url(#paint0_linear_3_23)"/>
<path d="M3.98592 2.01926C3.98592 2.80004 3.98592 3.52698 3.98592 4.25391C3.98592 6.6501 3.98592 9.04629 3.98592 11.4425C3.98592 11.5771 3.98592 11.7386 3.98592 11.8733C3.98592 12.6271 3.58207 13.0848 2.98975 13.0579C2.39744 13.0579 2.02051 12.6002 2.02051 11.9002C2.02051 10.6617 2.02051 9.42322 2.02051 8.18474C2.02051 6.1924 2.02051 4.20006 2.02051 2.20773C2.02051 0.807704 2.82821 0 4.20131 0C10.1245 0 16.0476 0 21.9439 0C23.317 0 24.1247 0.807704 24.1247 2.20773C24.1247 5.41162 24.1247 8.61551 24.1247 11.8463C24.1247 12.6002 23.7477 13.0579 23.1554 13.0848C22.5631 13.0848 22.1593 12.6002 22.1593 11.8194C22.1593 8.80398 22.1593 5.78855 22.1593 2.74619C22.1593 2.53081 22.1593 2.2885 22.1593 2.01926C16.1015 2.01926 10.0975 2.01926 3.98592 2.01926Z" fill="url(#paint1_linear_3_23)"/>
<path d="M56.4325 2.01913C50.3478 2.01913 44.3707 2.01913 38.2591 2.01913C38.2591 2.23452 38.2591 2.47683 38.2591 2.69222C38.2591 5.68072 38.2591 8.64231 38.2591 11.6308C38.2591 11.8193 38.2591 12.0077 38.2322 12.1962C38.1514 12.7078 37.7207 13.1116 37.236 13.0847C36.6706 13.0578 36.3476 12.7347 36.2668 12.1962C36.2399 12.0347 36.2668 11.8731 36.2668 11.6847C36.2668 8.58846 36.2668 5.51918 36.2668 2.42298C36.2668 0.753728 37.0206 0.0267944 38.6899 0.0267944C44.4515 0.0267944 50.2401 0.0267944 56.0017 0.0267944C57.644 0.0267944 58.3979 0.780652 58.3979 2.39606C58.3979 5.49226 58.3979 8.61538 58.3979 11.7116C58.3979 11.8462 58.3979 12.0077 58.3979 12.1424C58.344 12.7078 57.9132 13.1116 57.3748 13.0578C56.8094 13.0039 56.4863 12.6808 56.4325 12.1424C56.4055 11.8193 56.4055 11.4693 56.4055 11.1462C56.4325 8.13076 56.4325 5.08841 56.4325 2.01913Z" fill="url(#paint2_linear_3_23)"/>
<path d="M22.1592 46.3623C16.0745 46.3623 10.0706 46.3623 3.98586 46.3623C3.98586 46.6046 3.98586 46.82 3.98586 47.0623C3.98586 50.0239 3.98586 52.9855 3.98586 55.9471C3.98586 56.1356 4.01278 56.324 3.98586 56.5125C3.90509 57.051 3.582 57.374 3.04353 57.4279C2.53199 57.4548 2.07429 57.051 2.04737 56.5125C2.02044 56.1625 2.04737 55.8125 2.04737 55.4355C2.04737 52.5278 2.04737 49.5932 2.04737 46.6854C2.04737 45.1508 2.82815 44.37 4.38971 44.37C10.2321 44.37 16.0476 44.37 21.89 44.37C23.4246 44.37 24.2054 45.1508 24.2054 46.7123C24.2054 49.8355 24.2054 52.9586 24.2054 56.0817C24.2054 56.9433 23.8554 57.4279 23.2361 57.4279C22.59 57.4279 22.24 56.9702 22.24 56.1086C22.24 53.1201 22.24 50.1047 22.24 47.1162C22.1592 46.847 22.1592 46.6316 22.1592 46.3623Z" fill="url(#paint3_linear_3_23)"/>
<path d="M56.4327 46.3622C50.348 46.3622 44.3441 46.3622 38.2594 46.3622C38.2594 46.6045 38.2594 46.8468 38.2594 47.0622C38.2594 49.97 38.2594 52.8508 38.2594 55.7585C38.2594 55.8931 38.2594 56.0547 38.2594 56.1893C38.2594 56.9431 37.8824 57.4008 37.2901 57.4008C36.6978 57.4008 36.2939 56.9431 36.2939 56.2162C36.2939 55.7854 36.2939 55.3816 36.2939 54.9508C36.2939 52.1777 36.2939 49.4046 36.2939 46.6315C36.2939 45.1237 37.0747 44.343 38.5824 44.343C44.4248 44.343 50.2942 44.343 56.1366 44.343C57.6443 44.343 58.425 45.1237 58.425 46.6315C58.425 49.8084 58.425 52.9585 58.425 56.1354C58.425 56.9431 58.0481 57.4008 57.4289 57.4008C56.8096 57.4008 56.4327 56.9162 56.4327 56.1354C56.4327 53.12 56.4327 50.1046 56.4327 47.0622C56.4327 46.8468 56.4327 46.6045 56.4327 46.3622Z" fill="url(#paint4_linear_3_23)"/>
<path d="M13.005 16.1003C9.1549 16.1003 5.27792 16.1003 1.42786 16.1003C1.21247 16.1003 0.997084 16.1272 0.80862 16.0733C0.297074 15.9387 0.000915527 15.5887 0.000915527 15.0772C0.027839 14.5925 0.323997 14.2695 0.781696 14.1349C0.997084 14.081 1.2394 14.1079 1.48171 14.1079C9.20875 14.1079 16.9358 14.1079 24.6628 14.1079C25.6859 14.1079 26.1705 14.4579 26.1436 15.131C26.1436 15.7772 25.659 16.1003 24.6628 16.1003C20.7858 16.1003 16.9089 16.1003 13.005 16.1003Z" fill="url(#paint5_linear_3_23)"/>
<path d="M47.2784 16.1003C43.4284 16.1003 39.5514 16.1003 35.7013 16.1003C35.4859 16.1003 35.2706 16.1272 35.0821 16.0733C34.5705 15.9387 34.2744 15.6156 34.3013 15.0772C34.3282 14.5925 34.6244 14.2695 35.0821 14.1349C35.2975 14.081 35.5398 14.1079 35.7821 14.1079C43.5091 14.1079 51.2362 14.1079 58.9632 14.1079C59.9863 14.1079 60.4709 14.4579 60.444 15.131C60.4171 15.7772 59.9324 16.1003 58.9632 16.1003C55.0324 16.1003 51.1554 16.1003 47.2784 16.1003Z" fill="url(#paint6_linear_3_23)"/>
<path d="M13.1396 58.4509C16.9627 58.4509 20.7858 58.4509 24.609 58.4509C24.7705 58.4509 24.932 58.4509 25.1205 58.4509C25.7667 58.4778 26.1974 58.9086 26.1974 59.447C26.1974 59.9855 25.7667 60.3894 25.1744 60.4163C25.0397 60.4163 24.8782 60.4163 24.7436 60.4163C17.0165 60.4163 9.28951 60.4163 1.56248 60.4163C1.50863 60.4163 1.48171 60.4163 1.42786 60.4163C0.485538 60.4163 0.000915527 60.0663 0.000915527 59.4201C0.000915527 58.8009 0.485538 58.4509 1.34709 58.4509C2.07402 58.4509 2.82788 58.4509 3.55481 58.4509C6.75871 58.4509 9.93567 58.4509 13.1396 58.4509Z" fill="url(#paint7_linear_3_23)"/>
<path d="M47.4132 58.4509C51.2633 58.4509 55.1403 58.4509 58.9903 58.4509C59.2057 58.4509 59.4211 58.424 59.6096 58.4779C60.1211 58.6125 60.4173 58.9356 60.3903 59.474C60.3634 59.9856 60.0672 60.2817 59.6096 60.4164C59.3942 60.4702 59.1518 60.4433 58.9095 60.4433C51.1825 60.4433 43.4555 60.4433 35.7284 60.4433C34.7053 60.4433 34.2207 60.0933 34.2476 59.4202C34.2746 58.774 34.7592 58.4509 35.7284 58.4509C39.6323 58.4509 43.5093 58.4509 47.4132 58.4509Z" fill="url(#paint8_linear_3_23)"/>
<path d="M12.0895 22.2925C12.0895 21.2963 12.0895 20.327 12.0895 19.3309C12.0895 18.6039 12.4934 18.1462 13.1126 18.1462C13.678 18.1732 14.0819 18.6039 14.0819 19.304C14.0819 21.1617 14.0819 23.0463 14.0819 24.904C14.0819 25.8464 14.4319 26.1964 15.3742 26.1964C16.2358 26.1964 17.0973 26.1964 17.9589 26.1964C18.6589 26.1964 19.1166 26.5733 19.1166 27.1656C19.1435 27.7579 18.6589 28.1618 17.9319 28.1887C16.9896 28.1887 16.0473 28.2156 15.105 28.1887C13.4088 28.1618 12.1434 26.8695 12.0895 25.1733C12.0626 24.204 12.0895 23.2348 12.0895 22.2925Z" fill="url(#paint9_linear_3_23)"/>
<path d="M48.3285 22.2925C48.3285 23.2348 48.3285 24.1771 48.3285 25.1194C48.3016 26.8425 47.0362 28.1349 45.3131 28.1887C44.3708 28.2156 43.4284 28.1887 42.4861 28.1887C41.7861 28.1887 41.3284 27.8118 41.3284 27.2195C41.3015 26.6271 41.7861 26.2233 42.513 26.1964C43.3207 26.1964 44.1015 26.1964 44.9092 26.1964C46.0669 26.1964 46.3631 25.9002 46.3631 24.7694C46.3631 22.9925 46.3631 21.2155 46.3631 19.4116C46.3631 18.6039 46.7131 18.1462 47.3323 18.1462C47.9516 18.1462 48.3285 18.6039 48.3285 19.4116C48.3285 20.354 48.3285 21.3232 48.3285 22.2925Z" fill="url(#paint10_linear_3_23)"/>
<path d="M12.0896 38.1775C12.0896 37.2083 12.0626 36.239 12.0896 35.2967C12.1165 33.6005 13.4088 32.3082 15.0781 32.2813C16.0473 32.2543 17.0165 32.2813 17.9589 32.2813C18.6589 32.2813 19.0897 32.6851 19.0897 33.2774C19.0897 33.8697 18.632 34.2467 17.9319 34.2736C17.0704 34.2736 16.2088 34.2736 15.3473 34.2736C14.378 34.2736 14.028 34.6236 14.028 35.6198C14.028 37.4775 14.028 39.3083 14.028 41.166C14.028 41.7583 13.8127 42.1891 13.1934 42.3237C12.5742 42.4583 12.0357 41.9737 12.0357 41.2468C12.0626 40.1968 12.0896 39.1737 12.0896 38.1775Z" fill="url(#paint11_linear_3_23)"/>
<path d="M48.3285 38.1776C48.3285 39.1469 48.3285 40.1161 48.3285 41.0584C48.3285 41.8123 47.9516 42.27 47.3592 42.27C46.74 42.27 46.3631 41.8123 46.3631 41.0315C46.3631 39.2007 46.3631 37.3969 46.3631 35.5661C46.3631 34.5699 46.0131 34.2468 45.0438 34.2199C44.1823 34.2199 43.3207 34.2199 42.4592 34.2199C41.7592 34.2199 41.3284 33.816 41.3015 33.2237C41.3015 32.6314 41.7592 32.2275 42.4322 32.2275C43.4015 32.2275 44.3707 32.2006 45.313 32.2275C46.9554 32.2545 48.2477 33.5468 48.3016 35.1891C48.3554 36.2122 48.3285 37.1815 48.3285 38.1776Z" fill="url(#paint12_linear_3_23)"/>
<path d="M2.15495 30.2351C2.15495 30.8005 1.72417 31.2044 1.10493 31.2313C0.485692 31.2313 0.0279927 30.8274 0.00106923 30.262C-0.0258542 29.6697 0.458768 29.239 1.10493 29.239C1.72417 29.239 2.15495 29.6428 2.15495 30.2351Z" fill="url(#paint13_linear_3_23)"/>
<path d="M6.1937 30.2078C6.1937 30.7732 5.76293 31.204 5.14369 31.204C4.49753 31.204 4.0129 30.7732 4.03983 30.1809C4.06675 29.6155 4.52445 29.2117 5.14369 29.2117C5.76293 29.2386 6.1937 29.6424 6.1937 30.2078Z" fill="url(#paint14_linear_3_23)"/>
<path d="M9.12796 29.2117C9.7472 29.2117 10.2049 29.5886 10.2318 30.1809C10.2588 30.7732 9.82797 31.1771 9.20873 31.204C8.56257 31.2309 8.07795 30.8002 8.05103 30.2078C8.05103 29.6694 8.50872 29.2386 9.12796 29.2117Z" fill="url(#paint15_linear_3_23)"/>
<path d="M51.2633 29.2117C51.8826 29.2117 52.3403 29.6155 52.3672 30.1809C52.3941 30.7732 51.9095 31.204 51.2633 31.204C50.6441 31.204 50.2133 30.8002 50.2133 30.2078C50.2133 29.6424 50.6441 29.2386 51.2633 29.2117Z" fill="url(#paint16_linear_3_23)"/>
<path d="M56.3787 30.2348C56.3518 30.8271 55.8672 31.2309 55.221 31.204C54.6018 31.1771 54.1979 30.7463 54.2248 30.154C54.2518 29.5886 54.7095 29.2117 55.3287 29.2117C55.9479 29.2386 56.4056 29.6694 56.3787 30.2348Z" fill="url(#paint17_linear_3_23)"/>
<path d="M59.3402 31.2042C58.721 31.2042 58.2633 30.8273 58.2633 30.235C58.2364 29.6427 58.6671 29.2388 59.2864 29.2119C59.9325 29.185 60.4172 29.6157 60.4172 30.2081C60.4172 30.7735 59.9595 31.2042 59.3402 31.2042Z" fill="url(#paint18_linear_3_23)"/>
<defs>
<linearGradient id="paint0_linear_3_23" x1="30.196" y1="20.1657" x2="30.196" y2="40.2777" gradientUnits="userSpaceOnUse">
<stop stop-color="#1CA7FB"/>
<stop offset="1" stop-color="#17FCD7"/>
</linearGradient>
<linearGradient id="paint1_linear_3_23" x1="13.0726" y1="0" x2="13.0726" y2="13.0848" gradientUnits="userSpaceOnUse">
<stop stop-color="#1CA7FB"/>
<stop offset="1" stop-color="#17FCD7"/>
</linearGradient>
<linearGradient id="paint2_linear_3_23" x1="47.3263" y1="0.0267944" x2="47.3263" y2="13.086" gradientUnits="userSpaceOnUse">
<stop stop-color="#1CA7FB"/>
<stop offset="1" stop-color="#17FCD7"/>
</linearGradient>
<linearGradient id="paint3_linear_3_23" x1="13.1204" y1="44.37" x2="13.1204" y2="57.4292" gradientUnits="userSpaceOnUse">
<stop stop-color="#1CA7FB"/>
<stop offset="1" stop-color="#17FCD7"/>
</linearGradient>
<linearGradient id="paint4_linear_3_23" x1="47.3595" y1="44.343" x2="47.3595" y2="57.4008" gradientUnits="userSpaceOnUse">
<stop stop-color="#1CA7FB"/>
<stop offset="1" stop-color="#17FCD7"/>
</linearGradient>
<linearGradient id="paint5_linear_3_23" x1="13.0728" y1="14.1012" x2="13.0728" y2="16.107" gradientUnits="userSpaceOnUse">
<stop stop-color="#1CA7FB"/>
<stop offset="1" stop-color="#17FCD7"/>
</linearGradient>
<linearGradient id="paint6_linear_3_23" x1="47.3723" y1="14.1012" x2="47.3723" y2="16.107" gradientUnits="userSpaceOnUse">
<stop stop-color="#1CA7FB"/>
<stop offset="1" stop-color="#17FCD7"/>
</linearGradient>
<linearGradient id="paint7_linear_3_23" x1="13.0992" y1="58.4509" x2="13.0992" y2="60.4163" gradientUnits="userSpaceOnUse">
<stop stop-color="#1CA7FB"/>
<stop offset="1" stop-color="#17FCD7"/>
</linearGradient>
<linearGradient id="paint8_linear_3_23" x1="47.3193" y1="58.4442" x2="47.3193" y2="60.45" gradientUnits="userSpaceOnUse">
<stop stop-color="#1CA7FB"/>
<stop offset="1" stop-color="#17FCD7"/>
</linearGradient>
<linearGradient id="paint9_linear_3_23" x1="15.5976" y1="18.1462" x2="15.5976" y2="28.2007" gradientUnits="userSpaceOnUse">
<stop stop-color="#1CA7FB"/>
<stop offset="1" stop-color="#17FCD7"/>
</linearGradient>
<linearGradient id="paint10_linear_3_23" x1="44.8279" y1="18.1462" x2="44.8279" y2="28.2007" gradientUnits="userSpaceOnUse">
<stop stop-color="#1CA7FB"/>
<stop offset="1" stop-color="#17FCD7"/>
</linearGradient>
<linearGradient id="paint11_linear_3_23" x1="15.5627" y1="32.2693" x2="15.5627" y2="42.3462" gradientUnits="userSpaceOnUse">
<stop stop-color="#1CA7FB"/>
<stop offset="1" stop-color="#17FCD7"/>
</linearGradient>
<linearGradient id="paint12_linear_3_23" x1="44.8183" y1="32.2156" x2="44.8183" y2="42.27" gradientUnits="userSpaceOnUse">
<stop stop-color="#1CA7FB"/>
<stop offset="1" stop-color="#17FCD7"/>
</linearGradient>
<linearGradient id="paint13_linear_3_23" x1="1.07747" y1="29.239" x2="1.07747" y2="31.2313" gradientUnits="userSpaceOnUse">
<stop stop-color="#1CA7FB"/>
<stop offset="1" stop-color="#17FCD7"/>
</linearGradient>
<linearGradient id="paint14_linear_3_23" x1="5.11623" y1="29.2117" x2="5.11623" y2="31.204" gradientUnits="userSpaceOnUse">
<stop stop-color="#1CA7FB"/>
<stop offset="1" stop-color="#17FCD7"/>
</linearGradient>
<linearGradient id="paint15_linear_3_23" x1="9.14202" y1="29.2117" x2="9.14202" y2="31.2052" gradientUnits="userSpaceOnUse">
<stop stop-color="#1CA7FB"/>
<stop offset="1" stop-color="#17FCD7"/>
</linearGradient>
<linearGradient id="paint16_linear_3_23" x1="51.2908" y1="29.2117" x2="51.2908" y2="31.204" gradientUnits="userSpaceOnUse">
<stop stop-color="#1CA7FB"/>
<stop offset="1" stop-color="#17FCD7"/>
</linearGradient>
<linearGradient id="paint17_linear_3_23" x1="55.3017" y1="29.2117" x2="55.3017" y2="31.2053" gradientUnits="userSpaceOnUse">
<stop stop-color="#1CA7FB"/>
<stop offset="1" stop-color="#17FCD7"/>
</linearGradient>
<linearGradient id="paint18_linear_3_23" x1="59.3396" y1="29.2107" x2="59.3396" y2="31.2042" gradientUnits="userSpaceOnUse">
<stop stop-color="#1CA7FB"/>
<stop offset="1" stop-color="#17FCD7"/>
</linearGradient>
</defs>
</svg>
