<svg width="61" height="69" viewBox="0 0 61 69" fill="none" xmlns="http://www.w3.org/2000/svg">
<path d="M40.6924 34.5217C40.6924 36.1711 40.6754 37.8224 40.6999 39.4717C40.7112 40.1964 40.4414 40.6512 39.762 40.955C36.9671 42.2006 34.193 43.4933 31.3962 44.7294C31.0961 44.8615 30.6357 44.8539 30.3337 44.7218C27.537 43.4838 24.7628 42.1911 21.9717 40.9437C21.3225 40.6531 21.0716 40.2285 21.0772 39.5208C21.0999 36.1258 21.0923 32.7308 21.0734 29.3377C21.0697 28.7376 21.3037 28.3677 21.8396 28.1261C24.5402 26.9014 27.2426 25.6823 29.9261 24.4216C30.581 24.114 31.1377 24.0914 31.8001 24.4028C34.5044 25.6728 37.2294 26.9032 39.9507 28.1393C40.4848 28.3828 40.7226 28.7734 40.7169 29.3622C40.7037 31.0833 40.7112 32.8044 40.7112 34.5236C40.7037 34.5217 40.698 34.5217 40.6924 34.5217ZM38.6391 30.7927C38.3127 30.9153 38.1145 30.9795 37.9258 31.0644C36.1235 31.8778 34.3289 32.7119 32.5153 33.5008C32.0567 33.7008 31.8982 33.9518 31.902 34.45C31.9284 36.8089 31.9133 39.1679 31.9152 41.525C31.9152 41.7231 31.9454 41.9213 31.9661 42.1892C32.2586 42.0703 32.4757 41.9911 32.687 41.8948C34.1892 41.2155 35.6574 40.4455 37.2011 39.8831C38.3598 39.4623 38.7354 38.8452 38.6712 37.6185C38.5561 35.3898 38.6391 33.1479 38.6391 30.7927ZM23.2399 30.7965C23.1871 30.9588 23.1474 31.0229 23.1474 31.089C23.1418 33.6593 23.1286 36.2296 23.1606 38.7999C23.1625 39.015 23.4381 39.3208 23.6607 39.4264C25.3856 40.2398 27.1275 41.0173 28.8636 41.8024C29.1561 41.9345 29.4562 42.0515 29.7317 42.1666C29.794 42.0873 29.8204 42.0703 29.8204 42.0534C29.8355 39.4151 29.8525 36.775 29.8469 34.1367C29.8469 33.9744 29.6846 33.731 29.5355 33.6631C27.4671 32.7025 25.3875 31.7683 23.2399 30.7965ZM24.676 29.1018C24.7817 29.1924 24.827 29.2509 24.8855 29.2792C26.7689 30.1378 28.6485 31.0078 30.5489 31.8325C30.7829 31.9344 31.1528 31.8665 31.4075 31.757C32.5983 31.2494 33.7703 30.6983 34.9478 30.1643C35.6461 29.8472 36.3443 29.5283 37.1785 29.149C35.0705 28.1771 33.1079 27.2712 31.1396 26.3767C31.0056 26.3163 30.8018 26.3012 30.6734 26.3597C28.6825 27.258 26.6991 28.1733 24.676 29.1018Z" fill="url(#paint0_linear_3_35)"/>
<path d="M50.2395 45.9167C50.2395 45.4109 50.2376 45.0882 50.2395 44.7674C50.2489 43.7767 50.549 43.4728 51.5605 43.4596C52.3626 43.4483 53.1627 43.4596 53.9648 43.4521C54.1252 43.4502 54.2856 43.4124 54.5026 43.3841C54.5026 43.0822 54.5026 42.8029 54.5026 42.5236C54.5026 37.9265 54.5026 33.3293 54.5026 28.7322C54.5026 28.5209 54.4781 28.3001 54.5234 28.0981C54.6385 27.5905 54.9329 27.2565 55.4934 27.2395C56.0859 27.2225 56.4162 27.5452 56.5407 28.0887C56.5917 28.3133 56.5691 28.5586 56.5691 28.7926C56.5709 33.3671 56.5709 37.9397 56.5709 42.5141C56.5709 42.7953 56.5709 43.0746 56.5709 43.4596C57.5372 43.4596 58.4487 43.4558 59.3602 43.4596C60.5566 43.4653 60.8303 43.7351 60.8303 44.9052C60.8321 47.5227 60.834 50.1383 60.8284 52.7558C60.8265 53.7201 60.4774 54.0806 59.5111 54.0843C56.8465 54.0919 54.1837 54.0938 51.519 54.0843C50.5962 54.0806 50.2433 53.7126 50.2395 52.7916C50.232 51.5895 50.2055 50.3855 50.2508 49.1853C50.2735 48.5984 50.0885 48.2511 49.5809 47.9341C47.2201 46.4659 44.8894 44.9524 42.5456 43.4558C42.4852 43.4181 42.4248 43.3822 42.3663 43.3426C41.7397 42.9142 41.5737 42.3726 41.9058 41.8461C42.2323 41.329 42.8362 41.2214 43.4552 41.614C45.0894 42.6444 46.7124 43.6917 48.341 44.7297C48.9185 45.0882 49.4941 45.4468 50.2395 45.9167ZM58.7374 51.9915C58.7374 49.8043 58.7374 47.6925 58.7374 45.5676C58.6091 45.5374 58.5223 45.4978 58.4336 45.4959C56.5483 45.4902 54.663 45.4977 52.7777 45.4827C52.3418 45.4789 52.2814 45.7035 52.2833 46.0564C52.2909 47.5642 52.2871 49.0739 52.2871 50.5818C52.2871 51.0422 52.2871 51.5027 52.2871 51.9915C54.4913 51.9915 56.5804 51.9915 58.7374 51.9915Z" fill="url(#paint1_linear_3_35)"/>
<path d="M4.26829 25.0974C3.15864 25.0974 2.17165 25.1049 1.18467 25.0955C0.37696 25.088 0.00896401 24.7369 0.00707685 23.9387C-0.00235895 21.1796 -0.00235895 18.4225 0.00707685 15.6635C0.00896401 14.8728 0.384509 14.5142 1.1941 14.5104C3.9286 14.5029 6.66309 14.5029 9.39948 14.5104C10.2449 14.5123 10.5884 14.8652 10.594 15.7201C10.6035 17.1355 10.6148 18.5489 10.5865 19.9643C10.5771 20.421 10.7243 20.6909 11.1149 20.9343C13.2304 22.261 15.3289 23.616 17.4331 24.9596C17.6124 25.0747 17.7955 25.1804 17.9672 25.305C18.539 25.7164 18.6786 26.2618 18.3503 26.7675C18.0276 27.2639 17.4369 27.3865 16.8575 27.0242C15.361 26.0844 13.8796 25.1219 12.3906 24.1689C11.8415 23.8179 11.2885 23.4725 10.6526 23.0706C10.6261 23.3631 10.6016 23.5386 10.5978 23.716C10.5733 24.8445 10.311 25.0974 9.15226 25.0993C8.24076 25.1012 7.32737 25.0993 6.33095 25.0993C6.33095 25.4654 6.33095 25.7409 6.33095 26.0164C6.33095 30.6381 6.33095 35.2579 6.33095 39.8795C6.33095 40.0909 6.35171 40.3079 6.31774 40.5155C6.23093 41.0382 5.93465 41.3742 5.3836 41.4119C4.80424 41.4515 4.43813 41.1515 4.30603 40.6023C4.24564 40.3551 4.26829 40.0871 4.26829 39.8286C4.2664 35.2314 4.2664 30.6343 4.2664 26.0372C4.26829 25.756 4.26829 25.4786 4.26829 25.0974ZM2.09805 23.0121C4.27772 23.0121 6.37058 23.0121 8.51817 23.0121C8.51817 20.8664 8.51817 18.7565 8.51817 16.6184C6.35737 16.6184 4.23243 16.6184 2.09805 16.6184C2.09805 18.7735 2.09805 20.8626 2.09805 23.0121Z" fill="url(#paint2_linear_3_35)"/>
<path d="M50.2017 23.0838C49.7262 23.3763 49.3468 23.6008 48.9751 23.8386C47.3653 24.8633 45.7594 25.8956 44.1477 26.9185C43.4268 27.3752 42.8324 27.3091 42.4814 26.7543C42.1285 26.1957 42.3209 25.6616 43.0664 25.1842C45.2687 23.7707 47.4672 22.3534 49.6828 20.9626C50.0885 20.7078 50.1923 20.4115 50.2659 19.9473C50.5093 18.4244 49.8866 17.6091 48.5316 16.892C45.348 15.2086 42.2681 13.3234 39.1467 11.5211C39.0241 11.4513 38.8939 11.3909 38.7787 11.3098C38.2598 10.9474 38.1069 10.3794 38.4277 9.89627C38.7655 9.39051 39.2468 9.26219 39.7808 9.54526C40.5093 9.93024 41.217 10.3567 41.9322 10.7681C44.4836 12.2382 47.0332 13.7121 49.5865 15.1822C49.7677 15.286 49.9583 15.3766 50.1847 15.4936C50.3829 14.6651 50.9358 14.4858 51.6869 14.4953C54.2818 14.5236 56.8747 14.5047 59.4696 14.5066C60.5094 14.5085 60.8321 14.8218 60.8321 15.8389C60.8359 18.481 60.8359 21.123 60.8321 23.7631C60.8302 24.786 60.5151 25.0955 59.4752 25.0955C56.9049 25.0974 54.3327 25.0974 51.7624 25.0955C50.481 25.0955 50.2716 24.8841 50.2395 23.5725C50.2357 23.4593 50.2206 23.3423 50.2017 23.0838ZM52.3323 23.0045C54.4837 23.0045 56.5898 23.0045 58.7393 23.0045C58.7393 20.8531 58.7393 18.7471 58.7393 16.624C56.5709 16.624 54.4497 16.624 52.3323 16.624C52.3323 18.7848 52.3323 20.8739 52.3323 23.0045Z" fill="url(#paint3_linear_3_35)"/>
<path d="M10.596 45.922C10.9508 45.705 11.1659 45.5766 11.3754 45.4426C13.3418 44.1858 15.295 42.9082 17.2841 41.691C17.62 41.4853 18.1654 41.3834 18.522 41.5041C19.3109 41.774 19.2599 42.8195 18.4503 43.346C16.7123 44.4764 14.9591 45.5842 13.2116 46.7014C12.5567 47.1203 11.9151 47.5657 11.2395 47.9469C10.7507 48.2224 10.6356 48.5848 10.5677 49.132C10.4205 50.3172 10.9092 50.923 11.9283 51.4797C15.1516 53.2442 18.3088 55.1275 21.4924 56.9656C21.6963 57.0826 21.9076 57.1921 22.1001 57.3261C22.6304 57.6941 22.77 58.2414 22.4681 58.7358C22.1718 59.2227 21.6132 59.3793 21.049 59.066C19.9355 58.4508 18.841 57.8035 17.7389 57.1676C15.4139 55.8258 13.0889 54.4821 10.696 53.0988C10.394 54.0613 9.6505 54.099 8.83714 54.0915C6.38383 54.0688 3.93241 54.0858 1.4791 54.0821C0.326043 54.0802 0.00522514 53.7612 0.00333798 52.6214C0.00145082 50.0266 0.00145082 47.4317 0.00333798 44.8387C0.00522514 43.7687 0.309058 43.4611 1.40172 43.4592C3.97204 43.4517 6.54424 43.4536 9.11455 43.4573C10.3525 43.4592 10.5941 43.7102 10.5979 44.9576C10.5979 45.2143 10.596 45.4709 10.596 45.922ZM8.57105 51.9779C8.57105 49.985 8.55406 48.0582 8.58237 46.1315C8.58992 45.5785 8.36723 45.4691 7.87091 45.4747C6.15359 45.4993 4.43439 45.4823 2.71708 45.486C2.51515 45.486 2.31322 45.52 2.10186 45.5389C2.10186 47.7167 2.10186 49.8246 2.10186 51.9779C4.24568 51.9779 6.34986 51.9779 8.57105 51.9779Z" fill="url(#paint4_linear_3_35)"/>
<path d="M29.4146 57.9887C29.4146 57.6282 29.4146 57.3527 29.4146 57.0772C29.4146 54.4842 29.4071 51.8913 29.4203 49.2983C29.4241 48.3547 30.2129 47.7867 30.8904 48.2755C31.1867 48.4887 31.398 49.0133 31.4056 49.4002C31.4509 51.946 31.4301 54.4918 31.4301 57.0375C31.4301 57.315 31.4301 57.5943 31.4301 57.9887C32.4341 57.9887 33.3664 58.0094 34.2967 57.9811C35.012 57.9604 35.5479 58.1698 35.7857 58.9983C36.0612 58.8511 36.3028 58.7322 36.5349 58.5982C39.6336 56.8092 42.7323 55.0164 45.8311 53.2255C46.0141 53.1198 46.1934 52.9896 46.3915 52.9273C46.9181 52.7575 47.3823 52.8594 47.6673 53.3727C47.9503 53.8841 47.8126 54.3295 47.3691 54.6824C47.2049 54.8126 47.0143 54.9126 46.8294 55.0183C43.3626 57.0206 39.9035 59.0342 36.4217 61.0081C35.8951 61.3063 35.7178 61.6366 35.731 62.2291C35.7725 63.8785 35.748 65.5298 35.7442 67.1792C35.7404 68.2624 35.4271 68.6058 34.3779 68.6115C31.7377 68.6228 29.0976 68.6228 26.4575 68.6115C25.4327 68.6077 25.1081 68.2699 25.1062 67.2377C25.0987 64.622 25.0987 62.0046 25.1062 59.389C25.11 58.3303 25.4554 57.9943 26.5122 57.9906C27.4444 57.9849 28.3824 57.9887 29.4146 57.9887ZM27.1538 60.074C27.1538 62.1725 27.1425 64.1937 27.1802 66.2148C27.1821 66.3413 27.5633 66.5658 27.7709 66.5696C29.5147 66.5979 31.2603 66.5621 33.004 66.5998C33.5985 66.613 33.7042 66.3771 33.6947 65.8544C33.6683 64.1106 33.6853 62.365 33.6796 60.6213C33.6796 60.4439 33.6381 60.2665 33.6155 60.0759C31.4641 60.074 29.3693 60.074 27.1538 60.074Z" fill="url(#paint5_linear_3_35)"/>
<path d="M31.4283 10.6304C31.4283 11.0644 31.4283 11.389 31.4283 11.7155C31.4265 14.1688 31.4359 16.6202 31.417 19.0735C31.4114 19.785 31.0113 20.1643 30.3829 20.1454C29.7941 20.1284 29.4525 19.751 29.4185 19.0716C29.4091 18.8829 29.4147 18.6942 29.4147 18.5055C29.4147 16.1937 29.4147 13.8838 29.4147 11.5721C29.4147 11.2947 29.4147 11.0172 29.4147 10.6304C28.4278 10.6304 27.5182 10.6096 26.6085 10.636C25.8763 10.6568 25.3007 10.4756 25.0573 9.61508C24.7761 9.76794 24.5327 9.8906 24.2987 10.0265C21.1962 11.8155 18.0993 13.6121 14.9893 15.386C14.6987 15.5521 14.2892 15.7351 14.0155 15.6502C13.6909 15.5483 13.3342 15.2124 13.2097 14.8935C13.0172 14.4009 13.3192 13.9952 13.7758 13.7329C14.9817 13.0403 16.1839 12.3458 17.3879 11.6494C19.7544 10.2831 22.1152 8.90551 24.493 7.55807C24.9346 7.30708 25.1233 7.03156 25.1139 6.50881C25.0799 4.81226 25.0969 3.11381 25.1026 1.41537C25.1064 0.330253 25.4177 0.00754864 26.4859 0.00566148C29.1034 -0.00188716 31.7209 -0.00188716 34.3384 0.00566148C35.4084 0.00754864 35.7386 0.339689 35.7405 1.39839C35.7462 4.01588 35.7462 6.63337 35.7405 9.25086C35.7386 10.2567 35.3763 10.6172 34.3761 10.6266C33.4363 10.6379 32.4946 10.6304 31.4283 10.6304ZM33.6854 8.52807C33.6854 6.45409 33.6948 4.4537 33.6646 2.45331C33.6627 2.31177 33.357 2.05512 33.191 2.05134C31.3529 2.02304 29.5129 2.04379 27.6748 2.02492C27.2011 2.01926 27.1426 2.25704 27.1464 2.64202C27.1577 4.08004 27.1502 5.51805 27.1502 6.95607C27.1502 7.46749 27.1502 7.97702 27.1502 8.52619C29.3562 8.52807 31.468 8.52807 33.6854 8.52807Z" fill="url(#paint6_linear_3_35)"/>
<defs>
<linearGradient id="paint0_linear_3_35" x1="30.8952" y1="24.1798" x2="30.8952" y2="44.8247" gradientUnits="userSpaceOnUse">
<stop stop-color="#1CA7FB"/>
<stop offset="1" stop-color="#17FCD7"/>
</linearGradient>
<linearGradient id="paint1_linear_3_35" x1="51.2852" y1="27.2388" x2="51.2852" y2="54.0907" gradientUnits="userSpaceOnUse">
<stop stop-color="#1CA7FB"/>
<stop offset="1" stop-color="#17FCD7"/>
</linearGradient>
<linearGradient id="paint2_linear_3_35" x1="9.26232" y1="14.5048" x2="9.26232" y2="41.4154" gradientUnits="userSpaceOnUse">
<stop stop-color="#1CA7FB"/>
<stop offset="1" stop-color="#17FCD7"/>
</linearGradient>
<linearGradient id="paint3_linear_3_35" x1="49.5476" y1="9.39777" x2="49.5476" y2="27.2206" gradientUnits="userSpaceOnUse">
<stop stop-color="#1CA7FB"/>
<stop offset="1" stop-color="#17FCD7"/>
</linearGradient>
<linearGradient id="paint4_linear_3_35" x1="11.3135" y1="41.4523" x2="11.3135" y2="59.2283" gradientUnits="userSpaceOnUse">
<stop stop-color="#1CA7FB"/>
<stop offset="1" stop-color="#17FCD7"/>
</linearGradient>
<linearGradient id="paint5_linear_3_35" x1="36.4577" y1="48.0964" x2="36.4577" y2="68.62" gradientUnits="userSpaceOnUse">
<stop stop-color="#1CA7FB"/>
<stop offset="1" stop-color="#17FCD7"/>
</linearGradient>
<linearGradient id="paint6_linear_3_35" x1="24.4477" y1="0" x2="24.4477" y2="20.1461" gradientUnits="userSpaceOnUse">
<stop stop-color="#1CA7FB"/>
<stop offset="1" stop-color="#17FCD7"/>
</linearGradient>
</defs>
</svg>
