<svg width="65" height="58" viewBox="0 0 65 58" fill="none" xmlns="http://www.w3.org/2000/svg">
<path d="M62.1277 13.6568C42.2513 13.6568 22.4456 13.6568 2.57826 13.6568C2.5651 13.914 2.54282 14.1519 2.54282 14.3889C2.54079 27.2497 2.54079 40.1095 2.54181 52.9703C2.54181 54.628 3.1008 55.1819 4.77472 55.1819C23.1545 55.1829 41.5333 55.1829 59.9131 55.1819C61.5657 55.1819 62.1267 54.6118 62.1277 52.951C62.1277 48.709 62.1277 44.4669 62.1288 40.2259C62.1288 40.0021 62.1156 39.7733 62.1541 39.5545C62.2553 38.9702 62.7414 38.549 63.3207 38.5307C63.9607 38.5105 64.3931 38.8092 64.5814 39.4239C64.6391 39.6133 64.6594 39.8209 64.6604 40.0193C64.6645 44.4862 64.6786 48.952 64.6553 53.4189C64.6442 55.5141 63.3085 57.1596 61.3257 57.5951C60.9369 57.6801 60.5237 57.6862 60.1227 57.6862C41.6082 57.6903 23.0948 57.6913 4.58029 57.6882C1.73067 57.6882 0.0273717 55.9758 0.0273717 53.1171C0.0253464 36.9581 0.0537009 20.798 2.98805e-05 4.63901C-0.00908406 1.85723 2.06788 -0.00606115 4.61472 1.48155e-05C23.0836 0.0445719 41.5525 0.023306 60.0224 0.0243187C62.9379 0.0243187 64.6624 1.7509 64.6634 4.67445C64.6655 11.4076 64.6645 18.1408 64.6645 24.874C64.6645 25.0087 64.6695 25.1434 64.6614 25.278C64.6148 26.0953 64.0903 26.6472 63.3743 26.637C62.6584 26.6269 62.1338 26.0618 62.1318 25.2456C62.1237 21.677 62.1277 18.1084 62.1277 14.5398C62.1277 14.2714 62.1277 14.0031 62.1277 13.6568ZM62.1277 11.0704C62.1277 8.85978 62.1308 6.7099 62.1267 4.56002C62.1247 3.17572 61.508 2.56002 60.1045 2.56002C41.591 2.55799 23.0786 2.55799 4.5651 2.56002C3.15345 2.56002 2.55092 3.15546 2.54383 4.55901C2.53371 6.5337 2.53978 8.5094 2.54383 10.4841C2.54383 10.6745 2.57928 10.8648 2.59953 11.0704C22.4507 11.0704 42.2391 11.0704 62.1277 11.0704Z" fill="url(#paint0_linear_4_48)"/>
<path d="M48.4569 35.9829C47.9303 35.4765 47.4239 35.0026 46.9338 34.5145C45.2498 32.8365 43.5536 31.1697 41.8958 29.4654C40.2877 27.8117 40.3161 25.3094 41.9141 23.7226C43.5171 22.1307 46.0153 22.1145 47.6579 23.7398C50.8143 26.8638 53.9556 30.0031 57.0776 33.1616C58.6614 34.7636 58.7252 37.1899 57.1516 38.8031C53.988 42.0457 50.7839 45.2507 47.5414 48.4143C45.9434 49.9738 43.4452 49.8695 41.8989 48.3171C40.3282 46.7404 40.2816 44.2603 41.8665 42.6239C43.8482 40.5783 45.8847 38.5854 47.8969 36.5692C48.066 36.3991 48.23 36.2208 48.4569 35.9829ZM44.8396 24.959C43.9424 25.0735 43.1941 25.7276 43.2852 26.5469C43.3389 27.0319 43.6072 27.5798 43.9505 27.9322C46.2037 30.2482 48.5044 32.5175 50.788 34.8041C51.7358 35.753 51.7389 36.3049 50.8032 37.2416C48.4882 39.5596 46.1682 41.8735 43.8553 44.1945C43.112 44.9409 43.0482 45.8735 43.6741 46.5206C44.3222 47.191 45.2417 47.1626 45.9971 46.4102C49.0644 43.353 52.1277 40.2907 55.1829 37.2213C55.9333 36.4669 55.9465 35.6041 55.1961 34.8487C52.1288 31.7601 49.0513 28.6806 45.9566 25.6183C45.6579 25.3236 45.2153 25.1757 44.8396 24.959Z" fill="url(#paint1_linear_4_48)"/>
<path d="M16.1145 35.9341C18.4457 38.2612 20.6209 40.399 22.7566 42.5742C24.55 44.401 24.2958 47.2952 22.2584 48.7554C20.629 49.923 18.4558 49.7458 16.9753 48.2785C14.3302 45.6577 11.7064 43.0167 9.07453 40.3828C8.55098 39.8592 8.01427 39.3478 7.51098 38.8071C6.04059 37.2283 5.95958 34.8648 7.46338 33.3215C10.6563 30.0445 13.8918 26.8091 17.1667 23.6141C18.7627 22.0566 21.2568 22.1863 22.8001 23.767C24.3292 25.3326 24.3718 27.8106 22.8184 29.4156C20.8376 31.4622 18.8021 33.4552 16.7819 35.4643C16.6087 35.6374 16.3778 35.7519 16.1145 35.9341ZM8.76161 36.0607C9.0725 36.5326 9.28415 37.0076 9.62643 37.3529C12.5773 40.3372 15.5505 43.2982 18.5206 46.2633C18.6948 46.4364 18.873 46.6157 19.0786 46.7453C20.0791 47.3762 21.4634 46.6714 21.4016 45.4977C21.3773 45.0207 21.0644 44.4699 20.7171 44.1144C18.4619 41.7995 16.1611 39.5301 13.8766 37.2445C12.9388 36.3058 12.9399 35.7417 13.8766 34.805C16.2087 32.4719 18.547 30.1448 20.871 27.8025C21.5981 27.0693 21.6234 26.1741 20.9865 25.527C20.3566 24.888 19.4199 24.9022 18.712 25.607C15.6264 28.6784 12.5459 31.7549 9.48364 34.8506C9.18896 35.1503 9.03706 35.5898 8.76161 36.0607Z" fill="url(#paint2_linear_4_48)"/>
<path d="M38.6908 27.4968C38.4649 28.5226 38.1692 29.9008 37.8573 31.275C36.787 35.992 35.7095 40.7079 34.6361 45.4249C34.0092 48.1824 31.6052 49.6376 29.1596 48.7363C27.2396 48.0284 26.1469 46.0396 26.6138 43.9586C27.9383 38.0588 29.2831 32.1631 30.6432 26.2714C31.1181 24.2147 33.029 22.8527 35.0178 23.0816C37.1181 23.3236 38.6897 25.0562 38.6908 27.4968ZM36.15 27.3449C36.1419 26.3484 35.5748 25.7013 34.8133 25.6122C33.9728 25.514 33.2872 26.0162 33.0756 26.9428C31.751 32.7474 30.4335 38.553 29.1221 44.3596C28.8801 45.431 29.3388 46.2208 30.2766 46.4274C31.1475 46.6188 31.8806 46.072 32.1237 45.0127C33.2437 40.1256 34.3566 35.2375 35.4705 30.3494C35.7135 29.2821 35.9535 28.2137 36.15 27.3449Z" fill="url(#paint3_linear_4_48)"/>
<path d="M63.3885 34.0052C62.7009 34.0042 62.1409 33.4563 62.1318 32.7758C62.1227 32.0943 62.6695 31.5343 63.3571 31.5201C64.0771 31.5049 64.6634 32.0741 64.6523 32.7789C64.6422 33.4543 64.0741 34.0062 63.3885 34.0052Z" fill="url(#paint4_linear_4_48)"/>
<path d="M39.8391 5.55628C43.1373 5.55628 46.4356 5.55628 49.7338 5.5573C49.9576 5.5573 50.1864 5.54616 50.4052 5.58464C51.0513 5.69704 51.4968 6.2378 51.4796 6.85755C51.4624 7.48034 50.9956 7.99173 50.3454 8.07983C50.147 8.10616 49.9424 8.09502 49.7409 8.09502C43.1221 8.09603 36.5034 8.09705 29.8846 8.09198C29.597 8.09198 29.2942 8.08287 29.0249 7.99781C28.474 7.82464 28.1884 7.41046 28.1874 6.83122C28.1854 6.25198 28.4689 5.83679 29.0188 5.66059C29.2882 5.57451 29.591 5.56236 29.8785 5.56135C33.198 5.55325 36.5186 5.55628 39.8391 5.55628Z" fill="url(#paint5_linear_4_48)"/>
<path d="M22.3859 5.56346C22.5652 5.56346 22.7464 5.54725 22.9237 5.5665C23.6366 5.64244 24.151 6.20143 24.1277 6.8627C24.1064 7.50372 23.6032 8.02625 22.9196 8.08498C22.5854 8.11334 22.2472 8.1022 21.912 8.09308C21.0766 8.07081 20.5358 7.58777 20.5176 6.85966C20.4983 6.10321 21.0502 5.58877 21.9161 5.55839C22.073 5.55333 22.23 5.55738 22.387 5.55738C22.3859 5.55941 22.3859 5.56143 22.3859 5.56346Z" fill="url(#paint6_linear_4_48)"/>
<path d="M9.8492 8.09319C9.69224 8.09319 9.53528 8.10028 9.37933 8.09218C8.60971 8.05269 8.073 7.54433 8.06084 6.84762C8.04869 6.15091 8.57629 5.61015 9.33679 5.56255C9.67097 5.54129 10.0082 5.54433 10.3434 5.56154C11.1333 5.60104 11.6416 6.09218 11.6507 6.8061C11.6608 7.54939 11.1383 8.05572 10.3181 8.09319C10.1631 8.09927 10.0062 8.09319 9.8492 8.09319Z" fill="url(#paint7_linear_4_48)"/>
<path d="M16.0548 8.08686C14.8902 8.09294 14.3383 7.71522 14.3019 6.89294C14.2654 6.07268 14.8203 5.57344 15.7874 5.55623C17.2396 5.5299 17.8917 5.92382 17.8907 6.82712C17.8907 7.47522 17.4047 8.00788 16.7262 8.08383C16.5054 8.10813 16.2786 8.08686 16.0548 8.08686Z" fill="url(#paint8_linear_4_48)"/>
<path d="M55.3419 8.09025C54.6532 8.08418 54.0649 7.46747 54.0922 6.78291C54.1196 6.1186 54.7059 5.55658 55.3641 5.56366C56.0598 5.57177 56.63 6.17329 56.6046 6.87202C56.5813 7.54443 56.0082 8.09633 55.3419 8.09025Z" fill="url(#paint9_linear_4_48)"/>
<defs>
<linearGradient id="paint0_linear_4_48" x1="32.3342" y1="0" x2="32.3342" y2="57.69" gradientUnits="userSpaceOnUse">
<stop stop-color="#1CA7FB"/>
<stop offset="1" stop-color="#17FCD7"/>
</linearGradient>
<linearGradient id="paint1_linear_4_48" x1="49.4992" y1="22.5247" x2="49.4992" y2="49.5339" gradientUnits="userSpaceOnUse">
<stop stop-color="#1CA7FB"/>
<stop offset="1" stop-color="#17FCD7"/>
</linearGradient>
<linearGradient id="paint2_linear_4_48" x1="15.1683" y1="22.5114" x2="15.1683" y2="49.5203" gradientUnits="userSpaceOnUse">
<stop stop-color="#1CA7FB"/>
<stop offset="1" stop-color="#17FCD7"/>
</linearGradient>
<linearGradient id="paint3_linear_4_48" x1="32.5986" y1="23.0565" x2="32.5986" y2="49.0027" gradientUnits="userSpaceOnUse">
<stop stop-color="#1CA7FB"/>
<stop offset="1" stop-color="#17FCD7"/>
</linearGradient>
<linearGradient id="paint4_linear_4_48" x1="63.3921" y1="31.5198" x2="63.3921" y2="34.0052" gradientUnits="userSpaceOnUse">
<stop stop-color="#1CA7FB"/>
<stop offset="1" stop-color="#17FCD7"/>
</linearGradient>
<linearGradient id="paint5_linear_4_48" x1="39.8337" y1="5.55573" x2="39.8337" y2="8.09736" gradientUnits="userSpaceOnUse">
<stop stop-color="#1CA7FB"/>
<stop offset="1" stop-color="#17FCD7"/>
</linearGradient>
<linearGradient id="paint6_linear_4_48" x1="22.3228" y1="5.55585" x2="22.3228" y2="8.10311" gradientUnits="userSpaceOnUse">
<stop stop-color="#1CA7FB"/>
<stop offset="1" stop-color="#17FCD7"/>
</linearGradient>
<linearGradient id="paint7_linear_4_48" x1="9.85575" y1="5.54761" x2="9.85575" y2="8.09606" gradientUnits="userSpaceOnUse">
<stop stop-color="#1CA7FB"/>
<stop offset="1" stop-color="#17FCD7"/>
</linearGradient>
<linearGradient id="paint8_linear_4_48" x1="16.0954" y1="5.55499" x2="16.0954" y2="8.09548" gradientUnits="userSpaceOnUse">
<stop stop-color="#1CA7FB"/>
<stop offset="1" stop-color="#17FCD7"/>
</linearGradient>
<linearGradient id="paint9_linear_4_48" x1="55.3484" y1="5.5636" x2="55.3484" y2="8.0903" gradientUnits="userSpaceOnUse">
<stop stop-color="#1CA7FB"/>
<stop offset="1" stop-color="#17FCD7"/>
</linearGradient>
</defs>
</svg>
