<svg width="61" height="62" viewBox="0 0 61 62" fill="none" xmlns="http://www.w3.org/2000/svg">
<path d="M53.9112 47.5282C53.9112 49.1591 53.9129 50.7029 53.9112 52.2484C53.9079 54.4284 52.5884 55.7663 50.405 55.778C47.8566 55.7914 45.3081 55.7814 42.7596 55.7814C42.5319 55.7814 42.3059 55.7814 42.0112 55.7814C41.9961 56.0443 41.9743 56.2636 41.9743 56.4829C41.971 57.7371 41.9794 58.9912 41.971 60.2437C41.966 61.0357 41.6981 61.332 40.9312 61.3337C35.9598 61.3421 30.9868 61.3421 26.0155 61.3337C25.2486 61.332 24.979 61.0357 24.9757 60.2454C24.969 58.7853 24.974 57.3269 24.974 55.7814C24.6559 55.7814 24.3913 55.7814 24.1268 55.7814C17.2751 55.7814 10.4234 55.7847 3.57 55.7797C1.69298 55.778 0.395312 54.7901 0.0621043 53.1207C0.00517422 52.8378 0.00349981 52.5397 0.00349981 52.2484C0.000150982 38.7509 -0.00152343 25.2518 0.00182539 11.7544C0.00182539 9.66806 1.35308 8.29336 3.4327 8.26155C4.43232 8.24648 5.43362 8.2582 6.51697 8.2582C6.51697 7.47123 6.51697 6.72611 6.51697 5.981C6.51697 5.06175 6.50357 4.1425 6.52199 3.22324C6.55548 1.54381 7.79454 0.210976 9.47231 0.0401859C9.74189 0.0133953 10.0148 0.00669765 10.2861 0.00669765C25.7443 0.00502324 41.2041 0.00669765 56.6623 0C57.6535 0 58.5795 0.150697 59.338 0.845578C60.0865 1.53376 60.4331 2.39441 60.4314 3.41245C60.4247 8.15606 60.4297 12.898 60.4297 17.6416C60.4297 26.3753 60.4297 35.1108 60.4297 43.8445C60.4297 46.2255 59.1387 47.5165 56.7527 47.5265C55.8368 47.5315 54.9209 47.5282 53.9112 47.5282ZM8.14952 12.0909C8.14952 12.3069 8.14952 12.4308 8.14952 12.5531C8.14952 23.0634 8.14785 33.572 8.15119 44.0823C8.15119 45.256 8.78412 45.8923 9.98468 45.894C15.0615 45.9023 20.1366 45.899 25.2135 45.8956C25.334 45.8956 25.4546 45.8504 25.7258 45.7935C25.4127 45.6813 25.2603 45.6244 25.1063 45.5708C23.8974 45.1489 23.4587 44.094 24.0732 42.9822C26.8109 38.0343 29.5569 33.0897 32.3113 28.1502C32.894 27.1054 34.0359 27.1188 34.6354 28.1619C35.1561 29.0661 35.6518 29.9837 36.1591 30.8963C38.3777 34.8931 40.598 38.8866 42.8115 42.885C43.493 44.1157 43.0895 45.1271 41.755 45.5909C41.6143 45.6395 41.4837 45.7198 41.2075 45.8521C41.5189 45.8755 41.6612 45.8956 41.8035 45.8956C46.8385 45.8973 51.8718 45.9007 56.9068 45.894C58.1961 45.8923 58.7972 45.261 58.7988 43.945C58.8005 33.5402 58.7988 23.1337 58.8005 12.7289C58.8005 12.528 58.8005 12.327 58.8005 12.0893C58.4455 12.0893 58.1776 12.0893 57.9081 12.0893C48.0273 12.0893 38.1466 12.0826 28.2659 12.101C27.4488 12.1027 26.8309 11.8582 26.2834 11.2537C25.3575 10.2323 24.3696 9.26787 23.4285 8.25988C23.1523 7.96351 22.8726 7.83123 22.4574 7.83458C20.2438 7.85467 18.0286 7.84295 15.815 7.8463C15.6141 7.8463 15.4148 7.86639 15.1787 7.87811C15.1787 8.64164 15.1787 9.34992 15.1787 10.0565C15.1787 11.602 14.6981 12.0893 13.1711 12.0893C11.5218 12.0909 9.87584 12.0909 8.14952 12.0909ZM24.974 54.1505C24.974 53.1458 24.9539 52.25 24.979 51.3542C25.0092 50.2625 25.6806 49.6162 26.7623 49.5927C27.1323 49.5844 27.5041 49.5911 27.9645 49.5911C27.9243 49.1926 27.9126 48.8661 27.854 48.5479C27.6715 47.555 27.6497 47.5449 26.6551 47.5449C21.1832 47.5449 15.7112 47.5466 10.2392 47.5433C7.80794 47.5416 6.51864 46.254 6.51864 43.8411C6.51864 32.79 6.51864 21.7389 6.51864 10.6878C6.51864 10.445 6.51864 10.2022 6.51864 9.89745C5.54916 9.89745 4.65502 9.89578 3.76088 9.89745C2.19698 9.89913 1.6327 10.455 1.6327 11.9955C1.6327 25.3439 1.6327 38.6923 1.6327 52.0424C1.6327 53.6063 2.17354 54.1505 3.73577 54.1505C10.5657 54.1505 17.394 54.1505 24.2239 54.1505C24.4466 54.1505 24.6726 54.1505 24.974 54.1505ZM13.4892 10.4282C13.5194 10.3294 13.5411 10.2909 13.5411 10.2508C13.5462 9.49894 13.5462 8.74713 13.5495 7.99532C13.5562 6.78639 14.1104 6.21542 15.2993 6.21207C17.8059 6.20705 20.3125 6.21877 22.8191 6.2037C23.4269 6.20035 23.9041 6.39793 24.3193 6.83663C25.324 7.89988 26.3588 8.93299 27.3534 10.0046C27.6631 10.3395 27.9796 10.4701 28.4384 10.4701C38.3191 10.4567 48.1998 10.4601 58.0788 10.4601C58.3015 10.4601 58.5242 10.4601 58.7955 10.4601C58.7955 10.1536 58.7955 9.92759 58.7955 9.70154C58.7955 7.73746 58.7955 5.77337 58.7955 3.80929C58.7955 2.17171 58.2697 1.65097 56.6104 1.65097C48.2132 1.65097 39.816 1.65097 31.4188 1.65097C24.3997 1.65097 17.3822 1.65097 10.3631 1.65097C8.65519 1.65097 8.14785 2.15162 8.14617 3.83775C8.14617 5.80184 8.14617 7.76592 8.14617 9.73001C8.14617 9.95271 8.14617 10.1754 8.14617 10.4299C9.96793 10.4282 11.7127 10.4282 13.4892 10.4282ZM34.4345 31.1558C34.3541 31.2646 34.3122 31.2948 34.3122 31.3249C34.3022 32.348 34.3156 33.371 34.2821 34.3924C34.267 34.8512 34.3775 35.1292 34.8179 35.377C35.784 35.9178 36.2144 37.0832 35.9381 38.1364C35.6551 39.2214 34.6923 39.9984 33.5738 40.0503C32.5039 40.1005 31.536 39.4893 31.1426 38.5182C30.7089 37.4482 30.9199 36.1388 31.8559 35.5947C32.6562 35.1275 32.6981 34.5448 32.6613 33.7963C32.6261 33.0881 32.6562 32.3764 32.6512 31.6665C32.6495 31.5175 32.6144 31.3684 32.5725 31.047C30.1463 35.4205 27.8055 39.6417 25.4563 43.8746C28.1554 44.8542 29.5452 46.7328 29.6255 49.5425C32.2242 49.5425 34.7794 49.5425 37.3295 49.5425C37.5924 46.5068 38.3492 45.4837 41.4921 43.8964C39.1479 39.6668 36.8054 35.4373 34.4345 31.1558ZM26.6652 51.2487C26.6652 54.0701 26.6652 56.8396 26.6652 59.6392C31.2129 59.6392 35.7472 59.6392 40.3033 59.6392C40.3033 56.8195 40.3033 54.0534 40.3033 51.2487C35.7673 51.2487 31.2665 51.2487 26.6652 51.2487ZM41.9727 54.1187C45 54.1187 47.9587 54.1404 50.9157 54.1036C51.6307 54.0952 52.2402 53.4171 52.2569 52.6737C52.2937 50.9859 52.2686 49.2964 52.2686 47.5299C51.6977 47.5299 51.1602 47.5299 50.621 47.5299C47.093 47.5299 43.565 47.5248 40.037 47.5399C39.8009 47.5416 39.4108 47.627 39.3572 47.7727C39.153 48.3202 39.0575 48.9079 38.8984 49.5844C39.3522 49.5844 39.6402 49.5827 39.9265 49.5844C41.3615 49.5911 41.966 50.2006 41.971 51.6539C41.976 52.461 41.9727 53.2681 41.9727 54.1187ZM34.3675 37.5152C34.3809 37.0112 33.9824 36.5859 33.4884 36.5792C32.9928 36.5725 32.5859 36.976 32.5742 37.4851C32.5625 38.0359 32.9024 38.3993 33.4399 38.4127C33.9372 38.4227 34.3541 38.0192 34.3675 37.5152Z" fill="url(#paint0_linear_4_58)"/>
<path d="M36.993 23.0264C36.6732 24.6204 36.3199 24.9017 34.6957 24.9017C33.8384 24.9017 32.9828 24.9017 32.1255 24.9017C30.6905 24.9 30.2216 24.4932 30.0308 23.0816C26.1897 23.6375 20.9203 27.5222 19.4753 33.3274C19.7448 33.3508 20.0044 33.3692 20.2622 33.396C21.1061 33.4831 21.6888 33.9988 21.719 34.8377C21.7659 36.1521 21.7675 37.4699 21.7156 38.7843C21.6821 39.6432 21.0559 40.1958 20.1886 40.2125C18.9361 40.236 17.682 40.2393 16.4278 40.2109C15.5555 40.1908 14.9326 39.5612 14.9158 38.6905C14.8907 37.438 14.8907 36.1822 14.9158 34.9298C14.9343 34.0088 15.5588 33.4429 16.5434 33.3826C17.7104 33.3106 17.7037 33.3089 18.0805 32.1804C19.4451 28.0965 22.0204 25.0139 25.766 22.9041C25.9017 22.8271 26.0306 22.7417 26.2985 22.576C26.0256 22.5642 25.9117 22.5542 25.7962 22.5542C23.5391 22.5525 21.2836 22.5592 19.0265 22.5475C18.6732 22.5458 18.4773 22.6346 18.3116 22.9812C17.6786 24.304 16.1315 24.9771 14.668 24.6154C13.2063 24.2537 12.1949 22.8958 12.2452 21.3654C12.2954 19.8617 13.3185 18.6528 14.7886 18.3665C16.3424 18.0634 17.8377 18.7767 18.3702 20.2016C18.5979 20.8095 18.8926 20.935 19.4887 20.93C22.7471 20.8999 26.0071 20.9149 29.2656 20.9149C29.4933 20.9149 29.721 20.9149 30.0475 20.9149C30.0475 20.4829 30.0358 20.0945 30.0492 19.706C30.086 18.7298 30.6302 18.1053 31.5846 18.0701C32.8371 18.0249 34.0929 18.0232 35.3437 18.0701C36.2964 18.1053 36.8473 18.7416 36.8758 19.7094C36.8875 20.0811 36.8774 20.4545 36.8774 20.8748C37.1336 20.8898 37.3345 20.9133 37.5355 20.9133C40.9195 20.9149 44.3051 20.9099 47.6891 20.9216C48.1027 20.9233 48.3354 20.863 48.4945 20.3909C48.9801 18.9442 50.4151 18.1103 51.8952 18.3196C53.5194 18.5507 54.6229 19.6792 54.7585 21.2465C54.8891 22.7568 53.9749 24.108 52.5231 24.5501C51.0078 25.0122 49.4623 24.4128 48.7306 23.0214C48.5313 22.6429 48.312 22.5425 47.9135 22.5441C45.5743 22.5626 43.2352 22.5525 40.7621 22.5525C40.9463 22.7066 41.0317 22.802 41.1371 22.8606C45.1741 25.0976 47.8314 28.4381 49.1006 32.8736C49.2195 33.2872 49.3953 33.4144 49.7905 33.3826C50.0802 33.3592 50.3765 33.3726 50.6662 33.3994C51.5537 33.4814 52.1313 34.0691 52.1481 34.9566C52.1698 36.1889 52.1715 37.423 52.1481 38.6553C52.1313 39.5629 51.5101 40.1958 50.6043 40.2142C49.3518 40.241 48.0977 40.2393 46.8435 40.2125C46.0331 40.1958 45.3952 39.6784 45.3567 38.8847C45.2897 37.51 45.2897 36.1287 45.35 34.754C45.3834 33.9737 45.9712 33.4898 46.7565 33.4027C46.9842 33.3776 47.2136 33.3692 47.443 33.3525C46.7464 29.2652 42.5085 24.2135 36.993 23.0264ZM35.26 23.2658C35.26 22.0335 35.26 20.8949 35.26 19.7496C34.0125 19.7496 32.8404 19.7496 31.7102 19.7496C31.7102 20.9635 31.7102 22.1205 31.7102 23.2658C32.9493 23.2658 34.1096 23.2658 35.26 23.2658ZM50.5055 35.0671C49.2631 35.0671 48.091 35.0671 46.9306 35.0671C46.9306 36.2727 46.9306 37.4297 46.9306 38.5716C48.1563 38.5716 49.33 38.5716 50.5055 38.5716C50.5055 37.3744 50.5055 36.2542 50.5055 35.0671ZM20.0781 38.5867C20.0781 37.3711 20.0781 36.2207 20.0781 35.0554C18.8457 35.0554 17.6887 35.0554 16.5383 35.0554C16.5383 36.2626 16.5383 37.433 16.5383 38.5867C17.7741 38.5867 18.9294 38.5867 20.0781 38.5867ZM15.4232 23.0565C16.3692 23.0699 17.0105 22.4621 17.0356 21.5244C17.0591 20.647 16.3659 19.912 15.4918 19.8885C14.6144 19.8651 13.8894 20.5616 13.871 21.4424C13.8543 22.3332 14.5391 23.0448 15.4232 23.0565ZM53.069 21.4976C53.0757 20.5951 52.3959 19.8952 51.5118 19.8885C50.6445 19.8835 49.9127 20.6035 49.9077 21.4692C49.9027 22.3315 50.626 23.0548 51.4984 23.0565C52.4528 23.0599 53.0623 22.4537 53.069 21.4976Z" fill="url(#paint1_linear_4_58)"/>
<path d="M46.7498 6.03955C46.7498 4.7536 47.7846 3.71714 49.0571 3.72886C50.3263 3.74058 51.3661 4.8055 51.3444 6.07136C51.3226 7.32215 50.3012 8.33852 49.0555 8.34521C47.7762 8.35358 46.7498 7.32717 46.7498 6.03955ZM49.1911 5.28941C49.0973 5.28774 49.0019 5.28606 48.9081 5.28606C48.734 5.54392 48.4208 5.80513 48.4275 6.05797C48.4342 6.28234 48.7641 6.62392 49.0069 6.68587C49.397 6.78466 49.7219 6.47992 49.6716 6.07973C49.6365 5.80011 49.3602 5.55229 49.1911 5.28941Z" fill="url(#paint2_linear_4_58)"/>
<path d="M45.7652 6.068C45.7534 7.3439 44.7019 8.36864 43.426 8.3452C42.1853 8.32343 41.1622 7.28529 41.1589 6.04455C41.1555 4.78205 42.2188 3.72215 43.4796 3.73052C44.7521 3.73722 45.7769 4.7854 45.7652 6.068ZM44.2297 6.20362C44.2314 6.10651 44.2314 6.00772 44.2331 5.9106C43.9752 5.73479 43.7123 5.41498 43.4628 5.42502C43.2368 5.43339 42.9002 5.7733 42.8383 6.02279C42.7445 6.40623 43.0409 6.74446 43.4444 6.69088C43.7224 6.65571 43.9685 6.37441 44.2297 6.20362Z" fill="url(#paint3_linear_4_58)"/>
<path d="M54.6363 8.34524C53.3721 8.36198 52.3055 7.31715 52.2955 6.05297C52.2854 4.79548 53.347 3.72721 54.6061 3.72888C55.8435 3.73056 56.885 4.75362 56.9101 5.99436C56.9369 7.26022 55.9021 8.33017 54.6363 8.34524ZM54.4856 6.81985C54.581 6.8165 54.6765 6.81148 54.7719 6.80813C54.9393 6.5419 55.219 6.28739 55.2458 6.00776C55.2843 5.60925 54.9393 5.31288 54.5576 5.41669C54.3098 5.48367 53.9799 5.83362 53.9782 6.06134C53.9749 6.3125 54.3014 6.56701 54.4856 6.81985Z" fill="url(#paint4_linear_4_58)"/>
<defs>
<linearGradient id="paint0_linear_4_58" x1="30.2157" y1="0" x2="30.2157" y2="61.34" gradientUnits="userSpaceOnUse">
<stop stop-color="#1CA7FB"/>
<stop offset="1" stop-color="#17FCD7"/>
</linearGradient>
<linearGradient id="paint1_linear_4_58" x1="33.5071" y1="18.0356" x2="33.5071" y2="40.2335" gradientUnits="userSpaceOnUse">
<stop stop-color="#1CA7FB"/>
<stop offset="1" stop-color="#17FCD7"/>
</linearGradient>
<linearGradient id="paint2_linear_4_58" x1="49.0473" y1="3.72876" x2="49.0473" y2="8.34526" gradientUnits="userSpaceOnUse">
<stop stop-color="#1CA7FB"/>
<stop offset="1" stop-color="#17FCD7"/>
</linearGradient>
<linearGradient id="paint3_linear_4_58" x1="43.4621" y1="3.73047" x2="43.4621" y2="8.34559" gradientUnits="userSpaceOnUse">
<stop stop-color="#1CA7FB"/>
<stop offset="1" stop-color="#17FCD7"/>
</linearGradient>
<linearGradient id="paint4_linear_4_58" x1="54.603" y1="3.72888" x2="54.603" y2="8.34544" gradientUnits="userSpaceOnUse">
<stop stop-color="#1CA7FB"/>
<stop offset="1" stop-color="#17FCD7"/>
</linearGradient>
</defs>
</svg>
