<svg width="61" height="61" viewBox="0 0 61 61" fill="none" xmlns="http://www.w3.org/2000/svg">
<path d="M23.9529 13.6777C25.1085 14.143 25.5871 15.0835 25.9306 16.1491C26.2041 16.9979 26.5427 17.8267 26.8495 18.6655C27.5682 20.6266 27.2514 21.6771 25.5254 22.9595C25.9973 23.6582 26.4759 24.3586 26.9462 25.064C27.4381 25.8011 27.4181 26.298 26.6944 26.7666C25.3937 27.6121 24.7266 28.631 24.5566 30.2869C24.3131 32.6382 22.7922 34.3092 20.6194 35.3147C20.2241 35.4981 19.8073 35.6349 19.4004 35.7933C18.9184 35.9817 18.8451 36.3953 19.2586 36.7071C19.874 37.1707 20.5176 37.596 21.1313 38.0612C23.6877 39.994 25.3403 42.5154 26.049 45.6438C26.2091 46.3492 25.934 46.8745 25.3453 47.0179C24.775 47.1563 24.2914 46.8011 24.1196 46.0807C23.4309 43.1991 21.85 40.9362 19.4004 39.2719C19.3003 39.2035 19.1969 39.1418 19.0852 39.0685C18.6083 41.193 17.4559 42.1952 15.6399 42.0334C14.0574 41.8917 12.795 41.158 11.8845 39.8456C11.7678 39.6771 11.6661 39.497 11.5177 39.2619C10.3987 40.4359 9.4682 41.6816 8.85953 43.1557C8.32923 44.4381 8.01906 45.7705 8.01406 47.1579C7.99905 50.6532 8.00739 54.1485 8.00905 57.6454C8.00905 57.7472 8.01906 57.8489 8.02907 58.039C8.28087 58.039 8.521 58.039 8.7628 58.039C14.3492 58.039 19.9357 58.039 25.5204 58.039C25.7289 58.039 25.9423 58.019 26.1441 58.0557C26.6827 58.1524 27.0079 58.4876 27.0079 59.0379C27.0079 59.5898 26.6811 59.92 26.1424 60.0201C25.9607 60.0534 25.7689 60.0351 25.5805 60.0351C19.5354 60.0351 13.4904 60.0351 7.44708 60.0351C6.29644 60.0351 6.00461 59.7466 6.00461 58.6026C6.00461 54.9189 6.00628 51.2369 6.00461 47.5532C6.00294 44.3531 7.0135 41.5148 9.05297 39.0434C9.5966 38.3847 10.1686 37.7494 10.6805 37.0673C10.8623 36.8256 10.9473 36.487 11.0024 36.1802C11.3209 34.4125 10.6955 33.0668 9.31311 31.9028C8.10744 30.8889 7.08021 29.6632 5.9846 28.5209C5.74947 28.2758 5.55269 28.1824 5.17915 28.2825C3.96181 28.6093 2.89122 28.2741 2.09411 27.3019C1.28533 26.3147 1.14859 25.1841 1.7139 24.0318C1.899 23.6532 1.84731 23.4031 1.65053 23.0713C1.01685 22.004 0.228079 21.0051 0.0613201 19.7161C-0.147129 18.1068 0.168046 16.661 1.12691 15.2953C3.37982 12.0785 6.53324 10.2975 10.2136 9.19356C12.7817 8.42313 15.3031 7.49095 17.8212 6.56544C18.4432 6.33698 19.0318 5.92675 19.5288 5.47984C20.2842 4.79946 20.9395 4.00735 21.6516 3.27695C22.3537 2.55655 23.1524 2.71163 23.5026 3.64382C24.0629 5.14131 24.6149 6.64381 25.1419 8.15465C25.6972 9.7472 25.5071 11.2664 24.5982 12.6922C24.3981 13.004 24.193 13.3125 23.9529 13.6777ZM3.5816 22.4242C7.05686 21.1552 10.4954 19.9028 13.9257 18.6321C14.0591 18.5821 14.2075 18.382 14.2258 18.2369C14.4009 16.8328 15.2214 16.014 16.5204 15.5654C18.0346 15.0435 19.5404 14.4948 21.0346 13.9212C21.3198 13.8128 21.5949 13.5743 21.7783 13.3259C22.2086 12.7405 22.5855 12.1152 22.9773 11.4998C23.4243 10.7961 23.591 10.0073 23.3626 9.22525C23.019 8.05293 22.5621 6.91396 22.1235 5.67661C21.8367 5.97845 21.5982 6.20524 21.3898 6.45704C20.4993 7.53097 19.3703 8.20301 18.0429 8.63992C15.2531 9.55543 12.5115 10.611 9.71333 11.4832C6.81506 12.387 4.50711 14.0162 2.74614 16.4776C1.82396 17.7666 1.74725 19.0874 2.41929 20.4665C2.73613 21.1185 3.15803 21.7188 3.5816 22.4242ZM22.7689 29.0646C22.7689 28.7844 22.7872 28.596 22.7656 28.4142C22.6738 27.6238 22.999 27.0651 23.6561 26.6332C24.098 26.3414 24.4898 25.9745 24.9167 25.6327C24.4498 24.9456 24.0213 24.3136 23.571 23.6516C22.2503 24.1302 20.9629 24.5988 19.6755 25.0624C18.76 25.3909 17.7778 25.4359 17.0624 24.7972C16.332 24.1452 15.73 24.2936 15.0179 24.6455C14.8879 24.7088 14.7495 24.7722 14.6094 24.7955C14.0924 24.8789 13.984 25.1808 13.9974 25.6727C14.0607 28.024 14.0691 30.3753 13.1752 32.6165C13.1286 32.7333 13.1252 32.9434 13.1969 33.0184C14.0441 33.8923 14.9329 34.8695 16.2686 34.6343C17.9662 34.3358 19.6372 33.8189 21.0096 32.7016C21.5099 32.2947 21.8617 31.7027 22.2803 31.1958C21.8017 31.0624 21.4698 31.069 21.138 31.0607C20.4526 31.0407 20.019 30.6505 20.019 30.0635C20.019 29.4748 20.4509 29.0829 21.138 29.0679C21.6549 29.0562 22.1719 29.0646 22.7689 29.0646ZM14.7228 20.4798C13.2386 21.0235 11.8345 21.5404 10.4287 22.054C8.35925 22.8111 6.28643 23.5615 4.21695 24.322C3.38816 24.6271 3.12302 25.3592 3.60328 25.9879C3.98516 26.4881 4.46543 26.4565 5.00406 26.253C8.02073 25.1157 11.0407 23.9918 14.0607 22.8645C14.501 22.6994 14.9396 22.5343 15.4098 22.3575C15.1747 21.7072 14.9612 21.1268 14.7228 20.4798ZM25.3303 20.3281C25.2953 20.293 25.2586 20.2564 25.2236 20.2213C25.2086 20.1396 25.2019 20.0546 25.1752 19.9779C24.6966 18.6521 24.2447 17.3164 23.7211 16.0107C23.5226 15.5187 23.049 15.3436 22.5171 15.5254C21.9084 15.7322 21.3014 15.949 20.7044 16.1874C20.0524 16.4476 19.8339 16.9128 20.0707 17.5882C20.4876 18.7805 20.9245 19.9679 21.3748 21.1485C21.6183 21.7872 22.0735 22.019 22.7055 21.8189C23.3375 21.6188 23.9796 21.4203 24.5682 21.1218C24.8767 20.9651 25.0785 20.5999 25.3303 20.3281ZM17.0057 36.6288C15.2047 36.6988 15.2047 36.6988 13.0418 35.6749C13.0418 36.3019 12.9701 36.9256 13.0568 37.5293C13.2536 38.925 14.476 39.9956 15.8301 40.049C16.4954 40.0757 16.969 39.7288 16.9974 39.1118C17.0324 38.2847 17.0057 37.4559 17.0057 36.6288ZM11.581 31.014C12.113 29.4648 12.0246 27.6588 11.9879 25.7778C10.5221 26.3264 9.13801 26.8433 7.63218 27.407C9.00961 28.6644 10.307 29.85 11.581 31.014ZM17.8278 17.2414C17.6911 17.288 17.476 17.3564 17.2642 17.4331C16.2203 17.81 16.0285 18.2002 16.397 19.2208C16.7772 20.2747 17.1575 21.3286 17.5493 22.3792C17.8478 23.1813 18.3048 23.3981 19.1069 23.1296C19.3987 23.0329 19.6822 22.9095 19.8656 22.8395C19.1852 20.9718 18.5215 19.1457 17.8278 17.2414Z" fill="url(#paint0_linear_4_70)"/>
<path d="M39.2647 30.2586C38.2891 30.7805 37.3569 31.3358 36.3764 31.7811C35.8394 32.0246 35.2241 32.1696 34.6338 32.2113C33.4931 32.2914 32.636 31.4492 32.8594 30.3403C33.0546 29.3631 33.4898 28.4209 33.9167 27.5087C34.1485 27.0118 34.7755 26.9417 35.2258 27.2186C35.6677 27.4904 35.8177 28.014 35.5893 28.5326C35.3808 29.0079 35.1574 29.4765 34.9456 29.9501C34.9223 30.0001 34.9339 30.0651 34.9122 30.3086C35.8911 29.805 36.7716 29.3531 37.6804 28.8862C33.6932 24.2136 34.6821 18.3203 37.9806 15.0301C41.2674 11.75 47.164 10.7444 51.8566 14.7283C52.3235 13.8295 52.7788 12.9573 53.2324 12.0835C53.1874 12.0302 53.1423 11.9768 53.0973 11.9218C52.6387 12.1235 52.1718 12.307 51.7249 12.5288C51.0228 12.879 50.4558 12.7806 50.1573 12.2236C49.8605 11.6716 50.0673 11.0996 50.796 10.7745C51.5681 10.4293 52.3669 10.0874 53.189 9.92565C54.4064 9.68719 55.3452 10.5243 55.1668 11.7483C55.0284 12.6905 54.6282 13.6094 54.2496 14.4982C53.9828 15.1235 53.5576 15.6788 53.204 16.2658C56.3341 20.8617 55.1384 26.1763 52.0784 29.193C49.0117 32.213 43.7305 33.2986 39.2647 30.2586ZM50.6276 16.3592C48.5498 14.4515 46.1485 13.6627 43.422 14.2597C40.1351 14.9785 38.0156 17.0446 37.2402 20.3264C36.5848 23.0979 37.3786 25.526 39.3013 27.6638C43.5704 24.3586 47.3091 20.6199 50.6276 16.3592ZM51.985 17.8917C48.6448 22.0757 45.0312 25.676 41.009 28.8795C43.4853 30.7505 48.1796 30.2886 50.2991 27.994C49.1168 26.7433 48.6849 25.2908 49.3069 23.6449C49.9272 22.004 51.2379 21.2236 53.0723 21.0135C52.7088 19.9712 52.3752 19.0107 51.985 17.8917ZM52.9306 23.128C52.0134 23.1947 51.4097 23.6583 51.1462 24.4737C50.9028 25.2308 51.0745 25.8828 51.6832 26.4998C52.3736 25.4359 52.8188 24.3553 52.9306 23.128Z" fill="url(#paint1_linear_4_70)"/>
<path d="M38.6076 45.8239C38.0123 45.0301 37.4303 44.2513 36.8099 43.4242C35.3058 44.4748 33.8233 45.5087 32.3425 46.5443C31.3686 47.223 30.3997 47.9083 29.4225 48.582C26.681 50.4681 23.4609 50.5098 20.686 48.6888C19.2936 47.7749 17.9061 46.8528 16.5271 45.9189C15.9851 45.552 15.8667 44.9984 16.1785 44.5131C16.4887 44.0295 17.0457 43.9245 17.6043 44.2463C17.7311 44.318 17.8495 44.4047 17.9695 44.4848C19.2002 45.3036 20.4325 46.119 21.6616 46.9411C23.8528 48.4053 26.1574 48.412 28.3119 46.9211C30.7949 45.2035 33.268 43.4692 35.7293 41.7216C35.9345 41.5748 36.1096 41.2863 36.1579 41.0362C36.3914 39.8322 36.5831 38.6215 36.7799 37.4109C36.985 36.1435 37.6487 35.3647 38.756 35.1163C39.7883 34.8845 40.8405 35.273 41.4192 36.402C42.1179 37.7627 43.0601 38.2497 44.5826 38.0912C46.0684 37.9378 47.5809 38.0529 49.0817 38.0596C50.5726 38.0662 51.6765 38.9284 51.9817 40.3125C52.2668 41.6099 51.5848 42.8922 50.2307 43.4792C47.159 44.81 44.1323 46.2624 40.8088 46.9078C40.5387 46.9595 40.2719 47.1246 40.0467 47.293C37.1568 49.4442 34.2769 51.6104 31.3886 53.7649C27.4898 56.6715 22.9139 56.8116 18.8633 54.1451C16.7588 52.7594 14.6644 51.3569 12.5732 49.9545C11.9895 49.5626 11.8511 49.014 12.1713 48.5137C12.4932 48.0117 13.0568 47.92 13.6505 48.2786C13.8289 48.3869 13.999 48.5053 14.1724 48.6204C16.1135 49.9111 18.0546 51.2052 19.9973 52.4942C23.2258 54.6354 26.9195 54.572 30.0312 52.2808C32.7644 50.268 35.4709 48.2168 38.1874 46.1807C38.3191 46.0807 38.4392 45.9673 38.6076 45.8239ZM50.0306 41.0662C50.0389 40.3675 49.6571 40.0573 48.9984 40.0557C46.8105 40.0523 44.6243 40.034 42.4364 40.0657C41.7493 40.0757 41.2958 39.8372 40.9522 39.2569C40.592 38.6499 40.1951 38.0612 39.7716 37.4976C39.6332 37.3141 39.3547 37.1374 39.1429 37.1424C39.0145 37.1457 38.8244 37.4876 38.7827 37.701C38.5559 38.8833 38.3408 40.0707 38.184 41.2647C38.144 41.5732 38.2524 41.9617 38.4275 42.2235C38.9345 42.9823 39.5415 43.6777 40.0484 44.4364C40.3169 44.8383 40.5837 44.8783 41.0239 44.7916C44.0173 44.198 46.6954 42.7772 49.4719 41.6182C49.7371 41.5065 49.9139 41.1863 50.0306 41.0662Z" fill="url(#paint2_linear_4_70)"/>
<path d="M41.0073 0C41.3058 0.171762 41.6093 0.27682 41.8211 0.480266C42.7799 1.40411 43.7221 2.3463 44.6526 3.29849C45.1796 3.83879 45.1796 4.34074 44.6493 4.8827C43.7188 5.8349 42.7766 6.77542 41.8227 7.70427C41.2808 8.23123 40.7788 8.22956 40.2385 7.70093C39.2863 6.77042 38.3425 5.8299 37.412 4.87937C36.8833 4.33907 36.885 3.84046 37.4153 3.29849C38.3475 2.34797 39.2897 1.40578 40.2452 0.480266C40.4403 0.285158 40.7188 0.176765 41.0073 0ZM42.4664 4.17231C41.9695 3.63535 41.4842 3.11006 41.0356 2.62645C40.5287 3.11172 40.0234 3.59699 39.5948 4.00722C40.0935 4.53918 40.5837 5.05947 41.034 5.5414C41.5342 5.06447 42.0395 4.58087 42.4664 4.17231Z" fill="url(#paint3_linear_4_70)"/>
<path d="M31.0851 12.08C32.0006 12.08 32.9178 12.0717 33.8333 12.0817C34.8672 12.095 35.3158 12.8371 34.7988 13.7176C33.8633 15.3118 32.9111 16.8977 31.9423 18.4719C31.4403 19.2874 30.6015 19.284 30.0996 18.4686C29.1307 16.8927 28.1785 15.3085 27.2413 13.7143C26.7244 12.8338 27.173 12.095 28.2102 12.0817C29.1691 12.0717 30.1279 12.08 31.0851 12.08ZM32.2258 14.1245C31.3853 14.1245 30.6399 14.1245 29.8161 14.1245C30.233 14.8149 30.6065 15.4336 31.0234 16.1256C31.4553 15.4085 31.8172 14.8065 32.2258 14.1245Z" fill="url(#paint4_linear_4_70)"/>
<path d="M56.0156 8.08426C55.0984 8.08426 54.1829 8.07759 53.2658 8.0876C52.7972 8.0926 52.3986 7.98588 52.1601 7.5423C51.9183 7.09205 52.0684 6.70684 52.3519 6.33329C53.2691 5.12262 54.1729 3.90362 55.0918 2.69628C55.6854 1.91585 56.3925 1.91085 56.9828 2.68461C57.9033 3.89194 58.8072 5.11262 59.7227 6.32329C60.0045 6.69516 60.1646 7.07871 59.9261 7.53229C59.6926 7.97754 59.2974 8.0926 58.8272 8.0876C57.8916 8.07759 56.9528 8.08426 56.0156 8.08426ZM57.0228 6.06148C56.661 5.58621 56.3675 5.20267 56.0373 4.7691C55.6971 5.22101 55.4086 5.60623 55.0667 6.06148C55.7521 6.06148 56.3241 6.06148 57.0228 6.06148Z" fill="url(#paint5_linear_4_70)"/>
<path d="M60.0412 33.03C60.0462 34.6959 58.6988 36.055 57.0395 36.0533C55.4053 36.0517 54.0562 34.7159 54.0445 33.0884C54.0312 31.4291 55.3803 30.0734 57.0479 30.0667C58.6754 30.0584 60.0362 31.4058 60.0412 33.03ZM58.0384 33.0367C58.0267 32.5014 57.5715 32.0595 57.0345 32.0645C56.4976 32.0678 56.049 32.5147 56.0456 33.0517C56.0406 33.6137 56.5209 34.0789 57.0795 34.0556C57.6148 34.0322 58.0501 33.572 58.0384 33.0367Z" fill="url(#paint6_linear_4_70)"/>
<path d="M44.0289 21.0466C44.0322 22.7125 42.6798 24.0683 41.0206 24.0633C39.388 24.0583 38.0406 22.7192 38.0306 21.0916C38.0206 19.434 39.373 18.0799 41.0406 18.0766C42.6681 18.0733 44.0272 19.424 44.0289 21.0466ZM42.0261 21.0382C42.0094 20.5029 41.5492 20.066 41.0139 20.0744C40.4769 20.0827 40.0333 20.5346 40.0333 21.0699C40.0333 21.6319 40.5186 22.0938 41.0756 22.0638C41.6126 22.0388 42.0428 21.5735 42.0261 21.0382Z" fill="url(#paint7_linear_4_70)"/>
<defs>
<linearGradient id="paint0_linear_4_70" x1="13.641" y1="2.82526" x2="13.641" y2="60.0401" gradientUnits="userSpaceOnUse">
<stop stop-color="#1CA7FB"/>
<stop offset="1" stop-color="#17FCD7"/>
</linearGradient>
<linearGradient id="paint1_linear_4_70" x1="44.0062" y1="9.88501" x2="44.0062" y2="32.2166" gradientUnits="userSpaceOnUse">
<stop stop-color="#1CA7FB"/>
<stop offset="1" stop-color="#17FCD7"/>
</linearGradient>
<linearGradient id="paint2_linear_4_70" x1="32.0244" y1="35.0521" x2="32.0244" y2="56.0495" gradientUnits="userSpaceOnUse">
<stop stop-color="#1CA7FB"/>
<stop offset="1" stop-color="#17FCD7"/>
</linearGradient>
<linearGradient id="paint3_linear_4_70" x1="41.032" y1="0" x2="41.032" y2="8.09845" gradientUnits="userSpaceOnUse">
<stop stop-color="#1CA7FB"/>
<stop offset="1" stop-color="#17FCD7"/>
</linearGradient>
<linearGradient id="paint4_linear_4_70" x1="31.0201" y1="12.0768" x2="31.0201" y2="19.0818" gradientUnits="userSpaceOnUse">
<stop stop-color="#1CA7FB"/>
<stop offset="1" stop-color="#17FCD7"/>
</linearGradient>
<linearGradient id="paint5_linear_4_70" x1="56.0406" y1="2.1076" x2="56.0406" y2="8.08777" gradientUnits="userSpaceOnUse">
<stop stop-color="#1CA7FB"/>
<stop offset="1" stop-color="#17FCD7"/>
</linearGradient>
<linearGradient id="paint6_linear_4_70" x1="57.0428" y1="30.0667" x2="57.0428" y2="36.0533" gradientUnits="userSpaceOnUse">
<stop stop-color="#1CA7FB"/>
<stop offset="1" stop-color="#17FCD7"/>
</linearGradient>
<linearGradient id="paint7_linear_4_70" x1="41.0297" y1="18.0766" x2="41.0297" y2="24.0633" gradientUnits="userSpaceOnUse">
<stop stop-color="#1CA7FB"/>
<stop offset="1" stop-color="#17FCD7"/>
</linearGradient>
</defs>
</svg>
