<svg width="115" height="129" viewBox="0 0 115 129" fill="none" xmlns="http://www.w3.org/2000/svg">
<path d="M76.2731 64.7069C76.2731 67.7985 76.2413 70.8936 76.2873 73.9851C76.3085 75.3435 75.8026 76.1959 74.5292 76.7654C69.2906 79.1 64.0908 81.523 58.8486 83.8399C58.2861 84.0876 57.4231 84.0734 56.8571 83.8258C51.6149 81.5054 46.4151 79.0823 41.1835 76.7442C39.9667 76.1995 39.4962 75.4036 39.5069 74.0771C39.5493 67.7136 39.5352 61.3501 39.4998 54.9901C39.4927 53.8652 39.9313 53.1719 40.9359 52.7192C45.9977 50.4235 51.0631 48.1384 56.0931 45.7755C57.3205 45.199 58.364 45.1565 59.6055 45.7401C64.6744 48.1207 69.7822 50.427 74.883 52.7439C75.884 53.2002 76.3297 53.9324 76.3191 55.0361C76.2943 58.262 76.3085 61.488 76.3085 64.7105C76.2943 64.7069 76.2837 64.7069 76.2731 64.7069ZM72.4246 57.7173C71.8126 57.9472 71.4412 58.0675 71.0875 58.2267C67.7094 59.7512 64.3455 61.3147 60.9462 62.7933C60.0866 63.1682 59.7895 63.6387 59.7966 64.5725C59.8461 68.9941 59.8178 73.4156 59.8213 77.8337C59.8213 78.2051 59.8779 78.5765 59.9168 79.0788C60.4651 78.8559 60.8719 78.7074 61.2681 78.527C64.0837 77.2536 66.8357 75.8104 69.7292 74.7563C71.9011 73.9675 72.605 72.8108 72.4847 70.5116C72.2689 66.3341 72.4246 62.1318 72.4246 57.7173ZM43.5606 57.7244C43.4615 58.0286 43.3872 58.1488 43.3872 58.2727C43.3766 63.0904 43.3519 67.9081 43.412 72.7259C43.4155 73.1291 43.932 73.7022 44.3494 73.9003C47.5824 75.4248 50.8473 76.8822 54.1016 78.3537C54.6498 78.6013 55.2123 78.8206 55.7287 79.0364C55.8454 78.8878 55.895 78.8559 55.895 78.8241C55.9233 73.879 55.9551 68.9304 55.9445 63.9853C55.9445 63.6811 55.6403 63.2248 55.3608 63.0975C51.484 61.297 47.5859 59.5461 43.5606 57.7244ZM46.2524 54.5479C46.4505 54.7177 46.5354 54.8274 46.645 54.8804C50.1752 56.4899 53.6983 58.1205 57.2603 59.6663C57.699 59.8573 58.3923 59.73 58.8698 59.5248C61.1018 58.5733 63.2984 57.5404 65.5057 56.5394C66.8145 55.9451 68.1233 55.3473 69.6867 54.6364C65.7356 52.8147 62.0569 51.1168 58.3675 49.4401C58.1164 49.3269 57.7343 49.2986 57.4938 49.4083C53.762 51.092 50.0443 52.8076 46.2524 54.5479Z" fill="url(#paint0_linear_14_298)"/>
<path d="M94.1679 86.0655C94.1679 85.1175 94.1644 84.5127 94.1679 83.9113C94.1856 82.0543 94.7481 81.4848 96.644 81.46C98.1474 81.4388 99.6472 81.46 101.15 81.4459C101.451 81.4423 101.752 81.3716 102.159 81.3185C102.159 80.7526 102.159 80.229 102.159 79.7055C102.159 71.0888 102.159 62.472 102.159 53.8553C102.159 53.4591 102.113 53.0452 102.198 52.6667C102.413 51.7152 102.965 51.0891 104.016 51.0573C105.126 51.0255 105.745 51.6303 105.979 52.6491C106.074 53.07 106.032 53.5298 106.032 53.9685C106.035 62.5428 106.035 71.1135 106.035 79.6878C106.035 80.2149 106.035 80.7384 106.035 81.46C107.847 81.46 109.555 81.4529 111.264 81.46C113.506 81.4706 114.019 81.9765 114.019 84.1696C114.023 89.0757 114.026 93.9784 114.015 98.8845C114.012 100.692 113.358 101.368 111.546 101.375C106.552 101.389 101.561 101.392 96.5662 101.375C94.8365 101.368 94.175 100.678 94.1679 98.9517C94.1538 96.6985 94.1043 94.4417 94.1892 92.1921C94.2316 91.092 93.885 90.4411 92.9334 89.8469C88.5083 87.0949 84.1398 84.258 79.7465 81.4529C79.6333 81.3822 79.5202 81.315 79.4105 81.2407C78.2361 80.4377 77.9249 79.4226 78.5474 78.4357C79.1594 77.4665 80.2913 77.2648 81.4515 78.0006C84.5148 79.9319 87.5568 81.8951 90.6095 83.8406C91.6919 84.5127 92.7707 85.1847 94.1679 86.0655ZM110.096 97.452C110.096 93.3523 110.096 89.3941 110.096 85.4111C109.856 85.3545 109.693 85.2803 109.527 85.2767C105.993 85.2661 102.459 85.2803 98.9256 85.252C98.1085 85.2449 97.9953 85.6658 97.9988 86.3273C98.0129 89.1535 98.0059 91.9834 98.0059 94.8096C98.0059 95.6727 98.0059 96.5358 98.0059 97.452C102.137 97.452 106.053 97.452 110.096 97.452Z" fill="url(#paint1_linear_14_298)"/>
<path d="M8.00039 47.042C5.92048 47.042 4.0705 47.0561 2.22051 47.0385C0.706567 47.0243 0.016802 46.3664 0.0132647 44.8701C-0.00442157 39.6987 -0.00442157 34.5307 0.0132647 29.3593C0.016802 27.8771 0.720716 27.2051 2.2382 27.198C7.36368 27.1838 12.4892 27.1838 17.6182 27.198C19.2029 27.2015 19.8467 27.863 19.8573 29.4654C19.875 32.1183 19.8962 34.7677 19.8431 37.4207C19.8254 38.2767 20.1013 38.7825 20.8336 39.2388C24.7988 41.7255 28.7323 44.2653 32.6763 46.7838C33.0123 46.9995 33.3554 47.1976 33.6773 47.4311C34.7491 48.2022 35.0109 49.2245 34.3954 50.1725C33.7905 51.1028 32.6834 51.3327 31.5974 50.6535C28.7924 48.892 26.0156 47.088 23.2247 45.3017C22.1954 44.6437 21.159 43.9964 19.9669 43.243C19.9174 43.7913 19.8714 44.1202 19.8644 44.4527C19.8184 46.568 19.3267 47.042 17.1548 47.0455C15.4463 47.0491 13.7343 47.0455 11.8666 47.0455C11.8666 47.7318 11.8666 48.2482 11.8666 48.7646C11.8666 57.4274 11.8666 66.0866 11.8666 74.7493C11.8666 75.1455 11.9055 75.5523 11.8419 75.9414C11.6791 76.9212 11.1238 77.5508 10.0909 77.6216C9.00497 77.6959 8.31874 77.1334 8.07114 76.1041C7.95794 75.6407 8.00039 75.1384 8.00039 74.6538C7.99685 66.0371 7.99685 57.4203 7.99685 48.8036C8.00039 48.2765 8.00039 47.7565 8.00039 47.042ZM3.93255 43.1333C8.01808 43.1333 11.9409 43.1333 15.9663 43.1333C15.9663 39.1115 15.9663 35.1568 15.9663 31.1491C11.9161 31.1491 7.93318 31.1491 3.93255 31.1491C3.93255 35.1887 3.93255 39.1044 3.93255 43.1333Z" fill="url(#paint2_linear_14_298)"/>
<path d="M94.0971 43.2679C93.2058 43.8162 92.4948 44.2371 91.7979 44.6828C88.7806 46.6036 85.7704 48.5384 82.7496 50.4556C81.3984 51.3117 80.2842 51.1879 79.6262 50.1479C78.9648 49.1009 79.3256 48.0998 80.7228 47.2049C84.8508 44.5555 88.9717 41.899 93.1244 39.292C93.8849 38.8145 94.0795 38.2592 94.2174 37.389C94.6737 34.5344 93.5064 33.0063 90.9667 31.6622C84.9993 28.5069 79.2265 24.9732 73.3759 21.5951C73.146 21.4643 72.9019 21.3511 72.6861 21.199C71.7134 20.5198 71.4269 19.4551 72.0282 18.5496C72.6614 17.6016 73.5634 17.361 74.5644 17.8916C75.9298 18.6132 77.2563 19.4127 78.5969 20.1838C83.3793 22.9393 88.1581 25.7019 92.944 28.4574C93.2836 28.652 93.6408 28.8218 94.0653 29.0411C94.4367 27.4882 95.4731 27.1522 96.881 27.1699C101.745 27.2229 106.605 27.1876 111.469 27.1911C113.418 27.1946 114.023 27.7818 114.023 29.6884C114.03 34.6406 114.03 39.5927 114.023 44.5413C114.019 46.4585 113.428 47.0386 111.479 47.0386C106.661 47.0422 101.84 47.0422 97.0225 47.0386C94.6207 47.0386 94.228 46.6425 94.1679 44.1841C94.1608 43.9718 94.1325 43.7525 94.0971 43.2679ZM98.0907 43.1194C102.123 43.1194 106.071 43.1194 110.1 43.1194C110.1 39.0869 110.1 35.1393 110.1 31.1599C106.035 31.1599 102.06 31.1599 98.0907 31.1599C98.0907 35.2101 98.0907 39.1258 98.0907 43.1194Z" fill="url(#paint3_linear_14_298)"/>
<path d="M19.861 86.0751C20.526 85.6684 20.9293 85.4278 21.3219 85.1767C25.0077 82.8209 28.6688 80.4261 32.397 78.1446C33.0267 77.7591 34.0489 77.568 34.7175 77.7944C36.1961 78.3003 36.1005 80.2599 34.5831 81.2468C31.3252 83.3656 28.0391 85.442 24.7636 87.536C23.5362 88.3213 22.3335 89.1561 21.0672 89.8706C20.1511 90.3871 19.9353 91.0662 19.8079 92.092C19.532 94.3134 20.4482 95.4489 22.3583 96.4924C28.3999 99.7997 34.3178 103.33 40.2851 106.775C40.6671 106.994 41.0633 107.2 41.4241 107.451C42.4181 108.141 42.6798 109.166 42.1139 110.093C41.5585 111.006 40.5115 111.299 39.4539 110.712C37.3669 109.559 35.3153 108.346 33.2495 107.154C28.8916 104.639 24.5337 102.12 20.0485 99.5273C19.4825 101.331 18.0888 101.402 16.5643 101.388C11.9658 101.345 7.37095 101.377 2.77251 101.37C0.611247 101.367 0.00991334 100.769 0.00637609 98.6324C0.00283883 93.7687 0.00283883 88.905 0.00637609 84.0448C0.00991334 82.0391 0.579412 81.4626 2.62748 81.459C7.44523 81.4449 12.2665 81.4484 17.0843 81.4555C19.4047 81.459 19.8575 81.9295 19.8645 84.2676C19.8645 84.7487 19.861 85.2297 19.861 86.0751ZM16.0655 97.4262C16.0655 93.6909 16.0337 90.0793 16.0867 86.4678C16.1009 85.4314 15.6835 85.2262 14.7532 85.2368C11.5343 85.2828 8.31186 85.251 5.09295 85.258C4.71447 85.258 4.33598 85.3217 3.93981 85.3571C3.93981 89.4391 3.93981 93.3902 3.93981 97.4262C7.95813 97.4262 11.9022 97.4262 16.0655 97.4262Z" fill="url(#paint4_linear_14_298)"/>
<path d="M55.1341 108.693C55.1341 108.017 55.1341 107.501 55.1341 106.984C55.1341 102.124 55.12 97.264 55.1448 92.4038C55.1518 90.6352 56.6304 89.5705 57.9003 90.4866C58.4556 90.8863 58.8518 91.8697 58.866 92.5948C58.9508 97.3666 58.9119 102.138 58.9119 106.91C58.9119 107.43 58.9119 107.954 58.9119 108.693C60.7938 108.693 62.5412 108.732 64.285 108.679C65.6257 108.64 66.6302 109.032 67.0759 110.585C67.5924 110.309 68.0451 110.087 68.4802 109.835C74.2884 106.482 80.0966 103.122 85.9048 99.7648C86.2479 99.5668 86.5839 99.3227 86.9553 99.2059C87.9422 98.8876 88.8124 99.0786 89.3465 100.041C89.8771 100.999 89.6189 101.834 88.7876 102.496C88.4799 102.74 88.1226 102.927 87.776 103.125C81.278 106.878 74.7942 110.653 68.268 114.352C67.2811 114.911 66.9486 115.53 66.9734 116.641C67.0512 119.733 67.0052 122.828 66.9981 125.919C66.991 127.95 66.4039 128.593 64.4371 128.604C59.4885 128.625 54.5399 128.625 49.5913 128.604C47.6705 128.597 47.0621 127.964 47.0586 126.029C47.0444 121.126 47.0444 116.22 47.0586 111.318C47.0657 109.333 47.713 108.703 49.6938 108.696C51.4413 108.686 53.1993 108.693 55.1341 108.693ZM50.8965 112.602C50.8965 116.535 50.8753 120.323 50.946 124.112C50.9496 124.349 51.6641 124.77 52.0532 124.777C55.3216 124.83 58.5936 124.763 61.862 124.833C62.9762 124.858 63.1743 124.416 63.1567 123.436C63.1071 120.168 63.139 116.896 63.1284 113.627C63.1284 113.295 63.0505 112.962 63.0081 112.605C58.9756 112.602 55.0493 112.602 50.8965 112.602Z" fill="url(#paint5_linear_14_298)"/>
<path d="M58.9086 19.9254C58.9086 20.7389 58.9086 21.3473 58.9086 21.9593C58.9051 26.5577 58.9228 31.1526 58.8874 35.751C58.8768 37.0846 58.1269 37.7956 56.949 37.7602C55.8454 37.7284 55.2051 37.0209 55.1414 35.7475C55.1238 35.3938 55.1344 35.0401 55.1344 34.6863C55.1344 30.3532 55.1344 26.0236 55.1344 21.6904C55.1344 21.1705 55.1344 20.6505 55.1344 19.9254C53.2844 19.9254 51.5794 19.8864 49.8745 19.936C48.502 19.9749 47.4231 19.6353 46.9668 18.0223C46.4398 18.3088 45.9835 18.5388 45.5449 18.7934C39.7296 22.1468 33.925 25.5142 28.0956 28.8392C27.5508 29.1505 26.7833 29.4936 26.2704 29.3345C25.6619 29.1434 24.9934 28.5138 24.7599 27.916C24.3991 26.9928 24.9651 26.2323 25.8211 25.7406C28.0814 24.4424 30.3347 23.1407 32.5914 21.8355C37.0272 19.2745 41.4523 16.6923 45.9092 14.1667C46.7369 13.6963 47.0906 13.1798 47.073 12.2C47.0093 9.02 47.0411 5.83647 47.0517 2.65294C47.0588 0.61902 47.6425 0.014149 49.6445 0.0106118C54.5507 -0.00353726 59.4569 -0.00353726 64.3631 0.0106118C66.3687 0.014149 66.9877 0.636706 66.9913 2.62111C67.0019 7.52728 67.0019 12.4335 66.9913 17.3396C66.9877 19.225 66.3086 19.9006 64.4338 19.9183C62.6723 19.9395 60.9072 19.9254 58.9086 19.9254ZM63.1392 15.9849C63.1392 12.0974 63.1569 8.34792 63.1003 4.59843C63.0967 4.33314 62.5237 3.85207 62.2124 3.845C58.7671 3.79194 55.3183 3.83085 51.873 3.79547C50.9852 3.78486 50.8755 4.23056 50.8826 4.95216C50.9038 7.64755 50.8897 10.3429 50.8897 13.0383C50.8897 13.9969 50.8897 14.952 50.8897 15.9813C55.0247 15.9849 58.9829 15.9849 63.1392 15.9849Z" fill="url(#paint6_linear_14_298)"/>
<defs>
<linearGradient id="paint0_linear_14_298" x1="57.9095" y1="45.3223" x2="57.9095" y2="84.0187" gradientUnits="userSpaceOnUse">
<stop stop-color="#1CA7FB"/>
<stop offset="1" stop-color="#17FCD7"/>
</linearGradient>
<linearGradient id="paint1_linear_14_298" x1="96.128" y1="51.0561" x2="96.128" y2="101.387" gradientUnits="userSpaceOnUse">
<stop stop-color="#1CA7FB"/>
<stop offset="1" stop-color="#17FCD7"/>
</linearGradient>
<linearGradient id="paint2_linear_14_298" x1="17.3611" y1="27.1874" x2="17.3611" y2="77.6281" gradientUnits="userSpaceOnUse">
<stop stop-color="#1CA7FB"/>
<stop offset="1" stop-color="#17FCD7"/>
</linearGradient>
<linearGradient id="paint3_linear_14_298" x1="92.8711" y1="17.6152" x2="92.8711" y2="51.022" gradientUnits="userSpaceOnUse">
<stop stop-color="#1CA7FB"/>
<stop offset="1" stop-color="#17FCD7"/>
</linearGradient>
<linearGradient id="paint4_linear_14_298" x1="21.2059" y1="77.6973" x2="21.2059" y2="111.016" gradientUnits="userSpaceOnUse">
<stop stop-color="#1CA7FB"/>
<stop offset="1" stop-color="#17FCD7"/>
</linearGradient>
<linearGradient id="paint5_linear_14_298" x1="68.3355" y1="90.1509" x2="68.3355" y2="128.62" gradientUnits="userSpaceOnUse">
<stop stop-color="#1CA7FB"/>
<stop offset="1" stop-color="#17FCD7"/>
</linearGradient>
<linearGradient id="paint6_linear_14_298" x1="45.8243" y1="0" x2="45.8243" y2="37.7615" gradientUnits="userSpaceOnUse">
<stop stop-color="#1CA7FB"/>
<stop offset="1" stop-color="#17FCD7"/>
</linearGradient>
</defs>
</svg>
