<svg width="124" height="124" viewBox="0 0 124 124" fill="none" xmlns="http://www.w3.org/2000/svg">
<path d="M60.315 123.3C59.9354 123.187 59.559 123.062 59.1794 122.959C54.3414 121.65 51.086 116.899 51.7583 112.125C52.4949 106.891 56.6607 103.169 61.7561 103.195C66.993 103.221 71.162 107.026 71.7925 112.36C72.3554 117.124 68.9681 121.827 64.114 123.023C63.8084 123.097 63.5092 123.207 63.2069 123.3C62.245 123.3 61.28 123.3 60.315 123.3ZM61.695 119.926C65.4071 119.951 68.4695 116.921 68.4728 113.219C68.4728 109.648 65.4779 106.621 61.888 106.563C58.1661 106.505 55.107 109.474 55.0523 113.209C54.9976 116.805 58.0568 119.9 61.695 119.926Z" fill="url(#paint0_linear_14_319)"/>
<path d="M0 60.2056C0.125455 59.7874 0.254127 59.3692 0.376366 58.9478C1.74351 54.1677 6.4529 50.9959 11.1945 51.6618C16.396 52.392 20.0728 56.4484 20.1372 61.5213C20.1983 66.4977 16.544 70.8307 11.677 71.548C6.54297 72.3072 1.89148 69.3767 0.424618 64.4614C0.289512 64.0046 0.144756 63.5511 0.0064336 63.0943C0 62.1292 0 61.1674 0 60.2056ZM16.7563 61.5888C16.7306 57.9313 13.665 54.9011 10.0461 54.9526C6.29528 55.0072 3.33904 58.0278 3.38086 61.7657C3.41946 65.3364 6.44968 68.3312 10.0396 68.3473C13.739 68.3602 16.782 65.2978 16.7563 61.5888Z" fill="url(#paint1_linear_14_319)"/>
<path d="M123.525 63.0946C123.396 63.5128 123.261 63.9277 123.142 64.3491C121.72 69.3159 117.008 72.3236 111.845 71.5515C106.971 70.8246 103.291 66.4626 103.385 61.5184C103.481 56.3297 107.28 52.2379 112.572 51.6235C117.339 51.0702 122.058 54.4671 123.248 59.3052C123.322 59.6108 123.432 59.9067 123.525 60.2059C123.525 61.1677 123.525 62.1295 123.525 63.0946ZM120.144 61.6921C120.173 58.0474 117.159 54.9786 113.53 54.9529C109.802 54.9271 106.775 57.9284 106.766 61.6631C106.756 65.2949 109.809 68.3541 113.437 68.3476C117.098 68.338 120.115 65.3431 120.144 61.6921Z" fill="url(#paint2_linear_14_319)"/>
<path d="M41.7605 84.2255C43.192 84.2255 44.4626 84.2158 45.7332 84.2287C47.1422 84.2448 47.8982 84.856 47.8756 85.9304C47.8531 86.9694 47.1133 87.5838 45.7879 87.5902C43.1341 87.6063 40.4802 87.6095 37.8264 87.587C36.3756 87.5741 35.758 86.9662 35.7451 85.5315C35.7226 82.8422 35.7226 80.153 35.7451 77.467C35.7547 76.1996 36.4721 75.4307 37.5079 75.4726C38.4922 75.5112 39.097 76.2478 39.1099 77.4798C39.1259 78.8019 39.1131 80.124 39.1131 81.4268C41.2748 79.1558 43.4268 76.8976 45.6818 74.53C43.2627 71.577 41.6447 67.7555 41.2136 63.4031C38.0451 63.4031 34.9344 63.4031 31.3992 63.4031C32.5701 64.5194 33.5255 65.4008 34.4487 66.3143C35.4266 67.2858 35.5263 68.3023 34.7607 69.039C33.9694 69.8046 33.0655 69.6888 32.0329 68.6658C30.18 66.8258 28.3304 64.9858 26.4936 63.1297C25.4385 62.0649 25.4449 61.2093 26.5097 60.1316C28.3464 58.2755 30.1961 56.4323 32.0522 54.5955C33.0623 53.5983 34.0112 53.505 34.78 54.2964C35.5167 55.0523 35.3945 56.0334 34.3972 57.021C33.4901 57.9185 32.554 58.787 31.4153 59.8743C34.8894 59.8743 38.0258 59.8743 41.2201 59.8743C41.6543 55.596 43.2048 51.7905 45.8137 48.6123C43.5587 46.3637 41.3552 44.1699 39.1195 41.9407C39.1195 43.1469 39.1099 44.5141 39.1227 45.8812C39.1324 46.7272 38.8493 47.377 38.0161 47.6859C36.9063 48.0944 35.7966 47.3642 35.7708 46.0807C35.7129 43.192 35.7226 40.3033 35.7676 37.4146C35.7837 36.3273 36.4817 35.7065 37.5561 35.6936C40.4094 35.6582 43.266 35.6518 46.1193 35.6968C47.2226 35.7129 47.911 36.4753 47.8821 37.4339C47.8531 38.3925 47.1486 39.0166 46.0099 39.0391C44.6235 39.0648 43.237 39.0455 41.8699 39.0455C44.1506 41.3037 46.3605 43.4911 48.6509 45.759C51.784 43.192 55.612 41.5739 59.9998 41.1364C59.9998 37.9808 59.9998 34.8444 59.9998 31.3928C58.8739 32.5444 57.9474 33.5255 56.9856 34.4712C56.0753 35.3655 55.0555 35.4202 54.3414 34.6675C53.6273 33.9147 53.6852 33.0205 54.5762 32.1198C56.4934 30.1768 58.4235 28.2435 60.3761 26.3295C61.2897 25.4353 62.2065 25.4288 63.1233 26.3263C65.1048 28.2628 67.0671 30.2219 69.0036 32.2034C69.8142 33.0301 69.8271 33.9598 69.1516 34.6707C68.4632 35.3945 67.4402 35.3719 66.5974 34.5484C65.6227 33.5963 64.6931 32.5959 63.5575 31.4217C63.5575 34.8219 63.5575 37.9454 63.5575 41.1364C67.868 41.5546 71.7025 43.1534 74.8935 45.7719C77.1646 43.4976 79.3617 41.3005 81.6134 39.0423C80.3171 39.0423 78.9724 39.0552 77.6246 39.0391C76.3894 39.0262 75.6463 38.4279 75.598 37.4532C75.5466 36.4335 76.3282 35.6936 77.5892 35.6808C80.3235 35.655 83.0578 35.6486 85.7921 35.684C87.0884 35.7001 87.7189 36.3273 87.735 37.6334C87.7704 40.403 87.7704 43.1727 87.7318 45.9391C87.7157 47.1229 86.9565 47.8467 85.9593 47.7952C85.0104 47.747 84.4024 47.0457 84.3799 45.8909C84.3541 44.5398 84.3735 43.1888 84.3735 41.9825C82.1892 44.1506 79.9954 46.3316 77.7147 48.5994C80.2752 51.7197 81.8772 55.5477 82.3083 59.8968C85.48 59.8968 88.5939 59.8968 92.0616 59.8968C90.9711 58.8385 90.0608 57.97 89.1697 57.0821C88.1242 56.0431 87.9891 55.0298 88.774 54.2739C89.5718 53.5018 90.4982 53.6498 91.592 54.7339C93.3869 56.5192 95.1819 58.3013 96.964 60.0995C98.0867 61.2318 98.0802 62.0424 96.9447 63.1876C95.1336 65.0115 93.3129 66.8258 91.4858 68.6369C90.4532 69.6598 89.5461 69.7724 88.7547 69.0164C87.9698 68.2637 88.1082 67.2536 89.1472 66.205C89.9675 65.3782 90.7942 64.558 91.6145 63.728C91.6659 63.6766 91.6852 63.5929 91.7689 63.4289C88.6228 63.4289 85.5251 63.4289 82.3179 63.4289C81.8611 67.7201 80.2817 71.5931 77.5731 74.8292C79.8378 77.097 82.0187 79.2812 84.3767 81.6424C84.3767 80.5551 84.3734 79.5901 84.3767 78.625C84.3767 78.1039 84.3638 77.5796 84.396 77.0617C84.4539 76.1159 85.0136 75.5626 85.9175 75.4951C86.8954 75.4211 87.5549 75.9583 87.6868 76.9265C87.7961 77.7147 87.7479 78.5285 87.7511 79.3295C87.7575 81.3754 87.7704 83.4245 87.7447 85.4704C87.7254 86.9855 87.1238 87.5902 85.6055 87.6031C82.9516 87.6256 80.2978 87.6256 77.6439 87.6031C76.3636 87.5902 75.5819 86.8986 75.5916 85.8821C75.6012 84.8688 76.3733 84.2544 77.6825 84.2415C78.9917 84.2319 80.301 84.2383 81.5169 84.2383C79.3102 82.0123 77.126 79.812 74.9933 77.6632C73.2948 78.6121 71.5545 79.7991 69.6502 80.5873C67.7426 81.3786 65.671 81.7743 63.5318 82.3854C63.5318 85.2709 63.5318 88.3816 63.5318 91.7206C64.365 90.9068 65.1113 90.1797 65.8575 89.4528C66.2017 89.115 66.5138 88.7354 66.8998 88.4556C67.6397 87.9216 68.4213 87.9216 69.0904 88.5714C69.7563 89.2179 69.8818 90.0833 69.2545 90.7363C67.1153 92.9655 64.944 95.169 62.6568 97.2471C62.2933 97.5784 61.0356 97.4883 60.627 97.1152C58.4621 95.1433 56.4162 93.0363 54.3671 90.9389C53.6466 90.2023 53.6273 89.3176 54.3832 88.581C55.136 87.8476 56.0109 87.8958 56.7508 88.6035C57.793 89.6007 58.7677 90.6623 59.9708 91.904C59.9708 88.4652 59.9708 85.3385 59.9708 82.1506C55.6603 81.7035 51.813 80.1305 48.5672 77.4445C46.3058 79.7059 44.1216 81.8772 41.7605 84.2255ZM78.9885 61.6918C79.0303 52.2344 71.3583 44.4916 61.9009 44.4465C52.318 44.4015 44.6009 51.9964 44.5334 61.5309C44.4658 71.0591 52.1025 78.7601 61.6789 78.8245C71.2167 78.892 78.9435 71.2425 78.9885 61.6918Z" fill="url(#paint3_linear_14_319)"/>
<path d="M61.8783 20.089C56.2747 20.1308 51.7165 15.6562 51.6746 10.0687C51.636 4.59046 56.1878 0.0226023 61.7078 8.47372e-05C67.2472 -0.0224329 71.7925 4.4457 71.8472 9.96573C71.9019 15.4761 67.4016 20.0472 61.8783 20.089ZM61.7529 16.7178C65.5101 16.6985 68.5082 13.6843 68.4696 9.96894C68.431 6.33718 65.3653 3.34556 61.7111 3.37451C58.0535 3.40346 55.0523 6.42403 55.0555 10.0751C55.0555 13.7101 58.1082 16.7371 61.7529 16.7178Z" fill="url(#paint4_linear_14_319)"/>
<path d="M98.2861 108.159C92.7146 108.149 88.2625 103.697 88.2625 98.1287C88.2625 92.57 92.7178 88.0923 98.2764 88.073C103.877 88.0504 108.38 92.5668 108.358 98.1801C108.335 103.745 103.874 108.165 98.2861 108.159ZM98.315 91.4699C94.5996 91.4635 91.653 94.3843 91.6402 98.0901C91.6273 101.809 94.5417 104.765 98.2442 104.784C102.027 104.804 104.99 101.867 104.983 98.1029C104.977 94.4068 102.034 91.4763 98.315 91.4699Z" fill="url(#paint5_linear_14_319)"/>
<path d="M35.2593 98.1156C35.2593 103.687 30.8233 108.136 25.255 108.155C19.6321 108.175 15.1479 103.694 15.1704 98.0738C15.1897 92.5151 19.661 88.0856 25.2357 88.0985C30.8137 88.1113 35.2593 92.5537 35.2593 98.1156ZM31.8816 98.1092C31.8784 94.4098 28.9383 91.4793 25.2197 91.4697C21.5043 91.46 18.5512 94.3841 18.5384 98.0866C18.5255 101.854 21.485 104.807 25.2583 104.787C28.9704 104.765 31.8849 101.825 31.8816 98.1092Z" fill="url(#paint6_linear_14_319)"/>
<path d="M25.1812 15.1285C30.7591 15.1124 35.2369 19.5451 35.2594 25.1005C35.2819 30.6753 30.862 35.1595 25.3066 35.1949C19.6708 35.2303 15.1673 30.7782 15.164 25.1649C15.164 19.603 19.6129 15.1445 25.1812 15.1285ZM25.2165 31.8172C28.9191 31.8301 31.8753 28.8899 31.8882 25.1874C31.8978 21.4784 28.9641 18.5158 25.2712 18.4997C21.5462 18.4868 18.5738 21.3884 18.5385 25.0748C18.5031 28.8449 21.4368 31.8044 25.2165 31.8172Z" fill="url(#paint7_linear_14_319)"/>
<path d="M98.3215 35.1885C92.7435 35.1917 88.2818 30.7654 88.2658 25.2132C88.2497 19.5967 92.7242 15.1253 98.3472 15.1414C103.899 15.1575 108.351 19.6256 108.345 25.1778C108.342 30.7332 103.88 35.1853 98.3215 35.1885ZM98.3408 31.8205C102.056 31.8076 104.983 28.8739 104.983 25.1649C104.983 21.4077 102.001 18.4676 98.225 18.503C94.5256 18.5383 91.6209 21.4978 91.6434 25.2196C91.6627 28.919 94.6189 31.8334 98.3408 31.8205Z" fill="url(#paint8_linear_14_319)"/>
<path d="M61.8655 74.5076C54.6856 74.5494 48.9372 68.8557 48.876 61.6468C48.8149 54.5924 54.5666 48.8343 61.7239 48.7796C68.817 48.7249 74.6008 54.4541 74.6458 61.5728C74.6876 68.682 68.9714 74.469 61.8655 74.5076ZM61.843 52.1573C56.5159 52.1347 52.2698 56.3391 52.2537 61.6597C52.2344 66.8838 56.4999 71.1428 61.7432 71.1428C67.0156 71.1428 71.2392 66.9513 71.2682 61.6983C71.2939 56.442 67.0831 52.1766 61.843 52.1573Z" fill="url(#paint9_linear_14_319)"/>
<defs>
<linearGradient id="paint0_linear_14_319" x1="61.762" y1="103.195" x2="61.762" y2="123.3" gradientUnits="userSpaceOnUse">
<stop stop-color="#1CA7FB"/>
<stop offset="1" stop-color="#17FCD7"/>
</linearGradient>
<linearGradient id="paint1_linear_14_319" x1="10.069" y1="51.5736" x2="10.069" y2="71.6671" gradientUnits="userSpaceOnUse">
<stop stop-color="#1CA7FB"/>
<stop offset="1" stop-color="#17FCD7"/>
</linearGradient>
<linearGradient id="paint2_linear_14_319" x1="113.454" y1="51.5645" x2="113.454" y2="71.6718" gradientUnits="userSpaceOnUse">
<stop stop-color="#1CA7FB"/>
<stop offset="1" stop-color="#17FCD7"/>
</linearGradient>
<linearGradient id="paint3_linear_14_319" x1="61.7539" y1="25.656" x2="61.7539" y2="97.4518" gradientUnits="userSpaceOnUse">
<stop stop-color="#1CA7FB"/>
<stop offset="1" stop-color="#17FCD7"/>
</linearGradient>
<linearGradient id="paint4_linear_14_319" x1="61.761" y1="0" x2="61.761" y2="20.0893" gradientUnits="userSpaceOnUse">
<stop stop-color="#1CA7FB"/>
<stop offset="1" stop-color="#17FCD7"/>
</linearGradient>
<linearGradient id="paint5_linear_14_319" x1="98.3102" y1="88.0729" x2="98.3102" y2="108.159" gradientUnits="userSpaceOnUse">
<stop stop-color="#1CA7FB"/>
<stop offset="1" stop-color="#17FCD7"/>
</linearGradient>
<linearGradient id="paint6_linear_14_319" x1="25.2148" y1="88.0984" x2="25.2148" y2="108.155" gradientUnits="userSpaceOnUse">
<stop stop-color="#1CA7FB"/>
<stop offset="1" stop-color="#17FCD7"/>
</linearGradient>
<linearGradient id="paint7_linear_14_319" x1="25.2118" y1="15.1284" x2="25.2118" y2="35.1951" gradientUnits="userSpaceOnUse">
<stop stop-color="#1CA7FB"/>
<stop offset="1" stop-color="#17FCD7"/>
</linearGradient>
<linearGradient id="paint8_linear_14_319" x1="98.3054" y1="15.1414" x2="98.3054" y2="35.1885" gradientUnits="userSpaceOnUse">
<stop stop-color="#1CA7FB"/>
<stop offset="1" stop-color="#17FCD7"/>
</linearGradient>
<linearGradient id="paint9_linear_14_319" x1="61.7608" y1="48.7792" x2="61.7608" y2="74.5078" gradientUnits="userSpaceOnUse">
<stop stop-color="#1CA7FB"/>
<stop offset="1" stop-color="#17FCD7"/>
</linearGradient>
</defs>
</svg>
