<svg width="151" height="127" viewBox="0 0 151 127" fill="none" xmlns="http://www.w3.org/2000/svg">
<path d="M0.0047466 123.267C0.859135 122.18 1.98883 121.876 3.34635 121.905C6.47911 121.971 9.61187 121.924 12.944 121.924C12.944 121.24 12.944 120.671 12.944 120.101C12.944 110 12.944 99.8997 12.944 89.7941C12.944 87.1693 13.5943 86.5285 16.2666 86.5237C22.6413 86.519 29.016 86.519 35.3907 86.5237C37.8067 86.5285 38.5282 87.2594 38.5282 89.7039C38.5329 99.8047 38.5282 109.905 38.5282 120.011C38.5282 120.59 38.5282 121.164 38.5282 121.829C41.1056 121.829 43.5358 121.829 46.1939 121.829C46.1939 121.264 46.1939 120.699 46.1939 120.134C46.1939 105.572 46.1939 91.0045 46.1939 76.4419C46.1939 73.8361 46.8062 73.2095 49.3694 73.2095C55.7441 73.2048 62.1188 73.2048 68.4935 73.2095C70.9664 73.2095 71.6025 73.8455 71.6025 76.3565C71.6072 90.8716 71.6072 105.387 71.6072 119.902C71.6072 120.486 71.6072 121.065 71.6072 121.782C74.1846 121.782 76.6386 121.782 79.2967 121.782C79.2967 121.131 79.2967 120.509 79.2967 119.892C79.2967 106.654 79.2967 93.411 79.2967 80.1728C79.2967 77.1017 79.8188 76.5796 82.8994 76.5796C89.1269 76.5796 95.3545 76.5748 101.582 76.5796C104.25 76.5796 104.862 77.1966 104.862 79.8927C104.867 93.2307 104.862 106.569 104.862 119.907C104.862 120.486 104.862 121.07 104.862 121.782C107.444 121.782 109.908 121.782 112.551 121.782C112.551 121.126 112.551 120.5 112.551 119.878C112.551 99.088 112.551 78.2931 112.551 57.503C112.551 54.337 113.05 53.8434 116.225 53.8434C122.453 53.8434 128.68 53.8386 134.908 53.8434C137.257 53.8434 137.988 54.5743 137.988 56.9144C137.993 77.9514 137.988 98.9883 137.988 120.025C137.988 120.6 137.988 121.179 137.988 121.914C138.962 121.914 139.778 121.914 140.599 121.914C143.2 121.919 145.797 121.881 148.398 121.943C149.888 121.981 150.657 122.816 150.633 124.117C150.61 125.47 149.741 126.357 148.317 126.466C147.975 126.495 147.629 126.476 147.287 126.476C99.2799 126.476 51.2728 126.471 3.26092 126.495C1.88915 126.495 0.759456 126.229 0 125.014C0.0047466 124.444 0.0047466 123.856 0.0047466 123.267ZM133.356 121.838C133.356 100.697 133.356 79.6459 133.356 58.5567C127.911 58.5567 122.553 58.5567 117.203 58.5567C117.203 79.7218 117.203 100.773 117.203 121.838C122.628 121.838 127.954 121.838 133.356 121.838ZM67.003 121.838C67.003 107.124 67.003 92.4997 67.003 77.8279C61.5682 77.8279 56.214 77.8279 50.8503 77.8279C50.8503 92.5567 50.8503 107.176 50.8503 121.838C56.2947 121.838 61.6156 121.838 67.003 121.838ZM100.073 121.834C100.073 108.254 100.073 94.7686 100.073 81.2502C94.6377 81.2502 89.3168 81.2502 83.9484 81.2502C83.9484 94.8208 83.9484 108.32 83.9484 121.834C89.3643 121.834 94.6852 121.834 100.073 121.834ZM33.7483 121.838C33.7483 111.591 33.7483 101.428 33.7483 91.2371C28.3087 91.2371 22.9546 91.2371 17.5957 91.2371C17.5957 101.499 17.5957 111.652 17.5957 121.838C23.0495 121.838 28.3657 121.838 33.7483 121.838Z" fill="url(#paint0_linear_14_326)"/>
<path d="M104.601 20.5553C104.772 8.85014 114.009 -0.168403 125.643 0.00722145C137.139 0.178099 146.124 9.5384 145.939 21.1486C145.759 32.2841 136.27 41.4878 125.073 41.3739C113.586 41.26 104.435 31.9519 104.601 20.5553ZM141.392 20.916C141.577 12.0826 134.372 4.73958 125.377 4.58769C116.52 4.44055 109.248 11.4703 109.015 20.4034C108.787 29.0944 115.959 36.594 124.679 36.7792C133.921 36.9785 141.197 30.0722 141.392 20.916Z" fill="url(#paint1_linear_14_326)"/>
<path d="M89.4591 66.9155C88.7614 66.6686 88.2013 66.5025 87.6649 66.2842C78.4897 62.4869 69.3051 58.7086 60.1536 54.8496C59.0429 54.3797 58.3072 54.5505 57.3816 55.2151C47.8362 62.0787 38.2575 68.8948 28.6884 75.7251C28.3324 75.9815 27.9764 76.252 27.5872 76.4561C26.5192 77.0162 25.5604 76.7884 24.8437 75.8581C24.1317 74.9325 24.1791 73.9262 24.9149 73.0243C25.2186 72.6541 25.6506 72.3835 26.0445 72.0987C36.1263 64.8934 46.2318 57.7165 56.2804 50.4685C57.6427 49.4859 58.8151 49.3673 60.3387 50.0128C69.3953 53.8433 78.4897 57.5836 87.5462 61.4046C88.581 61.8413 89.2645 61.7749 90.1616 61.0486C97.2151 55.3575 104.33 49.7375 111.407 44.0795C112.361 43.3201 113.444 42.76 114.464 43.5337C115.081 44.0036 115.471 45.0241 115.561 45.8405C115.618 46.3627 115.058 47.1126 114.569 47.5018C106.798 53.7104 99.0045 59.8857 91.1916 66.0421C90.6885 66.4455 90.0097 66.6449 89.4591 66.9155Z" fill="url(#paint2_linear_14_326)"/>
<path d="M123.331 7.35022C124.56 7.35022 125.576 7.35022 126.744 7.35022C126.744 8.2141 126.744 9.02102 126.744 9.85643C127.907 10.1507 128.927 10.407 130.071 10.6966C129.929 11.8785 129.791 12.9749 129.639 14.2233C128.595 13.9812 127.665 13.7202 126.72 13.5635C124.437 13.179 123.032 14.1616 123.293 16.0982C123.388 16.7865 123.996 17.5934 124.603 17.9779C125.747 18.7041 127.076 19.1265 128.296 19.7483C130.517 20.878 131.884 22.639 131.832 25.2117C131.78 27.7749 130.57 29.7115 128.192 30.7605C127.389 31.1117 127.052 31.5437 127.152 32.398C127.214 32.9154 127.162 33.4471 127.162 34.0499C126.018 34.0499 125.011 34.0499 123.882 34.0499C123.829 33.1765 123.782 32.3221 123.73 31.444C122.026 31.0358 120.374 30.6466 118.532 30.2051C118.651 29.0137 118.774 27.7749 118.884 26.6926C120.825 27.0391 122.667 27.4663 124.532 27.6704C125.847 27.8128 127.029 27.2005 127.389 25.8667C127.783 24.419 126.924 23.4602 125.624 22.8811C124.551 22.4064 123.464 21.965 122.42 21.4334C120.241 20.3132 118.922 18.5047 118.974 16.0507C119.026 13.573 120.07 11.532 122.458 10.3548C122.856 10.1555 123.16 9.56688 123.298 9.09222C123.44 8.59383 123.331 8.03373 123.331 7.35022Z" fill="url(#paint3_linear_14_326)"/>
<defs>
<linearGradient id="paint0_linear_14_326" x1="75.317" y1="53.8412" x2="75.317" y2="126.495" gradientUnits="userSpaceOnUse">
<stop stop-color="#1CA7FB"/>
<stop offset="1" stop-color="#17FCD7"/>
</linearGradient>
<linearGradient id="paint1_linear_14_326" x1="125.27" y1="0.00469971" x2="125.27" y2="41.3749" gradientUnits="userSpaceOnUse">
<stop stop-color="#1CA7FB"/>
<stop offset="1" stop-color="#17FCD7"/>
</linearGradient>
<linearGradient id="paint2_linear_14_326" x1="69.9501" y1="43.1625" x2="69.9501" y2="76.7587" gradientUnits="userSpaceOnUse">
<stop stop-color="#1CA7FB"/>
<stop offset="1" stop-color="#17FCD7"/>
</linearGradient>
<linearGradient id="paint3_linear_14_326" x1="125.183" y1="7.35022" x2="125.183" y2="34.0499" gradientUnits="userSpaceOnUse">
<stop stop-color="#1CA7FB"/>
<stop offset="1" stop-color="#17FCD7"/>
</linearGradient>
</defs>
</svg>
