<svg width="124" height="124" viewBox="0 0 124 124" fill="none" xmlns="http://www.w3.org/2000/svg">
<path d="M124 75.8291C124 85.2163 124 94.6068 124 103.994C123.389 106.297 122.151 108.094 120.031 109.307C112.866 113.404 105.727 117.549 98.5814 121.681C96.3528 122.971 94.0631 123.177 91.6576 122.209C91.307 122.067 90.8343 122.135 90.4387 122.209C88.6861 122.534 86.9398 123.199 85.1872 123.203C60.7173 123.27 36.2475 123.248 11.7777 123.248C4.93747 123.248 0.750359 119.07 0.750359 112.246C0.750359 87.5768 0.750359 62.9044 0.750359 38.2351C0.750359 28.9283 0.721416 19.6215 0.763222 10.3146C0.782518 5.93135 2.84713 2.75404 6.81556 0.875947C7.63561 0.486823 8.54571 0.287436 9.41401 0.0012207C35.4114 0.0012207 61.4088 0.0012207 87.4094 0.0012207C87.7116 0.094482 88.0075 0.200607 88.313 0.274573C92.6706 1.33904 95.8993 5.15632 96.0215 9.59427C96.0505 10.6008 96.4653 10.9578 97.2532 11.3212C103.904 14.3988 110.545 17.499 117.179 20.612C123.148 23.413 125.174 29.028 122.392 35.0128C119.218 41.8402 116.034 48.6611 112.854 55.4853C111.506 58.3796 110.155 61.2739 108.766 64.255C112.062 66.1589 115.243 68.0916 118.514 69.8507C121.067 71.2271 123.17 72.9187 124 75.8291ZM65.2228 95.3271C64.6054 95.3271 64.1262 95.3271 63.6502 95.3271C46.7603 95.3271 29.8704 95.3271 12.9804 95.3271C12.6589 95.3271 12.3373 95.3303 12.0189 95.3239C11.0831 95.311 10.427 94.8833 10.4142 93.9153C10.3981 92.8798 11.0798 92.4425 12.0671 92.436C12.3887 92.436 12.7103 92.436 13.0287 92.436C29.9572 92.436 46.8857 92.436 63.8175 92.436C64.2806 92.436 64.7404 92.436 65.1939 92.436C65.1939 89.1397 65.1939 86.0267 65.1939 82.8076C64.66 82.8076 64.1873 82.8076 63.7146 82.8076C47.5868 82.8076 31.459 82.8076 15.3313 82.8076C12.0607 82.8076 10.3788 81.116 10.3788 77.8358C10.3756 59.6627 10.3788 41.4896 10.3788 23.3165C10.3788 19.9624 12.0478 18.2965 15.3988 18.2965C37.3827 18.2965 59.3667 18.2965 81.3506 18.2965C84.8013 18.2965 86.4414 19.9302 86.4446 23.3712C86.4446 35.3665 86.4446 47.3619 86.4446 59.3572C86.4446 59.7785 86.4446 60.1966 86.4446 60.8269C87.4769 60.2352 88.2937 59.7495 89.1266 59.2929C90.1075 58.7526 91.0594 58.1094 92.1078 57.7525C93.005 57.447 93.2108 57.0289 93.2076 56.1349C93.1755 41.0523 93.1883 25.9665 93.1851 10.8838C93.1851 5.82201 90.2554 2.89554 85.1968 2.89554C60.6852 2.89554 36.1736 2.89554 11.6619 2.89554C6.53899 2.89554 3.63824 5.81236 3.63824 10.9675C3.63824 44.7473 3.63824 78.524 3.63824 112.304C3.63824 117.453 6.5422 120.366 11.6748 120.366C36.1478 120.366 60.6176 120.366 85.0907 120.366C85.6117 120.366 86.1358 120.373 86.6536 120.321C86.9688 120.289 87.2711 120.154 87.7438 120.022C87.1778 119.678 86.8112 119.443 86.4317 119.228C80.7749 115.96 75.1117 112.706 69.471 109.416C68.6831 108.956 67.8792 108.432 67.2842 107.76C66.6893 107.088 66.0943 106.872 65.2293 106.875C47.8183 106.898 30.4074 106.892 12.9965 106.892C12.6749 106.892 12.3533 106.892 12.035 106.888C11.0991 106.882 10.4399 106.461 10.4142 105.496C10.3884 104.464 11.0606 104.013 12.0543 104.004C12.3759 104 12.6974 104.004 13.0158 104.004C29.9443 104.004 46.8761 104.004 63.8046 104.004C64.2741 104.004 64.7404 104.004 65.2228 104.004C65.2228 101.058 65.2228 98.2665 65.2228 95.3271ZM65.2582 79.9197C65.2582 79.2894 65.2839 78.8134 65.255 78.3407C65.0363 74.7067 66.6024 72.1726 69.7958 70.4231C74.118 68.0562 78.3341 65.4996 82.6241 63.0716C83.3477 62.6599 83.5824 62.1969 83.5792 61.38C83.5535 48.7447 83.5599 36.1094 83.5599 23.4741C83.5599 21.5349 83.2062 21.1844 81.238 21.1844C59.3763 21.1844 37.5146 21.1844 15.6529 21.1844C13.5979 21.1844 13.2699 21.506 13.2699 23.532C13.2699 41.5443 13.2699 59.5534 13.2699 77.5657C13.2699 79.6013 13.5947 79.9197 15.6464 79.9229C31.7324 79.9229 47.8183 79.9229 63.9011 79.9229C64.2966 79.9197 64.6922 79.9197 65.2582 79.9197ZM121.118 90.0595C121.118 85.8884 121.106 81.7174 121.125 77.5496C121.131 75.6972 120.379 74.308 118.774 73.3818C111.525 69.1947 104.274 65.014 97.0249 60.8269C95.4266 59.9039 93.8412 59.9039 92.2396 60.8301C84.991 65.0204 77.7423 69.2043 70.4905 73.3882C68.9308 74.2887 68.1461 75.6265 68.1461 77.4338C68.1493 85.8145 68.1525 94.1951 68.1429 102.576C68.1396 104.435 68.9404 105.792 70.5419 106.715C77.7584 110.876 84.9749 115.041 92.185 119.215C93.8283 120.167 95.4363 120.164 97.0796 119.215C104.257 115.063 111.435 110.915 118.626 106.785C120.363 105.788 121.151 104.338 121.131 102.338C121.09 98.2407 121.118 94.1501 121.118 90.0595ZM106.197 62.7757C106.361 62.4895 106.451 62.3577 106.518 62.2162C111.04 52.5331 115.587 42.8596 120.06 33.154C121.823 29.3303 120.276 25.2718 116.449 23.4613C109.937 20.3804 103.396 17.3575 96.8673 14.3152C96.6583 14.2187 96.4364 14.148 96.0794 14.0129C96.0794 14.5661 96.0794 14.9906 96.0794 15.4183C96.0794 28.6871 96.0987 41.9592 96.0505 55.228C96.0441 56.6333 96.1148 57.6849 97.771 57.9905C98.3306 58.0934 98.8355 58.5275 99.3564 58.8266C101.604 60.1194 103.849 61.4218 106.197 62.7757Z" fill="url(#paint0_linear_14_336)"/>
<path d="M22.9339 9.63008C26.4231 9.63008 29.9092 9.62686 33.3984 9.63329C34.7073 9.63651 35.3666 10.0996 35.4019 11.0193C35.4405 11.9809 34.7362 12.5147 33.3856 12.518C26.3685 12.5212 19.3513 12.5212 12.3342 12.518C11.0607 12.518 10.3854 12.0002 10.3886 11.0708C10.3918 10.1318 11.0511 9.63651 12.3439 9.63651C15.875 9.62686 19.4028 9.63008 22.9339 9.63008Z" fill="url(#paint1_linear_14_336)"/>
<path d="M62.2996 49.1014C62.1228 50.6546 61.5085 51.9088 60.2189 52.671C56.9773 54.5813 53.7003 56.4368 50.4137 58.2667C49.0533 59.0224 47.619 58.9581 46.2716 58.2024C43.0943 56.4175 39.9202 54.6263 36.7814 52.7771C34.72 51.5615 34.0093 49.1174 35.1896 47.0335C38.3251 41.4925 41.4927 35.9708 44.7504 30.4973C46.4517 27.6352 50.4072 27.6577 52.1149 30.5327C55.3469 35.9708 58.4791 41.47 61.6114 46.966C61.9748 47.5995 62.0777 48.3842 62.2996 49.1014ZM59.4085 49.2075C59.2124 48.7058 59.132 48.3939 58.9776 48.1237C55.9225 42.8207 52.8706 37.5112 49.7866 32.2243C49.0372 30.9379 47.8023 30.9443 47.053 32.2307C43.969 37.5177 40.9107 42.8207 37.862 48.1302C37.2767 49.1528 37.4696 49.8442 38.4987 50.4392C41.4767 52.1629 44.4514 53.8931 47.4807 55.5235C47.9792 55.7904 48.8668 55.7969 49.3653 55.53C52.3946 53.9027 55.3758 52.179 58.3376 50.4327C58.7943 50.1626 59.0773 49.5998 59.4085 49.2075Z" fill="url(#paint2_linear_14_336)"/>
<path d="M48.5485 72.9538C47.0756 72.9409 45.9308 72.4199 45.0657 71.378C41.8176 67.461 38.5728 63.5376 35.3537 59.5949C34.4403 58.4758 34.4596 57.2473 35.299 56.3211C36.1223 55.411 37.3475 55.2759 38.576 56.0381C41.3996 57.7908 44.2296 59.5402 47.0081 61.3636C48.0308 62.0358 48.8669 61.994 49.867 61.3411C52.5491 59.5885 55.273 57.9033 57.9872 56.1989C59.4312 55.292 60.6982 55.3628 61.5633 56.3725C62.4091 57.363 62.3351 58.5658 61.2867 59.8425C58.1834 63.6212 55.0639 67.387 51.9574 71.1625C51.0408 72.2784 49.896 72.9184 48.5485 72.9538ZM40.0071 60.3538C39.9653 60.4021 39.9235 60.4471 39.8817 60.4953C39.9556 60.6143 40.0199 60.7462 40.11 60.8523C42.4029 63.6341 44.6894 66.419 46.992 69.1879C48.0083 70.41 48.8122 70.4068 49.8381 69.1847C51.2531 67.4964 52.6392 65.7855 54.0381 64.0843C55.0093 62.9008 55.9837 61.7174 56.9549 60.5372C54.945 61.5341 53.0701 62.6629 51.2435 63.8656C49.3171 65.1359 47.468 65.1262 45.5449 63.8399C43.7343 62.6307 41.8594 61.5148 40.0071 60.3538Z" fill="url(#paint3_linear_14_336)"/>
<path d="M83.0777 91.5296C83.0777 88.9376 83.0777 86.3456 83.0777 83.7536C83.0777 83.3934 83.0456 83.0268 83.1002 82.673C83.2289 81.853 83.7691 81.2452 84.5603 81.4317C85.0909 81.5571 85.7019 82.152 85.8949 82.6762C86.1296 83.313 85.9656 84.0977 85.9656 84.8212C85.9656 88.7897 85.956 92.7581 85.9753 96.7265C85.9785 97.6013 85.8273 98.3666 84.8819 98.6271C83.9203 98.8908 83.4315 98.2509 82.9941 97.5177C81.1932 94.4915 79.373 91.4782 77.4209 88.2269C77.3631 88.7575 77.3084 89.0437 77.3052 89.3299C77.2987 91.8544 77.3116 94.3821 77.2955 96.9066C77.2891 98.0515 76.7006 98.759 75.8066 98.6754C74.771 98.5789 74.4076 97.9003 74.4109 96.9259C74.4205 92.3143 74.4205 87.7059 74.4109 83.0943C74.4076 82.2807 74.6906 81.5089 75.4946 81.4831C76.0735 81.4638 76.9128 81.8755 77.2216 82.3579C79.1543 85.3969 80.9681 88.5099 82.8204 91.5972C82.9041 91.5779 82.9909 91.5554 83.0777 91.5296Z" fill="url(#paint4_linear_14_336)"/>
<path d="M91.7991 84.2544C91.7991 85.9299 91.7991 87.4381 91.7991 89.0686C93.7255 89.0686 95.5971 89.0622 97.4688 89.0718C98.7777 89.0783 99.4241 89.5542 99.4337 90.4997C99.4433 91.4323 98.768 91.9501 97.4977 91.9565C95.6228 91.9661 93.748 91.9597 91.7413 91.9597C91.7413 93.6513 91.7284 95.2432 91.7477 96.8318C91.7605 97.8416 91.4357 98.5909 90.323 98.6745C89.429 98.7421 88.863 98.041 88.8598 96.8801C88.8502 92.3103 88.8469 87.7372 88.8598 83.1674C88.863 81.8618 89.3679 81.3794 90.6993 81.3697C93.346 81.3569 95.9927 81.3729 98.6394 81.3633C99.6138 81.3601 100.296 81.7267 100.386 82.7654C100.466 83.6659 99.7649 84.2448 98.6136 84.2512C96.3754 84.2641 94.1371 84.2544 91.7991 84.2544Z" fill="url(#paint5_linear_14_336)"/>
<path d="M110.519 84.252C110.519 87.3585 110.519 90.3172 110.519 93.2726C110.519 94.4753 110.532 95.6781 110.516 96.8776C110.5 98.0386 109.953 98.6978 109.053 98.6849C108.155 98.6721 107.638 98.0225 107.634 96.8358C107.625 93.1086 107.631 89.3846 107.631 85.6573C107.631 85.2264 107.631 84.7987 107.631 84.252C106.647 84.252 105.776 84.2616 104.904 84.2488C103.965 84.2359 103.335 83.7824 103.328 82.8177C103.322 81.8529 103.946 81.3769 104.888 81.3737C107.692 81.3609 110.496 81.3577 113.301 81.3769C114.246 81.3834 114.844 81.8979 114.819 82.8595C114.796 83.7567 114.208 84.223 113.32 84.2455C112.449 84.2713 111.571 84.252 110.519 84.252Z" fill="url(#paint6_linear_14_336)"/>
<defs>
<linearGradient id="paint0_linear_14_336" x1="62.3703" y1="123.251" x2="62.3703" y2="0.0012207" gradientUnits="userSpaceOnUse">
<stop stop-color="#1CA7FB"/>
<stop offset="1" stop-color="#17FCD7"/>
</linearGradient>
<linearGradient id="paint1_linear_14_336" x1="22.896" y1="12.5204" x2="22.896" y2="9.62927" gradientUnits="userSpaceOnUse">
<stop stop-color="#1CA7FB"/>
<stop offset="1" stop-color="#17FCD7"/>
</linearGradient>
<linearGradient id="paint2_linear_14_336" x1="48.4595" y1="58.8024" x2="48.4595" y2="28.3635" gradientUnits="userSpaceOnUse">
<stop stop-color="#1CA7FB"/>
<stop offset="1" stop-color="#17FCD7"/>
</linearGradient>
<linearGradient id="paint3_linear_14_336" x1="48.4052" y1="72.9538" x2="48.4052" y2="55.5427" gradientUnits="userSpaceOnUse">
<stop stop-color="#1CA7FB"/>
<stop offset="1" stop-color="#17FCD7"/>
</linearGradient>
<linearGradient id="paint4_linear_14_336" x1="80.2161" y1="98.6877" x2="80.2161" y2="81.3978" gradientUnits="userSpaceOnUse">
<stop stop-color="#1CA7FB"/>
<stop offset="1" stop-color="#17FCD7"/>
</linearGradient>
<linearGradient id="paint5_linear_14_336" x1="94.6216" y1="98.679" x2="94.6216" y2="81.3633" gradientUnits="userSpaceOnUse">
<stop stop-color="#1CA7FB"/>
<stop offset="1" stop-color="#17FCD7"/>
</linearGradient>
<linearGradient id="paint6_linear_14_336" x1="109.074" y1="98.6851" x2="109.074" y2="81.3633" gradientUnits="userSpaceOnUse">
<stop stop-color="#1CA7FB"/>
<stop offset="1" stop-color="#17FCD7"/>
</linearGradient>
</defs>
</svg>
