<svg width="121" height="121" viewBox="0 0 121 121" fill="none" xmlns="http://www.w3.org/2000/svg">
<path d="M47.8897 27.3463C50.2002 28.2765 51.1571 30.1569 51.8439 32.2874C52.3907 33.9844 53.0675 35.6415 53.681 37.3185C55.1179 41.2393 54.4845 43.3398 51.0337 45.9037C51.9772 47.3007 52.9341 48.701 53.8743 50.1113C54.8579 51.5849 54.8179 52.5785 53.3709 53.5154C50.7703 55.2057 49.4367 57.2429 49.0966 60.5536C48.6098 65.2546 45.5692 68.5953 41.2249 70.6058C40.4347 70.9725 39.6012 71.2459 38.7877 71.5627C37.8242 71.9394 37.6775 72.7663 38.5043 73.3897C39.7346 74.3166 41.0215 75.1668 42.2485 76.097C47.3596 79.9612 50.6636 85.0023 52.0806 91.257C52.4007 92.6673 51.8505 93.7175 50.6736 94.0042C49.5334 94.281 48.5665 93.5708 48.2231 92.1305C46.8461 86.3692 43.6854 81.8449 38.7877 78.5175C38.5877 78.3808 38.3809 78.2575 38.1576 78.1108C37.204 82.3584 34.9002 84.3621 31.2694 84.0387C28.1054 83.7553 25.5815 82.2883 23.7611 79.6644C23.5277 79.3277 23.3243 78.9676 23.0276 78.4975C20.7904 80.8447 18.93 83.3352 17.7131 86.2825C16.6529 88.8464 16.0327 91.5104 16.0227 94.2843C15.9927 101.272 16.0094 108.261 16.0127 115.252C16.0127 115.456 16.0327 115.659 16.0527 116.039C16.5562 116.039 17.0363 116.039 17.5197 116.039C28.6888 116.039 39.8579 116.039 51.0237 116.039C51.4405 116.039 51.8672 115.999 52.2706 116.072C53.3475 116.266 53.9977 116.936 53.9977 118.036C53.9977 119.14 53.3442 119.8 52.2673 120C51.9039 120.067 51.5205 120.03 51.1437 120.03C39.0578 120.03 26.9718 120.03 14.8892 120.03C12.5887 120.03 12.0052 119.453 12.0052 117.166C12.0052 109.801 12.0085 102.439 12.0052 95.0745C12.0019 88.6764 14.0223 83.0018 18.0999 78.0607C19.1868 76.7438 20.3303 75.4735 21.3539 74.1099C21.7173 73.6264 21.8873 72.9496 21.9974 72.3362C22.6342 68.8021 21.3839 66.1115 18.62 63.7843C16.2094 61.7572 14.1557 59.3066 11.9652 57.0228C11.4951 56.5327 11.1017 56.346 10.3548 56.546C7.92097 57.1995 5.7805 56.5294 4.18682 54.5856C2.5698 52.6118 2.29641 50.3513 3.42665 48.0475C3.79673 47.2907 3.69338 46.7906 3.29996 46.1271C2.03302 43.9933 0.456005 41.9962 0.122599 39.419C-0.294159 36.2016 0.335979 33.3109 2.25306 30.5804C6.75738 24.1489 13.0621 20.5882 20.4204 18.381C25.5548 16.8407 30.5959 14.9769 35.6303 13.1265C36.8739 12.6698 38.0509 11.8496 39.0444 10.9561C40.5547 9.59576 41.865 8.01208 43.2887 6.55176C44.6923 5.11144 46.2893 5.42151 46.9895 7.28525C48.1097 10.2792 49.2133 13.2832 50.2669 16.3039C51.3771 19.4879 50.997 22.5253 49.18 25.3759C48.7799 25.9993 48.3698 26.6161 47.8897 27.3463ZM7.1608 44.8335C14.109 42.2962 20.9838 39.7924 27.842 37.2518C28.1087 37.1518 28.4054 36.7517 28.4421 36.4616C28.7922 33.6544 30.4325 32.0173 33.0298 31.1205C36.0571 30.0769 39.0678 28.98 42.0551 27.8331C42.6252 27.6164 43.1753 27.1396 43.5421 26.6428C44.4023 25.4726 45.1558 24.2223 45.9393 22.992C46.8328 21.5851 47.1662 20.008 46.7094 18.4444C46.0226 16.1005 45.1091 13.8234 44.2322 11.3495C43.6588 11.9529 43.182 12.4064 42.7652 12.9098C40.9848 15.057 38.7277 16.4006 36.0738 17.2741C30.4959 19.1045 25.0147 21.215 19.4201 22.9587C13.6255 24.7657 9.0112 28.0231 5.49044 32.9442C3.6467 35.5214 3.49333 38.162 4.83696 40.9193C5.47043 42.2229 6.31395 43.4232 7.1608 44.8335ZM45.5225 58.1097C45.5225 57.5496 45.5592 57.1728 45.5158 56.8094C45.3325 55.2291 45.9826 54.1122 47.2962 53.2486C48.1798 52.6652 48.9633 51.9317 49.8168 51.2482C48.8832 49.8746 48.0264 48.611 47.1262 47.2873C44.4856 48.2442 41.9117 49.1811 39.3378 50.108C37.5074 50.7648 35.5437 50.8548 34.1133 49.5778C32.653 48.2742 31.4494 48.571 30.0258 49.2744C29.7657 49.4011 29.489 49.5278 29.2089 49.5745C28.1754 49.7412 27.9587 50.3447 27.9853 51.3282C28.112 56.0293 28.1287 60.7303 26.3417 65.2113C26.2483 65.4446 26.2416 65.8647 26.385 66.0148C28.0787 67.7618 29.8558 69.7156 32.5263 69.2455C35.9204 68.6487 39.2611 67.6151 42.0051 65.3813C43.0053 64.5678 43.7088 63.3842 44.5456 62.3706C43.5887 62.1039 42.9253 62.1173 42.2618 62.1006C40.8915 62.0606 40.0246 61.2804 40.0246 60.1068C40.0246 58.9299 40.8882 58.1464 42.2618 58.1164C43.2953 58.093 44.3289 58.1097 45.5225 58.1097ZM29.4357 40.946C26.4683 42.0329 23.6611 43.0664 20.8505 44.0933C16.7129 45.607 12.5686 47.1073 8.43108 48.6276C6.77405 49.2378 6.24393 50.7014 7.20414 51.9584C7.96764 52.9586 8.92785 52.8952 10.0048 52.4885C16.0361 50.2146 22.0741 47.9675 28.112 45.7137C28.9922 45.3836 29.8691 45.0535 30.8093 44.7001C30.3392 43.3998 29.9124 42.2396 29.4357 40.946ZM50.6436 40.6426C50.5736 40.5725 50.5003 40.4992 50.4302 40.4292C50.4002 40.2658 50.3869 40.0958 50.3336 39.9424C49.3767 37.2918 48.4731 34.6212 47.4263 32.0107C47.0295 31.0271 46.0826 30.677 45.0191 31.0405C43.8021 31.4539 42.5885 31.8873 41.3949 32.3641C40.0913 32.8842 39.6546 33.8144 40.128 35.1647C40.9615 37.5485 41.835 39.9224 42.7352 42.2829C43.222 43.5599 44.1322 44.0233 45.3958 43.6232C46.6594 43.2231 47.943 42.8264 49.12 42.2296C49.7368 41.9162 50.1402 41.186 50.6436 40.6426ZM34 73.233C30.3992 73.373 30.3992 73.373 26.0749 71.3259C26.0749 72.5795 25.9316 73.8265 26.1049 75.0334C26.4984 77.824 28.9422 79.9645 31.6495 80.0712C32.9798 80.1245 33.9266 79.431 33.9833 78.1974C34.0533 76.5437 34 74.8867 34 73.233ZM23.1543 62.0072C24.2179 58.9099 24.0412 55.2991 23.9678 51.5383C21.0372 52.6352 18.2699 53.6687 15.2592 54.7957C18.0132 57.3095 20.6071 59.68 23.1543 62.0072ZM35.6437 34.4712C35.3703 34.5646 34.9402 34.7013 34.5168 34.8546C32.4296 35.6081 32.0462 36.3883 32.7831 38.4287C33.5432 40.5359 34.3034 42.643 35.0869 44.7435C35.6837 46.3471 36.5972 46.7806 38.2009 46.2438C38.7844 46.0504 39.3512 45.8037 39.7179 45.6637C38.3576 41.9295 37.0307 38.2787 35.6437 34.4712Z" fill="url(#paint0_linear_14_337)"/>
<path d="M78.503 60.4969C76.5525 61.5404 74.6888 62.6507 72.7284 63.5409C71.6548 64.0277 70.4245 64.3177 69.2443 64.4011C66.9638 64.5611 65.2501 62.8774 65.6968 60.6603C66.0869 58.7065 66.9571 56.8228 67.8106 54.999C68.2741 54.0055 69.5277 53.8654 70.4279 54.4189C71.3114 54.9623 71.6115 56.0092 71.1547 57.0461C70.7379 57.9963 70.2912 58.9332 69.8677 59.8801C69.8211 59.9801 69.8444 60.1101 69.8011 60.5969C71.7582 59.59 73.5185 58.6865 75.3356 57.753C67.3639 48.4109 69.341 36.6283 75.9357 30.0502C82.5072 23.4921 94.2964 21.4817 103.678 29.4468C104.612 27.6497 105.522 25.906 106.429 24.159C106.339 24.0523 106.249 23.9456 106.159 23.8356C105.242 24.239 104.309 24.6057 103.415 25.0492C102.011 25.7493 100.878 25.5526 100.281 24.439C99.6876 23.3355 100.101 22.1919 101.558 21.5417C103.102 20.8516 104.699 20.1681 106.342 19.8447C108.776 19.3679 110.653 21.0416 110.297 23.4888C110.02 25.3726 109.22 27.2096 108.463 28.9867C107.929 30.237 107.079 31.3472 106.372 32.5208C112.63 41.7095 110.24 52.3351 104.122 58.3664C97.9905 64.4044 87.4316 66.5749 78.503 60.4969ZM101.221 32.7075C97.067 28.8933 92.266 27.3163 86.8148 28.5099C80.2433 29.9469 76.0057 34.0778 74.4554 40.6392C73.1451 46.1804 74.7321 51.0348 78.5763 55.3091C87.1115 48.701 94.5865 41.226 101.221 32.7075ZM103.935 35.7715C97.257 44.1367 90.0321 51.3349 81.9904 57.7396C86.9415 61.4804 96.3268 60.5569 100.564 55.9692C98.2006 53.4687 97.3371 50.5647 98.5807 47.274C99.8209 43.9933 102.442 42.4329 106.109 42.0129C105.382 39.9291 104.715 38.0086 103.935 35.7715ZM105.826 46.2404C103.992 46.3738 102.785 47.3007 102.258 48.931C101.771 50.4447 102.115 51.7483 103.332 52.9819C104.712 50.8548 105.602 48.6943 105.826 46.2404Z" fill="url(#paint1_linear_14_337)"/>
<path d="M77.1893 91.6172C75.999 90.0302 74.8354 88.4731 73.5951 86.8195C70.5878 88.9199 67.6238 90.987 64.6632 93.0575C62.7161 94.4144 60.779 95.7847 58.8253 97.1317C53.3441 100.903 46.906 100.986 41.3581 97.3451C38.5742 95.518 35.8003 93.6743 33.043 91.8072C31.9594 91.0737 31.7227 89.9668 32.3462 88.9966C32.9663 88.0297 34.0799 87.8197 35.1968 88.4631C35.4502 88.6065 35.6869 88.7799 35.927 88.9399C38.3875 90.5769 40.8514 92.2073 43.3086 93.851C47.6895 96.7783 52.2972 96.7916 56.6048 93.811C61.5692 90.3769 66.5136 86.9095 71.4347 83.4154C71.8448 83.122 72.1948 82.5452 72.2915 82.0451C72.7583 79.6379 73.1417 77.2174 73.5351 74.7968C73.9452 72.2629 75.2722 70.7059 77.486 70.2092C79.5498 69.7457 81.6536 70.5226 82.8105 72.7797C84.2075 75.5003 86.0912 76.4739 89.1352 76.1571C92.1058 75.8504 95.1298 76.0804 98.1305 76.0938C101.111 76.1071 103.318 77.8308 103.928 80.5981C104.499 83.192 103.135 85.7559 100.428 86.9295C94.2863 89.5901 88.235 92.494 81.5902 93.7843C81.0501 93.8877 80.5167 94.2177 80.0666 94.5545C74.2886 98.8554 68.5307 103.186 62.7561 107.494C54.9611 113.305 45.8124 113.585 37.714 108.254C33.5064 105.484 29.3188 102.68 25.1379 99.8756C23.971 99.0921 23.6943 97.9952 24.3344 96.995C24.9779 95.9915 26.1048 95.8081 27.2917 96.5249C27.6485 96.7416 27.9886 96.9783 28.3353 97.2084C32.2161 99.7889 36.097 102.376 39.9812 104.953C46.4359 109.234 53.8208 109.108 60.0422 104.527C65.5067 100.502 70.9179 96.4015 76.3491 92.3307C76.6125 92.1306 76.8525 91.9039 77.1893 91.6172ZM100.028 82.1051C100.044 80.7081 99.2807 80.088 97.9638 80.0846C93.5895 80.078 89.2185 80.0413 84.8443 80.1047C83.4706 80.1247 82.5638 79.6479 81.877 78.4876C81.1568 77.274 80.3633 76.0971 79.5164 74.9702C79.2397 74.6035 78.6829 74.25 78.2595 74.26C78.0028 74.2667 77.6227 74.9502 77.5393 75.377C77.0859 77.7408 76.6558 80.1147 76.3424 82.5018C76.2624 83.1186 76.4791 83.8955 76.8292 84.4189C77.8427 85.9359 79.0563 87.3262 80.0699 88.8432C80.6067 89.6467 81.1401 89.7268 82.0203 89.5534C88.005 88.3665 93.3595 85.5258 98.9107 83.2087C99.4408 82.9853 99.7942 82.3451 100.028 82.1051Z" fill="url(#paint2_linear_14_337)"/>
<path d="M81.9871 0C82.5839 0.343408 83.1907 0.553454 83.6141 0.96021C85.5312 2.80728 87.4149 4.69102 89.2753 6.59477C90.3289 7.67501 90.3289 8.67856 89.2687 9.76213C87.4083 11.6659 85.5245 13.5463 83.6174 15.4034C82.5339 16.4569 81.5303 16.4536 80.4501 15.3967C78.5463 13.5363 76.6593 11.6559 74.7989 9.75546C73.742 8.67523 73.7453 7.67834 74.8055 6.59477C76.6693 4.69436 78.553 2.81061 80.4634 0.96021C80.8535 0.570124 81.4103 0.35341 81.9871 0ZM84.9044 8.34182C83.9108 7.26825 82.9406 6.21802 82.0438 5.25115C81.0302 6.22136 80.02 7.19157 79.1631 8.01175C80.16 9.07531 81.1402 10.1155 82.0404 11.0791C83.0406 10.1255 84.0509 9.15867 84.9044 8.34182Z" fill="url(#paint3_linear_14_337)"/>
<path d="M62.1494 24.152C63.9798 24.152 65.8135 24.1353 67.6439 24.1554C69.7111 24.182 70.6079 25.6657 69.5744 27.4261C67.7039 30.6134 65.8002 33.7841 63.8631 36.9315C62.8596 38.5618 61.1825 38.5552 60.179 36.9248C58.2419 33.7741 56.3381 30.6068 54.4644 27.4194C53.4308 25.659 54.3277 24.182 56.4015 24.1554C58.3186 24.1353 60.2357 24.152 62.1494 24.152ZM64.4299 28.2396C62.7495 28.2396 61.2592 28.2396 59.6122 28.2396C60.4457 29.6199 61.1925 30.8568 62.026 32.2404C62.8896 30.8068 63.6131 29.6032 64.4299 28.2396Z" fill="url(#paint4_linear_14_337)"/>
<path d="M111.994 16.1631C110.16 16.1631 108.33 16.1497 106.496 16.1697C105.559 16.1797 104.762 15.9663 104.285 15.0795C103.802 14.1793 104.102 13.4091 104.669 12.6623C106.502 10.2418 108.31 7.80456 110.147 5.3907C111.334 3.83036 112.747 3.82036 113.927 5.36736C115.768 7.78122 117.575 10.2218 119.405 12.6423C119.969 13.3858 120.289 14.1526 119.812 15.0595C119.345 15.9497 118.555 16.1797 117.615 16.1697C115.744 16.1497 113.867 16.1631 111.994 16.1631ZM114.007 12.1188C113.284 11.1686 112.697 10.4018 112.037 9.53494C111.357 10.4385 110.78 11.2086 110.097 12.1188C111.467 12.1188 112.61 12.1188 114.007 12.1188Z" fill="url(#paint5_linear_14_337)"/>
<path d="M120.042 66.0381C120.052 69.3688 117.358 72.0861 114.041 72.0828C110.773 72.0794 108.076 69.4088 108.053 66.1548C108.026 62.8374 110.723 60.1268 114.057 60.1135C117.311 60.0968 120.032 62.7907 120.042 66.0381ZM116.038 66.0514C116.014 64.9812 115.104 64.0977 114.031 64.1077C112.957 64.1144 112.06 65.0079 112.054 66.0814C112.044 67.205 113.004 68.1352 114.121 68.0886C115.191 68.0419 116.061 67.1217 116.038 66.0514Z" fill="url(#paint6_linear_14_337)"/>
<path d="M88.0283 42.079C88.0349 45.4097 85.331 48.1203 82.0136 48.1103C78.7496 48.1003 76.0557 45.423 76.0357 42.169C76.0157 38.8549 78.7196 36.1477 82.0536 36.141C85.3077 36.1343 88.0249 38.8349 88.0283 42.079ZM84.0241 42.0623C83.9907 40.9921 83.0705 40.1185 82.0003 40.1352C80.9267 40.1519 80.0399 41.0554 80.0399 42.1256C80.0399 43.2492 81.0101 44.1728 82.1236 44.1127C83.1972 44.0627 84.0574 43.1325 84.0241 42.0623Z" fill="url(#paint7_linear_14_337)"/>
<defs>
<linearGradient id="paint0_linear_14_337" x1="27.2728" y1="5.64868" x2="27.2728" y2="120.04" gradientUnits="userSpaceOnUse">
<stop stop-color="#1CA7FB"/>
<stop offset="1" stop-color="#17FCD7"/>
</linearGradient>
<linearGradient id="paint1_linear_14_337" x1="87.9829" y1="19.7634" x2="87.9829" y2="64.4116" gradientUnits="userSpaceOnUse">
<stop stop-color="#1CA7FB"/>
<stop offset="1" stop-color="#17FCD7"/>
</linearGradient>
<linearGradient id="paint2_linear_14_337" x1="64.0273" y1="70.0808" x2="64.0273" y2="112.062" gradientUnits="userSpaceOnUse">
<stop stop-color="#1CA7FB"/>
<stop offset="1" stop-color="#17FCD7"/>
</linearGradient>
<linearGradient id="paint3_linear_14_337" x1="82.0365" y1="0" x2="82.0365" y2="16.1915" gradientUnits="userSpaceOnUse">
<stop stop-color="#1CA7FB"/>
<stop offset="1" stop-color="#17FCD7"/>
</linearGradient>
<linearGradient id="paint4_linear_14_337" x1="62.0195" y1="24.1455" x2="62.0195" y2="38.1509" gradientUnits="userSpaceOnUse">
<stop stop-color="#1CA7FB"/>
<stop offset="1" stop-color="#17FCD7"/>
</linearGradient>
<linearGradient id="paint5_linear_14_337" x1="112.044" y1="4.21375" x2="112.044" y2="16.1701" gradientUnits="userSpaceOnUse">
<stop stop-color="#1CA7FB"/>
<stop offset="1" stop-color="#17FCD7"/>
</linearGradient>
<linearGradient id="paint6_linear_14_337" x1="114.047" y1="60.1134" x2="114.047" y2="72.0828" gradientUnits="userSpaceOnUse">
<stop stop-color="#1CA7FB"/>
<stop offset="1" stop-color="#17FCD7"/>
</linearGradient>
<linearGradient id="paint7_linear_14_337" x1="82.0319" y1="36.141" x2="82.0319" y2="48.1103" gradientUnits="userSpaceOnUse">
<stop stop-color="#1CA7FB"/>
<stop offset="1" stop-color="#17FCD7"/>
</linearGradient>
</defs>
</svg>
