<svg width="111" height="134" viewBox="0 0 111 134" fill="none" xmlns="http://www.w3.org/2000/svg">
<path d="M11.4108 133.3C10.1762 132.911 8.87207 132.664 7.71748 132.107C2.74787 129.725 0.170906 125.701 0.0596199 120.221C-0.0412329 115.275 0.0178877 110.327 0.0422315 105.381C0.0526646 103.507 1.15857 102.307 2.71657 102.356C4.25371 102.404 5.2205 103.535 5.22746 105.392C5.24485 110.08 5.22746 114.764 5.23441 119.452C5.24485 124.929 8.41649 128.098 13.8973 128.101C37.6395 128.104 61.3816 128.104 85.1237 128.101C90.6081 128.101 93.7936 124.926 93.7971 119.459C93.8006 115.206 93.7867 110.956 93.7728 106.703C93.7728 106.623 93.7241 106.543 93.6302 106.254C93.1989 106.254 92.6982 106.254 92.1974 106.254C83.4579 106.247 74.715 106.338 65.9756 106.202C58.4708 106.084 52.5935 98.7667 53.842 91.3767C54.9827 84.63 60.1888 80.3142 67.3424 80.2829C75.6053 80.2446 83.8648 80.2724 92.1278 80.2724C92.6356 80.2724 93.1433 80.2724 93.7171 80.2724C93.7484 79.7264 93.7901 79.3439 93.7901 78.9648C93.7936 74.8855 93.811 70.8062 93.7867 66.7269C93.7554 61.7607 90.5003 58.4987 85.5098 58.4952C61.5068 58.4813 37.5038 58.4813 13.4974 58.4952C8.493 58.4987 5.26571 61.7329 5.23094 66.7269C5.19964 71.3278 5.22746 75.9253 5.2205 80.5263C5.2205 81.0445 5.23094 81.5731 5.14747 82.0843C4.95968 83.2528 3.99288 84.0805 2.80351 84.1466C1.59328 84.2127 0.543018 83.5275 0.191772 82.4147C0.101352 82.1295 0.0387538 81.82 0.0387538 81.5209C0.0526646 76.0992 -0.114264 70.6636 0.153517 65.2558C0.483897 58.5856 5.9682 53.5012 12.6732 53.3343C16.2378 53.2474 19.8059 53.3134 23.3705 53.303C23.7844 53.303 24.2017 53.2613 24.8381 53.2265C21.7047 49.2446 20.5919 44.9253 21.6108 40.1574C22.3446 36.7319 24.1391 33.9045 26.8899 31.7205C32.5516 27.2274 40.4042 27.2934 45.892 31.8805C49.0776 34.5409 50.8929 37.9699 51.2755 42.0805C51.658 46.1807 50.42 49.8532 47.6552 53.303C48.4377 53.303 48.9385 53.303 49.4358 53.303C65.3079 53.303 81.1801 53.2926 97.0522 53.31C103.639 53.3169 108.786 57.3719 110.125 63.6213C110.386 64.8385 110.431 66.1183 110.431 67.3702C110.448 84.5987 110.445 101.824 110.445 119.052C110.445 126.776 106.838 131.332 99.2884 133.168C99.2084 133.189 99.1388 133.255 99.0658 133.3C69.8532 133.3 40.6338 133.3 11.4108 133.3ZM105.249 101.062C105.249 95.9672 105.263 91.0741 105.204 86.1845C105.2 85.9445 104.519 85.5168 104.15 85.5133C100.544 85.4611 96.9374 85.482 93.3346 85.482C84.6021 85.482 75.8696 85.4646 67.1372 85.489C62.4701 85.5029 58.9785 88.7684 58.902 93.1051C58.8255 97.6191 62.2823 101.048 67.0259 101.059C79.3195 101.083 91.6166 101.065 103.91 101.065C104.293 101.062 104.679 101.062 105.249 101.062ZM26.4831 43.4299C26.4796 48.869 30.9067 53.2821 36.3388 53.2508C41.7397 53.2195 46.1041 48.8655 46.1285 43.4855C46.1494 38.0429 41.757 33.6089 36.3284 33.595C30.8893 33.5776 26.4865 37.9769 26.4831 43.4299ZM96.4228 128.018C101.497 128.386 105.162 125.03 105.235 120.061C105.301 115.769 105.253 111.478 105.242 107.186C105.242 106.898 105.155 106.609 105.113 106.345C103.058 106.345 101.079 106.345 99.0032 106.345C99.0032 110.334 98.9475 114.232 99.0206 118.127C99.0867 121.619 98.6902 124.961 96.4228 128.018ZM99.0067 80.1577C101.205 80.1577 103.176 80.1577 105.107 80.1577C105.173 79.9629 105.221 79.8829 105.221 79.8029C105.235 76.7252 105.26 73.644 105.242 70.5662C105.232 68.7022 105.301 66.8208 105.068 64.9845C104.557 60.94 100.606 58.0188 96.5375 58.6482C98.2451 61.1521 99.0275 63.8891 99.0067 66.866C98.9858 70.0307 99.0032 73.1988 99.0032 76.367C99.0067 77.6085 99.0067 78.857 99.0067 80.1577Z" fill="url(#paint0_linear_14_355)"/>
<path d="M74.2176 35.7333C65.9372 35.7542 59.187 29.0805 59.1453 20.8314C59.1035 12.5093 65.8329 5.73134 74.148 5.71743C82.484 5.70352 89.2238 12.4328 89.2133 20.7619C89.2064 29.0353 82.5188 35.7124 74.2176 35.7333ZM84.0072 20.6993C83.9933 15.2463 79.5975 10.8992 74.1202 10.92C68.6811 10.9409 64.3235 15.3645 64.3583 20.828C64.3931 26.2114 68.768 30.5342 74.1863 30.5342C79.6567 30.5342 84.0211 26.1662 84.0072 20.6993Z" fill="url(#paint1_linear_14_355)"/>
<path d="M51.345 12.753C51.345 16.0046 51.3519 19.2528 51.3415 22.5044C51.3345 24.4519 50.3886 25.5613 48.761 25.5682C47.1404 25.5717 46.1389 24.4449 46.1354 22.5287C46.125 16.0289 46.125 9.52915 46.1354 3.02589C46.1389 1.17924 47.2378 -0.0309948 48.8028 0.00378199C50.3434 0.0350811 51.3311 1.18272 51.338 3.00154C51.3554 6.25318 51.345 9.50133 51.345 12.753Z" fill="url(#paint2_linear_14_355)"/>
<path d="M38.8392 8.32594C38.8392 10.1448 38.86 11.9636 38.8322 13.7824C38.8079 15.4691 37.7506 16.6133 36.2657 16.6237C34.805 16.6306 33.6609 15.4726 33.6435 13.8102C33.6053 10.1309 33.6052 6.448 33.647 2.76513C33.6644 1.10628 34.8294 -0.0274426 36.3074 0.000378815C37.8098 0.0316779 38.8113 1.14801 38.8322 2.86946C38.8566 4.68829 38.8392 6.50712 38.8392 8.32594Z" fill="url(#paint3_linear_14_355)"/>
<path d="M5.21355 93.3072C5.20311 94.7434 4.09373 95.8424 2.65397 95.8459C1.22812 95.8494 0.0839632 94.733 0.0630971 93.3211C0.042231 91.8778 1.27333 90.6537 2.70614 90.6885C4.12156 90.7267 5.22398 91.8813 5.21355 93.3072Z" fill="url(#paint4_linear_14_355)"/>
<path d="M68.5977 93.3449C68.5699 94.7812 67.4501 95.8592 66.0034 95.8453C64.581 95.8314 63.4368 94.6942 63.4368 93.2858C63.4368 91.846 64.6958 90.6323 66.1251 90.6914C67.544 90.7505 68.6255 91.9121 68.5977 93.3449Z" fill="url(#paint5_linear_14_355)"/>
<defs>
<linearGradient id="paint0_linear_14_355" x1="55.2225" y1="28.3949" x2="55.2225" y2="133.3" gradientUnits="userSpaceOnUse">
<stop stop-color="#1CA7FB"/>
<stop offset="1" stop-color="#17FCD7"/>
</linearGradient>
<linearGradient id="paint1_linear_14_355" x1="74.1792" y1="5.71741" x2="74.1792" y2="35.7333" gradientUnits="userSpaceOnUse">
<stop stop-color="#1CA7FB"/>
<stop offset="1" stop-color="#17FCD7"/>
</linearGradient>
<linearGradient id="paint2_linear_14_355" x1="48.7378" y1="0.00305176" x2="48.7378" y2="25.5682" gradientUnits="userSpaceOnUse">
<stop stop-color="#1CA7FB"/>
<stop offset="1" stop-color="#17FCD7"/>
</linearGradient>
<linearGradient id="paint3_linear_14_355" x1="36.231" y1="-0.00012207" x2="36.231" y2="16.6237" gradientUnits="userSpaceOnUse">
<stop stop-color="#1CA7FB"/>
<stop offset="1" stop-color="#17FCD7"/>
</linearGradient>
<linearGradient id="paint4_linear_14_355" x1="2.63823" y1="90.6877" x2="2.63823" y2="95.8459" gradientUnits="userSpaceOnUse">
<stop stop-color="#1CA7FB"/>
<stop offset="1" stop-color="#17FCD7"/>
</linearGradient>
<linearGradient id="paint5_linear_14_355" x1="66.0175" y1="90.6893" x2="66.0175" y2="95.8455" gradientUnits="userSpaceOnUse">
<stop stop-color="#1CA7FB"/>
<stop offset="1" stop-color="#17FCD7"/>
</linearGradient>
</defs>
</svg>
