<svg width="130" height="121" viewBox="0 0 130 121" fill="none" xmlns="http://www.w3.org/2000/svg">
<path d="M103.703 75.0662C108.599 72.2512 113.135 69.6551 117.662 67.0418C121.464 64.8447 125.472 65.4841 128.076 68.7282C130.767 72.0796 130.685 76.4995 127.514 79.5291C115.319 91.1924 102.737 102.392 88.0056 110.876C82.6287 113.974 77.0331 116.549 70.798 117.386C66.6399 117.943 62.5075 117.536 58.4824 116.523C47.8747 113.863 37.0695 112.678 26.2 111.884C24.6423 111.769 23.0975 111.507 21.4154 111.296C21.4154 112.292 21.4111 113.275 21.4154 114.257C21.4368 117.755 19.3041 119.999 15.8498 120.085C12.8116 120.162 9.77347 120.235 6.73534 120.278C2.62441 120.342 0.302891 118.158 0.33293 114.081C0.401588 104.877 0.500285 95.6767 0.714842 86.4764C0.766336 84.1978 1.15254 81.8892 1.66748 79.6621C2.14809 77.5723 3.72723 76.8085 5.71404 77.5294C4.05336 78.452 3.87743 79.9238 3.92034 81.5287C4.21214 92.1365 4.49106 102.74 4.74853 113.348C4.80432 115.643 4.87726 115.776 7.13012 115.785C9.85501 115.798 12.5799 115.751 15.3005 115.798C16.6393 115.824 17.1929 115.274 17.2058 113.948C17.3388 102.809 17.489 91.673 17.652 80.5332C17.6735 79.1471 16.8668 78.7009 15.6781 78.6451C13.3308 78.5378 10.9836 78.452 8.63632 78.349C7.9669 78.3189 7.30177 78.2503 6.63235 78.1988C6.58515 78.0658 6.53794 77.937 6.48645 77.804C6.96277 77.538 7.41763 77.1088 7.91969 77.0359C10.4043 76.6754 12.9017 76.3536 15.3992 76.1219C18.8192 75.8043 20.6044 77.3406 20.9391 80.7563C20.9777 81.1683 21.0463 81.5759 21.0678 81.7476C22.7371 81.1554 24.3977 80.5718 26.0584 79.9839C26.8652 79.6964 27.7835 79.7264 26.9338 78.2889C26.4875 77.5379 27.0797 76.1734 27.2042 75.0877C29.088 58.8242 32.5123 42.8311 35.632 26.7821C35.8079 25.8681 35.6534 25.3575 34.9325 24.8082C32.5209 22.963 30.1822 21.0277 27.7663 19.1868C26.6892 18.3672 26.4017 17.4575 26.8265 16.1873C28.3971 11.5357 29.9462 6.87975 31.4567 2.21097C31.8515 0.992277 32.5681 0.412971 33.8554 0.404388C36.177 0.404388 38.4813 0.305692 40.7857 0.292818C42.9784 0.279945 43.532 0.85496 43.562 3.10353C43.5835 4.8157 43.5663 6.52787 43.5663 8.33016C45.0082 8.33016 46.2354 8.33016 47.5485 8.33016C47.5485 6.52787 47.5485 4.81999 47.5485 3.10782C47.5442 0.872125 48.1879 0.159792 50.3764 0.104007C52.6808 0.0439312 54.9851 0.00531076 57.2895 0.00960191C59.4093 0.00960191 60.1345 0.734808 60.1688 2.8246C60.1946 4.54106 60.1731 6.25324 60.1731 8.08127C61.439 8.08127 62.5118 8.08127 63.8335 8.08127C63.8335 6.33477 63.8206 4.62689 63.8378 2.91901C63.8592 0.730517 64.5673 0.00531076 66.7729 0.0138931C69.1803 0.0224754 71.5919 0.116881 73.9992 0.138337C75.2823 0.146919 76.0375 0.769137 76.4194 1.95779C77.9299 6.68235 79.4361 11.4069 80.9809 16.1229C81.4315 17.5004 81.1783 18.5174 79.9253 19.3584C77.2777 21.1393 74.6944 23.0145 72.0467 24.8039C71.3516 25.2759 71.1156 25.7394 71.2357 26.6019C71.4889 28.3999 71.579 30.2194 71.7421 32.1075C83.8517 29.7345 94.2106 32.9228 101.733 42.9255C109.208 52.8595 109.444 63.6346 103.703 75.0662ZM21.248 110.421C22.0934 110.361 22.6126 110.344 23.1276 110.288C32.9758 109.293 42.7811 109.76 52.552 111.215C56.5342 111.807 60.4821 112.67 64.4771 113.107C70.8023 113.798 76.6898 111.983 82.0537 108.876C88.1515 105.345 94.3007 101.757 99.8363 97.4403C108.243 90.8877 116.164 83.7086 124.232 76.7312C126.06 75.1521 126.18 73.3841 124.952 71.7277C123.631 69.9383 121.94 69.6036 119.846 70.7236C111.736 75.0662 103.514 79.2201 95.5494 83.8202C90.3099 86.8498 84.6799 88.3474 78.8697 89.4245C77.1704 89.7377 75.5741 89.712 74.8102 91.7031C74.5785 92.3081 73.6602 92.896 72.9693 93.0247C71.2529 93.3466 69.4163 93.7886 67.7556 93.4925C60.8468 92.2609 53.9981 90.7676 46.8963 92.0335C45.6046 92.2652 43.974 92.2395 42.7982 90.8663C43.223 90.4114 43.502 89.8965 43.9311 89.6905C46.3213 88.5448 48.6256 87.2317 51.4149 87.0729C56.3583 86.794 61.0871 87.811 65.7902 89.0983C67.1505 89.4717 68.5065 89.8793 69.8969 90.1068C71.5103 90.3728 73.9177 89.433 74.2738 88.5534C75.5226 85.4981 74.1151 82.4814 70.8924 81.4687C64.46 79.4475 57.9632 77.6152 51.5908 75.4181C47.8146 74.1136 44.3001 74.4054 40.7642 75.8901C38.6916 76.757 36.6919 77.7997 34.6193 78.6622C32.7011 79.4604 30.7572 80.2371 28.7618 80.8207C26.2687 81.5502 23.7154 82.0694 21.248 82.6659C21.248 91.8447 21.248 101.019 21.248 110.421ZM79.0242 41.8484C79.0027 41.7411 78.9855 41.6338 78.9641 41.5266C79.6764 41.3506 80.3888 41.0116 81.0968 41.0245C85.3665 41.1146 89.2285 42.432 92.4984 45.2169C102.63 53.8422 101.145 70.6549 89.6405 78.0529C85.8299 80.5031 81.6847 81.6618 77.1318 81.4687C77.5738 82.9491 77.9857 84.318 78.4749 85.9572C80.775 85.2878 83.0836 84.79 85.2463 83.9404C88.1557 82.7946 91.4299 81.9192 93.7171 79.9625C100.695 73.9977 104.042 66.308 102.879 56.9661C100.72 39.647 81.041 29.9104 65.9318 38.6858C54.3586 45.4101 49.9816 60.648 56.1566 72.7791C56.3282 73.1138 56.6544 73.4914 56.9891 73.5987C59.0145 74.2466 61.0657 74.8216 63.1297 75.4267C63.1383 75.2551 63.1598 75.195 63.1383 75.1607C63.0224 74.989 62.9066 74.8174 62.7693 74.6629C58.5983 70.0799 56.7702 64.6774 57.2594 58.5324C57.8645 50.8813 63.2027 41.548 74.0979 40.5053C75.5054 40.3722 76.8829 40.4023 78.1702 41.4622C77.2862 41.7368 76.5525 41.9857 75.8101 42.196C69.0601 44.097 64.5286 48.2551 62.4045 55.0223C58.5382 67.3422 69.1803 79.3145 81.792 76.7741C89.2972 75.2636 95.0516 68.9342 95.5837 61.622C96.1673 53.559 91.3055 45.792 84.0877 43.3288C82.4313 42.7624 80.7149 42.3376 79.0242 41.8484ZM54.7105 72.8992C50.0031 64.8662 49.0762 56.8632 52.685 48.5855C56.221 40.4752 62.3144 35.1199 70.6993 32.4036C69.9441 29.9576 69.2403 27.6747 68.5924 25.5592C66.8373 25.8681 65.2238 26.3101 63.5846 26.4088C58.3579 26.7349 53.127 27.0353 47.8961 27.1383C45.1584 27.1941 42.4163 26.825 39.5713 26.6405C35.7178 43.9725 31.7957 61.6092 27.835 79.4346C28.7318 79.0914 29.5815 78.8553 30.3496 78.4606C33.5079 76.8299 36.6147 75.1006 39.7901 73.5C43.768 71.4917 47.9133 70.8352 52.2559 72.2298C52.9296 72.4486 53.6248 72.6031 54.7105 72.8992ZM39.331 4.6226C38.1294 4.6226 37.1382 4.67409 36.1598 4.60543C35.3445 4.54965 34.9497 4.85003 34.6879 5.61815C33.5508 8.97812 32.3321 12.3124 31.2336 15.6852C31.0919 16.1143 31.3237 16.9168 31.6712 17.2171C33.9241 19.1696 36.2242 21.0663 38.58 22.8901C39.0392 23.2419 39.8159 23.3535 40.4252 23.3063C41.8756 23.199 43.3132 22.8042 44.7636 22.7442C52.6121 22.4009 60.452 22.4953 68.2705 23.3964C68.8927 23.4694 69.7081 23.2076 70.2058 22.8171C72.3772 21.0964 74.4927 19.3026 76.5567 17.4489C76.8958 17.1442 77.1189 16.3417 76.9687 15.9212C75.72 12.381 74.3897 8.86655 73.0251 5.36926C72.8792 4.99593 72.3471 4.5711 71.9609 4.53677C70.7809 4.42949 69.5879 4.49815 68.2576 4.49815C68.2576 6.43347 68.2705 8.20142 68.2534 9.96509C68.2362 11.9476 67.4809 12.7114 65.5113 12.7415C64.151 12.7629 62.7907 12.7286 61.4261 12.7501C55.7489 12.8402 55.5944 12.9217 55.706 7.11147C55.7232 6.29615 55.7103 5.48083 55.7103 4.67838C54.3715 4.67838 53.2515 4.67838 51.9856 4.67838C51.9856 6.55791 52.007 8.32587 51.9813 10.0895C51.9513 12.0034 51.2003 12.7586 49.3294 12.7758C46.8705 12.7973 44.4074 12.7973 41.9486 12.7801C40.1849 12.7672 39.3739 11.9648 39.3438 10.1839C39.3052 8.41169 39.331 6.63944 39.331 4.6226Z" fill="url(#paint0_linear_14_360)"/>
<path d="M80.8822 71.1439C80.6204 72.3926 80.7191 73.7057 80.1784 74.0662C79.4532 74.5554 77.844 74.7485 77.3119 74.2807C76.5352 73.5941 76.3765 72.2081 76.119 71.0624C74.9518 69.951 72.8363 69.6763 72.5616 67.166C73.4714 67.2132 74.2352 67.1875 74.9775 67.299C77.166 67.638 79.2773 67.3977 81.2126 66.3421C81.7747 66.0331 82.4399 65.2822 82.4356 64.7372C82.4313 64.1922 81.7533 63.3683 81.1911 63.1709C79.9853 62.7418 78.6164 62.7761 77.3978 62.3685C75.6985 61.802 73.8232 61.3257 72.4758 60.2486C69.163 57.5881 69.7724 52.7563 73.5057 50.6879C74.454 50.1601 75.5225 49.8469 76.5567 49.4263C76.3593 46.68 76.6897 46.1608 78.7023 46.1221C80.3715 46.0878 80.9766 47.1434 80.7449 49.6838C82.1481 50.276 83.5599 50.8725 84.9717 51.4689C84.9759 51.6363 84.9802 51.8079 84.9845 51.9753C84.5297 52.1341 84.0877 52.3958 83.6242 52.4387C81.5988 52.6147 79.5691 52.7219 77.5437 52.8764C77.2347 52.8979 76.9172 52.9751 76.6339 53.0953C75.4067 53.6059 74.0764 54.1423 74.2352 55.7815C74.3897 57.3779 75.707 57.807 77.0502 58.0129C78.6508 58.2575 80.3072 58.2575 81.852 58.6781C86.7954 60.0126 88.7178 65.1491 85.5381 68.5864C84.6284 69.569 83.2209 70.114 82.0108 70.7963C81.5773 71.0366 81.0324 71.101 80.8822 71.1439Z" fill="url(#paint1_linear_14_360)"/>
<defs>
<linearGradient id="paint0_linear_14_360" x1="65.1664" y1="120.279" x2="65.1664" y2="0.00927734" gradientUnits="userSpaceOnUse">
<stop stop-color="#1CA7FB"/>
<stop offset="1" stop-color="#17FCD7"/>
</linearGradient>
<linearGradient id="paint1_linear_14_360" x1="78.7035" y1="74.5482" x2="78.7035" y2="46.1213" gradientUnits="userSpaceOnUse">
<stop stop-color="#1CA7FB"/>
<stop offset="1" stop-color="#17FCD7"/>
</linearGradient>
</defs>
</svg>
