<svg width="111" height="121" viewBox="0 0 111 121" fill="none" xmlns="http://www.w3.org/2000/svg">
<path d="M76.8228 17.2194C72.3379 10.688 67.2501 5.17485 59.2315 3.41639C53.3198 2.11681 48.031 3.74799 43.2715 7.2314C41.5264 8.50753 40.0058 10.0918 38.4081 11.5622C37.4502 12.4431 36.3348 12.5302 35.8927 11.5589C35.6683 11.0665 35.7018 10.1287 36.03 9.76357C41.503 3.72789 47.9841 -0.33497 56.485 0.0234191C62.7116 0.284675 67.8697 3.0781 72.3747 7.21465C75.2284 9.83391 77.6333 12.8316 79.6329 16.1375C80.142 16.9782 80.7014 17.2964 81.6995 17.3366C87.9563 17.5744 94.0053 18.7233 99.4817 21.9488C107.929 26.9227 112.065 35.8021 110.608 45.4853C109.275 54.3579 105.182 61.9477 99.6257 68.7705C96.6547 72.4214 93.1713 75.6536 89.9458 79.1035C89.5138 79.5657 89.0582 80.1452 88.9343 80.738C87.5443 87.3465 85.4676 93.7137 82.4531 99.7695C82.3627 99.947 82.3158 100.145 82.1919 100.486C88.4922 100.115 94.3905 98.8786 99.5587 95.2578C103.95 92.1831 106.636 87.9963 107.51 82.6908C108.17 78.6915 107.678 74.7828 106.572 70.9209C106.492 70.6395 106.408 70.3615 106.318 70.0835C105.99 69.0854 106.251 68.2915 107.276 67.9868C108.244 67.6987 108.884 68.2179 109.178 69.149C110.274 72.5956 110.947 76.1192 110.803 79.75C110.384 90.3844 104.134 98.1953 93.4024 101.592C89.6645 102.774 85.8294 103.387 81.9273 103.491C80.7181 103.524 80.0985 103.946 79.4822 104.934C76.6955 109.413 73.3025 113.368 68.9348 116.393C59.5832 122.867 48.8282 122.298 39.8651 114.842C34.1409 110.082 30.269 103.976 27.2243 97.2876C24.8462 92.0591 23.1749 86.6029 21.9624 80.996C21.815 80.3227 21.4097 79.5858 20.9006 79.1236C15.9836 74.6622 11.5456 69.7921 7.87131 64.2488C7.71724 64.0177 7.51962 63.8134 7.27176 63.5153C4.0697 69.9395 1.9897 76.501 3.5137 83.6454C5.04774 90.8466 9.79723 95.3449 16.4526 98.001C18.1507 98.6776 19.9661 99.0728 21.7246 99.6021C22.5921 99.8633 23.1447 100.419 22.9672 101.35C22.7796 102.339 22.0461 102.751 21.0882 102.536C14.3659 101.052 8.40052 98.2355 4.23048 92.5146C0.110672 86.8709 -0.686493 80.4969 0.502556 73.7746C1.24948 69.5442 2.76007 65.5685 4.80993 61.8071C5.34249 60.8257 5.37598 60.0821 4.83672 59.0739C2.22751 54.2072 0.425519 49.0792 0.0805272 43.5091C-0.562564 33.1158 4.62906 24.6518 14.2419 20.4751C20.8906 17.5845 27.8842 16.9749 35.0252 17.4003C41.7475 17.8022 48.2655 19.2391 54.6562 21.3191C55.0648 21.4531 55.5806 21.5167 55.9759 21.3895C62.5609 19.2224 69.2932 17.7989 76.2232 17.3534C76.3438 17.3433 76.4644 17.2998 76.8228 17.2194ZM85.2834 83.1061C84.7944 83.4276 84.493 83.6152 84.1982 83.8195C81.7967 85.4909 79.4353 87.2292 76.9835 88.8202C74.9169 90.16 72.7498 91.3524 70.6062 92.5682C69.7588 93.0506 68.9583 92.9032 68.4693 91.9988C68.0037 91.1347 68.3688 90.4681 69.1358 89.9858C69.6315 89.6743 70.1507 89.403 70.6631 89.1183C75.8648 86.2144 80.7516 82.8582 85.3672 79.0968C86.104 78.4939 86.4524 77.824 86.6031 76.9063C88.3381 66.3891 88.4118 55.8551 86.8074 45.3245C85.5212 36.8906 83.1398 28.7917 79.1406 21.2086C78.7755 20.5186 78.3903 20.2607 77.6065 20.2975C72.023 20.5621 66.5467 21.4531 61.1742 22.9838C60.923 23.0575 60.6852 23.1881 60.3837 23.3187C63.2877 24.6953 66.1113 25.9514 68.8578 27.3581C71.1991 28.5572 73.4633 29.9104 75.7442 31.2301C76.5414 31.6923 76.8194 32.4359 76.3505 33.2632C75.8514 34.1407 75.071 34.268 74.1968 33.789C73.758 33.5479 73.3293 33.2833 72.9006 33.0254C67.6888 29.897 62.2393 27.2577 56.5185 25.2078C55.8553 24.97 54.951 24.9867 54.2844 25.2312C45.5022 28.4233 37.3698 32.8546 29.8503 38.3845C21.8954 44.2326 14.9487 51.0554 9.61302 59.429C9.13405 60.1792 9.08045 60.7319 9.62976 61.4319C12.3696 64.9086 15.0558 68.4255 17.8225 71.8788C18.6397 72.9004 19.6546 73.7679 20.8202 74.9469C20.5757 72.3109 20.2743 70.0433 20.1738 67.7724C20.0231 64.3928 20.013 61.0065 19.9494 57.6203C19.9326 56.6556 20.3413 55.9556 21.3729 55.9221C22.4815 55.8853 22.9036 56.6154 22.9505 57.6203C22.9639 57.8715 22.9505 58.1227 22.9438 58.3739C22.793 64.6574 23.2151 70.9041 24.3237 77.0939C24.441 77.757 24.8663 78.5107 25.3821 78.9427C32.7375 85.1091 40.8699 90.0327 49.689 93.8176C57.8884 97.3378 66.3792 99.736 75.3256 100.396C78.6649 100.644 78.6582 100.697 80.1353 97.656C82.3594 93.064 84.024 88.2776 85.2834 83.1061ZM90.0564 74.555C90.1903 74.6387 90.3243 74.7258 90.4616 74.8096C93.034 71.8152 95.7504 68.9246 98.1519 65.7996C102.834 59.7036 106.485 53.0617 107.557 45.3178C108.609 37.7179 106.609 31.1463 100.423 26.2193C96.8088 23.3422 92.5751 21.8215 88.0668 21.0378C86.1677 20.7062 84.2417 20.5353 82.1149 20.2607C90.599 37.7213 92.2569 55.8618 90.0564 74.555ZM50.4058 23.4058C50.3924 23.2785 50.379 23.1513 50.3689 23.024C47.4348 22.4043 44.5208 21.6808 41.5666 21.1851C34.1543 19.9425 26.7487 19.7616 19.4269 21.8014C15.2099 22.9771 11.3849 24.8963 8.33353 28.0984C3.71801 32.9416 2.41843 38.8099 3.26249 45.2508C3.8185 49.4912 5.26545 53.4569 7.3086 57.3222C18.1239 41.3923 33.0323 30.8382 50.4058 23.4058ZM25.5362 83.0492C27.4487 90.6624 30.1216 97.5957 34.2615 103.919C36.5927 107.48 39.3057 110.699 42.7255 113.264C47.8267 117.089 53.4638 118.841 59.821 117.324C64.8854 116.115 68.9214 113.181 72.3412 109.382C73.9422 107.604 75.3456 105.651 76.9936 103.588C57.52 102.161 40.9001 94.5511 25.5362 83.0492Z" fill="url(#paint0_linear_14_365)"/>
<path d="M32.8514 60.3366C32.8983 47.9806 43.0739 37.872 55.45 37.8854C67.8731 37.8988 78.0554 48.1112 78.0051 60.5074C77.9549 72.8602 67.7692 82.9788 55.4031 82.962C42.9767 82.9453 32.8012 72.7362 32.8514 60.3366ZM60.5211 41.6803C60.5211 43.4053 60.5546 45.0297 60.5043 46.6475C60.4842 47.3341 60.7187 47.7026 61.3283 47.9973C63.0934 48.8548 64.8184 49.8027 66.5869 50.6601C67.5348 51.119 67.9434 51.7956 67.9267 52.8406C67.8932 54.8871 67.9434 56.937 67.9032 58.9835C67.8865 59.7572 68.064 60.2495 68.7942 60.695C70.4722 61.7266 71.1589 63.6794 70.6464 65.4914C70.1172 67.3771 68.4291 68.6834 66.4898 68.7169C64.5069 68.7504 62.8054 67.5446 62.1991 65.679C61.5962 63.8234 62.2326 61.7534 63.9207 60.7419C64.7447 60.2495 64.9557 59.717 64.9189 58.8394C64.8552 57.3389 64.8519 55.8283 64.9189 54.3277C64.9557 53.5071 64.7146 53.0349 63.9442 52.6832C62.5374 52.0434 61.2278 51.1793 59.7942 50.6199C58.0056 49.9232 57.2989 48.8112 57.4697 46.8786C57.6372 44.9795 57.5066 43.0536 57.5066 41.0406C56.0663 41.0406 54.7634 41.0406 53.5107 41.0406C53.4303 41.265 53.3801 41.342 53.3801 41.419C53.3667 43.5091 53.3097 45.5991 53.37 47.6858C53.4069 48.9385 52.938 49.7022 51.7891 50.2247C50.1177 50.985 48.5234 51.9162 46.8621 52.7066C46.1554 53.0449 45.9108 53.4803 45.9376 54.2541C45.9979 55.9254 45.9075 57.6001 45.9879 59.2682C46.008 59.7002 46.3362 60.2596 46.698 60.5108C48.4698 61.7467 49.2502 63.5755 48.7043 65.4881C48.1416 67.4508 46.4601 68.7236 44.4337 68.7136C42.4777 68.7035 40.7929 67.4374 40.2302 65.5517C39.6641 63.6593 40.4446 61.7769 42.1762 60.5342C42.5581 60.2596 42.8863 59.6433 42.903 59.171C42.9801 57.0408 42.9566 54.9072 42.9298 52.777C42.9164 51.7889 43.2983 51.129 44.2026 50.6869C46.0046 49.806 47.7865 48.8849 49.555 47.9337C49.8732 47.7629 50.2819 47.3844 50.2919 47.0863C50.3622 45.3111 50.3254 43.5292 50.3254 41.7272C42.8126 43.0067 36.3984 50.9984 35.9027 59.5294C35.4707 66.9886 40.7226 75.8914 46.641 77.623C46.641 76.1459 46.6377 74.6889 46.641 73.2353C46.6444 72.2171 47.0664 71.4768 48.155 71.4802C49.2435 71.4835 49.6589 72.2137 49.6555 73.242C49.6488 74.8732 49.689 76.5043 49.6388 78.1322C49.6153 78.8556 49.8665 79.137 50.5699 79.3145C53.7184 80.1083 56.8635 80.1318 60.0086 79.3681C60.5077 79.2475 61.3115 79.3346 61.191 78.4169C61.0771 77.5494 61.6364 76.5244 60.3402 75.9584C58.5817 75.1914 56.9204 74.2033 55.1888 73.3693C54.2476 72.9137 53.8256 72.2774 53.8423 71.2089C53.8892 68.4088 53.8222 65.6086 53.8758 62.8085C53.8959 61.7869 53.7184 61.097 52.7604 60.4472C50.6771 59.0371 50.4426 56.0427 52.0905 54.1368C53.7284 52.2444 56.6625 52.1071 58.4813 53.8421C60.29 55.5704 60.444 58.7892 58.3774 60.1357C56.7798 61.1773 56.8534 62.3831 56.8735 63.82C56.8836 64.5737 56.8635 65.3239 56.8769 66.0776C56.907 67.6618 56.4314 69.5509 57.1348 70.7366C57.808 71.8687 59.6737 72.3745 61.0938 72.9573C63.2073 73.8214 64.7715 74.9402 64.259 77.5494C64.2557 77.5661 64.3093 77.5963 64.3361 77.623C69.2564 75.5765 75.4462 68.7872 74.9337 59.4758C74.4681 50.9884 68.4123 43.4789 60.5211 41.6803ZM54.9744 55.624C54.74 55.9723 54.1705 56.4613 54.0935 57.0173C53.9796 57.8547 54.5758 58.4141 55.4701 58.394C56.3008 58.3739 56.7865 57.838 56.7898 57.0374C56.7932 56.1766 56.274 55.6843 54.9744 55.624ZM44.1825 65.9101C44.3701 65.9101 44.561 65.9101 44.7486 65.9101C45.117 65.4043 45.7099 64.9321 45.8037 64.3794C45.9477 63.5387 45.3381 62.9592 44.4639 62.9626C43.5964 62.9659 42.9767 63.5219 43.1442 64.3861C43.2514 64.9387 43.8208 65.4043 44.1825 65.9101ZM67.9501 64.6875C67.9568 64.4866 67.9669 64.289 67.9736 64.088C67.441 63.7062 66.9017 63.0128 66.3826 63.0296C65.907 63.0463 65.1734 63.7598 65.0562 64.2789C64.872 65.0928 65.5084 65.7728 66.3725 65.6522C66.9352 65.5751 67.4276 65.0258 67.9501 64.6875Z" fill="url(#paint1_linear_14_365)"/>
<defs>
<linearGradient id="paint0_linear_14_365" x1="55.448" y1="0.00146484" x2="55.448" y2="120.871" gradientUnits="userSpaceOnUse">
<stop stop-color="#1CA7FB"/>
<stop offset="1" stop-color="#17FCD7"/>
</linearGradient>
<linearGradient id="paint1_linear_14_365" x1="55.4283" y1="37.8854" x2="55.4283" y2="82.9621" gradientUnits="userSpaceOnUse">
<stop stop-color="#1CA7FB"/>
<stop offset="1" stop-color="#17FCD7"/>
</linearGradient>
</defs>
</svg>
