<svg width="119" height="134" viewBox="0 0 119 134" fill="none" xmlns="http://www.w3.org/2000/svg">
<path d="M60.6803 0C62.3874 0.799667 64.1779 1.45679 65.7703 2.44072C67.168 3.30297 67.3488 4.73542 66.5457 5.78542C65.6973 6.89452 64.4039 6.92582 63.0097 5.86191C60.117 3.66109 56.3516 4.09917 54.2343 6.88062C52.2142 9.5369 52.7879 13.4414 55.4929 15.451C58.2882 17.5266 62.0501 16.866 64.1919 13.9212C65.3879 12.2801 66.2397 12.0924 68.0407 13.1319C78.2869 19.039 88.5296 24.9531 98.7723 30.8637C99.1095 31.0584 99.4502 31.2427 99.8396 31.4582C102.131 29.1844 104.839 27.9675 108.118 28.0753C114.915 28.3048 119.748 35.0046 117.79 41.5306C117.3 43.1612 116.292 43.8948 114.999 43.561C113.611 43.1994 113.086 42.0695 113.517 40.3658C114.209 37.6226 113.333 35.0741 111.181 33.586C109.081 32.1327 106.334 32.1258 104.22 33.5687C102.235 34.9246 101.199 37.3966 101.7 39.6948C102.26 42.2676 103.821 43.9296 106.397 44.5102C109.902 45.2994 109.909 45.2647 109.909 48.8875C109.909 60.9868 109.909 73.0861 109.909 85.1889C109.909 87.8869 109.648 88.1894 106.981 88.5962C103.595 89.1143 101.21 92.073 101.602 95.2786C102.023 98.6998 104.888 101.015 108.344 100.72C111.539 100.449 114.001 97.5316 113.757 94.2286C113.705 93.5089 113.458 92.7927 113.225 92.1008C112.725 90.6197 113.128 89.4758 114.383 88.9682C115.614 88.471 116.727 89.0343 117.373 90.4806C119.317 94.8301 117.912 100.157 114.049 103.077C110.11 106.057 104.634 105.886 100.827 102.663C100.497 102.385 100.184 102.093 99.8327 101.78C92.5349 105.991 85.2579 110.194 77.9774 114.394C74.7892 116.233 71.5975 118.076 68.4058 119.912C66.1284 121.223 65.6104 121.118 63.9902 119.022C62.2066 116.713 59.1122 115.952 56.5185 117.183C53.9318 118.406 52.541 121.31 53.1877 124.133C53.8136 126.872 56.4768 129.045 59.3 128.746C60.6385 128.604 62.0084 127.929 63.1801 127.196C64.5743 126.32 65.7773 126.139 66.6604 127.123C67.5817 128.148 67.3627 129.477 66.0763 130.627C62.7768 133.579 57.8084 134.097 53.9596 131.886C49.9647 129.591 47.8439 125.071 48.8209 120.607C49.0399 119.599 48.7235 119.248 47.9586 118.81C41.1545 114.912 34.3677 110.987 27.5879 107.048C27.0421 106.731 26.4719 106.328 26.1207 105.824C25.5436 104.989 25.6757 104.065 26.3467 103.307C27.0977 102.458 28.0538 102.274 29.0517 102.816C30.7623 103.752 32.4416 104.739 34.1313 105.713C39.5725 108.852 45.0137 111.992 50.455 115.131C50.7122 115.281 50.9765 115.42 50.9069 115.378C52.8748 114.346 54.6237 113.448 56.3482 112.503C56.5915 112.371 56.8697 112.02 56.8697 111.769C56.8975 105.573 56.894 99.3778 56.894 92.977C56.3238 92.977 55.8649 92.977 55.4094 92.977C50.4237 92.977 45.4275 92.8171 40.4487 93.0222C35.3725 93.2308 32.3408 89.4897 32.7719 85.4601C32.7997 85.2133 32.7475 84.9595 32.7128 84.4484C28.6136 86.8091 24.6605 89.0864 20.6204 91.4159C21.2497 93.5541 21.2845 95.6785 20.6239 97.8063C18.9481 103.192 13.3365 106.293 7.83963 104.854C2.41233 103.432 -0.956708 97.8584 0.291468 92.3686C0.660011 90.7414 1.67524 89.9035 2.95819 90.1642C4.34891 90.4493 4.96778 91.6037 4.63053 93.2899C3.93517 96.7493 6.0004 99.9758 9.34162 100.65C12.7489 101.339 15.958 99.0962 16.5977 95.5846C17.2097 92.2156 14.7029 89.0412 11.0592 88.5719C8.78185 88.2798 8.35073 87.7965 8.35073 85.4984C8.34725 73.7467 8.33682 61.9916 8.37159 50.24C8.37506 49.2526 8.10387 48.8493 7.14079 48.5294C2.3567 46.9335 -0.633364 41.9895 0.114151 37.0872C0.872097 32.1084 5.086 28.2456 9.93963 28.0822C11.6155 28.0266 12.6446 28.7567 12.7628 30.0884C12.881 31.4304 11.8762 32.3691 10.1552 32.5187C6.89742 32.8038 4.49146 35.3418 4.4706 38.5196C4.44974 41.767 6.86613 44.392 10.1448 44.6875C13.1765 44.9587 16.0623 42.7753 16.5108 39.5975C16.6777 38.4223 16.41 37.0941 16.0067 35.9537C15.3044 33.972 15.4643 33.1827 17.3244 32.1084C27.4558 26.2604 37.5803 20.4054 47.7291 14.5922C48.6783 14.0498 49.0016 13.5943 48.7826 12.3983C47.7396 6.72764 51.2616 1.59934 56.967 0.22947C57.1722 0.180794 57.3669 0.0764899 57.565 0C58.5977 0 59.6407 0 60.6803 0ZM37.2083 66.6262C37.2083 72.9123 37.2048 79.2019 37.2083 85.4879C37.2083 87.9147 37.8376 88.5301 40.3027 88.5336C43.5987 88.5371 46.8947 88.5336 50.1907 88.5336C59.5121 88.5336 68.8369 88.5371 78.1582 88.5302C80.3347 88.5302 81.0127 87.8348 81.0231 85.6444C81.0301 84.2571 81.1379 82.8595 80.9988 81.4826C80.7589 79.0767 82.5842 77.4773 85.1084 79.0245C89.6491 81.806 94.3254 84.3649 98.9287 87.0525C99.5893 87.4384 99.9613 87.3828 100.605 86.9204C101.853 86.0199 103.226 85.2689 104.624 84.6187C105.239 84.3336 105.476 84.0937 105.476 83.4227C105.458 72.2343 105.455 61.0459 105.479 49.861C105.479 49.1065 105.173 48.8979 104.533 48.6024C103.174 47.9731 101.832 47.243 100.636 46.3459C99.9405 45.8244 99.5372 45.8349 98.8487 46.2382C95.3059 48.3277 91.8047 50.5146 88.1402 52.3713C86.0436 53.4317 85.2231 54.6799 85.4074 57.058C85.6508 60.2045 85.47 63.3858 85.4561 66.5497C85.4526 67.6797 84.9137 68.4654 83.7976 68.7366C82.7546 68.9904 81.8506 68.6567 81.3812 67.6936C81.11 67.1408 81.044 66.4419 81.044 65.8092C81.0196 59.7804 81.0335 53.755 81.0301 47.7262C81.0301 45.362 80.3869 44.7153 78.0331 44.7153C65.4157 44.7118 52.7949 44.7118 40.1775 44.7153C37.8863 44.7153 37.2187 45.3724 37.2152 47.6289C37.2048 53.9636 37.2083 60.2949 37.2083 66.6262ZM20.8812 35.1819C20.8812 37.5287 20.8812 39.6635 20.8812 41.9825C22.3519 42.8344 24.0416 43.7974 25.7174 44.7849C27.1429 45.6262 27.5636 46.8536 26.8613 48.0322C26.1764 49.1865 24.9004 49.416 23.4644 48.6059C22.032 47.7958 20.5995 46.9822 19.1949 46.1234C18.6317 45.7792 18.2909 45.8557 17.7312 46.2416C16.4274 47.1387 15.0401 47.9453 13.6077 48.6198C12.9888 48.9118 12.7628 49.1587 12.7628 49.8228C12.7802 61.0112 12.7837 72.1995 12.7593 83.3914C12.7593 84.1459 13.0722 84.3545 13.712 84.6431C15.0366 85.2446 16.3474 85.9469 17.5121 86.8161C18.211 87.3376 18.6212 87.4662 19.4 87.0038C23.4644 84.5979 27.5532 82.2371 31.6732 79.9285C32.5111 79.4591 32.7927 78.9376 32.7893 77.9954C32.758 67.8466 32.7614 57.6977 32.7719 47.5489C32.7754 42.9213 35.4108 40.2789 40.021 40.2685C45.1389 40.258 50.2568 40.265 55.3747 40.265C55.8371 40.265 56.2995 40.265 56.6785 40.265C56.7758 40.0425 56.8106 40.0042 56.8106 39.966C56.8384 33.812 56.8697 27.6581 56.8662 21.5006C56.8662 21.2433 56.6054 20.8783 56.369 20.7496C54.6445 19.8074 52.8922 18.9104 50.8896 17.8639C41.0432 23.5485 30.8457 29.4312 20.8812 35.1819ZM97.3468 35.1784C87.3718 29.4173 77.1847 23.538 67.3001 17.8326C65.4991 18.8304 63.9728 19.7935 62.3387 20.5271C61.5634 20.8748 61.3235 21.2155 61.327 22.0221C61.3582 27.6998 61.3409 33.374 61.3478 39.0516C61.3478 39.4236 61.4139 39.7956 61.4591 40.2754C62.0293 40.2754 62.4986 40.2754 62.968 40.2754C68.1659 40.2754 73.3672 40.2511 78.565 40.2859C82.685 40.3102 85.3865 43.0221 85.463 47.1213C85.4734 47.615 85.463 48.1087 85.463 48.8527C89.6769 46.419 93.6335 44.1382 97.3433 41.9965C97.3468 39.6705 97.3468 37.5809 97.3468 35.1784ZM85.5291 84.4345C85.4978 84.9873 85.4456 85.2828 85.4734 85.5679C85.8559 89.5975 82.7476 93.1891 77.9566 93.0152C72.9361 92.831 67.9051 92.9735 62.8811 92.9735C62.4187 92.9735 61.9528 92.9735 61.5703 92.9735C61.4556 93.2238 61.3861 93.3003 61.3861 93.3803C61.3722 99.4891 61.3548 105.598 61.3687 111.707C61.3687 111.971 61.6051 112.353 61.8381 112.482C63.5973 113.442 65.3879 114.349 67.3697 115.382C77.2473 109.676 87.4309 103.797 97.3468 98.0705C97.3468 95.6681 97.3468 93.5368 97.3468 91.2525C93.6057 89.0934 89.6734 86.8265 85.5291 84.4345Z" fill="url(#paint0_linear_14_370)"/>
<path d="M51.0599 68.9631C48.049 68.6189 47.2146 68.1112 47.1798 66.6718C47.145 65.229 47.9691 64.704 51.0599 64.2624C51.0599 61.9468 51.053 59.6139 51.0599 57.281C51.0669 55.1601 51.8283 54.3848 53.9805 54.4126C56.2752 54.4439 58.5977 54.3257 60.8541 54.6525C66.9838 55.5391 71.4271 61.1646 71.0412 67.2907C70.6448 73.5629 65.6487 78.5452 59.4113 78.8164C57.4642 78.8998 55.5103 78.865 53.5598 78.8407C51.9257 78.8198 51.1017 77.9715 51.0669 76.327C51.0426 75.1135 51.0599 73.9001 51.0599 72.6833C51.0599 71.4733 51.0599 70.2634 51.0599 68.9631ZM55.4964 68.9804C55.4964 69.9018 55.4964 70.7606 55.4964 71.6193C55.4964 72.5129 55.4964 73.4064 55.4964 74.3973C56.8627 74.3973 58.0692 74.4599 59.2652 74.3869C63.1384 74.1435 66.0972 71.2786 66.5839 67.3707C67.0185 63.8556 64.6543 60.1598 61.101 59.2488C59.3487 58.8003 57.4608 58.8699 55.5659 58.703C55.5659 60.7647 55.5659 62.517 55.5659 64.2624C58.702 64.7631 59.4043 65.2081 59.38 66.6614C59.3556 68.1182 58.5872 68.598 55.4964 68.9804Z" fill="url(#paint1_linear_14_370)"/>
<defs>
<linearGradient id="paint0_linear_14_370" x1="59.1212" y1="0" x2="59.1212" y2="133.25" gradientUnits="userSpaceOnUse">
<stop stop-color="#1CA7FB"/>
<stop offset="1" stop-color="#17FCD7"/>
</linearGradient>
<linearGradient id="paint1_linear_14_370" x1="59.1217" y1="54.4119" x2="59.1217" y2="78.869" gradientUnits="userSpaceOnUse">
<stop stop-color="#1CA7FB"/>
<stop offset="1" stop-color="#17FCD7"/>
</linearGradient>
</defs>
</svg>
