<svg width="80" height="80" viewBox="0 0 80 80" fill="none" xmlns="http://www.w3.org/2000/svg">
<path d="M54.3 32.2882C54.323 32.6082 54.323 32.9282 54.323 33.2472C54.323 43.0012 46.899 54.2392 33.331 54.2392C29.3138 54.2498 25.3791 53.0997 22 50.9272C22.5917 50.9923 23.1867 51.0226 23.782 51.0182C27.1028 51.0267 30.3296 49.9163 32.942 47.8662C31.4021 47.8385 29.9093 47.3305 28.6723 46.4131C27.4352 45.4957 26.5156 44.2147 26.042 42.7492C26.5028 42.8221 26.9685 42.8602 27.435 42.8632C28.0903 42.8614 28.7428 42.7771 29.377 42.6122C27.7063 42.2743 26.2041 41.3683 25.1257 40.0484C24.0472 38.7284 23.459 37.0757 23.461 35.3712V35.2802C24.4843 35.8526 25.6284 36.1747 26.8 36.2202C25.2324 35.1761 24.1227 33.5729 23.6976 31.738C23.2726 29.9031 23.5642 27.9752 24.513 26.3482C26.3662 28.6293 28.6781 30.4954 31.2989 31.8255C33.9197 33.1556 36.7908 33.9201 39.726 34.0692C39.6075 33.5136 39.5462 32.9473 39.543 32.3792C39.5444 30.8993 39.9903 29.454 40.823 28.2306C41.6557 27.0072 42.8367 26.0622 44.2129 25.5182C45.5892 24.9741 47.0971 24.8561 48.5412 25.1793C49.9854 25.5026 51.2991 26.2523 52.312 27.3312C53.9644 27.0129 55.549 26.41 56.995 25.5492C56.4448 27.2543 55.2913 28.7 53.751 29.6152C55.2163 29.4485 56.6485 29.0636 58 28.4732C56.99 29.9439 55.7391 31.2337 54.3 32.2882Z" fill="white"/>
</svg>
