<svg width="133" height="134" viewBox="0 0 133 134" fill="none" xmlns="http://www.w3.org/2000/svg">
<path d="M38.6454 58.8025C38.6454 54.4234 38.6454 50.2334 38.6454 46.0749C38.6454 41.6643 41.6383 38.4509 45.7338 38.4509C49.8293 38.4509 52.7907 41.6328 52.8222 46.0749C52.8222 50.2649 52.8222 54.455 52.8222 58.708C54.3344 57.7629 55.8466 56.9123 57.2328 55.9041C57.5478 55.6836 57.5163 54.9275 57.5163 54.4234C57.5163 40.7822 57.5163 27.141 57.5163 13.4998C57.5163 5.4978 62.3679 0.614685 70.3699 0.614685C87.0355 0.614685 103.67 0.614685 120.335 0.614685C128.085 0.614685 133 5.56081 133 13.3738C133 38.766 133 64.1897 133 89.5819C133 97.3003 128.054 102.246 120.398 102.246C110.979 102.246 101.527 102.246 92.1077 102.246C91.5721 102.246 91.0365 102.246 90.3434 102.246C90.6585 105.806 90.879 109.272 91.2886 112.706C92.6117 123.764 84.5782 132.742 73.4573 133.026C64.5102 133.246 58.3669 127.481 56.7287 120.393C55.5001 115.037 51.2155 112.17 45.4503 112.233C39.9371 112.296 35.9991 115.384 34.5814 120.802C32.8172 127.607 28.0916 131.986 21.2552 132.837C6.70042 134.664 -1.17557 122.976 0.147597 112.391C1.56527 101.207 2.28987 89.9599 3.29799 78.7445C3.70754 74.0819 3.92807 69.3878 6.5114 65.2608C10.5754 58.771 16.3721 55.3056 24.0276 54.9905C24.8467 54.959 25.6973 54.9905 26.5479 54.9905C32.9117 54.9905 33.4788 55.148 38.6454 58.8025ZM89.8709 97.5209C90.5325 97.5209 90.9735 97.5209 91.4146 97.5209C101.149 97.5209 110.853 97.5209 120.587 97.5209C125.376 97.5209 128.274 94.6225 128.274 89.7709C128.274 64.2212 128.274 38.6715 128.274 13.1533C128.274 8.23864 125.407 5.34028 120.493 5.34028C103.701 5.34028 86.9095 5.34028 70.0864 5.34028C65.0773 5.34028 62.2104 8.17563 62.2104 13.1848C62.2104 26.5739 62.2104 39.9631 62.2104 53.3523C62.2104 53.8564 62.2104 54.3919 62.2104 54.9905C64.0376 54.9905 65.6443 54.9905 67.2825 54.9905C77.0173 55.085 85.5233 61.9844 87.2561 71.5931C88.0751 76.1612 88.2957 80.8868 88.7367 85.5179C89.1463 89.4558 89.4928 93.4253 89.8709 97.5209ZM26.6109 59.7161C25.8863 59.7161 25.1302 59.7161 24.4056 59.7161C16.6557 59.8106 10.2919 64.9773 8.74818 72.5697C8.33863 74.6175 8.21261 76.7598 8.02359 78.8705C6.95245 90.3695 5.94432 101.9 4.84169 113.399C4.11709 120.802 8.65367 126.946 15.9626 128.143C22.9565 129.308 28.4382 126.063 30.0133 119.605C31.9666 111.509 39.8426 105.397 50.3964 108.075C56.1931 109.555 59.8791 113.493 61.3598 119.322C62.2734 122.913 64.1006 125.874 67.5976 127.198C69.5823 127.954 71.8821 128.206 74.0559 128.206C79.8841 128.206 84.9878 124.205 86.2479 118.534C86.7205 116.423 86.626 114.123 86.4369 111.95C85.3973 99.6316 84.2317 87.3451 83.129 75.0585C82.814 71.4986 81.7113 68.2537 79.3801 65.4813C75.6626 61.1023 70.811 59.7791 65.2033 59.6216C59.9421 59.4956 56.4767 61.0708 53.9564 65.9854C50.5854 72.6012 41.1027 72.3807 37.3853 65.9224C37.0072 65.2293 36.6607 64.5047 36.2826 63.8431C34.7704 61.1968 32.4707 59.8106 29.4463 59.7161C28.4697 59.6846 27.5245 59.7161 26.6109 59.7161ZM43.371 55.148C43.371 58.1094 43.4655 61.0393 43.3395 64.0007C43.2765 65.5443 43.9696 65.9854 45.2613 66.0484C45.7968 66.0799 46.3324 66.0169 46.868 65.9539C47.7816 65.8594 48.1281 65.3868 48.1281 64.3787C48.0966 58.2984 48.0966 52.1867 48.0966 46.1064C48.0966 44.2792 47.183 43.1765 45.7023 43.208C44.2531 43.2395 43.4025 44.3107 43.371 46.1694C43.371 49.1308 43.371 52.1237 43.371 55.148Z" fill="url(#paint0_linear_143_10)"/>
<path d="M123.552 19.5801C123.52 24.8097 119.267 29.0313 114.038 28.9683C108.84 28.9368 104.65 24.6207 104.713 19.3911C104.744 14.2559 108.997 10.0659 114.164 10.0659C119.362 10.0974 123.583 14.3504 123.552 19.5801ZM114.101 24.2427C116.653 24.2427 118.795 22.1634 118.826 19.5801C118.858 17.0283 116.779 14.8545 114.227 14.7915C111.58 14.7285 109.407 16.8707 109.407 19.5171C109.407 22.1004 111.549 24.2427 114.101 24.2427Z" fill="url(#paint1_linear_143_10)"/>
<path d="M33.9229 81.0443C33.8914 84.9508 30.6464 88.1327 26.7084 88.0697C22.865 88.0067 19.7461 84.7933 19.7776 80.9183C19.8091 77.0118 23.054 73.8299 26.992 73.8929C30.8355 73.9559 33.9544 77.1693 33.9229 81.0443ZM29.1973 80.9498C29.1973 79.6581 28.0946 78.6185 26.8345 78.6185C25.5428 78.6185 24.5032 79.7211 24.5032 80.9813C24.5032 82.2729 25.6058 83.3126 26.866 83.3126C28.1576 83.3126 29.2288 82.2414 29.1973 80.9498Z" fill="url(#paint2_linear_143_10)"/>
<path d="M71.6621 81.0128C71.6621 84.9508 68.4172 88.1327 64.4792 88.0697C60.6357 88.0067 57.4853 84.8248 57.5168 80.9498C57.5168 77.0433 60.7617 73.8299 64.6997 73.8929C68.5432 73.9244 71.6936 77.1378 71.6621 81.0128ZM64.5737 83.3441C65.8339 83.3441 66.9365 82.2729 66.9365 81.0128C66.9365 79.7211 65.8654 78.65 64.6052 78.65C63.3136 78.65 62.2424 79.7211 62.2424 80.9813C62.2424 82.2414 63.3136 83.3126 64.5737 83.3441Z" fill="url(#paint3_linear_143_10)"/>
<path d="M26.865 102.215C26.865 106.153 23.6831 109.366 19.7451 109.335C15.9016 109.303 12.7197 106.153 12.7197 102.278C12.7197 98.34 15.9016 95.1266 19.8396 95.1581C23.6831 95.1896 26.8335 98.34 26.865 102.215ZM19.7136 104.609C20.9738 104.641 22.0764 103.601 22.1394 102.341C22.1709 101.049 21.1313 99.9467 19.8711 99.9152C18.5795 99.8837 17.5083 100.923 17.4453 102.184C17.3823 103.444 18.4219 104.546 19.7136 104.609Z" fill="url(#paint4_linear_143_10)"/>
<path d="M71.6638 95.1581C75.5703 95.1581 78.7522 98.403 78.7207 102.309C78.6892 106.184 75.5073 109.335 71.6323 109.303C67.7258 109.303 64.5439 106.058 64.5754 102.152C64.6384 98.3085 67.8203 95.1581 71.6638 95.1581ZM71.6008 99.8837C70.3091 99.9152 69.2695 101.018 69.301 102.309C69.3325 103.601 70.4352 104.641 71.6953 104.609C72.9555 104.578 74.0266 103.475 73.9951 102.183C73.9951 100.892 72.8925 99.8522 71.6008 99.8837Z" fill="url(#paint5_linear_143_10)"/>
<defs>
<linearGradient id="paint0_linear_143_10" x1="66.5018" y1="133.032" x2="66.5018" y2="0.614685" gradientUnits="userSpaceOnUse">
<stop stop-color="#1CA7FB"/>
<stop offset="1" stop-color="#17FCD7"/>
</linearGradient>
<linearGradient id="paint1_linear_143_10" x1="114.132" y1="28.969" x2="114.132" y2="10.0659" gradientUnits="userSpaceOnUse">
<stop stop-color="#1CA7FB"/>
<stop offset="1" stop-color="#17FCD7"/>
</linearGradient>
<linearGradient id="paint2_linear_143_10" x1="26.8502" y1="88.0706" x2="26.8502" y2="73.892" gradientUnits="userSpaceOnUse">
<stop stop-color="#1CA7FB"/>
<stop offset="1" stop-color="#17FCD7"/>
</linearGradient>
<linearGradient id="paint3_linear_143_10" x1="64.5895" y1="88.0706" x2="64.5895" y2="73.892" gradientUnits="userSpaceOnUse">
<stop stop-color="#1CA7FB"/>
<stop offset="1" stop-color="#17FCD7"/>
</linearGradient>
<linearGradient id="paint4_linear_143_10" x1="19.7924" y1="109.335" x2="19.7924" y2="95.1579" gradientUnits="userSpaceOnUse">
<stop stop-color="#1CA7FB"/>
<stop offset="1" stop-color="#17FCD7"/>
</linearGradient>
<linearGradient id="paint5_linear_143_10" x1="71.6481" y1="109.304" x2="71.6481" y2="95.1581" gradientUnits="userSpaceOnUse">
<stop stop-color="#1CA7FB"/>
<stop offset="1" stop-color="#17FCD7"/>
</linearGradient>
</defs>
</svg>
