<svg width="96" height="135" viewBox="0 0 96 135" fill="none" xmlns="http://www.w3.org/2000/svg">
<path d="M12.0655 134.283C11.3613 134.087 10.6571 133.901 9.95986 133.694C4.28052 132.013 0.188318 126.691 0.0166421 120.756C-0.0078831 119.925 0.0026277 119.095 0.0026277 118.265C-0.0008759 83.7016 -0.0008759 49.1386 0.0026277 14.5756C0.0026277 7.95027 3.59732 2.70889 9.60599 0.767895C11.116 0.280895 12.7697 0.0426501 14.3604 0.0391465C32.7543 -0.00990388 51.1517 -0.00640028 69.5456 0.0146213C77.8666 0.0216285 83.9103 6.08636 83.9173 14.4319C83.9313 39.9942 83.9243 65.5564 83.9243 91.1152C83.9243 91.6337 83.9243 92.1558 83.9243 92.415C85.7041 92.5061 87.4349 92.345 89.0291 92.7304C92.6518 93.6063 95.0798 96.8331 95.1043 100.796C95.1744 110.932 95.1253 121.071 95.1323 131.207C95.1323 132.692 94.344 133.631 93.1003 134.283C92.5747 134.283 92.0527 134.283 91.5271 134.283C89.961 133.523 89.4705 132.24 89.4775 130.552C89.5161 120.721 89.5021 110.89 89.488 101.058C89.4845 99.163 88.3424 97.9122 86.7167 97.9157C85.084 97.9157 83.9489 99.1805 83.9278 101.058C83.9103 102.544 83.9243 104.029 83.9243 105.515C83.9243 105.82 83.9383 106.128 83.9103 106.433C83.7737 107.999 82.5439 109.141 81.0479 109.096C79.5869 109.054 78.4167 107.946 78.3816 106.405C78.3221 103.697 78.3781 100.988 78.3396 98.2801C78.3151 96.4582 77.3341 95.2985 75.803 95.1724C74.0021 95.0252 72.7514 96.2304 72.7233 98.2555C72.6813 100.922 72.7408 103.588 72.6953 106.251C72.6673 107.936 71.455 109.117 69.9099 109.103C68.3718 109.085 67.2122 107.88 67.1491 106.202C67.1246 105.547 67.1421 104.891 67.1421 104.236C67.1421 101.223 67.1666 98.2065 67.1281 95.1934C67.1106 93.6798 66.1015 92.5587 64.7211 92.359C63.5018 92.1838 62.1915 92.8985 61.7886 94.0792C61.5994 94.6398 61.5784 95.2775 61.5749 95.8836C61.5538 99.2926 61.5959 102.702 61.5468 106.107C61.5188 107.918 60.3381 109.106 58.744 109.106C57.1463 109.106 56.0287 107.915 55.9341 106.104C55.9131 105.711 55.9271 105.319 55.9271 104.923C55.9271 95.5297 55.9271 86.1366 55.9236 76.7399C55.9236 76.2144 55.9376 75.6889 55.878 75.1703C55.7414 74.0141 55.0757 73.2573 53.9791 72.907C51.975 72.2658 50.3563 73.6813 50.3563 76.0883C50.3493 87.7097 50.3528 99.3346 50.3528 110.956C50.3528 114.204 48.8183 115.301 45.7386 114.263C42.2665 113.093 38.8015 111.906 35.3154 110.784C33.6757 110.255 32.5616 110.669 31.9274 111.856C31.3073 113.02 31.6471 114.228 32.9084 115.294C35.3119 117.322 37.7399 119.323 40.1223 121.376C43.1635 124 46.2606 126.568 49.1616 129.343C51.2673 131.358 50.7102 133.263 47.9914 134.29C36.0161 134.283 24.0408 134.283 12.0655 134.283ZM5.67145 22.4306C5.67145 52.3269 5.67145 82.0619 5.67145 111.856C12.5245 111.856 19.2794 111.856 26.0274 111.856C26.1044 111.678 26.171 111.566 26.2025 111.447C27.5514 106.111 32.0535 103.655 37.2564 105.42C39.0748 106.037 40.8826 106.678 42.701 107.295C43.3386 107.512 43.9868 107.694 44.6595 107.901C44.6595 98.8827 44.6595 90.0396 44.6595 81.1124C44.0183 81.1124 43.4998 81.1124 42.9778 81.1124C35.5466 81.1124 28.119 81.1124 20.6879 81.1124C20.2079 81.1124 19.7244 81.1229 19.2479 81.0704C17.9726 80.9302 16.9846 79.9527 16.8094 78.6984C16.6377 77.4617 17.3349 76.2074 18.5507 75.7834C19.1113 75.5872 19.7454 75.5487 20.348 75.5452C27.9964 75.5312 35.6447 75.5347 43.2931 75.5347C43.7591 75.5347 44.225 75.5347 44.698 75.5347C44.7996 74.8165 44.8417 74.2524 44.9678 73.7058C45.9348 69.5365 49.8168 66.7372 54.0001 67.1751C58.2465 67.6201 61.4242 71.0711 61.5398 75.5277C61.6274 78.8911 61.5609 82.2581 61.5644 85.6216C61.5644 86.091 61.5644 86.557 61.5644 87.1316C65.6951 86.1541 68.9675 87.2367 71.448 90.5967C73.6378 89.4405 75.8836 89.2303 78.224 89.9625C78.224 67.3783 78.224 44.9097 78.224 22.4271C53.9931 22.4306 29.8813 22.4306 5.67145 22.4306ZM5.724 16.7128C29.8848 16.7128 54.0526 16.7128 78.3501 16.7128C78.3501 16.1207 78.3501 15.6056 78.3501 15.0906C78.3501 8.98734 74.9621 5.58534 68.8799 5.58184C50.9274 5.58184 32.9715 5.57483 15.0191 5.59585C13.8944 5.59585 12.7312 5.67644 11.6556 5.97775C7.21303 7.21802 4.86212 11.5134 5.724 16.7128ZM39.5197 128.712C39.5653 128.618 39.6143 128.523 39.6599 128.432C38.1428 127.139 36.6187 125.857 35.1122 124.55C32.7087 122.462 30.3368 120.335 27.9123 118.275C27.4743 117.904 26.8472 117.539 26.3006 117.536C19.798 117.487 13.2953 117.501 6.7926 117.508C6.41772 117.508 6.04283 117.56 5.56985 117.595C5.56985 118.205 5.56985 118.72 5.56985 119.235C5.56985 125.31 8.97184 128.712 15.0541 128.716C18.894 128.719 22.734 128.716 26.5739 128.716C30.8904 128.712 35.2068 128.712 39.5197 128.712Z" fill="url(#paint0_linear_145_18)"/>
<path d="M59.4553 44.7731C61.7607 47.8457 64.031 50.7817 66.1787 53.8018C66.6937 54.5271 67.0511 55.5466 67.0336 56.419C67.0126 57.5927 66.1262 58.381 64.963 58.6648C63.7857 58.9486 62.8012 58.5212 62.0795 57.5752C60.3067 55.2488 58.5584 52.9049 56.7961 50.568C56.5403 50.2317 56.267 49.9058 55.9237 49.4784C54.0808 51.9309 52.301 54.2994 50.5176 56.6643C50.2549 57.0146 50.0061 57.3755 49.7153 57.6978C48.6257 58.9101 47.0561 59.0853 45.8473 58.1463C44.6666 57.2284 44.3968 55.5782 45.3393 54.2818C47.1857 51.7382 49.0952 49.2437 50.9801 46.7281C51.4496 46.1009 51.9121 45.4703 52.4411 44.7555C50.2408 41.816 48.0406 38.901 45.8648 35.965C45.4794 35.4465 45.0765 34.8894 44.8873 34.2868C44.4879 33.0185 45.1396 31.6731 46.3063 31.088C47.5291 30.4749 48.892 30.7587 49.8099 31.9429C51.5722 34.2202 53.2785 36.5431 55.0127 38.845C55.2965 39.2199 55.5908 39.5877 55.9622 40.0642C57.9593 37.4085 59.8792 34.8719 61.7712 32.3178C62.4929 31.3473 63.3513 30.6641 64.6196 30.8042C66.8339 31.046 67.8429 33.4494 66.48 35.3554C64.9069 37.5557 63.2427 39.6929 61.6205 41.8581C60.9198 42.8075 60.2156 43.75 59.4553 44.7731Z" fill="url(#paint1_linear_145_18)"/>
<path d="M39.1093 41.1258C39.1093 43.4838 39.1864 45.8452 39.0953 48.1996C38.8675 54.0646 33.924 58.7349 28.0134 58.7489C22.0713 58.7629 16.9876 54.0401 16.8264 48.1505C16.6968 43.3506 16.7738 38.5437 16.7949 33.7402C16.8019 31.9779 18.0316 30.7482 19.6258 30.7797C21.1708 30.8112 22.327 31.9955 22.3411 33.7052C22.3726 38.2459 22.3165 42.79 22.3691 47.3307C22.4146 51.2337 25.6484 53.8299 29.2922 52.9855C31.8148 52.4004 33.5456 50.1791 33.5596 47.4148C33.5806 42.8741 33.5456 38.33 33.5771 33.7893C33.5911 31.6311 35.3569 30.2892 37.2559 30.9549C38.5102 31.3928 39.1268 32.3318 39.1303 33.6562C39.1373 36.1437 39.1338 38.6348 39.1338 41.1223C39.1268 41.1258 39.1198 41.1258 39.1093 41.1258Z" fill="url(#paint2_linear_145_18)"/>
<path d="M28.0411 64.3267C30.7038 64.3267 33.3665 64.2951 36.0258 64.3372C38.0964 64.3687 39.3227 65.6931 39.0984 67.5395C38.9303 68.9129 37.8617 69.9254 36.278 69.9359C30.7353 69.9815 25.1926 69.985 19.65 69.9324C17.9332 69.9149 16.791 68.6851 16.791 67.1366C16.7945 65.588 17.9402 64.3897 19.657 64.3477C22.4493 64.2846 25.2417 64.3302 28.0341 64.3302C28.0411 64.3337 28.0411 64.3302 28.0411 64.3267Z" fill="url(#paint3_linear_145_18)"/>
<path d="M25.1792 86.7532C26.9661 86.7532 28.7529 86.7322 30.5397 86.7602C32.3476 86.7917 33.5458 87.9024 33.5633 89.4965C33.5808 91.1257 32.3195 92.3064 30.4696 92.3169C26.9415 92.3379 23.4099 92.3379 19.8818 92.3169C18.0319 92.3064 16.7776 91.1257 16.7951 89.493C16.8126 87.8953 18.0073 86.8127 19.8222 86.7532C19.9098 86.7497 19.9974 86.7497 20.085 86.7497C21.7807 86.7497 23.48 86.7497 25.1792 86.7532Z" fill="url(#paint4_linear_145_18)"/>
<defs>
<linearGradient id="paint0_linear_145_18" x1="47.5713" y1="0" x2="47.5713" y2="134.29" gradientUnits="userSpaceOnUse">
<stop stop-color="#1CA7FB"/>
<stop offset="1" stop-color="#17FCD7"/>
</linearGradient>
<linearGradient id="paint1_linear_145_18" x1="55.934" y1="30.7738" x2="55.934" y2="58.7514" gradientUnits="userSpaceOnUse">
<stop stop-color="#1CA7FB"/>
<stop offset="1" stop-color="#17FCD7"/>
</linearGradient>
<linearGradient id="paint2_linear_145_18" x1="27.9463" y1="30.7791" x2="27.9463" y2="58.749" gradientUnits="userSpaceOnUse">
<stop stop-color="#1CA7FB"/>
<stop offset="1" stop-color="#17FCD7"/>
</linearGradient>
<linearGradient id="paint3_linear_145_18" x1="27.9579" y1="64.3143" x2="27.9579" y2="69.971" gradientUnits="userSpaceOnUse">
<stop stop-color="#1CA7FB"/>
<stop offset="1" stop-color="#17FCD7"/>
</linearGradient>
<linearGradient id="paint4_linear_145_18" x1="25.1792" y1="86.7456" x2="25.1792" y2="92.3326" gradientUnits="userSpaceOnUse">
<stop stop-color="#1CA7FB"/>
<stop offset="1" stop-color="#17FCD7"/>
</linearGradient>
</defs>
</svg>
