<svg width="123" height="123" viewBox="0 0 123 123" fill="none" xmlns="http://www.w3.org/2000/svg">
<path d="M89.2161 80.3678C91.0668 82.2087 92.8554 83.9875 94.7093 85.8349C95.7995 84.797 96.6807 85.2898 97.6468 86.2625C105.023 93.701 112.439 101.1 119.838 108.519C122.482 111.169 123.239 114.362 121.715 117.309C120.103 120.423 116.95 123.063 113.082 122.518C111.45 122.286 110.043 121.614 108.885 120.459C101.188 112.762 93.5049 105.053 85.8021 97.3631C84.911 96.4753 85.0416 95.6593 85.7205 94.8857C83.8633 93.0351 82.0551 91.2302 80.1881 89.373C67.8473 98.4728 54.0344 101.766 38.8865 98.4336C26.8003 95.7768 17.0085 89.3012 9.71365 79.2973C-5.33954 58.6628 -2.63375 30.8542 16.0032 13.2454C33.8275 -3.59643 61.9526 -4.47116 81.2163 11.1597C101.169 27.3488 106.41 57.9023 89.2161 80.3678ZM96.8668 49.8078C96.8472 23.8303 75.7949 2.74536 49.85 2.71925C23.8334 2.69314 2.73866 23.8139 2.78109 49.8404C2.82352 75.9126 23.9574 97.0563 49.8794 96.9681C75.821 96.8767 96.8864 75.7364 96.8668 49.8078ZM88.6286 96.1717C96.0573 103.653 103.499 111.196 111.022 118.654C111.698 119.326 112.883 119.688 113.875 119.793C115.928 120.008 118.343 118.242 119.316 116.095C120.165 114.211 119.724 112.256 118.01 110.539C110.902 103.408 103.786 96.286 96.6709 89.1608C96.4751 88.965 96.2597 88.7953 96.1226 88.6745C93.6061 91.191 91.1386 93.665 88.6286 96.1717ZM87.6886 92.5423C89.2782 90.9429 90.8971 89.3175 92.3201 87.8847C90.698 86.2429 88.9616 84.4902 87.4079 82.9202C85.8902 84.4347 84.2876 86.034 82.7242 87.5974C84.3399 89.2033 86.0665 90.9234 87.6886 92.5423Z" fill="url(#paint0_linear_145_32)"/>
<path d="M93.6353 49.7882C93.7038 73.9477 74.0093 93.7075 49.8368 93.7336C25.6674 93.763 6.0154 74.0946 5.98928 49.8535C5.96317 25.6581 25.4814 6.02235 49.6474 5.93096C73.8886 5.84283 93.5635 25.459 93.6353 49.7882ZM49.7976 90.9886C72.4818 91.0147 90.887 72.5801 90.8936 49.8274C90.9001 27.1366 72.5732 8.71508 49.9281 8.64327C27.2472 8.57147 8.75382 26.9832 8.69507 49.6936C8.63958 72.4855 27.0252 90.9593 49.7976 90.9886Z" fill="url(#paint1_linear_145_32)"/>
<path d="M101.309 100.222C100.754 99.8697 100.304 99.6804 99.9742 99.3606C98.3684 97.7971 96.7984 96.1946 95.2122 94.6116C94.5463 93.9457 94.3113 93.182 95.0327 92.4704C95.6985 91.8144 96.4394 91.9906 97.0759 92.6304C98.7176 94.2754 100.389 95.8878 101.975 97.585C102.301 97.9342 102.478 98.6262 102.386 99.0929C102.308 99.4944 101.74 99.7979 101.309 100.222Z" fill="url(#paint2_linear_145_32)"/>
<path d="M107.742 103.927C107.725 104.916 106.668 105.65 105.868 105.082C105.026 104.485 104.253 103.702 103.672 102.85C103.143 102.073 103.965 100.973 104.922 101.002C105.777 101.035 107.755 103.088 107.742 103.927Z" fill="url(#paint3_linear_145_32)"/>
<path d="M69.6456 49.9383C69.6456 53.199 69.6195 56.4629 69.662 59.7236C69.675 60.7354 69.316 61.3751 68.4445 61.9039C62.6282 65.4126 56.8282 68.9539 51.0446 72.5149C50.1666 73.0534 49.4485 73.0338 48.5738 72.4953C42.7901 68.9311 36.9902 65.3963 31.1706 61.8875C30.2959 61.3621 29.9499 60.7256 29.9531 59.7105C29.9858 53.1043 29.9825 46.5014 29.9531 39.8953C29.9499 38.9161 30.3089 38.3123 31.1282 37.8194C36.9771 34.2846 42.8162 30.7302 48.6358 27.1497C49.5334 26.5981 50.2547 26.696 51.1099 27.2215C56.9 30.7759 62.7033 34.3074 68.5196 37.8162C69.3617 38.3221 69.6652 38.9618 69.6554 39.9149C69.6228 43.2538 69.6456 46.5961 69.6456 49.9383ZM65.5658 39.3926C65.4156 39.2033 65.3797 39.1185 65.3144 39.0793C60.3533 36.0504 55.3986 33.0084 50.4081 30.0252C50.0817 29.8294 49.3996 29.9305 49.034 30.146C44.2915 32.9856 39.5752 35.8709 34.8556 38.7496C34.5912 38.9096 34.3562 39.1185 34.0298 39.36C39.1933 42.5097 44.2524 45.6071 49.3376 48.6622C49.5954 48.8188 50.1307 48.7601 50.4114 48.5903C55.4607 45.5549 60.4904 42.4836 65.5658 39.3926ZM48.3551 69.1432C48.4237 68.8462 48.4694 68.7352 48.4694 68.6243C48.4759 63.1148 48.4922 57.6085 48.4432 52.0991C48.44 51.6911 48.0483 51.1329 47.6762 50.9045C43.0056 48.0094 38.3055 45.16 33.6087 42.304C33.3542 42.1506 33.0637 42.0625 32.6785 41.8928C32.6785 47.683 32.6687 53.31 32.7014 58.937C32.7046 59.2666 32.9527 59.7366 33.2269 59.9063C38.2174 62.9842 43.2242 66.0229 48.3551 69.1432ZM51.2535 69.1008C51.5048 68.98 51.6484 68.9245 51.7757 68.8462C56.603 65.9087 61.4369 62.9842 66.2349 60.001C66.6037 59.7725 66.8844 59.0969 66.8876 58.6269C66.9333 53.4112 66.917 48.1987 66.9137 42.9829C66.9137 42.6468 66.855 42.3138 66.8224 41.9679C66.62 42.007 66.5319 42.0005 66.4699 42.0364C61.574 45.0164 56.6716 47.9833 51.8018 51.0089C51.4656 51.2178 51.2241 51.8543 51.2208 52.2916C51.1817 57.5465 51.1947 62.8014 51.198 68.0563C51.198 68.3664 51.2306 68.6765 51.2535 69.1008Z" fill="url(#paint4_linear_145_32)"/>
<path d="M18.8691 31.7257C17.3155 31.7485 16.7019 30.6029 17.3906 29.5552C18.373 28.0603 19.3783 26.5589 20.5435 25.2077C28.0114 16.542 37.4506 11.93 48.907 11.5514C49.1093 11.5449 49.315 11.5547 49.5173 11.5449C50.428 11.4959 51.0905 11.8843 51.1297 12.8113C51.1754 13.8068 50.49 14.1528 49.55 14.2768C46.3742 14.6848 43.1135 14.8317 40.052 15.677C31.618 18.0075 25.0053 23.011 20.1225 30.3026C19.721 30.8999 19.1662 31.396 18.8691 31.7257Z" fill="url(#paint5_linear_145_32)"/>
<path d="M61.022 86.3963C60.7022 86.0732 60.1212 85.75 60.0298 85.3192C59.9351 84.8753 60.2289 84.2617 60.5292 83.8537C60.7348 83.573 61.2407 83.5012 61.6226 83.3641C68.8685 80.7693 74.6521 76.2683 79.0617 69.9722C79.2706 69.672 79.4599 69.3521 79.7014 69.0779C80.24 68.4643 81.0004 68.3076 81.5161 68.8756C81.8589 69.2542 81.8882 70.0147 81.8654 70.5956C81.8491 70.9449 81.4672 71.2843 81.2322 71.6173C76.4734 78.3931 70.2034 83.1878 62.4157 85.9785C62.0338 86.1188 61.6389 86.2135 61.022 86.3963Z" fill="url(#paint6_linear_145_32)"/>
<path d="M88.2437 51.8967C87.6366 54.8767 87.0327 57.8566 86.4191 60.8333C86.3636 61.1107 86.269 61.3849 86.1645 61.646C85.8479 62.4555 85.2507 62.8014 84.4249 62.5207C83.6579 62.2596 83.338 61.6362 83.5828 60.8692C84.7154 57.3115 85.2637 53.669 85.329 49.9449C85.3453 49.1158 85.7304 48.5185 86.6476 48.512C87.6268 48.5022 87.9989 49.1322 88.0413 50.0102C88.0707 50.6172 88.0478 51.2309 88.0478 51.8379C88.1131 51.8575 88.1784 51.8771 88.2437 51.8967Z" fill="url(#paint7_linear_145_32)"/>
<path d="M51.8832 88.1262C51.1227 88.1262 50.4699 88.1653 49.8237 88.1164C49.0469 88.0544 48.5149 87.6562 48.492 86.8108C48.4692 85.9752 48.9359 85.515 49.7356 85.4334C52.0007 85.205 54.2659 84.9928 56.531 84.7872C57.3405 84.7154 57.8986 85.1038 58.0324 85.8937C58.1793 86.7651 57.6897 87.3265 56.8574 87.4571C55.1732 87.7247 53.476 87.9173 51.8832 88.1262Z" fill="url(#paint8_linear_145_32)"/>
<path d="M12.2988 41.3347C13.2356 38.8019 14.0516 36.4225 15.0405 34.1149C15.1841 33.7787 16.2221 33.547 16.679 33.7167C17.0478 33.8538 17.4689 34.7546 17.3481 35.1691C16.7116 37.3951 15.9773 39.5983 15.1221 41.7492C14.9557 42.1702 14.1038 42.5684 13.5979 42.5358C13.1768 42.5031 12.7982 41.8275 12.2988 41.3347Z" fill="url(#paint9_linear_145_32)"/>
<path d="M14.2892 48.1595C14.2892 48.7274 14.3382 49.3019 14.2794 49.8633C14.1913 50.7086 13.6724 51.2276 12.8205 51.1591C12.0437 51.097 11.59 50.5813 11.5998 49.7588C11.6096 48.8254 11.6193 47.8919 11.6683 46.9617C11.714 46.0576 12.0632 45.3362 13.1077 45.3754C14.1587 45.4146 14.4328 46.1424 14.3774 47.0694C14.3578 47.4349 14.3415 47.7972 14.3219 48.1628C14.3088 48.1595 14.299 48.1595 14.2892 48.1595Z" fill="url(#paint10_linear_145_32)"/>
<defs>
<linearGradient id="paint0_linear_145_32" x1="61.2471" y1="0" x2="61.2471" y2="122.59" gradientUnits="userSpaceOnUse">
<stop stop-color="#1CA7FB"/>
<stop offset="1" stop-color="#17FCD7"/>
</linearGradient>
<linearGradient id="paint1_linear_145_32" x1="49.8123" y1="5.93066" x2="49.8123" y2="93.7336" gradientUnits="userSpaceOnUse">
<stop stop-color="#1CA7FB"/>
<stop offset="1" stop-color="#17FCD7"/>
</linearGradient>
<linearGradient id="paint2_linear_145_32" x1="98.5006" y1="92.0564" x2="98.5006" y2="100.222" gradientUnits="userSpaceOnUse">
<stop stop-color="#1CA7FB"/>
<stop offset="1" stop-color="#17FCD7"/>
</linearGradient>
<linearGradient id="paint3_linear_145_32" x1="105.624" y1="101.002" x2="105.624" y2="105.281" gradientUnits="userSpaceOnUse">
<stop stop-color="#1CA7FB"/>
<stop offset="1" stop-color="#17FCD7"/>
</linearGradient>
<linearGradient id="paint4_linear_145_32" x1="49.8077" y1="26.7792" x2="49.8077" y2="72.9091" gradientUnits="userSpaceOnUse">
<stop stop-color="#1CA7FB"/>
<stop offset="1" stop-color="#17FCD7"/>
</linearGradient>
<linearGradient id="paint5_linear_145_32" x1="34.1211" y1="11.5408" x2="34.1211" y2="31.726" gradientUnits="userSpaceOnUse">
<stop stop-color="#1CA7FB"/>
<stop offset="1" stop-color="#17FCD7"/>
</linearGradient>
<linearGradient id="paint6_linear_145_32" x1="70.9415" y1="68.5236" x2="70.9415" y2="86.3963" gradientUnits="userSpaceOnUse">
<stop stop-color="#1CA7FB"/>
<stop offset="1" stop-color="#17FCD7"/>
</linearGradient>
<linearGradient id="paint7_linear_145_32" x1="85.8728" y1="48.5119" x2="85.8728" y2="62.617" gradientUnits="userSpaceOnUse">
<stop stop-color="#1CA7FB"/>
<stop offset="1" stop-color="#17FCD7"/>
</linearGradient>
<linearGradient id="paint8_linear_145_32" x1="53.2748" y1="84.7787" x2="53.2748" y2="88.141" gradientUnits="userSpaceOnUse">
<stop stop-color="#1CA7FB"/>
<stop offset="1" stop-color="#17FCD7"/>
</linearGradient>
<linearGradient id="paint9_linear_145_32" x1="14.834" y1="33.6597" x2="14.834" y2="42.5377" gradientUnits="userSpaceOnUse">
<stop stop-color="#1CA7FB"/>
<stop offset="1" stop-color="#17FCD7"/>
</linearGradient>
<linearGradient id="paint10_linear_145_32" x1="12.9919" y1="45.3739" x2="12.9919" y2="51.1651" gradientUnits="userSpaceOnUse">
<stop stop-color="#1CA7FB"/>
<stop offset="1" stop-color="#17FCD7"/>
</linearGradient>
</defs>
</svg>
