<svg width="134" height="135" viewBox="0 0 134 135" fill="none" xmlns="http://www.w3.org/2000/svg">
<path d="M67.7902 0.727722C68.8567 1.46902 69.1294 2.48655 69.1225 3.76633C69.0735 11.1898 69.098 18.6132 69.098 26.0367C69.098 26.3863 69.119 26.7395 69.0805 27.0822C68.9511 28.2396 68.0909 29.0403 67.0035 29.0403C65.9125 29.0403 65.0418 28.2396 64.9334 27.0822C64.8775 26.4772 64.9125 25.8618 64.9125 25.2499C64.9125 18.0887 64.9369 10.9275 64.888 3.76633C64.8775 2.48655 65.1502 1.46902 66.2202 0.731219C66.7447 0.727722 67.2657 0.727722 67.7902 0.727722Z" fill="url(#paint0_linear_145_54)"/>
<path d="M0 67.0771C0.737798 66.0037 1.75533 65.7344 3.03162 65.7414C10.4411 65.7904 17.8505 65.7659 25.26 65.7659C25.6516 65.7659 26.0537 65.7274 26.4349 65.7974C27.5608 66.0072 28.2426 66.703 28.2426 67.8604C28.2426 69.0178 27.5608 69.7276 26.4349 69.9199C25.8824 70.0143 25.3054 69.9584 24.739 69.9584C17.5044 69.9584 10.2697 69.9339 3.03511 69.9829C1.75883 69.9899 0.741295 69.7136 0.00349668 68.6471C0 68.1261 0 67.6016 0 67.0771Z" fill="url(#paint1_linear_145_54)"/>
<path d="M66.2202 135C65.1572 134.259 64.8775 133.241 64.888 131.961C64.9369 124.538 64.9125 117.115 64.9125 109.688C64.9125 109.296 64.874 108.894 64.9439 108.513C65.1537 107.383 65.8461 106.705 67.0035 106.701C68.1609 106.701 68.8672 107.38 69.0595 108.509C69.1539 109.062 69.098 109.642 69.098 110.209C69.098 117.457 69.0735 124.709 69.1224 131.958C69.1329 133.238 68.8497 134.252 67.7902 134.997C67.2657 135 66.7447 135 66.2202 135Z" fill="url(#paint2_linear_145_54)"/>
<path d="M74.8188 6.47278C79.8365 7.09519 84.9172 8.30504 89.7566 10.3576C110.835 19.2951 123.482 35.107 127.926 57.5627C128.094 58.4159 128.206 59.2901 128.269 60.1572C128.367 61.5104 127.633 62.465 126.461 62.6049C125.283 62.7448 124.377 61.8986 124.097 60.4929C123.503 57.4998 123.139 54.4297 122.209 51.5449C115.125 29.5998 100.296 16.1376 77.7945 11.2073C76.5636 10.938 75.2943 10.8366 74.06 10.5849C72.8222 10.3331 72.1124 9.34355 72.2697 8.23511C72.4271 7.10918 73.3362 6.42732 74.8188 6.47278Z" fill="url(#paint3_linear_145_54)"/>
<path d="M59.1471 129.248C53.9405 128.598 48.6955 127.318 43.7197 125.15C22.9845 116.132 10.4908 100.439 6.10252 78.2455C5.92419 77.3468 5.8053 76.4342 5.74236 75.5216C5.65145 74.2243 6.34379 73.3117 7.46272 73.1369C8.60614 72.9585 9.61668 73.7208 9.86844 75.0251C10.2461 76.9937 10.4943 78.9938 10.9454 80.9449C16.2009 103.635 34.2892 120.758 57.1435 124.72C58.0456 124.877 58.9618 124.94 59.8604 125.115C61.1367 125.363 61.9129 126.409 61.7311 127.542C61.5528 128.65 60.6437 129.3 59.1471 129.248Z" fill="url(#paint4_linear_145_54)"/>
<path d="M128.273 75.6859C127.668 80.6687 126.49 85.6829 124.489 90.4489C115.58 111.667 99.7855 124.454 77.2599 128.905C76.3647 129.084 75.4486 129.203 74.5395 129.251C73.2842 129.321 72.368 128.535 72.2596 127.405C72.1547 126.307 72.9135 125.349 74.1479 125.115C76.2004 124.723 78.3019 124.524 80.309 123.975C103.87 117.566 118.307 102.404 123.57 78.5042C123.822 77.3573 123.92 76.1754 124.143 75.018C124.395 73.7138 125.406 72.9515 126.549 73.1368C127.671 73.3187 128.329 74.2278 128.273 75.6859Z" fill="url(#paint5_linear_145_54)"/>
<path d="M5.73569 60.0313C6.34761 55.0276 7.56096 49.9819 9.56105 45.1634C17.5195 26.0296 31.4747 13.6234 51.4023 8.01827C53.7415 7.36089 56.1717 7.02171 58.56 6.54617C58.8572 6.48672 59.1684 6.47274 59.4726 6.46574C60.6824 6.43777 61.5601 7.11263 61.7384 8.1896C61.9238 9.28756 61.2209 10.3086 59.9971 10.5743C58.8502 10.8226 57.6718 10.931 56.5179 11.1548C33.0797 15.69 15.5613 32.8726 10.6171 56.1885C10.2989 57.6815 10.1485 59.2061 9.86526 60.7062C9.63448 61.9405 8.73934 62.6678 7.70432 62.5524C6.50496 62.423 5.69723 61.4614 5.73569 60.0313Z" fill="url(#paint6_linear_145_54)"/>
<path d="M20.6247 73.1159C21.6632 73.2348 22.3485 73.8782 22.5513 75.0775C23.3136 79.5778 24.5934 83.9206 26.6914 87.9803C33.5414 101.243 44.3007 109.313 58.9238 112.216C59.2664 112.282 59.6091 112.349 59.9483 112.429C61.2246 112.733 61.9659 113.761 61.7281 114.894C61.4903 116.031 60.3994 116.744 59.144 116.538C53.3326 115.576 47.8043 113.751 42.7307 110.744C29.4083 102.841 21.2296 91.2951 18.4812 75.9692C18.184 74.3362 19.0407 73.1124 20.6247 73.1159Z" fill="url(#paint7_linear_145_54)"/>
<path d="M115.87 75.3258C115.014 78.4308 114.423 81.6373 113.258 84.6199C106.363 102.292 93.5684 112.954 74.9381 116.524C73.6269 116.775 72.48 116.013 72.2737 114.831C72.0743 113.688 72.8052 112.66 74.1374 112.432C80.9804 111.261 87.3199 108.82 92.9705 104.761C102.919 97.6136 109.027 87.9802 111.286 75.9097C111.366 75.4796 111.415 75.0391 111.559 74.6299C111.94 73.5495 112.723 72.969 113.87 73.1508C115.003 73.3362 115.559 74.1299 115.87 75.3258Z" fill="url(#paint8_linear_145_54)"/>
<path d="M61.7546 21.4246C61.6078 22.561 60.8455 23.1519 59.6181 23.3582C53.9815 24.3093 48.6561 26.1696 43.7817 29.1802C32.3301 36.254 25.3193 46.4363 22.7422 59.6712C22.6758 60.0139 22.6093 60.3566 22.5324 60.6957C22.2317 62 21.2456 62.7658 20.1267 62.5735C18.9378 62.3671 18.214 61.2412 18.4308 59.909C19.284 54.7024 20.826 49.7092 23.3541 45.0796C31.1377 30.8376 42.9635 22.1309 58.9573 19.2182C60.5727 18.935 61.8036 19.8581 61.7546 21.4246Z" fill="url(#paint9_linear_145_54)"/>
<path d="M74.463 18.9034C77.5611 19.7601 80.7605 20.3546 83.7397 21.5225C101.37 28.4354 112.01 41.2507 115.57 59.9124C115.822 61.2377 115.066 62.3741 113.881 62.5769C112.727 62.7727 111.706 61.9825 111.458 60.5663C110.126 52.8981 107.192 45.9292 102.331 39.838C95.2997 31.0299 86.2258 25.5961 75.1553 23.5121C74.6833 23.4246 74.2042 23.3617 73.7497 23.2218C72.7182 22.9036 72.0678 21.8931 72.2776 20.8965C72.5153 19.7671 73.2671 19.2042 74.463 18.9034Z" fill="url(#paint10_linear_145_54)"/>
<path d="M67.0074 86.6375C69.441 86.7494 71.9097 86.634 74.2979 87.0186C78.994 87.7739 82.5151 91.9699 82.683 96.7254C82.7599 98.9073 82.7249 101.089 82.7039 103.275C82.6899 104.708 81.8403 105.621 80.6094 105.617C79.3821 105.614 78.5499 104.698 78.5289 103.264C78.5044 101.345 78.5359 99.4214 78.5184 97.5017C78.4869 93.6518 75.8505 90.9734 72.0391 90.9489C68.6858 90.9279 65.329 90.9279 61.9721 90.9489C58.1608 90.9734 55.5173 93.6553 55.4893 97.4947C55.4753 99.3724 55.4998 101.25 55.4823 103.128C55.4683 104.67 54.6676 105.61 53.4053 105.621C52.1395 105.628 51.2898 104.687 51.3108 103.156C51.3493 100.498 51.1849 97.8024 51.5835 95.1939C52.3108 90.4244 56.5698 86.9103 61.3812 86.7704C63.2519 86.7144 65.1296 86.7599 67.0004 86.7599C67.0039 86.7179 67.0039 86.6795 67.0074 86.6375Z" fill="url(#paint11_linear_145_54)"/>
<path d="M58.6261 46.9783C58.5877 52.7443 53.8147 57.4263 48.0312 57.3704C42.2757 57.3144 37.6286 52.524 37.695 46.723C37.7615 41.0164 42.496 36.3728 48.2235 36.4008C53.9895 36.4253 58.6646 41.1808 58.6261 46.9783ZM54.4371 46.9083C54.4476 43.4781 51.6643 40.6353 48.2515 40.5933C44.7723 40.5514 41.8945 43.3802 41.8841 46.8559C41.8736 50.2861 44.6604 53.1289 48.0697 53.1709C51.5489 53.2163 54.4266 50.384 54.4371 46.9083Z" fill="url(#paint12_linear_145_54)"/>
<path d="M85.805 57.3704C80.0425 57.3494 75.3535 52.5974 75.3849 46.8069C75.4164 41.0339 80.1754 36.3519 85.9589 36.4008C91.6654 36.4463 96.3195 41.1633 96.316 46.8978C96.3125 52.6744 91.5815 57.3879 85.805 57.3704ZM92.127 46.9608C92.162 43.5271 89.4031 40.6598 85.9938 40.5933C82.5111 40.5234 79.6089 43.3312 79.5704 46.8034C79.5355 50.2896 82.3643 53.1674 85.833 53.1744C89.2562 53.1814 92.092 50.384 92.127 46.9608Z" fill="url(#paint13_linear_145_54)"/>
<path d="M77.4696 73.1683C77.4451 78.9413 72.6897 83.6339 66.9097 83.5954C61.1541 83.5534 56.4861 78.777 56.5385 72.9795C56.591 67.2694 61.3115 62.6084 67.032 62.6223C72.8051 62.6363 77.4976 67.3778 77.4696 73.1683ZM73.2841 73.0809C73.2701 69.6542 70.4658 66.8358 67.046 66.8184C63.5703 66.8009 60.717 69.6507 60.731 73.1334C60.7415 76.5566 63.5529 79.3784 66.9691 79.3959C70.4413 79.4169 73.2946 76.5601 73.2841 73.0809Z" fill="url(#paint14_linear_145_54)"/>
<path d="M47.6851 60.5209C49.4719 60.5209 51.2622 60.5069 53.049 60.5244C54.5666 60.5418 55.5072 61.3915 55.4757 62.6678C55.4442 63.8952 54.5316 64.7029 53.077 64.7099C49.8496 64.7274 46.6221 64.7099 43.3947 64.7169C39.2372 64.7274 36.6566 67.3394 36.6426 71.5354C36.6391 73.3257 36.6531 75.1195 36.6356 76.9098C36.6216 78.4483 35.8069 79.3924 34.5411 79.3889C33.2753 79.3854 32.4431 78.4413 32.4641 76.8993C32.4991 74.2838 32.3312 71.6263 32.7194 69.0563C33.4641 64.1399 37.7476 60.6328 42.7094 60.5244C44.3668 60.4894 46.0242 60.5174 47.6816 60.5174C47.6851 60.5244 47.6851 60.5244 47.6851 60.5209Z" fill="url(#paint15_linear_145_54)"/>
<path d="M86.2809 60.423C88.5432 60.5279 90.8371 60.4195 93.0574 60.7796C97.8933 61.5664 101.414 65.7939 101.537 70.6962C101.589 72.7942 101.568 74.8922 101.547 76.9902C101.533 78.4448 100.729 79.3645 99.5123 79.3959C98.2465 79.4309 97.3863 78.4798 97.3723 76.9657C97.3514 75.0006 97.3898 73.032 97.3583 71.0669C97.3024 67.4618 94.6379 64.7728 91.0504 64.7309C87.9103 64.6959 84.7703 64.7239 81.6268 64.7204C79.5148 64.7204 78.5043 64.0245 78.5288 62.5874C78.5532 61.1887 79.5253 60.5244 81.5604 60.5244C83.1304 60.5244 84.7004 60.5244 86.2704 60.5244C86.2774 60.4894 86.2774 60.4544 86.2809 60.423Z" fill="url(#paint16_linear_145_54)"/>
<path d="M119.877 69.9619C116.038 69.9619 112.202 69.9689 108.362 69.9584C106.712 69.9549 105.754 69.1716 105.754 67.8639C105.754 66.5526 106.709 65.7693 108.359 65.7693C116.034 65.7624 123.713 65.7624 131.388 65.7693C133.038 65.7693 133.997 66.5526 134 67.8604C134 69.1646 133.038 69.9549 131.395 69.9584C127.556 69.9689 123.716 69.9619 119.877 69.9619Z" fill="url(#paint17_linear_145_54)"/>
<defs>
<linearGradient id="paint0_linear_145_54" x1="67.0051" y1="29.0403" x2="67.0051" y2="0.727722" gradientUnits="userSpaceOnUse">
<stop stop-color="#1CA7FB"/>
<stop offset="1" stop-color="#17FCD7"/>
</linearGradient>
<linearGradient id="paint1_linear_145_54" x1="14.1213" y1="69.983" x2="14.1213" y2="65.7413" gradientUnits="userSpaceOnUse">
<stop stop-color="#1CA7FB"/>
<stop offset="1" stop-color="#17FCD7"/>
</linearGradient>
<linearGradient id="paint2_linear_145_54" x1="67.0052" y1="135" x2="67.0052" y2="106.701" gradientUnits="userSpaceOnUse">
<stop stop-color="#1CA7FB"/>
<stop offset="1" stop-color="#17FCD7"/>
</linearGradient>
<linearGradient id="paint3_linear_145_54" x1="100.263" y1="62.6199" x2="100.263" y2="6.47064" gradientUnits="userSpaceOnUse">
<stop stop-color="#1CA7FB"/>
<stop offset="1" stop-color="#17FCD7"/>
</linearGradient>
<linearGradient id="paint4_linear_145_54" x1="33.7459" y1="129.251" x2="33.7459" y2="73.1111" gradientUnits="userSpaceOnUse">
<stop stop-color="#1CA7FB"/>
<stop offset="1" stop-color="#17FCD7"/>
</linearGradient>
<linearGradient id="paint5_linear_145_54" x1="100.263" y1="129.256" x2="100.263" y2="73.1093" gradientUnits="userSpaceOnUse">
<stop stop-color="#1CA7FB"/>
<stop offset="1" stop-color="#17FCD7"/>
</linearGradient>
<linearGradient id="paint6_linear_145_54" x1="33.7511" y1="62.5644" x2="33.7511" y2="6.4649" gradientUnits="userSpaceOnUse">
<stop stop-color="#1CA7FB"/>
<stop offset="1" stop-color="#17FCD7"/>
</linearGradient>
<linearGradient id="paint7_linear_145_54" x1="40.0975" y1="116.573" x2="40.0975" y2="73.1159" gradientUnits="userSpaceOnUse">
<stop stop-color="#1CA7FB"/>
<stop offset="1" stop-color="#17FCD7"/>
</linearGradient>
<linearGradient id="paint8_linear_145_54" x1="94.0557" y1="116.572" x2="94.0557" y2="73.1179" gradientUnits="userSpaceOnUse">
<stop stop-color="#1CA7FB"/>
<stop offset="1" stop-color="#17FCD7"/>
</linearGradient>
<linearGradient id="paint9_linear_145_54" x1="40.0743" y1="62.6028" x2="40.0743" y2="19.1674" gradientUnits="userSpaceOnUse">
<stop stop-color="#1CA7FB"/>
<stop offset="1" stop-color="#17FCD7"/>
</linearGradient>
<linearGradient id="paint10_linear_145_54" x1="93.9283" y1="62.6064" x2="93.9283" y2="18.9034" gradientUnits="userSpaceOnUse">
<stop stop-color="#1CA7FB"/>
<stop offset="1" stop-color="#17FCD7"/>
</linearGradient>
<linearGradient id="paint11_linear_145_54" x1="67.0195" y1="105.621" x2="67.0195" y2="86.6375" gradientUnits="userSpaceOnUse">
<stop stop-color="#1CA7FB"/>
<stop offset="1" stop-color="#17FCD7"/>
</linearGradient>
<linearGradient id="paint12_linear_145_54" x1="48.1604" y1="57.3709" x2="48.1604" y2="36.4007" gradientUnits="userSpaceOnUse">
<stop stop-color="#1CA7FB"/>
<stop offset="1" stop-color="#17FCD7"/>
</linearGradient>
<linearGradient id="paint13_linear_145_54" x1="85.8504" y1="57.3704" x2="85.8504" y2="36.4005" gradientUnits="userSpaceOnUse">
<stop stop-color="#1CA7FB"/>
<stop offset="1" stop-color="#17FCD7"/>
</linearGradient>
<linearGradient id="paint14_linear_145_54" x1="67.0039" y1="83.5956" x2="67.0039" y2="62.6223" gradientUnits="userSpaceOnUse">
<stop stop-color="#1CA7FB"/>
<stop offset="1" stop-color="#17FCD7"/>
</linearGradient>
<linearGradient id="paint15_linear_145_54" x1="43.9668" y1="79.3889" x2="43.9668" y2="60.5068" gradientUnits="userSpaceOnUse">
<stop stop-color="#1CA7FB"/>
<stop offset="1" stop-color="#17FCD7"/>
</linearGradient>
<linearGradient id="paint16_linear_145_54" x1="90.0491" y1="79.3969" x2="90.0491" y2="60.423" gradientUnits="userSpaceOnUse">
<stop stop-color="#1CA7FB"/>
<stop offset="1" stop-color="#17FCD7"/>
</linearGradient>
<linearGradient id="paint17_linear_145_54" x1="119.877" y1="69.9641" x2="119.877" y2="65.7641" gradientUnits="userSpaceOnUse">
<stop stop-color="#1CA7FB"/>
<stop offset="1" stop-color="#17FCD7"/>
</linearGradient>
</defs>
</svg>
