<svg width="115" height="110" viewBox="0 0 115 110" fill="none" xmlns="http://www.w3.org/2000/svg">
<path d="M114.018 72.825C113.322 74.4071 112.046 75.3766 110.544 76.0962C107.035 77.7824 103.258 78.5527 99.4694 79.2753C98.378 79.4835 97.2776 79.647 96.1833 79.8374C94.5655 80.1169 93.7685 79.4746 93.7625 77.8478C93.7506 74.7312 93.7596 71.6146 93.7596 68.498C93.7596 68.0965 93.7596 67.695 93.7596 67.1657C90.6281 66.8237 87.5739 66.4728 84.5168 66.1635C82.7086 65.9791 80.8946 65.881 79.0865 65.7085C78.4947 65.652 78.1616 65.8275 77.8493 66.3598C75.616 70.1753 72.7135 73.4257 69.3887 76.3223C69.0913 76.581 68.8772 77.1311 68.9039 77.5237C69.011 79.0017 69.237 80.4708 69.4154 81.9399C69.4392 82.1243 69.4362 82.3146 69.4898 82.4901C69.6831 83.1175 73.2904 84.1138 73.7424 83.635C75.0212 82.2819 76.5289 82.0886 78.227 82.6179C80.1006 83.1978 81.989 83.7421 83.8625 84.322C90.9374 86.5137 95.1543 91.2451 96.4688 98.543C96.9862 101.425 97.5126 104.303 98.0062 107.188C98.2323 108.517 97.7743 109.338 96.7751 109.531C95.7402 109.731 94.9669 109.074 94.7201 107.72C94.1699 104.696 93.6852 101.657 93.0904 98.6382C92.0198 93.193 88.8378 89.5292 83.577 87.739C81.5786 87.0609 79.5385 86.5078 77.5163 85.9041C76.2791 85.5353 76.1631 85.5799 76.0561 86.8498C75.6397 91.6972 74.9409 96.5029 73.4837 101.154C72.7343 103.548 71.741 105.874 70.7745 108.193C70.2362 109.481 69.2816 109.865 68.324 109.371C67.3962 108.895 67.1761 107.967 67.7679 106.778C70.6793 100.907 71.854 94.5878 72.6034 88.1553C72.6837 87.4713 72.4904 87.1382 71.7975 86.9985C71.1195 86.8646 70.4682 86.6118 69.695 86.3769C69.3203 88.6846 68.3359 90.5939 66.6259 92.0838C66.1234 92.5209 65.597 92.9402 65.0409 93.3001C64.0773 93.9186 63.1525 93.77 62.5963 92.967C62.0492 92.1789 62.2752 91.2362 63.1673 90.5582C63.5807 90.2459 64.0119 89.9515 64.3955 89.6065C65.8438 88.3129 66.5456 86.6892 66.3613 84.7472C66.1828 82.8677 65.9301 80.9942 65.6832 78.9125C59.905 82.3443 54.1684 82.383 48.3634 78.8828C48.1195 81.1013 47.8043 83.1175 47.6972 85.1428C47.5604 87.7895 49.0533 89.5887 51.254 90.7128C52.509 91.3552 53.981 91.5842 55.3639 91.9618C55.8248 92.0867 56.3304 92.0362 56.7913 92.1641C57.6716 92.4049 58.0493 93.0473 57.9541 93.9365C57.8619 94.787 57.3445 95.3253 56.4999 95.3461C50.7306 95.4948 45.3598 91.9202 44.5152 87.0668C44.4855 86.8914 44.4022 86.7219 44.316 86.4691C43.7985 86.6089 43.3108 86.7338 42.826 86.8795C42.371 87.0163 41.925 87.1769 41.2202 87.4118C41.8417 90.8913 42.261 94.3974 43.1353 97.7847C43.9264 100.848 45.1873 103.798 46.3084 106.769C46.7724 108 46.6564 108.895 45.7285 109.371C44.771 109.862 43.8907 109.448 43.2662 108.196C40.6968 103.025 39.3823 97.4903 38.5645 91.8191C38.3177 90.0972 38.1452 88.3605 37.9846 86.6267C37.9132 85.8624 37.6426 85.5413 36.8486 85.7881C34.4814 86.5286 32.0517 87.1115 29.747 88.0066C24.4624 90.0556 21.6283 94.0911 20.7569 99.6196C20.3347 102.29 19.8321 104.949 19.3622 107.613C19.3176 107.869 19.267 108.128 19.1808 108.372C18.8626 109.264 18.2083 109.698 17.2835 109.52C16.3556 109.338 15.8084 108.654 15.972 107.741C16.7273 103.59 17.224 99.3489 18.4492 95.3342C20.1532 89.7582 24.2126 86.2223 29.7618 84.4498C31.8435 83.7867 33.949 83.2038 36.0397 82.5704C37.6337 82.0856 39.0314 82.3711 40.2447 83.5458C40.4351 83.7302 40.7592 83.977 40.9555 83.9264C42.0677 83.6499 43.168 83.3168 44.2505 82.9332C44.4319 82.8677 44.5568 82.4692 44.5925 82.2075C44.8096 80.6284 45.0327 79.0493 45.1635 77.4612C45.1932 77.1014 44.9791 76.5929 44.7026 76.352C41.3213 73.4049 38.389 70.089 36.0843 66.2289C35.9356 65.9791 35.5133 65.7115 35.2427 65.7382C30.4101 66.1962 25.5806 66.6958 20.751 67.1895C20.7183 67.1925 20.6885 67.2281 20.519 67.3382C20.519 67.6385 20.519 68.0311 20.519 68.4236C20.519 71.6146 20.528 74.8056 20.5131 77.9965C20.5071 79.3586 19.7845 80.1139 18.5295 79.9236C13.7654 79.195 9.01609 78.3891 4.51663 76.5572C3.86832 76.2925 3.24678 75.9505 2.63416 75.6055C0.834972 74.5974 -0.0512422 73.1729 0.00228749 70.9901C0.121242 66.0951 0.037974 61.1971 0.0409478 56.2992C0.0409478 56.0018 0.014183 55.7014 0.0587911 55.41C0.195589 54.4881 0.713043 53.929 1.6736 53.8874C2.58063 53.8487 3.26463 54.4911 3.36574 55.4486C3.39548 55.7431 3.37763 56.0404 3.37763 56.3378C3.37763 61.1228 3.43414 65.9107 3.33897 70.6957C3.31518 71.9179 3.77018 72.5692 4.76643 73.0123C5.5099 73.3424 6.24147 73.738 7.02063 73.9461C10.3395 74.8353 13.6762 75.665 17.1229 76.5483C17.1229 57.2181 17.1229 38.1615 17.1229 19.2001C12.5461 18.0314 7.98416 16.8686 3.37763 15.6939C3.37763 15.8545 3.37763 16.25 3.37763 16.6426C3.37763 26.5842 3.37763 36.5289 3.37763 46.4705C3.37763 46.8423 3.41332 47.2229 3.33897 47.5798C3.15162 48.4481 2.56874 48.9597 1.69145 48.9478C0.817128 48.9359 0.243171 48.4154 0.0766343 47.5411C0.014183 47.217 0.0439217 46.875 0.0439217 46.5419C0.0439217 35.0033 0.0647388 23.4676 0.0201307 11.929C0.0171568 10.1328 0.727912 8.86888 2.16727 7.93806C4.89431 6.17158 7.99606 5.40432 11.1067 4.71141C18.3243 3.10552 25.6579 2.34421 33.0182 1.77323C43.7569 0.940541 54.5134 0.643154 65.2669 1.03273C73.7097 1.33904 82.1377 2.10333 90.5686 2.68918C91.9514 2.78434 92.6057 3.52186 92.46 4.62219C92.3262 5.64223 91.5024 6.15374 90.1909 6.00207C74.2688 4.14043 58.2961 3.90847 42.3026 4.55974C32.6286 4.95229 22.9755 5.68982 13.468 7.6377C10.8302 8.17895 8.25478 9.04137 5.68238 9.85324C4.87349 10.109 4.16273 10.68 3.40737 11.1082C3.4044 11.251 3.40142 11.3937 3.39845 11.5364C4.65937 12.1134 5.87271 12.8866 7.19311 13.2256C10.9551 14.1832 14.7586 14.9921 18.5563 15.801C20.1384 16.1311 20.525 16.5088 20.525 18.1801C20.525 32.9097 20.525 47.6363 20.525 62.3659C20.525 62.803 20.525 63.2402 20.525 63.7487C24.6557 63.3235 28.6615 62.9101 32.7298 62.4908C32.4829 61.7205 32.2361 60.9592 31.9625 60.1087C30.9871 60.1087 29.9908 60.1176 28.9946 60.1057C26.217 60.079 24.6706 58.5355 24.6468 55.7401C24.6289 53.6257 24.6349 51.5112 24.6438 49.3968C24.6587 46.417 26.104 44.9657 29.0689 44.9211C29.3901 44.9152 29.7083 44.8795 29.7975 44.8736C29.5239 42.0186 28.9975 39.2321 29.0481 36.4545C29.1403 31.5566 30.999 27.2712 34.5736 23.8572C37.5088 21.0558 40.9644 19.9376 45.0059 21.029C45.336 21.1183 45.8683 20.9309 46.1479 20.6871C51.2153 16.3125 57.1066 14.433 63.7413 14.9802C68.5203 15.3727 72.7938 17.1392 76.5289 20.1637C77.5401 20.9815 77.7125 21.945 77.0315 22.7569C76.3713 23.542 75.4762 23.5747 74.477 22.7836C70.3849 19.5421 65.7427 17.9957 60.5206 18.2633C55.6256 18.5161 51.3611 20.3153 47.8459 23.7323C46.811 24.7375 45.9189 25.0616 44.5063 24.4639C41.7436 23.2951 39.2277 24.0951 37.1281 26.0489C33.3305 29.5849 31.9684 34.0635 32.4086 39.1488C32.4918 40.1005 32.6732 41.0462 32.8338 42.1465C33.0777 41.9711 33.2294 41.9027 33.3275 41.7837C34.6985 40.1213 36.4679 39.4135 38.6061 39.4016C39.2158 39.3987 39.9146 39.1518 40.4172 38.795C42.3324 37.4418 43.403 35.4434 44.2951 33.3409C44.426 33.0346 44.5212 32.7134 44.652 32.4071C45.559 30.2986 47.8192 29.8942 49.437 31.5328C50.8942 33.0078 52.3097 34.5364 53.8621 35.9073C54.8524 36.7816 56.0211 37.4716 57.175 38.1288C58.8047 39.0567 60.5503 39.5087 62.4804 39.4611C66.3375 39.363 70.1976 39.5027 74.0547 39.4076C76.8501 39.3392 79.3928 39.6931 81.186 42.435C82.2031 38.0396 81.7421 34.0457 80.0827 30.1648C79.8805 29.689 79.6277 29.234 79.4017 28.7671C78.8575 27.6519 79.0508 26.7597 79.9459 26.266C80.8411 25.7724 81.757 26.0965 82.3339 27.1731C83.6603 29.6444 84.4959 32.2762 84.8736 35.0598C85.3227 38.3459 84.9718 41.5577 83.9904 44.9271C84.609 44.9271 85.1056 44.9092 85.6052 44.9301C87.7137 45.0252 89.2898 46.4586 89.3701 48.5671C89.4683 51.1603 89.4683 53.7625 89.379 56.3557C89.3047 58.5415 87.6869 60.0106 85.4506 60.0938C84.3413 60.1355 83.232 60.0998 82.1079 60.0998C81.8403 60.9206 81.5905 61.6789 81.3288 62.4789C85.4506 62.9071 89.5277 63.3294 93.7596 63.7695C93.7596 63.3324 93.7596 62.9041 93.7596 62.4759C93.7596 47.7463 93.7596 33.0197 93.7596 18.2901C93.7596 16.4047 94.048 16.1222 95.9067 15.7147C99.6657 14.891 103.428 14.0761 107.151 13.1185C108.367 12.8063 109.473 12.0658 110.63 11.5216C110.63 11.3967 110.63 11.2718 110.633 11.1469C110.062 10.787 109.536 10.2785 108.911 10.0911C105.765 9.13951 102.595 8.26519 99.4278 7.376C98.9995 7.25705 98.5386 7.24515 98.1252 7.09646C97.2479 6.7842 96.787 6.12995 96.9803 5.19913C97.1706 4.2802 97.8457 3.70624 98.7557 3.87278C102.907 4.64004 107.071 5.39838 110.895 7.32247C112.293 8.0243 113.39 9.0265 114.018 10.4896C114.018 31.2711 114.018 52.0495 114.018 72.825ZM57.0174 42.774C50.8614 42.774 44.7055 42.7681 38.5496 42.777C36.459 42.7799 35.3884 43.8297 35.3765 45.9174C35.3557 50.2949 35.3587 54.6695 35.3765 59.047C35.3854 61.1644 36.4144 62.1845 38.5229 62.1934C41.7495 62.2083 44.9762 62.1755 48.2028 62.2083C49.6897 62.2231 50.7247 61.6075 51.4741 60.3288C54.1862 55.7133 59.789 55.6598 62.5369 60.2217C63.3339 61.5451 64.4193 62.2261 65.9955 62.2083C69.1091 62.1696 72.2257 62.2023 75.3424 62.1964C77.7304 62.1904 78.688 61.2239 78.6909 58.8002C78.6999 54.61 78.6999 50.4198 78.6909 46.2267C78.688 43.7584 77.7066 42.777 75.265 42.777C69.1835 42.771 63.1019 42.774 57.0174 42.774ZM97.129 76.2985C98.2798 76.0903 99.3594 75.9862 100.385 75.6918C103.365 74.8413 106.336 73.9491 109.286 72.9945C110.315 72.6614 110.72 71.915 110.717 70.6957C110.663 52.7127 110.681 34.7297 110.681 16.7496C110.681 16.3184 110.681 15.8872 110.681 15.6791C106.146 16.8478 101.661 18.0016 97.1319 19.1674C97.129 38.0902 97.129 57.1051 97.129 76.2985ZM39.5459 65.533C43.177 70.6749 47.0965 75.0554 52.8361 77.369C55.917 78.6121 58.995 78.4664 62.0075 77.0568C65.9211 75.2279 69.0556 72.4324 71.8005 69.1612C72.7135 68.0698 73.5313 66.8951 74.5632 65.533C71.4734 65.533 68.7077 65.5271 65.939 65.533C63.093 65.539 60.9696 64.3762 59.5987 61.8246C58.427 59.6448 55.7178 59.5972 54.5074 61.7711C53.0056 64.4684 50.7484 65.6074 47.7329 65.5449C45.104 65.4914 42.4751 65.533 39.5459 65.533ZM31.9595 56.7661C31.9595 53.8993 31.9595 51.1454 31.9595 48.2727C30.8324 48.2727 29.7618 48.2132 28.7091 48.3143C28.4444 48.3381 28.0251 48.8675 28.0191 49.1738C27.9597 51.3923 27.9537 53.6138 28.0251 55.8293C28.034 56.1475 28.5128 56.6858 28.8191 56.7215C29.8332 56.8345 30.8651 56.7661 31.9595 56.7661ZM82.0871 56.7661C83.1964 56.7661 84.1986 56.8374 85.1799 56.7274C85.5041 56.6917 86.0245 56.1951 86.0334 55.8947C86.1048 53.6405 86.0959 51.3834 86.0453 49.1262C86.0394 48.8377 85.6558 48.3351 85.4178 48.3173C84.3324 48.2281 83.2321 48.2786 82.0871 48.2786C82.0871 51.1544 82.0871 53.8755 82.0871 56.7661ZM47.5337 34.5631C46.6326 36.1839 45.7523 37.769 44.8691 39.357C47.4474 39.357 49.9931 39.357 52.5536 39.357C50.8614 37.7422 49.2139 36.169 47.5337 34.5631Z" fill="url(#paint0_linear_152_75)"/>
<path d="M57.1218 72.3908C55.2572 72.364 53.5651 71.8109 52.0603 70.7046C51.07 69.9789 50.8291 69.0749 51.3912 68.2392C51.9622 67.3857 52.893 67.2519 53.91 67.9448C56.0899 69.4258 58.237 69.4139 60.408 67.927C61.3715 67.2668 62.2696 67.3857 62.8525 68.1768C63.4532 68.9916 63.251 69.9522 62.2934 70.6659C60.7589 71.8019 59.034 72.3729 57.1218 72.3908Z" fill="url(#paint1_linear_152_75)"/>
<defs>
<linearGradient id="paint0_linear_152_75" x1="57.0088" y1="0.863403" x2="57.0088" y2="109.579" gradientUnits="userSpaceOnUse">
<stop stop-color="#1CA7FB"/>
<stop offset="1" stop-color="#17FCD7"/>
</linearGradient>
<linearGradient id="paint1_linear_152_75" x1="57.1429" y1="67.4989" x2="57.1429" y2="72.3908" gradientUnits="userSpaceOnUse">
<stop stop-color="#1CA7FB"/>
<stop offset="1" stop-color="#17FCD7"/>
</linearGradient>
</defs>
</svg>
