<svg width="134" height="124" viewBox="0 0 134 124" fill="none" xmlns="http://www.w3.org/2000/svg">
<path d="M26.4582 95.5312C26.562 94.2067 26.562 92.9036 26.7875 91.64C27.4641 87.8203 30.7002 84.91 34.5628 84.6809C36.5102 84.5663 38.4683 84.6594 40.5124 84.6594C40.5124 82.1142 40.5124 79.7694 40.5124 77.2278C39.9683 77.2278 39.4528 77.2278 38.9409 77.2278C29.4258 77.2278 19.9143 77.2314 10.3993 77.2278C3.90196 77.2242 0.00357978 73.3043 0.00357978 66.7855C0 47.9774 -0.00357978 29.1728 0.00715956 10.3646C0.0107393 5.50684 2.92468 1.72301 7.46027 0.688453C8.31941 0.491565 9.23226 0.466506 10.12 0.462927C37.2297 0.455767 64.343 0.452187 91.4527 0.459347C97.6278 0.462927 101.58 4.42933 101.583 10.6009C101.591 22.7972 101.587 34.9935 101.587 47.1898C101.587 47.7196 101.587 48.2494 101.587 48.9797C102.206 48.9797 102.725 48.9797 103.244 48.9797C110.884 48.9797 118.519 48.9725 126.159 48.9833C131.242 48.9904 133.998 51.7719 133.998 56.8767C133.998 76.6228 134.002 96.3689 133.998 116.115C133.998 121.134 131.224 123.93 126.223 123.93C116.085 123.937 105.947 123.937 95.8057 123.93C90.973 123.926 88.1593 121.109 88.1593 116.276C88.1557 103.858 88.1593 91.4395 88.1593 79.0177C88.1593 78.4879 88.1593 77.958 88.1593 77.3316C79.1096 77.3316 70.1601 77.3316 61.1248 77.3316C61.1248 79.7086 61.1248 82.0533 61.1248 84.6057C62.46 84.6057 63.7881 84.6737 65.1055 84.595C71.9035 84.1904 75.5549 89.4384 75.0465 94.4967C75.0107 94.8403 75.0752 95.1911 75.1002 95.6887C76.4856 95.6887 77.8101 95.6708 79.1382 95.6923C80.5558 95.7138 81.4544 96.5121 81.4723 97.722C81.4902 98.9284 80.6095 99.7553 79.1955 99.8162C78.5261 99.8448 77.8567 99.8269 77.1873 99.8269C59.4101 99.8269 41.6364 99.8269 23.8592 99.8269C23.4118 99.8269 22.9643 99.8377 22.5204 99.8198C21.042 99.7625 20.0933 98.9034 20.1399 97.6791C20.1864 96.4798 21.0921 95.7138 22.524 95.6887C23.7733 95.6637 25.0227 95.6601 26.272 95.6458C26.3007 95.6458 26.3365 95.6028 26.4582 95.5312ZM97.4309 48.8652C97.4309 48.3246 97.4309 47.8485 97.4309 47.3688C97.4309 35.219 97.4345 23.0693 97.4273 10.9195C97.4273 6.64521 95.3654 4.58326 91.109 4.58326C64.2249 4.58326 37.3371 4.58326 10.453 4.58326C6.26462 4.58326 4.1955 6.64163 4.1955 10.8192C4.19192 25.5142 4.1955 40.2128 4.1955 54.9078C4.1955 55.3839 4.1955 55.8601 4.1955 56.397C32.2646 56.397 60.1511 56.397 88.0268 56.397C88.9003 50.7732 90.3788 49.5704 97.4309 48.8652ZM92.3977 67.2652C92.3977 80.088 92.3977 92.832 92.3977 105.605C104.888 105.605 117.277 105.605 129.681 105.605C129.681 92.7748 129.681 80.0379 129.681 67.2652C117.245 67.2652 104.923 67.2652 92.3977 67.2652ZM4.19908 60.6928C4.19908 62.948 4.18834 65.0458 4.20266 67.1399C4.22414 70.9739 6.33621 73.0716 10.2095 73.0752C35.7047 73.0824 61.2035 73.0788 86.6987 73.0752C87.1641 73.0752 87.6331 73.0179 88.0447 72.9893C88.0447 68.7831 88.0447 64.7451 88.0447 60.6928C60.0795 60.6928 32.2324 60.6928 4.19908 60.6928ZM70.6864 95.6386C71.6529 91.3214 69.659 88.7618 65.374 88.7582C63.3228 88.7582 61.268 88.7761 59.2168 88.7511C57.6059 88.7296 56.8613 87.9743 56.8326 86.3526C56.8076 84.8348 56.8255 83.317 56.8255 81.7991C56.8255 80.3028 56.8255 78.8065 56.8255 77.3101C52.7087 77.3101 48.8032 77.3101 44.758 77.3101C44.758 80.2312 44.7616 83.0771 44.758 85.9195C44.7544 88.1354 44.1316 88.7475 41.8763 88.7547C39.9575 88.7582 38.0388 88.7547 36.12 88.7547C32.0211 88.7582 29.9234 91.5433 30.9866 95.635C44.2175 95.6386 57.4591 95.6386 70.6864 95.6386ZM92.3011 109.968C92.3011 112.02 92.2939 114.06 92.3047 116.101C92.319 118.825 93.2999 119.799 96.0348 119.802C103.713 119.806 111.392 119.802 119.067 119.802C121.612 119.802 124.158 119.827 126.699 119.791C128.41 119.77 129.656 118.846 129.721 117.368C129.828 114.93 129.749 112.481 129.749 109.968C117.313 109.968 104.963 109.968 92.3011 109.968ZM129.803 62.9695C129.803 60.7679 129.814 58.6809 129.799 56.5939C129.781 54.1095 128.786 53.1251 126.277 53.1215C121.143 53.1144 116.01 53.1179 110.88 53.1179C105.793 53.1179 100.703 53.1108 95.616 53.1215C93.8798 53.1251 92.5767 53.8518 92.4872 55.23C92.319 57.786 92.4371 60.3598 92.4371 62.9695C104.859 62.9695 117.213 62.9695 129.803 62.9695Z" fill="url(#paint0_linear_152_82)"/>
<path d="M50.7544 68.9119C50.0456 68.9119 49.3332 68.9441 48.6244 68.9048C47.3822 68.8367 46.6018 68.0492 46.5768 66.9037C46.5517 65.7331 47.2963 64.8775 48.5278 64.8238C50.0349 64.763 51.5491 64.763 53.0562 64.8202C54.2805 64.8668 55.0644 65.7331 55.0537 66.8714C55.043 67.9991 54.2339 68.8117 53.0204 68.9083C52.9309 68.9155 52.8414 68.9155 52.7555 68.9155C52.0896 68.9155 51.4238 68.9155 50.758 68.9155C50.7544 68.9155 50.7544 68.9119 50.7544 68.9119Z" fill="url(#paint1_linear_152_82)"/>
<path d="M110.991 116.885C110.59 116.885 110.185 116.92 109.788 116.877C108.657 116.759 107.869 115.918 107.909 114.83C107.948 113.709 108.521 112.954 109.666 112.825C110.504 112.732 111.363 112.736 112.204 112.793C113.475 112.879 114.22 113.677 114.216 114.841C114.213 116.04 113.393 116.831 112.061 116.899C111.707 116.917 111.349 116.903 110.991 116.903C110.991 116.895 110.991 116.888 110.991 116.885Z" fill="url(#paint2_linear_152_82)"/>
<path d="M111.893 60.1486C110.289 60.1486 108.682 60.1772 107.078 60.1379C105.657 60.1021 104.805 59.2644 104.834 58.0365C104.862 56.7943 105.711 56.0319 107.161 56.0211C110.282 56.0032 113.404 56.0032 116.522 56.0211C117.997 56.0319 118.784 56.7621 118.798 58.0544C118.809 59.3575 118.054 60.1021 116.572 60.1379C115.015 60.1772 113.454 60.1486 111.893 60.1486Z" fill="url(#paint3_linear_152_82)"/>
<defs>
<linearGradient id="paint0_linear_152_82" x1="67" y1="0.455444" x2="67" y2="123.935" gradientUnits="userSpaceOnUse">
<stop stop-color="#1CA7FB"/>
<stop offset="1" stop-color="#17FCD7"/>
</linearGradient>
<linearGradient id="paint1_linear_152_82" x1="50.815" y1="64.7777" x2="50.815" y2="68.9243" gradientUnits="userSpaceOnUse">
<stop stop-color="#1CA7FB"/>
<stop offset="1" stop-color="#17FCD7"/>
</linearGradient>
<linearGradient id="paint2_linear_152_82" x1="111.062" y1="112.752" x2="111.062" y2="116.908" gradientUnits="userSpaceOnUse">
<stop stop-color="#1CA7FB"/>
<stop offset="1" stop-color="#17FCD7"/>
</linearGradient>
<linearGradient id="paint3_linear_152_82" x1="111.816" y1="56.0077" x2="111.816" y2="60.1587" gradientUnits="userSpaceOnUse">
<stop stop-color="#1CA7FB"/>
<stop offset="1" stop-color="#17FCD7"/>
</linearGradient>
</defs>
</svg>
