<svg width="110" height="110" viewBox="0 0 110 110" fill="none" xmlns="http://www.w3.org/2000/svg">
<rect y="110" width="110" height="110" rx="20" transform="rotate(-90 0 110)" fill="url(#paint0_linear_255_14)"/>
<path d="M75.4854 94.2642C75.1383 93.815 74.628 93.4272 74.4851 92.9168C74.2197 92.039 75.0363 91.2224 76.057 91.202C77.3227 91.1816 78.6088 91.202 79.8745 91.1816C81.426 91.1612 82.5284 90.0588 82.5284 88.5073C82.5488 80.811 82.5284 73.1351 82.5284 65.4389C82.5284 65.3368 82.508 65.2347 82.4876 65.0306C82.2222 65.0306 81.9364 65.0306 81.671 65.0306C79.1804 65.0306 76.6694 65.0306 74.1789 65.0306C73.4643 65.0306 72.8723 64.8673 72.5049 64.1936C72.1578 63.5607 72.3415 62.9891 72.709 62.4175C73.8726 60.5802 73.5664 58.3959 71.9741 57.0281C70.4634 55.7216 68.2382 55.7216 66.7071 57.0281C65.074 58.3959 64.7474 60.5598 65.911 62.3971C66.2989 63.0096 66.4826 63.6016 66.1151 64.2548C65.7477 64.9081 65.1352 65.051 64.4207 65.051C61.7668 65.0306 59.1129 65.051 56.357 65.051C56.357 65.3572 56.357 65.6226 56.357 65.888C56.357 68.2561 56.3366 70.6242 56.357 72.9922C56.357 73.768 56.2753 74.4825 55.4792 74.8704C54.7238 75.2378 54.1318 74.9112 53.499 74.4825C51.1921 72.8493 48.2524 73.6659 47.2113 76.2177C46.558 77.8509 47.0684 79.729 48.4974 80.8927C49.906 82.0155 51.9066 82.0767 53.4173 81.0151C53.7235 80.7906 54.0297 80.5252 54.3768 80.4231C55.3771 80.0965 56.3162 80.8927 56.3162 82.0563C56.3366 84.8122 56.3162 87.5478 56.3162 90.3037C56.3162 90.5691 56.3162 90.8549 56.3162 91.2224C57.9697 91.2224 59.5621 91.2224 61.1748 91.2224C61.5219 91.2224 61.8893 91.2224 62.2364 91.2224C63.0938 91.2428 63.6654 91.6103 63.8695 92.3452C64.0941 93.1209 63.7675 93.6721 63.1346 94.1008C63.0529 94.1621 62.9917 94.2233 62.91 94.2846C51.5188 94.2846 40.1479 94.2846 28.7566 94.2846C28.5933 94.2233 28.4299 94.1621 28.2666 94.1008C25.7148 93.4067 24 91.2428 24 88.6093C24.0204 80.3211 24.0204 72.0328 24.0204 63.7649C24.0204 62.5196 24.592 62.0092 25.9802 62.0092C37.7798 62.0092 49.559 62.0092 61.3585 62.0092C61.6648 62.0092 61.971 62.0092 62.3384 62.0092C61.8077 59.1512 62.4813 56.7423 64.6249 54.8438C66.0947 53.5372 67.8708 52.9248 69.8306 53.0677C73.6481 53.3331 77.2614 56.7831 76.2611 62.0297C76.5469 62.0297 76.8123 62.0297 77.0981 62.0297C79.3437 62.0297 81.5893 62.0297 83.8349 62.0297C84.9985 62.0297 85.5701 62.6013 85.5701 63.7649C85.5701 72.0532 85.5906 80.3211 85.5701 88.6093C85.5701 91.2632 83.8553 93.4067 81.3035 94.1008C81.1402 94.1417 80.9769 94.2233 80.8136 94.2846C79.0579 94.2642 77.2819 94.2642 75.4854 94.2642ZM53.254 65.1122C44.537 65.1122 35.8404 65.1122 27.0826 65.1122C27.0826 65.3981 27.0826 65.643 27.0826 65.888C27.0826 73.3189 27.0826 80.7498 27.0826 88.2011C27.0826 90.2017 28.0829 91.2224 30.0835 91.2224C37.5348 91.2224 44.9861 91.2224 52.4374 91.2224C52.7028 91.2224 52.9682 91.2224 53.2336 91.2224C53.2336 88.936 53.2336 86.7516 53.2336 84.5673C49.8448 85.343 47.0276 84.4856 45.0882 81.6072C43.3938 79.1166 43.3938 76.4423 45.0269 73.9313C46.9663 70.9712 49.8039 70.0526 53.254 70.8896C53.254 68.9502 53.254 67.0516 53.254 65.1122Z" fill="url(#paint1_linear_255_14)"/>
<path d="M68.9119 94.2645C68.769 94.1829 68.6057 94.0808 68.4628 93.9991C67.8504 93.5704 67.6258 92.9988 67.8504 92.2843C68.0545 91.5902 68.5853 91.2636 69.2794 91.2432C69.9735 91.2432 70.5247 91.5698 70.7288 92.2639C70.933 92.958 70.7697 93.5704 70.1368 93.9991C69.9939 94.1012 69.8306 94.1829 69.6877 94.2645C69.4223 94.2645 69.1569 94.2645 68.9119 94.2645Z" fill="url(#paint2_linear_255_14)"/>
<path d="M48.2728 52.7002C46.3743 55.742 43.7816 57.1302 40.352 56.4361C37.3919 55.844 35.5137 53.9251 34.7992 50.965C34.0643 47.9232 35.2688 45.4122 38.4534 43.0237C38.3105 42.8604 38.1676 42.6767 38.0247 42.5338C36.4324 40.9415 34.8401 39.3695 33.2681 37.7772C32.3291 36.8381 32.3291 36.0828 33.2681 35.1437C39.0659 29.3868 44.8432 23.5891 50.6409 17.8322C53.0906 15.4029 56.5203 15.3825 58.97 17.8118C64.7677 23.5687 70.5654 29.3664 76.3427 35.1437C77.2818 36.0828 77.2818 36.8586 76.3632 37.7772C74.1176 40.0432 71.8516 42.2684 69.606 44.5344C69.1364 45.0244 68.6056 45.351 67.9116 45.1468C67.197 44.9427 66.8704 44.4323 66.7275 43.7178C66.258 41.5743 64.4819 40.2882 62.2976 40.4515C60.4194 40.5944 58.8067 42.1867 58.6434 44.0853C58.4596 46.2492 59.7458 48.0457 61.8893 48.5152C62.6038 48.6786 63.1346 48.9644 63.3387 49.6789C63.5429 50.373 63.2162 50.9037 62.7467 51.3733C60.5419 53.5576 58.3372 55.7624 56.1324 57.9672C55.1933 58.8858 54.4176 58.8858 53.4989 57.9672C51.7637 56.2319 50.0489 54.4967 48.2728 52.7002ZM36.2691 36.4298C36.5345 36.7157 36.7182 36.8994 36.9019 37.0831C38.7392 38.9204 40.5765 40.7577 42.4138 42.595C42.9038 43.085 43.1692 43.6158 42.9446 44.3098C42.6996 45.0039 42.1893 45.351 41.4339 45.3918C41.0869 45.4122 40.7194 45.5143 40.3928 45.6368C38.5351 46.2901 37.4123 48.2294 37.7389 50.1076C38.1064 52.149 39.7804 53.578 41.8014 53.578C43.8633 53.578 45.5577 52.0878 45.8639 49.9443C45.966 49.2093 46.1701 48.5969 46.9254 48.3315C47.7216 48.0457 48.2932 48.4336 48.824 48.9848C49.8651 50.0667 50.9471 51.1079 52.0087 52.1694C52.9273 53.0881 53.8255 54.0067 54.6013 54.8029C56.0711 53.3331 57.4797 51.9449 58.8475 50.5771C54.7646 47.862 54.8259 42.7992 57.1735 39.982C58.3984 38.5121 59.9703 37.6139 61.8893 37.4302C64.9106 37.1444 67.2175 38.3896 68.8506 40.7781C70.3409 39.2879 71.7699 37.8384 73.2397 36.389C73.1173 36.2665 72.9539 36.0828 72.7702 35.8991C67.5441 30.673 62.2976 25.4468 57.0715 20.2411C55.4995 18.6896 54.1522 18.6692 52.6007 20.2207C47.7012 25.1202 42.7813 30.0197 37.8818 34.9192C37.351 35.4091 36.8407 35.8787 36.2691 36.4298Z" fill="url(#paint3_linear_255_14)"/>
<defs>
<linearGradient id="paint0_linear_255_14" x1="-117.158" y1="35.4645" x2="97.9284" y2="140.452" gradientUnits="userSpaceOnUse">
<stop stop-color="#181C1F"/>
<stop offset="1" stop-color="#2D3037"/>
</linearGradient>
<linearGradient id="paint1_linear_255_14" x1="54.7896" y1="53.0474" x2="54.7896" y2="94.2846" gradientUnits="userSpaceOnUse">
<stop stop-color="#1CA7FB"/>
<stop offset="1" stop-color="#17FCD7"/>
</linearGradient>
<linearGradient id="paint2_linear_255_14" x1="69.2885" y1="91.2432" x2="69.2885" y2="94.2645" gradientUnits="userSpaceOnUse">
<stop stop-color="#1CA7FB"/>
<stop offset="1" stop-color="#17FCD7"/>
</linearGradient>
<linearGradient id="paint3_linear_255_14" x1="54.8067" y1="16" x2="54.8067" y2="58.6561" gradientUnits="userSpaceOnUse">
<stop stop-color="#1CA7FB"/>
<stop offset="1" stop-color="#17FCD7"/>
</linearGradient>
</defs>
</svg>
