<svg width="110" height="110" viewBox="0 0 110 110" fill="none" xmlns="http://www.w3.org/2000/svg">
<rect y="110" width="110" height="110" rx="20" transform="rotate(-90 0 110)" fill="url(#paint0_linear_255_15)"/>
<path d="M21.6 88.9047C21.2109 88.551 20.8219 88.1443 21.0872 87.6138C21.2286 87.3308 21.6 87.1363 21.9006 86.9418C22.0067 86.8711 22.2012 86.9241 22.3604 86.9241C22.714 86.9241 23.0677 86.9241 23.4921 86.9241C23.5098 86.6412 23.5275 86.3936 23.5275 86.146C23.5275 83.0338 23.5275 79.9215 23.5275 76.7915C23.5275 76.5439 23.5275 76.2964 23.5628 76.0665C23.6336 75.5183 24.0049 75.2707 24.5177 75.2707C25.0482 75.2707 25.4019 75.5183 25.4726 76.0842C25.508 76.3317 25.508 76.5616 25.508 76.8092C25.508 79.9038 25.508 82.9984 25.508 86.093C25.508 86.3582 25.508 86.6058 25.508 86.9064C31.5911 86.9064 37.6035 86.9064 43.6866 86.9064C43.6866 86.6589 43.6866 86.4113 43.6866 86.1814C43.6866 78.8251 43.6866 71.4688 43.6866 64.1125C43.6866 63.1045 43.5982 62.9984 42.6079 62.9984C37.2675 62.9984 31.9271 62.9984 26.5867 62.9984C25.5787 62.9984 25.4903 63.0868 25.4903 64.0948C25.4903 66.4113 25.4903 68.7278 25.4903 71.0621C25.4903 71.9109 25.119 72.2999 24.447 72.2822C23.8635 72.2468 23.5275 71.9109 23.5275 71.2212C23.5098 69.7712 23.5275 68.3034 23.5275 66.8534C23.5275 65.8454 23.5275 64.8198 23.5275 63.8118C23.5452 62.0965 24.5177 61.0532 26.2154 61.0532C31.9802 61.0355 37.7273 61.0709 43.4921 61.0886C43.5275 61.0886 43.5805 61.0709 43.6866 61.0532C43.6866 60.8233 43.6866 60.5934 43.6866 60.3636C43.6866 57.1982 43.6866 54.0506 43.6866 50.8852C43.6866 49.0461 44.6946 48.0205 46.5513 48.0205C51.9978 48.0205 57.4443 48.0205 62.8909 48.0205C64.783 48.0205 65.7909 49.0285 65.7909 50.9029C65.7909 57.4635 65.7909 64.024 65.7909 70.6023C65.7909 70.8675 65.7909 71.1328 65.7909 71.4511C66.1977 71.4511 66.5513 71.4511 66.9227 71.4511C72.3338 71.4511 77.7273 71.4511 83.1384 71.4511C85.1543 71.4511 86.0915 72.406 86.0915 74.4042C86.0915 78.3123 86.0915 82.2203 86.0915 86.146C86.0915 86.4113 86.0915 86.6766 86.0915 86.9949C86.4983 86.9949 86.8519 87.0125 87.2056 86.9949C87.7538 86.9772 88.2843 87.0125 88.5319 87.6138C88.7794 88.215 88.4435 88.6217 88.019 88.9754C65.897 88.9047 43.7397 88.9047 21.6 88.9047ZM45.6672 86.8711C51.768 86.8711 57.7803 86.8711 63.8281 86.8711C63.8281 86.6589 63.8281 86.482 63.8281 86.3052C63.8281 74.5103 63.8281 62.6978 63.8281 50.9029C63.8281 50.0364 63.722 49.9303 62.8201 49.9303C57.462 49.9303 52.1039 49.9303 46.7459 49.9303C45.7379 49.9303 45.6672 50.0011 45.6672 51.0444C45.6672 62.7331 45.6672 74.4219 45.6672 86.1284C45.6672 86.3406 45.6672 86.5881 45.6672 86.8711ZM65.9501 86.8534C72.0509 86.8534 78.0633 86.8534 84.0933 86.8534C84.111 86.7296 84.1287 86.6766 84.1287 86.6058C84.1287 82.4502 84.1287 78.2946 84.1464 74.139C84.1464 73.5377 83.8634 73.3255 83.2976 73.3432C81.7237 73.3609 80.1676 73.3432 78.5938 73.3432C74.6857 73.3432 70.7954 73.3432 66.8873 73.3432C66.3568 73.3432 65.9678 73.414 65.9678 74.0682C65.9501 78.3123 65.9501 82.5563 65.9501 86.8534Z" fill="url(#paint1_linear_255_15)"/>
<path d="M64.0756 21C64.6238 21.336 64.7476 21.8665 64.7476 22.4854C64.7653 25.2263 63.2799 27.0831 60.981 27.5252C60.8219 27.5606 60.645 27.8612 60.6097 28.0734C60.5213 28.7454 60.5743 29.4527 60.4152 30.107C59.8316 32.4766 58.2578 33.8736 55.8882 34.4748C55.8882 35.3943 55.8882 36.3139 55.8882 37.2511C58.3639 37.87 59.9023 39.4262 60.5213 41.9726C60.9633 41.9726 61.3877 41.9549 61.8298 41.9726C62.5018 41.9903 62.8908 42.397 62.8732 42.9982C62.8555 43.5818 62.4841 43.9531 61.8298 43.9531C57.126 43.9531 52.4399 43.9531 47.7361 43.9531C47.1172 43.9531 46.7282 43.5464 46.7282 42.9629C46.7282 42.3793 47.0995 42.008 47.7361 41.9726C47.9483 41.9549 48.1782 41.9726 48.3904 41.9726C48.5849 41.9726 48.7794 41.9726 49.0093 41.9726C49.0801 41.7781 49.1331 41.5835 49.1862 41.4067C49.8051 39.3377 51.149 37.9938 53.218 37.3926C53.7308 37.2511 53.8015 37.0212 53.8546 36.5438C53.9607 35.2352 53.7662 34.4217 52.2631 33.8382C50.1411 33.0424 49.1508 31.1326 49.0801 28.8338C49.0624 28.4447 49.0801 28.038 49.0801 27.6136C48.8855 27.5606 48.7087 27.5252 48.5496 27.4898C45.4019 26.8002 44.6592 24.0416 44.9068 21.8842C44.9421 21.5659 45.2958 21.3006 45.508 21C51.7326 21 57.9041 21 64.0756 21ZM51.1313 23.0159C51.1313 25.1556 51.1313 27.2423 51.1313 29.3289C51.1313 29.4173 51.1667 29.5057 51.1844 29.5942C51.6265 31.5217 53.3418 32.7418 55.3046 32.5473C57.1614 32.3528 58.5761 30.779 58.6291 28.7807C58.6645 26.977 58.6468 25.1556 58.6291 23.3519C58.6291 23.2458 58.5938 23.1397 58.5761 23.0159C56.1004 23.0159 53.6601 23.0159 51.1313 23.0159ZM58.3816 41.9372C58.0986 40.3457 56.5071 39.1432 54.7741 39.1609C53.0588 39.1609 51.485 40.3811 51.2021 41.9372C53.5893 41.9372 55.9589 41.9372 58.3816 41.9372ZM49.0801 25.4916C49.0801 24.6428 49.0801 23.847 49.0801 22.9982C48.691 22.9982 48.3374 22.9982 48.0014 22.9982C47.6477 22.9982 47.2763 22.9982 46.9227 22.9982C47.1172 24.5897 47.8245 25.3855 49.0801 25.4916ZM60.645 25.4739C61.9183 25.2794 62.661 24.3775 62.6963 23.0159C62.0244 23.0159 61.3524 23.0159 60.645 23.0159C60.645 23.8647 60.645 24.6782 60.645 25.4739Z" fill="url(#paint2_linear_255_15)"/>
<path d="M70.4417 66.464C70.6362 65.3676 70.7954 64.1828 71.0429 63.0157C71.1313 62.5559 71.0252 62.273 70.7069 61.9724C69.9289 61.2473 69.1862 60.487 68.4258 59.7619C68.0544 59.4083 67.7892 59.0192 67.966 58.471C68.1428 57.9582 68.6026 57.8344 69.0801 57.7637C70.1234 57.6045 71.1667 57.4454 72.2277 57.3216C72.6698 57.2686 72.9351 57.0917 73.1119 56.6673C73.5717 55.6594 74.0314 54.6514 74.5796 53.7142C74.7741 53.3782 75.2162 53.0245 75.5522 53.0245C75.8528 53.0069 76.2949 53.3782 76.4717 53.6965C77.0199 54.6691 77.4974 55.6947 77.9748 56.7204C78.1517 57.1094 78.3992 57.2686 78.8236 57.3216C79.92 57.4454 81.0164 57.5869 82.0951 57.8168C82.4664 57.9052 82.9616 58.2058 83.0677 58.5241C83.1738 58.8424 82.9439 59.3906 82.6786 59.6735C81.9359 60.487 81.1225 61.2473 80.3091 61.99C79.9907 62.2907 79.92 62.5913 79.9908 62.9803C80.1853 64.0413 80.3444 65.12 80.5566 66.181C80.645 66.6762 80.6274 67.1183 80.2029 67.4366C79.7609 67.7725 79.3365 67.6134 78.9121 67.3835C77.9395 66.8707 76.9846 66.3225 75.9766 65.845C75.729 65.7213 75.34 65.7213 75.0924 65.845C74.0314 66.3402 73.0235 66.9237 71.9801 67.4542C71.1313 67.8786 70.4063 67.4189 70.4417 66.464ZM75.5168 56.2252C75.1455 56.9856 74.7918 57.6399 74.4912 58.3296C74.2436 58.8778 73.8369 59.1253 73.271 59.1961C72.5637 59.2845 71.8564 59.4083 71.0429 59.5144C71.6265 60.0979 72.1216 60.6107 72.6344 61.0705C73.0765 61.4772 73.271 61.9193 73.1296 62.5382C72.9704 63.2456 72.8997 63.9706 72.7582 64.8017C73.5009 64.4127 74.1198 64.1297 74.7034 63.7761C75.287 63.4224 75.7998 63.4401 76.3656 63.7761C76.9492 64.1297 77.5858 64.4127 78.2931 64.784C78.1694 64.0236 78.134 63.387 77.9572 62.7681C77.7273 61.9724 77.9748 61.4065 78.5761 60.9114C79.0712 60.5046 79.4956 60.0272 80.0438 59.4967C79.1419 59.3729 78.4346 59.2668 77.7096 59.1784C77.1791 59.1076 76.8077 58.8778 76.5955 58.3826C76.2595 57.693 75.9236 57.0387 75.5168 56.2252Z" fill="url(#paint3_linear_255_15)"/>
<path d="M28.691 56.4906C28.8856 55.3589 29.0978 54.1387 29.2746 52.9186C29.31 52.671 29.1862 52.3173 29.0093 52.1405C28.249 51.3447 27.4532 50.5843 26.6574 49.8063C26.3215 49.4703 26.0208 49.1343 26.18 48.6038C26.3568 48.0379 26.8166 47.9141 27.3117 47.8434C28.3727 47.6842 29.4514 47.5251 30.5124 47.4013C30.9015 47.3483 31.1314 47.1891 31.3082 46.8178C31.7857 45.7921 32.2454 44.7665 32.8113 43.7939C33.0058 43.4579 33.4479 43.1042 33.8016 43.0865C34.1022 43.0689 34.5443 43.4402 34.7211 43.7585C35.2693 44.7311 35.7644 45.7567 36.2242 46.7824C36.401 47.1714 36.6486 47.3306 37.073 47.3836C38.1694 47.5251 39.2481 47.6842 40.3444 47.8434C40.8042 47.9141 41.2994 48.0733 41.317 48.5684C41.3347 48.9575 41.1756 49.4349 40.9103 49.7178C40.1499 50.5666 39.2658 51.327 38.47 52.1582C38.3109 52.335 38.2048 52.6533 38.2401 52.8832C38.3993 54.0149 38.6468 55.1467 38.7706 56.2784C38.806 56.6674 38.6645 57.1626 38.417 57.4455C38.0633 57.8522 37.5681 57.64 37.1437 57.4278C36.1712 56.915 35.2162 56.3668 34.2083 55.8894C33.9607 55.7656 33.554 55.7656 33.3064 55.8894C32.2454 56.3845 31.2375 56.9681 30.1941 57.4986C29.3984 57.9407 28.6557 57.4632 28.691 56.4906ZM29.3277 49.5587C29.8935 50.1422 30.3533 50.6727 30.8838 51.1325C31.3789 51.5746 31.485 52.0697 31.3612 52.671C31.2198 53.3606 31.1137 54.0503 30.9722 54.8637C31.6972 54.4924 32.3515 54.1918 32.9704 53.8204C33.5363 53.4844 34.0315 53.5021 34.5796 53.8204C35.1986 54.1741 35.8352 54.4747 36.5602 54.8637C36.4187 54.0503 36.3126 53.3606 36.1712 52.671C36.0474 52.0521 36.1888 51.5569 36.6663 51.1325C37.1968 50.6551 37.6742 50.1246 38.2224 49.5587C37.3913 49.4349 36.684 49.3288 35.959 49.2404C35.4108 49.1697 35.0217 48.9221 34.7918 48.4093C34.4912 47.7373 34.1376 47.083 33.7485 46.3049C33.3595 47.0653 33.0235 47.7019 32.7229 48.3562C32.4753 48.9398 32.0509 49.1873 31.4497 49.2404C30.7777 49.3288 30.1057 49.4526 29.3277 49.5587Z" fill="url(#paint4_linear_255_15)"/>
<defs>
<linearGradient id="paint0_linear_255_15" x1="-117.158" y1="35.4645" x2="97.9284" y2="140.452" gradientUnits="userSpaceOnUse">
<stop stop-color="#181C1F"/>
<stop offset="1" stop-color="#2D3037"/>
</linearGradient>
<linearGradient id="paint1_linear_255_15" x1="54.8081" y1="48.0205" x2="54.8081" y2="88.9754" gradientUnits="userSpaceOnUse">
<stop stop-color="#1CA7FB"/>
<stop offset="1" stop-color="#17FCD7"/>
</linearGradient>
<linearGradient id="paint2_linear_255_15" x1="54.8053" y1="21" x2="54.8053" y2="43.9531" gradientUnits="userSpaceOnUse">
<stop stop-color="#1CA7FB"/>
<stop offset="1" stop-color="#17FCD7"/>
</linearGradient>
<linearGradient id="paint3_linear_255_15" x1="75.502" y1="53.0239" x2="75.502" y2="67.6294" gradientUnits="userSpaceOnUse">
<stop stop-color="#1CA7FB"/>
<stop offset="1" stop-color="#17FCD7"/>
</linearGradient>
<linearGradient id="paint4_linear_255_15" x1="33.7273" y1="43.0859" x2="33.7273" y2="57.6763" gradientUnits="userSpaceOnUse">
<stop stop-color="#1CA7FB"/>
<stop offset="1" stop-color="#17FCD7"/>
</linearGradient>
</defs>
</svg>
