<svg width="110" height="110" viewBox="0 0 110 110" fill="none" xmlns="http://www.w3.org/2000/svg">
<rect y="110" width="110" height="110" rx="20" transform="rotate(-90 0 110)" fill="url(#paint0_linear_255_16)"/>
<path d="M47.6176 68.8123C47.0904 69.1238 46.3955 69.5312 45.6766 69.9146C44.7181 70.4418 44.2149 70.322 43.6638 69.3874C43.1606 68.5487 42.6573 67.6861 42.1781 66.8234C41.6988 65.9848 41.7947 65.3138 42.6813 64.9544C44.3826 64.2834 45.1734 63.253 44.6702 61.4079C44.5743 61.0964 44.5983 60.713 44.6942 60.4255C45.0776 59.3711 44.4785 58.9877 43.6877 58.5324C41.5071 57.3343 41.5071 57.2385 42.7532 55.0579C43.0887 54.4828 43.4002 53.9077 43.7357 53.3565C44.167 52.6616 44.766 52.4699 45.4849 52.9012C46.084 53.2367 46.6591 53.6441 47.2821 53.9077C47.5217 54.0275 47.953 53.9556 48.1927 53.8358C49.1751 53.3326 50.1097 52.7575 51.0442 52.1824C51.2838 52.0386 51.5235 51.7031 51.5474 51.4156C51.6193 50.7686 51.5714 50.0976 51.5714 49.4507C51.5714 48.612 51.9787 48.1327 52.8174 48.1327C53.9197 48.1088 55.022 48.1088 56.1242 48.1327C56.9629 48.1567 57.4901 48.6599 57.3463 49.4507C57.0348 51.2958 57.6099 52.5178 59.503 52.9971C59.5269 52.9971 59.5509 53.0211 59.5748 53.045C60.773 54.4348 61.9471 54.0035 63.2411 53.0929C64.1996 52.398 64.7507 52.6137 65.3498 53.6441C65.853 54.4828 66.3323 55.3454 66.8355 56.2081C67.2428 56.9269 67.0751 57.526 66.3802 57.9573C65.9009 58.2688 65.4217 58.5804 64.8945 58.796C64.2715 59.0596 64.1277 59.443 64.1996 60.1139C64.2954 61.1204 64.1756 62.1268 64.2236 63.1332C64.2236 63.4208 64.4153 63.7802 64.6309 63.9479C65.1581 64.3313 65.7572 64.6189 66.3323 64.9544C67.123 65.4576 67.2668 65.9608 66.8355 66.7515C66.3323 67.6621 65.8051 68.5727 65.2779 69.4593C64.7987 70.2501 64.1996 70.5137 63.4807 69.9625C61.995 68.7884 60.6532 68.6206 59.2873 70.0584C59.1675 70.1782 58.9758 70.274 58.808 70.298C57.4422 70.5376 57.2265 71.4722 57.3943 72.6463C57.4422 72.9578 57.4182 73.2933 57.3943 73.6288C57.3224 74.3237 56.9629 74.755 56.2441 74.755C55.0699 74.779 53.9197 74.779 52.7455 74.755C52.0267 74.7311 51.6433 74.3237 51.6193 73.6288C51.5953 72.9099 51.6433 72.191 51.5714 71.4722C51.5474 71.2086 51.3557 70.8731 51.1401 70.7533C50.0378 70.1303 48.8636 69.5072 47.6176 68.8123Z" fill="url(#paint1_linear_255_16)"/>
<path d="M40.956 78.8048C40.956 80.7697 40.98 82.7586 40.9321 84.7235C40.9321 85.059 40.6445 85.5143 40.3809 85.682C36.9543 87.6949 33.5037 89.6598 30.0292 91.6007C29.7656 91.7445 29.2624 91.7685 28.9988 91.6247C25.5961 89.7077 22.2174 87.7428 18.7908 85.8258C18.2157 85.4664 18 85.1069 18 84.4599C18.024 80.578 17.976 76.6961 18.024 72.8142C18.024 72.5266 18.3115 72.0953 18.5751 71.9276C21.9298 69.9866 25.3086 68.0696 28.6633 66.1287C29.2624 65.7932 29.7176 65.7692 30.2927 66.1047C33.6475 68.0457 37.0262 69.9626 40.3809 71.9036C40.6685 72.0713 40.9081 72.5266 40.9081 72.8621C40.98 74.851 40.956 76.8159 40.956 78.8048ZM30.0531 90.163C30.2448 90.139 30.3407 90.139 30.4126 90.0911C33.4318 88.3898 36.4271 86.6645 39.4224 84.9152C39.6621 84.7715 39.8538 84.2922 39.8538 83.9807C39.8777 80.7218 39.8777 77.4629 39.8777 74.204C39.8777 74.0123 39.8538 73.8206 39.8298 73.6049C39.6621 73.6529 39.5902 73.6529 39.5183 73.7008C36.5469 75.4021 33.5516 77.0795 30.5803 78.8288C30.3167 78.9965 30.101 79.4997 30.101 79.8352C30.0531 82.6628 30.0771 85.5143 30.0771 88.3419C30.0531 88.9649 30.0531 89.54 30.0531 90.163ZM39.3026 72.5266C36.0677 70.6815 33.0005 68.9083 29.9093 67.183C29.6697 67.0632 29.2144 67.1111 28.9508 67.2549C27.3214 68.1415 25.7399 69.076 24.1344 69.9866C22.6966 70.8013 21.2349 71.64 19.7013 72.5266C22.9363 74.3717 26.0514 76.1689 29.1905 77.9421C29.3582 78.038 29.6697 78.014 29.8375 77.9182C32.9526 76.1689 36.0677 74.3957 39.3026 72.5266ZM19.1502 73.5091C19.1502 77.2472 19.1502 80.7937 19.1742 84.3401C19.1742 84.5797 19.4857 84.8913 19.7253 85.035C21.4746 86.0654 23.2478 87.0479 24.997 88.0543C26.267 88.7732 27.5131 89.4921 28.9269 90.3068C28.9269 89.8275 28.9269 89.516 28.9269 89.2045C28.9269 86.6405 28.7831 84.0526 28.9748 81.5126C29.1186 79.6674 28.5195 78.685 26.8661 77.8703C24.2782 76.5763 21.834 75.0427 19.1502 73.5091Z" fill="url(#paint2_linear_255_16)"/>
<path d="M91.4449 78.8286C91.4449 80.7696 91.4689 82.7105 91.421 84.6515C91.421 84.987 91.1813 85.4662 90.8938 85.634C87.4432 87.6468 83.9686 89.6357 80.4701 91.5767C80.2065 91.7204 79.7033 91.7204 79.4397 91.5767C76.0131 89.6597 72.5865 87.6708 69.1598 85.7298C68.6806 85.4662 68.4889 85.1547 68.4889 84.6036C68.5129 80.6498 68.4889 76.7199 68.5129 72.7661C68.5129 72.4786 68.7525 72.0712 68.9921 71.9274C72.3948 69.9386 75.8454 68.0216 79.248 66.0566C79.7513 65.7691 80.1586 65.7451 80.6618 66.0327C84.0885 67.9976 87.5151 69.9386 90.9178 71.9274C91.1813 72.0712 91.4449 72.5025 91.4449 72.814C91.4689 74.8269 91.4449 76.8158 91.4449 78.8286ZM69.687 73.5569C69.6391 73.7246 69.5912 73.8205 69.5912 73.8924C69.5912 77.319 69.5672 80.7696 69.6151 84.1962C69.6151 84.4838 69.9506 84.8672 70.2142 85.0349C73.0418 86.6883 75.9173 88.3178 78.7688 89.9472C78.9365 90.0431 79.1282 90.091 79.3199 90.1868C79.3678 90.0191 79.3918 89.9232 79.3918 89.8514C79.3918 86.4487 79.4158 83.046 79.3679 79.6434C79.3679 79.3558 79.0563 78.9484 78.7928 78.7807C76.2527 77.295 73.6648 75.8333 71.1008 74.3716C70.6455 74.108 70.1902 73.8444 69.687 73.5569ZM89.7676 72.5265C86.5326 70.6814 83.4654 68.9082 80.3743 67.1829C80.1346 67.0391 79.6794 67.111 79.4158 67.2548C77.7624 68.1653 76.1329 69.0999 74.5035 70.0344C73.0897 70.8491 71.6759 71.6638 70.1423 72.5265C73.3772 74.3716 76.5163 76.1688 79.6554 77.942C79.8231 78.0379 80.1346 78.0139 80.3024 77.9181C83.4415 76.1688 86.5326 74.3956 89.7676 72.5265ZM80.518 90.2108C80.7337 90.1389 80.8296 90.1389 80.8775 90.091C83.8488 88.3896 86.8441 86.7123 89.7915 84.963C90.0551 84.7953 90.2708 84.316 90.2708 83.9566C90.3187 81.752 90.2947 79.5475 90.2947 77.343C90.2947 76.1209 90.2947 74.8988 90.2947 73.6288C90.0791 73.7007 89.9593 73.7007 89.8634 73.7486C86.8921 75.4499 83.8968 77.1273 80.9494 78.8526C80.7337 78.9724 80.518 79.3079 80.518 79.5475C80.518 83.07 80.518 86.5925 80.518 90.2108Z" fill="url(#paint3_linear_255_16)"/>
<path d="M66.2125 30.9996C66.2125 32.8927 66.1885 34.7617 66.2364 36.6548C66.2604 37.2778 66.0687 37.6133 65.5175 37.9248C62.1388 39.8178 58.7601 41.7588 55.4054 43.6997C54.9261 43.9633 54.5907 43.9873 54.0875 43.6997C50.7567 41.7588 47.4259 39.8418 44.0472 37.9727C43.4481 37.6372 43.2085 37.2538 43.2325 36.5589C43.2564 32.7729 43.2564 28.9628 43.2325 25.1768C43.2325 24.6735 43.3043 24.3141 43.8315 24.0266C47.2102 22.1335 50.5889 20.2165 53.9437 18.2516C54.5188 17.9161 54.9261 17.9161 55.5012 18.2516C58.856 20.1926 62.2347 22.1096 65.6134 24.0266C66.0687 24.2901 66.2125 24.5777 66.2125 25.0809C66.1885 27.0698 66.2125 29.0347 66.2125 30.9996ZM54.1833 42.4777C54.1833 38.7874 54.2073 35.265 54.1593 31.7425C54.1593 31.4789 53.8478 31.1194 53.6082 30.9757C50.7087 29.2983 47.8093 27.6449 44.9098 25.9915C44.7661 25.9196 44.5983 25.8717 44.3587 25.7758C44.3587 29.0587 44.4066 32.2457 44.3347 35.4327C44.3108 36.5589 44.6702 37.1101 45.6287 37.6372C48.4323 39.1469 51.212 40.7763 54.1833 42.4777ZM65.1102 25.7279C64.8466 25.8477 64.7268 25.8717 64.6309 25.9196C61.6836 27.597 58.7122 29.2743 55.7888 30.9996C55.5252 31.1674 55.3095 31.6466 55.3095 31.9821C55.2616 35.241 55.2856 38.4999 55.2856 41.7588C55.2856 41.9505 55.3095 42.1422 55.3335 42.4537C57.8496 41.0159 60.1739 39.5063 62.69 38.3082C64.6549 37.3736 65.3738 36.1755 65.1821 33.9949C64.9424 31.3111 65.1102 28.5794 65.1102 25.7279ZM64.5351 24.6975C61.2762 22.8284 58.1611 21.0552 55.046 19.306C54.8303 19.2101 54.4229 19.306 54.1833 19.4258C51.2359 21.0792 48.3125 22.7565 45.3891 24.4339C45.2693 24.5058 45.1734 24.6017 44.9817 24.7454C48.1927 26.5666 51.2838 28.3638 54.399 30.113C54.5667 30.2089 54.8782 30.2089 55.046 30.113C58.1611 28.3638 61.2522 26.5905 64.5351 24.6975Z" fill="url(#paint4_linear_255_16)"/>
<path d="M30.0531 54.6025C30.0531 57.3582 30.0531 60.0899 30.0531 62.8456C30.0531 63.1092 30.1011 63.3967 30.0052 63.6364C29.9333 63.852 29.6697 64.1156 29.502 64.1156C29.3103 64.1156 29.0707 63.852 28.9748 63.6364C28.879 63.4447 28.9269 63.1571 28.9269 62.9175C28.9269 57.4301 28.9269 51.9187 28.9269 46.4313C28.9269 42.6692 31.2752 40.3449 35.0373 40.3449C36.6907 40.3449 38.3202 40.3209 39.9736 40.3688C40.3091 40.3688 40.8602 40.6803 40.8842 40.896C40.98 41.519 40.4049 41.4471 39.9976 41.4471C38.3441 41.4471 36.7147 41.4471 35.0613 41.4471C31.8743 41.4711 30.0531 43.2683 30.0292 46.4313C30.0292 49.163 30.0531 51.8948 30.0531 54.6025Z" fill="url(#paint5_linear_255_16)"/>
<path d="M79.4158 54.2428C79.4158 51.6549 79.4158 49.0429 79.4158 46.455C79.3919 43.3159 77.5947 41.4948 74.4556 41.4708C72.7782 41.4708 71.1008 41.4708 69.4474 41.4708C69.0401 41.4708 68.4889 41.5427 68.5848 40.9197C68.6087 40.704 69.1359 40.4165 69.4235 40.4165C71.2686 40.3685 73.1377 40.3446 74.9828 40.4165C78.0739 40.4884 80.4702 42.7648 80.5181 45.8799C80.6139 51.535 80.566 57.1662 80.5181 62.8214C80.5181 63.1089 80.1587 63.3965 79.967 63.684C79.7992 63.3965 79.4637 63.1089 79.4637 62.7974C79.3919 59.8979 79.4158 57.0704 79.4158 54.2428Z" fill="url(#paint6_linear_255_16)"/>
<path d="M54.4709 81.8239C50.8286 81.8239 47.1863 81.8239 43.52 81.8239C43.2804 81.8239 43.0168 81.8718 42.8012 81.8C42.5855 81.7041 42.4178 81.4884 42.2261 81.3447C42.4178 81.153 42.5615 80.8894 42.8012 80.7696C42.9929 80.6737 43.2804 80.7456 43.52 80.7456C50.8526 80.7456 58.1611 80.7456 65.4936 80.7456C65.6134 80.7456 65.7572 80.6977 65.8531 80.7456C66.1646 80.9373 66.4521 81.129 66.7636 81.3447C66.4521 81.5124 66.1646 81.8239 65.8531 81.8239C62.043 81.8239 58.257 81.8239 54.4709 81.8239Z" fill="url(#paint7_linear_255_16)"/>
<defs>
<linearGradient id="paint0_linear_255_16" x1="-117.158" y1="35.4645" x2="97.9284" y2="140.452" gradientUnits="userSpaceOnUse">
<stop stop-color="#181C1F"/>
<stop offset="1" stop-color="#2D3037"/>
</linearGradient>
<linearGradient id="paint1_linear_255_16" x1="54.4835" y1="48.1147" x2="54.4835" y2="74.773" gradientUnits="userSpaceOnUse">
<stop stop-color="#1CA7FB"/>
<stop offset="1" stop-color="#17FCD7"/>
</linearGradient>
<linearGradient id="paint2_linear_255_16" x1="29.481" y1="65.8647" x2="29.481" y2="91.7213" gradientUnits="userSpaceOnUse">
<stop stop-color="#1CA7FB"/>
<stop offset="1" stop-color="#17FCD7"/>
</linearGradient>
<linearGradient id="paint3_linear_255_16" x1="79.9722" y1="65.8286" x2="79.9722" y2="91.6845" gradientUnits="userSpaceOnUse">
<stop stop-color="#1CA7FB"/>
<stop offset="1" stop-color="#17FCD7"/>
</linearGradient>
<linearGradient id="paint4_linear_255_16" x1="54.7346" y1="18" x2="54.7346" y2="43.9065" gradientUnits="userSpaceOnUse">
<stop stop-color="#1CA7FB"/>
<stop offset="1" stop-color="#17FCD7"/>
</linearGradient>
<linearGradient id="paint5_linear_255_16" x1="34.9048" y1="40.3389" x2="34.9048" y2="64.1156" gradientUnits="userSpaceOnUse">
<stop stop-color="#1CA7FB"/>
<stop offset="1" stop-color="#17FCD7"/>
</linearGradient>
<linearGradient id="paint6_linear_255_16" x1="74.5736" y1="40.3711" x2="74.5736" y2="63.684" gradientUnits="userSpaceOnUse">
<stop stop-color="#1CA7FB"/>
<stop offset="1" stop-color="#17FCD7"/>
</linearGradient>
<linearGradient id="paint7_linear_255_16" x1="54.4949" y1="80.7197" x2="54.4949" y2="81.8396" gradientUnits="userSpaceOnUse">
<stop stop-color="#1CA7FB"/>
<stop offset="1" stop-color="#17FCD7"/>
</linearGradient>
</defs>
</svg>
