<svg width="110" height="110" viewBox="0 0 110 110" fill="none" xmlns="http://www.w3.org/2000/svg">
<rect y="110" width="110" height="110" rx="20" transform="rotate(-90 0 110)" fill="url(#paint0_linear_255_17)"/>
<path d="M74.1255 84.1241C72.0511 84.1241 70.0947 84.1276 68.1418 84.1241C66.0119 84.1207 65.1829 83.2951 65.1759 81.186C65.169 79.2886 65.169 77.3946 65.162 75.4972C65.162 75.4347 65.1308 75.3688 65.0927 75.2231C64.0728 75.074 63.0183 74.9248 61.7695 74.741C61.7695 75.6637 61.7695 76.5205 61.7695 77.3807C61.7695 78.5324 61.7903 79.684 61.7591 80.8357C61.714 82.577 60.8364 83.4408 59.0916 83.4581C57.0623 83.4789 55.0331 83.4616 52.7992 83.4616C52.7992 84.1172 52.82 84.7069 52.7957 85.2931C52.7367 86.646 52.0291 87.3501 50.6901 87.3675C49.0632 87.3883 47.4398 87.3883 45.813 87.3675C44.5364 87.3501 43.7733 86.6598 43.7247 85.3694C43.6658 83.6801 43.6623 81.9839 43.7282 80.2911C43.7768 78.9729 44.5642 78.293 45.917 78.2757C47.4745 78.2549 49.032 78.2549 50.5895 78.2757C52.0326 78.2965 52.7437 79.0215 52.8026 80.4749C52.8755 82.2406 52.8755 82.2406 54.6064 82.2406C56.0633 82.2406 57.5202 82.2544 58.9737 82.2336C60.2016 82.2128 60.5173 81.8798 60.5242 80.6345C60.5346 78.8064 60.4965 76.9783 60.5416 75.1503C60.5589 74.4877 60.2953 74.2172 59.716 73.9778C53.1495 71.286 49.4067 65.0768 49.927 57.7819C50.3814 51.3646 55.3869 45.6098 61.936 44.0141C62.9489 43.7679 63.9965 43.6638 65.169 43.473C65.169 41.8149 65.169 40.136 65.169 38.4571C65.169 38.0165 65.1586 37.576 65.1724 37.1355C65.2141 35.5606 66.1403 34.6067 67.7186 34.5859C69.8103 34.5581 71.902 34.5789 74.1185 34.5789C74.1185 33.9233 74.1012 33.3579 74.122 32.796C74.1706 31.4709 74.9025 30.7043 76.2033 30.68C77.8614 30.6522 79.523 30.6522 81.1811 30.68C82.4576 30.7008 83.1964 31.4397 83.2173 32.7127C83.245 34.3708 83.245 36.0324 83.2173 37.6905C83.1964 38.9323 82.4506 39.7232 81.1915 39.7648C79.5334 39.8169 77.8718 39.8134 76.2137 39.7683C74.9094 39.7301 74.174 38.9323 74.122 37.628C74.1012 37.0626 74.1185 36.4972 74.1185 35.8347C71.8118 35.8347 69.616 35.7792 67.4307 35.8902C67.0664 35.9075 66.4594 36.6256 66.442 37.0418C66.3414 39.1682 66.3969 41.2981 66.3969 43.5354C71.3019 43.9656 75.3534 45.9671 78.2985 49.9111C81.2504 53.8621 82.024 58.3057 81.0007 63.2349C83.0022 63.2349 84.9482 63.2834 86.8873 63.1863C87.1925 63.1724 87.6955 62.5064 87.7094 62.1283C87.7892 60.0019 87.7475 57.8686 87.7475 55.5584C87.0919 55.5584 86.4988 55.5861 85.9091 55.5514C84.5597 55.4786 83.8694 54.771 83.8555 53.4216C83.8347 51.7982 83.8312 50.1713 83.859 48.5444C83.8798 47.2575 84.5805 46.5221 85.8744 46.4909C87.5672 46.4493 89.2634 46.4493 90.9527 46.4943C92.1633 46.5256 92.9091 47.2714 92.9438 48.4855C92.9889 50.1435 92.9855 51.8051 92.9473 53.4632C92.9196 54.7328 92.1842 55.4578 90.925 55.548C90.6544 55.5688 90.3769 55.5931 90.1133 55.5549C89.2287 55.43 88.9269 55.7596 88.9686 56.6719C89.0414 58.3612 89.0033 60.0574 88.9859 61.7502C88.9651 63.6754 88.1187 64.5079 86.1692 64.5288C84.5423 64.5461 82.9155 64.5045 81.2921 64.56C80.9799 64.5704 80.515 64.8444 80.3936 65.115C77.8545 70.9565 73.4595 74.3004 67.1289 75.0809C66.9311 75.1052 66.7334 75.1572 66.4247 75.2162C66.4247 77.4432 66.3761 79.6667 66.4733 81.8798C66.4906 82.2371 67.1497 82.8407 67.5312 82.8545C69.6854 82.9482 71.8465 82.8996 74.1255 82.8996C74.1255 82.2059 74.1012 81.6058 74.1289 81.0091C74.1879 79.7916 74.8886 79.0284 76.0992 78.9903C77.8232 78.9348 79.5542 78.9348 81.2782 78.9903C82.5061 79.0284 83.1999 79.7881 83.2207 81.0126C83.2485 82.6707 83.2485 84.3322 83.2207 85.9903C83.1999 87.2634 82.4819 88.0023 81.1915 88.0335C79.5681 88.0751 77.9412 88.0682 76.3143 88.0404C74.8678 88.0161 74.1567 87.2738 74.122 85.8238C74.1151 85.2966 74.1255 84.7659 74.1255 84.1241ZM51.4047 61.8612C51.9354 67.5397 57.4682 72.8955 63.4623 73.7801C70.2126 74.7722 75.846 70.7588 77.3445 67.7409C75.7454 66.6968 74.1394 65.6492 72.5437 64.6085C67.7671 70.2488 58.9494 68.3132 57.1491 61.0773C55.2412 61.3374 53.3195 61.6011 51.4047 61.8612ZM72.9704 59.4331C73.0293 55.43 69.786 52.0826 65.783 52.0237C61.7279 51.9612 58.3736 55.2358 58.3423 59.2839C58.3111 63.2834 61.4955 66.6066 65.4291 66.676C69.5952 66.7488 72.9079 63.5644 72.9704 59.4331ZM51.2347 60.6333C52.8651 60.4078 54.4295 60.1407 56.0044 59.9985C56.7918 59.9291 57.0623 59.6932 57.1317 58.8642C57.4717 54.6495 60.2675 51.5762 64.3816 50.924C65.4916 50.7471 66.6502 50.8963 67.8677 50.8963C68.4644 49.1133 69.0818 47.2783 69.6958 45.4398C59.4801 42.4185 50.1316 51.0871 51.2347 60.6333ZM78.1181 66.7696C82.9779 58.8572 78.8292 48.6138 70.8752 45.8665C70.2508 47.705 69.6264 49.5434 68.9882 51.434C71.2672 52.5474 72.8975 54.1778 73.73 56.5366C74.573 58.9301 74.2712 61.2472 73.1854 63.5436C74.8539 64.6363 76.4565 65.6839 78.1181 66.7696ZM75.35 35.1582C75.35 35.9006 75.3569 36.6429 75.3465 37.3887C75.3361 38.1241 75.6448 38.5438 76.4184 38.5438C77.9377 38.5438 79.4571 38.5473 80.9799 38.5403C81.6736 38.5369 82.0379 38.2039 82.0309 37.4789C82.0205 35.9595 82.024 34.4402 82.0275 32.9209C82.0275 32.2063 81.684 31.8767 80.966 31.8802C79.4467 31.8906 77.9273 31.8941 76.4045 31.8802C75.6726 31.8733 75.3534 32.2375 75.35 32.9313C75.3465 33.6701 75.3534 34.4159 75.35 35.1582ZM51.5747 82.9066C51.5747 82.0983 51.5643 81.2866 51.5781 80.4784C51.5885 79.8505 51.2729 79.521 50.6693 79.5141C49.0841 79.4967 47.4988 79.5002 45.9136 79.5106C45.3204 79.5141 44.9666 79.802 44.9666 80.4402C44.97 82.0255 44.97 83.6107 44.9666 85.196C44.9666 85.8065 45.251 86.1603 45.8754 86.1638C47.4606 86.1742 49.0459 86.1707 50.6346 86.1673C51.311 86.1638 51.5955 85.7926 51.5851 85.137C51.5643 84.3912 51.5747 83.6489 51.5747 82.9066ZM78.7043 86.8159C79.4466 86.8159 80.189 86.7951 80.9313 86.8229C81.7049 86.8506 82.0413 86.4933 82.0344 85.7337C82.0205 84.249 82.0205 82.7643 82.0344 81.2797C82.0413 80.5061 81.6702 80.1974 80.9105 80.2078C79.4258 80.2321 77.9412 80.2356 76.4565 80.2078C75.6726 80.1939 75.3465 80.5547 75.35 81.3005C75.3534 82.7852 75.3534 84.2698 75.35 85.7545C75.35 86.5107 75.7038 86.861 76.4739 86.8263C77.2162 86.7916 77.9585 86.8159 78.7043 86.8159ZM88.3893 47.7084C87.6469 47.7084 86.9046 47.7292 86.1623 47.7015C85.3922 47.6772 85.0488 48.0172 85.0557 48.7872C85.0696 50.2719 85.0661 51.7565 85.0557 53.2412C85.0523 53.9384 85.3228 54.32 86.0652 54.3131C87.6157 54.3027 89.1698 54.2992 90.7203 54.3131C91.4071 54.32 91.7193 53.9766 91.7228 53.3314C91.7332 51.7808 91.7332 50.2268 91.7228 48.6762C91.7193 48.0276 91.4002 47.6842 90.7134 47.7015C89.9398 47.7258 89.1628 47.7119 88.3893 47.7084Z" fill="url(#paint1_linear_255_17)"/>
<path d="M41.64 50.8127C38.2093 52.783 34.8792 53.0501 31.3618 50.8925C31.3618 51.9852 31.3653 52.8073 31.3618 53.6294C31.3514 56.2865 30.3594 57.7642 27.8861 58.7737C25.6626 59.679 23.4356 60.574 21.2086 61.4689C18.8706 62.4125 18.267 63.297 18.267 65.8501C18.2636 72.8918 18.274 79.9335 18.2532 86.9786C18.2532 87.5198 18.5654 88.4286 17.6669 88.4425C16.7685 88.4564 17.0391 87.5579 17.0356 87.0064C17.0217 79.8953 17.0252 72.7877 17.0252 65.6766C17.0252 62.8773 18.0138 61.4238 20.5877 60.3867C22.9083 59.4535 25.222 58.4996 27.5531 57.5908C29.3222 56.904 30.1512 55.6274 30.1269 53.7577C30.1235 53.3866 30.0992 53.0119 30.1339 52.6408C30.2449 51.3504 30.0749 50.3999 28.7117 49.5986C27.0362 48.6169 26.5194 46.723 26.5749 44.8117C26.6096 43.66 26.4118 42.7234 25.4718 41.9533C25.1076 41.6585 24.7572 41.1243 24.7295 40.6768C24.6358 39.1679 24.6844 37.6485 24.6982 36.1327C24.7017 35.9419 24.7746 35.6921 24.9064 35.5742C25.9331 34.6862 25.6834 33.4998 25.7007 32.3725C25.784 26.4165 30.1824 22.0562 36.1696 22.0007C41.2723 21.9556 44.9631 24.1479 46.7287 28.2411C47.4884 29.9998 47.5404 31.8452 47.5716 33.7149C47.5821 34.2838 47.863 34.8457 48.0122 35.4111C48.1579 35.9592 48.3729 36.5038 48.4215 37.0588C48.4909 37.8671 48.4146 38.6822 48.4458 39.4939C48.4874 40.5797 48.1613 41.5163 47.3254 42.2031C46.6004 42.7963 46.3818 43.5004 46.4269 44.4197C46.5275 46.4802 46.0523 48.4955 44.2312 49.5848C42.9338 50.3583 42.8055 51.2498 42.8922 52.4639C42.9234 52.9009 42.8922 53.345 42.8991 53.7855C42.9234 55.8286 43.5929 56.8138 45.4799 57.5839C45.9795 57.7885 46.5137 57.9446 46.9646 58.2325C47.1797 58.3713 47.2386 58.7563 47.3705 59.0304C47.1103 59.1344 46.8363 59.353 46.59 59.3217C43.6727 58.9506 41.6608 56.6438 41.64 53.6884C41.6365 52.8177 41.64 51.947 41.64 50.8127ZM36.6067 29.6598C35.0839 29.6598 33.5611 29.6945 32.0383 29.646C31.2266 29.6182 30.9976 29.9339 30.9907 30.7144C30.9664 33.5796 30.0784 34.6445 27.2097 35.3314C26.2974 35.5499 25.8048 36.0702 25.8221 37.0415C25.8395 37.8879 25.7285 38.7482 25.8534 39.5737C25.947 40.1947 26.176 40.93 26.6061 41.3359C27.4906 42.1719 27.9485 43.0599 27.7681 44.274C27.723 44.5723 27.7543 44.8845 27.7786 45.1863C27.9555 47.1531 28.7602 48.6655 30.734 49.394C31.7469 49.7686 32.7216 50.2438 33.7137 50.674C35.4134 51.4093 37.127 51.4232 38.8406 50.7329C40.0616 50.2404 41.2653 49.6992 42.4933 49.2275C43.9224 48.6794 44.7341 47.6145 45.0325 46.1749C45.1955 45.3909 45.2441 44.5619 45.2128 43.7606C45.1816 42.9558 45.3481 42.3037 46.0072 41.8077C46.9889 41.0688 47.3462 40.0836 47.2144 38.8696C47.1519 38.3007 47.1935 37.7214 47.2039 37.1456C47.2213 36.1569 46.7495 35.6019 45.7956 35.3244C43.0414 34.5301 42.2713 33.5206 42.2158 30.5999C42.2019 29.8957 41.973 29.639 41.2688 29.6529C39.7182 29.6841 38.1642 29.6598 36.6067 29.6598ZM26.9599 34.0063C28.9371 33.9161 29.7835 32.8789 29.7974 30.6485C29.8078 28.9591 30.2969 28.4562 31.955 28.4527C34.7648 28.4492 37.5745 28.5082 40.3842 28.4353C42.7743 28.3694 43.5964 28.7441 43.4646 31.2902C43.3778 32.976 44.5989 34.0028 46.2431 33.9612C46.6247 30.2149 45.6083 26.9854 42.3788 24.8694C38.8614 22.5661 35.0353 22.5279 31.4035 24.5364C27.782 26.5379 26.6165 29.9304 26.9599 34.0063Z" fill="url(#paint2_linear_255_17)"/>
<path d="M30.8936 77.4502C31.3896 74.4357 31.8475 71.6329 32.3123 68.8336C32.6072 67.068 32.8985 65.2989 33.2281 63.5402C33.3391 62.9366 33.2211 62.5308 32.6661 62.1873C31.8301 61.674 31.0358 61.0981 30.2484 60.5119C29.8564 60.2205 29.0828 59.9812 29.5997 59.3048C30.0784 58.6769 30.571 59.2701 30.9907 59.551C32.1423 60.3246 33.2732 61.1293 34.4144 61.9133C35.9268 62.9539 37.0819 62.9574 38.6151 61.9064C39.8154 61.0877 40.9809 60.2101 42.2123 59.44C42.528 59.2423 43.0275 59.3394 43.4437 59.3013C43.2703 59.6724 43.1871 60.1616 42.8991 60.3974C42.1187 61.0392 41.2757 61.6219 40.4051 62.1388C39.7668 62.5169 39.6766 62.9609 39.798 63.6512C40.5577 68.0462 41.3 72.4446 41.9695 76.8535C42.0597 77.4467 41.8516 78.2168 41.5081 78.7163C40.4328 80.2738 39.243 81.7515 38.0636 83.2361C37.0785 84.4745 35.9199 84.471 34.9382 83.2292C33.7415 81.7168 32.5621 80.1905 31.4173 78.64C31.1329 78.2549 31.0184 77.745 30.8936 77.4502ZM34.4595 63.7552C34.4768 63.6963 34.4248 63.8212 34.404 63.9495C33.6721 68.2786 32.9298 72.6077 32.2395 76.9437C32.1805 77.3149 32.3643 77.8109 32.5967 78.13C33.6096 79.5245 34.6746 80.8843 35.7326 82.2441C36.4194 83.1286 36.5963 83.1217 37.3143 82.2024C38.2925 80.9467 39.2187 79.6529 40.2386 78.4353C40.7762 77.7936 40.8595 77.1588 40.7207 76.3783C40.2386 73.6518 39.8015 70.9149 39.3436 68.1849C39.0834 66.6344 38.8059 65.0838 38.5735 63.7552C37.1166 63.7552 35.8332 63.7552 34.4595 63.7552Z" fill="url(#paint3_linear_255_17)"/>
<path d="M24.0426 79.9373C24.0426 77.4363 24.0183 74.9318 24.0704 72.4342C24.0773 72.0735 24.452 71.7196 24.6566 71.3589C24.8613 71.7231 25.2428 72.0873 25.2463 72.4516C25.2845 77.4536 25.2845 82.4591 25.2463 87.4612C25.2428 87.8046 24.9168 88.4012 24.6809 88.4359C23.9941 88.5296 24.0496 87.9086 24.0496 87.4438C24.0426 84.9428 24.0461 82.4418 24.0426 79.9373Z" fill="url(#paint4_linear_255_17)"/>
<path d="M46.3506 67.456C47.2248 67.456 48.1024 67.4178 48.9731 67.4803C49.2263 67.4976 49.4552 67.8133 49.6946 67.9902C49.4587 68.2122 49.2263 68.618 48.9835 68.625C47.1658 68.6805 45.3481 68.6805 43.5305 68.6284C43.2703 68.6215 43.0171 68.2503 42.7604 68.0457C43.0136 67.848 43.2564 67.4976 43.5235 67.4768C44.4601 67.4143 45.4071 67.456 46.3506 67.456Z" fill="url(#paint5_linear_255_17)"/>
<path d="M64.5585 54.8467C65.0059 54.3368 65.2626 54.0385 65.5228 53.7437C65.8107 54.0454 66.0986 54.3472 66.5634 54.8363C67.2919 54.8329 68.1799 55.1347 68.2493 56.3383C68.2701 56.7095 67.9267 57.1015 67.7498 57.483C67.5139 57.1813 67.2676 56.8829 67.0456 56.5707C66.9728 56.4701 66.9624 56.3245 66.9207 56.1857C66.7716 56.1545 66.6432 56.1094 66.5114 56.1025C64.1734 55.9533 63.9479 56.2204 64.4128 58.77C65.0788 58.77 65.7795 58.7596 66.4767 58.7734C67.6769 58.7943 68.1973 59.2972 68.277 60.4905C68.2944 60.7264 68.284 60.9657 68.284 61.2016C68.2805 63.1788 68.0967 63.4078 66.2027 63.7894C66.1749 64.0079 66.2131 64.2819 66.0986 64.4554C65.9495 64.6774 65.6962 64.9098 65.4534 64.9549C65.3216 64.9792 64.9747 64.6253 64.9747 64.445C64.9747 63.8067 64.607 63.72 64.1075 63.5639C63.7398 63.4494 63.334 63.0783 63.1987 62.721C63.0773 62.4053 63.3028 61.9544 63.3756 61.5624C63.6739 61.7428 63.9653 61.9266 64.2671 62.1C64.4787 62.2215 64.6937 62.4018 64.9192 62.4157C65.5575 62.4573 66.1992 62.4296 67.0352 62.4296C67.0352 61.7497 67.0838 61.1184 67.0075 60.5044C66.9832 60.3136 66.6432 60.0465 66.4178 60.0153C65.8523 59.939 65.2661 60.0187 64.6972 59.9563C64.3122 59.9147 63.8127 59.8522 63.5837 59.599C62.6298 58.5376 62.9906 57.2333 63.1397 56.0157C63.2472 55.1381 63.9965 54.8814 64.5585 54.8467Z" fill="url(#paint6_linear_255_17)"/>
<defs>
<linearGradient id="paint0_linear_255_17" x1="-117.158" y1="35.4645" x2="97.9284" y2="140.452" gradientUnits="userSpaceOnUse">
<stop stop-color="#181C1F"/>
<stop offset="1" stop-color="#2D3037"/>
</linearGradient>
<linearGradient id="paint1_linear_255_17" x1="68.3282" y1="30.6592" x2="68.3282" y2="88.063" gradientUnits="userSpaceOnUse">
<stop stop-color="#1CA7FB"/>
<stop offset="1" stop-color="#17FCD7"/>
</linearGradient>
<linearGradient id="paint2_linear_255_17" x1="32.7259" y1="22" x2="32.7259" y2="88.4426" gradientUnits="userSpaceOnUse">
<stop stop-color="#1CA7FB"/>
<stop offset="1" stop-color="#17FCD7"/>
</linearGradient>
<linearGradient id="paint3_linear_255_17" x1="36.4356" y1="59.0269" x2="36.4356" y2="84.1628" gradientUnits="userSpaceOnUse">
<stop stop-color="#1CA7FB"/>
<stop offset="1" stop-color="#17FCD7"/>
</linearGradient>
<linearGradient id="paint4_linear_255_17" x1="24.656" y1="71.3589" x2="24.656" y2="88.4454" gradientUnits="userSpaceOnUse">
<stop stop-color="#1CA7FB"/>
<stop offset="1" stop-color="#17FCD7"/>
</linearGradient>
<linearGradient id="paint5_linear_255_17" x1="46.2275" y1="67.4424" x2="46.2275" y2="68.667" gradientUnits="userSpaceOnUse">
<stop stop-color="#1CA7FB"/>
<stop offset="1" stop-color="#17FCD7"/>
</linearGradient>
<linearGradient id="paint6_linear_255_17" x1="65.6173" y1="53.7437" x2="65.6173" y2="64.9561" gradientUnits="userSpaceOnUse">
<stop stop-color="#1CA7FB"/>
<stop offset="1" stop-color="#17FCD7"/>
</linearGradient>
</defs>
</svg>
