<svg width="140" height="147" viewBox="0 0 140 147" fill="none" xmlns="http://www.w3.org/2000/svg">
<path d="M131.031 0C133.383 1.00033 134.219 2.77955 134.2 5.31474C134.12 16.0817 134.166 26.8486 134.166 37.6117C134.166 38.089 134.208 38.5777 134.112 39.0359C133.876 40.1469 133.135 40.8265 132.005 40.8036C130.817 40.7807 130.065 40.082 129.905 38.8679C129.848 38.4479 129.882 38.0126 129.882 37.5812C129.882 27.0548 129.882 16.5246 129.882 5.99818C129.882 5.48274 129.882 4.9673 129.882 4.37168C89.861 4.37168 49.9546 4.37168 9.93752 4.37168C9.93752 26.5164 9.93752 48.6803 9.93752 70.9472C10.4835 70.9472 11.0333 70.9472 11.4418 70.9472C12.4154 68.4808 13.3929 66.0754 14.3016 63.6471C14.4772 63.1813 14.4085 62.6124 14.4085 62.0932C14.4123 45.4197 14.4123 28.7462 14.4123 12.0727C14.4123 9.48025 15.0232 8.86936 17.6004 8.86936C23.2244 8.86936 28.8446 8.85791 34.4686 8.87318C36.2096 8.877 37.2596 9.9346 36.9694 11.3893C36.6983 12.7485 35.7247 13.1685 34.4304 13.1647C29.7609 13.1456 25.0914 13.157 20.4219 13.157C19.9065 13.157 19.391 13.157 18.7916 13.157C18.7916 28.0666 18.7916 42.8578 18.7916 57.7367C20.2196 56.767 21.6361 55.8544 22.9838 54.8427C23.2358 54.6556 23.2702 54.0829 23.2778 53.6858C23.3084 52.0669 23.2587 50.4442 23.3007 48.8254C23.3695 46.1833 24.9501 44.511 27.577 44.4499C30.6238 44.3773 33.6782 44.3735 36.725 44.4575C39.2602 44.5262 41.1005 46.2444 40.8753 48.749C40.608 51.7233 41.3716 53.3803 44.4261 54.4608C47.7707 55.6444 50.3441 58.2331 52.4287 61.1539C52.9251 61.8488 53.4443 62.1199 54.2996 62.1199C64.6847 62.0932 75.0737 62.1161 85.4588 62.0626C86.043 62.0588 86.8257 61.6655 87.1807 61.1997C89.9756 57.5458 93.4462 54.8312 97.795 53.304C98.5662 53.0329 98.8335 52.6511 98.7877 51.8607C98.7266 50.8146 98.7419 49.7646 98.7838 48.7185C98.8908 46.2215 100.426 44.5453 102.888 44.4728C106.031 44.3773 109.18 44.3773 112.319 44.4728C114.774 44.5492 116.343 46.2597 116.412 48.7261C116.458 50.3908 116.362 52.0631 116.461 53.724C116.492 54.2241 116.855 54.8388 117.256 55.1596C118.39 56.0759 119.623 56.8662 120.921 57.7787C120.921 42.9074 120.921 28.1315 120.921 13.157C120.306 13.157 119.707 13.157 119.107 13.157C94.6183 13.157 70.1255 13.157 45.6364 13.157C45.1591 13.157 44.6819 13.18 44.2085 13.1418C42.9714 13.0425 42.1314 12.1796 42.1238 11.038C42.1161 9.8926 42.9409 9.00681 44.1703 8.88845C44.6437 8.84263 45.121 8.87318 45.5982 8.87318C70.9922 8.87318 96.3899 8.87318 121.784 8.87318C124.785 8.87318 125.296 9.37716 125.296 12.3247C125.296 28.9027 125.289 45.4808 125.323 62.0588C125.323 62.9217 125.621 63.8036 125.907 64.636C126.614 66.6977 127.389 68.7366 128.198 70.9434C128.576 70.9434 129.164 70.9434 129.886 70.9434C129.886 70.3669 129.886 69.8553 129.886 69.3437C129.886 62.4368 129.897 55.5299 129.878 48.6192C129.874 47.4203 130.126 46.4162 131.39 46.0153C132.929 45.5266 134.162 46.6109 134.17 48.4741C134.189 53.2849 134.177 58.0956 134.177 62.9102C134.177 65.2431 134.177 67.5797 134.177 69.9126C134.177 73.7612 133.028 75.0402 128.996 75.4335C129.34 77.0485 129.664 78.6483 130.019 80.2442C133.146 94.4092 136.369 108.555 139.385 122.747C141.504 132.723 135.246 142.734 125.384 145.575C115.515 148.42 104.961 143.261 101.346 133.731C100.067 130.356 99.0091 126.893 97.8828 123.461C97.6499 122.755 97.3597 122.411 96.5197 122.357C93.1675 122.147 90.827 120.391 89.4983 117.337C89.189 116.623 88.8569 116.344 88.0513 116.344C75.948 116.371 63.8486 116.371 51.7453 116.352C51.0008 116.352 50.5808 116.497 50.2486 117.272C48.9238 120.387 46.5489 122.167 43.1279 122.365C42.3452 122.411 42.0742 122.751 41.8603 123.404C40.8256 126.569 39.8177 129.742 38.7028 132.876C35.5911 141.616 27.3441 147.026 18.3182 146.312C9.32663 145.602 1.99595 139.073 0.323636 130.02C-0.0810785 127.817 -0.111623 125.427 0.262547 123.22C1.02998 118.677 2.1754 114.198 3.19482 109.697C3.55372 108.12 4.48151 107.444 5.78347 107.704C7.11597 107.971 7.67341 109.048 7.32596 110.701C6.32945 115.447 5.03131 120.154 4.39369 124.946C3.38572 132.521 8.45611 139.585 15.8441 141.532C23.3275 143.502 31.1507 139.84 34.1249 132.716C35.6942 128.955 36.8243 125.011 38.1492 121.159C34.8809 118.589 33.663 115.424 34.9764 111.503C36.0454 108.307 38.8937 106.188 42.1391 106.051C45.7013 105.902 48.7596 107.711 50.1379 110.93C50.5159 111.812 50.9359 112.106 51.898 112.102C63.8562 112.064 75.8182 112.068 87.7764 112.095C88.6812 112.098 89.1852 111.919 89.5747 110.987C90.9415 107.738 93.9693 105.925 97.5315 106.051C100.785 106.165 103.61 108.28 104.744 111.442C105.943 114.786 105.091 118.116 102.331 120.475C101.758 120.964 101.663 121.353 101.892 122.025C103.007 125.263 104.007 128.543 105.179 131.758C108.027 139.565 116.271 143.727 124.247 141.459C132.043 139.241 136.877 131.212 135.117 123.163C131.295 105.692 127.469 88.2202 123.502 70.7831C121.799 63.292 117.057 58.3667 109.528 56.7211C102.106 55.0985 95.779 57.3817 91.0064 63.4104C90.4185 64.1549 90.1359 65.2698 90.0367 66.2472C89.8801 67.8508 90.0328 69.4849 89.9756 71.1C89.8878 73.6543 88.2803 75.3151 85.7184 75.3227C75.1882 75.3609 64.658 75.3571 54.1278 75.3266C51.4933 75.3189 49.8706 73.6275 49.8172 71.0122C49.7866 69.5346 49.7408 68.0532 49.8325 66.5832C49.9126 65.308 49.527 64.3 48.7252 63.3264C43.9297 57.4848 37.7445 55.1557 30.4138 56.6715C23.2511 58.1529 18.3487 62.5857 16.5695 69.7484C14.1183 79.6257 12.0451 89.5947 9.81152 99.5255C9.71607 99.9416 9.63971 100.365 9.52517 100.778C9.15482 102.072 8.12012 102.771 6.97852 102.504C5.7491 102.217 5.07331 101.118 5.3673 99.7583C6.21491 95.8525 7.09306 91.958 7.96358 88.056C8.84173 84.1081 9.72371 80.164 10.598 76.2162C10.6477 75.9947 10.6439 75.7618 10.6744 75.4373C10.1895 75.3915 9.77716 75.3609 9.36481 75.3113C7.13506 75.0364 5.66892 73.4595 5.55056 71.2069C5.52766 70.7793 5.54293 70.3478 5.54293 69.9202C5.54293 48.4359 5.56965 26.9517 5.50857 5.46365C5.49329 2.89409 6.24163 1.02706 8.66992 0C49.4545 0 90.2428 0 131.031 0ZM85.6001 66.4877C75.0737 66.4877 64.6351 66.4877 54.1927 66.4877C54.1927 68.0341 54.1927 69.4811 54.1927 70.9702C64.7 70.9702 75.1004 70.9702 85.6001 70.9702C85.6001 69.4467 85.6001 68.0035 85.6001 66.4877ZM46.5604 114.29C46.6024 112.152 44.869 110.365 42.7194 110.334C40.5813 110.304 38.7792 112.033 38.7333 114.16C38.6875 116.283 40.44 118.077 42.5858 118.108C44.7583 118.135 46.5184 116.443 46.5604 114.29ZM97.0161 118.1C99.1733 118.112 100.945 116.382 100.964 114.248C100.983 112.137 99.2038 110.346 97.0695 110.331C94.92 110.315 93.1484 112.049 93.1293 114.191C93.114 116.336 94.8589 118.089 97.0161 118.1ZM27.6533 48.8063C27.6533 50.2572 27.6533 51.5133 27.6533 52.5747C30.6658 52.3036 33.6095 52.0402 36.5647 51.7729C36.5647 50.8375 36.5647 49.8639 36.5647 48.8063C33.5637 48.8063 30.6467 48.8063 27.6533 48.8063ZM103.152 48.8063C103.152 49.9784 103.152 50.952 103.152 51.7653C106.199 52.0478 109.135 52.3189 112.048 52.5862C112.048 51.4102 112.048 50.1464 112.048 48.8063C109.051 48.8063 106.13 48.8063 103.152 48.8063Z" fill="url(#paint0_linear_160_178)"/>
<path d="M27.772 93.1149C24.939 93.2371 22.2663 93.1302 20.5635 90.8279C19.7082 89.671 19.1393 88.1323 18.9523 86.7006C18.6545 84.4212 19.6242 82.3136 21.6364 81.256C23.4079 80.3244 25.5155 80.038 27.7758 79.3775C27.7758 79.0912 27.7643 78.3963 27.7796 77.7014C27.856 73.9253 30.5554 71.1381 34.194 71.058C37.8593 70.9778 40.7649 73.7726 40.9328 77.5601C40.9634 78.2703 40.9367 78.9804 40.9367 79.954C41.7614 79.954 42.4944 79.9311 43.2275 79.9579C46.9883 80.1029 49.7908 82.8672 49.8251 86.4486C49.8633 90.0719 47.0074 92.9545 43.2122 93.1073C42.5097 93.134 41.8072 93.1111 40.9367 93.1111C40.9367 93.9472 40.9558 94.6498 40.9328 95.3447C40.8069 99.1245 37.9242 102.019 34.3123 102.003C30.6737 101.988 27.8522 99.1016 27.7758 95.2988C27.7605 94.646 27.772 93.9854 27.772 93.1149ZM45.5222 86.4715C45.4993 85.2879 44.6287 84.3486 43.3382 84.2723C42.0095 84.1959 40.677 84.2494 39.3445 84.2265C37.3744 84.1921 36.6719 83.4972 36.649 81.5653C36.6337 80.2824 36.6872 78.9957 36.6261 77.7128C36.5573 76.2467 35.6028 75.338 34.2894 75.3571C32.9722 75.3762 32.1055 76.3002 32.0635 77.793C32.0291 79.0759 32.0788 80.3626 32.0444 81.6454C32.0024 83.4056 31.2502 84.173 29.513 84.2226C28.276 84.257 27.0389 84.2112 25.8019 84.2379C24.099 84.2799 23.1445 85.1428 23.175 86.5631C23.2018 87.93 24.1372 88.7699 25.756 88.8158C26.9435 88.8501 28.1347 88.8119 29.3221 88.8272C31.3304 88.8539 32.0253 89.5641 32.0482 91.6144C32.0635 92.756 32.0368 93.8976 32.0559 95.0392C32.0864 96.7001 32.9989 97.7348 34.3696 97.7004C35.6677 97.666 36.5879 96.6313 36.6299 95.085C36.6643 93.8022 36.6184 92.5155 36.6452 91.2326C36.6795 89.6214 37.3973 88.8769 38.9895 88.831C40.3678 88.7929 41.7499 88.8654 43.1282 88.7967C44.5638 88.7356 45.5489 87.7162 45.5222 86.4715Z" fill="url(#paint1_linear_160_178)"/>
<path d="M48.0718 31.8999C48.0718 34.8818 48.0718 37.8637 48.0718 40.8457C48.0718 41.3687 48.1024 41.8994 48.026 42.4111C47.8389 43.6481 46.9226 44.4232 45.7581 44.3086C44.544 44.1903 43.8911 43.4763 43.7994 42.2583C43.7803 42.0216 43.788 41.7811 43.788 41.5444C43.788 36.0234 43.8033 30.5063 43.7765 24.9854C43.7689 23.7751 44.0362 22.7709 45.2847 22.3815C46.5332 21.9921 47.335 22.6679 48.0108 23.6606C50.3665 27.1197 52.7604 30.5522 55.1429 33.9922C55.3987 34.3626 55.6851 34.7177 56.17 35.3629C56.2081 34.5191 56.2463 34.0228 56.2501 33.5264C56.2578 30.5751 56.2272 27.6275 56.2692 24.6762C56.2921 23.0917 57.1474 22.2288 58.4799 22.267C59.7513 22.3051 60.5225 23.1413 60.5264 24.68C60.5531 30.2467 60.5378 35.8134 60.534 41.3802C60.534 42.6287 60.1217 43.6519 58.8121 44.0185C57.5177 44.3812 56.6396 43.7359 55.9294 42.7051C53.4324 39.0626 50.9163 35.4316 48.4078 31.7968C48.2895 31.835 48.1788 31.8656 48.0718 31.8999Z" fill="url(#paint2_linear_160_178)"/>
<path d="M70.2971 26.5813C70.2971 28.0818 70.2971 29.3952 70.2971 30.9683C71.6984 30.9683 73.0538 30.9492 74.4092 30.9721C75.6272 30.995 76.5549 31.4646 76.7802 32.7819C77.0017 34.0724 76.1808 35.1147 74.8063 35.2101C73.6685 35.2903 72.5193 35.2865 71.3776 35.2369C70.5186 35.1987 70.1864 35.485 70.2131 36.3747C70.2666 38.1844 70.2513 39.9942 70.217 41.8039C70.1902 43.3503 69.3273 44.3086 68.0598 44.278C66.8418 44.2513 65.9636 43.3312 65.956 41.865C65.9255 36.1494 65.9216 30.4299 65.956 24.7143C65.9675 23.0611 66.7998 22.3165 68.4836 22.2975C70.6293 22.2745 72.7712 22.2745 74.917 22.2975C76.4671 22.3165 77.3987 23.1603 77.3873 24.4585C77.3758 25.7528 76.4404 26.5546 74.875 26.5737C73.405 26.5966 71.9275 26.5813 70.2971 26.5813Z" fill="url(#paint3_linear_160_178)"/>
<path d="M91.0022 26.3294C91.0022 31.1707 91.0022 35.7867 91.0022 40.4028C91.0022 40.88 91.0174 41.3573 90.9983 41.8307C90.9334 43.2587 90.0744 44.1826 88.8373 44.175C87.6003 44.1636 86.7297 43.2396 86.7221 41.8002C86.6992 37.5621 86.7145 33.3241 86.7145 29.086C86.7145 28.2346 86.7145 27.387 86.7145 26.337C85.779 26.337 84.9391 26.3599 84.1029 26.3332C82.7246 26.2836 81.8732 25.4932 81.8426 24.2791C81.8121 23.0611 82.6368 22.1066 83.9769 22.0837C87.2604 22.0264 90.5478 22.0226 93.8352 22.0875C95.16 22.1142 95.9656 23.1146 95.9007 24.3402C95.8396 25.5047 95.0264 26.2683 93.7282 26.3256C92.8768 26.3561 92.0254 26.3294 91.0022 26.3294Z" fill="url(#paint4_linear_160_178)"/>
<path d="M98.7841 81.7142C102.388 81.7409 105.294 84.6655 105.294 88.266C105.29 91.8931 102.251 94.9094 98.6429 94.8598C95.0539 94.8101 92.1445 91.8549 92.1445 88.266C92.1445 84.5892 95.0883 81.6874 98.7841 81.7142ZM100.999 88.2698C101.002 87.0251 100.01 86.0286 98.7536 86.0095C97.4822 85.9904 96.478 86.9373 96.436 88.1896C96.3979 89.4725 97.4784 90.5797 98.7421 90.5606C99.9487 90.5415 100.995 89.4763 100.999 88.2698Z" fill="url(#paint5_linear_160_178)"/>
<path d="M111.987 81.508C108.368 81.4928 105.489 78.6063 105.474 74.9753C105.458 71.3291 108.456 68.3281 112.083 68.3586C115.653 68.3892 118.596 71.3482 118.615 74.9295C118.638 78.5758 115.668 81.5233 111.987 81.508ZM114.313 75.0097C114.343 73.7917 113.347 72.7189 112.129 72.6578C110.914 72.5967 109.849 73.5817 109.78 74.8188C109.712 76.1437 110.697 77.2013 112.01 77.2089C113.266 77.2204 114.282 76.2506 114.313 75.0097Z" fill="url(#paint6_linear_160_178)"/>
<path d="M69.843 84.192C68.415 84.192 66.9871 84.234 65.563 84.1806C64.1732 84.1309 63.3179 83.3101 63.2798 82.1226C63.2378 80.8818 64.1235 79.9654 65.5706 79.9387C68.4227 79.8891 71.2786 79.8891 74.1345 79.9387C75.5205 79.9616 76.3795 80.8092 76.4177 81.989C76.4559 83.2375 75.5739 84.1271 74.1269 84.1806C72.6989 84.234 71.271 84.192 69.843 84.192Z" fill="url(#paint7_linear_160_178)"/>
<path d="M59.9623 106.379C58.8245 106.375 57.6829 106.413 56.549 106.367C55.289 106.318 54.4567 105.493 54.4108 104.351C54.3688 103.202 55.1286 102.206 56.3771 102.16C58.7902 102.068 61.2146 102.068 63.6276 102.156C64.8914 102.202 65.6359 103.149 65.6092 104.325C65.5825 105.562 64.7692 106.333 63.3757 106.375C62.2379 106.409 61.1001 106.383 59.9623 106.379Z" fill="url(#paint8_linear_160_178)"/>
<path d="M79.6367 106.379C78.4989 106.379 77.3573 106.413 76.2233 106.371C74.9214 106.322 74.1387 105.546 74.0929 104.367C74.047 103.187 74.7763 102.213 76.0324 102.164C78.4455 102.068 80.8699 102.068 83.2829 102.152C84.5391 102.198 85.3103 103.164 85.2912 104.313C85.2683 105.508 84.4054 106.31 83.0539 106.386C82.9584 106.39 82.8629 106.39 82.7675 106.39C81.7252 106.39 80.679 106.39 79.6367 106.39C79.6367 106.383 79.6367 106.379 79.6367 106.379Z" fill="url(#paint9_linear_160_178)"/>
<defs>
<linearGradient id="paint0_linear_160_178" x1="69.8987" y1="0" x2="69.8987" y2="146.375" gradientUnits="userSpaceOnUse">
<stop stop-color="#1CA7FB"/>
<stop offset="1" stop-color="#17FCD7"/>
</linearGradient>
<linearGradient id="paint1_linear_160_178" x1="34.3625" y1="71.0563" x2="34.3625" y2="102.003" gradientUnits="userSpaceOnUse">
<stop stop-color="#1CA7FB"/>
<stop offset="1" stop-color="#17FCD7"/>
</linearGradient>
<linearGradient id="paint2_linear_160_178" x1="52.1591" y1="22.2657" x2="52.1591" y2="44.3198" gradientUnits="userSpaceOnUse">
<stop stop-color="#1CA7FB"/>
<stop offset="1" stop-color="#17FCD7"/>
</linearGradient>
<linearGradient id="paint3_linear_160_178" x1="71.6595" y1="22.2803" x2="71.6595" y2="44.2788" gradientUnits="userSpaceOnUse">
<stop stop-color="#1CA7FB"/>
<stop offset="1" stop-color="#17FCD7"/>
</linearGradient>
<linearGradient id="paint4_linear_160_178" x1="88.8731" y1="22.0398" x2="88.8731" y2="44.1751" gradientUnits="userSpaceOnUse">
<stop stop-color="#1CA7FB"/>
<stop offset="1" stop-color="#17FCD7"/>
</linearGradient>
<linearGradient id="paint5_linear_160_178" x1="98.7192" y1="81.714" x2="98.7192" y2="94.8604" gradientUnits="userSpaceOnUse">
<stop stop-color="#1CA7FB"/>
<stop offset="1" stop-color="#17FCD7"/>
</linearGradient>
<linearGradient id="paint6_linear_160_178" x1="112.045" y1="68.3584" x2="112.045" y2="81.5081" gradientUnits="userSpaceOnUse">
<stop stop-color="#1CA7FB"/>
<stop offset="1" stop-color="#17FCD7"/>
</linearGradient>
<linearGradient id="paint7_linear_160_178" x1="69.8486" y1="79.9015" x2="69.8486" y2="84.2077" gradientUnits="userSpaceOnUse">
<stop stop-color="#1CA7FB"/>
<stop offset="1" stop-color="#17FCD7"/>
</linearGradient>
<linearGradient id="paint8_linear_160_178" x1="60.0095" y1="102.091" x2="60.0095" y2="106.392" gradientUnits="userSpaceOnUse">
<stop stop-color="#1CA7FB"/>
<stop offset="1" stop-color="#17FCD7"/>
</linearGradient>
<linearGradient id="paint9_linear_160_178" x1="79.6912" y1="102.091" x2="79.6912" y2="106.392" gradientUnits="userSpaceOnUse">
<stop stop-color="#1CA7FB"/>
<stop offset="1" stop-color="#17FCD7"/>
</linearGradient>
</defs>
</svg>
