<svg width="175" height="150" viewBox="0 0 175 150" fill="none" xmlns="http://www.w3.org/2000/svg">
<path d="M130.424 54.3044C144.485 62.4313 158.316 70.478 172.222 78.3992C174.209 79.533 175.102 80.742 174.991 83.0998C174.786 87.4743 174.871 91.8588 174.926 96.2434C174.946 97.7383 174.399 98.6614 173.105 99.4088C155.411 109.653 137.743 119.937 120.069 130.211C119.743 130.397 119.367 130.763 119.086 130.703C118.268 130.532 117.205 130.402 116.794 129.84C116.508 129.448 116.894 128.059 117.401 127.683C118.946 126.534 120.696 125.656 122.372 124.683C138.099 115.537 153.821 106.382 169.573 97.2768C170.798 96.5694 171.344 95.842 171.284 94.3671C171.149 91.1314 171.244 87.8907 171.244 84.3991C170.562 84.7352 170.07 84.9459 169.609 85.2168C142.634 100.889 115.665 116.576 88.6704 132.213C87.4313 132.93 86.9095 133.667 86.9647 135.127C87.0851 138.363 87.0049 141.609 87.0049 145.226C89.5734 143.731 91.876 142.396 94.1736 141.062C95.7438 140.149 97.314 139.246 98.8742 138.328C99.9528 137.696 100.981 137.711 101.608 138.865C102.16 139.883 101.814 140.806 100.78 141.408C95.9144 144.237 91.0834 147.117 86.152 149.826C85.4949 150.187 84.1855 149.911 83.438 149.485C64.0237 138.348 44.6445 127.146 25.2653 115.959C17.7955 111.644 10.3458 107.29 2.83596 103.041C1.26576 102.153 0.658744 101.104 0.70891 99.3035C0.834326 94.7986 0.824292 90.2886 0.744026 85.7837C0.713927 84.1382 1.29084 83.155 2.72058 82.3272C15.8792 74.7321 28.9976 67.0717 42.1512 59.4665C43.2198 58.8494 43.7114 58.107 44.0124 56.898C49.1645 36.2496 59.7295 19.1579 77.388 6.87724C83.1722 2.8539 89.5583 0.215162 96.7371 0.00948031C100.7 -0.105902 104.418 0.832206 107.869 2.80876C112.153 5.2669 116.427 7.74511 120.752 10.123C127.74 13.9607 131.106 20.1964 132.546 27.7163C134.146 36.079 133.047 44.2812 130.91 52.4031C130.75 53.0001 130.604 53.597 130.424 54.3044ZM6.32753 84.4593C7.12517 84.966 7.62683 85.3071 8.14856 85.6131C16.3257 90.3388 24.5028 95.0594 32.6798 99.7801C49.6862 109.598 66.6875 119.415 83.7089 129.208C84.2909 129.544 85.239 129.93 85.6905 129.684C89.2473 127.758 92.7188 125.681 96.4712 123.509C94.6402 122.44 93.09 121.542 91.5499 120.624C90.2857 119.877 88.4045 119.225 89.5433 117.328C90.687 115.422 92.167 116.852 93.4211 117.544C95.3375 118.602 97.2087 119.736 99.125 120.8C99.5213 121.02 100.158 121.296 100.459 121.131C103.113 119.676 105.712 118.131 108.591 116.46C106.63 115.317 105.02 114.378 103.414 113.435C102.23 112.743 100.635 112.101 101.608 110.365C102.657 108.499 104.051 109.643 105.29 110.35C107.242 111.469 109.163 112.653 111.165 113.681C111.717 113.962 112.645 114.037 113.162 113.761C115.64 112.442 118.038 110.972 120.702 109.417C118.655 108.218 116.784 107.114 114.907 106.036C113.844 105.424 112.966 104.676 113.688 103.347C114.456 101.947 115.6 102.248 116.743 102.91C118.906 104.165 121.063 105.434 123.255 106.643C123.706 106.894 124.429 107.18 124.775 106.989C127.419 105.554 130.002 104.004 132.832 102.359C130.735 101.15 128.959 100.111 127.168 99.0928C126.054 98.4557 125.056 97.6631 125.834 96.2735C126.671 94.7735 127.9 95.3002 129.064 95.9775C131.171 97.2066 133.278 98.4406 135.41 99.6145C135.847 99.8553 136.554 100.131 136.895 99.9456C139.554 98.5058 142.153 96.9607 144.977 95.3253C142.76 94.0411 140.878 92.9374 138.977 91.8538C137.903 91.2418 137.332 90.3689 137.944 89.2201C138.626 87.9408 139.73 88.0813 140.843 88.7234C143.061 90.0077 145.278 91.302 147.51 92.5611C147.922 92.7919 148.554 93.1481 148.84 92.9926C151.544 91.5227 154.187 89.9525 157.092 88.2719C154.885 86.9927 153.044 85.9292 151.208 84.8657C150.134 84.2436 149.336 83.4309 150.079 82.1366C150.801 80.8825 151.87 81.033 152.988 81.6901C155.196 82.9945 157.413 84.2837 159.656 85.5228C160.097 85.7686 160.824 86.0295 161.176 85.8339C163.9 84.3439 166.563 82.7486 169.483 81.048C155.918 73.212 142.634 65.5416 129.275 57.821C128.954 58.5685 128.693 59.1354 128.472 59.7123C124.494 70.182 118.75 79.5831 111.215 87.8656C104.954 94.7484 97.8207 100.457 88.9864 103.763C81.2558 106.653 73.756 106.698 66.4919 102.193C62.7746 99.8904 58.8817 97.8687 55.049 95.7567C50.3032 93.1431 47.0123 89.2552 45.0007 84.2687C42.6328 78.3992 42.1011 72.2739 42.5927 66.0232C42.6579 65.2005 42.698 64.3828 42.7683 63.2691C39.4623 65.1955 36.4875 66.9262 33.2919 68.7874C35.4741 70.0415 37.3152 71.1 39.1513 72.1636C40.2299 72.7856 41.0125 73.6184 40.2901 74.8976C39.5777 76.1668 38.4941 76.0063 37.3804 75.3541C35.1681 74.0548 32.9608 72.7505 30.7133 71.5214C30.2418 71.2656 29.4592 71.085 29.0528 71.3007C26.4893 72.6803 23.986 74.1853 21.1868 75.8157C23.3238 77.0598 25.195 78.1434 27.0662 79.237C28.1348 79.8641 28.9374 80.6718 28.1549 81.966C27.4024 83.2152 26.3439 83.0246 25.2352 82.3674C23.083 81.0932 20.9359 79.8039 18.7236 78.635C18.1668 78.344 17.2236 78.2036 16.727 78.4745C13.3207 80.3457 9.99468 82.3323 6.32753 84.4593ZM129.641 36.1241C129.646 30.8918 128.848 26.3317 127.238 22.5391C124.183 15.3603 118.344 11.4373 110.663 11.648C103.444 11.8437 97.1284 14.7784 91.5599 19.0676C73.3747 33.074 62.7796 51.5202 60.191 74.3809C59.5238 80.2754 60.196 86.1399 62.6592 91.6531C66.1307 99.4239 73.3295 103.252 81.7424 101.942C88.0884 100.954 93.5917 98.0945 98.6936 94.3671C106.851 88.4074 113.227 80.8273 118.374 72.2037C125.011 61.0919 129.365 49.2376 129.641 36.1241ZM59.6592 93.9809C59.4987 93.5795 59.4235 93.3738 59.3382 93.1682C56.4185 86.0997 55.7463 78.7303 56.8299 71.2505C59.6542 51.7911 68.5989 35.4168 82.5802 21.7766C89.2523 15.27 96.9327 10.3186 106.279 8.44744C107.167 8.27186 108.065 8.13139 109.284 7.92069C105.662 5.52776 102.22 3.79201 98.1117 3.67663C90.8225 3.47597 84.5367 6.26019 78.7726 10.3186C63.7177 20.9188 54.156 35.472 48.7581 52.8897C46.2097 61.1119 45.1411 69.5098 46.8919 78.0681C48.4019 85.4325 52.2698 90.9709 59.6592 93.9809ZM83.3327 145.271C83.3327 141.684 83.2324 138.498 83.3728 135.328C83.443 133.733 82.9013 132.915 81.5217 132.122C59.2429 119.32 37.0042 106.452 14.7555 93.6046C11.4194 91.6782 8.07331 89.7719 4.41619 87.675C4.41619 91.2418 4.49646 94.4725 4.38108 97.6932C4.32589 99.1931 4.82254 100.001 6.13188 100.753C29.4341 114.153 52.7062 127.612 75.9883 141.052C78.306 142.396 80.6287 143.721 83.3327 145.271Z" fill="url(#paint0_linear_160_151)"/>
<path d="M106.217 138.363C105.495 137.666 104.717 137.259 104.582 136.692C104.447 136.11 104.727 135.072 105.184 134.771C107.206 133.432 109.313 132.207 111.48 131.119C111.971 130.873 113.06 131.114 113.441 131.53C113.823 131.947 113.968 133.286 113.692 133.487C111.334 135.167 108.861 136.672 106.217 138.363Z" fill="url(#paint1_linear_160_151)"/>
<path d="M95.0063 64.9998C90.0348 64.1419 85.4646 63.4346 80.9346 62.5165C79.3243 62.1905 79.3293 60.8761 79.8912 59.5166C82.1436 54.0284 84.366 48.5202 86.5984 43.0219C88.6452 37.9853 90.6819 32.9486 92.7387 27.9169C93.8223 25.2731 95.1568 25.0875 96.8674 27.355C101.006 32.8482 105.1 38.3816 109.274 43.8497C110.317 45.2192 110.347 46.3078 109.253 47.6774C105.034 52.9549 100.911 58.3026 96.7069 63.5951C96.2002 64.2322 95.4327 64.6536 95.0063 64.9998ZM95.2671 31.2981C91.3943 40.8297 87.672 50.0001 83.8593 59.3862C87.2455 59.9731 90.3709 60.535 93.5013 61.0266C93.8223 61.0768 94.319 60.7557 94.5497 60.4597C98.2019 55.8494 101.844 51.2291 105.426 46.5637C105.697 46.2125 105.732 45.3296 105.481 44.9834C102.205 40.4986 98.849 36.0689 95.2671 31.2981Z" fill="url(#paint2_linear_160_151)"/>
<path d="M86.8536 70.5884C91.9656 72.3091 95.5324 70.3375 98.5173 65.9229C101.166 62.0049 104.522 58.5635 107.577 54.9215C108.375 53.9733 109.142 52.7091 110.642 53.6322C112.097 54.5251 111.475 55.7592 110.933 56.9331C106.509 66.5851 102.094 76.2471 97.6745 85.8991C96.5457 88.3623 95.6076 88.583 93.6261 86.8372C88.8803 82.6684 84.1196 78.5146 79.4441 74.2706C78.817 73.6987 78.2501 72.5699 78.3505 71.7924C78.521 70.473 79.8354 70.5683 80.924 70.5833C82.8604 70.6084 84.8018 70.5884 86.8536 70.5884ZM94.9505 83.1751C97.3233 77.9728 99.5657 73.0616 101.808 68.1553C100.108 69.5449 98.6828 71.1001 97.4337 72.7856C96.33 74.2806 95.0658 74.9729 93.1445 74.7722C90.6311 74.5114 88.0877 74.5114 85.0025 74.3759C88.5292 77.4963 91.6395 80.2454 94.9505 83.1751Z" fill="url(#paint3_linear_160_151)"/>
<defs>
<linearGradient id="paint0_linear_160_151" x1="87.8533" y1="149.993" x2="87.8533" y2="0" gradientUnits="userSpaceOnUse">
<stop stop-color="#1CA7FB"/>
<stop offset="1" stop-color="#17FCD7"/>
</linearGradient>
<linearGradient id="paint1_linear_160_151" x1="109.191" y1="138.363" x2="109.191" y2="131.02" gradientUnits="userSpaceOnUse">
<stop stop-color="#1CA7FB"/>
<stop offset="1" stop-color="#17FCD7"/>
</linearGradient>
<linearGradient id="paint2_linear_160_151" x1="94.8074" y1="64.9998" x2="94.8074" y2="25.7836" gradientUnits="userSpaceOnUse">
<stop stop-color="#1CA7FB"/>
<stop offset="1" stop-color="#17FCD7"/>
</linearGradient>
<linearGradient id="paint3_linear_160_151" x1="94.9403" y1="87.9765" x2="94.9403" y2="53.3108" gradientUnits="userSpaceOnUse">
<stop stop-color="#1CA7FB"/>
<stop offset="1" stop-color="#17FCD7"/>
</linearGradient>
</defs>
</svg>
