<svg width="135" height="134" viewBox="0 0 135 134" fill="none" xmlns="http://www.w3.org/2000/svg">
<path d="M110.985 61.4323C111.449 61.4731 111.72 61.5139 111.991 61.5213C115.297 61.6104 115.69 61.9443 116.384 65.2504C116.488 65.7476 116.577 66.2523 116.707 66.7421C116.993 67.8144 117.976 68.2189 118.926 67.64C119.798 67.1094 120.629 66.5194 121.505 65.9962C122.729 65.2653 123.932 65.3729 124.956 66.3413C126.44 67.7402 127.883 69.1836 129.29 70.6567C130.318 71.7328 130.418 72.935 129.661 74.2225C129.171 75.0611 128.596 75.8478 128.087 76.6789C127.442 77.7364 127.817 78.6492 129.023 78.9461C129.969 79.1761 130.93 79.3357 131.868 79.5843C133.382 79.985 134.128 80.9201 134.154 82.4897C134.188 84.434 134.188 86.3783 134.154 88.3227C134.125 89.8885 133.386 90.7716 131.828 91.1798C130.978 91.4024 130.11 91.5508 129.253 91.7512C127.746 92.1 127.379 92.9608 128.188 94.2521C128.655 94.9979 129.164 95.7178 129.612 96.471C130.425 97.8328 130.329 99.0165 129.249 100.144C127.869 101.584 126.462 102.994 125.019 104.367C123.895 105.436 122.811 105.525 121.464 104.749C120.741 104.334 120.058 103.851 119.357 103.406C117.798 102.419 116.997 102.742 116.622 104.504C116.477 105.183 116.329 105.859 116.165 106.534C115.676 108.579 114.882 109.206 112.767 109.232C112.262 109.239 111.754 109.232 111.119 109.232C111.119 111.068 111.119 112.835 111.119 114.775C112.67 114.775 114.232 114.775 115.794 114.775C118.763 114.775 121.731 114.76 124.7 114.783C126.162 114.794 126.77 115.35 126.781 116.783C126.8 119.606 126.882 122.438 126.692 125.25C126.369 130.018 122.377 133.721 117.583 133.911C117.26 133.922 116.934 133.922 116.611 133.922C86.4142 133.922 56.2177 133.925 26.0212 133.918C20.8153 133.918 16.9452 130.886 16.0175 126.063C15.8431 125.165 15.8617 124.222 15.8617 123.298C15.8543 89.2206 15.8543 55.1429 15.8543 21.0688C15.8543 20.4789 15.8543 19.8926 15.8543 19.1579C13.1715 19.1579 10.6335 19.1579 8.0955 19.1579C6.09923 19.1579 4.10666 19.1764 2.11038 19.1505C0.600182 19.1319 0.0250463 18.5457 0.0139146 17.028C-0.00463819 14.6199 -0.00463819 12.2117 0.0139146 9.80359C0.0621518 4.12643 4.18458 0.0114285 9.90255 0.00771796C32.1214 -0.00712427 54.3365 0.0040074 76.5553 0.0040074C84.3957 0.0040074 92.2323 -0.00341371 100.073 0.00771796C106.611 0.0151391 110.971 4.34165 110.982 10.9019C111.004 27.1059 110.989 43.3136 110.989 59.5176C110.986 60.1076 110.985 60.705 110.985 61.4323ZM107.542 61.4805C107.601 61.1762 107.635 61.0872 107.635 60.9944C107.639 44.0965 107.679 27.195 107.62 10.2971C107.605 6.14498 104.548 3.34351 100.347 3.34351C72.9338 3.33238 45.5202 3.33609 18.1103 3.3398C17.7763 3.3398 17.4461 3.4103 16.9712 3.46596C18.7596 5.71084 19.216 8.14126 19.216 10.7683C19.1938 48.501 19.1975 86.2373 19.2049 123.97C19.2049 127.777 21.8468 130.564 25.409 130.578C28.96 130.593 31.6427 127.807 31.6909 124.014C31.7206 121.885 31.6946 119.755 31.6984 117.625C31.6984 115.076 32.01 114.768 34.5815 114.768C58.329 114.768 82.0766 114.768 105.828 114.768C106.407 114.768 106.982 114.768 107.553 114.768C107.553 112.797 107.553 111.061 107.553 109.287C105.516 109.209 104.563 108.1 104.306 106.245C104.214 105.562 104.013 104.89 103.854 104.215C103.546 102.905 102.648 102.508 101.527 103.198C100.7 103.71 99.9058 104.274 99.0635 104.76C97.724 105.532 96.6219 105.425 95.5088 104.363C94.0691 102.987 92.6591 101.577 91.2787 100.141C90.2101 99.0276 90.121 97.8217 90.9337 96.4673C91.4123 95.6733 91.9466 94.9163 92.429 94.126C93.1043 93.0239 92.6999 92.0703 91.4309 91.7772C90.5292 91.5657 89.6127 91.421 88.7148 91.1872C87.1637 90.7865 86.4105 89.9108 86.366 88.3375C86.3103 86.3932 86.314 84.4488 86.3623 82.5045C86.4031 80.8719 87.1971 79.9442 88.7852 79.5509C89.6832 79.3283 90.5997 79.1724 91.4977 78.9535C92.6776 78.6678 93.0784 77.7327 92.455 76.7086C91.9504 75.8774 91.3826 75.0834 90.8891 74.2485C90.1285 72.961 90.2175 71.755 91.2342 70.6901C92.6405 69.217 94.0839 67.7736 95.5644 66.371C96.6553 65.3432 97.7945 65.2727 99.1266 66.0593C99.9651 66.5528 100.763 67.1131 101.59 67.6215C102.614 68.2448 103.557 67.8293 103.832 66.6456C103.958 66.1038 104.084 65.5621 104.169 65.0167C104.477 63.0612 105.216 61.5213 107.542 61.4805ZM123.253 118.185C93.9132 118.185 64.5442 118.185 35.0787 118.185C34.8226 122.419 35.8876 126.816 32.7373 130.582C33.3681 130.582 33.6909 130.582 34.0137 130.582C61.6017 130.582 89.1897 130.582 116.778 130.582C117.056 130.582 117.334 130.586 117.613 130.567C120.277 130.389 122.848 128.519 123.178 125.937C123.505 123.402 123.253 120.794 123.253 118.185ZM126.677 72.5639C126.095 72.0407 125.523 71.5695 124.997 71.0463C122.956 69.0278 122.93 68.9795 120.6 70.5602C119.234 71.4879 117.998 71.525 116.436 70.9387C114.596 70.2485 113.613 69.1428 113.394 67.243C113.327 66.6493 113.197 66.0519 113.004 65.4879C112.922 65.243 112.614 64.9053 112.403 64.9016C110.878 64.8756 109.245 64.6196 107.876 65.0946C107.282 65.2987 107.227 67.0575 106.93 68.1075C106.919 68.1521 106.915 68.2003 106.904 68.2448C106.292 70.6975 102.681 72.1929 100.496 70.883C99.5162 70.2968 98.5626 69.6734 97.4308 68.9647C96.8446 69.6326 96.3511 70.2485 95.8019 70.8088C93.8984 72.7346 93.954 72.6901 95.3232 75.0277C95.8279 75.8923 96.3585 77.0574 96.1767 77.9442C95.7129 80.2522 94.6479 82.2485 91.7834 82.3116C91.3307 82.3227 90.8409 82.4192 90.4364 82.6195C90.1322 82.7717 89.7389 83.1353 89.724 83.4247C89.6535 84.9386 89.6906 86.4562 89.6906 87.933C92.0394 88.7494 94.5923 88.4266 95.8316 91.4321C97.0709 94.4302 94.8149 95.9441 94.0951 97.7697C95.3789 99.1686 96.5218 100.415 97.6906 101.684C98.659 101.061 99.5421 100.356 100.54 99.8959C101.249 99.5694 102.173 99.3096 102.896 99.4766C105.175 99.9961 107.086 101.031 107.186 103.796C107.204 104.252 107.293 104.734 107.486 105.143C107.635 105.447 107.991 105.848 108.273 105.862C109.791 105.933 111.312 105.896 112.837 105.896C113.635 103.588 113.29 101.035 116.314 99.8142C119.327 98.5972 120.841 100.809 122.741 101.588C124.073 100.297 125.297 99.113 126.533 97.9182C125.546 95.8773 123.475 94.3412 124.752 91.3171C126.017 88.3227 128.659 88.8347 130.729 87.9664C130.729 86.1965 130.729 84.5045 130.729 82.8199C128.533 81.985 126.002 82.3932 124.748 79.4507C123.475 76.4229 125.587 74.8867 126.677 72.5639ZM15.858 15.7405C15.858 13.7368 15.8654 11.8073 15.8543 9.8778C15.8506 9.41769 15.8209 8.95016 15.7318 8.50118C15.153 5.49563 12.678 3.38432 9.70589 3.3398C6.71518 3.29527 3.96195 5.29526 3.56121 8.2971C3.23839 10.7275 3.49442 13.2396 3.49442 15.7405C7.59458 15.7405 11.6502 15.7405 15.858 15.7405Z" fill="url(#paint0_linear_160_165)"/>
<path d="M100.618 31.629C100.392 32.1225 100.221 32.5975 99.9685 33.0242C97.6049 37.0019 95.2338 40.9759 92.8443 44.9388C91.7682 46.7236 90.4361 46.7421 89.3749 44.9833C86.9593 40.9833 84.5883 36.9574 82.1578 32.9611C81.5827 32.0149 81.5976 31.1949 82.169 30.2561C84.5957 26.2598 86.9667 22.2339 89.3823 18.2339C90.425 16.5048 91.7422 16.4862 92.77 18.1894C95.2116 22.2265 97.6272 26.2821 100.043 30.3377C100.276 30.7274 100.417 31.1689 100.618 31.629ZM96.3173 30.6012C94.5697 27.6847 92.8851 24.8684 91.0929 21.8777C89.2932 24.8906 87.6012 27.7144 85.9018 30.5604C90.4918 32.4936 91.1374 32.4973 96.3173 30.6012ZM87.0595 34.6197C88.4918 37.0093 89.7348 39.0872 91.1003 41.3618C92.4695 39.0687 93.7199 36.9759 95.1151 34.642C93.5604 35.0353 92.3285 35.5919 91.0929 35.5882C89.8573 35.5845 88.6216 35.0205 87.0595 34.6197Z" fill="url(#paint1_linear_160_165)"/>
<path d="M54.9486 78.3597C46.2362 78.3597 37.5201 78.3635 28.8077 78.3523C28.3068 78.3523 27.6537 78.4377 27.3346 78.1705C26.8634 77.7772 26.3216 77.0722 26.3736 76.5527C26.4255 76.0258 27.086 75.4655 27.6129 75.113C27.9394 74.8941 28.5109 75.024 28.9747 75.024C46.3104 75.0202 63.6461 75.0202 80.9781 75.0202C81.2082 75.0202 81.4419 75.0277 81.672 75.0202C82.8074 74.9906 83.5792 75.4655 83.7017 76.638C83.8056 77.6585 82.967 78.3449 81.646 78.3486C75.2973 78.3597 68.9448 78.3523 62.596 78.3523C60.0469 78.3598 57.4977 78.3597 54.9486 78.3597Z" fill="url(#paint2_linear_160_165)"/>
<path d="M51.3644 26.0966C43.8988 26.0966 36.4332 26.0966 28.9712 26.0929C28.5074 26.0929 27.8989 26.2339 27.6169 25.9964C27.0751 25.5438 26.4035 24.8796 26.385 24.2822C26.3701 23.7961 27.1716 23.2061 27.7245 22.8202C28.0065 22.6198 28.5334 22.7608 28.9527 22.7608C44.0212 22.7608 59.0898 22.7608 74.1584 22.7608C74.5294 22.7608 75.0081 22.6273 75.2493 22.8091C75.8207 23.2395 76.6593 23.8035 76.6816 24.3415C76.7038 24.8944 75.9543 25.5697 75.3977 26.0076C75.1046 26.2376 74.5035 26.0929 74.0396 26.0929C66.4812 26.0966 58.9228 26.0966 51.3644 26.0966Z" fill="url(#paint3_linear_160_165)"/>
<path d="M50.474 67.358C43.3386 67.358 36.2032 67.358 29.064 67.3543C28.6002 67.3543 28.0288 67.4878 27.7023 67.2689C27.1494 66.9016 26.3591 66.2856 26.3813 65.8069C26.411 65.2207 27.0975 64.5788 27.6466 64.1409C27.9435 63.9071 28.5409 64.0259 29.001 64.0259C43.3645 64.0222 57.7318 64.0222 72.0954 64.0222C72.3254 64.0222 72.5592 64.0259 72.7892 64.0259C73.9024 64.037 74.7039 64.4786 74.8078 65.6697C74.8931 66.6752 74.062 67.3431 72.715 67.3468C65.9024 67.3617 59.0899 67.3543 52.281 67.3543C51.6799 67.358 51.0751 67.358 50.474 67.358Z" fill="url(#paint4_linear_160_165)"/>
<path d="M47.7498 37.7663C54.1988 37.7663 60.644 37.7626 67.0929 37.7663C68.6402 37.7663 69.3675 38.271 69.4046 39.3433C69.4454 40.475 68.6514 41.0947 67.0892 41.0947C54.2878 41.0984 41.4827 41.0984 28.6813 41.0947C28.403 41.0947 28.121 41.1133 27.8464 41.0687C26.9002 40.924 26.2842 40.3637 26.2991 39.4064C26.3139 38.3897 26.9262 37.7812 27.9874 37.77C29.8872 37.7515 31.7907 37.7589 33.6942 37.7589C38.377 37.7663 43.0634 37.7663 47.7498 37.7663Z" fill="url(#paint5_linear_160_165)"/>
<path d="M47.947 53.0576C54.2104 53.0576 60.4701 53.0576 66.7336 53.0576C67.1491 53.0576 67.676 52.9128 67.9618 53.1095C68.5109 53.4917 69.305 54.0742 69.2976 54.5603C69.2901 55.154 68.6371 55.833 68.1065 56.2894C67.8319 56.5269 67.2159 56.3822 66.7521 56.3822C54.1362 56.3859 41.5166 56.3859 28.9007 56.3822C28.4852 56.3822 27.9286 56.5195 27.68 56.3117C27.1308 55.8553 26.3701 55.2023 26.385 54.6494C26.3998 54.1114 27.2273 53.5325 27.795 53.0984C28.0288 52.9166 28.5148 53.0538 28.8859 53.0538C35.2384 53.0576 41.5908 53.0576 47.947 53.0576Z" fill="url(#paint6_linear_160_165)"/>
<path d="M47.3275 93.651C41.0678 93.651 34.8043 93.6769 28.5446 93.6138C27.8582 93.6064 26.9751 93.2576 26.5446 92.7567C25.8433 91.9441 26.4704 90.6677 27.5799 90.3968C28.0214 90.2892 28.5001 90.3189 28.9602 90.3189C41.205 90.3152 53.4462 90.3152 65.691 90.3152C65.9211 90.3152 66.1548 90.3077 66.3849 90.3189C67.6873 90.3671 68.5407 91.0573 68.4294 92.0665C68.2995 93.2465 67.5203 93.6621 66.3812 93.6584C60.0324 93.6435 53.6799 93.651 47.3275 93.651Z" fill="url(#paint7_linear_160_165)"/>
<path d="M43.8693 101.154C38.7747 101.154 33.6801 101.157 28.5892 101.15C27.0864 101.15 26.3109 100.597 26.2812 99.5433C26.2478 98.4524 27.0938 97.8216 28.6374 97.8216C38.7784 97.8179 48.9193 97.8216 59.0603 97.8142C60.1252 97.8142 61.0269 98.0331 61.2495 99.2428C61.461 100.389 60.6298 101.146 59.153 101.15C54.0547 101.161 48.9601 101.154 43.8693 101.154Z" fill="url(#paint8_linear_160_165)"/>
<path d="M43.7468 33.5993C38.7932 33.5993 33.8359 33.5993 28.8823 33.5956C28.4667 33.5956 27.9139 33.7255 27.6652 33.514C27.1198 33.0539 26.3665 32.3971 26.3851 31.8442C26.4037 31.3099 27.2608 30.7793 27.7988 30.3006C27.9287 30.1819 28.2478 30.2672 28.4779 30.2672C38.6188 30.2672 48.7598 30.2672 58.9044 30.2672C59.0417 30.2672 59.1827 30.2709 59.32 30.2672C60.4332 30.2635 61.1345 30.8312 61.1307 31.9184C61.1307 33.013 60.3886 33.5733 59.3089 33.5882C57.6874 33.6142 56.0658 33.5956 54.448 33.5956C50.8785 33.5993 47.3126 33.5993 43.7468 33.5993Z" fill="url(#paint9_linear_160_165)"/>
<path d="M110.232 97.5397C103.52 97.5285 97.9946 91.9738 98.0651 85.306C98.1356 78.627 103.553 73.2541 110.247 73.2281C116.97 73.2021 122.477 78.6826 122.469 85.395C122.469 92.1111 116.989 97.5471 110.232 97.5397ZM110.228 94.2039C115.134 94.215 119.111 90.2967 119.134 85.4321C119.156 80.5639 115.212 76.5936 110.325 76.5565C105.453 76.5231 101.445 80.4637 101.408 85.332C101.364 90.1742 105.364 94.1928 110.228 94.2039Z" fill="url(#paint10_linear_160_165)"/>
<defs>
<linearGradient id="paint0_linear_160_165" x1="67.0896" y1="0" x2="67.0896" y2="133.923" gradientUnits="userSpaceOnUse">
<stop stop-color="#1CA7FB"/>
<stop offset="1" stop-color="#17FCD7"/>
</linearGradient>
<linearGradient id="paint1_linear_160_165" x1="91.1756" y1="16.9244" x2="91.1756" y2="46.29" gradientUnits="userSpaceOnUse">
<stop stop-color="#1CA7FB"/>
<stop offset="1" stop-color="#17FCD7"/>
</linearGradient>
<linearGradient id="paint2_linear_160_165" x1="55.0402" y1="74.9857" x2="55.0402" y2="78.3653" gradientUnits="userSpaceOnUse">
<stop stop-color="#1CA7FB"/>
<stop offset="1" stop-color="#17FCD7"/>
</linearGradient>
<linearGradient id="paint3_linear_160_165" x1="51.5334" y1="22.7126" x2="51.5334" y2="26.1378" gradientUnits="userSpaceOnUse">
<stop stop-color="#1CA7FB"/>
<stop offset="1" stop-color="#17FCD7"/>
</linearGradient>
<linearGradient id="paint4_linear_160_165" x1="50.5973" y1="63.9957" x2="50.5973" y2="67.3946" gradientUnits="userSpaceOnUse">
<stop stop-color="#1CA7FB"/>
<stop offset="1" stop-color="#17FCD7"/>
</linearGradient>
<linearGradient id="paint5_linear_160_165" x1="47.8525" y1="37.7574" x2="47.8525" y2="41.0985" gradientUnits="userSpaceOnUse">
<stop stop-color="#1CA7FB"/>
<stop offset="1" stop-color="#17FCD7"/>
</linearGradient>
<linearGradient id="paint6_linear_160_165" x1="47.8412" y1="53.0042" x2="47.8412" y2="56.4267" gradientUnits="userSpaceOnUse">
<stop stop-color="#1CA7FB"/>
<stop offset="1" stop-color="#17FCD7"/>
</linearGradient>
<linearGradient id="paint7_linear_160_165" x1="47.3441" y1="90.3127" x2="47.3441" y2="93.6584" gradientUnits="userSpaceOnUse">
<stop stop-color="#1CA7FB"/>
<stop offset="1" stop-color="#17FCD7"/>
</linearGradient>
<linearGradient id="paint8_linear_160_165" x1="43.7812" y1="97.8142" x2="43.7812" y2="101.156" gradientUnits="userSpaceOnUse">
<stop stop-color="#1CA7FB"/>
<stop offset="1" stop-color="#17FCD7"/>
</linearGradient>
<linearGradient id="paint9_linear_160_165" x1="43.7578" y1="30.2375" x2="43.7578" y2="33.6351" gradientUnits="userSpaceOnUse">
<stop stop-color="#1CA7FB"/>
<stop offset="1" stop-color="#17FCD7"/>
</linearGradient>
<linearGradient id="paint10_linear_160_165" x1="110.267" y1="73.228" x2="110.267" y2="97.5397" gradientUnits="userSpaceOnUse">
<stop stop-color="#1CA7FB"/>
<stop offset="1" stop-color="#17FCD7"/>
</linearGradient>
</defs>
</svg>
