<svg width="137" height="134" viewBox="0 0 137 134" fill="none" xmlns="http://www.w3.org/2000/svg">
<path d="M35.4605 87.9039C35.4605 79.4166 35.4605 71.0818 35.4605 62.5268C33.9528 62.5268 32.4451 62.4929 30.9374 62.5268C29.4974 62.5606 28.4132 62.0355 28.0236 60.6125C27.6509 59.2403 28.3624 58.3085 29.4974 57.597C38.5437 51.8541 47.5731 46.1112 56.6025 40.3344C57.8223 39.5552 58.9234 39.5552 60.1262 40.3344C69.1556 46.0943 78.202 51.8541 87.2314 57.597C88.3664 58.3085 89.0779 59.2572 88.6883 60.6294C88.2986 62.0524 87.2144 62.5776 85.7745 62.5437C84.3006 62.5098 82.8437 62.5437 81.2682 62.5437C81.2682 71.031 81.2682 79.3997 81.2682 87.9209C82.3524 87.9209 83.4027 87.9039 84.4531 87.9209C86.3335 87.9378 87.4685 88.8696 87.5024 90.3942C87.5363 91.9697 86.3674 92.9862 84.4023 92.9862C71.5612 92.9862 58.7371 92.9862 45.896 92.9862C41.4067 92.9862 36.9174 92.9862 32.4281 92.9862C30.3444 92.9862 29.1416 92.0036 29.1755 90.3773C29.2264 88.8018 30.3614 87.9209 32.3943 87.9039C33.3768 87.9039 34.3255 87.9039 35.4605 87.9039ZM40.7122 62.6115C40.7122 71.1157 40.7122 79.4675 40.7122 87.7854C45.8113 87.7854 50.7919 87.7854 55.7386 87.7854C55.7386 79.3319 55.7386 71.0141 55.7386 62.6115C50.7072 62.6115 45.7605 62.6115 40.7122 62.6115ZM61.0071 62.6115C61.0071 71.0988 61.0071 79.4505 61.0071 87.7854C66.1063 87.7854 71.0869 87.7854 76.0335 87.7854C76.0335 79.3319 76.0335 71.0141 76.0335 62.6115C71.0022 62.6115 66.0724 62.6115 61.0071 62.6115ZM77.4396 57.3937C71.0699 53.328 65.1237 49.5163 59.1267 45.7893C58.7201 45.5352 57.8053 45.6538 57.3479 45.9418C51.6728 49.4993 46.0315 53.1077 40.3733 56.7161C40.1362 56.8686 39.899 57.0549 39.4416 57.3937C52.1641 57.3937 64.5647 57.3937 77.4396 57.3937Z" fill="url(#paint0_linear_159_29)"/>
<path d="M111.559 50.4481C111.728 41.4864 118.572 37.0988 124.434 37.1665C131.109 37.2512 136.648 42.6045 136.987 49.2283C137.258 54.8018 133.446 62.0863 124.078 62.6284C121.317 74.8596 118.539 87.1247 115.743 99.5084C116.235 99.8133 116.709 100.118 117.183 100.423C123.434 104.37 125.959 112.197 123.18 119.024C120.368 125.919 113.134 129.731 105.765 128.172C98.7348 126.681 93.4154 120.108 93.9914 112.824C94.1947 110.198 93.3646 109.114 91.2978 108.046C88.5026 106.573 85.8429 104.828 83.1324 103.185C81.5061 102.185 81.0487 100.83 81.8449 99.4914C82.6411 98.17 84.098 97.9159 85.7074 98.8816C89.1633 100.931 92.5853 102.981 96.1598 105.116C99.7004 100.101 104.529 97.7127 110.814 98.1192C111.61 94.6633 112.389 91.2413 113.168 87.8023C115.032 79.5691 116.861 71.336 118.759 63.1028C119.013 62.0016 118.86 61.4256 117.861 60.6633C116.235 59.4605 114.795 57.9528 113.524 56.3773C112.897 55.615 112.457 55.4456 111.593 55.6827C106.511 57.0719 101.411 58.4102 96.3123 59.7485C94.4319 60.2398 93.0427 59.5791 92.67 58.0206C92.3312 56.5806 93.2121 55.3778 95.0417 54.8865C100.531 53.3957 106.036 51.9388 111.559 50.4481ZM119.233 113.247C119.216 107.64 114.642 103.1 109.018 103.134C103.427 103.151 98.9042 107.758 98.9381 113.383C98.9889 118.905 103.529 123.412 109.069 123.429C114.676 123.429 119.25 118.838 119.233 113.247ZM131.905 49.8721C131.888 45.6369 128.449 42.2149 124.248 42.2488C120.114 42.2826 116.709 45.6877 116.709 49.8382C116.709 54.0395 120.148 57.4785 124.366 57.4615C128.5 57.4446 131.922 54.0056 131.905 49.8721Z" fill="url(#paint1_linear_159_29)"/>
<path d="M25.4999 36.7261C25.2458 39.5891 25.0087 42.0793 24.7545 44.9931C25.8896 45.6877 27.4651 46.6025 29.0067 47.5851C30.5144 48.5507 30.8363 50.0923 29.8706 51.3629C29.0405 52.4471 27.8547 52.6673 26.4825 51.905C24.7884 50.9563 23.1282 49.9229 21.4511 48.9403C17.7411 52.0235 13.6584 53.2094 8.99968 51.8203C3.96829 50.3125 0.342978 45.7894 0.0211044 40.6902C-0.31771 35.2014 2.6808 30.2208 7.5936 28.0863C12.4386 25.9857 18.1307 27.036 21.7222 30.9154C22.7217 31.9827 23.4162 32.1351 24.7884 31.593C38.3918 26.2567 52.0122 21.0051 65.6664 15.7874C66.8692 15.33 67.3435 14.8895 67.2927 13.4665C67.0216 6.1142 72.8154 0.30354 80.1676 0.388243C87.2488 0.456006 92.8732 6.46996 92.5852 13.6528C92.3819 18.7689 88.8752 23.4276 83.9454 25.0709C78.931 26.748 73.4252 25.1556 70.0879 21.039C69.5289 20.3444 69.1731 19.8023 68.055 20.2428C53.9603 25.7316 39.8318 31.1695 25.7202 36.6244C25.5338 36.6922 25.3644 36.8108 25.4999 36.7261ZM79.9813 20.6663C84.1318 20.6324 87.503 17.2273 87.5199 13.0768C87.5199 8.87554 84.0809 5.45352 79.8457 5.45352C75.7292 5.47046 72.3071 8.90942 72.3071 13.043C72.3241 17.2781 75.78 20.7002 79.9813 20.6663ZM20.2991 39.7585C20.333 35.608 16.9618 32.169 12.8283 32.1013C8.61005 32.0335 5.1372 35.4216 5.08638 39.6568C5.03556 43.7904 8.44064 47.2632 12.5572 47.314C16.7924 47.3648 20.2653 43.9598 20.2991 39.7585Z" fill="url(#paint2_linear_159_29)"/>
<path d="M36.6118 108.097C40.0846 112.451 41.2705 117.093 39.966 122.26C38.0348 129.866 30.547 134.728 22.6526 133.525C14.7582 132.323 9.2525 125.157 9.84543 116.873C10.3875 109.368 16.9775 103.1 24.6686 103.117C27.0233 103.117 29.3781 104.048 31.7328 104.472C32.2411 104.557 32.9695 104.506 33.3083 104.201C34.9854 102.659 36.544 101.016 38.1703 99.4237C39.5594 98.0684 41.1349 97.9159 42.2191 99.0001C43.3372 100.118 43.2017 101.609 41.7787 103.015C40.1185 104.709 38.4075 106.352 36.6118 108.097ZM25.3292 108.199C19.7388 108.216 15.1987 112.824 15.2326 118.431C15.2665 123.971 19.8235 128.477 25.3462 128.494C30.9536 128.494 35.5106 123.937 35.5106 118.329C35.5275 112.739 30.9366 108.182 25.3292 108.199Z" fill="url(#paint3_linear_159_29)"/>
<defs>
<linearGradient id="paint0_linear_159_29" x1="58.3598" y1="92.9862" x2="58.3598" y2="39.75" gradientUnits="userSpaceOnUse">
<stop stop-color="#1CA7FB"/>
<stop offset="1" stop-color="#17FCD7"/>
</linearGradient>
<linearGradient id="paint1_linear_159_29" x1="109.232" y1="128.519" x2="109.232" y2="37.1658" gradientUnits="userSpaceOnUse">
<stop stop-color="#1CA7FB"/>
<stop offset="1" stop-color="#17FCD7"/>
</linearGradient>
<linearGradient id="paint2_linear_159_29" x1="46.2954" y1="52.3964" x2="46.2954" y2="0.387329" gradientUnits="userSpaceOnUse">
<stop stop-color="#1CA7FB"/>
<stop offset="1" stop-color="#17FCD7"/>
</linearGradient>
<linearGradient id="paint3_linear_159_29" x1="26.3829" y1="133.708" x2="26.3829" y2="98.2844" gradientUnits="userSpaceOnUse">
<stop stop-color="#1CA7FB"/>
<stop offset="1" stop-color="#17FCD7"/>
</linearGradient>
</defs>
</svg>
