<svg width="151" height="123" viewBox="0 0 151 123" fill="none" xmlns="http://www.w3.org/2000/svg">
<path d="M23.3792 68.1673C25.5087 67.1673 27.6018 66.1916 29.6867 65.1998C35.2047 62.5723 40.7511 60.0016 46.2327 57.2972C55.3376 52.8075 63.9082 53.9087 72.2034 59.4145C73.7175 60.4226 75.507 61.1311 77.268 61.6412C82.3164 63.0946 87.4013 64.4225 92.4942 65.7058C96.1135 66.6167 98.9474 68.5033 100.765 71.9202C105.052 70.6611 109.255 69.4061 113.473 68.1956C119.493 66.4669 125.501 64.6856 131.558 63.1027C134.8 62.2566 138.148 62.0663 141.48 62.8193C147.816 64.2565 151.035 69.0944 149.715 75.4383C148.719 80.2316 146.039 84.0169 141.468 85.8144C125.396 92.1381 109.247 98.2715 93.1015 104.417C86.5875 106.895 80.0655 107.016 73.3815 104.672C67.908 102.753 62.2321 101.421 56.6655 99.7573C53.6535 98.8585 50.8034 99.0447 47.9938 100.478C45.2084 101.899 42.3745 103.231 39.3827 104.688C39.8726 105.822 40.3422 106.911 40.8159 107.996C42.7105 112.332 41.4069 115.765 37.1237 117.664C34.1683 118.975 31.2049 120.271 28.2414 121.558C23.9582 123.42 20.4725 122.064 18.5778 117.765C12.6306 104.283 6.69157 90.8021 0.764653 77.3127C-1.01666 73.2643 0.35576 69.8271 4.44873 68.0134C7.44863 66.6815 10.4607 65.3739 13.4727 64.0662C17.7276 62.2201 20.9016 63.3861 23.0027 67.5438C23.0999 67.7179 23.2092 67.8798 23.3792 68.1673ZM25.0917 72.2926C29.2535 81.7336 33.4356 91.2231 37.6581 100.802C40.6054 99.3686 43.4271 98.0286 46.2165 96.6319C49.8682 94.806 53.6292 94.4538 57.5521 95.6076C61.9609 96.9031 66.3858 98.1581 70.8027 99.4334C73.2317 100.134 75.6689 100.79 78.0818 101.539C82.8589 103.024 87.4539 101.988 91.8788 100.32C107.805 94.3121 123.691 88.199 139.557 82.0251C143.201 80.6081 145.136 77.592 145.707 73.7987C146.201 70.5275 144.553 67.8394 141.294 67.228C138.812 66.7625 136.043 66.475 133.659 67.0944C123.299 69.7907 113.032 72.8351 102.745 75.8067C102.393 75.9079 102.004 76.5556 101.968 76.9767C101.283 85.1343 94.8504 89.6888 86.9397 87.5795C81.4258 86.1059 75.9037 84.6485 70.3857 83.1829C67.6044 82.4421 64.815 81.7174 62.0418 80.9401C60.633 80.5434 59.9812 79.5353 60.2565 78.3815C60.5561 77.1346 61.6127 76.5637 63.1025 76.8471C63.3495 76.8957 63.5883 76.9767 63.8353 77.0415C72.0374 79.2195 80.2315 81.4421 88.4539 83.5392C89.7251 83.8631 91.1987 83.8995 92.474 83.6121C95.567 82.9117 97.6479 80.0737 97.6681 76.9564C97.6884 73.8634 95.6479 71.0538 92.5671 70.1874C87.7535 68.8312 82.9318 67.4952 78.0737 66.309C74.7054 65.4872 71.6002 64.2767 68.6691 62.3456C62.7098 58.4267 56.2769 57.4592 49.6374 60.5076C41.5122 64.2362 33.4639 68.1389 25.3873 71.9688C25.3144 72.0092 25.2618 72.1105 25.0917 72.2926ZM17.2256 67.1552C17.1082 67.2361 16.9868 67.3171 16.8693 67.3981C16.5333 67.4871 16.1771 67.5357 15.8572 67.6734C12.4727 69.1349 9.08015 70.5801 5.72399 72.0983C4.26251 72.7582 3.91434 73.9161 4.61472 75.5152C10.6064 89.1342 16.6062 102.749 22.6181 116.356C23.3995 118.129 24.4885 118.538 26.286 117.769C29.3507 116.457 32.4032 115.121 35.4476 113.769C37.484 112.866 37.8767 111.846 36.982 109.801C35.0995 105.506 33.1927 101.219 31.302 96.9274C27.2536 87.7455 23.2254 78.5515 19.1243 69.394C18.7357 68.5397 17.8693 67.896 17.2256 67.1552Z" fill="url(#paint0_linear_159_39)"/>
<path d="M129.319 11.9749C131.444 12.2502 133.027 12.068 134.675 10.6592C138.444 7.4447 144.221 8.11674 147.545 11.8089C150.857 15.4849 150.841 21.0232 147.513 24.6506C144.132 28.3347 138.363 28.9784 134.639 25.7436C132.991 24.3146 131.396 24.2376 129.319 24.4482C129.319 25.5898 129.331 26.7315 129.315 27.8731C129.246 32.7596 125.995 36.0712 121.093 36.0753C92.8993 36.0996 64.7059 36.0996 36.5126 36.0753C31.529 36.0712 28.2821 32.7475 28.27 27.7517C28.2538 21.3835 28.2538 15.0193 28.27 8.65113C28.2862 3.65941 31.5168 0.38422 36.5409 0.380172C64.6816 0.35993 92.8264 0.35993 120.967 0.380172C126.076 0.38422 129.274 3.63512 129.319 8.7402C129.327 9.78875 129.319 10.8413 129.319 11.9749ZM78.7662 4.61484C64.799 4.61484 50.8319 4.61079 36.8648 4.61889C33.8163 4.61889 32.5249 5.92249 32.5208 8.95477C32.5127 15.1165 32.5127 21.2823 32.5208 27.444C32.5249 30.5451 33.8285 31.8406 36.9782 31.8406C64.8638 31.8446 92.7495 31.8446 120.631 31.8406C123.748 31.8406 125.056 30.5168 125.064 27.4076C125.072 21.4483 125.068 15.4849 125.068 9.5256C125.068 5.7484 123.955 4.61889 120.218 4.61889C106.401 4.61079 92.5835 4.61079 78.7662 4.61484ZM138.084 22.8612C140.351 24.0878 142.958 23.5494 144.586 21.5373C146.177 19.5698 146.161 16.7966 144.549 14.8452C142.906 12.8534 140.298 12.3514 138.056 13.574C139.991 16.6225 140.007 19.675 138.084 22.8612ZM129.4 20.092C131.027 20.092 132.477 20.0961 133.926 20.092C135.173 20.088 135.193 19.2257 135.169 18.3148C135.145 17.4201 135.355 16.3837 133.963 16.3634C132.469 16.3391 130.971 16.3594 129.396 16.3594C129.4 17.6427 129.4 18.7722 129.4 20.092Z" fill="url(#paint1_linear_159_39)"/>
<path d="M110.012 30.1767C104.988 30.1646 100.535 27.0837 98.7777 22.3956C97.0247 17.7277 98.3688 12.4931 102.178 9.16934C105.947 5.87796 111.328 5.29094 115.765 7.68762C116.032 7.83336 116.295 7.98315 116.546 8.14914C117.971 9.09242 118.376 10.3353 117.627 11.4405C116.911 12.5012 115.737 12.6065 114.291 11.7401C109.818 9.07218 104.344 10.9345 102.701 15.6792C101.389 19.4726 103.215 23.6628 106.891 25.2902C110.547 26.9096 114.907 25.436 116.838 21.9341C116.935 21.7559 117.024 21.5778 117.109 21.3916C117.971 19.5698 119.04 18.9666 120.303 19.5819C121.562 20.1973 121.765 21.428 120.911 23.262C118.931 27.5088 114.7 30.1929 110.012 30.1767Z" fill="url(#paint2_linear_159_39)"/>
<path d="M47.0627 16.0071C50.5767 16.2946 51.2852 16.6589 51.354 18.1042C51.4269 19.6264 50.7103 20.0434 47.1437 20.4888C47.6862 22.096 49.7063 23.9502 47.1356 25.2497C44.7753 26.444 44.3381 23.8975 43.2653 22.6344C42.1398 23.8854 41.7876 26.3914 39.229 25.2335C37.8687 24.6182 37.9254 23.6546 39.3423 20.505C37.6987 20.0677 34.9781 20.9705 35.2291 17.9544C35.4356 15.497 37.6825 16.3108 39.3545 16.0152C38.8889 14.3675 36.7473 12.4364 39.4233 11.149C41.6702 10.0721 42.1884 12.4445 43.2369 13.7967C44.3664 12.4809 44.9251 9.82922 47.3461 11.2948C49.5727 12.6429 47.7712 14.3635 47.0627 16.0071Z" fill="url(#paint3_linear_159_39)"/>
<path d="M68.0615 16.0071C69.7902 16.3229 72.2274 15.4808 72.2638 18.1609C72.2962 20.9341 69.8186 20.1689 68.0818 20.428C68.6891 22.096 70.5351 23.7194 68.2032 25.2538C66.9685 26.0635 66.1588 25.4886 64.2358 22.6385C63.1063 23.8895 62.6164 26.61 60.1711 25.1688C57.904 23.8328 59.7096 22.1041 60.3655 20.5009C58.6611 20.092 56.0417 20.9746 56.1875 18.0557C56.317 15.4849 58.653 16.3108 60.325 16.0233C59.8311 14.3675 57.7745 12.5012 60.3007 11.1936C62.6285 9.99116 63.1386 12.485 64.2155 13.7967C65.3491 12.4688 65.7985 9.93853 68.3814 11.2907C69.6485 11.9547 69.5433 12.906 68.0615 16.0071Z" fill="url(#paint4_linear_159_39)"/>
<path d="M81.3569 16.0112C80.6848 14.3068 78.8023 12.5093 81.2476 11.2098C83.5673 9.97498 84.1098 12.4324 85.1705 13.7927C86.2919 12.5255 86.798 9.9102 89.1744 11.23C91.5468 12.5498 89.7088 14.3432 89.0003 16.0274C90.7857 16.3027 93.2917 15.4809 93.2269 18.2824C93.1702 20.9624 90.7331 20.1204 89.0813 20.4685C89.6238 22.0798 91.5954 23.8692 89.1704 25.2012C86.7656 26.521 86.2798 23.9097 85.215 22.6264C83.1382 25.5493 82.4216 25.9987 81.1261 25.2376C79.863 24.4927 79.8832 23.6708 81.28 20.4928C79.6525 20.092 77.0331 20.9786 77.1586 18.088C77.2639 15.489 79.5958 16.3067 81.3569 16.0112Z" fill="url(#paint5_linear_159_39)"/>
<path d="M110.761 18.7763C113.076 16.9019 115.307 15.1003 117.534 13.2947C117.967 12.9465 118.388 12.5822 118.837 12.2543C119.999 11.4081 121.157 11.4689 121.942 12.396C122.748 13.3473 122.582 14.6186 121.44 15.574C119.501 17.1934 117.526 18.7682 115.566 20.3633C114.311 21.3835 113.076 22.428 111.789 23.4037C110.469 24.4036 109.364 24.2417 108.413 22.8976C107.275 21.2904 106.178 19.6548 105.113 17.999C104.34 16.7966 104.526 15.6104 105.514 14.9141C106.558 14.1732 107.757 14.4404 108.643 15.6671C109.348 16.6428 109.999 17.6589 110.761 18.7763Z" fill="url(#paint6_linear_159_39)"/>
<defs>
<linearGradient id="paint0_linear_159_39" x1="75.0036" y1="54.511" x2="75.0036" y2="122.373" gradientUnits="userSpaceOnUse">
<stop stop-color="#1CA7FB"/>
<stop offset="1" stop-color="#17FCD7"/>
</linearGradient>
<linearGradient id="paint1_linear_159_39" x1="89.1383" y1="0.36499" x2="89.1383" y2="36.0935" gradientUnits="userSpaceOnUse">
<stop stop-color="#1CA7FB"/>
<stop offset="1" stop-color="#17FCD7"/>
</linearGradient>
<linearGradient id="paint2_linear_159_39" x1="109.723" y1="6.22513" x2="109.723" y2="30.1768" gradientUnits="userSpaceOnUse">
<stop stop-color="#1CA7FB"/>
<stop offset="1" stop-color="#17FCD7"/>
</linearGradient>
<linearGradient id="paint3_linear_159_39" x1="43.2859" y1="10.8655" x2="43.2859" y2="25.5604" gradientUnits="userSpaceOnUse">
<stop stop-color="#1CA7FB"/>
<stop offset="1" stop-color="#17FCD7"/>
</linearGradient>
<linearGradient id="paint4_linear_159_39" x1="64.2229" y1="10.8748" x2="64.2229" y2="25.5893" gradientUnits="userSpaceOnUse">
<stop stop-color="#1CA7FB"/>
<stop offset="1" stop-color="#17FCD7"/>
</linearGradient>
<linearGradient id="paint5_linear_159_39" x1="85.1912" y1="10.8676" x2="85.1912" y2="25.5646" gradientUnits="userSpaceOnUse">
<stop stop-color="#1CA7FB"/>
<stop offset="1" stop-color="#17FCD7"/>
</linearGradient>
<linearGradient id="paint6_linear_159_39" x1="113.539" y1="11.658" x2="113.539" y2="24.0475" gradientUnits="userSpaceOnUse">
<stop stop-color="#1CA7FB"/>
<stop offset="1" stop-color="#17FCD7"/>
</linearGradient>
</defs>
</svg>
