<svg width="132" height="133" viewBox="0 0 132 133" fill="none" xmlns="http://www.w3.org/2000/svg">
<path d="M25.588 70.9065C25.588 65.7152 25.588 60.7002 25.588 55.6068C25.2158 55.5676 24.8632 55.5284 24.491 55.5088C23.1784 55.4109 22.4732 54.7252 22.4536 53.4127C22.434 52.0414 22.4536 50.6701 22.4536 49.1225C20.0832 49.1225 17.85 49.1225 15.6167 49.1225C13.3834 49.1225 12.8153 48.5348 12.7957 46.3211C12.7957 45.1849 12.7957 44.0291 12.7957 42.6774C11.4244 42.6774 10.1511 42.6578 8.87774 42.6774C7.72193 42.7166 6.74243 42.4031 6.46817 41.1494C6.2135 39.974 6.93833 39.3275 7.89824 38.7986C19.8285 32.1967 31.7392 25.5557 43.6695 18.9539C44.649 18.4054 45.1976 17.8177 45.4718 16.6423C47.7051 7.02361 56.403 0.265066 66.2372 0.402196C76.091 0.539326 84.5538 7.35664 86.6108 16.9361C86.8067 17.8373 87.2377 18.327 88.0017 18.7384C99.932 25.3402 111.843 31.9812 123.753 38.6027C124.322 38.9161 124.948 39.2883 125.301 39.7976C126.143 41.0122 125.262 42.5402 123.695 42.6186C122.284 42.697 120.854 42.6382 119.228 42.6382C119.228 43.5785 119.228 44.3817 119.228 45.1653C119.228 48.907 119.052 49.0833 115.232 49.0833C113.567 49.0833 111.882 49.0833 110.217 49.1029C110.08 49.1029 109.942 49.1421 109.57 49.2204C109.57 50.1607 109.57 51.1402 109.57 52.1197C109.57 55.0582 109.374 55.2541 106.455 55.6068C106.455 60.6414 106.455 65.676 106.455 70.8869C109.355 70.8869 112.215 70.9261 115.055 70.8282C115.388 70.8086 115.78 70.0838 115.976 69.6136C117.347 66.44 120.541 64.3243 123.891 64.4614C127.456 64.5986 130.551 66.9298 131.609 70.2797C132.941 74.4915 130.767 78.9972 126.653 80.5644C122.539 82.1316 117.916 80.2314 116.113 76.1762C115.917 75.7453 115.761 75.2947 115.545 74.7854C112.568 74.7854 109.59 74.7854 106.495 74.7854C106.495 79.82 106.495 84.8546 106.495 89.9872C106.691 90.0264 106.906 90.0851 107.121 90.1047C109.061 90.2419 109.57 90.7316 109.57 92.6514C109.57 97.6077 109.57 102.584 109.57 107.54C109.57 108.069 109.57 108.578 109.57 109.225C111.568 109.225 113.508 109.225 115.526 109.225C115.702 108.813 115.878 108.343 116.094 107.873C117.72 104.229 121.657 102.251 125.536 103.132C129.258 103.955 131.962 107.363 131.981 111.223C132.001 115.082 129.297 118.53 125.595 119.353C121.677 120.234 117.661 118.353 116.172 114.671C115.624 113.319 114.938 113.005 113.645 113.123C112.548 113.221 111.451 113.143 110.354 113.143C105.77 113.143 105.77 113.143 105.77 108.617C105.77 108.049 105.77 107.501 105.77 106.854C95.2304 106.854 84.8673 106.854 74.4062 106.854C74.4062 111.908 74.4062 116.904 74.4062 122.017C74.7589 122.056 75.1115 122.134 75.4641 122.134C76.9921 122.154 78.5201 122.056 80.0481 122.154C82.1247 122.311 83.5743 122.076 84.6714 119.725C86.2582 116.277 90.5092 114.945 94.1333 116.101C97.7967 117.276 100.206 120.783 99.932 124.524C99.6381 128.384 96.8564 131.577 93.193 132.223C89.3338 132.909 85.5333 130.969 84.0837 127.365C83.5939 126.131 82.9671 125.876 81.7917 125.915C78.9707 125.994 76.1497 125.935 73.3484 125.935C71.0172 125.935 70.5274 125.445 70.5274 123.055C70.5274 118.177 70.5274 113.319 70.5274 108.441C70.5274 107.932 70.5274 107.403 70.5274 106.815C67.491 106.815 64.6112 106.815 61.516 106.815C61.516 107.324 61.516 107.834 61.516 108.343C61.516 113.299 61.516 118.275 61.516 123.231C61.516 125.386 60.9675 125.915 58.8126 125.935C55.7957 125.935 52.7985 125.974 49.7816 125.915C48.9197 125.896 48.4691 126.092 48.1165 126.993C46.608 130.93 42.5137 133.066 38.5174 132.125C34.5406 131.185 31.7784 127.463 32.0919 123.466C32.4249 119.215 35.6181 116.042 39.8887 115.689C43.2973 115.415 46.706 117.492 48.0185 120.861C48.4299 121.919 48.9588 122.174 49.9971 122.154C52.5046 122.076 55.0317 122.134 57.6176 122.134C57.6176 116.963 57.6176 111.967 57.6176 106.854C47.2349 106.854 36.8522 106.854 26.2541 106.854C26.2541 108.128 26.2736 109.46 26.2541 110.772C26.2345 112.496 25.6468 113.103 23.9228 113.123C21.9638 113.143 20.0048 113.182 18.0458 113.103C16.9684 113.064 16.4003 113.299 15.9497 114.435C14.4805 118.138 10.7388 120.077 6.78161 119.392C3.0791 118.745 0.238556 115.513 0.0426559 111.712C-0.153244 107.716 2.27591 104.288 6.09596 103.21C10.1511 102.055 14.4609 104.151 16.0085 108.167C16.3807 109.107 16.7921 109.401 17.752 109.342C19.2212 109.264 20.7101 109.322 22.4144 109.322C22.4144 108.754 22.4144 108.265 22.4144 107.755C22.4144 103.034 22.4144 98.2933 22.4144 93.5721C22.4144 90.4769 22.4536 90.4182 25.5292 89.948C25.5292 84.9134 25.5292 79.8787 25.5292 74.7658C22.4928 74.7658 19.5151 74.7658 16.4395 74.7658C15.5579 77.5867 13.8144 79.6828 10.9347 80.6623C6.72284 82.0924 2.0996 79.8787 0.532405 75.7061C-1.05438 71.4942 1.02215 66.7339 5.21441 65.0491C9.3479 63.3644 14.1279 65.245 15.8518 69.3981C16.3807 70.6519 17.0076 70.9653 18.2613 70.9261C20.6513 70.8282 23.0413 70.9065 25.588 70.9065ZM42.3766 55.5872C42.3766 67.1061 42.3766 78.5466 42.3766 89.948C45.4914 90.4573 45.4914 90.4573 45.4914 93.7289C45.4914 94.6104 45.4914 95.492 45.4914 96.4127C47.5092 96.4127 49.3115 96.4127 51.29 96.4127C51.29 95.7858 51.29 95.2177 51.29 94.6692C51.29 83.7772 51.29 72.9047 51.29 62.0127C51.29 58.1143 51.3488 58.0555 55.1689 58.0555C62.6522 58.0555 70.1552 58.0555 77.6386 58.0555C80.3224 58.0555 80.7338 58.4473 80.7338 61.092C80.7338 72.317 80.7338 83.5225 80.7338 94.7475C80.7338 95.2961 80.7338 95.8446 80.7338 96.4715C82.5361 96.4715 84.1033 96.4715 85.6901 96.4715C85.9251 96.4715 86.1406 96.4127 86.5324 96.3735C86.5324 95.0218 86.5128 93.6897 86.5324 92.3576C86.5716 90.7904 87.1201 90.2223 88.6677 90.1047C88.9812 90.0851 89.2946 90.0264 89.6472 89.9872C89.6472 78.4487 89.6472 67.0277 89.6472 55.6068C86.6304 55.2346 86.5128 55.0974 86.5128 51.9826C86.5128 51.0619 86.5128 50.1216 86.5128 49.1617C72.7215 49.1617 59.1848 49.1617 45.4718 49.1617C45.4718 50.2195 45.4718 51.2186 45.4718 52.1981C45.4914 55.0582 45.2367 55.3325 42.3766 55.5872ZM55.2276 61.9539C55.2276 73.5512 55.2276 84.9721 55.2276 96.3931C62.4955 96.3931 69.6655 96.3931 76.8158 96.3931C76.8158 84.8546 76.8158 73.4336 76.8158 61.9539C69.5675 61.9539 62.4367 61.9539 55.2276 61.9539ZM48.7434 21.5006C48.7238 31.0213 56.501 38.8377 66.0021 38.8573C75.5033 38.8573 83.3001 31.0801 83.3001 21.5594C83.3001 11.9799 75.6012 4.26142 66.0413 4.24183C56.4814 4.22224 48.7629 11.9211 48.7434 21.5006ZM44.8645 22.6564C35.2067 28.0241 25.7643 33.2742 16.3219 38.5243C16.3611 38.6027 16.4199 38.681 16.4591 38.7398C28.7616 38.7398 41.0837 38.7398 53.6996 38.7398C48.3711 34.6063 45.4914 29.3954 44.8645 22.6564ZM87.1789 22.676C86.552 29.3366 83.6919 34.6259 78.3634 38.7202C90.9794 38.7202 103.301 38.7202 115.624 38.7202C115.643 38.6418 115.663 38.5635 115.682 38.5047C106.22 33.2546 96.7976 28.0045 87.1789 22.676ZM16.7725 45.1261C49.6837 45.1261 82.4381 45.1261 115.232 45.1261C115.232 44.2838 115.232 43.5589 115.232 42.7361C82.3794 42.7361 49.6053 42.7361 16.7725 42.7361C16.7725 43.5589 16.7725 44.3033 16.7725 45.1261ZM26.3324 102.838C52.8181 102.838 79.2254 102.838 105.672 102.838C105.672 101.996 105.672 101.251 105.672 100.507C79.1666 100.507 52.7789 100.507 26.3324 100.507C26.3324 101.33 26.3324 102.035 26.3324 102.838ZM38.3802 90.0459C38.3802 78.4487 38.3802 67.0277 38.3802 55.5676C37.5379 55.5676 36.7935 55.5676 35.9903 55.5676C35.9903 67.0865 35.9903 78.5466 35.9903 90.0459C36.8326 90.0459 37.5771 90.0459 38.3802 90.0459ZM93.6632 55.548C93.6632 67.1453 93.6632 78.6054 93.6632 90.0264C94.5251 90.0264 95.2696 90.0264 95.9944 90.0264C95.9944 78.4683 95.9944 67.0081 95.9944 55.548C95.1716 55.548 94.4664 55.548 93.6632 55.548ZM102.42 90.0264C102.42 78.4879 102.42 67.0473 102.42 55.5872C101.578 55.5872 100.833 55.5872 100.108 55.5872C100.108 67.1257 100.108 78.5662 100.108 90.0264C100.951 90.0264 101.656 90.0264 102.42 90.0264ZM29.6235 55.548C29.6235 67.1257 29.6235 78.5662 29.6235 90.0264C30.4659 90.0264 31.1515 90.0264 31.9351 90.0264C31.9351 78.4879 31.9351 67.0473 31.9351 55.548C31.132 55.548 30.4267 55.548 29.6235 55.548ZM119.228 72.7676C119.228 75.2359 121.187 77.2341 123.616 77.2733C126.104 77.2929 128.181 75.2163 128.161 72.748C128.142 70.2992 126.124 68.3402 123.675 68.3402C121.187 68.3402 119.248 70.2992 119.228 72.7676ZM12.7957 72.7872C12.7957 70.2992 10.8367 68.3598 8.34881 68.3598C5.90006 68.3598 3.88229 70.3384 3.8627 72.7676C3.84311 75.2359 5.91965 77.3125 8.40758 77.2929C10.8367 77.2537 12.7957 75.2359 12.7957 72.7872ZM35.9119 124.054C35.9119 126.503 37.8905 128.521 40.3197 128.56C42.8076 128.599 44.8449 126.542 44.8449 124.035C44.8254 121.566 42.8468 119.627 40.3784 119.627C37.9101 119.627 35.9315 121.586 35.9119 124.054ZM96.1119 124.093C96.1315 121.625 94.1725 119.646 91.7042 119.607C89.2163 119.588 87.2181 121.507 87.1985 123.976C87.1593 126.483 89.1771 128.56 91.665 128.56C94.0746 128.54 96.0923 126.522 96.1119 124.093ZM123.675 115.709C126.124 115.709 128.142 113.73 128.161 111.301C128.181 108.833 126.104 106.756 123.616 106.795C121.168 106.815 119.209 108.833 119.228 111.301C119.248 113.75 121.207 115.709 123.675 115.709ZM12.7957 111.281C12.8153 108.813 10.8563 106.815 8.40758 106.795C5.91965 106.776 3.84311 108.833 3.8627 111.301C3.88229 113.73 5.90006 115.709 8.34881 115.709C10.8367 115.709 12.7761 113.75 12.7957 111.281ZM90.3917 96.4127C95.5634 96.4127 100.598 96.4127 105.633 96.4127C105.633 95.5507 105.633 94.7867 105.633 94.0619C100.48 94.0619 95.4459 94.0619 90.3917 94.0619C90.3917 94.8651 90.3917 95.5703 90.3917 96.4127ZM26.3128 96.4127C31.4846 96.4127 36.5192 96.4127 41.5538 96.4127C41.5538 95.5507 41.5538 94.7867 41.5538 94.0423C36.4213 94.0423 31.3866 94.0423 26.3128 94.0423C26.3128 94.8651 26.3128 95.5703 26.3128 96.4127ZM26.3324 51.4929C31.4846 51.4929 36.5584 51.4929 41.5734 51.4929C41.5734 50.6309 41.5734 49.9257 41.5734 49.24C36.4408 49.24 31.3866 49.24 26.3324 49.24C26.3324 50.0628 26.3324 50.768 26.3324 51.4929ZM105.691 49.2204C100.5 49.2204 95.4655 49.2204 90.47 49.2204C90.47 50.0824 90.47 50.8072 90.47 51.532C95.6026 51.532 100.637 51.532 105.691 51.532C105.691 50.7093 105.691 50.0236 105.691 49.2204Z" fill="url(#paint0_linear_159_87)"/>
<path d="M14.8129 100.331C13.755 100.37 12.8735 99.547 12.8343 98.4891C12.7951 97.4704 13.6571 96.5497 14.6758 96.5105C15.6944 96.4714 16.6347 97.3529 16.6739 98.3716C16.7131 99.3903 15.8512 100.291 14.8129 100.331Z" fill="url(#paint1_linear_159_87)"/>
<path d="M16.6749 85.5991C16.6945 86.6178 15.7934 87.5385 14.7747 87.5385C13.756 87.5581 12.8549 86.6765 12.8353 85.6383C12.8157 84.6 13.6777 83.7184 14.7159 83.6989C15.7738 83.6989 16.6553 84.5608 16.6749 85.5991Z" fill="url(#paint2_linear_159_87)"/>
<path d="M119.189 98.5676C119.111 99.6254 118.19 100.389 117.132 100.311C116.094 100.233 115.271 99.2924 115.369 98.2737C115.467 97.255 116.427 96.4127 117.426 96.5106C118.445 96.6086 119.268 97.5685 119.189 98.5676Z" fill="url(#paint3_linear_159_87)"/>
<path d="M117.328 87.5385C116.328 87.5776 115.388 86.6961 115.349 85.6774C115.31 84.6587 116.172 83.738 117.21 83.6988C118.248 83.6596 119.149 84.502 119.189 85.5403C119.228 86.5785 118.366 87.4993 117.328 87.5385Z" fill="url(#paint4_linear_159_87)"/>
<path d="M23.0606 60.0341C23.0214 61.1116 22.1986 61.8756 21.1016 61.856C20.0241 61.8364 19.2405 60.994 19.2797 59.9166C19.3189 58.8391 20.1613 58.036 21.2191 58.0751C22.277 58.1143 23.0802 58.9763 23.0606 60.0341Z" fill="url(#paint5_linear_159_87)"/>
<path d="M117.268 61.856C116.211 61.856 115.349 61.0136 115.349 59.9753C115.349 58.9567 116.23 58.0751 117.268 58.0751C118.307 58.0751 119.188 58.9371 119.188 59.9753C119.188 61.0136 118.326 61.856 117.268 61.856Z" fill="url(#paint6_linear_159_87)"/>
<path d="M98.0696 109.362C99.1275 109.362 99.9698 110.224 99.9503 111.262C99.9503 112.32 99.0883 113.143 98.0304 113.123C96.9726 113.103 96.1106 112.261 96.1302 111.223C96.1302 110.204 97.0313 109.342 98.0696 109.362Z" fill="url(#paint7_linear_159_87)"/>
<path d="M78.8911 113.123C77.8136 113.162 76.9517 112.378 76.9125 111.321C76.8733 110.282 77.6961 109.401 78.7343 109.362C79.7922 109.322 80.6542 110.106 80.6933 111.184C80.7521 112.261 79.9685 113.084 78.8911 113.123Z" fill="url(#paint8_linear_159_87)"/>
<path d="M55.1094 111.184C55.1485 112.222 54.3258 113.084 53.2679 113.123C52.1904 113.162 51.3481 112.379 51.3285 111.301C51.3089 110.224 52.0925 109.381 53.1504 109.362C54.1886 109.322 55.0702 110.165 55.1094 111.184Z" fill="url(#paint9_linear_159_87)"/>
<path d="M16.6749 59.9361C16.6945 60.9548 15.8326 61.8364 14.7943 61.856C13.7364 61.8756 12.8549 61.0724 12.8353 60.0145C12.8157 58.9958 13.6777 58.0947 14.7159 58.0751C15.7346 58.0555 16.6553 58.9175 16.6749 59.9361Z" fill="url(#paint10_linear_159_87)"/>
<path d="M112.743 85.5403C112.782 86.5981 111.979 87.4797 110.941 87.5385C109.922 87.5776 109.021 86.7157 108.982 85.697C108.943 84.6392 109.765 83.7576 110.804 83.7184C111.842 83.6596 112.704 84.4824 112.743 85.5403Z" fill="url(#paint11_linear_159_87)"/>
<path d="M21.2004 87.5385C20.1818 87.5776 19.3002 86.7157 19.2806 85.6578C19.261 84.6 20.0642 83.7184 21.1025 83.6988C22.1408 83.6792 23.0223 84.5216 23.0419 85.5599C23.0811 86.5981 22.2191 87.4993 21.2004 87.5385Z" fill="url(#paint12_linear_159_87)"/>
<path d="M35.8917 111.301C35.8525 112.339 34.9906 113.142 33.9131 113.123C32.8553 113.103 32.0325 112.241 32.0717 111.183C32.0912 110.126 32.9728 109.322 34.0307 109.342C35.0689 109.381 35.9309 110.282 35.8917 111.301Z" fill="url(#paint13_linear_159_87)"/>
<path d="M40.4368 113.123C39.3594 113.142 38.5366 112.359 38.4974 111.281C38.4778 110.204 39.2614 109.362 40.3389 109.342C41.4163 109.322 42.2391 110.106 42.2783 111.183C42.2979 112.281 41.5143 113.103 40.4368 113.123Z" fill="url(#paint14_linear_159_87)"/>
<path d="M46.804 109.362C47.8423 109.362 48.7042 110.243 48.7042 111.281C48.6846 112.32 47.8227 113.162 46.7648 113.143C45.707 113.123 44.845 112.281 44.8646 111.242C44.8842 110.204 45.7657 109.342 46.804 109.362Z" fill="url(#paint15_linear_159_87)"/>
<path d="M85.2404 113.123C84.1825 113.123 83.3206 112.281 83.3402 111.242C83.3402 110.204 84.2217 109.362 85.26 109.362C86.2983 109.362 87.1798 110.243 87.1798 111.262C87.1602 112.281 86.2787 113.123 85.2404 113.123Z" fill="url(#paint16_linear_159_87)"/>
<path d="M91.6251 109.362C92.6829 109.342 93.5253 110.165 93.5449 111.223C93.5645 112.3 92.7613 113.123 91.6838 113.143C90.6064 113.162 89.7836 112.359 89.7836 111.281C89.7444 110.204 90.5476 109.362 91.6251 109.362Z" fill="url(#paint17_linear_159_87)"/>
<path d="M55.1104 117.707C55.0712 118.726 54.17 119.588 53.1514 119.568C52.0935 119.529 51.2903 118.667 51.3295 117.589C51.3491 116.532 52.2306 115.689 53.2689 115.728C54.268 115.768 55.1495 116.708 55.1104 117.707Z" fill="url(#paint18_linear_159_87)"/>
<path d="M80.6953 117.629C80.7149 118.686 79.8921 119.548 78.8343 119.568C77.8156 119.588 76.9144 118.706 76.8949 117.668C76.8753 116.649 77.7568 115.728 78.7755 115.728C79.8333 115.709 80.6953 116.571 80.6953 117.629Z" fill="url(#paint19_linear_159_87)"/>
<path d="M119.189 53.6281C119.169 54.6468 118.248 55.5087 117.23 55.4892C116.211 55.4696 115.329 54.5488 115.349 53.5302C115.369 52.4919 116.25 51.6691 117.308 51.6887C118.385 51.7083 119.228 52.5898 119.189 53.6281Z" fill="url(#paint20_linear_159_87)"/>
<path d="M112.745 59.9557C112.745 61.0332 111.961 61.856 110.884 61.856C109.806 61.856 108.983 61.0528 108.983 59.9949C108.983 58.9371 109.806 58.0947 110.864 58.0751C111.922 58.0751 112.745 58.8783 112.745 59.9557Z" fill="url(#paint21_linear_159_87)"/>
<path d="M16.6756 92.0245C16.6756 93.0432 15.7745 93.9051 14.7362 93.9051C13.698 93.9051 12.8164 93.0432 12.8164 92.0049C12.8164 90.9862 13.698 90.1243 14.7362 90.1243C15.7941 90.1439 16.6756 91.0058 16.6756 92.0245Z" fill="url(#paint22_linear_159_87)"/>
<path d="M117.308 93.9051C116.27 93.9247 115.369 93.0823 115.349 92.0637C115.329 91.045 116.172 90.1634 117.23 90.1438C118.287 90.1242 119.169 90.947 119.189 91.9853C119.208 93.004 118.366 93.8855 117.308 93.9051Z" fill="url(#paint23_linear_159_87)"/>
<path d="M123.735 55.4892C122.696 55.5284 121.834 54.686 121.795 53.6281C121.776 52.5507 122.559 51.7279 123.637 51.6887C124.714 51.6691 125.557 52.4527 125.596 53.5106C125.615 54.5489 124.753 55.45 123.735 55.4892Z" fill="url(#paint24_linear_159_87)"/>
<path d="M10.2294 53.6281C10.1902 54.686 9.32828 55.5088 8.29001 55.4696C7.27133 55.4304 6.40937 54.5293 6.44855 53.491C6.48773 52.4331 7.3301 51.6495 8.40755 51.6691C9.46541 51.7279 10.249 52.5507 10.2294 53.6281Z" fill="url(#paint25_linear_159_87)"/>
<path d="M16.6749 53.6085C16.6553 54.6272 15.7346 55.4892 14.7159 55.4696C13.6972 55.45 12.8157 54.5488 12.8353 53.5302C12.8549 52.4723 13.7168 51.6691 14.7943 51.6887C15.8521 51.7083 16.6945 52.5898 16.6749 53.6085Z" fill="url(#paint26_linear_159_87)"/>
<path d="M10.2101 98.5873C10.1317 99.6451 9.2306 100.409 8.17274 100.331C7.13447 100.252 6.35087 99.3317 6.42923 98.2934C6.50759 97.2747 7.48709 96.452 8.48618 96.5303C9.54404 96.6087 10.2885 97.5098 10.2101 98.5873Z" fill="url(#paint27_linear_159_87)"/>
<path d="M121.815 98.4696C121.795 97.3922 122.598 96.5302 123.656 96.5106C124.655 96.491 125.576 97.3726 125.596 98.3913C125.615 99.4295 124.773 100.311 123.735 100.331C122.657 100.35 121.815 99.5275 121.815 98.4696Z" fill="url(#paint28_linear_159_87)"/>
<path d="M67.9219 66.3617C67.9415 67.3803 67.06 68.3011 66.0413 68.3011C65.0226 68.3207 64.1019 67.4391 64.1019 66.4204C64.0823 65.4018 64.9638 64.481 65.9825 64.481C67.0012 64.4418 67.9023 65.3234 67.9219 66.3617Z" fill="url(#paint29_linear_159_87)"/>
<path d="M67.921 85.6578C67.8818 86.6765 66.9611 87.5581 65.9424 87.5189C64.9237 87.4797 64.0422 86.559 64.0813 85.5403C64.1009 84.502 65.0217 83.6596 66.0403 83.6792C67.0982 83.738 67.9602 84.6391 67.921 85.6578Z" fill="url(#paint30_linear_159_87)"/>
<path d="M59.5576 74.707C58.5193 74.6874 57.677 73.8059 57.7162 72.7676C57.7357 71.7097 58.5781 70.9065 59.6556 70.9261C60.733 70.9457 61.5166 71.7685 61.497 72.8459C61.4578 73.9234 60.6155 74.7266 59.5576 74.707Z" fill="url(#paint31_linear_159_87)"/>
<path d="M72.4079 74.707C71.3501 74.707 70.5469 73.8646 70.5469 72.7872C70.5469 71.7097 71.3697 70.9065 72.4471 70.9261C73.5246 70.9457 74.3473 71.7685 74.3277 72.8264C74.3082 73.8646 73.4462 74.707 72.4079 74.707Z" fill="url(#paint32_linear_159_87)"/>
<path d="M72.4275 93.9052C71.3501 93.9052 70.5469 93.102 70.5469 92.0246C70.5469 90.9471 71.3501 90.1439 72.4275 90.1439C73.505 90.1439 74.3277 90.9667 74.3277 92.0246C74.3277 93.0824 73.4854 93.9052 72.4275 93.9052Z" fill="url(#paint33_linear_159_87)"/>
<path d="M59.5968 90.1439C60.6742 90.1439 61.4774 90.9471 61.497 92.0246C61.497 93.102 60.6938 93.9248 59.6164 93.9248C58.5585 93.9248 57.7162 93.102 57.7162 92.0441C57.6966 90.9667 58.5194 90.1439 59.5968 90.1439Z" fill="url(#paint34_linear_159_87)"/>
<path d="M72.3691 83.6988C73.4074 83.6596 74.289 84.502 74.3281 85.5403C74.3673 86.559 73.5054 87.4797 72.4867 87.5189C71.468 87.5581 70.5865 86.7157 70.5473 85.6578C70.5081 84.6 71.3113 83.738 72.3691 83.6988Z" fill="url(#paint35_linear_159_87)"/>
<path d="M61.4781 85.6187C61.4781 86.6765 60.6162 87.5385 59.5975 87.5385C58.5788 87.5385 57.6973 86.6373 57.6973 85.6187C57.6973 84.5804 58.5592 83.6989 59.5975 83.6989C60.6554 83.6989 61.4781 84.5608 61.4781 85.6187Z" fill="url(#paint36_linear_159_87)"/>
<path d="M72.3691 77.2928C73.4074 77.2732 74.2889 78.1156 74.3085 79.1539C74.3281 80.2117 73.5249 81.0541 72.4671 81.0933C71.3896 81.1129 70.5668 80.3293 70.5472 79.2518C70.5276 78.1548 71.3112 77.3124 72.3691 77.2928Z" fill="url(#paint37_linear_159_87)"/>
<path d="M64.0833 79.1734C64.1029 78.1548 65.0237 77.2732 66.0227 77.2928C67.0414 77.3124 67.923 78.2135 67.923 79.2322C67.9034 80.2705 67.0414 81.0933 65.9836 81.0933C64.9257 81.0737 64.0637 80.2117 64.0833 79.1734Z" fill="url(#paint38_linear_159_87)"/>
<path d="M59.5752 77.2928C60.6135 77.2732 61.4754 78.096 61.495 79.1735C61.5146 80.2509 60.7114 81.0737 59.6536 81.0933C58.5761 81.1129 57.7337 80.3097 57.7337 79.2322C57.6946 78.194 58.5369 77.3124 59.5752 77.2928Z" fill="url(#paint39_linear_159_87)"/>
<path d="M67.9405 72.7676C67.9601 73.7863 67.0786 74.6678 66.0403 74.6874C65.0216 74.707 64.1009 73.8254 64.1009 72.8068C64.0617 71.7881 64.9237 70.9261 65.9815 70.9261C67.0394 70.9065 67.9209 71.7489 67.9405 72.7676Z" fill="url(#paint40_linear_159_87)"/>
<path d="M74.3281 66.3421C74.3477 67.3804 73.5053 68.2815 72.4866 68.3207C71.468 68.3599 70.5864 67.4979 70.5472 66.4596C70.5276 65.3822 71.3308 64.5202 72.3691 64.4811C73.3878 64.4419 74.2889 65.3038 74.3281 66.3421Z" fill="url(#paint41_linear_159_87)"/>
<path d="M61.4774 66.4008C61.4774 67.4587 60.6155 68.3206 59.5968 68.3206C58.5781 68.3206 57.6966 67.4195 57.7161 66.3812C57.7161 65.343 58.5977 64.4614 59.6164 64.4614C60.635 64.4614 61.4774 65.343 61.4774 66.4008Z" fill="url(#paint42_linear_159_87)"/>
<path d="M67.9415 92.0441C67.9219 93.0628 67.0404 93.9248 66.0021 93.9052C64.9638 93.8856 64.0823 93.0236 64.1019 92.005C64.1215 90.9863 65.003 90.1439 66.0413 90.1439C67.0796 90.1439 67.9415 91.0255 67.9415 92.0441Z" fill="url(#paint43_linear_159_87)"/>
<path d="M73.7211 20.815C75.7585 23.1462 76.3854 25.7125 74.7006 28.3375C73.9758 29.4542 72.6633 30.2769 71.4487 30.9626C70.763 31.3544 70.4104 31.6286 70.4888 32.4122C70.528 32.8432 70.5084 33.2742 70.43 33.6856C70.2341 34.7239 69.5876 35.292 68.5298 35.2724C67.4719 35.2724 66.8255 34.6455 66.6687 33.6268C66.5708 32.9803 66.6491 32.2947 66.6491 31.5895C65.9439 31.2956 65.4542 31.1193 65.3562 32.1576C65.1211 34.6259 64.651 35.3311 63.3384 35.2724C62.0063 35.2136 61.5558 34.4104 61.4578 32.0009C61.4578 31.8637 61.4186 31.7266 61.3599 31.374C60.5371 31.374 59.6947 31.3936 58.8719 31.374C57.2655 31.3544 56.4036 30.6491 56.4232 29.3954C56.4428 28.22 57.2655 27.5343 58.7936 27.4756C59.2245 27.456 59.6555 27.4756 60.1845 27.4756C60.1845 23.5184 60.1845 19.6396 60.1845 15.604C59.5772 15.5649 58.9307 15.5649 58.2842 15.4865C57.1088 15.369 56.4036 14.7029 56.4428 13.5275C56.4819 12.3521 57.2264 11.7252 58.3822 11.6665C59.3225 11.6273 60.2824 11.6665 61.4774 11.6665C61.4774 10.9416 61.4382 10.3147 61.4774 9.66827C61.5753 8.51246 62.2022 7.74845 63.3776 7.74845C64.553 7.72886 65.1799 8.47328 65.317 9.62909C65.3562 10.0013 65.3562 10.3931 65.3366 10.7653C65.2778 11.7056 65.748 11.784 66.61 11.4901C66.61 10.8241 66.5512 10.158 66.6296 9.51155C66.7471 8.41451 67.4132 7.72886 68.5102 7.72886C69.6072 7.70927 70.4692 8.39492 70.3908 9.47237C70.2537 11.1963 71.0177 11.9799 72.4086 12.8418C75.0728 14.507 75.4646 17.563 73.7211 20.815ZM64.22 27.456C66.179 27.456 67.9813 27.5147 69.764 27.4364C70.9589 27.3776 71.6446 26.594 71.723 25.3794C71.8013 24.2432 71.194 23.2833 70.1166 23.1854C68.1576 23.009 66.1986 23.1266 64.2004 23.1266C64.22 24.6546 64.22 25.9671 64.22 27.456ZM64.2788 19.1694C66.0027 19.1694 67.6482 19.2282 69.2938 19.1498C70.3517 19.0911 70.9394 18.425 70.9394 17.3671C70.9394 16.2897 70.3321 15.702 69.2938 15.604C68.6277 15.5453 67.9617 15.5649 67.2956 15.5649C63.9261 15.5453 63.9261 15.5453 64.2788 19.1694Z" fill="url(#paint44_linear_159_87)"/>
<defs>
<linearGradient id="paint0_linear_159_87" x1="66" y1="0.400146" x2="66" y2="132.36" gradientUnits="userSpaceOnUse">
<stop stop-color="#1CA7FB"/>
<stop offset="1" stop-color="#17FCD7"/>
</linearGradient>
<linearGradient id="paint1_linear_159_87" x1="14.7541" y1="96.5093" x2="14.7541" y2="100.332" gradientUnits="userSpaceOnUse">
<stop stop-color="#1CA7FB"/>
<stop offset="1" stop-color="#17FCD7"/>
</linearGradient>
<linearGradient id="paint2_linear_159_87" x1="14.7551" y1="83.6989" x2="14.7551" y2="87.5388" gradientUnits="userSpaceOnUse">
<stop stop-color="#1CA7FB"/>
<stop offset="1" stop-color="#17FCD7"/>
</linearGradient>
<linearGradient id="paint3_linear_159_87" x1="117.278" y1="96.5029" x2="117.278" y2="100.317" gradientUnits="userSpaceOnUse">
<stop stop-color="#1CA7FB"/>
<stop offset="1" stop-color="#17FCD7"/>
</linearGradient>
<linearGradient id="paint4_linear_159_87" x1="117.269" y1="83.6975" x2="117.269" y2="87.5397" gradientUnits="userSpaceOnUse">
<stop stop-color="#1CA7FB"/>
<stop offset="1" stop-color="#17FCD7"/>
</linearGradient>
<linearGradient id="paint5_linear_159_87" x1="21.1696" y1="58.0738" x2="21.1696" y2="61.8564" gradientUnits="userSpaceOnUse">
<stop stop-color="#1CA7FB"/>
<stop offset="1" stop-color="#17FCD7"/>
</linearGradient>
<linearGradient id="paint6_linear_159_87" x1="117.268" y1="58.0751" x2="117.268" y2="61.856" gradientUnits="userSpaceOnUse">
<stop stop-color="#1CA7FB"/>
<stop offset="1" stop-color="#17FCD7"/>
</linearGradient>
<linearGradient id="paint7_linear_159_87" x1="98.0402" y1="109.361" x2="98.0402" y2="113.123" gradientUnits="userSpaceOnUse">
<stop stop-color="#1CA7FB"/>
<stop offset="1" stop-color="#17FCD7"/>
</linearGradient>
<linearGradient id="paint8_linear_159_87" x1="78.8038" y1="109.36" x2="78.8038" y2="113.124" gradientUnits="userSpaceOnUse">
<stop stop-color="#1CA7FB"/>
<stop offset="1" stop-color="#17FCD7"/>
</linearGradient>
<linearGradient id="paint9_linear_159_87" x1="53.2194" y1="109.36" x2="53.2194" y2="113.124" gradientUnits="userSpaceOnUse">
<stop stop-color="#1CA7FB"/>
<stop offset="1" stop-color="#17FCD7"/>
</linearGradient>
<linearGradient id="paint10_linear_159_87" x1="14.7551" y1="58.0748" x2="14.7551" y2="61.8563" gradientUnits="userSpaceOnUse">
<stop stop-color="#1CA7FB"/>
<stop offset="1" stop-color="#17FCD7"/>
</linearGradient>
<linearGradient id="paint11_linear_159_87" x1="110.862" y1="83.7155" x2="110.862" y2="87.5398" gradientUnits="userSpaceOnUse">
<stop stop-color="#1CA7FB"/>
<stop offset="1" stop-color="#17FCD7"/>
</linearGradient>
<linearGradient id="paint12_linear_159_87" x1="21.1617" y1="83.6985" x2="21.1617" y2="87.5397" gradientUnits="userSpaceOnUse">
<stop stop-color="#1CA7FB"/>
<stop offset="1" stop-color="#17FCD7"/>
</linearGradient>
<linearGradient id="paint13_linear_159_87" x1="33.9816" y1="109.342" x2="33.9816" y2="113.123" gradientUnits="userSpaceOnUse">
<stop stop-color="#1CA7FB"/>
<stop offset="1" stop-color="#17FCD7"/>
</linearGradient>
<linearGradient id="paint14_linear_159_87" x1="40.3879" y1="109.342" x2="40.3879" y2="113.123" gradientUnits="userSpaceOnUse">
<stop stop-color="#1CA7FB"/>
<stop offset="1" stop-color="#17FCD7"/>
</linearGradient>
<linearGradient id="paint15_linear_159_87" x1="46.7842" y1="109.361" x2="46.7842" y2="113.143" gradientUnits="userSpaceOnUse">
<stop stop-color="#1CA7FB"/>
<stop offset="1" stop-color="#17FCD7"/>
</linearGradient>
<linearGradient id="paint16_linear_159_87" x1="85.2598" y1="109.362" x2="85.2598" y2="113.123" gradientUnits="userSpaceOnUse">
<stop stop-color="#1CA7FB"/>
<stop offset="1" stop-color="#17FCD7"/>
</linearGradient>
<linearGradient id="paint17_linear_159_87" x1="91.6637" y1="109.361" x2="91.6637" y2="113.143" gradientUnits="userSpaceOnUse">
<stop stop-color="#1CA7FB"/>
<stop offset="1" stop-color="#17FCD7"/>
</linearGradient>
<linearGradient id="paint18_linear_159_87" x1="53.2199" y1="115.727" x2="53.2199" y2="119.568" gradientUnits="userSpaceOnUse">
<stop stop-color="#1CA7FB"/>
<stop offset="1" stop-color="#17FCD7"/>
</linearGradient>
<linearGradient id="paint19_linear_159_87" x1="78.7951" y1="115.728" x2="78.7951" y2="119.568" gradientUnits="userSpaceOnUse">
<stop stop-color="#1CA7FB"/>
<stop offset="1" stop-color="#17FCD7"/>
</linearGradient>
<linearGradient id="paint20_linear_159_87" x1="117.269" y1="51.6884" x2="117.269" y2="55.4895" gradientUnits="userSpaceOnUse">
<stop stop-color="#1CA7FB"/>
<stop offset="1" stop-color="#17FCD7"/>
</linearGradient>
<linearGradient id="paint21_linear_159_87" x1="110.864" y1="58.0751" x2="110.864" y2="61.856" gradientUnits="userSpaceOnUse">
<stop stop-color="#1CA7FB"/>
<stop offset="1" stop-color="#17FCD7"/>
</linearGradient>
<linearGradient id="paint22_linear_159_87" x1="14.746" y1="90.1243" x2="14.746" y2="93.9051" gradientUnits="userSpaceOnUse">
<stop stop-color="#1CA7FB"/>
<stop offset="1" stop-color="#17FCD7"/>
</linearGradient>
<linearGradient id="paint23_linear_159_87" x1="117.269" y1="90.1435" x2="117.269" y2="93.9054" gradientUnits="userSpaceOnUse">
<stop stop-color="#1CA7FB"/>
<stop offset="1" stop-color="#17FCD7"/>
</linearGradient>
<linearGradient id="paint24_linear_159_87" x1="123.695" y1="51.6884" x2="123.695" y2="55.4905" gradientUnits="userSpaceOnUse">
<stop stop-color="#1CA7FB"/>
<stop offset="1" stop-color="#17FCD7"/>
</linearGradient>
<linearGradient id="paint25_linear_159_87" x1="8.33852" y1="51.6688" x2="8.33852" y2="55.4709" gradientUnits="userSpaceOnUse">
<stop stop-color="#1CA7FB"/>
<stop offset="1" stop-color="#17FCD7"/>
</linearGradient>
<linearGradient id="paint26_linear_159_87" x1="14.7551" y1="51.6884" x2="14.7551" y2="55.4699" gradientUnits="userSpaceOnUse">
<stop stop-color="#1CA7FB"/>
<stop offset="1" stop-color="#17FCD7"/>
</linearGradient>
<linearGradient id="paint27_linear_159_87" x1="8.31979" y1="96.5251" x2="8.31979" y2="100.336" gradientUnits="userSpaceOnUse">
<stop stop-color="#1CA7FB"/>
<stop offset="1" stop-color="#17FCD7"/>
</linearGradient>
<linearGradient id="paint28_linear_159_87" x1="123.705" y1="96.5103" x2="123.705" y2="100.331" gradientUnits="userSpaceOnUse">
<stop stop-color="#1CA7FB"/>
<stop offset="1" stop-color="#17FCD7"/>
</linearGradient>
<linearGradient id="paint29_linear_159_87" x1="66.0119" y1="64.4798" x2="66.0119" y2="68.3014" gradientUnits="userSpaceOnUse">
<stop stop-color="#1CA7FB"/>
<stop offset="1" stop-color="#17FCD7"/>
</linearGradient>
<linearGradient id="paint30_linear_159_87" x1="66.0012" y1="83.6789" x2="66.0012" y2="87.5201" gradientUnits="userSpaceOnUse">
<stop stop-color="#1CA7FB"/>
<stop offset="1" stop-color="#17FCD7"/>
</linearGradient>
<linearGradient id="paint31_linear_159_87" x1="59.6061" y1="70.9258" x2="59.6061" y2="74.7074" gradientUnits="userSpaceOnUse">
<stop stop-color="#1CA7FB"/>
<stop offset="1" stop-color="#17FCD7"/>
</linearGradient>
<linearGradient id="paint32_linear_159_87" x1="72.4375" y1="70.9258" x2="72.4375" y2="74.707" gradientUnits="userSpaceOnUse">
<stop stop-color="#1CA7FB"/>
<stop offset="1" stop-color="#17FCD7"/>
</linearGradient>
<linearGradient id="paint33_linear_159_87" x1="72.4373" y1="90.1439" x2="72.4373" y2="93.9052" gradientUnits="userSpaceOnUse">
<stop stop-color="#1CA7FB"/>
<stop offset="1" stop-color="#17FCD7"/>
</linearGradient>
<linearGradient id="paint34_linear_159_87" x1="59.6064" y1="90.1439" x2="59.6064" y2="93.9248" gradientUnits="userSpaceOnUse">
<stop stop-color="#1CA7FB"/>
<stop offset="1" stop-color="#17FCD7"/>
</linearGradient>
<linearGradient id="paint35_linear_159_87" x1="72.4377" y1="83.6975" x2="72.4377" y2="87.5202" gradientUnits="userSpaceOnUse">
<stop stop-color="#1CA7FB"/>
<stop offset="1" stop-color="#17FCD7"/>
</linearGradient>
<linearGradient id="paint36_linear_159_87" x1="59.5877" y1="83.6989" x2="59.5877" y2="87.5385" gradientUnits="userSpaceOnUse">
<stop stop-color="#1CA7FB"/>
<stop offset="1" stop-color="#17FCD7"/>
</linearGradient>
<linearGradient id="paint37_linear_159_87" x1="72.4279" y1="77.2925" x2="72.4279" y2="81.0936" gradientUnits="userSpaceOnUse">
<stop stop-color="#1CA7FB"/>
<stop offset="1" stop-color="#17FCD7"/>
</linearGradient>
<linearGradient id="paint38_linear_159_87" x1="66.003" y1="77.2925" x2="66.003" y2="81.0933" gradientUnits="userSpaceOnUse">
<stop stop-color="#1CA7FB"/>
<stop offset="1" stop-color="#17FCD7"/>
</linearGradient>
<linearGradient id="paint39_linear_159_87" x1="59.6139" y1="77.2925" x2="59.6139" y2="81.0936" gradientUnits="userSpaceOnUse">
<stop stop-color="#1CA7FB"/>
<stop offset="1" stop-color="#17FCD7"/>
</linearGradient>
<linearGradient id="paint40_linear_159_87" x1="66.0202" y1="70.9258" x2="66.0202" y2="74.6877" gradientUnits="userSpaceOnUse">
<stop stop-color="#1CA7FB"/>
<stop offset="1" stop-color="#17FCD7"/>
</linearGradient>
<linearGradient id="paint41_linear_159_87" x1="72.4377" y1="64.4798" x2="72.4377" y2="68.322" gradientUnits="userSpaceOnUse">
<stop stop-color="#1CA7FB"/>
<stop offset="1" stop-color="#17FCD7"/>
</linearGradient>
<linearGradient id="paint42_linear_159_87" x1="59.5966" y1="64.4614" x2="59.5966" y2="68.3206" gradientUnits="userSpaceOnUse">
<stop stop-color="#1CA7FB"/>
<stop offset="1" stop-color="#17FCD7"/>
</linearGradient>
<linearGradient id="paint43_linear_159_87" x1="66.0215" y1="90.1439" x2="66.0215" y2="93.9055" gradientUnits="userSpaceOnUse">
<stop stop-color="#1CA7FB"/>
<stop offset="1" stop-color="#17FCD7"/>
</linearGradient>
<linearGradient id="paint44_linear_159_87" x1="66.0467" y1="7.72845" x2="66.0467" y2="35.2757" gradientUnits="userSpaceOnUse">
<stop stop-color="#1CA7FB"/>
<stop offset="1" stop-color="#17FCD7"/>
</linearGradient>
</defs>
</svg>
