<svg width="133" height="134" viewBox="0 0 133 134" fill="none" xmlns="http://www.w3.org/2000/svg">
<path d="M133 82.0815C133 92.2105 133 102.343 133 112.472C132.341 114.957 131.005 116.896 128.718 118.205C120.987 122.625 113.283 127.098 105.573 131.557C103.168 132.949 100.697 133.171 98.1018 132.126C97.7236 131.974 97.2135 132.047 96.7867 132.126C94.8955 132.477 93.0112 133.195 91.1201 133.199C64.7165 133.272 38.3129 133.247 11.9093 133.247C4.52853 133.247 0.0105293 128.74 0.0105293 121.376C0.0105293 94.7575 0.0105293 68.1353 0.0105293 41.5166C0.0105293 31.4743 -0.0207011 21.432 0.0244095 11.3897C0.0452298 6.66 2.273 3.23159 6.55504 1.20508C7.4399 0.785208 8.42192 0.570065 9.35883 0.26123C37.4107 0.26123 65.4625 0.26123 93.5179 0.26123C93.8441 0.361862 94.1633 0.476373 94.493 0.556184C99.1949 1.70477 102.679 5.82371 102.811 10.6124C102.842 11.6985 103.29 12.0837 104.14 12.4758C111.316 15.7966 118.481 19.1418 125.64 22.5008C132.081 25.5232 134.267 31.5819 131.265 38.0396C127.84 45.4065 124.405 52.7665 120.973 60.1299C119.519 63.253 118.062 66.376 116.562 69.5928C120.119 71.647 123.551 73.7325 127.08 75.6306C129.835 77.1158 132.105 78.9411 133 82.0815ZM69.578 103.12C68.9118 103.12 68.3947 103.12 67.8812 103.12C49.6565 103.12 31.4318 103.12 13.2071 103.12C12.8601 103.12 12.5131 103.124 12.1696 103.117C11.1598 103.103 10.4519 102.641 10.438 101.597C10.4207 100.48 11.1563 100.008 12.2216 100.001C12.5686 100.001 12.9156 100.001 13.2592 100.001C31.5255 100.001 49.7918 100.001 68.0616 100.001C68.5613 100.001 69.0575 100.001 69.5468 100.001C69.5468 96.444 69.5468 93.085 69.5468 89.6115C68.9708 89.6115 68.4607 89.6115 67.9506 89.6115C50.5483 89.6115 33.146 89.6115 15.7437 89.6115C12.2147 89.6115 10.3998 87.7862 10.3998 84.2468C10.3964 64.6375 10.3998 45.0283 10.3998 25.4191C10.3998 21.7998 12.2008 20.0023 15.8166 20.0023C39.5378 20.0023 63.2591 20.0023 86.9803 20.0023C90.7037 20.0023 92.4734 21.7651 92.4769 25.4781C92.4769 38.4213 92.4769 51.3646 92.4769 64.3079C92.4769 64.7625 92.4769 65.2136 92.4769 65.8937C93.5907 65.2552 94.4721 64.7312 95.3709 64.2385C96.4292 63.6555 97.4564 62.9615 98.5876 62.5763C99.5557 62.2467 99.7778 61.7956 99.7744 60.8309C99.7397 44.5564 99.7535 28.2784 99.7501 12.0039C99.7501 6.54201 96.5889 3.38427 91.1305 3.38427C64.6818 3.38427 38.2331 3.38427 11.7844 3.38427C6.25661 3.38427 3.12663 6.5316 3.12663 12.0941C3.12663 48.5435 3.12663 84.9893 3.12663 121.439C3.12663 126.994 6.26008 130.138 11.7983 130.138C38.2053 130.138 64.6089 130.138 91.016 130.138C91.5781 130.138 92.1437 130.145 92.7024 130.09C93.0425 130.055 93.3687 129.909 93.8788 129.767C93.268 129.396 92.8724 129.142 92.463 128.91C86.3592 125.384 80.2484 121.872 74.162 118.323C73.3118 117.826 72.4443 117.261 71.8023 116.536C71.1604 115.81 70.5184 115.578 69.585 115.581C50.7981 115.606 32.0113 115.599 13.2245 115.599C12.8775 115.599 12.5305 115.599 12.1869 115.595C11.1771 115.588 10.4658 115.134 10.438 114.093C10.4103 112.979 11.1355 112.493 12.2077 112.483C12.5547 112.479 12.9018 112.483 13.2453 112.483C31.5116 112.483 49.7814 112.483 68.0477 112.483C68.5544 112.483 69.0575 112.483 69.578 112.483C69.578 109.304 69.578 106.292 69.578 103.12ZM69.6162 86.4954C69.6162 85.8152 69.644 85.3017 69.6127 84.7916C69.3768 80.8704 71.0667 78.136 74.5124 76.2483C79.1762 73.6944 83.7254 70.9357 88.3544 68.3158C89.1352 67.8716 89.3885 67.3719 89.385 66.4905C89.3573 52.8567 89.3642 39.2229 89.3642 25.5891C89.3642 23.4967 88.9825 23.1184 86.8589 23.1184C63.2695 23.1184 39.6801 23.1184 16.0907 23.1184C13.8734 23.1184 13.5194 23.4654 13.5194 25.6516C13.5194 45.0873 13.5194 64.5196 13.5194 83.9553C13.5194 86.1518 13.8699 86.4954 16.0838 86.4988C33.441 86.4988 50.7981 86.4988 68.1518 86.4988C68.5787 86.4954 69.0055 86.4954 69.6162 86.4954ZM129.891 97.4364C129.891 92.9358 129.877 88.4351 129.898 83.9379C129.905 81.9392 129.093 80.4401 127.361 79.4408C119.54 74.9228 111.715 70.4117 103.893 65.8937C102.169 64.8978 100.458 64.8978 98.7299 65.8972C90.9084 70.4186 83.0869 74.9332 75.262 79.4477C73.579 80.4193 72.7323 81.8628 72.7323 83.813C72.7358 92.8559 72.7392 101.899 72.7288 110.942C72.7254 112.948 73.5894 114.412 75.3175 115.408C83.1043 119.898 90.891 124.392 98.6709 128.896C100.444 129.923 102.179 129.92 103.952 128.896C111.697 124.416 119.443 119.94 127.202 115.484C129.075 114.408 129.926 112.843 129.905 110.685C129.86 106.264 129.891 101.85 129.891 97.4364ZM113.79 67.9965C113.967 67.6877 114.064 67.5454 114.137 67.3928C119.016 56.9444 123.922 46.5065 128.749 36.0339C130.651 31.9081 128.982 27.5289 124.852 25.5752C117.826 22.2509 110.767 18.9891 103.723 15.7064C103.498 15.6023 103.258 15.526 102.873 15.3802C102.873 15.9771 102.873 16.4351 102.873 16.8966C102.873 31.214 102.894 45.5349 102.842 59.8523C102.835 61.3687 102.911 62.5035 104.698 62.8331C105.302 62.9442 105.847 63.4126 106.409 63.7353C108.835 65.1303 111.257 66.5356 113.79 67.9965Z" fill="url(#paint0_linear_160_97)"/>
<path d="M23.9468 10.6505C27.7118 10.6505 31.4734 10.6471 35.2384 10.654C36.6507 10.6575 37.362 11.1572 37.4002 12.1496C37.4418 13.1871 36.6819 13.7632 35.2245 13.7666C27.6528 13.7701 20.0812 13.7701 12.5095 13.7666C11.1354 13.7666 10.4067 13.2079 10.4102 12.2051C10.4136 11.1919 11.125 10.6575 12.52 10.6575C16.3301 10.6471 20.1367 10.6505 23.9468 10.6505Z" fill="url(#paint1_linear_160_97)"/>
<path d="M66.4233 53.2419C66.2325 54.9179 65.5697 56.2712 64.1782 57.0936C60.6804 59.1548 57.1444 61.1571 53.598 63.1315C52.1302 63.947 50.5826 63.8776 49.1286 63.0621C45.7002 61.1362 42.2753 59.2034 38.8885 57.2082C36.6642 55.8965 35.8973 53.2592 37.1708 51.0106C40.5541 45.0318 43.9721 39.0737 47.4873 33.1677C49.3229 30.0793 53.5911 30.1036 55.4337 33.2058C58.9211 39.0737 62.3009 45.0075 65.6807 50.9378C66.0728 51.6214 66.1839 52.4681 66.4233 53.2419ZM63.3037 53.3564C63.0921 52.8151 63.0053 52.4785 62.8388 52.187C59.5422 46.4649 56.2491 40.7358 52.9214 35.0311C52.1128 33.6431 50.7803 33.65 49.9718 35.038C46.6441 40.7428 43.344 46.4649 40.0544 52.1939C39.4229 53.2974 39.6311 54.0435 40.7415 54.6854C43.9548 56.5454 47.1646 58.4123 50.4333 60.1716C50.9712 60.4596 51.9289 60.4665 52.4668 60.1785C55.7356 58.4227 58.9523 56.5627 62.1482 54.6785C62.641 54.387 62.9463 53.7797 63.3037 53.3564Z" fill="url(#paint2_linear_160_97)"/>
<path d="M51.5857 78.9792C49.9965 78.9653 48.7611 78.4032 47.8277 77.2789C44.3229 73.0524 40.8216 68.8189 37.3481 64.5646C36.3626 63.3571 36.3835 62.0315 37.2891 61.0321C38.1775 60.0501 39.4996 59.9044 40.8251 60.7268C43.8718 62.618 46.9255 64.5057 49.9236 66.4732C51.0271 67.1984 51.9293 67.1533 53.0085 66.4489C55.9025 64.5577 58.8416 62.7394 61.7703 60.9003C63.3284 59.9217 64.6956 59.9981 65.629 61.0877C66.5416 62.1564 66.4618 63.4542 65.3306 64.8318C61.982 68.9091 58.616 72.9726 55.264 77.0464C54.275 78.2505 53.0397 78.9411 51.5857 78.9792ZM42.3693 65.3836C42.3242 65.4356 42.2791 65.4842 42.234 65.5363C42.3138 65.6647 42.3832 65.8069 42.4803 65.9214C44.9545 68.923 47.4217 71.9281 49.9062 74.9158C51.0028 76.2344 51.8703 76.2309 52.9772 74.9123C54.504 73.0906 55.9996 71.2445 57.5091 69.4088C58.5571 68.1319 59.6085 66.8549 60.6564 65.5814C58.4877 66.6571 56.4646 67.8751 54.4936 69.1729C52.4151 70.5435 50.4198 70.5331 48.3447 69.1451C46.3911 67.8404 44.368 66.6363 42.3693 65.3836Z" fill="url(#paint3_linear_160_97)"/>
<path d="M88.844 99.0222C88.844 96.2253 88.844 93.4285 88.844 90.6316C88.844 90.243 88.8093 89.8474 88.8683 89.4657C89.0071 88.5808 89.5901 87.925 90.4437 88.1263C91.0162 88.2616 91.6756 88.9035 91.8838 89.4692C92.1371 90.1562 91.9601 91.0029 91.9601 91.7837C91.9601 96.0657 91.9497 100.348 91.9705 104.63C91.974 105.574 91.8109 106.4 90.7907 106.681C89.7531 106.965 89.2257 106.275 88.7538 105.483C86.8105 102.218 84.8465 98.9667 82.7402 95.4585C82.6777 96.031 82.6187 96.3398 82.6153 96.6487C82.6083 99.3727 82.6222 102.1 82.6048 104.824C82.5979 106.059 81.9629 106.823 80.9982 106.733C79.8809 106.629 79.4887 105.896 79.4922 104.845C79.5026 99.8689 79.5026 94.8963 79.4922 89.9203C79.4887 89.0423 79.7941 88.2095 80.6616 88.1818C81.2862 88.161 82.1919 88.6051 82.525 89.1256C84.6105 92.4048 86.5676 95.7638 88.5664 99.0951C88.6566 99.0743 88.7503 99.05 88.844 99.0222Z" fill="url(#paint4_linear_160_97)"/>
<path d="M98.254 91.173C98.254 92.9809 98.254 94.6083 98.254 96.3677C100.333 96.3677 102.352 96.3607 104.372 96.3711C105.784 96.3781 106.482 96.8916 106.492 97.9118C106.502 98.9181 105.774 99.4768 104.403 99.4838C102.38 99.4942 100.357 99.4872 98.1916 99.4872C98.1916 101.312 98.1777 103.03 98.1985 104.744C98.2124 105.834 97.8619 106.642 96.6613 106.733C95.6966 106.806 95.0859 106.049 95.0824 104.796C95.072 99.8655 95.0685 94.9311 95.0824 90.0001C95.0859 88.5913 95.6307 88.0708 97.0673 88.0604C99.9231 88.0465 102.779 88.0638 105.635 88.0534C106.686 88.05 107.422 88.4455 107.519 89.5664C107.606 90.538 106.849 91.1626 105.607 91.1695C103.192 91.1834 100.777 91.173 98.254 91.173Z" fill="url(#paint5_linear_160_97)"/>
<path d="M118.453 91.1695C118.453 94.5216 118.453 97.714 118.453 100.903C118.453 102.201 118.467 103.499 118.45 104.793C118.433 106.046 117.843 106.757 116.871 106.743C115.903 106.729 115.344 106.028 115.341 104.748C115.33 100.726 115.337 96.7077 115.337 92.6859C115.337 92.2209 115.337 91.7594 115.337 91.1695C114.275 91.1695 113.335 91.1799 112.395 91.1661C111.381 91.1522 110.701 90.6629 110.694 89.6219C110.687 88.5809 111.361 88.0673 112.377 88.0638C115.403 88.0499 118.429 88.0465 121.455 88.0673C122.475 88.0742 123.121 88.6294 123.093 89.667C123.069 90.6351 122.434 91.1383 121.476 91.1626C120.535 91.1903 119.588 91.1695 118.453 91.1695Z" fill="url(#paint6_linear_160_97)"/>
<defs>
<linearGradient id="paint0_linear_160_97" x1="66.5" y1="133.251" x2="66.5" y2="0.26123" gradientUnits="userSpaceOnUse">
<stop stop-color="#1CA7FB"/>
<stop offset="1" stop-color="#17FCD7"/>
</linearGradient>
<linearGradient id="paint1_linear_160_97" x1="23.906" y1="13.7692" x2="23.906" y2="10.6497" gradientUnits="userSpaceOnUse">
<stop stop-color="#1CA7FB"/>
<stop offset="1" stop-color="#17FCD7"/>
</linearGradient>
<linearGradient id="paint2_linear_160_97" x1="51.4895" y1="63.7095" x2="51.4895" y2="30.8652" gradientUnits="userSpaceOnUse">
<stop stop-color="#1CA7FB"/>
<stop offset="1" stop-color="#17FCD7"/>
</linearGradient>
<linearGradient id="paint3_linear_160_97" x1="51.4311" y1="78.9792" x2="51.4311" y2="60.1923" gradientUnits="userSpaceOnUse">
<stop stop-color="#1CA7FB"/>
<stop offset="1" stop-color="#17FCD7"/>
</linearGradient>
<linearGradient id="paint4_linear_160_97" x1="85.7562" y1="106.746" x2="85.7562" y2="88.0897" gradientUnits="userSpaceOnUse">
<stop stop-color="#1CA7FB"/>
<stop offset="1" stop-color="#17FCD7"/>
</linearGradient>
<linearGradient id="paint5_linear_160_97" x1="101.3" y1="106.738" x2="101.3" y2="88.0534" gradientUnits="userSpaceOnUse">
<stop stop-color="#1CA7FB"/>
<stop offset="1" stop-color="#17FCD7"/>
</linearGradient>
<linearGradient id="paint6_linear_160_97" x1="116.894" y1="106.743" x2="116.894" y2="88.0526" gradientUnits="userSpaceOnUse">
<stop stop-color="#1CA7FB"/>
<stop offset="1" stop-color="#17FCD7"/>
</linearGradient>
</defs>
</svg>
