<svg width="136" height="141" viewBox="0 0 136 141" fill="none" xmlns="http://www.w3.org/2000/svg">
<path d="M124.935 88.9571C127.768 88.9571 130.28 88.9493 132.793 88.961C134.973 88.9688 135.758 89.7698 135.77 91.9774C135.778 93.2941 135.79 94.6109 135.766 95.9276C135.692 99.9365 132.715 102.953 128.706 102.988C123.829 103.031 118.953 103 114.081 103C113.557 103 113.03 103 112.369 103C112.369 104.586 112.291 106.044 112.42 107.481C112.455 107.892 113.038 108.353 113.475 108.611C116.316 110.299 117.656 113.514 116.761 116.64C115.878 119.735 112.944 121.891 109.724 121.704C107.095 121.551 105.164 120.231 103.828 117.957C103.59 117.55 103.012 117.085 102.59 117.085C92.5948 117.039 82.6001 117.054 72.6053 117.058C72.5154 117.058 72.4216 117.109 72.2263 117.164C72.3982 117.515 72.535 117.859 72.7225 118.176C76.0241 123.693 79.3453 129.198 82.6235 134.731C83.0728 135.485 83.5456 135.821 84.456 135.789C86.5972 135.715 88.7462 135.75 90.8913 135.77C92.6026 135.786 93.6537 136.708 93.6381 138.126C93.6224 139.54 92.5753 140.439 90.8444 140.439C75.5357 140.447 60.2271 140.447 44.9185 140.439C43.2071 140.439 42.1599 139.501 42.1756 138.079C42.1912 136.657 43.2266 135.782 44.9692 135.77C47.1612 135.754 49.3571 135.805 51.5491 135.735C52.0297 135.719 52.7056 135.422 52.9361 135.039C56.4605 129.26 59.9301 123.443 63.4076 117.632C63.4779 117.515 63.4975 117.371 63.5756 117.117C63.1028 117.089 62.6926 117.042 62.2823 117.042C52.776 117.039 43.2696 117.054 33.7593 117.015C32.7591 117.011 32.2511 117.316 31.7627 118.211C30.3874 120.743 27.453 122.098 24.7257 121.645C21.7289 121.145 19.4236 118.883 18.8531 115.882C18.3374 113.155 19.6151 110.181 22.1548 108.798C23.2449 108.204 23.5536 107.544 23.4559 106.411C23.366 105.352 23.4364 104.274 23.4364 102.992C22.8542 102.992 22.3423 102.992 21.8305 102.992C17.0519 102.992 12.2733 103.004 7.49865 102.988C3.01312 102.976 0.0670473 100.042 0.0396965 95.5877C0.031882 94.2241 0.0123457 92.8565 0.047511 91.4929C0.0904909 89.8597 0.965717 88.9805 2.61458 88.961C5.24416 88.9258 7.87766 88.9532 10.8198 88.9532C10.3314 88.5156 10.0462 88.246 9.74923 87.992C1.61041 81.0293 -1.71075 72.2457 0.844592 61.829C3.42338 51.3107 10.4369 44.8676 21.0412 42.6287C27.5624 41.2495 33.7203 42.5897 39.4014 46.071C40.9838 47.04 41.4293 48.3372 40.6517 49.5876C39.8781 50.8301 38.5496 50.9942 36.9398 50.0486C28.8596 45.2974 19.6737 45.8327 12.6093 51.4748C5.23635 57.3513 2.69663 67.4789 6.41243 76.1452C10.054 84.6317 19.1345 89.9964 27.9297 88.8555C37.819 87.5739 45.2545 80.4041 46.6064 70.886C47.3136 65.9121 46.3133 61.3015 43.7893 56.9879C43.4767 56.4526 43.1446 55.8743 43.0391 55.2765C42.8398 54.1317 43.379 53.2604 44.4574 52.8423C45.6804 52.3695 46.6572 52.8149 47.3488 53.8777C49.3923 57.027 50.6817 60.4614 51.2404 64.1812C52.5142 72.6599 49.4626 82.1975 40.8158 88.832C41.3042 88.8828 41.652 88.9532 41.9997 88.9532C44.3402 88.9649 46.6806 88.9297 49.0211 88.9727C50.5215 88.9962 51.4514 89.8518 51.4983 91.2897C51.5569 93.091 51.6155 94.9078 51.4631 96.6974C51.1662 100.284 48.1302 102.965 44.4144 102.992C39.589 103.027 34.7596 103 29.9341 103.004C29.4027 103.004 28.8674 103.004 28.1251 103.004C28.1251 104.598 28.0899 106.137 28.1563 107.673C28.168 107.939 28.6017 108.2 28.8635 108.443C29.8169 109.326 31.0282 110.048 31.665 111.115C32.3058 112.19 32.974 112.385 34.0836 112.385C52.7095 112.354 71.3315 112.365 89.9574 112.365C94.0522 112.365 98.147 112.346 102.242 112.381C103.058 112.389 103.445 112.1 103.941 111.416C104.746 110.306 105.911 109.466 106.872 108.458C107.22 108.095 107.61 107.603 107.646 107.145C107.751 105.84 107.681 104.524 107.681 103C106.95 103 106.29 103.015 105.633 102.996C104.027 102.949 103.012 102.039 103.012 100.659C103.012 99.2761 104.024 98.3306 105.633 98.3267C112.752 98.3071 119.871 98.2134 126.986 98.3579C130.976 98.44 131.398 96.9513 130.964 93.72C117.015 93.72 103.055 93.72 88.9611 93.72C88.9611 94.4976 88.9259 95.2165 88.9689 95.9315C89.0548 97.3889 89.9222 98.2524 91.4031 98.3032C92.8136 98.3501 94.232 98.2993 95.6425 98.3228C97.264 98.3501 98.2799 99.2488 98.3033 100.62C98.3268 101.996 97.307 102.961 95.7167 102.992C94.1577 103.023 92.5948 103.039 91.0358 102.984C87.3513 102.851 84.413 99.8974 84.288 96.2129C84.2372 94.7515 84.2645 93.2863 84.2763 91.825C84.2958 89.805 85.1085 88.9727 87.109 88.961C89.6683 88.9454 92.2314 88.9571 94.3648 88.9571C93.0481 87.4723 91.5242 85.9133 90.1801 84.2098C84.0301 76.4226 82.4711 67.7446 86.1049 58.5274C89.7542 49.2711 96.7951 43.8712 106.68 42.406C112.694 41.5152 118.297 42.8436 123.482 45.9772C125.193 47.0127 125.678 48.2669 124.904 49.5602C124.126 50.8496 122.774 51.0059 121.075 49.9978C108.314 42.4177 92.5089 49.232 89.3791 63.6615C86.9215 74.9964 94.6774 86.5307 106.157 88.6171C117.871 90.7466 129.194 82.6703 130.823 71.0736C131.546 65.9394 130.515 61.2234 127.924 56.7574C127.475 55.9837 127.264 54.7373 127.557 53.9324C128.178 52.2289 130.495 52.2171 131.554 53.8543C134.817 58.8946 136.231 64.4312 135.61 70.4132C134.844 77.7706 131.449 83.7057 125.67 88.2967C125.513 88.4296 125.353 88.582 124.935 88.9571ZM46.8369 93.7357C32.6887 93.7357 18.7398 93.7357 4.79874 93.7357C4.48225 97.7445 5.00191 98.3189 8.84275 98.3189C18.9235 98.3189 29.0042 98.3189 39.0849 98.3189C40.8393 98.3189 42.5936 98.3501 44.3441 98.3071C45.8992 98.2681 46.7588 97.3889 46.833 95.8417C46.8643 95.1657 46.8369 94.4937 46.8369 93.7357ZM77.7824 135.711C74.43 130.128 71.2182 124.787 67.9009 119.262C64.5368 124.877 61.325 130.229 58.0429 135.711C64.7087 135.711 71.1166 135.711 77.7824 135.711ZM28.1055 114.761C28.1407 113.499 27.1014 112.405 25.8354 112.373C24.5734 112.338 23.4832 113.374 23.4481 114.643C23.4129 115.905 24.4522 116.999 25.7143 117.031C26.9763 117.066 28.0704 116.027 28.1055 114.761ZM112.358 114.718C112.369 113.452 111.314 112.381 110.045 112.373C108.779 112.362 107.708 113.417 107.7 114.686C107.692 115.956 108.743 117.023 110.009 117.035C111.275 117.042 112.346 115.984 112.358 114.718Z" fill="url(#paint0_linear_160_105)"/>
<path d="M72.7935 21.3185C73.993 24.9171 75.173 28.5196 76.4233 32.1025C76.5327 32.4151 77.1188 32.7433 77.49 32.7512C79.975 32.8098 82.4639 32.8215 84.9489 32.7472C85.4452 32.7316 86.0234 32.3643 86.4024 31.9931C88.9148 29.5433 91.3803 27.0426 93.8692 24.5694C95.3579 23.0924 96.2253 23.0338 97.9406 24.3076C100.367 26.1088 102.75 27.9687 105.212 29.7191C105.794 30.1333 106.607 30.3873 107.326 30.4107C109.858 30.4928 112.397 30.4928 114.929 30.4068C115.574 30.3834 116.348 30.0825 116.817 29.6449C118.868 27.7186 120.825 25.6946 123.107 23.4167C121.712 23.4167 120.669 23.4402 119.626 23.4128C118.047 23.3659 117.028 22.3969 117.063 21.0177C117.098 19.6931 118.082 18.7632 119.598 18.7475C122.572 18.7163 125.545 18.7163 128.519 18.7475C130.164 18.7671 131.058 19.6501 131.082 21.2833C131.117 24.2568 131.117 27.2341 131.082 30.2075C131.066 31.7821 130.058 32.8059 128.687 32.7668C127.37 32.7277 126.475 31.7392 126.417 30.2271C126.397 29.6918 126.413 29.1526 126.413 28.6173C126.413 28.1328 126.413 27.6483 126.413 26.9332C125.995 27.2654 125.698 27.4568 125.452 27.703C123.377 29.766 121.286 31.8134 119.255 33.9155C118.411 34.7868 117.481 35.1541 116.27 35.1385C112.858 35.0877 109.444 35.1815 106.033 35.0799C105.13 35.0525 104.122 34.6891 103.376 34.1734C100.977 32.5128 98.679 30.7077 96.1901 28.8439C93.9044 31.1414 91.5835 33.349 89.4149 35.7011C88.1842 37.0374 86.8518 37.5727 85.0427 37.5024C81.8778 37.3773 78.7051 37.432 75.5364 37.4828C73.9422 37.5102 73.0162 36.8694 72.516 35.326C70.9883 30.6061 69.3824 25.9095 67.7648 21.0841C65.1899 21.0841 62.6111 21.045 60.0363 21.1192C59.5908 21.131 59.0868 21.5412 58.7351 21.889C55.5429 25.0421 52.3546 28.1953 49.221 31.4071C48.2676 32.3878 47.2478 32.8176 45.8685 32.8098C36.8076 32.759 27.7389 32.7629 18.6701 32.8215C17.9512 32.8254 17.0682 33.1966 16.5446 33.6967C13.9658 36.1466 11.4964 38.7136 8.95669 41.2065C7.6165 42.5193 5.93638 42.4216 5.09241 41.0306C4.44771 39.9679 4.62744 38.9442 5.47141 38.0924C8.52298 35.0056 11.5589 31.9033 14.7082 28.922C15.2904 28.3711 16.3766 28.1406 17.2362 28.1367C26.3518 28.082 35.4713 28.121 44.587 28.0663C45.3098 28.0624 46.1968 27.6991 46.7164 27.1989C49.9438 24.0849 53.1126 20.9083 56.2462 17.7004C57.1722 16.7509 58.1647 16.3368 59.4853 16.3797C61.6695 16.454 63.8537 16.3993 66.2058 16.3993C65.4595 14.1409 64.7914 12.0153 64.0295 9.92495C63.9318 9.65535 63.3652 9.4131 63.0097 9.40528C61.3061 9.35058 59.5947 9.32323 57.8951 9.41701C57.3911 9.44436 56.8167 9.79601 56.4377 10.1672C53.2025 13.3477 49.9868 16.5399 46.818 19.783C45.8959 20.7285 44.8995 21.1114 43.5789 21.1075C34.5609 21.0684 25.5391 21.1075 16.5211 21.0606C15.4505 21.0567 14.716 21.3732 13.9853 22.1312C11.5706 24.6162 9.10907 27.0505 6.64359 29.4769C5.37764 30.7233 3.9046 30.7428 2.94342 29.5941C2.15024 28.6485 2.14634 27.3982 3.10752 26.4175C6.17863 23.2878 9.26145 20.162 12.442 17.1417C12.989 16.622 14.0361 16.4305 14.8527 16.4266C23.9684 16.3797 33.0879 16.3836 42.2035 16.4149C43.1608 16.4188 43.8251 16.1336 44.4932 15.4576C47.6346 12.2537 50.8386 9.11615 53.98 5.9161C54.824 5.0526 55.7383 4.64624 56.9534 4.6736C59.583 4.7322 62.2165 4.68532 64.85 4.69313C66.8349 4.69704 67.3585 5.07995 68.0149 7.02186C68.9487 9.7882 69.8435 12.5702 70.8281 15.317C70.9805 15.7468 71.5939 16.3915 71.8792 16.3368C75.3215 15.6764 77.7518 17.6496 80.2016 19.4743C81.2644 20.2636 81.913 20.2636 82.8468 19.2516C84.8591 17.0674 86.9651 14.9536 89.1649 12.957C89.8838 12.3084 90.9896 11.8551 91.9625 11.7653C93.9434 11.5855 95.9557 11.6949 97.9523 11.7184C99.6441 11.7379 100.699 12.6952 100.656 14.1174C100.613 15.485 99.5972 16.3446 97.9679 16.3915C97.921 16.3915 97.8702 16.3993 97.8234 16.3915C93.709 15.6061 90.6692 17.2042 88.1763 20.4394C86.9377 22.0492 85.3319 23.3776 83.8627 24.8077C82.6632 25.976 81.745 26.0619 80.3384 25.1476C78.541 23.9794 76.7906 22.7408 74.9698 21.6076C74.4033 21.256 73.6843 21.1427 73.0357 20.9239C72.9537 21.0567 72.8755 21.1896 72.7935 21.3185Z" fill="url(#paint1_linear_160_105)"/>
<path d="M121.86 67.8695C121.61 68.4361 121.442 69.0026 121.133 69.4715C118.183 73.9375 115.222 78.3996 112.229 82.8382C110.908 84.7997 109.138 84.7762 107.802 82.7913C104.84 78.3918 101.925 73.957 98.9597 69.5614C98.1743 68.397 98.1899 67.3538 98.9714 66.1972C101.941 61.8016 104.852 57.3668 107.817 52.9672C109.099 51.0644 110.986 51.0839 112.28 53.0063C115.241 57.4059 118.176 61.825 121.102 66.2519C121.411 66.7247 121.591 67.2873 121.86 67.8695ZM115.483 66.2441C113.69 63.5598 111.901 60.8833 110.025 58.0779C108.103 60.9615 106.333 63.6184 104.559 66.2793C108.224 67.9125 111.775 68.018 115.483 66.2441ZM110.033 77.7119C111.408 75.6411 112.639 73.7929 113.866 71.9409C111.225 72.7536 108.759 72.6168 105.93 71.5541C107.431 73.8086 108.657 75.6489 110.033 77.7119Z" fill="url(#paint2_linear_160_105)"/>
<path d="M33.962 61.532C33.9503 63.2551 33.0477 64.3023 31.7349 64.3648C30.4416 64.4273 29.4999 63.5169 29.2889 61.997C29.0154 60.0316 27.937 58.8087 26.2647 58.5664C24.8151 58.3554 23.303 59.1603 22.6388 60.5044C21.5408 62.7237 23.0217 65.2517 25.5653 65.5409C26.5265 65.6503 27.5189 65.7284 28.4293 66.0254C31.5747 67.0491 33.7706 69.9756 33.9542 73.2343C34.1417 76.5554 32.3757 79.6695 29.3202 81.0253C28.3277 81.4669 28.0034 81.9865 28.105 82.979C28.1597 83.5064 28.1675 84.0613 28.0699 84.5809C27.8354 85.8391 27.0423 86.5932 25.749 86.5815C24.4596 86.5697 23.3968 85.7648 23.5218 84.5458C23.7563 82.3186 22.8263 81.248 20.9626 80.2165C18.8136 79.0248 17.8289 76.8133 17.6062 74.3556C17.4578 72.6833 18.333 71.5307 19.7396 71.4135C21.0837 71.3041 22.041 72.2301 22.2676 73.8477C22.5411 75.817 23.7602 77.0907 25.5106 77.2275C27.1517 77.3564 28.6677 76.278 29.1405 74.6487C29.7852 72.4216 28.1676 70.3898 25.6122 70.2218C21.701 69.9639 18.7472 67.6117 17.8485 64.0405C16.8873 60.2075 18.6573 56.3862 22.291 54.706C23.1897 54.2919 23.5687 53.8269 23.4398 52.8618C23.3694 52.3343 23.3773 51.7834 23.4593 51.2598C23.6586 49.9939 24.4283 49.2203 25.7177 49.1929C27.011 49.1616 28.1285 49.9587 27.9995 51.1543C27.7417 53.53 28.9099 54.5693 30.7542 55.679C32.9188 56.9801 33.8096 59.2658 33.962 61.532Z" fill="url(#paint3_linear_160_105)"/>
<path d="M123.721 8.27608C121.431 10.597 119.2 12.9804 116.809 15.1958C116.106 15.8484 114.973 16.2586 114 16.3446C112.069 16.5204 110.108 16.411 108.162 16.3915C106.42 16.3758 105.388 15.5123 105.361 14.094C105.337 12.6678 106.427 11.4879 108.076 11.7692C112.421 12.5155 115.504 10.7494 118.055 7.44384C118.751 6.54126 119.755 5.88094 120.619 5.1073C120.552 4.96664 120.482 4.82988 120.415 4.68922C119.372 4.68922 118.329 4.71267 117.29 4.68531C115.707 4.64233 114.691 3.67724 114.723 2.30189C114.75 0.981235 115.734 0.0395854 117.243 0.0239564C120.212 -0.00730167 123.182 -0.00730167 126.151 0.0200491C127.808 0.0356782 128.718 0.906997 128.738 2.5246C128.777 5.54491 128.777 8.56131 128.738 11.5816C128.718 13.0664 127.722 14.0471 126.397 14.0393C125.073 14.0315 124.135 13.0468 124.084 11.5543C124.049 10.5032 124.076 9.44826 124.076 8.3933C123.955 8.35814 123.838 8.31516 123.721 8.27608Z" fill="url(#paint4_linear_160_105)"/>
<defs>
<linearGradient id="paint0_linear_160_105" x1="67.89" y1="42.0942" x2="67.89" y2="140.445" gradientUnits="userSpaceOnUse">
<stop stop-color="#1CA7FB"/>
<stop offset="1" stop-color="#17FCD7"/>
</linearGradient>
<linearGradient id="paint1_linear_160_105" x1="66.7373" y1="4.6723" x2="66.7373" y2="42.1351" gradientUnits="userSpaceOnUse">
<stop stop-color="#1CA7FB"/>
<stop offset="1" stop-color="#17FCD7"/>
</linearGradient>
<linearGradient id="paint2_linear_160_105" x1="110.119" y1="51.5522" x2="110.119" y2="84.2948" gradientUnits="userSpaceOnUse">
<stop stop-color="#1CA7FB"/>
<stop offset="1" stop-color="#17FCD7"/>
</linearGradient>
<linearGradient id="paint3_linear_160_105" x1="25.7788" y1="49.192" x2="25.7788" y2="86.5816" gradientUnits="userSpaceOnUse">
<stop stop-color="#1CA7FB"/>
<stop offset="1" stop-color="#17FCD7"/>
</linearGradient>
<linearGradient id="paint4_linear_160_105" x1="117.064" y1="0" x2="117.064" y2="16.443" gradientUnits="userSpaceOnUse">
<stop stop-color="#1CA7FB"/>
<stop offset="1" stop-color="#17FCD7"/>
</linearGradient>
</defs>
</svg>
