<svg width="157" height="134" viewBox="0 0 157 134" fill="none" xmlns="http://www.w3.org/2000/svg">
<path d="M87.0126 0.949439C90.5083 1.56693 94.0397 2.03132 97.4946 2.82742C109.732 5.6597 120.173 11.7325 129.027 20.5815C130.579 22.1328 130.747 23.8781 129.522 25.108C128.303 26.3328 126.557 26.1899 124.986 24.6283C115.417 15.1312 104.027 9.23194 90.6308 7.32845C76.8317 5.36371 63.8798 7.92042 51.7699 14.7689C49.0754 16.2897 47.4526 16.208 46.4779 14.4168C45.5593 12.7327 46.2788 11.314 48.8764 9.81881C57.1691 5.06262 66.0589 2.16911 75.5917 1.27604C76.0867 1.23012 76.5715 1.06171 77.0614 0.944336C80.3785 0.949439 83.6955 0.949439 87.0126 0.949439Z" fill="url(#paint0_linear_160_117)"/>
<path d="M81.9912 117.267C56.2608 117.17 34.6998 97.8593 31.9594 72.4658C29.0199 45.2861 48.6519 20.5917 75.801 17.3103C102.894 14.0341 127.695 32.6965 131.681 59.5648C133.768 73.6497 130.324 86.4485 121.699 97.8185C119.791 100.334 118.275 100.829 116.667 99.5689C115.136 98.3645 115.3 96.7366 117.193 94.282C137.769 67.5973 122.363 28.6139 89.0948 23.1841C61.068 18.6014 35.8072 41.3923 37.5474 69.6896C39.655 103.932 77.9801 123.018 106.629 104.09C106.788 103.983 106.941 103.871 107.104 103.769C109.008 102.534 110.641 102.656 111.651 104.111C112.712 105.637 112.263 107.295 110.222 108.556C107.788 110.061 105.333 111.572 102.746 112.771C96.1832 115.823 89.2326 117.267 81.9912 117.267Z" fill="url(#paint1_linear_160_117)"/>
<path d="M82.7061 133.25C64.7888 132.959 49.918 127.244 37.2825 115.823C35.6546 114.353 35.3586 113.031 36.267 111.663C37.3437 110.051 39.3085 109.949 41.0385 111.526C46.3713 116.369 52.3472 120.181 59.0017 122.952C94.122 137.598 134.667 115.578 141.444 78.1865C142.648 71.5523 142.868 64.9181 141.811 58.2482C141.546 56.5642 141.663 55.0128 143.496 54.232C145.292 53.4665 147.103 54.6709 147.445 56.8602C148.752 65.2549 148.67 73.6599 146.506 81.8761C139.469 108.607 122.338 125.212 95.4846 131.831C93.7597 132.255 91.9787 132.515 90.2027 132.694C87.4215 132.964 84.6198 133.112 82.7061 133.25Z" fill="url(#paint2_linear_160_117)"/>
<path d="M18.6198 119.926C16.7979 119.869 15.2874 119.099 14.5015 117.384C11.955 111.852 7.97958 107.831 2.49364 105.106C-0.854067 103.442 -0.823448 98.6963 2.53956 97.0632C7.98979 94.4198 11.9039 90.4852 14.5321 85.0452C16.16 81.6771 20.8601 81.5954 22.6054 84.9227C25.4734 90.3934 29.7345 94.2003 35.1644 96.9969C38.7264 98.829 38.7213 103.33 35.1746 105.269C29.8366 108.193 25.5499 112.077 22.7278 117.517C21.9062 119.104 20.4722 119.875 18.6198 119.926ZM18.7065 112.97C21.7838 107.877 25.8102 104.167 30.7756 101.146C25.6826 98.2931 21.6562 94.6086 18.8035 89.8728C17.0633 92.057 15.5629 94.2973 13.6952 96.1753C11.8325 98.0431 9.5973 99.5485 7.44374 101.278C12.251 104.009 15.9304 107.882 18.7065 112.97Z" fill="url(#paint3_linear_160_117)"/>
<path d="M118.081 67.1737C118.041 75.492 111.238 82.2129 102.94 82.1363C94.6272 82.0598 87.8705 75.2368 87.942 66.99C88.0134 58.6718 94.7752 52.0274 103.124 52.0682C111.488 52.1091 118.127 58.8096 118.081 67.1737ZM103.047 57.7991C97.8422 57.794 93.6576 61.9583 93.6882 67.1176C93.7188 72.1953 97.832 76.3289 102.925 76.4054C108.084 76.482 112.315 72.3178 112.335 67.1431C112.361 61.9123 108.278 57.8042 103.047 57.7991Z" fill="url(#paint4_linear_160_117)"/>
<path d="M15.6699 67.24C16.119 48.0418 23.0185 31.9667 36.7257 18.8515C38.3179 17.3256 40.0428 17.2082 41.2574 18.484C42.4822 19.7751 42.3087 21.4184 40.6654 22.9851C30.556 32.625 24.1923 44.2858 22.2429 58.1053C21.5488 63.035 21.8244 68.1127 21.8193 73.1189C21.8193 75.5481 20.4261 77.1964 18.3593 76.7167C17.0274 76.4054 16.2517 75.5532 16.1445 74.1906C15.9608 71.7819 15.8128 69.3732 15.6699 67.24Z" fill="url(#paint5_linear_160_117)"/>
<path d="M142.724 48.3531C141.076 48.3123 139.821 47.506 139.121 46.0108C137.468 42.4742 134.916 39.9124 131.436 38.1059C128.257 36.4525 128.262 32.4158 131.446 30.8032C134.886 29.0579 137.381 26.5778 139.106 23.1382C140.719 19.9283 144.704 19.8568 146.429 23.0106C148.302 26.44 150.966 28.8946 154.395 30.696C157.799 32.4873 157.881 36.3453 154.528 38.2233C151.099 40.1421 148.338 42.6375 146.501 46.1383C145.725 47.5979 144.459 48.3531 142.724 48.3531ZM137.881 34.6459C139.361 35.9983 141.499 37.9477 143.326 39.6164C144.669 38.1875 146.684 36.0442 148.552 34.054C146.98 32.5638 144.883 30.5736 143.352 29.1243C141.433 31.0635 139.484 33.0282 137.881 34.6459Z" fill="url(#paint6_linear_160_117)"/>
<path d="M76.0511 51.5732C78.4853 52.3949 80.9961 53.0532 83.3385 54.0891C85.4869 55.0434 86.0432 56.8193 85.094 58.4013C84.1652 59.9527 82.6649 60.1772 80.6032 59.0801C74.367 55.763 67.4318 59.2332 66.5234 66.1174C66.0488 69.7049 68.1054 73.5323 71.4429 75.3185C74.2446 76.8188 78.7813 76.9515 81.3125 74.058C82.5424 72.6495 84.3999 72.6852 85.5431 73.8334C86.676 74.9714 86.5892 76.6912 85.3287 78.1048C81.2206 82.713 73.6067 83.453 67.7941 79.8093C62.0989 76.237 59.4708 69.3426 61.3488 62.8768C63.2267 56.4162 69.075 52.0632 75.8878 52.058C75.9388 51.905 75.995 51.7365 76.0511 51.5732Z" fill="url(#paint7_linear_160_117)"/>
<path d="M57.1277 67.1278C57.1277 70.945 57.143 74.7673 57.1226 78.5845C57.1073 80.7942 56.005 82.1108 54.2342 82.1159C52.4481 82.121 51.3917 80.8452 51.3866 78.5896C51.3764 70.8889 51.3713 63.1881 51.3866 55.4874C51.3917 53.3032 52.3715 52.1295 54.1321 52.0836C55.9744 52.0325 57.0971 53.2675 57.1124 55.4823C57.1481 59.3607 57.1277 63.2443 57.1277 67.1278Z" fill="url(#paint8_linear_160_117)"/>
<defs>
<linearGradient id="paint0_linear_160_117" x1="88.2137" y1="0.944336" x2="88.2137" y2="25.9261" gradientUnits="userSpaceOnUse">
<stop stop-color="#1CA7FB"/>
<stop offset="1" stop-color="#17FCD7"/>
</linearGradient>
<linearGradient id="paint1_linear_160_117" x1="81.971" y1="16.9374" x2="81.971" y2="117.267" gradientUnits="userSpaceOnUse">
<stop stop-color="#1CA7FB"/>
<stop offset="1" stop-color="#17FCD7"/>
</linearGradient>
<linearGradient id="paint2_linear_160_117" x1="92.0327" y1="54.0011" x2="92.0327" y2="133.25" gradientUnits="userSpaceOnUse">
<stop stop-color="#1CA7FB"/>
<stop offset="1" stop-color="#17FCD7"/>
</linearGradient>
<linearGradient id="paint3_linear_160_117" x1="18.9176" y1="82.4726" x2="18.9176" y2="119.926" gradientUnits="userSpaceOnUse">
<stop stop-color="#1CA7FB"/>
<stop offset="1" stop-color="#17FCD7"/>
</linearGradient>
<linearGradient id="paint4_linear_160_117" x1="103.012" y1="52.0681" x2="103.012" y2="82.137" gradientUnits="userSpaceOnUse">
<stop stop-color="#1CA7FB"/>
<stop offset="1" stop-color="#17FCD7"/>
</linearGradient>
<linearGradient id="paint5_linear_160_117" x1="28.863" y1="17.6093" x2="28.863" y2="76.7998" gradientUnits="userSpaceOnUse">
<stop stop-color="#1CA7FB"/>
<stop offset="1" stop-color="#17FCD7"/>
</linearGradient>
<linearGradient id="paint6_linear_160_117" x1="143.025" y1="20.6874" x2="143.025" y2="48.3531" gradientUnits="userSpaceOnUse">
<stop stop-color="#1CA7FB"/>
<stop offset="1" stop-color="#17FCD7"/>
</linearGradient>
<linearGradient id="paint7_linear_160_117" x1="73.5425" y1="51.5732" x2="73.5425" y2="82.1192" gradientUnits="userSpaceOnUse">
<stop stop-color="#1CA7FB"/>
<stop offset="1" stop-color="#17FCD7"/>
</linearGradient>
<linearGradient id="paint8_linear_160_117" x1="54.2552" y1="52.082" x2="54.2552" y2="82.1159" gradientUnits="userSpaceOnUse">
<stop stop-color="#1CA7FB"/>
<stop offset="1" stop-color="#17FCD7"/>
</linearGradient>
</defs>
</svg>
