<svg width="137" height="138" viewBox="0 0 137 138" fill="none" xmlns="http://www.w3.org/2000/svg">
<path d="M79.2566 118.842C73.3729 128.211 64.6864 133.222 54.4194 135.675C41.0412 138.87 28.0742 137.67 15.8727 131.013C9.50159 127.54 4.28434 122.769 1.70238 115.784C0.731283 113.161 0.259065 110.255 0.114353 107.448C-0.136989 102.559 0.118162 97.6421 0.0267645 92.7409C-0.140797 83.4527 3.78166 76.1219 10.6136 70.1583C14.6389 66.6471 19.2506 64.1413 24.2889 62.4085C24.7306 62.2562 25.1648 62.0734 25.4885 61.9516C24.7763 58.7869 23.8433 55.7289 23.4206 52.6062C21.2614 36.5394 26.1739 22.8869 38.0479 11.9307C46.5326 4.10102 56.7577 0.296616 68.2889 0.189986C73.5595 0.14048 78.8567 0.0224251 84.1044 0.445137C102.757 1.95319 118.736 15.3276 123.805 33.4052C125.82 40.5913 126.101 47.8498 124.559 55.1501C124.357 56.106 124.567 56.5934 125.321 57.157C130.885 61.3308 135.024 66.5214 136.464 73.5095C136.78 75.0366 136.901 76.6208 136.928 78.1822C136.993 81.9409 136.818 85.711 136.974 89.4659C137.378 99.1349 133.093 106.42 125.648 112.075C118.523 117.487 110.324 120.114 101.516 121.021C94.1962 121.775 87.0063 121.066 79.9459 118.999C79.7288 118.934 79.5003 118.896 79.2566 118.842ZM27.4268 45.8314C27.4002 68.5131 45.8433 87.0134 68.487 87.0172C91.0697 87.021 109.501 68.6159 109.566 45.9875C109.635 23.3096 91.222 4.77888 68.5746 4.73318C45.9347 4.69129 27.4535 23.1459 27.4268 45.8314ZM12.7728 101.995C8.4353 96.7015 8.0202 88.7461 11.6608 82.6911C14.616 77.7709 18.9726 74.5034 24.1213 72.2185C25.9302 71.415 27.8229 70.8056 29.7499 70.0821C29.1596 69.0044 28.5922 67.9723 28.0209 66.9441C27.8838 66.7004 27.7429 66.4567 27.5449 66.1101C18.9117 68.9815 11.4971 73.4028 7.10623 81.6971C3.66361 88.2054 3.755 94.8507 7.05672 101.424C9.06365 105.418 12.0493 108.591 15.6366 111.196C22.1639 115.937 29.5594 118.302 37.53 118.865C47.5761 119.574 57.0204 117.601 65.4937 111.95C70.9471 108.313 75.0752 103.564 76.8384 97.0861C77.3144 95.3419 77.4667 93.5102 77.7904 91.5832C75.1932 91.5832 72.9654 91.5832 70.7338 91.5832C68.5136 91.5832 66.2934 91.5832 64.0542 91.5832C62.8051 97.9772 57.3898 103.069 50.8093 103.849C50.4322 102.479 50.0476 101.089 49.7277 99.9308C51.9593 98.7808 54.0805 97.8287 56.0494 96.6253C57.6526 95.6466 58.8865 94.2223 59.2939 92.2802C59.4958 91.3129 59.412 90.6388 58.1286 90.3494C52.2716 89.0279 46.9097 86.5564 42.0009 83.0833C41.4715 82.7063 40.7061 82.4702 40.0587 82.4854C35.2451 82.6149 30.6486 83.6089 26.4139 86.2518C25.5532 84.995 24.7344 83.7993 23.8738 82.5425C27.583 79.9377 31.7339 78.9248 36.0981 78.1174C34.9976 76.8493 34.0988 75.7449 33.1049 74.7281C32.8535 74.4691 32.2671 74.3359 31.8977 74.4234C26.8137 75.6116 22.1867 77.729 18.4166 81.4306C15.3739 84.4162 13.325 87.9769 13.8239 92.3525C14.1019 94.7821 15.1606 97.1242 15.9299 99.7138C15.1339 100.3 13.9801 101.13 12.7728 101.995ZM82.2537 101.123C91.481 104.108 104.334 103.533 113.927 99.71C120.138 97.2346 125.591 93.712 129.296 87.9654C136.235 77.1996 130.424 66.3767 122.922 61.2356C122.708 61.7764 122.586 62.3476 122.282 62.797C121.135 64.4916 121.573 65.6227 123.024 67.066C126.722 70.7333 128.588 75.2117 127.541 80.5318C126.516 85.73 123.234 89.3554 118.969 92.1316C110.789 97.4555 101.668 98.9636 92.1207 98.2705C88.8266 98.0305 85.5706 97.3032 82.2537 96.7929C82.2537 98.1143 82.2537 99.5729 82.2537 101.123ZM118.995 69.5832C110.442 82.8434 98.2748 90.1818 82.5735 91.7356C93.4841 94.9687 104.162 94.824 114.387 89.5078C116.691 88.3082 118.851 86.5336 120.576 84.5838C124.749 79.8654 123.976 73.5057 118.995 69.5832ZM82.4136 106.138C82.0671 108.884 81.7053 111.721 81.3054 114.878C85.3155 115.548 89.375 116.226 93.4993 116.915C93.4993 113.534 93.4993 110.571 93.4993 107.73C89.6835 107.182 85.9895 106.652 82.4136 106.138ZM43.4594 132.807C46.5403 132.4 49.4764 132.011 52.4468 131.615C52.4468 128.428 52.4468 125.457 52.4468 122.494C49.4193 122.891 46.4679 123.279 43.4594 123.671C43.4594 126.615 43.4594 129.547 43.4594 132.807ZM38.7525 123.671C35.7478 123.275 32.7964 122.887 29.7803 122.487C29.7803 125.465 29.7803 128.443 29.7803 131.619C32.766 132.011 35.7059 132.4 38.7525 132.8C38.7525 129.608 38.7525 126.634 38.7525 123.671ZM98.2253 116.816C101.337 116.398 104.273 116.001 107.175 115.613C107.175 112.418 107.175 109.47 107.175 106.572C104.124 106.949 101.184 107.311 98.2253 107.673C98.2253 110.674 98.2253 113.602 98.2253 116.816ZM25.1038 130.473C25.1038 127.064 25.1038 124.121 25.1038 121.268C22.0725 119.897 19.1097 118.561 16.0174 117.159C16.0174 119.878 16.006 122.571 16.0365 125.263C16.0403 125.541 16.2307 125.949 16.4554 126.067C19.2544 127.525 22.0763 128.938 25.1038 130.473ZM57.0928 130.499C60.1279 128.972 62.8242 127.628 65.5013 126.246C65.7946 126.093 66.1754 125.731 66.1792 125.457C66.2287 122.693 66.2097 119.924 66.2097 117.224C63.2926 118.477 60.5164 119.65 57.763 120.88C57.466 121.013 57.1271 121.459 57.1195 121.767C57.07 124.513 57.0928 127.266 57.0928 130.499ZM111.855 114.49C114.909 112.947 117.723 111.538 120.519 110.087C120.747 109.969 120.957 109.569 120.96 109.299C120.995 106.759 120.979 104.219 120.979 101.69C118.051 102.856 115.24 103.949 112.46 105.106C112.179 105.224 111.885 105.723 111.882 106.051C111.832 108.709 111.855 111.363 111.855 114.49ZM121.12 43.5274C120.583 40.6637 120.111 38.0055 119.559 35.3664C119.487 35.0199 119.033 34.5058 118.744 34.4944C116.767 34.4182 114.787 34.4525 112.845 34.4525C113.317 37.56 113.774 40.538 114.227 43.5274C116.448 43.5274 118.614 43.5274 121.12 43.5274ZM112.853 57.3055C114.764 57.3055 116.657 57.3474 118.55 57.2675C118.904 57.2522 119.467 56.7838 119.54 56.4373C120.107 53.7601 120.579 51.0601 121.109 48.242C118.614 48.242 116.402 48.242 114.216 48.242C113.767 51.2352 113.325 54.1828 112.853 57.3055ZM117.704 61.8792C116.714 61.8792 115.907 61.9896 115.145 61.8602C112.361 61.3917 110.4 62.142 109.833 65.1885C109.798 65.3675 109.68 65.5351 109.589 65.6988C108.66 67.4316 107.727 69.1643 106.729 71.0189C108.527 71.0189 110.179 71.0379 111.828 70.9999C112.118 70.9922 112.502 70.8399 112.67 70.619C114.677 67.9876 116.36 65.1619 117.704 61.8792ZM106.885 20.7353C108.306 23.6752 109.631 26.4476 110.994 29.2009C111.135 29.4827 111.497 29.8369 111.763 29.8445C113.675 29.9016 115.595 29.875 117.51 29.875C117.628 29.7417 117.75 29.6084 117.868 29.4751C116.132 26.6837 114.406 23.8809 112.639 21.1085C112.502 20.8914 112.083 20.7581 111.79 20.7543C110.149 20.7201 108.507 20.7353 106.885 20.7353ZM4.71086 106.984C4.07108 111.668 7.58606 119.642 11.4514 121.885C11.4514 119.322 11.459 116.809 11.44 114.295C11.4362 114.04 11.3448 113.713 11.1696 113.538C9.00272 111.314 6.813 109.112 4.71086 106.984ZM70.7909 121.996C75.3684 118.34 78.3655 110.822 77.4743 107.022C75.4446 109.078 73.3196 111.234 71.206 113.397C71.0232 113.583 70.8138 113.861 70.81 114.097C70.7795 116.691 70.7909 119.28 70.7909 121.996ZM132.332 92.1354C130.176 94.169 128.047 96.1759 125.922 98.1867C125.789 98.3124 125.591 98.4761 125.591 98.6246C125.572 101.05 125.576 103.476 125.576 106.1C129.723 102.387 132.393 96.7472 132.332 92.1354ZM92.4787 6.84293C96.2907 9.42871 99.8171 12.3306 102.848 15.8075C103.012 15.9941 103.328 16.1388 103.576 16.1464C105.019 16.1769 106.462 16.1616 108.268 16.1616C103.496 11.7022 98.37 8.6366 92.4787 6.84293ZM92.5206 84.8884C98.3738 83.0909 103.507 80.0558 108.256 75.5964C106.451 75.5964 105.004 75.5735 103.561 75.6154C103.279 75.623 102.94 75.8401 102.742 76.061C99.7448 79.4731 96.2869 82.3369 92.5206 84.8884Z" fill="url(#paint0_linear_160_132)"/>
<path d="M13.7892 27.5786C12.6048 27.609 11.6566 26.7598 11.47 25.5069C10.5331 19.2119 8.27867 16.9346 2.20077 16.1501C0.925019 15.9864 0.0681711 15.0876 0.0567465 13.8957C0.0453219 12.6009 0.959292 11.7136 2.44069 11.5879C6.74777 11.2261 9.82481 8.96404 10.9863 5.22057C11.2491 4.37134 11.3481 3.45737 11.4433 2.56625C11.6032 1.08485 12.4563 0.159456 13.7511 0.170881C15.0382 0.178497 15.9027 1.10389 16.0208 2.59671C16.4435 7.90917 19.669 11.1195 25.0577 11.5879C26.52 11.7174 27.4454 12.6352 27.4149 13.9223C27.3883 15.1562 26.4819 16.0245 25.0995 16.1539C19.5662 16.6719 16.5311 19.7108 16.017 25.2479C15.8837 26.6418 15.0192 27.5481 13.7892 27.5786ZM13.7435 17.0489C14.7374 16.0511 15.9332 14.8591 16.9347 13.8538C15.9522 12.8522 14.7488 11.6222 13.8463 10.7006C12.7686 11.7402 11.5499 12.9093 10.556 13.8652C11.5385 14.8401 12.7305 16.0321 13.7435 17.0489Z" fill="url(#paint1_linear_160_132)"/>
<path d="M122.465 121.661C123.207 122.952 123.912 124.178 124.734 125.606C111.897 132.472 98.3816 134.045 84.0703 131.676C84.3559 130.115 84.6111 128.736 84.8929 127.209C97.9817 129.338 110.492 127.978 122.465 121.661Z" fill="url(#paint2_linear_160_132)"/>
<path d="M17.662 59.023C16.1387 59.4152 14.7754 59.7656 13.2711 60.1502C11.6679 53.8933 11.0967 47.6364 11.6755 41.1472C13.2407 41.2691 14.6383 41.3757 16.1692 41.4938C15.7389 47.4384 16.2073 53.1812 17.662 59.023Z" fill="url(#paint3_linear_160_132)"/>
<path d="M134.136 118.385C132.449 119.878 130.907 121.245 129.246 122.711C128.279 121.421 127.441 120.297 126.527 119.078C127.925 117.822 129.281 116.603 130.754 115.274C131.806 116.241 132.868 117.22 134.136 118.385Z" fill="url(#paint4_linear_160_132)"/>
<path d="M13.2378 31.5773C14.8144 31.9924 16.1701 32.3503 17.6287 32.735C17.3202 34.2049 17.0308 35.5683 16.7147 37.0725C15.2219 36.8288 13.8052 36.5965 12.2324 36.3375C12.5714 34.7229 12.8912 33.2186 13.2378 31.5773Z" fill="url(#paint5_linear_160_132)"/>
<path d="M91.317 45.9113C91.317 49.4796 91.2827 53.0517 91.336 56.62C91.3551 58.0176 90.8486 58.9392 89.6185 59.617C83.1331 63.1929 76.6592 66.7917 70.2043 70.4285C68.9856 71.114 67.9384 71.0607 66.7388 70.3867C60.3296 66.7727 53.9013 63.1853 47.454 59.6437C46.1668 58.9354 45.6565 58.0024 45.6641 56.5514C45.706 49.411 45.706 42.2706 45.6641 35.134C45.6565 33.7364 46.1592 32.8225 47.3893 32.1446C53.8785 28.5725 60.3486 24.9737 66.7997 21.3331C68.0222 20.6438 69.0694 20.6819 70.2652 21.3559C76.6782 24.9661 83.1027 28.5535 89.5538 32.0989C90.841 32.8072 91.3589 33.7517 91.336 35.2026C91.2789 38.7709 91.317 42.343 91.317 45.9113ZM86.7509 45.9379C86.7509 42.9866 86.7205 40.0352 86.77 37.0839C86.7852 36.1813 86.5681 35.6482 85.7075 35.1797C80.2884 32.2284 74.9036 29.2047 69.5226 26.1809C68.8447 25.8001 68.3116 25.7125 67.5766 26.1276C62.1194 29.2123 56.6242 32.2284 51.1746 35.3283C50.7253 35.5834 50.2835 36.3108 50.2797 36.8249C50.2188 42.8685 50.2188 48.916 50.2797 54.9596C50.2835 55.4661 50.7405 56.1858 51.1937 56.441C56.6432 59.5409 62.1194 62.5874 67.6261 65.5845C68.0907 65.8358 68.9285 65.8358 69.3931 65.5845C74.896 62.5874 80.376 59.5371 85.8217 56.4372C86.2711 56.182 86.6938 55.4547 86.709 54.9329C86.7966 51.9359 86.7509 48.935 86.7509 45.9379Z" fill="url(#paint6_linear_160_132)"/>
<path d="M86.6402 14.3222C85.9356 15.5446 85.2273 16.7709 84.4619 18.1C75.9658 13.492 67.1536 12.5438 58.0443 15.6551C51.3114 17.9552 45.9647 22.1557 41.9737 28.0584C33.9079 39.9857 34.3877 57.4388 46.7263 69.4118C45.7476 70.459 44.7613 71.5101 43.7826 72.5574C31.7677 62.3095 26.7218 40.7931 39.2698 23.9874C51.8446 7.15516 73.776 6.05458 86.6402 14.3222Z" fill="url(#paint7_linear_160_132)"/>
<path d="M92.0983 23.9837C93.0732 23.0697 94.1014 22.1024 95.1296 21.1351C105.172 30.8385 109.765 50.961 98.1647 67.1574C86.306 83.7155 65.0828 85.9014 51.5332 78.0983C52.1844 76.8607 52.8432 75.6154 53.4716 74.4196C69.7326 81.0269 84.1201 78.6848 94.4898 64.1222C104.075 50.6602 102.083 36.9202 92.0983 23.9837Z" fill="url(#paint8_linear_160_132)"/>
<path d="M67.1617 97.4594C68.5022 98.1486 69.7551 98.796 71.1108 99.4929C69.1763 103.21 66.3963 106.02 63.0108 108.221C55.2649 113.26 46.6926 114.935 37.5833 114.288C32.7583 113.941 28.1237 112.81 23.7253 110.773C22.9598 110.419 22.2172 110.019 21.3604 109.585C22.1334 108.21 22.8456 106.942 23.5958 105.613C27.3926 107.646 31.3493 108.956 35.5231 109.463C45.3445 110.655 54.5603 109.2 62.5614 102.882C63.4868 102.151 64.2979 101.26 65.0634 100.357C65.7984 99.4929 66.4001 98.5218 67.1617 97.4594Z" fill="url(#paint9_linear_160_132)"/>
<path d="M18.9187 88.5557C20.3429 89.0774 21.6644 89.561 23.0506 90.0675C22.3575 93.0341 23.8655 94.9763 25.9981 96.5339C30.0691 99.5043 34.7951 100.422 39.6963 100.7C40.8273 100.765 41.9659 100.711 43.2645 100.711C43.3445 102.204 43.4169 103.613 43.5083 105.365C41.1358 105.251 38.8775 105.258 36.6459 105.011C31.421 104.432 26.4856 102.962 22.3917 99.4852C19.2462 96.8157 17.5744 93.514 18.6178 89.2564C18.6597 89.0774 18.7625 88.9136 18.9187 88.5557Z" fill="url(#paint10_linear_160_132)"/>
<path d="M82.1739 50.4165C80.6011 50.4165 79.2301 50.4165 77.6269 50.4165C77.6269 48.2877 77.5583 46.1665 77.6535 44.0529C77.703 42.9562 77.3565 42.3507 76.393 41.8137C74.0319 40.4961 71.728 39.068 69.4354 37.6323C68.7195 37.1867 68.1482 37.1296 67.3675 37.5447C65.1169 38.7519 62.8053 39.8487 60.4023 41.0445C59.7207 39.6887 59.0733 38.3978 58.3535 36.9659C61.56 35.3778 64.6333 33.805 67.7598 32.3541C68.2663 32.118 69.1384 32.2246 69.6411 32.5179C73.4988 34.7609 77.3298 37.0535 81.1114 39.426C81.6293 39.7497 82.1053 40.5722 82.1244 41.1777C82.2272 44.2167 82.1739 47.2518 82.1739 50.4165Z" fill="url(#paint11_linear_160_132)"/>
<defs>
<linearGradient id="paint0_linear_160_132" x1="68.5" y1="137.369" x2="68.5" y2="0.136475" gradientUnits="userSpaceOnUse">
<stop stop-color="#1CA7FB"/>
<stop offset="1" stop-color="#17FCD7"/>
</linearGradient>
<linearGradient id="paint1_linear_160_132" x1="13.7362" y1="27.5794" x2="13.7362" y2="0.170776" gradientUnits="userSpaceOnUse">
<stop stop-color="#1CA7FB"/>
<stop offset="1" stop-color="#17FCD7"/>
</linearGradient>
<linearGradient id="paint2_linear_160_132" x1="104.402" y1="132.71" x2="104.402" y2="121.661" gradientUnits="userSpaceOnUse">
<stop stop-color="#1CA7FB"/>
<stop offset="1" stop-color="#17FCD7"/>
</linearGradient>
<linearGradient id="paint3_linear_160_132" x1="14.5585" y1="60.1502" x2="14.5585" y2="41.1472" gradientUnits="userSpaceOnUse">
<stop stop-color="#1CA7FB"/>
<stop offset="1" stop-color="#17FCD7"/>
</linearGradient>
<linearGradient id="paint4_linear_160_132" x1="130.332" y1="122.711" x2="130.332" y2="115.274" gradientUnits="userSpaceOnUse">
<stop stop-color="#1CA7FB"/>
<stop offset="1" stop-color="#17FCD7"/>
</linearGradient>
<linearGradient id="paint5_linear_160_132" x1="14.9305" y1="37.0725" x2="14.9305" y2="31.5773" gradientUnits="userSpaceOnUse">
<stop stop-color="#1CA7FB"/>
<stop offset="1" stop-color="#17FCD7"/>
</linearGradient>
<linearGradient id="paint6_linear_160_132" x1="68.5004" y1="70.918" x2="68.5004" y2="20.833" gradientUnits="userSpaceOnUse">
<stop stop-color="#1CA7FB"/>
<stop offset="1" stop-color="#17FCD7"/>
</linearGradient>
<linearGradient id="paint7_linear_160_132" x1="59.3079" y1="72.5574" x2="59.3079" y2="9.30127" gradientUnits="userSpaceOnUse">
<stop stop-color="#1CA7FB"/>
<stop offset="1" stop-color="#17FCD7"/>
</linearGradient>
<linearGradient id="paint8_linear_160_132" x1="78.2706" y1="82.4375" x2="78.2706" y2="21.1351" gradientUnits="userSpaceOnUse">
<stop stop-color="#1CA7FB"/>
<stop offset="1" stop-color="#17FCD7"/>
</linearGradient>
<linearGradient id="paint9_linear_160_132" x1="46.2356" y1="114.42" x2="46.2356" y2="97.4594" gradientUnits="userSpaceOnUse">
<stop stop-color="#1CA7FB"/>
<stop offset="1" stop-color="#17FCD7"/>
</linearGradient>
<linearGradient id="paint10_linear_160_132" x1="30.9079" y1="105.365" x2="30.9079" y2="88.5557" gradientUnits="userSpaceOnUse">
<stop stop-color="#1CA7FB"/>
<stop offset="1" stop-color="#17FCD7"/>
</linearGradient>
<linearGradient id="paint11_linear_160_132" x1="70.2706" y1="50.4165" x2="70.2706" y2="32.2249" gradientUnits="userSpaceOnUse">
<stop stop-color="#1CA7FB"/>
<stop offset="1" stop-color="#17FCD7"/>
</linearGradient>
</defs>
</svg>
