<svg width="128" height="114" viewBox="0 0 128 114" fill="none" xmlns="http://www.w3.org/2000/svg">
<path d="M0 98.7414C0 70.8874 0 43.0333 0 15.1825C0.0697681 14.9898 0.169437 14.8038 0.205982 14.6044C1.804 5.75385 8.65457 0.00628764 17.6214 0.00296535C23.6713 -0.00035694 29.7212 0.00296535 35.7711 0.00296535C56.4092 0.00296535 77.0439 -0.00700152 97.682 0.00960993C106.151 0.0162545 113.556 6.39505 114.609 14.5911C114.725 15.4981 115.011 15.9134 115.895 16.2324C122.752 18.6842 127.294 24.9999 127.307 32.2823C127.35 53.8739 127.363 75.4622 127.304 97.0537C127.277 106.286 119.593 113.901 110.367 113.911C79.2466 113.941 48.1234 113.934 17.0035 113.914C9.81737 113.911 3.34555 109.243 0.993365 102.446C0.578079 101.236 0.325585 99.974 0 98.7414ZM119.317 46.432C119.317 41.7542 119.337 37.3223 119.313 32.8903C119.284 27.1095 115.396 23.2291 109.606 23.2258C78.9775 23.2158 48.3526 23.2158 17.7244 23.2258C11.937 23.2291 8.02333 27.1195 8.02001 32.8903C8.00672 54.0267 8.0034 75.1631 8.02001 96.2996C8.02333 101.984 11.9702 105.911 17.6613 105.914C48.3294 105.928 78.9974 105.928 109.665 105.914C115.363 105.911 119.274 101.994 119.313 96.3029C119.34 92.366 119.32 88.4291 119.317 84.4921C119.317 84.13 119.277 83.7646 119.247 83.2396C118.702 83.2396 118.22 83.2396 117.739 83.2396C111.024 83.2396 104.31 83.2496 97.5956 83.233C95.6488 83.2297 93.6952 83.2396 91.7583 83.0835C81.5822 82.2729 73.7648 72.1631 75.4891 62.0999C77.0904 52.751 84.4991 46.4552 93.9677 46.4353C101.885 46.4187 109.798 46.432 117.715 46.432C118.194 46.432 118.679 46.432 119.317 46.432ZM8.09642 17.8536C12.545 14.8636 17.4254 15.1792 22.2693 15.1825C49.7746 15.1958 77.2798 15.1892 104.788 15.1892C105.323 15.1892 105.858 15.1892 106.556 15.1892C106.36 14.5646 106.26 14.0396 106.041 13.5712C104.25 9.74724 101.17 7.9964 97.0076 7.9964C70.6186 7.99972 44.233 7.9964 17.844 7.99972C17.5118 7.99972 17.1796 7.99972 16.8507 8.01633C11.7011 8.31534 7.81735 12.538 8.09642 17.8536ZM119.21 75.0934C119.21 68.1365 119.21 61.3291 119.21 54.4952C110.283 54.4952 101.459 54.3424 92.6454 54.555C87.6221 54.6746 83.5091 59.3025 83.3264 64.3557C83.1137 70.2595 87.6586 75.1067 93.5856 75.1465C101.788 75.203 109.988 75.1631 118.19 75.1598C118.513 75.1565 118.835 75.1166 119.21 75.0934Z" fill="url(#paint0_linear_160_137)"/>
<path d="M91.0108 65.1098C91.0174 62.7974 92.8746 60.9403 95.1836 60.9436C97.4826 60.9469 99.3497 62.824 99.3464 65.1297C99.3431 67.4287 97.4527 69.3158 95.1669 69.3058C92.8679 69.2958 91.0041 67.4121 91.0108 65.1098Z" fill="url(#paint1_linear_160_137)"/>
<defs>
<linearGradient id="paint0_linear_160_137" x1="63.672" y1="0" x2="63.672" y2="113.931" gradientUnits="userSpaceOnUse">
<stop stop-color="#1CA7FB"/>
<stop offset="1" stop-color="#17FCD7"/>
</linearGradient>
<linearGradient id="paint1_linear_160_137" x1="95.1786" y1="60.9436" x2="95.1786" y2="69.3059" gradientUnits="userSpaceOnUse">
<stop stop-color="#1CA7FB"/>
<stop offset="1" stop-color="#17FCD7"/>
</linearGradient>
</defs>
</svg>
