<svg width="109" height="133" viewBox="0 0 109 133" fill="none" xmlns="http://www.w3.org/2000/svg">
<path d="M83.4968 132.43C58.1552 132.43 32.8136 132.43 7.47196 132.43C1.50015 130.118 0.0252063 127.943 0.0252063 121.464C0.0252063 94.4655 0.0252063 67.4637 0.0252063 40.4654C0.0252063 35.7147 -0.0468259 30.964 0.0526471 26.2168C0.131539 22.3373 2.06955 19.5418 5.65401 18.0737C6.84082 17.5866 8.22658 17.4597 9.53345 17.4151C12.2947 17.3191 15.0628 17.3877 17.9475 17.3877C17.9475 16.0808 17.8858 14.9317 17.9646 13.7895C18.0504 12.5169 18.1018 11.2101 18.4483 9.99236C19.9061 4.8232 24.8523 1.11183 30.4262 0.974624C33.4618 0.899161 36.5044 0.947183 39.54 0.947183C58.114 0.947183 76.688 1.02265 95.262 0.909452C102.698 0.86486 109.175 6.305 108.989 14.551C108.725 26.1825 108.924 37.8277 108.924 49.466C108.924 67.3505 108.914 85.2385 108.934 103.123C108.938 106.69 107.775 109.747 105.22 112.233C102.719 114.669 99.6731 115.876 96.1984 115.976C94.504 116.024 92.8095 115.983 90.9847 115.983C90.9847 118.716 91.0396 121.279 90.971 123.834C90.8749 127.583 88.4738 130.749 84.9374 131.943C84.4572 132.104 83.977 132.265 83.4968 132.43ZM8.2403 74.7767C8.2403 90.6547 8.2403 106.533 8.2403 122.411C8.2403 124.208 8.24373 124.208 10.0102 124.208C33.6814 124.208 57.3525 124.208 81.0237 124.208C82.7764 124.208 82.7833 124.205 82.7833 122.407C82.7833 90.737 82.7833 59.0668 82.7833 27.3933C82.7833 25.5993 82.7799 25.5959 81.0237 25.5959C57.3525 25.5959 33.6814 25.5959 10.0102 25.5959C8.24373 25.5959 8.2403 25.5993 8.2403 27.3933C8.2403 43.1923 8.2403 58.9845 8.2403 74.7767ZM26.2038 17.3842C26.8658 17.3842 27.3768 17.3842 27.8845 17.3842C45.8171 17.3842 63.7497 17.3911 81.6857 17.3774C84.7522 17.3739 87.2699 18.475 89.177 20.8932C90.6245 22.7283 91.0224 24.855 91.0224 27.1532C90.9984 53.4724 91.0087 79.7881 91.0087 106.107C91.0087 106.642 91.0087 107.177 91.0087 107.761C92.9261 107.761 94.6412 107.839 96.3425 107.743C98.9014 107.596 100.702 105.792 100.702 103.425C100.712 73.4698 100.706 43.5148 100.712 13.5597C100.712 11.7211 99.8309 10.4143 98.2085 9.73511C97.2926 9.35437 96.2225 9.19315 95.2243 9.19315C74.0365 9.16228 52.8522 9.16914 31.6645 9.17257C31.2357 9.17257 30.807 9.15885 30.3816 9.20001C28.2104 9.42297 26.3718 10.9288 26.2312 12.757C26.1111 14.2354 26.2038 15.7309 26.2038 17.3842Z" fill="url(#paint0_linear_160_144)"/>
<path d="M46.2591 56.4154C39.9237 56.4154 33.5917 56.4188 27.2563 56.4119C24.5191 56.4085 22.6497 54.7552 22.6291 52.3404C22.6085 49.905 24.4676 48.2002 27.1808 48.2002C39.9339 48.1968 52.6871 48.1934 65.4436 48.2002C67.6183 48.2002 69.1447 49.291 69.7141 51.1947C70.2149 52.8686 69.6078 54.7689 68.0436 55.6573C67.2341 56.1169 66.1982 56.3708 65.2618 56.381C58.9264 56.4462 52.591 56.4154 46.2591 56.4154Z" fill="url(#paint1_linear_160_144)"/>
<path d="M46.3864 64.6339C52.6773 64.6339 58.9681 64.6305 65.2589 64.6339C67.9927 64.6374 69.8621 66.2941 69.8792 68.7123C69.8929 71.1374 68.027 72.8456 65.3172 72.8456C52.6052 72.8524 39.8967 72.8524 27.1847 72.8456C24.4818 72.8456 22.6124 71.1237 22.633 68.6986C22.6536 66.2735 24.5092 64.6339 27.2568 64.6305C33.6299 64.6305 40.0099 64.6339 46.3864 64.6339Z" fill="url(#paint2_linear_160_144)"/>
<path d="M46.2527 81.0675C52.5881 81.0675 58.92 81.0641 65.2554 81.0675C67.9927 81.071 69.8621 82.7277 69.8792 85.1425C69.8964 87.5676 68.027 89.2792 65.3206 89.2792C52.6086 89.286 39.9001 89.286 27.1882 89.2792C24.4852 89.2792 22.6124 87.5607 22.633 85.1356C22.6536 82.7105 24.5058 81.0675 27.2533 81.0641C33.5853 81.0641 39.9207 81.0675 46.2527 81.0675Z" fill="url(#paint3_linear_160_144)"/>
<defs>
<linearGradient id="paint0_linear_160_144" x1="54.4966" y1="0.90918" x2="54.4966" y2="132.43" gradientUnits="userSpaceOnUse">
<stop stop-color="#1CA7FB"/>
<stop offset="1" stop-color="#17FCD7"/>
</linearGradient>
<linearGradient id="paint1_linear_160_144" x1="46.2573" y1="48.1963" x2="46.2573" y2="56.4227" gradientUnits="userSpaceOnUse">
<stop stop-color="#1CA7FB"/>
<stop offset="1" stop-color="#17FCD7"/>
</linearGradient>
<linearGradient id="paint2_linear_160_144" x1="46.2561" y1="64.6305" x2="46.2561" y2="72.8507" gradientUnits="userSpaceOnUse">
<stop stop-color="#1CA7FB"/>
<stop offset="1" stop-color="#17FCD7"/>
</linearGradient>
<linearGradient id="paint3_linear_160_144" x1="46.2561" y1="81.0641" x2="46.2561" y2="89.2843" gradientUnits="userSpaceOnUse">
<stop stop-color="#1CA7FB"/>
<stop offset="1" stop-color="#17FCD7"/>
</linearGradient>
</defs>
</svg>
