<svg width="186" height="154" viewBox="0 0 186 154" fill="none" xmlns="http://www.w3.org/2000/svg">
<path d="M0 76.1865C1.05925 74.2095 2.69167 73.5202 4.92626 73.6109C8.41237 73.7524 11.9057 73.6472 15.5986 73.6472C15.5986 70.2554 15.5914 67.0123 15.6022 63.7693C15.6131 60.5698 16.9118 59.2602 20.1077 59.2312C22.1609 59.213 24.2214 59.2856 26.271 59.184C26.7788 59.1586 27.5334 58.7342 27.7075 58.3061C29.67 53.4561 31.5382 48.5697 33.5951 43.2734C32.242 41.9784 30.5189 40.3786 28.8502 38.7245C26.3471 36.2432 26.3725 34.4911 28.9046 31.959C35.0969 25.7595 41.2928 19.5636 47.4923 13.3713C50.155 10.7123 51.8128 10.7304 54.5226 13.4293C55.8902 14.7969 57.2142 16.2117 58.6544 17.4958C59.0135 17.8151 59.8479 17.9348 60.3049 17.7534C64.8322 15.9469 69.3376 14.0787 73.8177 12.1488C74.2675 11.9565 74.7536 11.2528 74.779 10.7667C74.8842 8.59737 74.7971 6.41719 74.8334 4.24427C74.8842 1.37485 76.2409 0.0181379 79.0886 0.0108828C88.2736 -0.00362758 97.4587 -0.00362758 106.644 0.0108828C109.488 0.0145103 110.852 1.37485 110.906 4.23702C110.946 6.3519 110.957 8.46678 110.895 10.5817C110.87 11.5067 111.182 11.9202 112.06 12.2721C116.532 14.0569 120.958 15.9577 125.431 17.7461C125.892 17.9311 126.73 17.8187 127.082 17.5031C128.692 16.0448 130.179 14.4487 131.732 12.9287C133.782 10.9227 135.722 10.8719 137.725 12.8598C144.24 19.335 150.733 25.8284 157.212 32.3399C159.273 34.4113 159.24 36.3629 157.147 38.4705C155.406 40.2226 153.606 41.9167 152.159 43.3242C154.194 48.5697 156.062 53.4561 158.025 58.3061C158.199 58.7342 158.957 59.1586 159.465 59.184C161.576 59.282 163.695 59.2022 165.81 59.2312C168.777 59.2747 170.119 60.6278 170.134 63.5843C170.152 66.8455 170.137 70.1031 170.137 73.6436C171.984 73.6436 173.768 73.6436 175.553 73.6436C177.305 73.6436 179.068 73.756 180.81 73.6145C183.048 73.4332 184.673 74.2131 185.74 76.1829C185.74 76.9084 185.74 77.6339 185.74 78.3594C184.666 80.3147 183.033 80.9423 180.802 80.935C156.744 80.8733 132.686 80.8987 108.628 80.8987C108.204 80.8987 107.779 80.9132 107.358 80.8842C105.272 80.7391 103.785 79.2446 103.767 77.2929C103.749 75.2724 105.291 73.6871 107.482 73.6617C111.954 73.6109 116.427 73.6436 120.9 73.6436C121.557 73.6436 122.213 73.6436 122.877 73.6436C122.01 61.7705 111.2 46.8647 92.7791 46.9155C74.6303 46.9627 63.7511 61.6363 62.8588 73.6436C65.8189 73.6436 68.7717 73.6436 71.7246 73.6436C73.9628 73.6436 76.201 73.5892 78.432 73.669C80.4961 73.7415 81.987 75.3413 81.9689 77.2929C81.9544 79.1684 80.5215 80.6847 78.5589 80.8733C78.0801 80.9205 77.594 80.8987 77.1079 80.8987C53.0498 80.8987 28.9916 80.877 4.93351 80.935C2.70618 80.9423 1.06651 80.322 0 78.3594C0 77.6375 0 76.912 0 76.1865ZM55.3243 73.5928C57.7947 53.4162 73.8939 40.1864 91.7416 39.6567C100.491 39.3992 108.457 41.9022 115.437 47.2057C124.147 53.8225 129.015 62.6992 130.354 73.5093C141.247 73.5093 152.025 73.5093 162.723 73.5093C162.723 71.1079 162.723 68.8479 162.723 66.4827C160.404 66.4827 158.235 66.4972 156.066 66.4791C153.498 66.4537 152.351 65.6484 151.767 63.2251C150.255 56.9494 147.799 51.0836 144.458 45.5697C143.155 43.4185 143.348 42.0256 145.143 40.2263C146.718 38.6483 148.361 37.1319 149.863 35.6954C144.654 30.5007 139.626 25.4874 134.427 20.3C133.067 21.722 131.634 23.2746 130.147 24.7728C128.054 26.8768 126.791 27.0146 124.223 25.4729C118.905 22.2842 113.26 19.8973 107.22 18.4608C104.478 17.8078 103.673 16.7377 103.655 13.8501C103.644 11.6953 103.651 9.54054 103.651 7.37125C96.3522 7.37125 89.3075 7.37125 82.0668 7.37125C82.0668 9.68927 82.085 11.913 82.0632 14.1331C82.0378 16.6651 81.218 17.7933 78.7548 18.3918C72.5444 19.8973 66.7294 22.3241 61.2626 25.6252C58.9845 27.0037 57.6314 26.826 55.7741 24.9505C54.207 23.3725 52.7197 21.7183 51.4682 20.3834C46.161 25.6252 41.115 30.6095 35.9385 35.7208C37.3242 37.0594 38.8224 38.4633 40.2734 39.9143C42.4717 42.1054 42.6169 43.3133 41.0207 45.976C37.8647 51.2432 35.5104 56.8333 34.063 62.808C33.3665 65.6847 32.3399 66.4718 29.3617 66.4864C27.2178 66.4972 25.0702 66.49 22.988 66.49C22.988 69.0656 22.988 71.3255 22.988 73.6C33.8236 73.5928 44.5141 73.5928 55.3243 73.5928Z" fill="url(#paint0_linear_180_59)"/>
<path d="M94.8978 130.364C96.3524 127.782 97.7092 125.369 99.0659 122.957C103.854 114.429 108.657 105.907 113.42 97.3644C114.291 95.8009 115.408 94.7997 117.294 94.9593C118.938 95.0971 120.233 96.287 120.461 97.9339C120.552 98.5869 120.534 99.2616 120.534 99.9254C120.538 115.401 120.538 130.872 120.538 146.348C120.538 146.529 120.538 146.71 120.538 146.892C120.516 149.848 119.17 151.539 116.877 151.495C114.588 151.452 113.29 149.765 113.286 146.776C113.279 136.259 113.282 125.739 113.282 115.223C113.282 114.57 113.282 113.921 113.282 112.713C112.684 113.645 112.357 114.102 112.085 114.588C107.591 122.591 103.092 130.589 98.6269 138.606C97.7926 140.105 96.8349 141.392 94.9558 141.425C92.9861 141.458 92.0066 140.115 91.1396 138.559C86.7067 130.593 82.2303 122.649 77.7683 114.701C77.4781 114.182 77.1734 113.67 76.5059 113.173C76.5059 113.786 76.5059 114.396 76.5059 115.009C76.5059 125.587 76.5132 136.165 76.4914 146.743C76.4914 147.574 76.4225 148.452 76.1541 149.228C75.6135 150.791 74.021 151.669 72.4104 151.455C70.778 151.238 69.512 150.004 69.2943 148.386C69.2363 147.969 69.2508 147.541 69.2508 147.12C69.2471 131.163 69.2471 115.205 69.2508 99.2471C69.2508 96.5917 70.466 95.0717 72.6281 94.9557C74.4346 94.8577 75.5192 95.8299 76.35 97.3245C80.6414 105.026 84.9655 112.705 89.2823 120.392C91.1142 123.646 92.9498 126.904 94.8978 130.364Z" fill="url(#paint1_linear_180_59)"/>
<path d="M21.7184 123.204C21.7184 117.773 21.3085 112.299 21.82 106.916C22.4911 99.8492 28.8757 94.4441 35.993 94.3462C39.8455 94.2954 43.7778 94.1358 47.5468 94.7742C54.1889 95.8988 59.1261 102.229 59.1696 108.875C59.1841 111.2 57.9253 112.738 55.8939 112.883C53.7319 113.036 52.2192 111.668 51.9398 109.31C51.3231 104.072 48.548 101.572 43.3316 101.558C41.097 101.551 38.8588 101.532 36.6242 101.565C32.213 101.63 28.8104 104.743 28.7559 109.143C28.6399 118.506 28.6471 127.876 28.7523 137.239C28.8031 141.574 32.0897 144.69 36.4247 144.813C39.022 144.889 41.623 144.886 44.2167 144.817C48.5408 144.697 51.5227 141.809 51.9108 137.467C51.9362 137.166 51.9471 136.861 52.0051 136.568C52.415 134.522 54.0692 133.274 56.0499 133.513C57.9253 133.738 59.1406 135.225 59.1623 137.322C59.2385 144.403 53.7065 151.045 46.5021 151.858C42.392 152.322 38.1296 152.348 34.0305 151.825C26.7571 150.9 21.5878 144.53 21.4681 136.988C21.3956 132.396 21.4536 127.803 21.4536 123.211C21.5443 123.204 21.6314 123.204 21.7184 123.204Z" fill="url(#paint2_linear_180_59)"/>
<path d="M147.363 92.6848C152.551 92.7355 157.201 94.9121 160.713 99.3849C162.222 101.304 162.058 103.35 160.43 104.714C158.761 106.107 156.624 105.824 155.043 103.879C152.427 100.669 149.068 99.3559 145.07 100.205C141.363 100.992 138.882 103.361 137.779 107.032C136.081 112.684 139.858 118.578 145.698 119.413C147.49 119.67 149.326 119.688 151.081 120.08C158.623 121.767 164.014 128.445 164.257 136.263C164.489 143.728 159.396 150.773 152.173 152.964C144.722 155.228 136.673 152.188 132.646 145.586C132.552 145.43 132.457 145.274 132.37 145.118C131.162 142.934 131.594 140.834 133.469 139.76C135.301 138.712 137.286 139.281 138.559 141.363C140.199 144.044 142.451 145.764 145.578 146.293C151.197 147.24 156.276 143.337 156.965 137.533C157.586 132.316 153.443 127.277 148.063 126.94C144.127 126.693 140.409 125.957 137.166 123.559C131.206 119.159 128.714 111.697 130.89 104.717C133.089 97.6509 139.27 93.0076 147.363 92.6848Z" fill="url(#paint3_linear_180_59)"/>
<path d="M96.4782 77.2929C96.4636 79.288 94.7405 80.9531 92.7526 80.8878C90.83 80.8261 89.2411 79.1756 89.252 77.2493C89.2629 75.2505 90.9824 73.5964 92.9775 73.6617C94.9038 73.7197 96.4927 75.3702 96.4782 77.2929Z" fill="url(#paint4_linear_180_59)"/>
<defs>
<linearGradient id="paint0_linear_180_59" x1="92.8698" y1="0" x2="92.8698" y2="80.9351" gradientUnits="userSpaceOnUse">
<stop stop-color="#1CA7FB"/>
<stop offset="1" stop-color="#17FCD7"/>
</linearGradient>
<linearGradient id="paint1_linear_180_59" x1="94.8928" y1="94.9426" x2="94.8928" y2="151.496" gradientUnits="userSpaceOnUse">
<stop stop-color="#1CA7FB"/>
<stop offset="1" stop-color="#17FCD7"/>
</linearGradient>
<linearGradient id="paint2_linear_180_59" x1="40.3007" y1="94.2909" x2="40.3007" y2="152.212" gradientUnits="userSpaceOnUse">
<stop stop-color="#1CA7FB"/>
<stop offset="1" stop-color="#17FCD7"/>
</linearGradient>
<linearGradient id="paint3_linear_180_59" x1="147.189" y1="92.6848" x2="147.189" y2="153.707" gradientUnits="userSpaceOnUse">
<stop stop-color="#1CA7FB"/>
<stop offset="1" stop-color="#17FCD7"/>
</linearGradient>
<linearGradient id="paint4_linear_180_59" x1="92.8651" y1="73.6598" x2="92.8651" y2="80.8897" gradientUnits="userSpaceOnUse">
<stop stop-color="#1CA7FB"/>
<stop offset="1" stop-color="#17FCD7"/>
</linearGradient>
</defs>
</svg>
