<svg width="138" height="154" viewBox="0 0 138 154" fill="none" xmlns="http://www.w3.org/2000/svg">
<path d="M65.7134 0.624573C67.3413 1.33703 68.9414 2.19278 69.3513 4.05153C69.7096 5.67148 69.7016 7.37501 69.8688 9.1661C70.1912 9.19396 70.5653 9.26163 70.9434 9.26163C77.26 9.26959 83.5806 9.24571 89.8972 9.28949C90.8405 9.29745 91.2465 9.03077 91.5768 8.11135C93.2684 3.45848 98.0168 0.736019 102.709 1.62361C107.537 2.53507 111.036 6.67449 111.044 11.4866C111.056 16.2947 107.565 20.45 102.737 21.3774C98.0487 22.2769 93.348 19.5505 91.5291 14.9454C91.342 14.4677 90.7649 13.803 90.3589 13.7991C83.5488 13.7274 76.7346 13.7473 69.8131 13.7473C69.8131 17.8231 69.8131 21.8112 69.8131 25.8631C85.9608 25.8631 102.017 25.8631 118.061 25.8631C120.696 19.8569 124.871 17.23 129.986 18.3445C134.774 19.3913 138.026 23.4391 137.982 28.295C137.938 33.0951 134.555 37.0793 129.719 38.0266C124.716 39.0057 120.505 36.2793 118.081 30.4562C102.041 30.4562 85.9807 30.4562 69.7056 30.4562C69.7056 31.1289 69.7056 31.7578 69.7056 32.3827C69.6936 36.2474 68.3881 37.8754 64.6308 38.7391C56.2127 40.6734 49.1956 44.9243 43.6074 51.4956C24.9402 73.4385 36.2599 107.629 64.3482 114.164C68.4837 115.127 69.6339 116.54 69.7096 120.743C69.7175 121.129 69.7693 121.519 69.8091 122.017C70.3464 122.049 70.828 122.101 71.3056 122.101C86.4304 122.105 101.551 122.097 116.676 122.124C117.691 122.124 118.212 121.917 118.602 120.855C120.31 116.174 125.106 113.543 129.946 114.494C134.631 115.414 138.018 119.597 137.99 124.417C137.962 129.305 134.543 133.301 129.628 134.196C124.955 135.048 120.302 132.366 118.567 127.816C118.427 127.446 118.296 127.076 118.141 126.654C102.073 126.654 86.0165 126.654 69.8369 126.654C69.8369 130.634 69.8369 134.575 69.8369 138.67C70.3106 138.702 70.7842 138.758 71.2618 138.758C77.4312 138.766 83.6005 138.742 89.7698 138.782C90.745 138.79 91.2345 138.559 91.6007 137.568C93.3839 132.748 98.3074 130.097 103.195 131.203C107.916 132.274 111.311 136.712 111.036 141.456C110.742 146.551 106.817 150.551 101.671 151.005C97.3521 151.383 93.1888 148.676 91.5689 144.386C91.3022 143.681 91.0873 143.228 90.1639 143.231C83.6483 143.279 77.1287 143.255 70.6131 143.263C70.3743 143.263 70.1315 143.327 69.7096 143.387C69.7096 144.78 69.7295 146.161 69.7056 147.538C69.6459 151.471 67.015 153.6 63.1303 153.015C57.4067 152.151 51.8464 150.718 46.4452 148.653C41.6292 146.81 40.0371 142.929 42.1864 138.252C43.468 135.458 44.7099 132.644 46.083 129.894C46.7199 128.612 46.5766 127.796 45.3188 127.076C44.1128 126.387 42.9705 125.587 41.8242 124.795C40.5227 123.9 40.2043 122.582 40.9725 121.476C41.7008 120.429 42.9864 120.238 44.272 121.046C45.6611 121.917 47.0303 122.821 48.3836 123.748C50.927 125.492 51.727 128.238 50.4613 131.068C49.0642 134.192 47.5836 137.277 46.1666 140.394C45.2631 142.384 45.7607 143.554 47.8184 144.362C52.9688 146.388 58.2983 147.753 63.7671 148.597C64.8458 148.764 65.2119 148.426 65.208 147.371C65.192 138.284 65.1801 129.197 65.2199 120.114C65.2239 118.889 64.4398 118.809 63.6119 118.614C55.2136 116.648 47.8582 112.719 42.0232 106.375C30.8587 94.2351 27.1134 79.9899 31.8458 64.1885C36.5186 48.602 47.1816 38.6913 63.0308 34.52C65.188 33.9509 65.196 33.9946 65.196 31.6821C65.196 23.4391 65.196 15.1961 65.196 6.95709C65.196 5.03464 65.1761 5.0426 63.2656 5.31724C57.8326 6.10532 52.5787 7.54616 47.4721 9.55218C45.3785 10.3761 44.881 11.6139 45.8562 13.6478C47.0542 16.1514 48.304 18.635 49.4941 21.1426C51.2374 24.8163 50.2065 28.4582 46.7358 30.5557C42.2859 33.2424 38.2699 36.4465 34.6638 40.1958C31.8419 43.1332 28.1243 43.3203 24.8725 40.7928C22.6754 39.0853 20.5062 37.338 18.3091 35.6345C16.5897 34.3011 15.2523 34.5041 14.0424 36.2952C9.98653 42.2974 6.87401 48.7533 4.76051 55.6828C4.10378 57.8361 4.74459 58.9625 6.98147 59.4879C9.73578 60.1367 12.514 60.6979 15.2603 61.3705C19.149 62.3258 21.2266 65.4224 20.7251 69.3588C20.0684 74.5092 20.0525 79.6516 20.8286 84.7941C21.3819 88.4638 19.1888 91.7594 15.5668 92.6749C12.6772 93.4033 9.75966 94.0242 6.86605 94.7287C4.9237 95.2023 4.23911 96.3804 4.82022 98.2671C7.00137 105.332 10.2054 111.911 14.4046 118.001C15.4553 119.525 16.9002 119.74 18.3728 118.594C20.6057 116.851 22.7948 115.052 25.0158 113.296C28.391 110.634 31.9453 110.841 35.0618 113.838C35.8499 114.594 36.6818 115.306 37.4818 116.047C38.6202 117.105 38.7873 118.311 37.9475 119.334C37.1077 120.357 35.7186 120.413 34.5126 119.402C33.5255 118.57 32.6061 117.659 31.6428 116.799C30.3931 115.68 29.3741 115.609 28.0447 116.644C25.7681 118.411 23.5431 120.246 21.2784 122.025C17.5808 124.927 13.2105 124.238 10.5637 120.353C6.20135 113.961 2.84603 107.075 0.553433 99.6761C-0.83168 95.2063 1.38928 91.3455 5.95856 90.3106C8.66908 89.6937 11.3836 89.0887 14.0901 88.4399C15.8971 88.0101 16.6176 86.9553 16.3549 85.1961C15.5469 79.8069 15.5867 74.4137 16.2394 69.0165C16.4862 66.9707 15.8733 66.095 13.8354 65.6254C11.1249 65.0045 8.40639 64.4114 5.69586 63.7905C1.37734 62.8034 -0.919244 58.9585 0.346462 54.7395C2.6311 47.1293 6.0302 40.0446 10.5239 33.4852C12.9359 29.9627 17.3061 29.2423 20.7092 31.8135C23.0098 33.5528 25.2347 35.3837 27.5074 37.1549C29.1353 38.4246 30.2259 38.3609 31.6588 36.8564C35.3524 32.9837 39.4958 29.6841 44.077 26.9218C45.9517 25.7914 46.2462 24.7685 45.3149 22.8262C44.1128 20.3226 42.8631 17.843 41.6809 15.3275C39.7505 11.2318 41.3784 7.12027 45.5855 5.45655C50.9628 3.33112 56.5072 1.80669 62.2228 0.911148C62.4974 0.867366 62.7601 0.724078 63.0268 0.624573C63.9223 0.624573 64.8179 0.624573 65.7134 0.624573ZM128.095 22.6511C124.963 22.6033 122.455 25.0193 122.431 28.1079C122.412 31.1289 124.835 33.6285 127.844 33.6882C130.941 33.7519 133.476 31.2921 133.492 28.2074C133.516 25.1506 131.132 22.6988 128.095 22.6511ZM95.4695 140.939C95.4456 144.039 97.9332 146.563 101.002 146.547C103.987 146.531 106.503 144.039 106.546 141.054C106.59 137.998 104.075 135.486 100.97 135.49C97.9054 135.498 95.4934 137.886 95.4695 140.939ZM127.948 118.837C124.887 118.849 122.455 121.253 122.431 124.286C122.408 127.35 124.939 129.902 127.992 129.89C131.061 129.878 133.532 127.342 133.496 124.246C133.457 121.205 131.017 118.825 127.948 118.837ZM100.914 17.0191C103.995 17.0469 106.554 14.5434 106.55 11.4985C106.55 8.51335 104.063 6.01378 101.062 5.97795C97.9492 5.94213 95.4695 8.38996 95.4695 11.4985C95.4655 14.5473 97.8775 16.9912 100.914 17.0191Z" fill="url(#paint0_linear_180_51)"/>
<path d="M89.9888 101.272C83.3219 101.272 76.6551 101.292 69.9922 101.268C57.7371 101.224 47.906 93.1127 45.5617 81.1482C42.9308 67.707 53.0126 53.9196 66.6488 52.8131C73.0769 52.2917 79.5686 52.5743 86.0325 52.5424C87.533 52.5345 88.4484 53.5216 88.4126 54.839C88.3808 56.1445 87.4653 56.9883 85.9051 56.9963C80.6831 57.0241 75.457 57.0082 70.235 57.0122C60.2327 57.0162 52.1489 63.3487 50.131 72.7539C47.508 84.9971 56.6068 96.5556 69.3315 96.7347C83.107 96.9297 96.8905 96.9058 110.67 96.7347C120.891 96.6073 129.349 88.6867 130.173 78.9073C131.057 68.4473 124.37 59.4481 114.089 57.4102C112.254 57.048 110.332 57.048 108.449 57.0241C104.17 56.9684 99.8915 57.0202 95.6128 56.9963C93.973 56.9883 92.9302 56.1326 92.954 54.8191C92.9779 53.5653 93.6983 52.5663 94.9203 52.5902C102.16 52.7375 109.484 51.615 116.62 53.3862C128.159 56.252 135.662 67.2095 134.647 79.3412C133.711 90.5295 124.346 100.138 112.955 100.994C106.324 101.491 99.6328 101.2 92.97 101.26C91.9789 101.28 90.9838 101.272 89.9888 101.272Z" fill="url(#paint1_linear_180_51)"/>
<path d="M86.0631 80.8417C86.0631 82.5771 86.087 84.3124 86.0552 86.0438C86.0273 87.6041 85.2153 88.5036 83.8939 88.5315C82.5247 88.5633 81.5894 87.612 81.5814 86.008C81.5575 79.7113 81.5535 73.4107 81.5854 67.114C81.5933 65.4662 82.4531 64.6781 84.1009 64.6502C85.7407 64.6223 87.3806 64.6263 89.0204 64.6462C92.7459 64.694 95.8266 67.1219 96.4714 70.4932C97.148 74.0475 95.3848 77.164 91.8304 78.6964C91.6076 78.7919 91.3847 78.8954 90.9946 79.0745C92.527 80.8099 94.0036 82.4537 95.4445 84.1294C95.8584 84.611 96.2883 85.1403 96.4873 85.7214C96.8455 86.7802 96.4634 87.6916 95.4723 88.2449C94.4176 88.8379 93.4265 88.5912 92.6464 87.7275C90.915 85.813 89.2314 83.8587 87.5239 81.9203C87.1457 81.4905 86.7557 81.0686 86.3696 80.6427C86.2701 80.7143 86.1666 80.778 86.0631 80.8417ZM86.1746 74.8236C87.5159 74.74 88.7179 74.7838 89.8682 74.5569C91.317 74.2744 92.1568 73.1082 92.0971 71.8026C92.0374 70.4852 90.9468 69.3031 89.506 69.1757C88.4313 69.0802 87.3448 69.1558 86.1746 69.1558C86.1746 71.0265 86.1746 72.7897 86.1746 74.8236Z" fill="url(#paint2_linear_180_51)"/>
<path d="M109.543 80.1054C109.543 82.2507 109.591 84.1771 109.527 86.1035C109.467 87.9424 107.836 89.1524 106.427 88.3205C105.782 87.9384 105.125 86.9553 105.113 86.2389C105.01 79.8347 105.038 73.4305 105.061 67.0224C105.069 65.4542 105.897 64.682 107.489 64.6542C109.181 64.6223 110.872 64.6343 112.564 64.6502C117.022 64.694 120.453 67.9339 120.572 72.1967C120.692 76.3719 117.324 79.8466 112.879 80.0974C111.848 80.1571 110.805 80.1054 109.543 80.1054ZM109.651 69.1478C109.651 71.3688 109.651 73.4266 109.651 75.6873C111.024 75.6037 112.321 75.6555 113.563 75.4206C115.127 75.1261 116.162 73.6256 116.055 72.1609C115.939 70.6086 114.658 69.2832 113.046 69.1677C111.963 69.0842 110.869 69.1478 109.651 69.1478Z" fill="url(#paint3_linear_180_51)"/>
<path d="M65.7487 69.1718C65.7487 70.9589 65.7487 72.5351 65.7487 74.3461C67.3169 74.3461 68.8333 74.3301 70.3498 74.35C72.2364 74.3739 73.2235 75.1859 73.1877 76.6466C73.1558 78.0437 72.2006 78.8118 70.3856 78.8437C68.897 78.8715 67.4044 78.8477 65.8044 78.8477C65.8044 80.5512 65.8044 82.1632 65.8044 84.006C67.488 84.006 69.2115 83.9981 70.9309 84.01C72.8215 84.0219 73.8126 84.814 73.7887 86.2708C73.7648 87.7116 72.7578 88.4798 70.8593 88.4877C68.5229 88.4957 66.1825 88.5076 63.8461 88.4838C62.0113 88.4639 61.2112 87.6638 61.2073 85.8329C61.1913 79.6755 61.1913 73.5182 61.2073 67.3608C61.2112 65.5219 62.0113 64.7179 63.8302 64.698C66.2661 64.6702 68.706 64.6741 71.1419 64.698C72.7936 64.7139 73.7569 65.5378 73.7847 66.8951C73.8166 68.3081 72.8295 69.1559 71.0941 69.1718C69.3627 69.1837 67.6313 69.1718 65.7487 69.1718Z" fill="url(#paint4_linear_180_51)"/>
<defs>
<linearGradient id="paint0_linear_180_51" x1="68.9951" y1="0.624573" x2="68.9951" y2="153.111" gradientUnits="userSpaceOnUse">
<stop stop-color="#1CA7FB"/>
<stop offset="1" stop-color="#17FCD7"/>
</linearGradient>
<linearGradient id="paint1_linear_180_51" x1="89.9405" y1="52.3735" x2="89.9405" y2="101.291" gradientUnits="userSpaceOnUse">
<stop stop-color="#1CA7FB"/>
<stop offset="1" stop-color="#17FCD7"/>
</linearGradient>
<linearGradient id="paint2_linear_180_51" x1="89.0909" y1="64.6303" x2="89.0909" y2="88.5696" gradientUnits="userSpaceOnUse">
<stop stop-color="#1CA7FB"/>
<stop offset="1" stop-color="#17FCD7"/>
</linearGradient>
<linearGradient id="paint3_linear_180_51" x1="112.807" y1="64.6342" x2="112.807" y2="88.5881" gradientUnits="userSpaceOnUse">
<stop stop-color="#1CA7FB"/>
<stop offset="1" stop-color="#17FCD7"/>
</linearGradient>
<linearGradient id="paint4_linear_180_51" x1="67.4922" y1="64.6786" x2="67.4922" y2="88.4979" gradientUnits="userSpaceOnUse">
<stop stop-color="#1CA7FB"/>
<stop offset="1" stop-color="#17FCD7"/>
</linearGradient>
</defs>
</svg>
