<svg width="158" height="141" viewBox="0 0 158 141" fill="none" xmlns="http://www.w3.org/2000/svg">
<path d="M0 18.2467C0.543125 17.1605 0.958698 15.9878 1.65406 15.0085C3.26698 12.7332 5.56292 11.5153 8.35672 11.5029C17.4582 11.4577 26.5638 11.4741 35.6652 11.4865C37.3563 11.4906 38.352 12.3875 38.3603 13.7865C38.3644 15.239 37.3481 16.0907 35.5335 16.0948C26.7901 16.103 18.0466 16.0948 9.30719 16.103C6.11839 16.1071 4.63714 17.5472 4.63714 20.662C4.63302 44.1727 4.63302 67.6793 4.63302 91.1901C4.63302 91.5974 4.63302 92.0047 4.63302 92.6836C5.39833 92.6836 6.08547 92.6836 6.77672 92.6836C45.0917 92.6836 83.4026 92.6836 121.718 92.6878C122.384 92.6878 123.059 92.6672 123.721 92.7495C124.894 92.8976 125.573 93.6094 125.663 94.7862C125.758 96.0247 125.178 96.8887 123.956 97.1727C123.318 97.3208 122.631 97.3002 121.964 97.3002C83.6495 97.3043 45.3386 97.3043 7.02359 97.3043C6.30766 97.3043 5.5876 97.3043 4.63302 97.3043C4.63302 98.5387 4.63302 99.6949 4.63302 100.851C4.63302 103.571 4.61656 106.291 4.63714 109.014C4.65771 111.627 6.08135 113.113 8.68177 113.273C9.19609 113.306 9.71042 113.289 10.2247 113.289C56.0982 113.289 101.972 113.289 147.845 113.285C148.565 113.285 149.289 113.285 149.997 113.191C151.766 112.956 153.227 111.747 153.281 110.031C153.408 105.842 153.322 101.645 153.322 97.3084C151.52 97.3084 149.833 97.3084 148.146 97.3084C143.982 97.3084 139.814 97.3208 135.65 97.3002C133.847 97.292 132.769 96.4073 132.753 95.0084C132.736 93.6135 133.806 92.7042 135.604 92.696C140.9 92.6754 146.199 92.6878 151.495 92.6878C152.05 92.6878 152.61 92.6878 153.375 92.6878C153.375 92.013 153.375 91.474 153.375 90.9308C153.375 67.6258 153.375 44.3249 153.375 21.0199C153.375 17.4732 152.005 16.1071 148.434 16.1071C136.913 16.103 125.396 16.1071 113.875 16.1071C113.369 16.1071 112.867 16.1071 112.044 16.1071C112.513 16.7572 112.822 17.1934 113.135 17.6254C131.881 43.5514 115.908 80.3893 84.1679 84.4174C61.3855 87.31 40.2777 71.5223 36.772 48.9662C33.1512 25.6735 49.3627 3.75515 72.6841 0.459371C79.037 -0.437608 85.2994 0.0602566 91.4302 1.98177C92.0515 2.17515 92.9155 2.42203 93.1295 2.89109C93.4916 3.67698 93.7096 4.75088 93.4586 5.53677C93.1171 6.61479 92.0309 6.88224 90.8911 6.62302C88.3401 6.05109 85.8096 5.28166 83.2257 4.97718C62.1878 2.52489 43.664 17.2181 41.1047 38.3012C38.747 57.7467 52.8847 76.4516 72.2973 79.5664C93.903 83.0308 113.698 68.4858 116.2 46.8513C117.833 32.7218 112.633 21.1228 101.449 12.2559C101.046 11.9349 100.61 11.6634 100.219 11.3301C99.1244 10.4002 98.9228 9.07942 99.6964 8.05901C100.482 7.02213 101.77 6.81229 102.98 7.66812C104.28 8.58567 105.449 9.68427 106.765 10.5771C107.432 11.0297 108.292 11.4453 109.065 11.4494C121.767 11.5029 134.473 11.6181 147.17 11.4247C152.486 11.3424 156.231 13.0582 158 18.2508C158 49.1555 158 80.0601 158 110.961C155.7 116.565 153.663 117.91 147.471 117.91C131.732 117.91 115.994 117.91 100.26 117.914C99.6141 117.914 98.9681 117.972 98.285 118.005C98.285 124.041 98.285 129.917 98.285 135.932C98.9352 135.932 99.4906 135.932 100.046 135.932C101.741 135.932 103.441 135.887 105.136 135.953C106.584 136.006 107.489 136.977 107.469 138.29C107.448 139.61 106.543 140.466 105.062 140.54C104.601 140.565 104.136 140.549 103.675 140.549C87.1674 140.549 70.6556 140.549 54.1479 140.549C53.4279 140.549 52.6996 140.594 51.9919 140.516C50.5312 140.351 49.6095 138.989 50.0416 137.615C50.4366 136.356 51.4158 135.92 52.6749 135.928C54.8186 135.94 56.9582 135.932 59.1595 135.932C59.1595 129.867 59.1595 123.992 59.1595 117.91C58.4353 117.91 57.7852 117.91 57.1351 117.91C41.2446 117.91 25.3499 117.918 9.45943 117.906C4.45198 117.902 1.78161 115.952 0.185156 111.208C0.15224 111.117 0.0699479 111.043 0.00822917 110.961C0 80.056 0 49.1514 0 18.2467ZM63.9818 117.98C63.9818 124.033 63.9818 129.949 63.9818 135.809C73.8979 135.809 83.6906 135.809 93.4586 135.809C93.4586 129.81 93.4586 123.93 93.4586 117.98C83.6042 117.98 73.8485 117.98 63.9818 117.98Z" fill="url(#paint0_linear_180_24)"/>
<path d="M91.0192 62.8899C92.2206 66.0047 91.9244 67.8768 90.081 69.2264C88.5669 70.3373 86.4149 70.3085 84.9049 69.1606C83.1274 67.8028 82.8476 65.9676 84.0079 62.9805C81.0331 62.9805 78.0911 62.9805 75.1327 62.9805C76.2437 66.161 75.9104 67.9879 74.0012 69.3087C72.4665 70.3744 70.2981 70.2715 68.8374 69.0659C67.1258 67.6546 66.8789 65.7784 68.0968 62.9846C67.7841 62.9558 67.5043 62.9187 67.2245 62.9064C65.4347 62.82 64.7928 62.2933 64.4431 60.4747C62.3981 49.7521 60.3655 39.0295 58.3329 28.3069C58.2959 28.1053 58.2753 27.8995 58.2383 27.6979C57.5923 24.4186 57.5923 24.4186 54.313 24.073C52.8934 23.9248 51.9759 22.962 52.0211 21.6659C52.0705 20.3575 52.9922 19.5263 54.4858 19.4687C55.1523 19.4441 55.823 19.4523 56.4896 19.4646C59.6331 19.5099 61.6863 21.2257 62.3076 24.3198C62.4475 25.0152 62.5792 25.7106 62.7355 26.5129C63.435 26.5129 64.0439 26.5129 64.6529 26.5129C75.1904 26.5129 85.7278 26.5088 96.2694 26.5129C99.4746 26.5129 100.421 27.702 99.8202 30.8332C98.5488 37.4248 97.3103 44.0205 96.0431 50.6161C95.6193 52.8216 94.998 53.3071 92.6897 53.3112C85.0283 53.3153 77.3711 53.3112 69.7097 53.3112C69.1501 53.3112 68.5906 53.3112 67.8088 53.3112C68.0968 54.8994 68.2902 56.3519 68.677 57.7508C68.7551 58.0347 69.5781 58.261 70.0553 58.261C77.2518 58.2939 84.4482 58.2816 91.6446 58.2857C92.056 58.2857 92.4675 58.2652 92.8789 58.2981C94.2244 58.4133 95.0967 59.3226 95.0967 60.5858C95.0967 61.8407 94.2326 62.7706 92.8831 62.8858C92.2864 62.9311 91.6734 62.8899 91.0192 62.8899ZM64.7969 37.4783C67.1751 37.4783 69.3518 37.4783 71.6477 37.4783C71.4831 35.3305 71.3309 33.3061 71.1745 31.2118C68.6152 31.2118 66.1753 31.2118 63.616 31.2118C64.0151 33.3431 64.4019 35.3881 64.7969 37.4783ZM87.2296 37.5071C89.4968 37.5071 91.5829 37.5071 93.8212 37.5071C94.2162 35.4457 94.6153 33.3719 95.0268 31.2365C92.4881 31.2365 90.1057 31.2365 87.6534 31.2365C87.5094 33.3596 87.3736 35.384 87.2296 37.5071ZM82.5267 37.5153C82.6871 35.4128 82.8435 33.3596 83.0039 31.257C80.5475 31.257 78.2393 31.257 75.8322 31.257C75.9968 33.4131 76.1532 35.4292 76.3136 37.5153C78.4203 37.5153 80.3871 37.5153 82.5267 37.5153ZM65.7186 42.2923C66.0765 44.2385 66.3893 46.0942 66.7843 47.9293C66.846 48.2215 67.2862 48.6288 67.5619 48.6411C69.1378 48.7111 70.7219 48.6741 72.4583 48.6741C72.2896 46.444 72.1373 44.3867 71.981 42.2882C69.8126 42.2923 67.8294 42.2923 65.7186 42.2923ZM86.8428 42.2759C86.6865 44.4484 86.5425 46.4728 86.382 48.6823C88.0155 48.6823 89.4926 48.7193 90.9657 48.6535C91.266 48.6411 91.7557 48.2914 91.8133 48.024C92.2247 46.1518 92.5415 44.255 92.9077 42.28C90.8258 42.2759 88.9372 42.2759 86.8428 42.2759ZM76.6469 42.2965C76.8197 44.5183 76.9761 46.5427 77.1324 48.5671C78.7659 48.5671 80.2266 48.5671 81.7366 48.5671C81.8848 46.4316 82.0247 44.4072 82.1728 42.2965C80.2554 42.2965 78.5355 42.2965 76.6469 42.2965Z" fill="url(#paint1_linear_180_24)"/>
<path d="M139.596 32.9564C141.628 32.9564 143.373 32.9358 145.118 32.9646C146.698 32.9893 147.697 33.8739 147.718 35.1988C147.738 36.499 146.739 37.4989 145.192 37.5524C143.402 37.6182 141.604 37.5688 139.6 37.5688C139.6 39.3875 139.616 41.0662 139.596 42.745C139.575 44.5554 138.719 45.6211 137.32 45.6293C135.917 45.6416 135.012 44.5677 134.979 42.782C134.95 41.1032 134.975 39.4245 134.975 37.5688C133.008 37.5688 131.202 37.7169 129.445 37.503C128.618 37.4001 127.668 36.75 127.17 36.0629C126.849 35.6185 126.997 34.4664 127.38 33.9809C127.812 33.4337 128.725 33.0592 129.462 33.0057C131.235 32.87 133.029 32.9605 134.979 32.9605C134.979 30.9731 134.926 29.1833 134.992 27.3976C135.061 25.4473 136.678 24.2211 138.16 25.1057C138.847 25.5172 139.431 26.5788 139.53 27.4058C139.736 29.1627 139.596 30.9608 139.596 32.9564Z" fill="url(#paint2_linear_180_24)"/>
<path d="M27.9304 81.994C31.9915 81.994 36.0485 81.9858 40.1096 81.9981C41.9118 82.0022 42.9363 82.8828 42.9034 84.3393C42.8746 85.7259 41.8665 86.6065 40.1713 86.6065C31.9504 86.6188 23.7253 86.6188 15.5044 86.6065C13.8339 86.6024 12.7847 85.6889 12.7641 84.3229C12.7394 82.8992 13.8092 82.0022 15.5949 81.9981C19.7054 81.9858 23.82 81.994 27.9304 81.994Z" fill="url(#paint3_linear_180_24)"/>
<path d="M21.89 76.1759C19.7381 76.1759 17.5862 76.1965 15.4342 76.1677C13.7802 76.1471 12.7474 75.2172 12.7639 73.843C12.7803 72.481 13.8337 71.5676 15.4918 71.5635C19.7957 71.547 24.1037 71.5429 28.4075 71.5635C30.0451 71.5717 31.0984 72.5345 31.0779 73.9006C31.0573 75.2666 30.0204 76.1513 28.3499 76.1677C26.198 76.1924 24.0419 76.1759 21.89 76.1759Z" fill="url(#paint4_linear_180_24)"/>
<defs>
<linearGradient id="paint0_linear_180_24" x1="79" y1="0.02771" x2="79" y2="140.562" gradientUnits="userSpaceOnUse">
<stop stop-color="#1CA7FB"/>
<stop offset="1" stop-color="#17FCD7"/>
</linearGradient>
<linearGradient id="paint1_linear_180_24" x1="76.0049" y1="19.4528" x2="76.0049" y2="70.044" gradientUnits="userSpaceOnUse">
<stop stop-color="#1CA7FB"/>
<stop offset="1" stop-color="#17FCD7"/>
</linearGradient>
<linearGradient id="paint2_linear_180_24" x1="137.356" y1="24.8134" x2="137.356" y2="45.6294" gradientUnits="userSpaceOnUse">
<stop stop-color="#1CA7FB"/>
<stop offset="1" stop-color="#17FCD7"/>
</linearGradient>
<linearGradient id="paint3_linear_180_24" x1="27.8339" y1="81.9913" x2="27.8339" y2="86.6157" gradientUnits="userSpaceOnUse">
<stop stop-color="#1CA7FB"/>
<stop offset="1" stop-color="#17FCD7"/>
</linearGradient>
<linearGradient id="paint4_linear_180_24" x1="21.9209" y1="71.5496" x2="21.9209" y2="76.1831" gradientUnits="userSpaceOnUse">
<stop stop-color="#1CA7FB"/>
<stop offset="1" stop-color="#17FCD7"/>
</linearGradient>
</defs>
</svg>
