<svg width="151" height="127" viewBox="0 0 151 127" fill="none" xmlns="http://www.w3.org/2000/svg">
<path d="M150.994 106.233C150.837 106.686 150.659 107.134 150.522 107.591C149.104 112.32 145.021 115.601 140.087 115.687C133.605 115.798 127.12 115.742 120.634 115.727C119.032 115.723 118.063 114.817 118.098 113.49C118.134 112.194 119.13 111.332 120.744 111.324C126.687 111.305 132.636 111.159 138.575 111.36C143.961 111.545 146.647 107.646 146.627 103.382C146.509 79.6058 146.572 55.8298 146.572 32.0538C146.572 31.5182 146.572 30.9788 146.572 30.329C99.2208 30.329 51.9523 30.329 4.49867 30.329C4.49867 30.8685 4.49867 31.3922 4.49867 31.9159C4.49867 36.5821 4.50261 41.2484 4.49867 45.9146C4.49867 47.9031 3.74656 48.9624 2.32898 48.9899C0.864142 49.0214 0.0805333 47.9307 0.0805333 45.8476C0.0805333 35.0386 0.301046 24.2255 0.00571636 13.4283C-0.199046 5.98596 5.11689 0.512513 12.7797 0.571579C40.1391 0.784217 67.5024 0.654272 94.8657 0.654272C103.415 0.654272 111.959 0.654272 120.508 0.654272C121 0.654272 121.497 0.630645 121.981 0.693649C123.099 0.839345 123.757 1.52451 123.867 2.62708C123.981 3.73358 123.469 4.57232 122.39 4.87946C121.745 5.06453 121.036 5.06847 120.355 5.06847C84.4464 5.07635 48.5383 5.07635 12.6262 5.08028C11.6968 5.08028 10.74 5.05666 9.84217 5.24961C7.08576 5.8442 4.75068 8.12809 4.62468 10.9514C4.41204 15.8382 4.56561 20.7446 4.56561 25.7179C51.8814 25.7179 99.1184 25.7179 146.489 25.7179C146.517 25.3045 146.568 24.8831 146.568 24.4618C146.576 20.4335 146.584 16.4052 146.568 12.3769C146.548 7.96664 143.698 5.11179 139.287 5.07635C137.078 5.05666 134.865 5.08422 132.656 5.06847C130.762 5.05666 129.782 4.30849 129.75 2.88303C129.723 1.43394 130.683 0.662147 132.566 0.654272C134.873 0.642459 137.185 0.630645 139.492 0.65821C145.107 0.729089 149.317 4.05647 150.711 9.49054C150.77 9.71499 150.9 9.92369 150.994 10.1363C150.994 42.1698 150.994 74.1993 150.994 106.233Z" fill="url(#paint0_linear_180_35)"/>
<path d="M50.4367 111.316C49.8657 109.753 49.3695 108.383 48.8576 107.012C46.2942 100.121 43.7346 93.2264 41.1515 86.3393C40.5214 84.6619 40.36 83.075 41.7421 81.6967C43.1164 80.3264 44.6639 80.4603 46.369 81.0982C58.8595 85.7723 71.3657 90.3991 83.8641 95.0457C87.1442 96.2664 87.727 98.9283 85.2541 101.409C82.9741 103.701 80.6784 105.973 78.1819 108.462C79.1624 109.351 79.9775 110.206 80.9147 110.895C81.3321 111.202 81.9937 111.293 82.5449 111.293C91.2394 111.316 99.93 111.305 108.625 111.316C109.255 111.316 109.92 111.34 110.507 111.537C111.511 111.872 111.944 112.687 111.857 113.73C111.771 114.782 111.18 115.463 110.145 115.656C109.621 115.754 109.069 115.727 108.53 115.727C101.604 115.731 94.681 115.731 87.7545 115.731C87.223 115.731 86.6914 115.731 85.9944 115.731C86.1795 116.12 86.2897 116.368 86.4157 116.609C87.3332 118.329 87.1954 119.767 85.8487 121.192C84.4665 122.657 83.0253 124.063 81.5881 125.473C79.5877 127.434 77.6503 127.453 75.6657 125.508C73.5984 123.48 71.5665 121.413 69.515 119.365C69.1724 119.023 68.8101 118.7 68.3691 118.286C66.038 120.617 63.7619 122.909 61.4741 125.189C58.9855 127.666 56.3748 127.095 55.1265 123.803C54.3114 121.649 53.4372 119.511 52.7363 117.317C52.3465 116.097 51.7715 115.687 50.4485 115.691C37.6311 115.75 24.8099 115.707 11.9926 115.735C7.42874 115.742 3.82178 113.963 1.6324 109.962C0.750344 108.347 0.163622 106.347 0.151809 104.516C0.0376143 88.7492 0.0809293 72.9825 0.0888048 57.2198C0.0888048 55.499 0.93148 54.5303 2.33331 54.554C3.71546 54.5776 4.503 55.5423 4.503 57.2986C4.50694 72.6715 4.50694 88.0444 4.50694 103.417C4.50694 108.627 7.17672 111.301 12.3942 111.305C24.5264 111.308 36.6585 111.305 48.7868 111.305C49.2632 111.316 49.7436 111.316 50.4367 111.316ZM45.5814 85.5242C50.098 97.6564 54.4886 109.458 58.9658 121.488C61.5135 118.932 63.8564 116.573 66.2112 114.218C67.9714 112.462 68.8613 112.466 70.649 114.254C73.2873 116.888 75.9138 119.53 78.3827 122.003C79.6586 120.787 80.8556 119.645 82.159 118.4C79.5286 115.79 76.8785 113.171 74.2442 110.541C72.551 108.851 72.547 107.879 74.2087 106.213C76.595 103.819 78.9931 101.433 81.5172 98.9086C69.5622 94.455 57.7687 90.0644 45.5814 85.5242Z" fill="url(#paint1_linear_180_35)"/>
<path d="M34.6848 62.1695C33.0153 66.8475 31.4362 71.2736 29.8572 75.6996C29.6761 76.2075 29.4792 76.7076 29.302 77.2195C28.9476 78.2591 28.2663 78.8694 27.1323 78.8655C25.9864 78.8616 25.3367 78.2079 24.9823 77.1841C24.0412 74.4513 23.1079 71.7106 22.1668 68.9779C20.828 65.0874 19.4773 61.1969 18.1385 57.3025C17.4336 55.2549 17.7368 54.0184 19.0639 53.5144C20.5287 52.9552 21.5683 53.6837 22.2967 55.7943C23.7222 59.9171 25.1437 64.0399 26.5692 68.1627C26.7267 68.6117 26.9 69.0566 27.1598 69.7615C27.4315 69.1551 27.6245 68.7889 27.7623 68.4069C29.3335 64.0242 30.9125 59.6454 32.4443 55.247C32.8499 54.0814 33.413 53.1836 34.7754 53.1954C36.1418 53.2072 36.6892 54.1326 37.0751 55.2942C38.4887 59.5234 39.9378 63.7407 41.379 67.9619C41.5641 68.5093 41.7885 69.0409 42.0917 69.8323C43.7692 65.0559 45.36 60.5314 46.947 56.003C47.7542 53.7034 48.6796 52.971 50.168 53.4632C51.6092 53.9397 51.9085 55.1722 51.117 57.4324C48.8646 63.8627 46.6004 70.2852 44.3677 76.7234C43.9503 77.9244 43.4109 78.9009 41.9539 78.8655C40.5599 78.8301 40.0717 77.8417 39.6936 76.7116C38.2839 72.5336 36.8585 68.3596 35.433 64.1856C35.2283 63.595 34.9999 63.0122 34.6848 62.1695Z" fill="url(#paint2_linear_180_35)"/>
<path d="M82.9969 69.8324C84.7137 64.9496 86.3046 60.4212 87.8954 55.8928C88.0254 55.5226 88.1277 55.1407 88.2892 54.7863C88.8405 53.5577 90.0257 53.0379 91.1874 53.4947C92.2663 53.916 92.8215 55.0541 92.4041 56.2866C91.1204 60.0943 89.7816 63.8824 88.4585 67.6745C87.4071 70.6829 86.3243 73.6756 85.2926 76.688C84.887 77.8772 84.3711 78.8813 82.9024 78.8655C81.4218 78.8498 80.9611 77.7866 80.5673 76.6171C79.0946 72.2541 77.6061 67.895 76.1177 63.5359C75.9995 63.1855 75.8578 62.8468 75.6058 62.1853C74.9363 64.0281 74.3654 65.5757 73.8101 67.1311C72.6367 70.4073 71.4554 73.6756 70.3095 76.9636C69.9197 78.0858 69.3133 78.8891 68.0217 78.8695C66.7262 78.8498 66.1631 78.0071 65.785 76.8927C63.5051 70.2143 61.2015 63.5477 58.9137 56.8733C58.3309 55.1761 58.7286 53.979 59.9769 53.5105C61.3748 52.9867 62.4931 53.6837 63.1231 55.5187C64.7337 60.1967 66.3363 64.8787 68.0532 69.8914C68.3564 69.1511 68.5651 68.6944 68.7344 68.2258C70.2859 63.8903 71.8492 59.5588 73.3652 55.2076C73.7747 54.0342 74.3693 53.1639 75.7239 53.1954C77.0036 53.2269 77.5667 54.0657 77.9408 55.1919C79.382 59.5155 80.8705 63.8194 82.3472 68.1313C82.5007 68.5841 82.6858 69.0251 82.9969 69.8324Z" fill="url(#paint3_linear_180_35)"/>
<path d="M115.838 62.1381C114.047 67.1469 112.381 71.8052 110.715 76.4635C110.617 76.7392 110.597 77.1093 110.4 77.2747C109.747 77.8417 109.097 78.6096 108.321 78.7986C107.254 79.0585 106.514 78.2828 106.156 77.2393C103.765 70.2852 101.363 63.3391 98.9928 56.3811C98.5518 55.0895 99.1385 53.8846 100.273 53.4947C101.56 53.0498 102.698 53.6562 103.226 55.1643C104.726 59.4683 106.191 63.784 107.675 68.0919C107.849 68.592 108.042 69.0842 108.349 69.9111C109.66 66.2569 110.853 62.9295 112.046 59.5982C112.609 58.031 113.177 56.4638 113.716 54.8848C114.07 53.8413 114.736 53.2073 115.858 53.1955C117.051 53.1837 117.721 53.857 118.095 54.9596C119.603 59.4171 121.139 63.8628 122.663 68.3124C122.8 68.7141 122.95 69.1078 123.202 69.7969C123.58 68.7731 123.879 68.0132 124.147 67.2414C125.541 63.2642 126.939 59.2871 128.317 55.3061C128.723 54.1326 129.372 53.29 130.731 53.353C132.361 53.4278 133.133 54.8926 132.491 56.7473C130.369 62.8587 128.227 68.9621 126.088 75.0696C125.844 75.7626 125.596 76.4557 125.352 77.1487C124.998 78.1607 124.371 78.8419 123.226 78.8695C122.001 78.897 121.335 78.1843 120.969 77.1211C119.477 72.7621 117.996 68.399 116.512 64.04C116.346 63.5359 116.161 63.0398 115.838 62.1381Z" fill="url(#paint4_linear_180_35)"/>
<path d="M43.9502 11.3452C46.1868 11.3058 48.0887 13.1684 48.1045 15.409C48.1202 17.6456 46.2419 19.5396 44.0092 19.5357C41.8396 19.5318 39.9888 17.7243 39.9219 15.5389C39.851 13.322 41.7136 11.3807 43.9502 11.3452Z" fill="url(#paint5_linear_180_35)"/>
<path d="M35.4771 15.4247C35.4811 17.7007 33.6028 19.5751 31.3543 19.5318C29.1571 19.4884 27.3496 17.6495 27.3457 15.4444C27.3418 13.1723 29.2279 11.3019 31.4843 11.3413C33.6973 11.3807 35.4732 13.1999 35.4771 15.4247Z" fill="url(#paint6_linear_180_35)"/>
<path d="M14.7719 15.3538C14.8034 13.133 16.6226 11.3373 18.8278 11.3413C21.1038 11.3452 22.9151 13.2156 22.8757 15.5153C22.8364 17.7401 21.0211 19.5396 18.8159 19.5357C16.5675 19.5318 14.7404 17.6417 14.7719 15.3538Z" fill="url(#paint7_linear_180_35)"/>
<defs>
<linearGradient id="paint0_linear_180_35" x1="75.4971" y1="0.571106" x2="75.4971" y2="115.754" gradientUnits="userSpaceOnUse">
<stop stop-color="#1CA7FB"/>
<stop offset="1" stop-color="#17FCD7"/>
</linearGradient>
<linearGradient id="paint1_linear_180_35" x1="55.9712" y1="54.5535" x2="55.9712" y2="126.955" gradientUnits="userSpaceOnUse">
<stop stop-color="#1CA7FB"/>
<stop offset="1" stop-color="#17FCD7"/>
</linearGradient>
<linearGradient id="paint2_linear_180_35" x1="34.6574" y1="53.1953" x2="34.6574" y2="78.8664" gradientUnits="userSpaceOnUse">
<stop stop-color="#1CA7FB"/>
<stop offset="1" stop-color="#17FCD7"/>
</linearGradient>
<linearGradient id="paint3_linear_180_35" x1="75.5968" y1="53.1946" x2="75.5968" y2="78.8698" gradientUnits="userSpaceOnUse">
<stop stop-color="#1CA7FB"/>
<stop offset="1" stop-color="#17FCD7"/>
</linearGradient>
<linearGradient id="paint4_linear_180_35" x1="115.781" y1="53.1953" x2="115.781" y2="78.8703" gradientUnits="userSpaceOnUse">
<stop stop-color="#1CA7FB"/>
<stop offset="1" stop-color="#17FCD7"/>
</linearGradient>
<linearGradient id="paint5_linear_180_35" x1="44.0123" y1="11.3446" x2="44.0123" y2="19.5357" gradientUnits="userSpaceOnUse">
<stop stop-color="#1CA7FB"/>
<stop offset="1" stop-color="#17FCD7"/>
</linearGradient>
<linearGradient id="paint6_linear_180_35" x1="31.4114" y1="11.3407" x2="31.4114" y2="19.5325" gradientUnits="userSpaceOnUse">
<stop stop-color="#1CA7FB"/>
<stop offset="1" stop-color="#17FCD7"/>
</linearGradient>
<linearGradient id="paint7_linear_180_35" x1="18.8239" y1="11.3413" x2="18.8239" y2="19.5357" gradientUnits="userSpaceOnUse">
<stop stop-color="#1CA7FB"/>
<stop offset="1" stop-color="#17FCD7"/>
</linearGradient>
</defs>
</svg>
