<svg width="132" height="159" viewBox="0 0 132 159" fill="none" xmlns="http://www.w3.org/2000/svg">
<path d="M88.5851 129.265C88.5851 132.802 88.5851 136.128 88.5851 139.703C89.0892 139.703 89.5891 139.703 90.0932 139.703C93.6857 139.707 97.2823 139.686 100.875 139.716C103.476 139.741 105.891 140.453 107.983 142.033C110.36 143.825 111.673 146.202 111.677 149.235C111.682 151.196 111.703 153.154 111.673 155.115C111.644 157.174 110.703 158.119 108.636 158.119C80.2522 158.127 51.8728 158.127 23.4892 158.119C21.3202 158.119 20.4094 157.195 20.3839 155.026C20.3628 153.332 20.3797 151.637 20.3797 149.943C20.3839 144.766 23.4553 140.877 28.611 140.072C31.4578 139.627 34.3978 139.779 37.2997 139.712C39.2993 139.665 41.3031 139.703 43.5399 139.703C43.5399 137.949 43.5399 136.276 43.5399 134.607C43.5399 132.917 43.5399 131.222 43.5399 129.265C42.8493 129.265 42.2436 129.265 41.642 129.265C32.233 129.265 22.8198 129.083 13.4194 129.32C5.52703 129.519 -0.0649624 123.47 -0.00141703 115.925C0.180746 94.2132 0.0621284 72.5019 0.0621284 50.7905C0.0621284 42.5381 5.17118 37.4206 13.4067 37.4121C13.5126 37.4121 13.6185 37.4121 13.7244 37.4121C15.4698 37.4079 17.5032 37.9544 18.8716 37.2342C20.0789 36.5987 20.3712 34.4043 21.3837 33.1588C22.9639 31.2058 24.6627 29.2868 26.6072 27.7193C27.6832 26.8509 28.128 26.0756 28.2339 24.7835C29.1617 13.4724 36.9354 4.15669 47.9118 1.36916C56.0837 -0.706655 63.6245 0.869271 70.3899 5.91901C71.2541 6.56294 71.9616 6.82136 73.0842 6.57565C86.0899 3.77118 98.3753 11.4856 101.633 24.47C101.879 25.4402 102.332 25.94 103.23 26.3679C107.471 28.3971 110.487 31.6252 112.063 36.0734C112.474 37.2299 113.067 37.4672 114.135 37.4248C115.876 37.3613 117.621 37.3909 119.366 37.4121C126.657 37.4841 131.97 42.788 131.987 50.0788C132.012 62.7879 131.995 75.497 131.995 88.206C131.995 97.526 131.999 106.846 131.995 116.166C131.987 124.046 126.878 129.227 119.032 129.252C109.572 129.282 100.112 129.261 90.6482 129.261C90.0212 129.265 89.3942 129.265 88.5851 129.265ZM78.6847 32.2395C72.5208 29.0622 65.6283 28.198 58.4434 30.2527C41.1845 35.188 33.0464 54.7558 41.6547 70.532C42.8197 72.6628 42.6502 74.1032 41.1506 74.9166C39.6382 75.7342 38.38 75.1115 37.1853 72.917C35.0841 69.0662 33.7454 64.9696 33.3557 60.5892C33.2794 59.7377 33.0379 59.2802 32.1483 59.0641C27.6281 57.9627 24.1416 55.387 21.5744 51.5149C21.3456 51.1676 20.8923 50.7566 20.5322 50.7482C18.1726 50.6804 15.8129 50.7143 13.4617 50.7143C13.4617 69.8203 13.4617 88.7356 13.4617 107.604C48.615 107.604 83.6243 107.604 118.634 107.604C118.634 88.5916 118.634 69.7143 118.634 50.71C116.426 50.71 114.321 50.7482 112.22 50.6931C111.334 50.6677 110.809 50.9388 110.309 51.7141C108.301 54.8235 105.624 57.3654 102.057 58.3016C99.2946 59.026 98.7227 60.5214 98.316 63.0421C95.6556 79.4919 79.7735 91.5316 63.2347 89.9048C58.4307 89.4346 53.9571 88.0281 49.7504 85.749C48.0601 88.0408 45.7174 88.1806 44.8828 85.9947C44.1499 84.0798 43.6288 82.0633 43.2094 80.0511C42.8748 78.4497 43.9084 77.2296 45.5352 77.111C47.378 76.9755 49.2293 76.8653 51.0764 76.8865C53.347 76.9162 54.4061 78.9454 53.2496 80.911C53.131 81.1144 52.9912 81.3093 52.7963 81.6058C59.8795 85.2279 67.094 86.0074 74.55 83.6054C91.0506 78.2887 98.71 59.3395 90.6058 43.9954C89.4281 41.7671 89.5679 40.4199 91.0634 39.5769C92.6012 38.7127 94.0457 39.3142 95.0752 41.6696C96.2359 44.3174 97.1722 47.0752 98.0703 49.8289C98.5024 51.1506 98.621 52.5698 98.9091 54.0822C99.6293 53.828 100.235 53.667 100.799 53.4128C105.353 51.3412 108.335 46.5923 108.149 41.7501C107.949 36.5691 104.637 32.0701 99.6632 30.4179C98.0618 29.8841 97.2908 29.0029 97.0154 27.2999C95.1938 15.9338 84.5309 8.80397 73.5333 11.7313C71.1906 12.354 69.7036 11.9389 67.8481 10.4604C60.9471 4.94888 53.2242 3.93216 45.281 7.76606C37.2743 11.6254 33.2964 18.357 33.2074 27.2618C33.1862 29.1766 32.555 30.2272 30.8393 31.066C22.5868 35.1033 21.4812 46.3 28.7719 51.8835C30.0259 52.8452 31.5467 53.4594 33.093 54.3152C35.0206 31.5871 60.0786 16.2303 81.79 28.0582C83.1837 27.4778 84.2132 26.7111 85.2595 26.6899C86.7338 26.6602 87.2464 28.0116 87.5853 29.3037C87.9454 30.6848 88.3944 32.0404 88.7461 33.4257C89.3095 35.6244 88.3224 36.9588 86.0814 37.0647C84.6029 37.1325 83.1244 37.1706 81.6459 37.2511C80.4174 37.3189 79.1168 37.2045 78.7017 35.9378C78.3882 34.972 78.6678 33.8112 78.6847 32.2395ZM112.906 45.6222C114.952 45.6222 116.795 45.6222 118.638 45.6222C122.641 45.6222 123.815 46.7999 123.815 50.8287C123.815 70.21 123.815 89.5913 123.815 108.977C123.815 109.401 123.827 109.824 123.802 110.248C123.7 111.807 122.887 112.641 121.319 112.79C120.794 112.84 120.265 112.824 119.735 112.824C83.9547 112.824 48.1702 112.824 12.3899 112.824C11.9663 112.824 11.5427 112.836 11.1233 112.815C9.11099 112.718 8.25948 111.875 8.25525 109.837C8.24677 89.8709 8.24254 69.9092 8.25525 49.9433C8.25525 47.1176 9.76339 45.6518 12.5679 45.6306C14.7242 45.6137 16.8762 45.6264 19.1469 45.6264C19.0156 44.5038 18.9055 43.5718 18.7784 42.5C16.8551 42.5 15.0122 42.4957 13.1737 42.5C8.05614 42.5127 5.14152 45.4442 5.14152 50.5999C5.13729 72.4171 5.13729 94.2344 5.14152 116.056C5.14152 121.343 7.97141 124.181 13.2753 124.181C48.4244 124.185 83.5692 124.185 118.718 124.181C124.111 124.181 126.924 121.351 126.924 115.963C126.924 94.1963 126.924 72.4341 126.924 50.6677C126.924 50.1932 126.937 49.7145 126.903 49.24C126.695 46.2703 124.645 43.4023 121.764 42.8982C119.011 42.4152 116.151 42.5296 113.3 42.3771C113.152 43.6057 113.042 44.4911 112.906 45.6222ZM25.4591 152.912C52.6142 152.912 79.5743 152.912 106.602 152.912C106.602 151.836 106.602 150.887 106.602 149.934C106.598 147.413 105.611 145.952 103.209 145.236C102.167 144.927 101.027 144.808 99.9343 144.808C77.3206 144.783 54.7069 144.783 32.0932 144.812C30.9028 144.812 29.6616 145.007 28.5347 145.38C26.8444 145.939 25.5608 147.036 25.4718 149.006C25.4125 150.269 25.4591 151.535 25.4591 152.912ZM83.3828 129.409C71.7328 129.409 60.2142 129.409 48.7379 129.409C48.7379 132.912 48.7379 136.272 48.7379 139.602C60.3455 139.602 71.8345 139.602 83.3828 139.602C83.3828 136.179 83.3828 132.857 83.3828 129.409Z" fill="url(#paint0_linear_180_43)"/>
<path d="M84.9072 44.4148C84.7462 45.0248 84.7335 45.4824 84.5217 45.8213C83.6787 47.1727 83.8735 48.4224 84.5048 49.8246C84.9369 50.7863 85.4664 51.337 86.4365 51.6844C88.4573 52.4088 88.8343 53.0358 88.8386 55.2345C88.8428 56.5562 88.7962 57.8822 88.8513 59.2039C88.919 60.8688 88.148 61.8601 86.6187 62.4405C84.3861 63.2878 83.3906 65.6856 84.365 67.8419C85.0343 69.3246 84.9114 70.5701 83.6744 71.7097C82.6238 72.6755 81.6113 73.688 80.6497 74.7386C79.5186 75.9714 78.2815 76.1239 76.7946 75.4504C74.634 74.4718 72.2236 75.4673 71.389 77.6872C70.8171 79.2165 69.8385 80.0002 68.1736 79.9409C66.7502 79.8901 65.3225 79.8901 63.8949 79.9409C62.2342 80.0002 61.2471 79.2334 60.671 77.6999C59.8322 75.4673 57.4344 74.4718 55.2781 75.4461C53.7996 76.1155 52.5541 75.9884 51.4188 74.7514C50.4571 73.7007 49.4446 72.684 48.394 71.7224C47.157 70.5913 47.0172 69.35 47.6866 67.8588C48.6609 65.694 47.6696 63.2793 45.454 62.4447C43.9289 61.8686 43.1452 60.8942 43.2087 59.2251C43.2638 57.7975 43.2638 56.3656 43.2087 54.9379C43.1452 53.273 43.912 52.286 45.4413 51.7098C47.6696 50.871 48.6652 48.4605 47.695 46.3042C47.0257 44.8215 47.1443 43.576 48.3856 42.4407C49.4362 41.479 50.4487 40.4665 51.4103 39.4117C52.5414 38.1704 53.7784 38.0264 55.2612 38.7C57.4259 39.6785 59.8407 38.6915 60.6625 36.4674C61.2599 34.8491 62.3189 34.1289 64.0347 34.2136C65.403 34.2814 66.7841 34.273 68.1524 34.2179C69.8173 34.1459 70.8001 34.9169 71.3805 36.4462C72.2278 38.6872 74.6171 39.687 76.7734 38.7084C78.2519 38.0391 79.4931 38.1577 80.6327 39.399C81.7045 40.5639 82.8992 41.6188 83.9625 42.7923C84.3988 43.2625 84.6318 43.9234 84.9072 44.4148ZM84.1743 57.1451C83.6575 56.5181 83.4202 55.9377 83.0559 55.8403C81.2131 55.3488 80.476 54.0313 80.0439 52.3326C79.8236 51.4726 79.4338 50.6295 78.9721 49.8712C78.2434 48.6723 78.2265 47.5412 78.7391 46.2491C78.9339 45.7662 78.7899 44.9147 78.4595 44.5249C78.1883 44.2072 77.3114 44.1055 76.8708 44.2962C75.5322 44.8766 74.3544 44.8045 73.1132 44.0462C72.3549 43.5845 71.5118 43.1905 70.6519 42.9829C68.987 42.5805 67.7627 41.8221 67.2585 40.0598C67.1653 39.7251 66.5002 39.3439 66.1105 39.3566C65.6487 39.3735 64.9031 39.704 64.7972 40.0514C64.2761 41.8052 63.0815 42.5889 61.4039 42.9787C60.5947 43.1651 59.7941 43.5294 59.0866 43.97C57.7564 44.7918 56.4855 44.9443 55.0451 44.2326C54.6723 44.0505 53.8589 44.2115 53.5878 44.5165C53.2658 44.8808 53.0456 45.6942 53.2362 46.0966C53.9225 47.5539 53.7573 48.8248 52.9354 50.1466C52.5245 50.8117 52.194 51.5658 52.0076 52.3241C51.5882 54.0229 50.8554 55.3446 49.0083 55.8487C48.6863 55.9377 48.3517 56.6155 48.339 57.0307C48.3263 57.4501 48.6313 58.183 48.9321 58.2592C50.8511 58.7591 51.6137 60.1232 52.0288 61.8855C52.1983 62.593 52.4991 63.3047 52.8888 63.919C53.7573 65.2831 53.9606 66.6048 53.1938 68.1087C53.0117 68.4688 53.2192 69.2526 53.5243 69.5661C53.8335 69.8838 54.6257 70.121 54.9689 69.9389C56.5278 69.1212 57.8792 69.3924 59.2899 70.2862C59.9932 70.7311 60.8108 71.0742 61.6242 71.2437C63.2382 71.5741 64.2338 72.4383 64.7676 74.01C64.8946 74.387 65.5894 74.7852 66.0215 74.7852C66.4536 74.7852 67.1611 74.387 67.2755 74.0142C67.8008 72.3409 68.9361 71.5571 70.5629 71.1886C71.372 71.0064 72.1812 70.6506 72.8887 70.21C74.2655 69.3458 75.5787 69.1763 77.0699 69.9389C77.4216 70.1168 78.1714 69.8753 78.5273 69.5745C78.8323 69.3161 79.0865 68.5536 78.9212 68.2613C77.9808 66.5964 78.3705 65.1475 79.294 63.6394C79.7558 62.8853 80.0608 62.0042 80.2642 61.1399C80.5904 59.7716 81.3529 58.9328 82.6662 58.4456C83.183 58.255 83.56 57.6958 84.1743 57.1451Z" fill="url(#paint1_linear_180_43)"/>
<path d="M28.5898 82.1946C30.1022 81.7032 31.3223 81.8176 32.1187 83.0843C32.9618 84.4229 32.4068 85.5837 31.5087 86.6852C30.3776 88.0789 29.327 89.5362 28.1832 90.9173C26.8741 92.5017 25.205 92.5059 23.8917 90.9173C22.7479 89.5362 21.7015 88.0747 20.5704 86.6809C19.6808 85.5837 19.0665 84.4356 19.9477 83.0927C20.7483 81.8726 21.9303 81.61 23.5105 82.2793C23.5105 81.1313 23.5105 80.1569 23.5105 79.1868C23.5105 75.857 23.4935 72.5272 23.5189 69.2017C23.5316 67.469 24.5441 66.3464 26.0141 66.3295C27.4714 66.3167 28.5602 67.4563 28.5729 69.1593C28.611 73.4381 28.5898 77.7125 28.5898 82.1946Z" fill="url(#paint2_linear_180_43)"/>
<path d="M103.466 76.2426C101.983 76.6662 100.695 76.6493 99.8859 75.264C99.0852 73.8871 99.7122 72.756 100.602 71.6673C101.703 70.3201 102.724 68.901 103.834 67.558C105.211 65.8931 106.842 65.9058 108.215 67.5834C109.316 68.9348 110.345 70.3413 111.443 71.6969C112.328 72.7857 112.963 73.9126 112.129 75.2894C111.294 76.6662 109.998 76.6365 108.536 76.2426C108.536 80.1654 108.536 84.0205 108.536 87.8756C108.536 88.3501 108.549 88.8288 108.532 89.3033C108.473 90.9766 107.554 92.0061 106.096 92.0484C104.567 92.095 103.499 91.0444 103.478 89.316C103.436 85.5626 103.466 81.8091 103.461 78.0515C103.466 77.4796 103.466 76.9034 103.466 76.2426Z" fill="url(#paint3_linear_180_43)"/>
<path d="M66.1793 44.974C72.8346 45.0206 78.1512 50.4813 78.1004 57.2171C78.0496 63.8766 72.5847 69.2187 65.8785 69.1636C59.2274 69.1085 53.9066 63.6394 53.9574 56.9121C54.0125 50.2398 59.4519 44.9274 66.1793 44.974ZM73.0252 57.1027C73.038 53.1756 69.9412 50.0576 66.0225 50.0619C62.1675 50.0619 59.0707 53.112 59.0283 56.9544C58.9859 60.8985 62.0531 64.0546 65.9505 64.0842C69.8734 64.1096 73.0125 61.0129 73.0252 57.1027Z" fill="url(#paint4_linear_180_43)"/>
<defs>
<linearGradient id="paint0_linear_180_43" x1="65.9993" y1="158.125" x2="65.9993" y2="0.480042" gradientUnits="userSpaceOnUse">
<stop stop-color="#1CA7FB"/>
<stop offset="1" stop-color="#17FCD7"/>
</linearGradient>
<linearGradient id="paint1_linear_180_43" x1="66.0302" y1="79.9441" x2="66.0302" y2="34.207" gradientUnits="userSpaceOnUse">
<stop stop-color="#1CA7FB"/>
<stop offset="1" stop-color="#17FCD7"/>
</linearGradient>
<linearGradient id="paint2_linear_180_43" x1="26.0275" y1="92.1072" x2="26.0275" y2="66.3293" gradientUnits="userSpaceOnUse">
<stop stop-color="#1CA7FB"/>
<stop offset="1" stop-color="#17FCD7"/>
</linearGradient>
<linearGradient id="paint3_linear_180_43" x1="106.018" y1="92.0499" x2="106.018" y2="66.3173" gradientUnits="userSpaceOnUse">
<stop stop-color="#1CA7FB"/>
<stop offset="1" stop-color="#17FCD7"/>
</linearGradient>
<linearGradient id="paint4_linear_180_43" x1="66.0289" y1="69.164" x2="66.0289" y2="44.9737" gradientUnits="userSpaceOnUse">
<stop stop-color="#1CA7FB"/>
<stop offset="1" stop-color="#17FCD7"/>
</linearGradient>
</defs>
</svg>
