<svg width="142" height="148" viewBox="0 0 142 148" fill="none" xmlns="http://www.w3.org/2000/svg">
<path d="M48.2701 117.985C47.5519 117.985 47.0011 117.985 46.4462 117.985C35.3273 117.985 24.2085 117.989 13.0896 117.985C5.14119 117.981 0.00408031 112.84 0 104.887C0 81.2171 0 57.5472 0 33.8774C0 26.6797 2.83582 22.7381 9.79275 20.4164C9.79275 16.6584 9.79275 12.8515 9.79275 9.04458C9.79683 3.5484 12.6653 0.700348 18.2023 0.700348C48.4986 0.700348 78.7908 0.700348 109.087 0.700348C114.698 0.700348 117.509 3.54024 117.513 9.18739C117.517 12.8025 117.521 16.4136 117.525 20.0288C117.525 20.1267 117.558 20.2287 117.599 20.445C117.815 20.5184 118.088 20.6204 118.362 20.7102C124.046 22.53 127.293 26.9531 127.298 32.9511C127.31 43.3355 127.318 53.7199 127.277 64.1043C127.273 65.2101 127.571 65.9894 128.375 66.7606C130.913 69.1924 133.373 71.7059 135.854 74.1949C137.547 75.9005 137.535 77.0022 135.821 78.7322C134.818 79.7441 133.765 80.7152 132.818 81.7802C132.557 82.0699 132.414 82.7146 132.557 83.0451C132.708 83.3838 133.271 83.7306 133.663 83.7469C135.495 83.8204 137.335 83.7592 139.171 83.7877C141.069 83.8163 141.97 84.714 141.983 86.6235C142.003 91.2547 142.007 95.8858 141.983 100.521C141.974 102.41 141.052 103.3 139.139 103.324C137.355 103.349 135.568 103.283 133.785 103.365C133.345 103.385 132.704 103.736 132.557 104.095C132.414 104.446 132.651 105.128 132.949 105.458C133.969 106.593 135.111 107.621 136.164 108.727C137.437 110.065 137.453 111.281 136.148 112.603C133.071 115.72 129.97 118.817 126.845 121.89C125.461 123.248 124.25 123.224 122.85 121.881C121.748 120.825 120.712 119.694 119.582 118.67C119.284 118.401 118.631 118.181 118.337 118.328C117.958 118.519 117.566 119.095 117.546 119.519C117.46 121.347 117.533 123.183 117.501 125.015C117.468 126.819 116.558 127.745 114.746 127.753C110.054 127.778 105.362 127.782 100.669 127.753C98.8618 127.741 97.9601 126.815 97.9275 125.007C97.8948 123.175 97.9683 121.339 97.8826 119.511C97.8622 119.082 97.4745 118.511 97.0951 118.315C96.8054 118.168 96.1525 118.397 95.8547 118.666C94.6877 119.727 93.6227 120.902 92.4721 121.983C91.1868 123.195 89.9872 123.179 88.6937 122.004C88.2408 121.592 87.7308 121.204 87.4084 120.702C85.3764 117.548 82.3325 117.695 79.0683 118.144C80.2638 122.934 81.4593 127.712 82.6916 132.649C85.2295 132.649 87.7634 132.633 90.3014 132.654C96.7115 132.698 101.604 136.844 102.677 143.128C103.203 146.2 102.285 147.31 99.2087 147.31C75.4939 147.31 51.7751 147.31 28.0603 147.31C25.0531 147.31 24.1146 146.212 24.5798 143.258C25.5672 136.999 30.5085 132.719 36.8534 132.658C39.3995 132.633 41.9456 132.654 44.5937 132.654C45.8219 127.765 47.0256 122.955 48.2701 117.985ZM112.506 59.3426C112.506 47.8402 112.506 36.5255 112.506 25.2067C79.8762 25.2067 47.3602 25.2067 14.6891 25.2067C14.6891 25.8187 14.6891 26.3655 14.6891 26.9123C14.6891 44.6739 14.6891 62.4395 14.6891 80.2011C14.6891 83.0981 15.3746 83.7755 18.3002 83.7755C39.2077 83.7755 60.1193 83.7755 81.0268 83.7755C81.2798 83.7755 81.5736 83.853 81.7858 83.7592C82.1938 83.5755 82.7405 83.3674 82.8834 83.0247C83.0221 82.6901 82.8589 82.0658 82.6018 81.7639C81.8429 80.8785 80.9248 80.1236 80.1536 79.2463C79.4967 78.4956 78.6398 77.704 78.4685 76.8145C78.3052 75.9739 78.9254 74.9865 79.2192 74.0072C78.8357 74.0072 78.3338 74.0072 77.8319 74.0072C74.0576 74.0072 70.2834 74.0195 66.5091 73.9991C64.6525 73.9868 63.6733 73.1095 63.661 71.3632C63.6284 66.577 63.6284 61.7948 63.6651 57.0086C63.6773 55.4581 64.6117 54.4911 66.1418 54.4788C70.9852 54.438 75.8326 54.438 80.6759 54.4748C82.3366 54.487 83.2139 55.4826 83.2261 57.2494C83.2506 60.5585 83.2343 63.8676 83.2343 67.1727C83.2343 68.1683 83.2343 69.1639 83.2343 70.1554C83.3689 70.2329 83.5076 70.3064 83.6423 70.3839C85.2051 68.7395 86.7474 67.0748 88.3428 65.4549C89.9872 63.786 91.1297 63.7901 92.774 65.3978C93.7574 66.3607 94.6836 67.3849 95.72 68.2866C96.0913 68.609 96.838 68.8946 97.1971 68.7314C97.5766 68.5559 97.8663 67.8296 97.8907 67.3277C97.9764 65.7038 97.9152 64.0717 97.9234 62.4436C97.9356 60.1668 98.768 59.3467 101.082 59.3426C104.86 59.3344 108.626 59.3426 112.506 59.3426ZM14.6932 20.1512C47.4214 20.1512 79.9659 20.1512 112.617 20.1512C112.617 16.4544 112.617 12.8515 112.617 9.24452C112.617 6.23733 111.96 5.58448 108.94 5.58448C78.7622 5.58448 48.5843 5.58448 18.4022 5.58448C17.9942 5.58448 17.5861 5.56408 17.1781 5.59264C15.6521 5.69465 14.7177 6.58416 14.7054 8.13467C14.6687 12.1007 14.6932 16.0668 14.6932 20.1512ZM4.89637 98.4972C4.89637 100.697 4.89637 102.729 4.89637 104.761C4.90045 110.244 7.77707 113.097 13.3181 113.097C34.7887 113.097 56.2593 113.097 77.7299 113.097C78.2726 113.097 78.8153 113.097 79.4355 113.097C77.8727 110.522 77.9421 110.032 80.0639 107.919C80.7861 107.201 81.5736 106.531 82.2019 105.74C82.5732 105.266 82.6916 104.597 82.9242 104.014C82.3284 103.785 81.7449 103.398 81.137 103.357C79.717 103.259 78.2848 103.328 76.8567 103.324C74.2209 103.32 73.4701 102.582 73.4456 100.003C73.4415 99.5132 73.4007 99.0236 73.3722 98.4972C50.5265 98.4972 27.8032 98.4972 4.89637 98.4972ZM112.617 122.808C112.617 120.804 112.629 118.976 112.612 117.148C112.604 115.81 113.225 114.957 114.473 114.484C115.612 114.051 116.77 113.631 117.843 113.06C119.28 112.301 120.455 112.497 121.548 113.66C122.585 114.765 123.658 115.834 124.629 116.83C126.816 114.647 128.852 112.611 131.043 110.424C130.007 109.42 128.881 108.327 127.755 107.241C126.706 106.229 126.522 105.12 127.2 103.793C127.755 102.712 128.207 101.574 128.624 100.431C129.126 99.0603 130.035 98.3993 131.512 98.432C133.332 98.4728 135.152 98.4401 136.988 98.4401C136.988 95.0983 136.988 91.9279 136.988 88.6678C135.107 88.6678 133.328 88.631 131.553 88.68C129.999 88.7208 129.089 87.9986 128.579 86.5746C128.187 85.477 127.755 84.3794 127.216 83.3511C126.49 81.9638 126.73 80.8377 127.828 79.7849C128.95 78.7077 130.031 77.5897 130.88 76.741C128.689 74.5417 126.657 72.5057 124.486 70.3268C123.629 71.2367 122.675 72.2935 121.671 73.3054C120.214 74.7702 119.565 74.8518 117.737 73.9909C116.819 73.5584 115.885 73.1503 114.934 72.7913C113.045 72.0813 112.617 71.5223 112.608 69.5434C112.6 67.7888 112.608 66.0343 112.608 64.3287C109.218 64.3287 106.076 64.3287 102.816 64.3287C102.816 66.2383 102.795 68.0581 102.824 69.882C102.844 71.2856 102.208 72.1711 100.894 72.6607C99.8003 73.0687 98.6905 73.4727 97.6622 74.0195C96.1811 74.811 94.9325 74.656 93.8349 73.3952C92.8393 72.2568 91.86 71.1061 91.0603 70.1758C88.6529 72.5832 86.6168 74.6193 84.4094 76.8226C85.4295 77.7774 86.5883 78.8383 87.7226 79.9277C88.7264 80.8907 88.8896 81.9883 88.2571 83.2532C87.7348 84.2978 87.2493 85.3668 86.8821 86.4726C86.3557 88.0557 85.3479 88.7535 83.679 88.6882C81.9204 88.6188 80.1577 88.6719 78.4154 88.6719C78.4154 92.0381 78.4154 95.1718 78.4154 98.4442C80.2638 98.4442 82.0346 98.4891 83.8055 98.432C85.4295 98.3789 86.3679 99.1215 86.8739 100.619C87.2166 101.627 87.6573 102.602 88.1102 103.565C88.9671 105.389 88.8855 106.038 87.4207 107.49C86.3843 108.518 85.3071 109.51 84.4135 110.359C86.6495 112.591 88.6856 114.627 90.8889 116.83C91.8274 115.839 92.876 114.741 93.9165 113.631C94.957 112.525 96.0995 112.289 97.4909 113.023C98.4742 113.545 99.5147 113.99 100.576 114.333C102.155 114.847 102.893 115.826 102.832 117.503C102.767 119.262 102.816 121.025 102.816 122.808C106.17 122.808 109.312 122.808 112.617 122.808ZM73.3885 88.6637C72.6173 88.6637 72.0093 88.6637 71.4014 88.6637C53.603 88.6637 35.8006 88.6637 18.0023 88.6637C12.7183 88.6637 9.79683 85.7259 9.79683 80.4174C9.79683 62.8027 9.79683 45.1921 9.79683 27.5774C9.79683 26.9898 9.79683 26.3981 9.79683 25.6514C9.37247 25.7943 9.12766 25.8351 8.92364 25.9493C6.17351 27.4794 4.89229 29.8378 4.89637 32.9634C4.90861 52.7161 4.90045 72.4649 4.90453 92.2176C4.90453 92.6501 4.96166 93.0827 4.99022 93.4581C27.8808 93.4581 50.6081 93.4581 73.3925 93.4581C73.3885 91.8586 73.3885 90.3529 73.3885 88.6637ZM49.6778 132.58C59.0625 132.58 68.2758 132.58 77.632 132.58C76.4038 127.671 75.2001 122.861 73.9924 118.038C67.0517 118.038 60.2295 118.038 53.3093 118.038C52.1015 122.877 50.9019 127.684 49.6778 132.58ZM30.0352 142.291C52.5177 142.291 74.9023 142.291 97.3317 142.291C96.2056 139.178 93.6472 137.534 89.9953 137.534C74.1433 137.525 58.2913 137.529 42.4393 137.529C40.4522 137.529 38.461 137.489 36.478 137.554C33.4218 137.656 30.7982 139.606 30.0352 142.291ZM117.582 25.7861C117.558 26.088 117.517 26.3737 117.517 26.6593C117.513 40.2467 117.505 53.8301 117.546 67.4175C117.546 67.8867 117.933 68.5437 118.333 68.764C118.623 68.9272 119.3 68.609 119.684 68.3356C120.218 67.9602 120.598 67.3685 121.116 66.9687C122.177 66.1445 122.483 65.1203 122.438 63.7942C122.344 60.9461 122.409 58.0981 122.409 55.2459C122.409 47.7137 122.43 40.1855 122.397 32.6533C122.385 29.2911 120.447 26.545 117.582 25.7861ZM78.2481 69.0864C78.2481 65.7895 78.2481 62.6191 78.2481 59.4487C74.9798 59.4487 71.8053 59.4487 68.6675 59.4487C68.6675 62.7252 68.6675 65.8915 68.6675 69.0864C71.891 69.0864 74.992 69.0864 78.2481 69.0864Z" fill="url(#paint0_linear_180_16)"/>
<path d="M39.1795 30.0255C50.0576 30.0582 58.7895 38.8349 58.7528 49.6886C58.7161 60.4239 49.9067 69.1272 39.0938 69.1149C28.3708 69.1027 19.5532 60.2443 19.59 49.5213C19.6308 38.7452 28.4238 29.9929 39.1795 30.0255ZM32.088 56.3803C27.6935 51.284 29.3052 45.7551 32.0512 42.8459C35.3522 39.3531 40.779 38.7819 44.7451 41.5279C46.7077 42.8867 48.0093 44.731 48.6214 47.02C49.5925 50.6474 48.503 53.7974 46.3527 56.2987C47.5605 57.4942 48.6336 58.5551 49.7231 59.6323C55.3294 54.7155 55.3212 44.882 49.4578 39.1083C43.3496 33.0939 33.4345 33.5917 27.8812 40.1978C22.9521 46.0571 23.4989 55.8702 28.6278 59.5874C29.7867 58.5143 30.8965 57.482 32.088 56.3803ZM39.1632 44.6902C36.4906 44.6983 34.3076 46.865 34.2832 49.5376C34.2587 52.1775 36.462 54.4217 39.1061 54.4462C41.8399 54.4748 44.0881 52.2388 44.0637 49.5172C44.031 46.8568 41.8277 44.682 39.1632 44.6902ZM45.402 62.8068C43.5863 60.2606 41.3054 59.1182 38.4451 59.3997C36.1315 59.6282 34.2587 60.7013 33.0101 62.8598C37.1924 64.6551 41.2074 64.6796 45.402 62.8068Z" fill="url(#paint1_linear_180_16)"/>
<path d="M83.24 39.9489C83.24 42.189 83.2563 44.4291 83.2359 46.6691C83.2155 48.6603 82.326 49.558 80.3307 49.5662C75.7403 49.5825 71.15 49.5866 66.5596 49.5662C64.5603 49.558 63.6667 48.6644 63.6626 46.6651C63.6463 42.0829 63.6463 37.5048 63.6626 32.9226C63.6708 30.9273 64.5603 30.0378 66.5637 30.0296C71.1541 30.0133 75.7444 30.0133 80.3348 30.0296C82.3341 30.0378 83.2196 30.9314 83.2359 32.9267C83.2563 35.2647 83.24 37.6068 83.24 39.9489ZM68.6202 44.5759C71.913 44.5759 75.0875 44.5759 78.2212 44.5759C78.2212 41.2995 78.2212 38.1291 78.2212 34.9872C74.961 34.9872 71.8233 34.9872 68.6202 34.9872C68.6202 38.1984 68.6202 41.3321 68.6202 44.5759Z" fill="url(#paint2_linear_180_16)"/>
<path d="M97.8316 34.9056C95.5384 34.9056 93.2412 34.926 90.9481 34.8975C89.2507 34.8771 88.1857 33.9427 88.1531 32.5146C88.1204 31.0293 89.218 30.0296 90.993 30.0256C95.6323 30.0092 100.276 30.0052 104.915 30.0256C106.612 30.0337 107.681 30.9763 107.714 32.4044C107.751 33.8855 106.641 34.8811 104.87 34.8975C102.524 34.926 100.178 34.9097 97.8316 34.9056Z" fill="url(#paint3_linear_180_16)"/>
<path d="M97.9329 39.7938C100.226 39.7938 102.523 39.7815 104.816 39.7979C106.616 39.8142 107.713 40.7608 107.709 42.2379C107.705 43.715 106.608 44.6657 104.808 44.6738C100.218 44.6901 95.6275 44.6901 91.0412 44.6738C89.2377 44.6657 88.1483 43.715 88.1524 42.2297C88.1564 40.7404 89.2377 39.8101 91.0494 39.7979C93.3425 39.7815 95.6356 39.7938 97.9329 39.7938Z" fill="url(#paint4_linear_180_16)"/>
<path d="M97.8068 54.4544C95.5137 54.4544 93.2165 54.4748 90.9233 54.4462C89.2341 54.4258 88.1691 53.471 88.1487 52.0388C88.1283 50.5985 89.1892 49.5825 90.8581 49.5743C95.5504 49.5498 100.243 49.5498 104.931 49.5743C106.624 49.5825 107.685 50.5413 107.706 51.9776C107.726 53.4588 106.628 54.4339 104.841 54.4503C102.499 54.4707 100.153 54.4544 97.8068 54.4544Z" fill="url(#paint5_linear_180_16)"/>
<path d="M39.099 78.8873C36.8059 78.8873 34.5087 78.9036 32.2155 78.8832C30.4528 78.8628 29.3471 77.855 29.3919 76.3738C29.4368 74.9457 30.4977 74.0154 32.2033 74.0113C36.8426 73.9909 41.486 73.9909 46.1253 74.0113C47.8921 74.0195 48.9978 75.0314 48.953 76.5166C48.9081 77.9406 47.8431 78.8669 46.1375 78.8832C43.7914 78.9077 41.4452 78.8873 39.099 78.8873Z" fill="url(#paint6_linear_180_16)"/>
<path d="M22.0193 15.3487C20.6932 15.3405 19.5915 14.2266 19.5997 12.9005C19.6078 11.5703 20.7217 10.4768 22.0519 10.4849C23.3821 10.4931 24.4797 11.607 24.4715 12.9331C24.4634 14.2551 23.3413 15.3568 22.0193 15.3487Z" fill="url(#paint7_linear_180_16)"/>
<path d="M34.2624 12.9005C34.2705 14.2225 33.1689 15.3405 31.8428 15.3487C30.5167 15.3568 29.4027 14.2592 29.3946 12.9331C29.3864 11.6029 30.4799 10.4972 31.8142 10.4849C33.1362 10.4768 34.2501 11.5744 34.2624 12.9005Z" fill="url(#paint8_linear_180_16)"/>
<path d="M41.6033 15.3487C40.2772 15.3405 39.1755 14.2266 39.1836 12.9005C39.1918 11.5703 40.3057 10.4768 41.6359 10.4849C42.9661 10.4931 44.0637 11.607 44.0555 12.9331C44.0474 14.2551 42.9253 15.3568 41.6033 15.3487Z" fill="url(#paint9_linear_180_16)"/>
<path d="M127.298 93.5805C127.285 104.401 118.472 113.121 107.577 113.093C96.8422 113.064 88.1225 104.255 88.1348 93.4459C88.147 82.8126 96.9727 74.0113 107.631 74.0032C118.521 73.9991 127.31 82.7473 127.298 93.5805ZM107.761 78.8914C99.7555 78.8465 93.1046 85.375 93.0352 93.3479C92.9618 101.525 99.5107 108.168 107.675 108.2C115.697 108.233 122.348 101.708 122.409 93.7478C122.462 85.5749 115.922 78.9363 107.761 78.8914Z" fill="url(#paint10_linear_180_16)"/>
<path d="M117.511 93.5641C117.503 98.9624 113.088 103.341 107.669 103.32C102.332 103.3 97.95 98.9297 97.9336 93.609C97.9173 88.1985 102.295 83.7918 107.702 83.7755C113.108 83.7632 117.519 88.1659 117.511 93.5641ZM112.611 93.5356C112.611 90.8956 110.391 88.6718 107.747 88.6678C105.07 88.6637 102.867 90.8222 102.834 93.4825C102.797 96.2041 105.042 98.4483 107.771 98.4238C110.44 98.3993 112.611 96.2041 112.611 93.5356Z" fill="url(#paint11_linear_180_16)"/>
<defs>
<linearGradient id="paint0_linear_180_16" x1="70.9997" y1="147.31" x2="70.9997" y2="0.700348" gradientUnits="userSpaceOnUse">
<stop stop-color="#1CA7FB"/>
<stop offset="1" stop-color="#17FCD7"/>
</linearGradient>
<linearGradient id="paint1_linear_180_16" x1="39.1714" y1="69.1149" x2="39.1714" y2="30.0255" gradientUnits="userSpaceOnUse">
<stop stop-color="#1CA7FB"/>
<stop offset="1" stop-color="#17FCD7"/>
</linearGradient>
<linearGradient id="paint2_linear_180_16" x1="73.4483" y1="49.58" x2="73.4483" y2="30.0174" gradientUnits="userSpaceOnUse">
<stop stop-color="#1CA7FB"/>
<stop offset="1" stop-color="#17FCD7"/>
</linearGradient>
<linearGradient id="paint3_linear_180_16" x1="97.9336" y1="34.914" x2="97.9336" y2="30.0117" gradientUnits="userSpaceOnUse">
<stop stop-color="#1CA7FB"/>
<stop offset="1" stop-color="#17FCD7"/>
</linearGradient>
<linearGradient id="paint4_linear_180_16" x1="97.9308" y1="44.6861" x2="97.9308" y2="39.7894" gradientUnits="userSpaceOnUse">
<stop stop-color="#1CA7FB"/>
<stop offset="1" stop-color="#17FCD7"/>
</linearGradient>
<linearGradient id="paint5_linear_180_16" x1="97.9272" y1="54.4614" x2="97.9272" y2="49.5559" gradientUnits="userSpaceOnUse">
<stop stop-color="#1CA7FB"/>
<stop offset="1" stop-color="#17FCD7"/>
</linearGradient>
<linearGradient id="paint6_linear_180_16" x1="39.1724" y1="78.8952" x2="39.1724" y2="73.996" gradientUnits="userSpaceOnUse">
<stop stop-color="#1CA7FB"/>
<stop offset="1" stop-color="#17FCD7"/>
</linearGradient>
<linearGradient id="paint7_linear_180_16" x1="22.0356" y1="15.3487" x2="22.0356" y2="10.4849" gradientUnits="userSpaceOnUse">
<stop stop-color="#1CA7FB"/>
<stop offset="1" stop-color="#17FCD7"/>
</linearGradient>
<linearGradient id="paint8_linear_180_16" x1="31.8285" y1="15.3487" x2="31.8285" y2="10.4849" gradientUnits="userSpaceOnUse">
<stop stop-color="#1CA7FB"/>
<stop offset="1" stop-color="#17FCD7"/>
</linearGradient>
<linearGradient id="paint9_linear_180_16" x1="41.6196" y1="15.3487" x2="41.6196" y2="10.4849" gradientUnits="userSpaceOnUse">
<stop stop-color="#1CA7FB"/>
<stop offset="1" stop-color="#17FCD7"/>
</linearGradient>
<linearGradient id="paint10_linear_180_16" x1="107.716" y1="113.093" x2="107.716" y2="74.0032" gradientUnits="userSpaceOnUse">
<stop stop-color="#1CA7FB"/>
<stop offset="1" stop-color="#17FCD7"/>
</linearGradient>
<linearGradient id="paint11_linear_180_16" x1="107.722" y1="103.32" x2="107.722" y2="83.7755" gradientUnits="userSpaceOnUse">
<stop stop-color="#1CA7FB"/>
<stop offset="1" stop-color="#17FCD7"/>
</linearGradient>
</defs>
</svg>
