<svg width="208" height="208" viewBox="0 0 208 208" fill="none" xmlns="http://www.w3.org/2000/svg">
<mask id="mask0_1780_501" style="mask-type:luminance" maskUnits="userSpaceOnUse" x="0" y="0" width="208" height="208">
<path d="M208 0H0V208H208V0Z" fill="white"/>
</mask>
<g mask="url(#mask0_1780_501)">
<g opacity="0.7">
<path fill-rule="evenodd" clip-rule="evenodd" d="M9.17023 68.0298L18.3459 71.0742C21.8026 72.1585 45.1886 80.0283 46.439 80.0338C47.2732 78.5687 48.3534 75.7131 49.743 73.3219C50.9622 71.22 52.2874 69.2535 53.7131 67.2079C55.2354 65.0274 58.7721 60.9124 60.7967 59.1159C61.2419 58.7205 63.0933 57.0817 63.4114 56.5862C63.1257 55.7698 58.5737 49.7527 57.7463 48.6263C55.8749 46.0797 53.9193 43.3671 52.046 40.7218L40.5181 24.8973C39.1251 25.3034 31.7617 32.5933 30.7544 33.6027C25.1004 39.2602 18.9935 47.8506 14.967 55.0827C13.987 56.8436 9.12333 66.3846 9.17023 68.0298Z" fill="#00FFFF"/>
<path d="M62.5831 109.776H59.3687L57.1192 106.732H52.0789V109.776H49.4912V104.143H58.3209C58.7772 104.143 59.1826 103.99 59.5053 103.669C59.8267 103.331 59.9954 102.942 59.9954 102.485C59.9954 102.028 59.8267 101.64 59.5053 101.301C59.1835 100.98 58.7772 100.827 58.3209 100.827H49.4912V98.2222L58.3209 98.2382C58.9125 98.2382 59.4541 98.3397 59.978 98.5769C61.0097 99.0336 61.7713 99.7952 62.2444 100.844C62.4643 101.386 62.5831 101.943 62.5831 102.485C62.5831 103.026 62.4643 103.584 62.2444 104.126C61.7882 105.158 61.06 105.902 60.0457 106.359L62.5831 109.776ZM108.713 109.776H95.6203V107.188H108.713V109.776ZM108.713 100.862H95.6203V98.2748H108.713V100.862ZM107.647 105.31H96.6689V102.723H107.647V105.31ZM118.906 109.776H113.324C112.816 109.776 112.343 109.692 111.902 109.506C110.99 109.134 110.313 108.526 109.873 107.629C109.67 107.206 109.568 106.732 109.568 106.242H112.156C112.156 106.444 112.224 106.615 112.342 106.75C112.461 106.902 112.612 107.003 112.798 107.071C112.969 107.138 113.154 107.189 113.323 107.189H118.905C119.073 107.189 119.26 107.138 119.429 107.071C119.615 107.003 119.768 106.902 119.886 106.75C120.005 106.615 120.072 106.444 120.072 106.242C120.072 106.039 120.005 105.869 119.886 105.734C119.767 105.599 119.615 105.48 119.429 105.413C119.259 105.328 119.073 105.294 118.905 105.294H113.323C112.815 105.294 112.342 105.209 111.902 105.04C110.989 104.669 110.312 104.042 109.872 103.163C109.669 102.74 109.567 102.266 109.567 101.776C109.567 101.268 109.669 100.811 109.872 100.373C110.312 99.4935 110.989 98.8668 111.902 98.5111C112.342 98.3251 112.815 98.241 113.323 98.241H118.905C119.413 98.241 119.886 98.3251 120.326 98.5111C121.239 98.8668 121.916 99.4935 122.355 100.373C122.558 100.811 122.66 101.269 122.66 101.776H120.073C120.073 101.573 120.005 101.404 119.886 101.268C119.768 101.116 119.616 101.014 119.43 100.947C119.26 100.863 119.074 100.829 118.906 100.829H113.324C113.155 100.829 112.969 100.863 112.799 100.947C112.613 101.014 112.462 101.117 112.343 101.268C112.225 101.404 112.157 101.572 112.157 101.776C112.157 101.978 112.225 102.148 112.343 102.284C112.462 102.419 112.613 102.52 112.799 102.605C112.969 102.673 113.155 102.707 113.324 102.707H118.906C119.413 102.707 119.886 102.808 120.327 102.994C121.239 103.349 121.916 103.975 122.356 104.855C122.559 105.295 122.661 105.751 122.661 106.242C122.661 106.732 122.56 107.206 122.356 107.629C121.917 108.526 121.239 109.135 120.327 109.506C119.886 109.692 119.413 109.776 118.906 109.776ZM130.112 109.776H127.524V100.811H123.329V98.2241H134.307V100.811H130.113L130.112 109.776ZM142.146 109.776H139.558V100.811H135.363V98.2241H146.341V100.811H142.147L142.146 109.776ZM158.509 109.776H155.549L150.914 101.506L146.279 109.776H143.319L149.78 98.2241H152.047L158.509 109.776ZM94.1963 109.776H91.6255V102.233L87.6668 107.882H85.5535L81.5948 102.233V109.776H79.0071V98.2241H81.9336L86.6022 104.888L91.2712 98.2241H94.1972L94.1963 109.776ZM78.3877 109.776H75.4269L70.7921 101.506L66.1574 109.776H63.1971L69.6585 98.2241H71.9249L78.3877 109.776Z" fill="#00FFFF"/>
<path fill-rule="evenodd" clip-rule="evenodd" d="M10.8258 78.8046L5.99155 77.3848C5.14313 79.1214 3.79843 87.3812 3.43022 89.6933C1.32388 102.902 2.71761 118.226 5.94675 130.608C7.15639 130.518 34.482 121.555 38.4553 120.198C39.8749 119.713 41.8237 119.218 43.2014 118.651C43.3596 118.061 42.3858 112.88 42.2101 111.658C41.5766 107.24 41.4962 100.947 42.1674 96.5721L43.3406 89.5379L42.39 89.0556C41.9546 88.9107 41.6571 88.8344 41.2077 88.684L10.8258 78.8046Z" fill="#00FFFF"/>
<path fill-rule="evenodd" clip-rule="evenodd" d="M9.123 140.047C9.41208 142.184 13.601 150.455 14.9205 152.809C18.1448 158.549 21.9276 164.301 26.2306 169.327C29.1475 172.732 32.2038 175.864 35.2964 178.812C36.7034 180.154 38.5865 181.835 40.3225 183.059C41.0127 182.686 42.6857 180.131 43.2773 179.311C47.5461 173.394 53.379 165.077 57.6297 159.538C58.6633 158.192 59.5254 156.915 60.5416 155.546C61.1002 154.794 61.4179 154.332 61.9683 153.598C62.3244 153.123 63.0905 152.127 63.4123 151.49C63.0681 150.708 61.5756 149.631 60.9343 149.032C56.8261 145.196 52.6119 139.668 49.7951 134.727C48.4407 132.348 47.1525 129.161 46.4394 127.915C45.4998 127.912 30.0078 133.146 27.8056 133.842C25.5355 134.56 9.8314 139.475 9.123 140.047Z" fill="#00FFFF"/>
<path fill-rule="evenodd" clip-rule="evenodd" d="M48.438 188.977C60.1705 196.91 70.5312 200.401 84.1351 203.593C88.0174 204.503 94.984 205.446 99.1703 205.397C99.1703 201.006 99.4738 167.254 98.9911 166.039C93.5198 165.6 88.5985 164.578 83.8723 162.956C81.5629 162.162 79.4793 161.297 77.4479 160.36C75.3017 159.371 73.4951 158.155 71.4971 157.188C70.6112 157.851 69.2796 160.058 68.5893 161.003C67.4799 162.525 66.6379 163.683 65.6788 165C63.8947 167.453 61.7544 170.34 59.8738 173.006C58.5518 174.88 48.641 188.128 48.438 188.977Z" fill="#00FFFF"/>
<path fill-rule="evenodd" clip-rule="evenodd" d="M108.92 205.42C111.705 205.618 120.721 204.28 123.654 203.645C128.414 202.613 132.569 201.56 136.885 200.104C141.999 198.379 155.394 192.478 159.514 188.978C159.363 188.16 154.777 182.182 153.893 180.954L136.607 157.213L130.355 160.453C128.333 161.384 125.877 162.38 123.619 163.138C119.503 164.52 116.236 165.159 111.967 165.741C108.449 166.22 108.826 165.625 108.845 167.457C108.876 170.613 108.645 203.612 108.92 205.42Z" fill="#00FFFF"/>
<path fill-rule="evenodd" clip-rule="evenodd" d="M144.551 151.292C144.794 152.154 149.068 157.749 150.135 159.263C152.036 161.956 153.877 164.369 155.956 167.249C157.402 169.251 166.848 182.52 167.582 183.065C169.3 182.21 175.915 175.777 177.346 174.274C183.209 168.109 189.076 160.237 193.099 152.746C193.942 151.175 198.923 141.486 198.865 139.927L161.677 127.825C160.463 129.41 157.143 139.731 147.18 148.843C146.35 149.602 145.622 150.447 144.551 151.292Z" fill="#00FFFF"/>
<path fill-rule="evenodd" clip-rule="evenodd" d="M164.64 89.381C164.861 92.66 166.268 95.9933 166.268 102.953C166.268 107.08 166.071 108.227 165.753 112.236C165.638 113.669 164.577 117.723 164.735 118.615C167.68 119.737 170.806 120.579 173.96 121.64L201.994 130.662C204.856 118.882 205.571 113.934 205.571 101.769C205.571 93.87 203.931 84.2969 202.029 77.3674C199.715 77.6298 169.788 87.9973 164.64 89.381Z" fill="#00FFFF"/>
<path fill-rule="evenodd" clip-rule="evenodd" d="M144.529 56.5867C145.19 57.378 148.103 59.8231 149.616 61.5332C153.22 65.6043 155.549 68.5838 158.204 73.2808L161.665 80.0745L198.89 68.0627C198.768 66.2105 194.147 57.1188 193.133 55.2811C190.998 51.4111 188.464 47.4474 185.853 43.8445C182.534 39.2644 176.878 32.8481 172.684 29.1835C171.236 27.9179 169.189 25.8549 167.583 24.8735C166.903 25.4175 156.767 39.6417 156.015 40.6742C154.351 42.9597 152.24 45.7319 150.282 48.545L144.529 56.5867Z" fill="#00FFFF"/>
<path fill-rule="evenodd" clip-rule="evenodd" d="M108.857 41.8523C111.599 42.3143 114.243 42.4466 116.805 43.0318C128.728 45.7542 135.801 50.5568 136.606 50.7268L156.681 23.2033C157.302 22.3304 159.257 19.9139 159.545 19.0998C159.087 18.5706 157.8 17.8587 157.067 17.3967C156.167 16.8318 155.311 16.3278 154.465 15.8427C152.659 14.8074 150.748 13.8168 148.921 12.8865C141.246 8.98117 132.568 6.16782 123.963 4.38069C120.575 3.67717 112.224 2.31565 108.896 2.59846L108.857 41.8523Z" fill="#00FFFF"/>
<path fill-rule="evenodd" clip-rule="evenodd" d="M48.4196 19.0991L65.5256 42.8169C66.4293 44.0209 70.7674 50.2455 71.4956 50.7474L77.5168 47.5896C79.5359 46.6292 81.8138 45.7442 83.9522 44.9856C90.0717 42.8127 98.0315 42.1974 99.0998 41.7893L99.1688 2.66776C91.3196 2.27575 78.2688 5.43702 70.8236 7.96683C66.1957 9.53905 50.7798 16.2893 48.4196 19.0991Z" fill="#00FFFF"/>
</g>
</g>
</svg>
