<svg width="64" height="64" viewBox="0 0 64 64" fill="none" xmlns="http://www.w3.org/2000/svg">
<path d="M37.1353 2.78249C40.9541 3.02758 44.7746 3.27087 48.5933 3.51596C51.1326 3.67815 53.6682 3.89261 56.2092 3.98632C57.905 4.04939 59.2458 4.59905 60.2352 6.03175C60.9759 7.10402 61.8373 8.0916 62.6392 9.12242C63.8269 10.6488 64.0954 12.3194 63.4124 14.1396C57.6005 29.6524 51.7921 45.1689 45.9748 60.6799C45.1314 62.9308 43.3563 64.131 40.9613 63.9886C35.7693 63.6805 30.5809 63.3236 25.3926 62.9848C24.0446 62.8965 22.6948 62.8298 21.3522 62.7055C19.9285 62.5739 18.813 61.8657 17.9407 60.7466C17.027 59.5752 16.117 58.4002 15.1852 57.2432C14.1779 55.9925 13.9706 54.6517 14.5437 53.1379C16.4287 48.155 18.2759 43.1577 20.1592 38.1747C20.3232 37.7422 20.3304 37.4251 20.0006 37.0899C19.7645 36.8502 19.5915 36.551 19.3662 36.3005C17.1406 33.8262 16.9117 30.9842 17.9065 27.9656C19.141 24.2244 21.6171 21.4274 24.8141 19.2288C25.6251 18.6702 26.5369 18.2593 27.3713 17.7294C27.6651 17.5438 27.9696 17.2465 28.0904 16.9329C29.4654 13.343 30.8008 9.73876 32.1542 6.14168C33.0084 3.87639 34.7349 2.71761 37.1353 2.78249ZM29.3032 16.8374C30.489 16.6193 31.5613 16.3436 32.6498 16.2391C35.7729 15.9417 38.4905 16.6986 40.4549 19.3694C41.4821 20.7661 42.549 22.1357 43.6663 23.4603C45.4973 25.6318 45.8505 28.0828 45.1783 30.7499C44.3385 34.0839 42.412 36.7384 39.8403 38.9298C36.5208 41.761 32.7705 43.5686 28.2778 43.3325C25.9621 43.2117 24.0121 42.3071 22.5884 40.4112C22.1451 39.8219 21.6802 39.2506 21.2206 38.6649C21.1413 38.7388 21.0981 38.7604 21.0855 38.7929C19.1968 43.8245 17.2847 48.8452 15.4412 53.893C14.8266 55.578 16.0593 57.2702 17.8596 57.3856C24.3311 57.8019 30.8026 58.2164 37.2741 58.6236C39.698 58.7768 40.909 57.9821 41.756 55.7186C46.3929 43.3379 51.0316 30.959 55.6686 18.5783C56.8904 15.3146 58.1285 12.0563 59.3233 8.78362C59.9486 7.06978 58.943 5.42623 57.1661 5.17754C56.6111 5.10004 56.0398 5.12167 55.4847 5.04778C55.0684 4.99191 54.8846 5.1469 54.7495 5.52895C54.2809 6.84271 53.7583 8.13485 53.3023 9.45221C53.1059 10.0199 52.8032 10.2055 52.1994 10.1605C49.7305 9.97123 47.2562 9.83066 44.7854 9.67208C42.6283 9.53331 40.4711 9.39995 38.3139 9.25758C37.6616 9.21433 37.4759 8.9368 37.6868 8.32948C37.8634 7.81947 38.0598 7.31668 38.2473 6.81028C38.5879 5.89479 38.9267 4.9793 39.2871 4.01155C38.4671 3.95568 37.7499 3.8854 37.0326 3.86377C35.2016 3.80971 33.8735 4.69096 33.2193 6.39758C32.5201 8.22496 31.8424 10.0595 31.1558 11.8905C30.5413 13.5305 29.9286 15.1668 29.3032 16.8374ZM23.7472 32.3971C26.2937 32.0276 28.8977 31.6492 31.5 31.2707C31.7001 31.2419 31.9199 31.2419 32.0929 31.1536C32.2966 31.0491 32.5435 30.8995 32.6246 30.7067C33.7095 28.09 34.7745 25.4678 35.8252 22.8367C36.0396 22.3015 35.7387 21.9483 35.162 22.0312C32.4011 22.4294 29.642 22.8313 26.8866 23.2674C26.6307 23.3071 26.3009 23.5558 26.2017 23.7919C25.1223 26.3617 24.0752 28.9442 23.0372 31.5302C22.7975 32.1376 23.039 32.4313 23.7472 32.3971ZM38.0364 39.065C36.856 37.5656 35.7657 36.1798 34.6916 34.8156C33.7383 35.4103 32.8643 35.9563 31.9307 36.5384C33.0192 37.926 34.1095 39.3137 35.2521 40.7716C36.1856 40.1985 37.0777 39.6525 38.0364 39.065ZM41.1847 36.077C40.062 34.6462 38.9753 33.2639 37.8724 31.8582C37.0939 32.6872 36.3784 33.4513 35.6287 34.2497C36.6524 35.5526 37.7427 36.9385 38.9158 38.4306C39.6944 37.6233 40.4206 36.8682 41.1847 36.077ZM41.8984 35.23C42.3868 34.3902 42.7905 33.646 43.2446 32.9341C43.6032 32.3718 43.5239 31.9411 43.0788 31.4546C42.5183 30.8436 42.0408 30.1588 41.5271 29.5064C41.1469 29.0253 40.7684 28.5441 40.3882 28.0611C39.7629 29.0901 39.1844 30.0417 38.5915 31.0166C39.6583 32.3773 40.7234 33.7343 41.8984 35.23ZM34.2645 41.2672C33.0535 39.7246 31.974 38.3514 30.9306 37.0232C29.8042 37.3854 28.7536 37.7242 27.6417 38.0828C28.6725 39.3948 29.651 40.6527 30.6512 41.8908C30.7521 42.0169 31.0099 42.1214 31.1594 42.0872C32.1524 41.8493 33.1382 41.57 34.2645 41.2672ZM43.9673 30.858C45.135 28.272 43.8988 24.2352 41.6407 22.7628C41.4118 23.9775 41.1667 25.2498 40.9397 26.5257C40.909 26.7005 40.909 26.9438 41.0045 27.07C41.9741 28.3369 42.9653 29.5839 43.9673 30.858ZM29.5159 42.2224C28.4706 40.8942 27.4921 39.6435 26.5027 38.4018C26.4288 38.3099 26.2846 38.2288 26.1693 38.2234C24.8015 38.1477 23.4337 38.0864 22.1649 38.0252C23.74 40.6419 25.8972 42.5539 29.5159 42.2224Z" fill="url(#paint0_linear_1760_235)"/>
<path d="M21.8208 9.20894C21.3108 15.2749 18.8599 20.3245 13.9779 24.0586C12.4479 25.23 10.6511 26.1653 8.71202 25.5796C6.15478 24.8083 3.74352 23.5558 1.67106 21.8564C0.312241 20.7426 0.052733 18.9892 0.00587737 17.2915C-0.0842297 14.0801 0.869103 11.1228 2.35947 8.32409C3.74172 5.73261 5.51502 3.45831 7.95873 1.76609C9.12111 0.962339 10.3736 0.373039 11.7991 0.228868C12.7921 0.12975 13.713 0.369435 14.5888 0.8452C15.8737 1.54263 17.1424 2.2761 18.4688 2.88342C20.5989 3.85838 21.473 5.61367 21.7397 7.79606C21.7974 8.26281 21.7956 8.73678 21.8208 9.20894ZM18.9284 16.5761C19.5285 14.7613 20.0871 13.0691 20.6458 11.3733C19.2708 10.6525 18.0489 10.0109 16.8739 9.39456C16.2648 11.148 15.6791 12.833 15.0826 14.5541C16.2756 15.1812 17.5029 15.8282 18.9284 16.5761ZM11.3305 19.9101C12.5398 20.5444 13.7652 21.1896 15.1168 21.9014C16.2161 20.4453 17.2884 19.0216 18.4111 17.533C16.9965 16.7869 15.7548 16.1346 14.5816 15.5164C13.4859 16.996 12.4334 18.4179 11.3305 19.9101ZM8.80033 10.0307C9.60408 10.447 10.3718 10.8453 11.1774 11.2634C11.3558 10.93 11.5089 10.6416 11.6747 10.3299C10.9287 9.92439 10.2511 9.55855 9.5338 9.16749C10.37 8.17631 11.1467 7.25722 11.9451 6.31109C11.6405 6.05699 11.4026 5.85515 11.1683 5.66052C11.1107 5.69476 11.0638 5.70738 11.0368 5.73982C10.552 6.30208 10.069 6.86615 9.58606 7.43022C8.55704 8.63406 8.55704 8.63406 7.16759 7.93663C7.0937 7.89878 7.009 7.87896 6.88465 7.83571C6.72246 8.15469 6.57468 8.44483 6.4179 8.74939C6.90628 9.02151 7.32798 9.25579 7.79293 9.5153C7.58568 9.77121 7.43611 9.96404 7.27752 10.1497C6.46475 11.1102 5.65199 12.0743 4.83021 13.0295C4.49321 13.4223 4.4049 13.8062 4.92392 14.0855C6.46295 14.9145 8.0164 15.7183 9.6185 16.5617C9.79151 16.2265 9.93928 15.9399 10.1105 15.6065C8.70301 14.8623 7.3442 14.1414 5.94213 13.3989C6.91709 12.251 7.847 11.1553 8.80033 10.0307ZM14.0788 22.5862C12.9218 21.9735 11.8153 21.3788 10.6962 20.8111C10.5538 20.739 10.2763 20.7354 10.1664 20.8273C8.91747 21.86 7.55144 22.6709 5.92591 23.0998C8.92648 25.1975 11.4783 25.0408 14.0788 22.5862ZM20.635 10.1442C21.1396 6.51474 19.6961 4.1269 16.4432 3.16275C17.0361 4.72161 17.1118 6.29848 16.9766 7.89698C16.9658 8.03394 17.0776 8.2538 17.1947 8.31688C18.3102 8.9278 19.4402 9.5135 20.635 10.1442Z" fill="url(#paint1_linear_1760_235)"/>
<path d="M26.2558 12.7285C25.899 12.6672 25.5998 12.615 25.2844 12.5609C25.3853 11.312 25.5439 10.11 25.5602 8.90796C25.5764 7.70053 25.4502 6.49309 25.3835 5.19735C25.6088 5.13968 25.9242 5.06039 26.3044 4.96307C26.8631 7.56176 26.7225 10.11 26.2558 12.7285Z" fill="url(#paint2_linear_1760_235)"/>
<path d="M12.9778 32.1376C13.3761 32.1376 13.6806 32.1376 14.041 32.1376C14.2032 34.484 14.9673 36.5618 16.8109 38.1802C16.5713 38.4667 16.3622 38.7154 16.1171 39.0055C14.0483 37.1728 13.1274 34.8804 12.9778 32.1376Z" fill="url(#paint3_linear_1760_235)"/>
<path d="M22.967 0.832589C23.1653 0.596509 23.3635 0.358626 23.6627 0C24.3331 0.881247 24.962 1.70663 25.6594 2.62392C25.2341 2.82756 24.9458 2.96632 24.6629 3.10149C24.0826 2.32476 23.5311 1.58588 22.967 0.832589Z" fill="url(#paint4_linear_1760_235)"/>
<path d="M14.1401 29.993C13.7743 29.9552 13.4697 29.9246 13.0642 29.8831C13.2228 29.1154 13.3688 28.4054 13.5292 27.6268C13.9112 27.7422 14.2212 27.8341 14.569 27.9386C14.4284 28.618 14.2933 29.265 14.1401 29.993Z" fill="url(#paint5_linear_1760_235)"/>
<path d="M47.8743 23.9919C47.5193 23.8657 47.2292 23.7612 46.8633 23.6315C47.9897 20.6021 49.1034 17.6051 50.2459 14.5288C45.7604 14.2387 41.3632 13.9558 36.9209 13.6674C36.9209 13.3124 36.9209 12.9934 36.9209 12.6024C38.1554 12.669 39.3412 12.7249 40.5252 12.8006C43.9402 13.0187 47.3535 13.2439 50.7668 13.471C51.4642 13.5178 51.6732 13.799 51.4372 14.4351C50.2694 17.5961 49.0854 20.7516 47.8743 23.9919Z" fill="url(#paint6_linear_1760_235)"/>
<path d="M38.3897 53.1758C38.3716 53.5759 38.3572 53.8804 38.3392 54.2571C34.0159 53.9795 29.7448 53.7038 25.4485 53.4281C25.4485 53.0821 25.4485 52.7793 25.4485 52.3504C29.7646 52.6261 34.0339 52.8983 38.3897 53.1758Z" fill="url(#paint7_linear_1760_235)"/>
<path d="M39.4333 48.2163C39.4333 48.5911 39.4333 48.8975 39.4333 49.2958C35.5659 49.0489 31.7435 48.8038 27.8545 48.5533C27.8779 48.2001 27.8995 47.8973 27.9266 47.4774C31.7904 47.7279 35.6073 47.9712 39.4333 48.2163Z" fill="url(#paint8_linear_1760_235)"/>
<path d="M22.5652 48.2199C22.6012 47.8162 22.6283 47.5134 22.6589 47.1494C23.4554 47.1999 24.2033 47.2467 24.9566 47.2936C24.9566 47.6576 24.9566 47.9604 24.9566 48.3568C24.1601 48.3118 23.4104 48.2685 22.5652 48.2199Z" fill="url(#paint9_linear_1760_235)"/>
<path d="M22.9797 52.181C22.9616 52.5793 22.9472 52.864 22.9292 53.2551C22.12 53.21 21.3559 53.1686 20.5396 53.1235C20.5666 52.7451 20.5882 52.4405 20.6152 52.0566C21.4118 52.0999 22.1579 52.1377 22.9797 52.181Z" fill="url(#paint10_linear_1760_235)"/>
<path d="M27.575 24.2496C29.8763 23.9108 32.1163 23.581 34.5096 23.2278C33.6067 25.4516 32.7471 27.5709 31.8821 29.7029C29.3969 28.1747 28.7391 27.3439 27.575 24.2496Z" fill="url(#paint11_linear_1760_235)"/>
<path d="M30.5595 30.3084C28.5285 30.6058 26.4975 30.9049 24.3313 31.2221C25.1603 29.1839 25.9388 27.2682 26.7155 25.3544C26.775 25.3381 26.8345 25.3219 26.8939 25.3039C27.4706 27.4484 28.6763 29.0992 30.6947 30.112C30.6496 30.1787 30.6046 30.2436 30.5595 30.3084Z" fill="url(#paint12_linear_1760_235)"/>
<defs>
<linearGradient id="paint0_linear_1760_235" x1="39.0053" y1="2.77991" x2="39.0053" y2="64" gradientUnits="userSpaceOnUse">
<stop stop-color="#00FFFF"/>
<stop offset="1" stop-color="#1CA7FB"/>
</linearGradient>
<linearGradient id="paint1_linear_1760_235" x1="10.9104" y1="0.206787" x2="10.9104" y2="25.7593" gradientUnits="userSpaceOnUse">
<stop stop-color="#00FFFF"/>
<stop offset="1" stop-color="#1CA7FB"/>
</linearGradient>
<linearGradient id="paint2_linear_1760_235" x1="25.9762" y1="4.96307" x2="25.9762" y2="12.7285" gradientUnits="userSpaceOnUse">
<stop stop-color="#00FFFF"/>
<stop offset="1" stop-color="#1CA7FB"/>
</linearGradient>
<linearGradient id="paint3_linear_1760_235" x1="14.8944" y1="32.1376" x2="14.8944" y2="39.0055" gradientUnits="userSpaceOnUse">
<stop stop-color="#00FFFF"/>
<stop offset="1" stop-color="#1CA7FB"/>
</linearGradient>
<linearGradient id="paint4_linear_1760_235" x1="24.3132" y1="0" x2="24.3132" y2="3.10149" gradientUnits="userSpaceOnUse">
<stop stop-color="#00FFFF"/>
<stop offset="1" stop-color="#1CA7FB"/>
</linearGradient>
<linearGradient id="paint5_linear_1760_235" x1="13.8166" y1="27.6268" x2="13.8166" y2="29.993" gradientUnits="userSpaceOnUse">
<stop stop-color="#00FFFF"/>
<stop offset="1" stop-color="#1CA7FB"/>
</linearGradient>
<linearGradient id="paint6_linear_1760_235" x1="44.2256" y1="12.6024" x2="44.2256" y2="23.9919" gradientUnits="userSpaceOnUse">
<stop stop-color="#00FFFF"/>
<stop offset="1" stop-color="#1CA7FB"/>
</linearGradient>
<linearGradient id="paint7_linear_1760_235" x1="31.9191" y1="52.3504" x2="31.9191" y2="54.2571" gradientUnits="userSpaceOnUse">
<stop stop-color="#00FFFF"/>
<stop offset="1" stop-color="#1CA7FB"/>
</linearGradient>
<linearGradient id="paint8_linear_1760_235" x1="33.6439" y1="47.4774" x2="33.6439" y2="49.2958" gradientUnits="userSpaceOnUse">
<stop stop-color="#00FFFF"/>
<stop offset="1" stop-color="#1CA7FB"/>
</linearGradient>
<linearGradient id="paint9_linear_1760_235" x1="23.7609" y1="47.1494" x2="23.7609" y2="48.3568" gradientUnits="userSpaceOnUse">
<stop stop-color="#00FFFF"/>
<stop offset="1" stop-color="#1CA7FB"/>
</linearGradient>
<linearGradient id="paint10_linear_1760_235" x1="21.7596" y1="52.0566" x2="21.7596" y2="53.2551" gradientUnits="userSpaceOnUse">
<stop stop-color="#00FFFF"/>
<stop offset="1" stop-color="#1CA7FB"/>
</linearGradient>
<linearGradient id="paint11_linear_1760_235" x1="31.0423" y1="23.2278" x2="31.0423" y2="29.7029" gradientUnits="userSpaceOnUse">
<stop stop-color="#00FFFF"/>
<stop offset="1" stop-color="#1CA7FB"/>
</linearGradient>
<linearGradient id="paint12_linear_1760_235" x1="27.513" y1="25.3039" x2="27.513" y2="31.2221" gradientUnits="userSpaceOnUse">
<stop stop-color="#00FFFF"/>
<stop offset="1" stop-color="#1CA7FB"/>
</linearGradient>
</defs>
</svg>
