<svg width="57" height="65" viewBox="0 0 57 65" fill="none" xmlns="http://www.w3.org/2000/svg">
<path d="M0.0155402 43.9227C0.0155402 42.7435 0.0340692 41.5627 0.00880235 40.3853C-0.00467331 39.762 0.251364 39.3645 0.781969 39.063C2.60792 38.0254 4.41535 36.9557 6.24467 35.9215C6.58324 35.7294 6.70453 35.5189 6.69947 35.1315C6.67926 33.1724 6.67926 31.2134 6.69947 29.2561C6.70453 28.8602 6.55966 28.6615 6.22951 28.4745C4.4204 27.4487 2.63319 26.3858 0.820711 25.365C0.239573 25.0382 -0.00298886 24.607 0.00374898 23.9382C0.0290159 21.6002 0.0273314 19.2622 0.00543344 16.9258C0.00206452 16.2773 0.246311 15.8646 0.802182 15.5496C2.86564 14.3789 4.92068 13.188 6.96562 11.9853C7.47769 11.6838 7.92744 11.6855 8.43783 11.9853C10.2672 13.06 12.1116 14.106 13.9393 15.1841C14.2492 15.3677 14.4749 15.3778 14.7916 15.1908C16.4727 14.197 18.1622 13.215 19.8669 12.2599C20.2375 12.0527 20.3385 11.8135 20.3352 11.4109C20.3166 9.32555 20.3368 7.24188 20.32 5.15652C20.315 4.54338 20.5356 4.13405 21.0763 3.8258C23.1398 2.65341 25.1931 1.46082 27.2364 0.254745C27.767 -0.0585644 28.2319 -0.0686712 28.7642 0.244638C30.8277 1.45913 32.9012 2.65678 34.9798 3.84601C35.4953 4.14079 35.7025 4.55012 35.6991 5.13631C35.684 7.24188 35.7025 9.34914 35.684 11.4547C35.6806 11.8421 35.8052 12.0561 36.1404 12.2447C37.8586 13.2167 39.5565 14.2256 41.2814 15.1858C41.4802 15.297 41.8508 15.2919 42.0529 15.179C43.8856 14.1515 45.7065 13.1038 47.5105 12.0291C48.0614 11.7006 48.5381 11.6754 49.0939 12.0038C51.1574 13.22 53.2293 14.4177 55.3079 15.6086C55.8014 15.8916 56.0086 16.2807 56.007 16.845C55.9952 19.2251 55.9884 21.6053 56.0103 23.9837C56.0171 24.6322 55.7644 25.0432 55.2102 25.3566C53.3826 26.3925 51.5751 27.4604 49.7475 28.4964C49.4325 28.6749 49.3146 28.8737 49.318 29.2359C49.3348 31.2151 49.3365 33.196 49.3163 35.1753C49.3129 35.5475 49.4527 35.7345 49.7576 35.908C51.565 36.9372 53.3539 37.9984 55.1664 39.0175C55.7694 39.3561 56.0204 39.7957 56.012 40.4914C55.9834 42.8075 55.9851 45.1254 56.0103 47.4415C56.0171 48.1119 55.7711 48.5398 55.1917 48.8682C53.1636 50.017 51.1456 51.1844 49.1377 52.3719C48.565 52.7105 48.0782 52.7138 47.5004 52.3685C45.7149 51.3023 43.8991 50.2899 42.1085 49.2304C41.7733 49.0316 41.5341 49.0333 41.2022 49.2304C39.5414 50.2175 37.8704 51.1911 36.1842 52.131C35.7901 52.35 35.6806 52.601 35.6856 53.0255C35.7042 55.0889 35.6806 57.1541 35.7025 59.2175C35.7092 59.8593 35.4751 60.2838 34.9175 60.6005C32.8726 61.7644 30.8344 62.9402 28.8097 64.1362C28.2319 64.4781 27.7434 64.4495 27.1707 64.1092C25.1679 62.9166 23.1465 61.7527 21.1184 60.6038C20.5609 60.2872 20.3116 59.8778 20.3183 59.2327C20.3402 57.1271 20.3183 55.0199 20.3335 52.9143C20.3368 52.5538 20.2274 52.3483 19.9073 52.1681C18.1875 51.1978 16.4761 50.2124 14.7781 49.2051C14.453 49.0114 14.2273 49.0468 13.9258 49.2236C12.206 50.236 10.4592 51.2012 8.7562 52.2422C8.02514 52.6903 7.42547 52.7223 6.67252 52.2607C4.77582 51.0968 2.83869 49.9951 0.894828 48.9103C0.241258 48.5465 -0.0265713 48.0799 0.00206452 47.3354C0.0492294 46.1984 0.0155402 45.0597 0.0155402 43.9227ZM28.2589 42.7722C34.1477 42.5481 38.7514 37.7154 38.561 31.9596C38.3673 26.1112 33.5161 21.4301 27.8479 21.6221C21.8815 21.8242 17.2577 26.6485 17.4547 32.4667C17.6535 38.3303 22.5401 42.9912 28.2589 42.7722ZM26.9972 44.7784C22.6193 44.2343 19.2689 42.2129 17.1162 38.4448C14.9668 34.6851 14.9179 30.7687 16.6294 26.79C15.9825 26.4144 15.3795 26.0287 14.7411 25.717C14.5288 25.6143 14.1717 25.6092 13.9696 25.7221C12.3542 26.6216 10.7674 27.5682 9.15541 28.4762C8.81852 28.6665 8.69387 28.8754 8.69724 29.2645C8.71745 31.2235 8.71745 33.1825 8.69724 35.1399C8.69219 35.5307 8.82526 35.7362 9.15878 35.9248C10.9679 36.949 12.7568 38.0119 14.5693 39.0327C15.1487 39.3595 15.398 39.7907 15.3896 40.4594C15.3643 42.5448 15.3694 44.6301 15.3963 46.7155C15.3997 46.9564 15.5496 47.3 15.7416 47.4162C17.4884 48.464 19.2554 49.4797 21.0292 50.4819C21.1892 50.5712 21.484 50.5796 21.6406 50.4904C23.3251 49.5437 24.9977 48.5734 26.6637 47.5965C26.8052 47.5139 26.9753 47.332 26.9804 47.1905C27.014 46.3938 26.9972 45.5987 26.9972 44.7784ZM29.0169 44.8036C29.0169 45.5279 28.9882 46.2607 29.0337 46.9884C29.0472 47.2057 29.2207 47.4937 29.406 47.6049C31.0264 48.5751 32.6604 49.5218 34.3094 50.4449C34.4964 50.5493 34.8417 50.5561 35.027 50.4533C36.7671 49.4797 38.4818 48.4623 40.2168 47.4802C40.5369 47.2983 40.6413 47.0911 40.6379 46.7323C40.6228 44.6487 40.6481 42.565 40.6211 40.483C40.6127 39.7873 40.8755 39.3527 41.4768 39.0141C43.2893 37.9984 45.0832 36.949 46.8704 35.8878C47.0642 35.7732 47.2831 35.4987 47.2865 35.2949C47.3168 33.2331 47.3135 31.1696 47.2916 29.1078C47.2899 28.9242 47.145 28.6648 46.9884 28.5722C45.3275 27.5868 43.6548 26.6216 41.9754 25.6699C41.8255 25.584 41.561 25.5536 41.4179 25.6294C40.7323 25.9882 40.0703 26.3908 39.4049 26.7766C43.1764 35.1618 37.4189 44.1029 29.0169 44.8036ZM38.374 25.0298C39.0411 24.6457 39.6913 24.3021 40.3027 23.9012C40.4695 23.7917 40.616 23.5104 40.6177 23.3066C40.6413 21.4115 40.6194 19.5165 40.6413 17.6215C40.6464 17.2358 40.4746 17.0673 40.1781 16.8972C38.5004 15.9404 36.8243 14.9786 35.1635 13.9915C34.8097 13.7809 34.5587 13.7742 34.2016 13.9865C32.4515 15.0274 30.6693 16.0162 28.9225 17.0656C28.2892 17.4463 27.7653 17.4682 27.1185 17.0774C25.3397 16.0011 23.5289 14.9786 21.7181 13.9561C21.5379 13.8551 21.2178 13.813 21.0527 13.9056C19.2588 14.9146 17.48 15.9488 15.7096 17C15.5513 17.0943 15.398 17.3486 15.3963 17.5306C15.3744 19.4677 15.3761 21.4048 15.393 23.3419C15.3946 23.5171 15.4991 23.7647 15.6355 23.8523C16.2857 24.2667 16.9629 24.6373 17.6249 25.0213C22.6058 17.9146 33.1303 17.7192 38.374 25.0298ZM13.3632 41.8895C13.1038 42.0192 12.9185 42.0984 12.745 42.1995C11.8 42.7419 10.8938 43.3685 9.90668 43.8132C8.92633 44.2562 8.59112 44.8693 8.68376 45.9389C8.79494 47.2191 8.70903 48.5162 8.70903 49.9075C10.2604 49.0131 11.7091 48.1827 13.1493 47.3371C13.252 47.2764 13.3531 47.1113 13.3548 46.9934C13.3682 45.3224 13.3632 43.6498 13.3632 41.8895ZM49.323 49.9126C50.866 49.0215 52.2978 48.1978 53.7228 47.3589C53.8424 47.2882 53.9688 47.1097 53.9688 46.9783C53.9856 45.3073 53.9789 43.638 53.9789 41.8424C52.4089 42.7503 50.9451 43.5925 49.4915 44.4516C49.3971 44.5072 49.3314 44.6925 49.3298 44.8171C49.3196 46.478 49.323 48.1355 49.323 49.9126ZM8.71072 26.4077C10.2486 25.5183 11.6686 24.703 13.0785 23.8742C13.2032 23.8018 13.3497 23.6317 13.3514 23.507C13.3699 21.831 13.3632 20.1533 13.3632 18.5059C13.2857 18.4688 13.2588 18.4452 13.2486 18.452C11.8068 19.2706 10.3649 20.0876 8.9297 20.918C8.82694 20.9786 8.72082 21.1404 8.71914 21.2549C8.70566 22.9343 8.71072 24.6137 8.71072 26.4077ZM29.0169 61.6617C30.2566 60.9458 31.3616 60.2147 32.5475 59.6504C33.4554 59.2192 33.7721 58.6617 33.6963 57.6611C33.5969 56.354 33.671 55.0333 33.671 53.5948C32.1095 54.4994 30.6592 55.3315 29.2224 56.1872C29.1028 56.2579 29.027 56.4955 29.0253 56.6555C29.0118 58.2776 29.0169 59.8997 29.0169 61.6617ZM53.9805 18.3458C52.4123 19.2521 50.9468 20.0909 49.4965 20.9567C49.382 21.0241 49.3331 21.2768 49.3314 21.4452C49.3163 22.4542 49.3247 23.4615 49.3247 24.4705C49.3247 25.0854 49.3247 25.7019 49.3247 26.4127C50.8694 25.5216 52.3045 24.703 53.7228 23.8574C53.861 23.7748 53.9704 23.5255 53.9721 23.3537C53.989 21.735 53.9805 20.1179 53.9805 18.3458ZM29.0169 14.6619C30.3813 13.8736 31.6076 13.1088 32.8877 12.4469C33.5245 12.1184 33.7131 11.7158 33.6879 11.0252C33.634 9.59001 33.671 8.15149 33.671 6.59505C32.1163 7.49455 30.6693 8.32499 29.2342 9.17564C29.123 9.24133 29.027 9.4401 29.027 9.57654C29.0118 11.2324 29.0169 12.8865 29.0169 14.6619ZM3.0543 40.0939C4.57705 40.9732 5.98863 41.7969 7.412 42.5987C7.55012 42.6762 7.79774 42.7115 7.92407 42.6391C9.37776 41.8188 10.818 40.9749 12.3407 40.0905C10.8079 39.2011 9.36429 38.3555 7.90723 37.5301C7.79269 37.4661 7.57202 37.4863 7.45074 37.5554C6.01053 38.3741 4.58211 39.2079 3.0543 40.0939ZM43.6767 16.5923C44.8339 17.2627 45.9709 17.8135 46.985 18.5379C47.9384 19.2184 48.7048 19.2251 49.6599 18.5395C50.6689 17.8152 51.8025 17.2644 52.9581 16.5923C51.4353 15.708 50.0069 14.8742 48.5684 14.0572C48.4471 13.9881 48.2248 13.9713 48.1102 14.037C46.6548 14.8607 45.2079 15.7046 43.6767 16.5923ZM32.657 4.84321C31.1208 3.95213 29.6923 3.11664 28.2538 2.30136C28.1325 2.2323 27.9085 2.22388 27.7923 2.28957C26.3369 3.11496 24.8933 3.96055 23.3739 4.84153C24.8967 5.72587 26.3419 6.56978 27.799 7.39685C27.9152 7.46254 28.1359 7.44907 28.2572 7.38001C29.694 6.56473 31.1224 5.73092 32.657 4.84321ZM52.9631 40.0956C51.4219 39.2011 49.9783 38.3521 48.5178 37.5352C48.3865 37.4611 48.1169 37.5369 47.9569 37.6262C47.0574 38.1231 46.1731 38.6452 45.2837 39.159C44.7716 39.4555 44.2629 39.7536 43.6767 40.0956C45.1978 40.9749 46.6077 41.7986 48.0327 42.5987C48.1793 42.6812 48.4505 42.688 48.597 42.6054C50.0204 41.807 51.4303 40.9816 52.9631 40.0956ZM23.3739 51.8447C24.8967 52.729 26.3386 53.578 27.799 54.3916C27.9456 54.4724 28.242 54.3848 28.4206 54.2871C29.2123 53.8559 29.9854 53.3927 30.7653 52.9396C31.3684 52.5892 31.9697 52.2371 32.6502 51.8396C31.1174 50.9502 29.689 50.1181 28.2504 49.3011C28.1308 49.2337 27.9102 49.222 27.7939 49.2877C26.3403 50.1164 24.895 50.962 23.3739 51.8447ZM3.05599 16.5923C4.59558 17.4834 6.02569 18.3155 7.46422 19.1308C7.58381 19.1982 7.80616 19.21 7.92239 19.1443C9.37608 18.3189 10.8197 17.4733 12.3407 16.5906C10.8129 15.7046 9.36934 14.859 7.91228 14.0336C7.79774 13.9679 7.57539 13.9898 7.45243 14.0589C6.0139 14.8758 4.58548 15.708 3.05599 16.5923Z" fill="url(#paint0_linear_1760_243)"/>
<path d="M28.0989 25.3953C31.4341 25.4677 34.4123 26.6283 36.9137 28.9882C37.3213 29.3723 37.5352 29.7934 37.2961 30.3341C37.0063 30.9877 36.2012 31.0887 35.6099 30.5278C34.5116 29.4885 33.2904 28.6446 31.8603 28.1443C27.7098 26.6906 23.9703 27.4368 20.6469 30.3088C20.5509 30.3914 20.4666 30.4857 20.3706 30.5682C19.867 30.9978 19.3077 31.0011 18.9051 30.5817C18.5177 30.1774 18.5346 29.5626 18.9809 29.1129C20.0758 28.0129 21.3442 27.1606 22.7558 26.5255C24.4302 25.7743 26.1887 25.4239 28.0989 25.3953Z" fill="url(#paint1_linear_1760_243)"/>
<path d="M27.7199 28.5519C30.5346 28.6176 32.7396 29.4548 34.5992 31.1629C35.2477 31.7592 35.3404 32.3066 34.9024 32.8001C34.4796 33.2768 33.8732 33.228 33.2516 32.6688C30.1573 29.8911 25.8687 29.9079 22.7238 32.6755C22.4458 32.9214 21.9725 33.1067 21.6171 33.068C20.822 32.9804 20.5963 31.9798 21.2128 31.3633C22.5385 30.0359 24.132 29.1802 25.963 28.7962C26.6385 28.6564 27.3308 28.6042 27.7199 28.5519Z" fill="url(#paint2_linear_1760_243)"/>
<path d="M30.666 37.606C30.6542 39.0714 29.4751 40.2573 28.0198 40.2657C26.5442 40.2741 25.3431 39.0613 25.3499 37.5689C25.3566 36.0765 26.5661 34.8923 28.0585 34.9159C29.5155 34.9395 30.6778 36.1388 30.666 37.606Z" fill="url(#paint3_linear_1760_243)"/>
<path d="M27.9758 31.7407C29.7579 31.7946 31.2133 32.3572 32.4413 33.4858C32.9938 33.9945 33.078 34.5706 32.6788 35.0321C32.2813 35.4903 31.6749 35.4818 31.1207 35.0085C29.1633 33.3375 26.8523 33.3358 24.8983 35.0051C24.3441 35.4785 23.7377 35.4903 23.3402 35.0355C22.9393 34.5773 23.0218 33.9945 23.5709 33.4891C24.8494 32.3117 26.3705 31.7541 27.9758 31.7407Z" fill="url(#paint4_linear_1760_243)"/>
<defs>
<linearGradient id="paint0_linear_1760_243" x1="28.0061" y1="0.0146484" x2="28.0061" y2="64.3789" gradientUnits="userSpaceOnUse">
<stop stop-color="#00FFFF"/>
<stop offset="1" stop-color="#1CA7FB"/>
</linearGradient>
<linearGradient id="paint1_linear_1760_243" x1="28.0128" y1="25.3953" x2="28.0128" y2="30.8934" gradientUnits="userSpaceOnUse">
<stop stop-color="#00FFFF"/>
<stop offset="1" stop-color="#1CA7FB"/>
</linearGradient>
<linearGradient id="paint2_linear_1760_243" x1="28.0157" y1="28.5519" x2="28.0157" y2="33.1259" gradientUnits="userSpaceOnUse">
<stop stop-color="#00FFFF"/>
<stop offset="1" stop-color="#1CA7FB"/>
</linearGradient>
<linearGradient id="paint3_linear_1760_243" x1="28.008" y1="34.9155" x2="28.008" y2="40.2658" gradientUnits="userSpaceOnUse">
<stop stop-color="#00FFFF"/>
<stop offset="1" stop-color="#1CA7FB"/>
</linearGradient>
<linearGradient id="paint4_linear_1760_243" x1="28.0084" y1="31.7407" x2="28.0084" y2="35.3697" gradientUnits="userSpaceOnUse">
<stop stop-color="#00FFFF"/>
<stop offset="1" stop-color="#1CA7FB"/>
</linearGradient>
</defs>
</svg>
