<svg width="58" height="59" viewBox="0 0 58 59" fill="none" xmlns="http://www.w3.org/2000/svg">
<path d="M28.3145 0.927307C28.7662 0.927307 29.2179 0.927307 29.6695 0.927307C30.347 1.18541 31.0568 1.37898 31.7021 1.76613C39.6064 6.50874 47.5107 11.2513 55.4151 15.9939C56.7379 16.7682 57.6089 17.8652 57.8993 19.4138C57.8993 19.4783 57.9638 19.5106 57.9961 19.5428C57.9961 20.0268 57.9961 20.5107 57.9961 21.0269C57.5767 22.8336 56.4798 24.0919 54.8344 24.8984C54.7376 24.9629 54.6408 25.0597 54.5763 25.092C55.2215 25.5759 55.8668 25.9631 56.4475 26.4793C57.2863 27.1891 57.6735 28.2215 57.9316 29.2539C57.9316 29.7056 57.9316 30.1572 57.9316 30.6089C57.8993 30.7057 57.867 30.7702 57.8348 30.867C57.5444 32.3511 56.7056 33.4158 55.4151 34.1901C55.1247 34.3836 54.8344 34.5449 54.5117 34.7385C55.1247 35.1579 55.7377 35.5128 56.2539 35.9645C57.1895 36.7065 57.6412 37.7712 57.9316 38.9004C57.9316 39.3843 57.9316 39.8683 57.9316 40.3845C57.5121 42.3202 56.1894 43.4494 54.544 44.4496C47.3172 48.7405 40.1226 53.0959 32.9281 57.4191C31.8956 58.0644 30.8955 58.7419 29.6695 59C29.2179 59 28.7662 59 28.3145 59C27.6692 58.7419 26.9595 58.5483 26.3465 58.1934C18.4099 53.4508 10.4733 48.676 2.53667 43.9011C-0.850899 41.8686 -0.818636 37.4486 2.53667 35.3838C2.82704 35.1902 3.14966 34.9966 3.50455 34.7708C1.43975 33.7706 0.0201911 32.3511 0.0201911 29.9637C0.0201911 27.5762 1.43975 26.1567 3.50455 25.1565C3.1174 24.8984 2.79478 24.7048 2.47215 24.5113C1.66558 24.0273 1.02033 23.3821 0.568655 22.5433C-0.657324 20.1881 0.149241 17.4458 2.50441 16.0262C9.98934 11.5094 17.4743 7.02494 24.9592 2.54044C26.0239 1.89519 27.0563 1.18541 28.3145 0.927307ZM29.0243 37.3195C29.5405 37.0937 30.0567 36.9646 30.5406 36.6743C38.4127 31.9639 46.2525 27.2536 54.0923 22.511C56.0603 21.3173 56.0603 19.1879 54.0923 17.9942C52.6728 17.1554 51.2855 16.3166 49.8659 15.4455C43.4134 11.574 36.9286 7.67019 30.4761 3.79868C29.5082 3.21795 28.5726 3.15343 27.6047 3.73415C19.6681 8.54128 11.7315 13.3161 3.79492 18.0588C1.92368 19.1879 1.92368 21.3173 3.79492 22.4787C4.69827 23.0272 5.60162 23.5434 6.50497 24.0919C13.5382 28.3183 20.6037 32.5769 27.637 36.8033C28.0564 37.0614 28.5403 37.1582 29.0243 37.3195ZM28.992 46.9983C29.5082 46.8047 30.0567 46.6434 30.5084 46.3853C33.9605 44.3205 37.3803 42.2557 40.8324 40.1909C45.2524 37.5454 49.6723 34.8676 54.1246 32.222C56.0281 31.0928 56.0281 28.899 54.1246 27.7698C53.6406 27.4794 53.1244 27.2213 52.6728 26.8987C52.2856 26.6083 51.9953 26.6406 51.5758 26.8987C44.962 30.8993 38.3482 34.8353 31.7666 38.8359C29.8954 39.9651 28.0564 39.9651 26.1852 38.8359C20.0875 35.1579 13.9899 31.48 7.86 27.8021C7.18249 27.3504 6.47271 26.6406 5.7952 26.6729C5.11768 26.6729 4.44017 27.3826 3.76265 27.8021C1.95595 28.899 1.95595 31.0283 3.76265 32.1575C4.69827 32.7382 5.63388 33.2867 6.5695 33.8352C13.6027 38.0616 20.636 42.288 27.6692 46.5144C28.0241 46.7079 28.4758 46.8047 28.992 46.9983ZM29.0243 56.6771C29.5405 56.4513 30.1212 56.2899 30.6374 55.9673C34.2186 53.838 37.7674 51.7086 41.3163 49.5793C45.6073 46.9983 49.8982 44.4496 54.1568 41.8686C56.0281 40.7394 56.0281 38.61 54.1568 37.4486C53.6729 37.1259 53.1244 36.8679 52.6728 36.5452C52.2856 36.2871 52.0275 36.3194 51.6081 36.5452C44.962 40.5458 38.3159 44.5464 31.7021 48.5147C29.8954 49.6116 28.0564 49.6116 26.2497 48.5147C25.3141 47.9339 24.3785 47.3855 23.4428 46.837C17.7324 43.3849 11.9896 39.9651 6.27914 36.513C5.95651 36.3194 5.69841 36.2871 5.37578 36.513C4.85958 36.8679 4.31112 37.1582 3.79492 37.4808C1.95595 38.61 1.92368 40.7716 3.79492 41.8686C11.7315 46.6434 19.7004 51.4183 27.637 56.1931C28.0241 56.3867 28.5081 56.4835 29.0243 56.6771Z" fill="url(#paint0_linear_1760_250)"/>
<path d="M24.1528 20.2526C24.1528 18.7685 24.1528 17.2844 24.1528 15.7681C24.1528 14.6712 24.6045 14.2195 25.7014 14.2195C27.121 14.2195 28.5728 14.2195 29.9924 14.2195C32.2507 14.2517 33.7994 15.7681 33.8316 18.0265C33.8316 19.5428 33.8639 21.0592 33.8316 22.5755C33.7994 24.8016 32.2507 26.318 30.0246 26.318C28.5405 26.318 27.0565 26.318 25.5724 26.318C24.6368 26.318 24.1851 25.8663 24.1528 24.9307C24.1528 24.8984 24.1528 24.8984 24.1528 24.8661C24.1528 23.3498 24.1528 21.8012 24.1528 20.2526ZM26.6048 16.6714C26.6048 19.1234 26.6048 21.4786 26.6048 23.8983C27.863 23.8983 29.089 23.9305 30.2827 23.8983C30.8957 23.866 31.3151 23.4143 31.3474 22.8336C31.3797 21.1237 31.3797 19.446 31.3474 17.7361C31.3474 17.1554 30.8957 16.7037 30.3473 16.7037C29.1213 16.6714 27.8953 16.6714 26.6048 16.6714Z" fill="url(#paint1_linear_1760_250)"/>
<path d="M15.7961 26.318C15.0218 26.318 14.2475 26.318 13.4732 26.318C12.6021 26.318 12.0859 25.834 12.0859 25.092C12.0859 24.3499 12.6021 23.8983 13.5055 23.8983C14.9896 23.8983 16.4737 23.8983 17.99 23.8983C18.9579 23.8983 19.5709 23.124 19.2805 22.2851C19.0869 21.7044 18.6352 21.4786 18.0545 21.4463C17.3125 21.4463 16.5704 21.4463 15.8607 21.4463C13.6668 21.4463 12.1182 19.93 12.0859 17.8974C12.0859 15.8326 13.6668 14.2517 15.7961 14.2195C17.3125 14.1872 18.8288 14.2195 20.3129 14.2195C21.184 14.2195 21.7325 14.7034 21.7002 15.4455C21.7002 16.1875 21.1517 16.6392 20.2806 16.6392C18.7966 16.6392 17.3447 16.6392 15.8607 16.6392C14.9896 16.6392 14.4411 17.1231 14.4411 17.8329C14.4411 18.5427 14.9896 19.0266 15.8607 19.0266C16.6027 19.0266 17.377 19.0266 18.119 19.0266C20.1193 19.0589 21.7002 20.672 21.6679 22.6723C21.6679 24.6403 20.0871 26.2212 18.119 26.2857C17.377 26.3502 16.6027 26.318 15.7961 26.318Z" fill="url(#paint2_linear_1760_250)"/>
<path d="M38.6389 22.5433C38.6389 23.4466 38.6389 24.2209 38.6389 24.9952C38.6389 25.8018 38.1227 26.3502 37.4452 26.3502C36.7354 26.3502 36.2515 25.8018 36.2515 24.9952C36.2515 21.8657 36.2515 18.7685 36.2515 15.6391C36.2515 14.8325 36.7354 14.284 37.4452 14.2518C38.155 14.2518 38.6389 14.8002 38.6389 15.6068C38.6389 16.3488 38.6389 17.1231 38.6712 17.8652C38.6712 17.8652 38.7034 17.8974 38.768 17.962C38.9293 17.8652 39.0906 17.7684 39.2519 17.6716C40.8328 16.6392 42.3814 15.5745 43.9622 14.5421C44.4139 14.2195 44.9301 14.1872 45.3818 14.5099C45.8335 14.8002 46.027 15.2519 45.8657 15.7359C45.7367 16.0907 45.4463 16.4134 45.1559 16.6392C43.5106 17.7684 41.8329 18.8653 40.1875 19.9945C39.9939 20.0268 39.8326 20.1558 39.639 20.2849C39.8326 20.4139 39.9939 20.543 40.1552 20.6398C41.8652 21.769 43.5751 22.9304 45.285 24.0596C45.7689 24.3822 45.9625 24.8339 45.8335 25.3824C45.7367 25.8663 45.414 26.2212 44.9301 26.2535C44.5752 26.2857 44.1235 26.1567 43.8332 25.9631C42.2846 24.963 40.7682 23.9306 39.2519 22.9304C39.0906 22.8336 38.9293 22.7368 38.6389 22.5433Z" fill="url(#paint3_linear_1760_250)"/>
<defs>
<linearGradient id="paint0_linear_1760_250" x1="28.998" y1="0.927307" x2="28.998" y2="59" gradientUnits="userSpaceOnUse">
<stop stop-color="#00FFFF"/>
<stop offset="1" stop-color="#1CA7FB"/>
</linearGradient>
<linearGradient id="paint1_linear_1760_250" x1="28.9994" y1="14.2195" x2="28.9994" y2="26.318" gradientUnits="userSpaceOnUse">
<stop stop-color="#00FFFF"/>
<stop offset="1" stop-color="#1CA7FB"/>
</linearGradient>
<linearGradient id="paint2_linear_1760_250" x1="16.8937" y1="14.2051" x2="16.8937" y2="26.326" gradientUnits="userSpaceOnUse">
<stop stop-color="#00FFFF"/>
<stop offset="1" stop-color="#1CA7FB"/>
</linearGradient>
<linearGradient id="paint3_linear_1760_250" x1="41.0867" y1="14.2518" x2="41.0867" y2="26.3502" gradientUnits="userSpaceOnUse">
<stop stop-color="#00FFFF"/>
<stop offset="1" stop-color="#1CA7FB"/>
</linearGradient>
</defs>
</svg>
