<svg width="61" height="60" viewBox="0 0 61 60" fill="none" xmlns="http://www.w3.org/2000/svg">
<path d="M60.0751 18.4042C59.8903 19.3766 59.7569 20.3622 59.5119 21.32C58.6598 24.6654 56.8969 27.4697 54.3096 29.7489C53.896 30.1141 53.7127 30.4749 53.7244 31.0396C53.7626 32.9507 53.7332 34.8632 53.7435 36.7758C53.7464 37.3683 53.6071 37.8714 53.016 38.1163C52.4264 38.3598 51.96 38.1105 51.545 37.6939C50.2484 36.3944 48.9533 35.0935 47.6363 33.8146C47.4896 33.6723 47.1889 33.5667 46.9983 33.6107C44.4903 34.1798 41.9529 34.1079 39.4112 34.0243C36.3326 33.9216 33.4829 33.0563 30.9103 31.3784C26.6482 28.5976 23.992 24.7065 23.2455 19.6597C22.3347 13.4997 24.2956 8.30322 28.945 4.176C32.025 1.44212 35.7107 0.119175 39.8233 0.0370412C41.9896 -0.00549239 44.1676 -0.0964262 46.3089 0.358243C51.6608 1.49638 55.6194 4.4928 58.189 9.30643C59.2201 11.238 59.7906 13.3163 59.9915 15.4943C60.0018 15.6087 60.0473 15.7187 60.0766 15.8317C60.0751 16.6867 60.0751 17.5462 60.0751 18.4042ZM51.3924 34.2443C51.3924 33.0211 51.4775 31.9636 51.3704 30.9252C51.2384 29.636 51.7488 28.8161 52.7242 27.9963C55.5636 25.6115 57.1623 22.4918 57.6023 18.8251C58.0878 14.783 57.0567 11.1178 54.5179 7.92629C52.1903 5.00174 49.1543 3.19919 45.448 2.59199C43.0998 2.20772 40.7326 2.29279 38.3728 2.48052C36.865 2.60079 35.4101 3.00999 34.0446 3.66119C29.2808 5.93161 26.3269 9.64229 25.5525 14.8681C24.7356 20.3857 26.632 24.9676 30.925 28.5081C33.3582 30.516 36.2123 31.5574 39.3818 31.6747C41.9602 31.77 44.5445 31.8859 47.0628 31.1467C47.7433 30.9472 48.2713 31.088 48.7568 31.5925C49.5811 32.4491 50.4318 33.2792 51.3924 34.2443Z" fill="url(#paint0_linear_1760_261)"/>
<path d="M0 27.656C0.413602 26.5325 0.668804 25.3152 1.27014 24.3046C2.72655 21.8568 4.99256 20.5045 7.84231 20.4326C11.8683 20.3314 15.8988 20.396 19.9262 20.4018C20.6933 20.4033 21.2155 20.8902 21.2287 21.5488C21.2419 22.2454 20.6918 22.7353 19.847 22.7368C16.1114 22.7426 12.3773 22.7382 8.64165 22.7397C4.85616 22.7397 2.34815 25.2301 2.34668 28.9921C2.34521 34.7503 2.34521 40.507 2.34668 46.2652C2.34815 49.9612 4.86496 52.4824 8.55658 52.4839C10.8842 52.4853 13.2103 52.4912 15.538 52.4795C16.1085 52.4765 16.5016 52.6863 16.899 53.116C17.7688 54.0591 18.7236 54.9229 19.7136 55.8865C19.7136 55.2031 19.7092 54.5724 19.715 53.9403C19.7238 52.9136 20.1521 52.4868 21.192 52.4853C25.2004 52.4824 29.2103 52.4853 33.2187 52.4839C36.8839 52.4824 39.4198 49.9612 39.4242 46.318C39.4272 43.8789 39.4228 41.4383 39.4272 38.9993C39.4272 38.7661 39.4272 38.527 39.4785 38.3026C39.6002 37.754 40.0886 37.3771 40.6181 37.3874C41.13 37.3976 41.5861 37.7599 41.7152 38.2835C41.7606 38.4698 41.7694 38.6693 41.7709 38.8629C41.7738 41.4398 41.79 44.0153 41.768 46.5922C41.7342 50.5464 39.1412 53.7613 35.2779 54.6237C34.6179 54.7719 33.9227 54.8144 33.2422 54.8188C29.5462 54.8364 25.8516 54.8276 22.0603 54.8276C22.0603 55.3615 22.0603 55.8792 22.0603 56.3969C22.0603 57.0599 22.028 57.7258 22.0691 58.3872C22.1131 59.103 21.8799 59.6383 21.2389 59.98C21.0042 59.98 20.7696 59.98 20.5349 59.98C20.1433 59.6354 19.7356 59.3068 19.3645 58.9416C18.1002 57.6964 16.8594 56.4277 15.5805 55.1972C15.3722 54.9963 15.0188 54.8481 14.7298 54.8437C12.4462 54.8115 10.1597 54.8907 7.88044 54.7997C5.01309 54.6853 2.73388 53.3756 1.26867 50.9131C0.667337 49.904 0.413602 48.6881 0.00293335 47.5676C0 40.9279 0 34.2912 0 27.656Z" fill="url(#paint1_linear_1760_261)"/>
<path d="M19.8868 36.3211C23.8556 36.3211 27.8259 36.3211 31.7947 36.3211C31.9898 36.3211 32.1878 36.3138 32.3799 36.3416C32.9915 36.4311 33.4301 36.918 33.4301 37.4915C33.4301 38.0635 32.993 38.5519 32.3814 38.6428C32.1892 38.6707 31.9912 38.6634 31.7962 38.6634C23.8571 38.6648 15.918 38.6634 7.98031 38.6634C7.94071 38.6634 7.90258 38.6634 7.86298 38.6634C6.91111 38.6575 6.34497 38.2219 6.34497 37.493C6.34497 36.764 6.90964 36.3226 7.86151 36.3226C11.8699 36.3211 15.8784 36.3211 19.8868 36.3211Z" fill="url(#paint2_linear_1760_261)"/>
<path d="M17.6602 42.8786C20.8458 42.8786 24.0314 42.8771 27.217 42.883C27.4869 42.883 27.7685 42.8977 28.0251 42.9739C28.5341 43.1235 28.7922 43.5181 28.7995 44.027C28.8069 44.5609 28.5487 44.973 28.0134 45.1299C27.7567 45.2047 27.4751 45.2165 27.2038 45.2179C20.793 45.2223 14.3821 45.2209 7.9713 45.2209C7.91263 45.2209 7.85396 45.2209 7.7953 45.2209C6.89476 45.2106 6.33889 44.7603 6.34329 44.0446C6.34769 43.3318 6.90502 42.8815 7.80703 42.8801C11.0924 42.8771 14.3763 42.8786 17.6602 42.8786Z" fill="url(#paint3_linear_1760_261)"/>
<path d="M16.094 29.7636C18.7926 29.7636 21.4899 29.7621 24.1885 29.7665C24.4408 29.7665 24.7004 29.7724 24.9424 29.834C25.4631 29.9645 25.8312 30.4471 25.7989 30.9546C25.7652 31.4899 25.4939 31.88 24.9615 32.0311C24.74 32.0942 24.4995 32.103 24.2663 32.103C18.8117 32.1074 13.3557 32.1059 7.90112 32.1044C7.70605 32.1044 7.50658 32.1059 7.31738 32.0692C6.74098 31.9578 6.33324 31.4635 6.34497 30.915C6.35524 30.384 6.74538 29.9161 7.29831 29.8047C7.50658 29.7621 7.72511 29.7651 7.93925 29.7651C10.6585 29.7621 13.3762 29.7636 16.094 29.7636Z" fill="url(#paint4_linear_1760_261)"/>
<path d="M32.2934 42.8889C32.9065 42.9065 33.4477 43.4697 33.4301 44.0769C33.4125 44.69 32.8478 45.2282 32.2406 45.2121C31.6275 45.1945 31.0863 44.6313 31.1039 44.0241C31.1201 43.411 31.6862 42.8728 32.2934 42.8889Z" fill="url(#paint5_linear_1760_261)"/>
<path d="M40.7062 19.1845C40.7062 18.7357 40.693 18.2869 40.7092 17.8381C40.7429 16.8701 41.2856 16.1441 42.2066 15.8126C42.3724 15.7525 42.541 15.7055 42.7068 15.6483C43.9403 15.2157 44.6619 14.0086 44.4463 12.7428C44.2336 11.4947 43.1028 10.5531 41.8385 10.5722C40.5214 10.5927 39.4669 11.5372 39.2865 12.8558C39.263 13.0288 39.2352 13.2034 39.2 13.375C39.0621 14.0262 38.5796 14.3826 37.9328 14.3181C37.3475 14.2579 36.9134 13.7871 36.9207 13.1579C36.9383 11.6751 37.4913 10.405 38.628 9.45456C40.2442 8.10229 42.0893 7.81775 43.9872 8.73002C45.9232 9.66136 46.8604 11.2952 46.8105 13.4571C46.7665 15.3462 45.4245 17.1825 43.6 17.7999C43.1776 17.9422 43.0089 18.1197 43.0382 18.5729C43.0808 19.2138 43.0602 19.8606 43.0456 20.503C43.028 21.3537 42.5484 21.8978 41.8517 21.8876C41.1536 21.8773 40.7136 21.3376 40.7033 20.4737C40.6989 20.044 40.7018 19.6157 40.7018 19.1859C40.7033 19.1845 40.7048 19.1845 40.7062 19.1845Z" fill="url(#paint6_linear_1760_261)"/>
<path d="M41.8501 24.1947C42.4676 24.1859 43.0205 24.7212 43.0323 25.3372C43.044 25.9517 42.5072 26.4929 41.8809 26.5003C41.2385 26.5076 40.7179 26.0031 40.7091 25.368C40.7017 24.7344 41.2195 24.2035 41.8501 24.1947Z" fill="url(#paint7_linear_1760_261)"/>
<defs>
<linearGradient id="paint0_linear_1760_261" x1="41.5523" y1="0" x2="41.5523" y2="38.2122" gradientUnits="userSpaceOnUse">
<stop stop-color="#00FFFF"/>
<stop offset="1" stop-color="#1CA7FB"/>
</linearGradient>
<linearGradient id="paint1_linear_1760_261" x1="20.8897" y1="20.3762" x2="20.8897" y2="59.98" gradientUnits="userSpaceOnUse">
<stop stop-color="#00FFFF"/>
<stop offset="1" stop-color="#1CA7FB"/>
</linearGradient>
<linearGradient id="paint2_linear_1760_261" x1="19.8875" y1="36.3202" x2="19.8875" y2="38.6642" gradientUnits="userSpaceOnUse">
<stop stop-color="#00FFFF"/>
<stop offset="1" stop-color="#1CA7FB"/>
</linearGradient>
<linearGradient id="paint3_linear_1760_261" x1="17.5715" y1="42.8782" x2="17.5715" y2="45.2211" gradientUnits="userSpaceOnUse">
<stop stop-color="#00FFFF"/>
<stop offset="1" stop-color="#1CA7FB"/>
</linearGradient>
<linearGradient id="paint4_linear_1760_261" x1="16.0728" y1="29.7632" x2="16.0728" y2="32.1059" gradientUnits="userSpaceOnUse">
<stop stop-color="#00FFFF"/>
<stop offset="1" stop-color="#1CA7FB"/>
</linearGradient>
<linearGradient id="paint5_linear_1760_261" x1="32.267" y1="42.8885" x2="32.267" y2="45.2125" gradientUnits="userSpaceOnUse">
<stop stop-color="#00FFFF"/>
<stop offset="1" stop-color="#1CA7FB"/>
</linearGradient>
<linearGradient id="paint6_linear_1760_261" x1="41.8665" y1="8.20111" x2="41.8665" y2="21.8877" gradientUnits="userSpaceOnUse">
<stop stop-color="#00FFFF"/>
<stop offset="1" stop-color="#1CA7FB"/>
</linearGradient>
<linearGradient id="paint7_linear_1760_261" x1="41.8707" y1="24.1945" x2="41.8707" y2="26.5003" gradientUnits="userSpaceOnUse">
<stop stop-color="#00FFFF"/>
<stop offset="1" stop-color="#1CA7FB"/>
</linearGradient>
</defs>
</svg>
