<svg width="64" height="65" viewBox="0 0 64 65" fill="none" xmlns="http://www.w3.org/2000/svg">
<path d="M33.7965 36.9867C33.7965 38.6532 33.8016 40.2226 33.7948 41.792C33.7845 44.0524 33.0305 46.0304 31.5207 47.7138C29.5632 49.896 27.6108 52.0816 25.6397 54.2501C24.6967 55.2884 23.5443 55.8212 22.106 55.5233C20.1281 55.1131 18.9451 53.1165 19.5885 51.1998C19.7604 50.6875 20.0481 50.1956 20.363 49.7513C21.7877 47.7427 23.1801 45.7052 24.7052 43.775C25.7588 42.4405 26.1231 41.0532 25.8695 39.3936C25.6193 37.7595 25.5273 36.0999 25.3469 34.4539C25.3231 34.2428 25.2312 33.9875 25.0797 33.8496C23.6499 32.539 23.3077 30.893 23.6567 29.0785C24.2643 25.9124 24.9248 22.7566 25.5614 19.5957C25.5852 19.4766 25.5903 19.3523 25.6107 19.1787C25.0099 19.1787 24.4363 19.1412 23.8728 19.1991C23.6839 19.2195 23.4575 19.4493 23.3537 19.6417C22.1077 21.9345 20.8838 24.2392 19.6532 26.5388C19.5425 26.7448 19.4523 26.9678 19.3076 27.1465C19.0387 27.4767 19.0131 27.7593 19.2191 28.1627C19.5612 28.8334 19.2872 29.4819 18.9008 30.144C19.8676 30.704 20.8174 31.2556 21.7656 31.8053C21.9851 31.933 22.2115 32.0522 22.4243 32.1917C23.4269 32.8539 23.6464 34.0556 22.9111 35.0139C22.4209 35.6539 21.8694 36.2463 21.3672 36.8795C20.9757 37.3731 20.5757 37.8702 20.254 38.4098C19.2668 40.0677 18.3187 41.7511 17.3467 43.4192C16.4888 44.8933 15.1509 45.2525 13.6718 44.3997C9.59166 42.049 5.51327 39.6915 1.43658 37.3323C-0.0477122 36.4727 -0.394954 35.1535 0.456129 33.6624C0.961673 32.7773 1.44849 31.8819 1.98808 31.0189C3.183 29.1074 4.15834 27.1006 4.84942 24.9473C5.33965 23.4205 6.52946 23.0154 7.91162 23.8052C8.98058 24.4145 10.0427 25.0358 11.1491 25.6758C11.2734 25.4971 11.3534 25.2792 11.51 25.1754C11.9355 24.8911 12.3849 24.4656 12.8394 24.4452C13.4505 24.4179 13.6615 24.1813 13.8607 23.686C14.8445 21.2468 15.8982 18.8365 16.848 16.3854C17.8608 13.7726 19.6872 12.3002 22.4839 12.0057C23.9818 11.8474 25.478 11.6602 26.964 11.4168C28.9725 11.0866 30.8926 11.5513 32.816 11.9802C33.8271 12.2066 34.8535 12.4194 35.822 12.7768C37.6927 13.4662 39.1311 14.7377 40.2221 16.3973C41.0494 17.6569 41.8715 18.9199 42.6699 20.1983C43.1073 20.8979 43.6912 21.2894 44.5184 21.383C46.1627 21.5668 47.8019 21.7983 49.4445 21.9924C51.1739 22.1966 52.3126 23.4409 52.2173 25.046C52.1067 26.8674 50.9509 27.9687 49.1228 27.9755C47.2538 27.984 45.3848 27.9891 43.5158 27.9789C41.5141 27.9687 39.846 27.2027 38.5217 25.7014C38.0178 25.1295 37.531 24.5422 36.9336 23.8392C36.5336 25.7405 36.1608 27.521 35.7761 29.3474C37.594 30.0079 39.3745 30.6206 41.1277 31.3032C42.2903 31.756 43.4358 32.2683 44.5525 32.8284C46.4912 33.802 47.4393 35.448 47.3713 37.5842C47.2725 40.6821 47.0955 43.7801 46.8827 46.8729C46.7755 48.4304 45.3559 49.5828 43.7082 49.6032C42.0673 49.6219 40.6715 48.4934 40.5234 46.9019C40.3073 44.5767 40.1592 42.2447 40.023 39.9128C39.9872 39.2932 39.846 38.9459 39.1702 38.7502C37.4034 38.231 35.6671 37.6063 33.7965 36.9867ZM17.4846 26.6682C17.7025 26.3142 17.9033 26.0214 18.0719 25.7099C19.4251 23.1873 20.7783 20.663 22.1162 18.1318C22.3834 17.6263 22.7341 17.3761 23.323 17.388C24.3835 17.4101 25.4456 17.3761 26.5078 17.3761C27.3997 17.3761 27.7333 17.7829 27.5563 18.6663C26.9759 21.577 26.3682 24.4843 25.8116 27.4001C25.6022 28.498 25.3912 29.6164 25.3895 30.7262C25.3878 31.7747 25.9903 32.5424 27.0627 32.876C28.2968 33.2607 29.5172 33.6862 30.7445 34.0948C34.0433 35.191 37.337 36.3008 40.646 37.368C41.3541 37.5961 41.6979 37.9417 41.7149 38.7144C41.7422 39.923 41.8664 41.1298 41.9533 42.3367C42.052 43.7137 42.149 45.0891 42.2528 46.4661C42.2971 47.067 42.5643 47.5232 43.1618 47.7206C44.178 48.0576 45.0733 47.4704 45.1363 46.4014C45.3014 43.6031 45.4393 40.8047 45.6044 38.0063C45.7133 36.1867 45.0052 34.8522 43.2877 34.1714C40.4724 33.0564 37.6383 31.9824 34.811 30.8981C33.9224 30.5577 33.7539 30.2785 33.9446 29.3627C34.8807 24.8792 35.8084 20.394 36.7667 15.9139C36.8604 15.4731 36.7514 15.2654 36.3957 15.0407C35.2586 14.319 33.9854 14.0194 32.6901 13.7692C30.8841 13.4202 29.1121 12.867 27.2227 13.1819C25.7384 13.4288 24.2405 13.6075 22.7426 13.759C20.5911 13.9769 19.2361 15.1003 18.4668 17.1191C17.5323 19.5753 16.4718 21.9821 15.4692 24.4128C15.3501 24.7005 15.2514 24.9967 15.1339 25.3133C15.9186 25.7644 16.6505 26.1865 17.4846 26.6682ZM4.73027 29.8155C3.82812 31.3815 2.92597 32.9407 2.02893 34.5016C1.63403 35.1893 1.69531 35.4207 2.38979 35.8242C4.16855 36.8557 5.95072 37.8821 7.73119 38.9102C9.98826 40.214 12.2487 41.5145 14.5041 42.8235C14.9228 43.0652 15.3586 43.2473 15.6667 42.7299C16.6403 41.0924 17.5799 39.4362 18.5331 37.7885C17.1306 36.9799 15.779 36.1918 14.4139 35.431C14.276 35.3544 14.019 35.3714 13.8726 35.4497C13.379 35.7101 12.9007 35.7339 12.419 35.4582C11.5355 34.9544 10.6198 34.4931 9.79251 33.9092C9.45889 33.6743 9.19676 33.1858 9.12526 32.7756C9.06569 32.4317 8.96186 32.2632 8.69121 32.1083C7.38735 31.3594 6.0869 30.6019 4.73027 29.8155ZM27.1784 34.7995C27.3265 36.2923 27.3997 37.6914 27.6193 39.0668C27.9529 41.1741 27.5767 43.0192 26.2116 44.7316C24.666 46.6704 23.272 48.7317 21.8319 50.7556C21.58 51.1113 21.3485 51.5198 21.2481 51.9369C20.9843 53.0229 22.0311 54.068 23.1086 53.765C23.5698 53.6356 24.0413 53.3309 24.3682 52.9752C26.3393 50.8373 28.2763 48.667 30.2134 46.4984C31.3913 45.181 32.0024 43.6337 32.0109 41.8583C32.016 40.6481 32.0211 39.4379 32.016 38.2276C32.0143 37.6353 32.2083 36.8778 31.919 36.4931C31.6092 36.0829 30.8381 36.0114 30.2611 35.8139C29.2653 35.4769 28.2644 35.1569 27.1784 34.7995ZM6.66223 25.1431C6.37967 25.909 6.11754 26.6001 5.86902 27.2963C5.6154 28.0044 5.73455 28.338 6.39158 28.7227C7.47076 29.3559 8.54993 29.9891 9.64783 30.59C9.82315 30.6853 10.1295 30.6904 10.3066 30.6019C10.7883 30.3636 11.2377 30.3364 11.7006 30.6019C12.5841 31.1075 13.4658 31.6147 14.3458 32.1288C14.802 32.3943 15.0352 32.7875 15.0556 33.3288C15.0624 33.5058 15.1509 33.7611 15.2854 33.8411C16.4667 34.5509 17.648 35.2659 18.877 35.8871C19.1476 36.0233 19.7213 35.9246 19.9493 35.7118C20.5485 35.1552 21.0336 34.4777 21.6192 33.7816C16.625 30.8964 11.6938 28.0487 6.66223 25.1431ZM38.3838 16.8331C38.0451 18.4706 37.7404 19.9004 37.468 21.3353C37.4357 21.5055 37.5344 21.7507 37.6536 21.8936C38.4076 22.8128 39.1702 23.7252 39.9566 24.6154C40.7958 25.5652 41.8732 26.1269 43.1311 26.1627C45.1891 26.2205 47.2487 26.1933 49.3066 26.1763C50.0181 26.1695 50.3994 25.7235 50.4283 24.9763C50.4539 24.3396 50.0913 23.8767 49.4326 23.7881C48.0249 23.5975 46.6172 23.3626 45.201 23.2758C43.2452 23.1566 41.7745 22.3941 40.8043 20.6272C40.1166 19.371 39.2672 18.2016 38.3838 16.8331ZM17.5646 28.7823C16.1297 27.9516 14.7135 27.1397 13.3075 26.3125C12.9228 26.0861 12.8513 26.2954 12.7798 26.6154C14.3067 27.4955 15.8029 28.3568 17.3297 29.2368C17.425 29.0529 17.4897 28.9287 17.5646 28.7823ZM11.2291 32.3841C11.1747 32.4607 11.1202 32.5373 11.0674 32.6139C11.6887 32.973 12.3117 33.3322 12.933 33.6896C12.9773 33.6165 13.0215 33.5433 13.0658 33.4701C12.453 33.1092 11.8402 32.7466 11.2291 32.3841Z" fill="url(#paint0_linear_1760_267)"/>
<path d="M21.7759 62.6469C21.7759 60.9941 21.7742 59.4264 21.7759 57.8587C21.7776 56.7898 22.0227 56.5396 23.0763 56.5378C26.8773 56.5361 30.6799 56.5378 34.4808 56.5378C34.7106 56.5378 34.9421 56.5378 35.2485 56.5378C35.2485 55.428 35.2485 54.371 35.2485 53.3139C35.2485 52.7624 35.2434 52.2092 35.2502 51.6577C35.2604 50.7232 35.5413 50.4373 36.4673 50.4356C39.1005 50.4322 41.7338 50.4339 44.3687 50.4339C45.7883 50.4339 47.2062 50.4339 48.7161 50.4339C48.7161 50.1598 48.7161 49.9351 48.7161 49.7105C48.7161 48.2874 48.7075 46.8644 48.7195 45.4414C48.7263 44.6703 49.0412 44.3418 49.8054 44.3401C54.18 44.3316 58.5563 44.3316 62.9309 44.3401C63.5913 44.3418 63.9641 44.6772 63.9794 45.2065C63.9947 45.7648 63.6134 46.1121 62.9189 46.1138C59.0533 46.1206 55.1877 46.1172 51.3221 46.1189C51.0736 46.1189 50.8233 46.1189 50.4982 46.1189C50.4982 47.4023 50.4982 48.6057 50.4982 49.8109C50.4982 50.2364 50.5033 50.6603 50.4965 51.0858C50.4846 51.9488 50.2174 52.216 49.3408 52.2177C45.5177 52.2212 41.6946 52.2195 37.8716 52.2195C37.6213 52.2195 37.3728 52.2195 37.0681 52.2195C37.0545 52.5122 37.0358 52.7386 37.0341 52.965C37.0307 54.3455 37.0375 55.7259 37.0307 57.1081C37.0256 58.0562 36.7549 58.3234 35.8153 58.3251C31.9923 58.3268 28.1692 58.3268 24.3461 58.3268C24.1164 58.3268 23.8849 58.3268 23.558 58.3268C23.558 58.5941 23.558 58.817 23.558 59.04C23.558 60.463 23.5648 61.8861 23.5546 63.3091C23.5495 64.1142 23.2295 64.4308 22.4312 64.4325C18.0771 64.4359 13.7229 64.4359 9.37048 64.4325C8.68791 64.4325 8.2862 64.0819 8.29131 63.5338C8.29641 62.9925 8.70323 62.6537 9.3875 62.6537C13.2531 62.6503 17.1187 62.652 20.9844 62.652C21.2176 62.6469 21.4491 62.6469 21.7759 62.6469Z" fill="url(#paint1_linear_1760_267)"/>
<path d="M40.2904 6.0601C40.2921 9.31465 37.6844 11.9258 34.4315 11.9292C31.1923 11.9326 28.5557 9.30273 28.554 6.06691C28.5523 2.8396 31.1991 0.191034 34.4264 0.189332C37.6674 0.18763 40.2904 2.81407 40.2904 6.0601ZM38.5065 6.06861C38.5082 3.80133 36.692 1.97661 34.4332 1.9732C32.1847 1.9715 30.3395 3.80984 30.3378 6.0584C30.3361 8.31547 32.1643 10.1436 34.423 10.1436C36.6954 10.1453 38.5048 8.3376 38.5065 6.06861Z" fill="url(#paint2_linear_1760_267)"/>
<defs>
<linearGradient id="paint0_linear_1760_267" x1="26.1114" y1="11.3049" x2="26.1114" y2="55.6054" gradientUnits="userSpaceOnUse">
<stop stop-color="#00FFFF"/>
<stop offset="1" stop-color="#1CA7FB"/>
</linearGradient>
<linearGradient id="paint1_linear_1760_267" x1="36.1355" y1="44.3337" x2="36.1355" y2="64.4351" gradientUnits="userSpaceOnUse">
<stop stop-color="#00FFFF"/>
<stop offset="1" stop-color="#1CA7FB"/>
</linearGradient>
<linearGradient id="paint2_linear_1760_267" x1="34.4222" y1="0.189331" x2="34.4222" y2="11.9292" gradientUnits="userSpaceOnUse">
<stop stop-color="#00FFFF"/>
<stop offset="1" stop-color="#1CA7FB"/>
</linearGradient>
</defs>
</svg>
