<svg width="27" height="39" viewBox="0 0 27 39" fill="none" xmlns="http://www.w3.org/2000/svg">
<path d="M10.786 25.352C10.8396 24.5966 10.8663 23.8413 10.9521 23.0913C11.0646 22.1377 11.4824 21.3128 12.1949 20.6699C13.2342 19.7378 14.2949 18.8324 15.3663 17.9378C16.727 16.8074 17.9431 15.5646 18.6127 13.8878C19.2341 12.3289 19.2448 10.7379 18.618 9.18966C17.8466 7.29326 16.3627 6.25934 14.3592 6.00755C11.6056 5.65934 9.26457 6.57541 7.90923 9.17895C7.42709 10.1057 7.1646 11.145 6.81103 12.1361C6.74139 12.3289 6.71996 12.5432 6.66103 12.7414C6.44139 13.4646 5.77175 13.8932 5.02712 13.77C3.92356 13.5825 2.82 13.3843 1.71644 13.17C0.827162 12.9986 0.355738 12.2646 0.516451 11.3754C1.05216 8.35932 2.30036 5.71827 4.58248 3.61829C7.10031 1.30403 10.0842 0.136188 13.486 0.0129752C15.8806 -0.0727382 18.2056 0.254044 20.3591 1.3576C23.8144 3.12544 26.0215 5.8897 26.5037 9.7843C26.9965 13.7914 25.684 17.1985 22.5501 19.8074C21.1359 20.9806 19.6359 22.052 18.1734 23.1717C18.0502 23.2681 17.927 23.3645 17.7984 23.4556C16.9199 24.1038 16.4752 24.977 16.4377 26.0645C16.427 26.3377 16.4002 26.6109 16.3681 26.8841C16.2931 27.618 15.7359 28.1698 14.9967 28.1913C14.0699 28.2127 13.1431 28.218 12.2163 28.1913C11.4342 28.1698 10.861 27.543 10.8342 26.7181C10.8181 26.2627 10.8288 25.802 10.8288 25.3466C10.8128 25.3574 10.7967 25.352 10.786 25.352Z" fill="url(#paint0_linear_1760_272)"/>
<path d="M13.625 31.0305C14.1607 31.0305 14.6964 31.0144 15.2268 31.0358C16.3196 31.0733 17.1982 31.9626 17.2196 33.0555C17.2357 34.0465 17.2357 35.0376 17.2196 36.0286C17.2036 37.159 16.2982 38.059 15.1732 38.0804C14.1179 38.0965 13.0625 38.0965 12.0072 38.0804C10.8822 38.0643 9.97148 37.159 9.95541 36.034C9.93934 35.0429 9.93934 34.0519 9.95541 33.0608C9.97684 31.968 10.8554 31.0787 11.9482 31.0358C12.5054 31.0144 13.0625 31.0305 13.625 31.0305Z" fill="url(#paint1_linear_1760_272)"/>
<defs>
<linearGradient id="paint0_linear_1760_272" x1="13.5449" y1="0" x2="13.5449" y2="28.2094" gradientUnits="userSpaceOnUse">
<stop stop-color="#00FFFF"/>
<stop offset="1" stop-color="#1CA7FB"/>
</linearGradient>
<linearGradient id="paint1_linear_1760_272" x1="13.5875" y1="31.0247" x2="13.5875" y2="38.0925" gradientUnits="userSpaceOnUse">
<stop stop-color="#00FFFF"/>
<stop offset="1" stop-color="#1CA7FB"/>
</linearGradient>
</defs>
</svg>
