<svg width="80" height="80" viewBox="0 0 80 80" fill="none" xmlns="http://www.w3.org/2000/svg">
<path d="M39.8151 34.318C40.4949 32.1366 41.0363 29.9052 41.3573 27.6236C41.4832 26.7398 41.7413 25.8685 41.9742 25.0035C42.119 24.4707 42.4211 24.2325 42.9688 24.2262C43.315 24.22 43.6927 24.2325 44.0137 24.3453C45.4112 24.8405 46.8716 25.0223 48.3068 25.3231C49.1377 25.4987 49.6853 25.5488 50.2771 24.7527C50.9695 23.8251 52.5243 23.7937 53.6637 24.4456C54.803 25.0975 55.357 26.4013 55.0297 27.6549C54.5764 29.3787 52.7887 30.438 51.1646 29.924C50.2141 29.6231 49.5343 29.0151 49.4021 28.0122C49.3077 27.2725 48.8544 26.9905 48.2375 26.8777C47.0604 26.6645 45.877 26.4953 44.6998 26.3135C44.3096 26.2508 43.913 26.2132 43.3842 26.1443C42.7925 28.8772 42.1945 31.6164 41.5713 34.4747C45.6315 34.2302 48.8607 36.2047 52.2977 37.7717C53.0153 37.0634 53.9721 36.7688 55.0737 36.844C57.0629 36.9757 58.7499 38.4487 58.9702 40.3605C59.1465 41.9087 58.5359 43.1749 57.2643 44.0838C56.874 44.3658 56.723 44.6416 56.7167 45.1243C56.6789 49.2738 54.6457 52.2324 51.045 54.1693C49.742 54.8713 48.3634 55.4417 47.0038 56.0372C45.6441 56.6326 44.2026 56.8959 42.717 56.9461C40.155 57.0338 37.593 57.0965 35.0751 56.4446C32.4564 55.7676 30.077 54.6268 28.006 52.8717C26.0672 51.2358 24.9971 49.1359 24.5753 46.6788C24.4683 46.0457 24.3927 45.4126 24.2794 44.7858C24.248 44.6228 24.1661 44.4536 24.0591 44.322C23.6122 43.8017 23.0897 43.3316 22.6931 42.78C21.9252 41.7081 21.73 40.5423 22.4414 39.3513C22.7624 38.8185 23.096 38.2732 23.5052 37.8093C24.3927 36.8002 25.5258 36.4366 26.8288 36.819C27.4835 37.0133 28.1382 37.2703 28.7236 37.6213C29.1894 37.9034 29.4664 37.8595 29.8 37.4709C30.7568 36.3614 31.9717 35.6155 33.3818 35.2582C34.6974 34.926 36.0445 34.6878 37.3916 34.4809C38.191 34.3493 39.0093 34.3618 39.8151 34.318ZM46.6701 40.8682C45.3042 40.8682 44.1144 42.0529 44.1207 43.4068C44.127 44.9801 45.5056 46.5284 46.9534 46.4406C48.4327 46.3528 49.7231 45.4628 49.6979 43.5823C49.6791 42.0403 48.3823 40.8682 46.6701 40.8682ZM37.0328 43.6137C37.0328 42.0968 35.8053 40.8682 34.2882 40.8682C32.8089 40.8682 31.3863 42.2159 31.3863 43.6199C31.3863 45.212 32.5194 46.2902 34.1812 46.2902C35.9563 46.2964 37.0328 45.281 37.0328 43.6137ZM40.6019 53.0974C42.3834 53.3419 44.2466 52.8279 46.0469 52.0318C46.4624 51.85 46.8779 51.6306 47.2178 51.3423C47.5703 51.0477 47.5388 50.54 47.243 50.2391C46.9471 49.932 46.6764 49.9696 46.2421 50.3206C45.921 50.5776 45.6 50.8534 45.2286 51.0226C43.3087 51.8814 41.2881 52.0757 39.2045 51.85C37.593 51.6745 36.0004 51.4739 34.7729 50.2391C34.4771 49.9382 33.9168 49.9884 33.728 50.2579C33.4699 50.6277 33.6587 50.9788 33.9357 51.1856C34.5652 51.662 35.201 52.1697 35.9123 52.4894C37.3286 53.1162 38.8457 53.229 40.6019 53.0974Z" fill="white"/>
</svg>
