<svg width="80" height="80" viewBox="0 0 80 80" fill="none" xmlns="http://www.w3.org/2000/svg">
<path d="M36.3012 42.7559C35.9936 42.7559 35.7389 42.7559 35.4831 42.7559C34.307 42.7559 33.1309 42.7639 31.9548 42.7513C31.2526 42.7434 31.0185 42.5404 31.0128 41.8734C30.9956 40.0777 30.9956 38.2809 31.0139 36.4852C31.0208 35.8205 31.2675 35.6152 31.9617 35.6118C33.2387 35.605 34.5146 35.6095 35.7917 35.6095C35.9455 35.6095 36.1004 35.6095 36.3023 35.6095C36.3023 35.3998 36.3 35.2333 36.3023 35.0668C36.3321 33.4433 36.2725 31.8118 36.4113 30.1973C36.7601 26.1327 39.9017 23.1912 44.0106 23.0373C45.7294 22.9723 47.4528 23.0111 49.1739 23.0156C49.7453 23.0168 49.9897 23.2607 49.9931 23.8285C50.0023 25.5251 50.0023 27.2216 49.9931 28.9181C49.9897 29.4961 49.7522 29.7253 49.1303 29.7401C47.9691 29.7686 46.8068 29.7686 45.6456 29.7857C44.2963 29.8063 43.765 30.3113 43.7409 31.6521C43.718 32.9188 43.7363 34.1855 43.7363 35.4978C43.9153 35.5058 44.0668 35.5195 44.2171 35.5195C45.6949 35.5206 47.1717 35.5195 48.6495 35.5206C49.6122 35.5217 49.8233 35.7281 49.8244 36.6664C49.8256 38.3481 49.8267 40.031 49.8233 41.7127C49.8222 42.5005 49.6259 42.7 48.8308 42.7035C47.3105 42.7092 45.7902 42.7057 44.2699 42.7057C44.1138 42.7057 43.9578 42.7057 43.7375 42.7057C43.7375 42.9155 43.7375 43.0957 43.7375 43.2758C43.7375 47.7371 43.7375 52.1996 43.7375 56.661C43.7375 57.8615 43.5963 57.9995 42.3721 57.9995C40.7221 57.9995 39.0733 58.0006 37.4233 57.9995C36.5123 57.9984 36.3023 57.7931 36.3023 56.8981C36.3012 52.3798 36.3012 47.8603 36.3012 43.3419C36.3012 43.172 36.3012 43.0033 36.3012 42.7559Z" fill="white"/>
</svg>
