<svg width="63" height="64" viewBox="0 0 63 64" fill="none" xmlns="http://www.w3.org/2000/svg">
<path d="M14.7011 63.0903C14.334 62.7693 13.9471 62.4697 13.6047 62.124C9.29816 57.7944 4.99655 53.4582 0.69494 49.1236C-0.226951 48.1935 -0.230244 47.6486 0.676832 46.7382C2.45641 44.9521 4.24258 43.1741 6.01228 41.3781C6.87984 40.4974 7.89063 40.0298 9.14342 40.0825C9.33273 40.0907 9.61918 39.9442 9.71137 39.7829C13.7973 32.6152 22.7265 30.857 29.1402 33.3214C29.4547 33.4433 29.8152 33.4926 30.1543 33.4943C34.3555 33.5058 38.5567 33.5206 42.7579 33.4926C44.47 33.4811 45.9466 33.9454 47.2933 35.5109C47.4151 35.2656 47.4727 35.0203 47.6225 34.8656C49.9569 32.4473 52.2945 30.0323 54.647 27.632C56.9665 25.2664 60.9323 25.8426 62.4929 28.7564C63.3539 30.3648 63.0757 32.8605 61.8394 34.3487C59.5742 37.0748 57.2941 39.7895 55.019 42.5091C53.8486 43.9084 52.6616 45.2929 51.5109 46.7086C49.2918 49.4364 46.3878 50.7254 42.9241 50.7501C37.6167 50.7863 32.3076 50.8044 27.0001 50.7353C25.1712 50.7106 24.0435 51.7362 22.9323 52.9067C22.8483 52.9956 22.8516 53.2096 22.8796 53.3528C23.1562 54.7949 22.7759 56.0131 21.7174 57.042C19.8522 58.8578 18.01 60.6967 16.1514 62.5174C15.9358 62.7281 15.679 62.8977 15.4403 63.087C15.1917 63.0903 14.9464 63.0903 14.7011 63.0903ZM21.3502 50.9575C21.4605 50.8588 21.6071 50.7485 21.7289 50.6151C23.2763 48.9096 25.1876 48.2413 27.4923 48.2775C32.5726 48.3565 37.6562 48.3022 42.7365 48.3022C45.1795 48.3022 47.4299 47.6289 49.0432 45.7653C52.7686 41.4588 56.3821 37.0551 60.0236 32.6745C60.9109 31.6077 60.7743 30.131 59.7783 29.2454C58.7856 28.363 57.3122 28.4239 56.3442 29.4166C53.7251 32.0999 51.1125 34.7899 48.5082 37.4864C48.3699 37.6296 48.2481 37.8634 48.2464 38.0576C48.2184 41.3386 46.187 43.3668 42.8896 43.3717C39.8358 43.3766 36.7837 43.3733 33.7299 43.3717C32.6237 43.3717 32.0359 42.9321 32.0409 42.1222C32.0458 41.3123 32.6171 40.9007 33.748 40.9007C36.8018 40.899 39.8539 40.9023 42.9077 40.8974C43.2139 40.8974 43.525 40.8875 43.8246 40.8332C45.0972 40.5978 45.9697 39.3154 45.7408 38.0445C45.5005 36.7143 44.5259 35.9702 42.9768 35.9686C38.5913 35.962 34.2073 35.9735 29.8218 35.9554C29.3822 35.9538 28.918 35.8813 28.5097 35.7266C24.6954 34.268 20.9206 34.4079 17.2231 36.0674C14.7752 37.1654 12.9495 38.9795 11.7132 41.3024C14.9415 44.5356 18.1351 47.7359 21.3502 50.9575ZM15.358 60.1369C16.8544 58.5681 18.4199 56.9202 19.9921 55.2806C20.6917 54.5513 20.7099 53.9175 19.9954 53.203C16.6206 49.8233 13.2442 46.4469 9.86282 43.0737C9.14671 42.3593 8.52279 42.3658 7.79515 43.0918C6.27238 44.6113 4.75455 46.139 3.23673 47.6634C3.15606 47.7441 3.08692 47.8379 2.95687 47.9927C7.03788 51.9881 11.0909 55.9588 15.358 60.1369Z" fill="url(#paint0_linear_1760_279)"/>
<path d="M36.7273 27.0871C29.2287 27.0954 23.1672 21.0323 23.1738 13.5321C23.1804 6.06967 29.2419 0.00659028 36.7009 5.34132e-06C44.188 -0.0065796 50.2643 6.07626 50.2544 13.5666C50.2445 21.0405 44.2028 27.0806 36.7273 27.0871ZM36.7092 24.626C42.8233 24.6293 47.7768 19.6923 47.7916 13.5847C47.8064 7.44921 42.843 2.46606 36.7174 2.46442C30.6148 2.46277 25.6465 7.41629 25.635 13.5156C25.6251 19.6593 30.5704 24.6227 36.7092 24.626Z" fill="url(#paint1_linear_1760_279)"/>
<path d="M28.1341 43.1527C27.464 43.1577 26.8796 42.5667 26.8928 41.8983C26.906 41.2431 27.4558 40.7064 28.1176 40.7015C28.7942 40.6982 29.3259 41.2102 29.344 41.8818C29.3621 42.5749 28.8172 43.1478 28.1341 43.1527Z" fill="url(#paint2_linear_1760_279)"/>
<path d="M37.694 7.45745C38.3163 7.88712 38.8991 8.23118 39.411 8.6592C40.0037 9.15472 40.0432 9.86754 39.5905 10.4026C39.1443 10.9277 38.4381 10.9656 37.8274 10.5277C37.4981 10.2923 37.1573 10.0387 36.782 9.91199C36.1103 9.68481 35.3893 10.1704 35.2576 10.8668C35.1308 11.5368 35.5984 12.1871 36.2898 12.2957C36.7129 12.3632 37.1573 12.3665 37.559 12.4982C39.0653 12.9954 39.9378 14.0621 40.1387 15.6261C40.328 17.111 39.5526 18.5662 38.2142 19.2494C37.8043 19.4585 37.6331 19.6807 37.6907 20.1335C37.7302 20.4347 37.7171 20.7491 37.6858 21.0537C37.6183 21.7221 37.0948 22.1682 36.4346 22.1534C35.8058 22.1386 35.1967 21.6727 35.2724 21.0504C35.4107 19.9178 35.0024 19.2511 33.9752 18.8C33.5718 18.6239 33.2508 18.2024 32.9594 17.8386C32.538 17.3102 32.6351 16.6089 33.1241 16.1825C33.6015 15.766 34.2452 15.7676 34.7489 16.199C35.0288 16.4377 35.2708 16.7258 35.5704 16.9348C36.1433 17.3349 36.7787 17.3365 37.2248 16.9694C37.6232 16.6418 37.7813 16.2138 37.6545 15.7084C37.508 15.1273 37.0503 14.8178 36.3013 14.7667C34.7934 14.6647 33.697 13.9239 33.0928 12.5542C32.4952 11.2026 32.6895 9.89717 33.6262 8.75304C33.9291 8.38264 34.3357 8.05504 34.7604 7.83773C35.1605 7.6336 35.2839 7.40148 35.2444 6.98828C35.2148 6.68372 35.223 6.37258 35.2494 6.06638C35.307 5.41118 35.8469 4.9206 36.4774 4.92554C37.1129 4.93048 37.6463 5.41941 37.6891 6.08285C37.7187 6.57507 37.694 7.06729 37.694 7.45745Z" fill="url(#paint3_linear_1760_279)"/>
<defs>
<linearGradient id="paint0_linear_1760_279" x1="31.4956" y1="26.1634" x2="31.4956" y2="63.0903" gradientUnits="userSpaceOnUse">
<stop stop-color="#00FFFF"/>
<stop offset="1" stop-color="#1CA7FB"/>
</linearGradient>
<linearGradient id="paint1_linear_1760_279" x1="36.7141" y1="0" x2="36.7141" y2="27.0872" gradientUnits="userSpaceOnUse">
<stop stop-color="#00FFFF"/>
<stop offset="1" stop-color="#1CA7FB"/>
</linearGradient>
<linearGradient id="paint2_linear_1760_279" x1="28.1185" y1="40.7015" x2="28.1185" y2="43.1528" gradientUnits="userSpaceOnUse">
<stop stop-color="#00FFFF"/>
<stop offset="1" stop-color="#1CA7FB"/>
</linearGradient>
<linearGradient id="paint3_linear_1760_279" x1="36.4301" y1="4.92551" x2="36.4301" y2="22.1537" gradientUnits="userSpaceOnUse">
<stop stop-color="#00FFFF"/>
<stop offset="1" stop-color="#1CA7FB"/>
</linearGradient>
</defs>
</svg>
