<svg width="80" height="80" viewBox="0 0 80 80" fill="none" xmlns="http://www.w3.org/2000/svg">
<path d="M36.8671 46.4622C35.9327 46.2889 35.0455 46.1582 34.1755 45.9573C32.3357 45.5332 30.6407 44.8019 29.2471 43.4956C27.6272 41.9767 26.8248 40.0508 26.4976 37.9122C26.2455 36.2647 26.1414 34.6098 26.5587 32.9655C26.902 31.6156 27.5285 30.4092 28.465 29.3707C28.6431 29.173 28.6624 29.02 28.5788 28.7734C27.9523 26.9133 28.1561 25.0808 28.8298 23.2782C28.8706 23.1708 29.0701 23.0433 29.1849 23.0528C29.7803 23.106 30.3885 23.14 30.9636 23.2899C32.4429 23.6757 33.7507 24.4367 35.0401 25.2307C35.1978 25.3285 35.4478 25.3742 35.6259 25.3296C39.3012 24.4282 42.9734 24.4357 46.6498 25.3221C46.8397 25.3678 47.1025 25.3189 47.2699 25.2158C48.7535 24.2986 50.2705 23.4642 52.0105 23.1198C53.2721 22.87 53.3772 22.9253 53.713 24.1285C54.1518 25.6995 54.185 27.2704 53.7023 28.8425C53.6647 28.9658 53.6894 29.1666 53.7699 29.2591C55.4166 31.1277 56.0946 33.3141 55.9895 35.7683C55.9187 37.4371 55.6923 39.074 55.0283 40.6258C53.9083 43.2427 51.8678 44.8328 49.1794 45.6299C47.9683 45.9892 46.7099 46.1954 45.4547 46.4749C45.4547 46.4292 45.444 46.4654 45.4558 46.4781C46.5286 47.5793 46.8901 48.9494 46.9062 50.4194C46.9287 52.4782 46.9084 54.5381 46.8858 56.598C46.8794 57.1964 47.0435 57.6407 47.6765 57.8756C43.2931 57.9171 38.9097 57.9585 34.5263 58C35.3738 57.7598 35.4178 57.1093 35.4038 56.3982C35.3824 55.2992 35.3984 54.1991 35.3984 53.0607C34.8063 53.1351 34.2946 53.2169 33.7807 53.2616C32.4204 53.3796 31.1019 53.2244 29.8779 52.5824C28.7847 52.0084 27.9909 51.1581 27.521 50.0155C26.932 48.5848 26.1146 47.3327 24.736 46.5143C24.5108 46.3803 24.3112 46.1869 24.1407 45.986C23.9046 45.7097 23.9658 45.4556 24.323 45.3972C24.7607 45.326 25.236 45.2877 25.6629 45.3791C26.9825 45.6618 27.9018 46.5111 28.6388 47.591C28.9231 48.0077 29.2106 48.4339 29.5657 48.7878C30.955 50.1696 32.6317 50.3375 34.4437 49.8433C34.4823 49.8327 34.5188 49.8125 34.5574 49.805C35.1238 49.6955 35.4746 49.4553 35.5626 48.7963C35.686 47.896 36.1966 47.1446 36.8671 46.4622Z" fill="white"/>
</svg>
