<svg width="419" height="419" viewBox="0 0 419 419" fill="none" xmlns="http://www.w3.org/2000/svg">
<circle cx="209.5" cy="209.5" r="209" stroke="#06B9BA" stroke-dasharray="42 42"/>
<path d="M411 210C411 321.009 321.009 411 210 411C98.9908 411 9 321.009 9 210C9 98.9908 98.9908 9 210 9C321.009 9 411 98.9908 411 210Z" fill="#15171A"/>
<mask id="mask0_1846_710" style="mask-type:luminance" maskUnits="userSpaceOnUse" x="75" y="78" width="271" height="271">
<path d="M345.045 78H75V348.045H345.045V78Z" fill="white"/>
</mask>
<g mask="url(#mask0_1846_710)">
<g opacity="0.7">
<path fill-rule="evenodd" clip-rule="evenodd" d="M86.9057 166.323L98.8185 170.275C103.306 171.683 133.668 181.9 135.291 181.908C136.375 180.005 137.777 176.298 139.581 173.194C141.164 170.465 142.884 167.912 144.735 165.256C146.712 162.425 151.304 157.082 153.932 154.75C154.51 154.237 156.914 152.109 157.327 151.466C156.956 150.406 151.046 142.594 149.972 141.131C147.542 137.825 145.003 134.303 142.571 130.869L127.604 110.324C125.796 110.851 116.236 120.316 114.928 121.626C107.588 128.971 99.6591 140.124 94.4316 149.514C93.1593 151.8 86.8448 164.187 86.9057 166.323Z" fill="#00FFFF"/>
<path d="M156.251 220.522H152.078L149.157 216.569H142.614V220.522H139.254V213.208H150.718C151.31 213.208 151.836 213.01 152.255 212.593C152.673 212.155 152.892 211.65 152.892 211.056C152.892 210.463 152.673 209.958 152.255 209.519C151.838 209.101 151.31 208.903 150.718 208.903H139.254V205.521L150.718 205.542C151.486 205.542 152.189 205.674 152.869 205.982C154.209 206.575 155.197 207.564 155.812 208.926C156.097 209.628 156.251 210.352 156.251 211.056C156.251 211.758 156.097 212.483 155.812 213.186C155.219 214.526 154.274 215.492 152.957 216.085L156.251 220.522ZM216.141 220.522H199.143V217.161H216.141V220.522ZM216.141 208.948H199.143V205.59H216.141V208.948ZM214.758 214.724H200.505V211.365H214.758V214.724ZM229.374 220.522H222.127C221.469 220.522 220.854 220.413 220.282 220.171C219.097 219.688 218.219 218.898 217.648 217.734C217.384 217.185 217.251 216.57 217.251 215.933H220.612C220.612 216.196 220.7 216.417 220.853 216.593C221.008 216.79 221.204 216.922 221.446 217.009C221.667 217.097 221.907 217.163 222.126 217.163H229.373C229.592 217.163 229.834 217.097 230.054 217.009C230.296 216.922 230.494 216.79 230.647 216.593C230.801 216.417 230.888 216.196 230.888 215.933C230.888 215.67 230.801 215.449 230.647 215.274C230.493 215.098 230.296 214.945 230.054 214.857C229.833 214.747 229.592 214.703 229.373 214.703H222.126C221.467 214.703 220.853 214.592 220.282 214.373C219.097 213.891 218.218 213.077 217.647 211.936C217.383 211.387 217.251 210.771 217.251 210.135C217.251 209.476 217.383 208.883 217.647 208.313C218.217 207.172 219.097 206.358 220.282 205.897C220.853 205.655 221.467 205.546 222.126 205.546H229.373C230.033 205.546 230.647 205.655 231.218 205.897C232.404 206.358 233.282 207.172 233.853 208.313C234.116 208.883 234.249 209.478 234.249 210.135H230.89C230.89 209.872 230.802 209.653 230.647 209.476C230.494 209.278 230.297 209.146 230.055 209.059C229.834 208.949 229.593 208.905 229.374 208.905H222.127C221.908 208.905 221.667 208.949 221.447 209.059C221.205 209.146 221.009 209.279 220.854 209.476C220.701 209.652 220.612 209.871 220.612 210.135C220.612 210.398 220.701 210.619 220.854 210.795C221.009 210.97 221.205 211.101 221.447 211.211C221.667 211.3 221.908 211.343 222.127 211.343H229.374C230.033 211.343 230.647 211.475 231.22 211.717C232.404 212.177 233.283 212.99 233.854 214.132C234.117 214.704 234.25 215.297 234.25 215.933C234.25 216.57 234.119 217.185 233.854 217.734C233.284 218.898 232.404 219.689 231.22 220.171C230.647 220.413 230.033 220.522 229.374 220.522ZM243.924 220.522H240.564V208.883H235.117V205.524H249.37V208.883H243.925L243.924 220.522ZM259.547 220.522H256.187V208.883H250.741V205.524H264.994V208.883H259.548L259.547 220.522ZM280.792 220.522H276.948L270.931 209.784L264.914 220.522H261.07L269.459 205.524H272.402L280.792 220.522ZM197.295 220.522H193.957V210.728L188.817 218.062H186.074L180.934 210.728V220.522H177.574V205.524H181.374L187.435 214.175L193.497 205.524H197.296L197.295 220.522ZM176.77 220.522H172.926L166.909 209.784L160.892 220.522H157.048L165.437 205.524H168.38L176.77 220.522Z" fill="#00FFFF"/>
<path fill-rule="evenodd" clip-rule="evenodd" d="M89.0551 180.312L82.7788 178.468C81.6773 180.723 79.9315 191.446 79.4534 194.448C76.7188 211.597 78.5283 231.493 82.7206 247.568C84.2911 247.451 119.768 235.814 124.926 234.053C126.769 233.423 129.299 232.78 131.088 232.045C131.293 231.278 130.029 224.552 129.801 222.965C128.979 217.229 128.874 209.059 129.746 203.379L131.269 194.246L130.035 193.62C129.469 193.432 129.083 193.333 128.5 193.138L89.0551 180.312Z" fill="#00FFFF"/>
<path fill-rule="evenodd" clip-rule="evenodd" d="M86.8444 259.822C87.2197 262.596 92.6581 273.335 94.3713 276.39C98.5573 283.843 103.469 291.31 109.055 297.836C112.842 302.257 116.81 306.324 120.825 310.151C122.652 311.892 125.097 314.075 127.351 315.664C128.247 315.179 130.419 311.863 131.187 310.798C136.729 303.116 144.302 292.318 149.82 285.128C151.162 283.379 152.282 281.722 153.601 279.945C154.326 278.968 154.739 278.368 155.453 277.416C155.915 276.799 156.91 275.506 157.328 274.679C156.881 273.663 154.943 272.265 154.111 271.487C148.777 266.507 143.306 259.33 139.649 252.915C137.89 249.827 136.218 245.689 135.292 244.071C134.072 244.067 113.959 250.862 111.1 251.766C108.153 252.699 87.7641 259.08 86.8444 259.822Z" fill="#00FFFF"/>
<path fill-rule="evenodd" clip-rule="evenodd" d="M137.887 323.348C153.119 333.647 166.57 338.18 184.232 342.324C189.272 343.506 198.317 344.729 203.752 344.666C203.752 338.965 204.146 295.146 203.52 293.568C196.416 292.997 190.027 291.671 183.891 289.565C180.893 288.534 178.187 287.411 175.55 286.195C172.764 284.911 170.418 283.332 167.824 282.077C166.674 282.937 164.945 285.803 164.049 287.03C162.609 289.006 161.516 290.509 160.27 292.219C157.954 295.404 155.175 299.152 152.734 302.613C151.017 305.046 138.15 322.246 137.887 323.348Z" fill="#00FFFF"/>
<path fill-rule="evenodd" clip-rule="evenodd" d="M216.41 344.695C220.026 344.952 231.732 343.215 235.539 342.39C241.719 341.051 247.113 339.684 252.716 337.793C259.357 335.553 276.747 327.893 282.097 323.349C281.9 322.286 275.946 314.526 274.799 312.932L252.356 282.108L244.239 286.315C241.614 287.524 238.425 288.817 235.494 289.8C230.149 291.595 225.908 292.425 220.366 293.18C215.799 293.802 216.289 293.03 216.313 295.408C216.353 299.505 216.053 342.348 216.41 344.695Z" fill="#00FFFF"/>
<path fill-rule="evenodd" clip-rule="evenodd" d="M262.67 274.422C262.985 275.541 268.534 282.805 269.92 284.77C272.387 288.267 274.777 291.4 277.476 295.139C279.354 297.737 291.618 314.964 292.57 315.673C294.801 314.562 303.39 306.21 305.248 304.259C312.86 296.255 320.476 286.035 325.699 276.309C326.794 274.27 333.261 261.691 333.186 259.666L284.904 243.955C283.329 246.012 279.018 259.412 266.083 271.243C265.006 272.228 264.06 273.324 262.67 274.422Z" fill="#00FFFF"/>
<path fill-rule="evenodd" clip-rule="evenodd" d="M288.751 194.043C289.039 198.3 290.865 202.628 290.865 211.664C290.865 217.021 290.61 218.511 290.196 223.716C290.047 225.576 288.669 230.839 288.874 231.997C292.698 233.454 296.757 234.547 300.852 235.924L337.247 247.638C340.963 232.344 341.892 225.921 341.892 210.126C341.892 199.871 339.763 187.442 337.292 178.446C334.289 178.786 295.434 192.247 288.751 194.043Z" fill="#00FFFF"/>
<path fill-rule="evenodd" clip-rule="evenodd" d="M262.641 151.466C263.499 152.494 267.282 155.668 269.245 157.888C273.924 163.174 276.948 167.042 280.396 173.14L284.888 181.961L333.218 166.366C333.059 163.961 327.059 152.157 325.743 149.771C322.971 144.747 319.682 139.601 316.292 134.923C311.983 128.977 304.639 120.647 299.195 115.889C297.315 114.246 294.656 111.568 292.572 110.293C291.69 111 278.529 129.467 277.553 130.807C275.393 133.775 272.652 137.374 270.111 141.026L262.641 151.466Z" fill="#00FFFF"/>
<path fill-rule="evenodd" clip-rule="evenodd" d="M216.328 132.337C219.888 132.937 223.321 133.108 226.647 133.868C242.126 137.403 251.31 143.638 252.354 143.858L278.418 108.125C279.225 106.991 281.762 103.854 282.136 102.797C281.541 102.11 279.87 101.186 278.919 100.586C277.751 99.8527 276.64 99.1983 275.541 98.5685C273.196 97.2244 270.715 95.9384 268.343 94.7306C258.379 89.6603 247.112 86.0078 235.94 83.6875C231.541 82.7742 220.7 81.0065 216.379 81.3737L216.328 132.337Z" fill="#00FFFF"/>
<path fill-rule="evenodd" clip-rule="evenodd" d="M137.863 102.796L160.072 133.589C161.245 135.152 166.877 143.233 167.822 143.885L175.64 139.785C178.261 138.538 181.218 137.389 183.995 136.404C191.94 133.583 202.274 132.785 203.661 132.255L203.75 81.4635C193.56 80.9545 176.616 85.0588 166.95 88.3432C160.942 90.3844 140.927 99.1482 137.863 102.796Z" fill="#00FFFF"/>
</g>
</g>
</svg>
