<svg width="80" height="80" viewBox="0 0 80 80" fill="none" xmlns="http://www.w3.org/2000/svg">
<path d="M42.7621 58.6635C40.1918 58.6635 37.6709 58.6635 35.1174 58.6635C35.1174 50.5251 35.1174 42.3987 35.1174 34.234C37.5348 34.234 39.9594 34.234 42.4479 34.234C42.4479 35.3222 42.4479 36.3972 42.4479 37.4865C42.9764 36.8755 43.4254 36.2585 43.9732 35.7455C45.3227 34.4828 46.972 33.8263 48.8043 33.6601C50.3887 33.5154 51.9633 33.6302 53.4923 34.1037C56.0385 34.8929 57.5409 36.6686 58.2897 39.1462C58.7857 40.7904 58.9639 42.4824 58.9759 44.184C59.0084 48.9144 58.9952 53.6449 59 58.3753C59 58.4339 58.9892 58.4913 58.9807 58.5882C56.443 58.5882 53.9124 58.5882 51.3265 58.5882C51.3265 58.4124 51.3265 58.2378 51.3265 58.0644C51.3241 54.0204 51.3349 49.9763 51.3096 45.9322C51.3048 45.0868 51.2278 44.2294 51.0725 43.3984C50.6005 40.861 48.9488 40.0347 46.6253 40.2966C44.4692 40.5393 43.2761 41.7985 42.9475 44.117C42.8283 44.9565 42.7741 45.8102 42.7705 46.658C42.7524 50.4785 42.7621 54.299 42.7621 58.1194C42.7621 58.2916 42.7621 58.4662 42.7621 58.6635Z" fill="white"/>
<path d="M30.2526 58.6707C27.6955 58.6707 25.1854 58.6707 22.6428 58.6707C22.6428 50.518 22.6428 42.382 22.6428 34.2197C25.1758 34.2197 27.6967 34.2197 30.2526 34.2197C30.2526 42.3677 30.2526 50.5013 30.2526 58.6707Z" fill="white"/>
<path d="M30.875 26.3957C30.8834 28.8291 28.8934 30.8392 26.4664 30.85C24.0273 30.8619 21.9964 28.8375 22 26.3993C22.0036 23.9994 23.9948 22.0168 26.4182 22.0001C28.8645 21.9834 30.8678 23.9588 30.875 26.3957Z" fill="white"/>
</svg>
