<svg width="247" height="62" viewBox="0 0 247 62" fill="none" xmlns="http://www.w3.org/2000/svg">
<mask id="mask0_1775_37" style="mask-type:luminance" maskUnits="userSpaceOnUse" x="0" y="0" width="62" height="62">
<path d="M61.3289 0H0V61.3289H61.3289V0Z" fill="white"/>
</mask>
<g mask="url(#mask0_1775_37)">
<g opacity="0.7">
<path fill-rule="evenodd" clip-rule="evenodd" d="M2.70381 20.0586L5.40927 20.9562C6.42847 21.2759 13.3238 23.5963 13.6925 23.598C13.9385 23.166 14.257 22.324 14.6667 21.6189C15.0262 20.9992 15.4169 20.4194 15.8373 19.8162C16.2861 19.1733 17.3289 17.96 17.9259 17.4303C18.0572 17.3137 18.603 16.8305 18.6969 16.6844C18.6126 16.4437 17.2704 14.6696 17.0265 14.3375C16.4747 13.5866 15.8981 12.7868 15.3458 12.0068L11.9468 7.34094C11.536 7.46066 9.36491 9.61009 9.0679 9.90772C7.40082 11.5758 5.60019 14.1087 4.41298 16.2411C4.12404 16.7603 2.68998 19.5735 2.70381 20.0586Z" fill="#00FFFF"/>
<path d="M18.4526 32.3674H17.5049L16.8416 31.4698H15.3555V32.3674H14.5925V30.7065H17.1959C17.3304 30.7065 17.45 30.6615 17.5452 30.5667C17.6399 30.4673 17.6896 30.3526 17.6896 30.2178C17.6896 30.083 17.6399 29.9685 17.5452 29.8686C17.4503 29.7738 17.3304 29.7288 17.1959 29.7288H14.5925V28.9608L17.1959 28.9655C17.3703 28.9655 17.5301 28.9955 17.6845 29.0654C17.9887 29.2001 18.2133 29.4246 18.3528 29.7339C18.4176 29.8935 18.4526 30.0579 18.4526 30.2178C18.4526 30.3772 18.4176 30.5418 18.3528 30.7015C18.2183 31.0057 18.0035 31.2252 17.7045 31.3598L18.4526 32.3674ZM32.054 32.3674H28.1937V31.6043H32.054V32.3674ZM32.054 29.7391H28.1937V28.9763H32.054V29.7391ZM31.7398 31.0508H28.5028V30.2879H31.7398V31.0508ZM35.0593 32.3676H33.4135C33.2639 32.3676 33.1244 32.3428 32.9945 32.2879C32.7253 32.1781 32.5258 31.9988 32.3962 31.7344C32.3363 31.6097 32.3061 31.4699 32.3061 31.3253H33.0693C33.0693 31.3851 33.0892 31.4353 33.1241 31.4752C33.1592 31.5199 33.2038 31.5499 33.2586 31.5698C33.3089 31.5896 33.3635 31.6046 33.4132 31.6046H35.0591C35.1088 31.6046 35.1638 31.5896 35.2137 31.5698C35.2687 31.5499 35.3135 31.5199 35.3483 31.4752C35.3834 31.4353 35.4032 31.3851 35.4032 31.3253C35.4032 31.2656 35.3834 31.2155 35.3483 31.1757C35.3134 31.1358 35.2687 31.1009 35.2137 31.0809C35.1635 31.0559 35.1088 31.046 35.0591 31.046H33.4132C33.2636 31.046 33.1241 31.0208 32.9943 30.9711C32.7252 30.8615 32.5256 30.6767 32.3959 30.4175C32.3361 30.2929 32.306 30.1531 32.306 30.0086C32.306 29.859 32.3359 29.7242 32.3959 29.5948C32.5254 29.3356 32.7252 29.1509 32.9943 29.046C33.1241 28.9911 33.2636 28.9663 33.4132 28.9663H35.0591C35.2088 28.9663 35.3483 28.9911 35.4781 29.046C35.7473 29.1509 35.9469 29.3356 36.0764 29.5948C36.1363 29.7242 36.1664 29.8593 36.1664 30.0086H35.4034C35.4034 29.9488 35.3836 29.899 35.3484 29.859C35.3135 29.814 35.2688 29.7841 35.2139 29.7641C35.1638 29.7393 35.1091 29.7293 35.0593 29.7293H33.4135C33.3638 29.7293 33.3089 29.7393 33.2589 29.7641C33.2041 29.7841 33.1594 29.8143 33.1244 29.859C33.0895 29.8989 33.0694 29.9486 33.0694 30.0086C33.0694 30.0683 33.0895 30.1185 33.1244 30.1584C33.1594 30.1981 33.2041 30.228 33.2589 30.253C33.3091 30.2731 33.3638 30.283 33.4135 30.283H35.0593C35.209 30.283 35.3484 30.313 35.4784 30.3678C35.7474 30.4724 35.947 30.6569 36.0767 30.9164C36.1365 31.0462 36.1667 31.1808 36.1667 31.3253C36.1667 31.4699 36.1368 31.6097 36.0767 31.7344C35.9473 31.9988 35.7474 32.1783 35.4784 32.2879C35.3484 32.3428 35.2088 32.3676 35.0593 32.3676ZM38.3635 32.3676H37.6005V29.7242H36.3635V28.9614H39.6006V29.7242H38.3638L38.3635 32.3676ZM41.9118 32.3676H41.1487V29.7242H39.9118V28.9614H43.1487V29.7242H41.912L41.9118 32.3676ZM46.7365 32.3676H45.8636L44.4971 29.929L43.1305 32.3676H42.2577L44.1627 28.9614H44.8312L46.7365 32.3676ZM27.7738 32.3676H27.0158V30.1433L25.8486 31.8089H25.2255L24.0583 30.1433V32.3676H23.2952V28.9614H24.1581L25.5347 30.9261L26.9113 28.9614H27.7741L27.7738 32.3676ZM23.1126 32.3676H22.2396L20.8731 29.929L19.5065 32.3676H18.6337L20.5388 28.9614H21.2071L23.1126 32.3676Z" fill="#00FFFF"/>
<path fill-rule="evenodd" clip-rule="evenodd" d="M3.19197 23.2355L1.76658 22.8169C1.51642 23.3289 1.11994 25.7643 1.01137 26.4461C0.390317 30.3406 0.801257 34.859 1.75337 38.5098C2.11003 38.4834 10.167 35.8405 11.3385 35.4405C11.7571 35.2975 12.3317 35.1515 12.7379 34.9844C12.7846 34.8104 12.4975 33.2828 12.4456 32.9224C12.2589 31.6197 12.2351 29.7643 12.4331 28.4743L12.779 26.4002L12.4987 26.258C12.3703 26.2153 12.2826 26.1928 12.1501 26.1485L3.19197 23.2355Z" fill="#00FFFF"/>
<path fill-rule="evenodd" clip-rule="evenodd" d="M2.6899 41.2928C2.77514 41.9229 4.01023 44.3617 4.39929 45.0557C5.34997 46.7481 6.46535 48.4441 7.73407 49.926C8.59415 50.9302 9.49528 51.8537 10.4071 52.7229C10.822 53.1184 11.3772 53.6141 11.8891 53.9749C12.0926 53.8649 12.5859 53.1118 12.7603 52.8698C14.019 51.1253 15.7388 48.673 16.9921 47.0399C17.2969 46.6429 17.5511 46.2666 17.8507 45.8629C18.0154 45.6412 18.1091 45.5049 18.2714 45.2886C18.3764 45.1485 18.6023 44.8548 18.6971 44.667C18.5956 44.4363 18.1556 44.1188 17.9665 43.9421C16.7552 42.811 15.5126 41.1811 14.6821 39.7244C14.2827 39.0229 13.9029 38.0832 13.6927 37.7158C13.4156 37.7149 8.84781 39.2581 8.19848 39.4634C7.52912 39.6752 2.89877 41.1243 2.6899 41.2928Z" fill="#00FFFF"/>
<path fill-rule="evenodd" clip-rule="evenodd" d="M14.2819 55.72C17.7413 58.0589 20.7961 59.0883 24.8072 60.0294C25.952 60.2979 28.006 60.5757 29.2404 60.5614C29.2404 59.2665 29.3299 49.315 29.1875 48.9566C27.5743 48.8271 26.1233 48.526 24.7297 48.0475C24.0488 47.8134 23.4345 47.5585 22.8355 47.2822C22.2027 46.9905 21.67 46.6321 21.0809 46.3469C20.8197 46.5422 20.4271 47.1932 20.2236 47.4718C19.8964 47.9205 19.6482 48.2619 19.3654 48.6504C18.8393 49.3736 18.2083 50.2248 17.6538 51.0109C17.264 51.5634 14.3418 55.4697 14.2819 55.72Z" fill="#00FFFF"/>
<path fill-rule="evenodd" clip-rule="evenodd" d="M32.115 60.568C32.9363 60.6265 35.5947 60.232 36.4593 60.0447C37.8628 59.7405 39.088 59.43 40.3605 59.0006C41.8686 58.492 45.818 56.7523 47.0329 55.7202C46.9882 55.4789 45.6361 53.7165 45.3755 53.3545L40.2785 46.3542L38.4351 47.3096C37.8391 47.5841 37.1148 47.8778 36.4492 48.1012C35.2354 48.5087 34.2721 48.6973 33.0135 48.8688C31.9763 49.01 32.0875 48.8345 32.0931 49.3746C32.1022 50.3051 32.0339 60.0351 32.115 60.568Z" fill="#00FFFF"/>
<path fill-rule="evenodd" clip-rule="evenodd" d="M42.6211 44.6085C42.6925 44.8627 43.9527 46.5123 44.2675 46.9587C44.8279 47.7528 45.3707 48.4643 45.9837 49.3134C46.4101 49.9036 49.1952 53.816 49.4116 53.9769C49.9181 53.7247 51.8688 51.8279 52.2907 51.3847C54.0194 49.5671 55.7492 47.2458 56.9353 45.0372C57.1839 44.574 58.6527 41.7173 58.6356 41.2574L47.6706 37.6892C47.3127 38.1565 46.3338 41.1998 43.3962 43.8865C43.1515 44.1103 42.9366 44.3592 42.6211 44.6085Z" fill="#00FFFF"/>
<path fill-rule="evenodd" clip-rule="evenodd" d="M48.5441 26.354C48.6094 27.3208 49.0243 28.3036 49.0243 30.3558C49.0243 31.5725 48.9662 31.9108 48.8723 33.0928C48.8386 33.5154 48.5255 34.7106 48.5721 34.9736C49.4405 35.3045 50.3623 35.5528 51.2923 35.8655L59.558 38.5257C60.4018 35.0525 60.6128 33.5936 60.6128 30.0066C60.6128 27.6776 60.1292 24.8549 59.5682 22.8118C58.8861 22.8891 50.062 25.946 48.5441 26.354Z" fill="#00FFFF"/>
<path fill-rule="evenodd" clip-rule="evenodd" d="M42.6144 16.6846C42.8092 16.9179 43.6683 17.6389 44.1143 18.1431C45.1769 19.3435 45.8635 20.222 46.6466 21.6069L47.6669 23.61L58.6428 20.0683C58.6068 19.5222 57.2442 16.8415 56.9453 16.2997C56.3158 15.1586 55.5687 13.9899 54.7988 12.9276C53.8203 11.5771 52.1525 9.68528 50.916 8.60478C50.4891 8.23161 49.8853 7.62335 49.4119 7.33398C49.2115 7.49436 46.2227 11.6884 46.001 11.9928C45.5104 12.6667 44.888 13.4841 44.3108 14.3135L42.6144 16.6846Z" fill="#00FFFF"/>
<path fill-rule="evenodd" clip-rule="evenodd" d="M32.0964 12.3401C32.9049 12.4764 33.6846 12.5154 34.4399 12.6879C37.9554 13.4906 40.0411 14.9066 40.2783 14.9568L46.1975 6.84146C46.3807 6.58408 46.9569 5.87159 47.0419 5.63156C46.9068 5.47552 46.5273 5.26561 46.3112 5.12938C46.046 4.96282 45.7936 4.81421 45.5441 4.67118C45.0114 4.36592 44.4482 4.07386 43.9095 3.79955C41.6465 2.64806 39.0876 1.81854 36.5505 1.29161C35.5515 1.08417 33.0892 0.68273 32.108 0.766115L32.0964 12.3401Z" fill="#00FFFF"/>
<path fill-rule="evenodd" clip-rule="evenodd" d="M14.2766 5.63131L19.3203 12.6245C19.5867 12.9795 20.8658 14.8148 21.0805 14.9628L22.8559 14.0317C23.4512 13.7486 24.1228 13.4876 24.7533 13.2639C26.5577 12.6233 28.9046 12.4418 29.2196 12.3215L29.24 0.786515C26.9256 0.670932 23.0776 1.60303 20.8824 2.34895C19.5178 2.81252 14.9724 4.80283 14.2766 5.63131Z" fill="#00FFFF"/>
</g>
</g>
<path d="M93.0446 28.5053H87.9228L84.3283 23.6341H76.2967V28.5053H72.1756V19.4909H86.2638C86.9924 19.4909 87.6156 19.2306 88.1335 18.7099C88.6514 18.1893 88.9103 17.5627 88.9103 16.8303C88.9103 16.089 88.6514 15.458 88.1335 14.9374C87.6156 14.4167 86.9924 14.1564 86.2638 14.1564H72.1756V10L86.2638 10.0132C87.1943 10.0132 88.0676 10.1941 88.884 10.556C90.5517 11.2972 91.7587 12.5062 92.5048 14.1829C92.8647 15.0653 93.0446 15.9478 93.0446 16.8303C93.0446 17.7039 92.8647 18.582 92.5048 19.4644C91.785 21.097 90.6176 22.2883 89.0025 23.0384L93.0446 28.5053Z" fill="#0DC1C3"/>
<path d="M118.246 28.5053H113.532L106.145 15.2418L98.7458 28.5053H94.0321L104.342 10H107.936L118.246 28.5053Z" fill="#0DC1C3"/>
<path d="M143.46 28.5053H139.338V16.4067L133.032 25.4608H129.661L123.367 16.4067V28.5053H119.233V10H123.907L131.346 20.6822L138.785 10H143.46V28.5053Z" fill="#0DC1C3"/>
<path d="M166.725 28.5053H145.856V24.3621H166.725V28.5053ZM166.725 14.2094H145.856V10.0662H166.725V14.2094ZM165.04 21.3573H147.528V17.2141H165.04V21.3573Z" fill="#0DC1C3"/>
<path d="M182.986 28.5053H174.098C173.299 28.5053 172.54 28.3597 171.82 28.0685C170.372 27.486 169.301 26.4888 168.608 25.0769C168.274 24.3798 168.107 23.6341 168.107 22.8399H172.242C172.242 23.1664 172.338 23.4443 172.531 23.6738C172.725 23.8944 172.962 24.0621 173.242 24.1768C173.532 24.2915 173.817 24.3489 174.098 24.3489H182.986C183.267 24.3489 183.552 24.2915 183.842 24.1768C184.131 24.0621 184.373 23.8944 184.566 23.6738C184.759 23.4443 184.855 23.1664 184.855 22.8399C184.855 22.5222 184.759 22.253 184.566 22.0324C184.373 21.803 184.131 21.6309 183.842 21.5162C183.552 21.3926 183.267 21.3308 182.986 21.3308H174.098C173.299 21.3308 172.54 21.1896 171.82 20.9073C170.372 20.3248 169.301 19.3276 168.608 17.9157C168.274 17.2186 168.107 16.4729 168.107 15.6787C168.107 14.8844 168.274 14.1388 168.608 13.4416C169.301 12.0297 170.372 11.0325 171.82 10.4501C172.54 10.1677 173.299 10.0265 174.098 10.0265H182.986C183.793 10.0265 184.553 10.1677 185.264 10.4501C186.721 11.0325 187.796 12.0297 188.489 13.4416C188.814 14.1388 188.977 14.8844 188.977 15.6787H184.855C184.855 15.361 184.759 15.0918 184.566 14.8712C184.373 14.6418 184.131 14.4697 183.842 14.355C183.552 14.2314 183.267 14.1696 182.986 14.1696H174.098C173.817 14.1696 173.532 14.2314 173.242 14.355C172.962 14.4697 172.725 14.6418 172.531 14.8712C172.338 15.0918 172.242 15.361 172.242 15.6787C172.242 16.0052 172.338 16.2787 172.531 16.4993C172.725 16.72 172.962 16.892 173.242 17.0156C173.532 17.1303 173.817 17.1877 174.098 17.1877H182.986C183.793 17.1877 184.553 17.3333 185.264 17.6245C186.721 18.2069 187.796 19.2041 188.489 20.616C188.814 21.3132 188.977 22.0545 188.977 22.8399C188.977 23.6341 188.814 24.3798 188.489 25.0769C187.796 26.4888 186.721 27.486 185.264 28.0685C184.553 28.3597 183.793 28.5053 182.986 28.5053Z" fill="#0DC1C3"/>
<path d="M200.998 28.5053H196.876V14.1432H190.175V10H207.686V14.1432H200.998V28.5053Z" fill="#0DC1C3"/>
<path d="M220.168 28.5053H216.047V14.1432H209.345V10H226.857V14.1432H220.168V28.5053Z" fill="#0DC1C3"/>
<path d="M246.251 28.5053H241.538L234.151 15.2418L226.752 28.5053H222.038L232.347 10H235.942L246.251 28.5053Z" fill="#0DC1C3"/>
<path d="M85.2026 52H72V42.1914H85.2026C85.5601 42.1914 85.8644 42.0614 86.1155 41.8014C86.3741 41.5413 86.5035 41.2316 86.5035 40.8721C86.5035 40.5127 86.3741 40.2067 86.1155 39.9544C85.8644 39.6943 85.5601 39.5643 85.2026 39.5643H72V35.9736H85.2026C85.872 35.9736 86.4997 36.0998 87.0854 36.3521C87.6788 36.6045 88.1999 36.9563 88.6487 37.4076C89.5997 38.3865 90.0751 39.5452 90.0751 40.8836C90.0751 41.4419 89.9762 42.0002 89.7784 42.5585C89.5882 43.0862 89.3182 43.5642 88.9682 43.9925C89.7062 44.9409 90.0751 45.9772 90.0751 47.1014C90.0751 48.4093 89.5997 49.5641 88.6487 50.566C88.1999 51.0172 87.6788 51.369 87.0854 51.6214C86.4997 51.8738 85.872 52 85.2026 52ZM85.2026 48.4093C85.5601 48.4093 85.8644 48.2831 86.1155 48.0307C86.3741 47.7706 86.5035 47.4609 86.5035 47.1014C86.5035 46.742 86.3741 46.4322 86.1155 46.1722C85.8644 45.9122 85.5601 45.7822 85.2026 45.7822H75.5717V48.4093H85.2026Z" fill="#0DC1C3"/>
<path d="M104.818 52H92.1291V35.985H95.7008V48.4093H104.818V52Z" fill="#0DC1C3"/>
<path d="M118.203 52H110.512C109.797 52 109.124 51.8623 108.493 51.587C107.215 51.0211 106.29 50.0918 105.72 48.7993C105.453 48.1722 105.32 47.4991 105.32 46.7802V41.2392C105.32 40.528 105.453 39.8549 105.72 39.2202C106.29 37.9276 107.215 36.9984 108.493 36.4324C109.124 36.1571 109.797 36.0195 110.512 36.0195H118.203C118.911 36.0195 119.58 36.1571 120.212 36.4324C121.49 36.9984 122.414 37.9276 122.985 39.2202C123.258 39.8549 123.395 40.528 123.395 41.2392V46.7802C123.395 47.4991 123.258 48.1722 122.985 48.7993C122.414 50.0918 121.49 51.0211 120.212 51.587C119.58 51.8623 118.911 52 118.203 52ZM118.203 48.4093C118.652 48.4093 119.033 48.2525 119.344 47.9389C119.656 47.6177 119.812 47.2315 119.812 46.7802V41.2392C119.812 40.788 119.656 40.4056 119.344 40.092C119.033 39.7708 118.652 39.6102 118.203 39.6102H110.512C110.063 39.6102 109.679 39.7708 109.36 40.092C109.048 40.4056 108.892 40.788 108.892 41.2392V46.7802C108.892 47.2315 109.048 47.6177 109.36 47.9389C109.679 48.2525 110.063 48.4093 110.512 48.4093H118.203Z" fill="#0DC1C3"/>
<path d="M138.492 52H130.801C130.086 52 129.417 51.8662 128.793 51.5985C127.507 51.0249 126.583 50.0956 126.02 48.8108C125.746 48.176 125.609 47.4991 125.609 46.7802V41.2392C125.609 40.528 125.746 39.8549 126.02 39.2202C126.583 37.9353 127.507 37.0061 128.793 36.4324C129.417 36.1571 130.086 36.0195 130.801 36.0195H138.492C139.207 36.0195 139.881 36.1571 140.512 36.4324C141.79 37.0061 142.714 37.9353 143.285 39.2202C143.551 39.8549 143.684 40.528 143.684 41.2392H140.113C140.113 40.788 139.953 40.4056 139.633 40.092C139.321 39.7785 138.941 39.6217 138.492 39.6217H130.801C130.352 39.6217 129.968 39.7785 129.649 40.092C129.337 40.4056 129.181 40.788 129.181 41.2392V46.7802C129.181 47.2315 129.337 47.6177 129.649 47.9389C129.968 48.2525 130.352 48.4093 130.801 48.4093H138.492C138.941 48.4093 139.321 48.2525 139.633 47.9389C139.953 47.6177 140.113 47.2315 140.113 46.7802H143.684C143.684 47.4991 143.551 48.176 143.285 48.8108C142.714 50.0956 141.79 51.0249 140.512 51.5985C139.881 51.8662 139.207 52 138.492 52Z" fill="#0DC1C3"/>
<path d="M163.334 52H158.941L152.756 43.4878L148.831 46.7343V52H145.259V35.9621H148.831V42.0996L156.271 35.9621H161.885L155.518 41.2163L163.334 52Z" fill="#0DC1C3"/>
<path d="M175.236 52H167.545C166.83 52 166.16 51.8662 165.536 51.5985C164.251 51.0249 163.327 50.0956 162.764 48.8108C162.49 48.176 162.353 47.4991 162.353 46.7802V41.2392C162.353 40.528 162.49 39.8549 162.764 39.2202C163.327 37.9353 164.251 37.0061 165.536 36.4324C166.16 36.1571 166.83 36.0195 167.545 36.0195H175.236C175.951 36.0195 176.624 36.1571 177.256 36.4324C178.534 37.0061 179.458 37.9353 180.028 39.2202C180.295 39.8549 180.428 40.528 180.428 41.2392H176.856C176.856 40.788 176.696 40.4056 176.377 40.092C176.065 39.7785 175.685 39.6217 175.236 39.6217H167.545C167.096 39.6217 166.712 39.7785 166.392 40.092C166.08 40.4056 165.924 40.788 165.924 41.2392V46.7802C165.924 47.2315 166.08 47.6177 166.392 47.9389C166.712 48.2525 167.096 48.4093 167.545 48.4093H175.236C175.685 48.4093 176.065 48.2525 176.377 47.9389C176.696 47.6177 176.856 47.2315 176.856 46.7802H180.428C180.428 47.4991 180.295 48.176 180.028 48.8108C179.458 50.0956 178.534 51.0249 177.256 51.5985C176.624 51.8662 175.951 52 175.236 52Z" fill="#0DC1C3"/>
<path d="M200.089 52H196.517V45.7822H185.586V52H182.003V35.9621H185.586V42.1914H196.517V35.9621H200.089V52Z" fill="#0DC1C3"/>
<path d="M221.93 52H217.845L211.443 40.505L205.03 52H200.945L209.88 35.9621H212.995L221.93 52Z" fill="#0DC1C3"/>
<path d="M226.357 52H222.786V35.9621H226.357V52Z" fill="#0DC1C3"/>
<path d="M247 52H242.675L232.497 40.505V52H228.925V35.9621H233.238L243.428 47.4571V35.9621H247V52Z" fill="#0DC1C3"/>
</svg>
