<svg width="360" height="120" viewBox="0 0 360 120" fill="none" xmlns="http://www.w3.org/2000/svg">
<rect opacity="0.4" x="0.5" y="0.5" width="359" height="119" rx="19.5" stroke="url(#paint0_linear_1838_690)"/>
<path fill-rule="evenodd" clip-rule="evenodd" d="M112.567 76.4235C112.813 76.2964 114.186 75.4232 115.187 74.4228C116.187 73.2953 116.56 72.6765 116.56 72.6765V67.5561C114.941 64.4364 112.067 62.1898 109.193 61.5625L101.835 65.8097C101.835 65.8097 100.461 66.8101 101.462 67.5561C102.462 68.1834 105.327 69.9298 105.327 69.9298L83.1162 82.7901L82.8704 78.297C82.8704 78.297 82.4974 76.7965 81.2512 77.551C79.8778 78.297 74.1385 81.5439 74.1385 81.5439V90.0299C74.1385 91.0302 76.7581 93.5226 79.6319 93.6497C82.3787 93.7769 83.1247 93.4039 83.9979 93.0224L112.703 76.2964L112.567 76.4235Z" fill="url(#paint1_linear_1838_690)"/>
<path fill-rule="evenodd" clip-rule="evenodd" d="M114.195 56.3236L116.569 53.5769V47.9563L114.949 45.5826L82.7348 27L77.9958 27.1187C77.9958 27.1187 73.8757 27.9919 74.0029 31.1116L74.1216 38.8515L81.2342 42.9716C81.2342 42.9716 82.9806 43.8447 82.8535 41.9712C82.7263 40.2249 82.9806 37.6053 82.9806 37.6053L105.446 50.5843L83.1163 63.4447V57.2052L85.9901 58.5786C85.9901 58.5786 86.9905 59.0788 87.3635 58.8244C87.7365 58.5701 94.1032 54.9587 94.1032 54.9587C94.1032 54.9587 94.8492 54.3314 94.8492 53.8312C94.8492 53.331 94.349 52.8309 94.349 52.8309L75.4949 41.9712C75.4949 41.9712 74.8676 41.5982 74.3674 41.8441C73.8672 42.0899 74.2487 79.5434 74.2487 79.5434L114.314 56.3236H114.195Z" fill="url(#paint2_linear_1838_690)"/>
<path fill-rule="evenodd" clip-rule="evenodd" d="M140.526 76.4235H133.041V62.69C139.034 62.69 151.013 60.9437 149.64 70.3028C148.894 75.296 145.274 76.4235 140.526 76.4235ZM141.154 58.6971H133.041V46.5913C136.287 46.5913 141.654 46.4642 144.4 47.3373C147.893 48.3377 148.521 49.9569 148.521 53.0766C148.521 57.1966 145.147 58.6971 141.035 58.6971H141.154ZM128.42 80.1706H143.027C157.38 80.1706 158.253 61.571 146.147 60.5707C147.766 59.5703 153.26 59.6975 153.26 51.5845C153.26 40.8521 137.78 42.8443 128.42 42.8443V80.1706Z" fill="white"/>
<path fill-rule="evenodd" clip-rule="evenodd" d="M200.81 79.5435C204.803 79.5435 211.67 78.7975 211.67 82.9175V84.1637C211.67 89.0298 202.184 90.1573 197.563 88.9026C194.817 88.1566 193.316 86.2831 194.316 83.0362C195.071 80.5438 197.572 79.5435 200.81 79.5435ZM196.444 61.8171C196.444 57.0782 197.69 54.9503 202.938 54.9503C210.305 54.9503 209.177 63.9365 206.931 65.6828C204.057 67.9294 196.444 67.6835 196.444 61.6899V61.8171ZM192.078 60.3251C192.078 64.1908 193.324 68.1922 196.699 69.0653C194.952 71.3119 193.579 71.6849 193.579 74.9317C193.579 76.3051 194.325 76.8053 195.198 77.6785L195.698 78.0515C187.339 80.0521 187.712 90.9033 197.072 92.531C201.565 93.277 207.931 92.904 211.297 90.9118C213.916 89.2926 215.917 87.4191 215.917 83.4262C215.917 71.8205 199.691 77.8056 197.69 74.5672C196.69 73.0667 198.191 70.9473 199.564 70.32C201.064 69.574 199.318 70.32 202.684 70.32C207.804 70.32 212.916 67.2003 212.916 62.2071C212.916 58.833 212.916 58.5872 211.416 55.7133C212.789 55.5862 215.035 55.086 216.409 55.086V52.3308H208.05C205.676 52.3308 200.183 50.3301 195.444 53.8313C193.57 55.2047 192.07 57.4512 192.07 60.4437V60.3251H192.078Z" fill="white"/>
<path fill-rule="evenodd" clip-rule="evenodd" d="M232.643 55.3318C236.891 55.3318 239.51 58.3243 239.51 62.4444V63.3176H225.158C225.285 59.0703 228.277 55.2046 232.643 55.2046V55.3318ZM220.537 65.5641C220.537 75.2962 224.785 80.7896 234.89 80.7896C236.636 80.7896 238.01 80.5438 239.256 80.2895C240.875 79.9164 241.875 79.2891 243.249 78.9161V75.1691C240.129 75.4149 241.63 76.6696 232.643 76.6696C228.023 76.6696 225.158 72.3037 225.158 67.0561H243.503C245.75 67.0561 243.63 58.6973 242.13 56.3236C236.509 47.719 220.537 50.4657 220.537 65.5641Z" fill="white"/>
<path fill-rule="evenodd" clip-rule="evenodd" d="M171.359 54.077V55.5775H175.352V73.3039C175.352 82.9173 188.085 81.2896 188.085 79.1703V76.6779C185.712 76.6779 179.726 78.6786 179.726 72.312V55.4503H187.84V52.0763H179.726V45.5825H176.98C176.98 46.2099 175.734 50.4486 175.479 50.9488C174.606 52.6951 171.359 52.3221 171.359 53.9413V54.077Z" fill="white"/>
<path fill-rule="evenodd" clip-rule="evenodd" d="M268.961 54.0771V55.5776H272.954V73.0496C272.954 83.0361 285.687 81.4084 285.687 79.2891V76.7967C283.314 76.7967 277.329 78.9161 277.329 71.8035V55.5776H285.442V52.2035H277.329V45.7183C272.835 45.7183 275.209 46.2184 273.208 50.9573C272.208 53.2039 268.961 52.4579 268.961 54.2042V54.0771Z" fill="white"/>
<path fill-rule="evenodd" clip-rule="evenodd" d="M255.236 57.2053C255.236 55.0859 254.99 54.0856 254.99 52.212H251.243V80.1707H255.609V66.1914C255.609 60.5708 258.729 55.5861 263.722 55.5861C265.341 55.5861 265.468 55.8319 267.096 55.8319C267.096 54.0856 267.469 53.7125 267.469 51.839C263.976 51.7119 261.976 50.0927 257.11 55.2131C256.364 55.9591 256.109 56.5864 255.363 57.2137H255.236V57.2053Z" fill="white"/>
<path fill-rule="evenodd" clip-rule="evenodd" d="M161.618 80.1706H165.993V52.2119H161.618V80.1706Z" fill="white"/>
<path fill-rule="evenodd" clip-rule="evenodd" d="M161.373 44.4719C161.373 50.5841 169.113 46.7184 165.866 42.7255C164.492 41.0978 161.373 41.7252 161.373 44.4719Z" fill="white"/>
<defs>
<linearGradient id="paint0_linear_1838_690" x1="180" y1="0" x2="180" y2="120" gradientUnits="userSpaceOnUse">
<stop stop-color="#00FFFF"/>
<stop offset="1" stop-color="#1CA7FB"/>
</linearGradient>
<linearGradient id="paint1_linear_1838_690" x1="74.0623" y1="90.1673" x2="115.726" y2="66.0917" gradientUnits="userSpaceOnUse">
<stop stop-color="#7F0AE8"/>
<stop offset="1" stop-color="#11DBB7"/>
</linearGradient>
<linearGradient id="paint2_linear_1838_690" x1="60.4859" y1="51.7777" x2="110.162" y2="55.8966" gradientUnits="userSpaceOnUse">
<stop stop-color="#8109EA"/>
<stop offset="0.4392" stop-color="#750AE8"/>
<stop offset="1" stop-color="#3510DD"/>
</linearGradient>
</defs>
</svg>
