<svg width="360" height="120" viewBox="0 0 360 120" fill="none" xmlns="http://www.w3.org/2000/svg">
<rect opacity="0.4" x="0.5" y="0.5" width="359" height="119" rx="19.5" stroke="url(#paint0_linear_1838_691)"/>
<path d="M89.9844 44.9695L78.1822 33.0572C77.5173 32.3868 76.6094 32 75.6632 32H56.1505C52.7492 32 50 34.7718 50 38.2011V80.8869C50 84.3164 52.7492 87.0882 56.1505 87.0882H59.1809V81.2737C59.1809 77.419 62.2754 74.2862 66.1114 74.2862H66.4311V79.4172H66.1114C65.0885 79.4172 64.2829 80.2423 64.2829 81.2608V87.075H76.75V81.2608C76.75 80.2295 75.9189 79.4172 74.896 79.4172H74.5891V74.2862H74.896C78.7192 74.2862 81.8392 77.4061 81.8392 81.2737V87.0882H84.8697C88.271 87.0882 91.0202 84.3164 91.0202 80.8869V47.5092C91.0202 46.5552 90.6494 45.6399 89.9844 44.9695ZM73.0547 79.9974C73.0547 81.4155 71.9167 82.563 70.5101 82.563C69.1035 82.563 67.9655 81.4155 67.9655 79.9974V65.7903C67.9655 64.3721 69.1035 63.2248 70.5101 63.2248C71.9167 63.2248 73.0547 64.3721 73.0547 65.7903V79.9974ZM81.8392 65.0425C81.8392 68.8973 78.7192 72.0429 74.896 72.0429H74.5891V66.9119H74.896C75.9189 66.9119 76.75 66.0739 76.75 65.0425V61.5101C76.75 60.0919 77.8881 58.9446 79.2947 58.9446C80.7012 58.9446 81.8392 60.0919 81.8392 61.5101V65.0425ZM81.8392 50.8741C81.8392 52.3051 80.7012 53.4396 79.2947 53.4396C77.8881 53.4396 76.75 52.3051 76.75 50.8741V47.3417C76.75 46.3102 75.9189 45.4981 74.896 45.4981H66.1114C65.0885 45.4981 64.2829 46.3231 64.2829 47.3417V65.0425C64.2829 66.0739 65.1013 66.9119 66.1114 66.9119H66.4311V72.0429H66.1114C62.2882 72.0429 59.1809 68.8973 59.1809 65.0425V47.3546C59.1809 43.4998 62.2754 40.367 66.1114 40.367H74.896C78.7192 40.367 81.8392 43.4869 81.8392 47.3546V50.887V50.8741Z" fill="url(#paint1_linear_1838_691)"/>
<path d="M124.811 77.7012C124.847 78.0327 124.657 78.3523 124.337 78.4706C123.178 78.8731 121.97 79.169 120.715 79.3584C119.271 79.5715 117.602 79.678 115.697 79.678C113.176 79.678 111.104 79.4058 109.494 78.8731C107.908 78.2931 106.665 77.358 105.766 76.0678C104.866 74.7421 104.239 72.9429 103.872 70.6702C103.517 68.3621 103.328 65.4857 103.328 62.0294C103.328 58.5731 103.505 55.6021 103.872 53.3412C104.262 51.0331 104.937 49.2339 105.872 47.9437C106.807 46.618 108.097 45.671 109.754 45.1384C111.447 44.5939 113.601 44.3335 116.229 44.3335C116.987 44.3335 117.851 44.3927 118.822 44.4992C119.828 44.5702 120.798 44.7004 121.734 44.878C122.42 44.9845 123.035 45.1147 123.556 45.2686C123.899 45.3751 124.124 45.7065 124.065 46.0616L123.58 49.1511C123.521 49.5535 123.13 49.8139 122.728 49.731C122.029 49.589 121.284 49.4588 120.491 49.3522C119.413 49.2102 118.383 49.1037 117.413 49.0327C116.443 48.9617 115.649 48.9261 115.034 48.9261C112.951 48.9261 111.436 49.1747 110.5 49.6837C109.565 50.1572 109.092 51.2698 109.092 53.0335V73.8307C109.092 74.1621 109.305 74.4462 109.624 74.529C110.406 74.7184 111.234 74.8723 112.11 74.9907C113.223 75.1327 114.359 75.2037 115.507 75.2037C117.023 75.2037 118.514 75.0735 119.981 74.8249C121.213 74.6237 122.384 74.3633 123.521 74.0674C123.935 73.9609 124.349 74.2331 124.408 74.6592L124.776 77.7012H124.811Z" fill="white"/>
<path d="M129.924 78.1506V44.0607C129.924 43.6938 130.208 43.386 130.576 43.3505L134.446 43.0309C134.86 42.9954 135.215 43.3269 135.215 43.7412V52.3701C135.215 52.9146 135.795 53.246 136.269 52.9856C137.121 52.5004 138.032 52.1334 138.991 51.8848C140.4 51.5297 142.033 51.3404 143.903 51.3404C146.425 51.3404 148.33 51.731 149.621 52.524C150.911 53.2815 151.562 54.4179 151.562 55.9212V78.1506C151.562 78.5412 151.242 78.8608 150.852 78.8608H146.875C146.484 78.8608 146.164 78.5412 146.164 78.1506V56.4775C146.164 56.0869 145.845 55.7673 145.454 55.7673H139.903C138.139 55.7673 136.932 55.9803 136.293 56.4183C135.642 56.8444 135.322 57.673 135.322 58.904V78.1624C135.322 78.553 135.003 78.8726 134.612 78.8726H130.635C130.244 78.8726 129.924 78.553 129.924 78.1624V78.1506Z" fill="white"/>
<path d="M178.834 54.4653C178.218 53.3527 177.177 52.5596 175.709 52.0862C174.265 51.5772 172.324 51.3286 169.886 51.3286C168.666 51.3286 167.388 51.3996 166.05 51.5417C164.725 51.6482 163.458 51.8257 162.274 52.0862C161.328 52.2874 160.475 52.5123 159.718 52.749C159.386 52.8555 159.185 53.1988 159.244 53.5421L159.705 56.1343C159.777 56.5368 160.179 56.7853 160.582 56.6907C161.907 56.3592 163.233 56.0988 164.535 55.9094C166.086 55.6964 167.553 55.5898 168.962 55.5898C170.974 55.5898 172.62 55.7437 173.886 56.0396C174.206 56.1107 174.407 56.4066 174.407 56.7262V62.7037H173.602C170.181 62.7037 167.435 62.8102 165.34 63.0233C163.257 63.2009 161.671 63.6033 160.594 64.207C159.552 64.787 158.854 65.6511 158.486 66.7992C158.131 67.9119 157.942 69.4033 157.942 71.2736C157.942 74.1854 158.57 76.2805 159.836 77.5352C161.126 78.7544 163.257 79.3699 166.204 79.3699C168.216 79.3699 170.004 79.1213 171.542 78.6123C172.856 78.1625 174.075 77.5115 175.2 76.6593C175.555 76.387 176.052 76.4817 176.266 76.8723L177.117 78.4466C177.236 78.6715 177.485 78.8135 177.745 78.8135H179.094C179.485 78.8135 179.804 78.494 179.804 78.1033V58.8923C179.804 57.0221 179.485 55.5425 178.834 54.4653ZM173.495 74.5996C172.915 75.0258 171.791 75.2507 170.098 75.2507H163.576C163.186 75.2507 162.866 74.9311 162.866 74.5405V69.3678C162.866 68.1486 163.174 67.3201 163.789 66.8821C164.405 66.456 165.553 66.2311 167.246 66.2311H173.709C174.099 66.2311 174.419 66.5507 174.419 66.9413V72.1139C174.419 73.3331 174.111 74.1617 173.495 74.5996Z" fill="white"/>
<path d="M188.67 52.17L192.648 51.5782C193.073 51.5189 193.464 51.8504 193.464 52.2765V78.1635C193.464 78.5541 193.144 78.8737 192.754 78.8737H188.777C188.386 78.8737 188.067 78.5541 188.067 78.1635V52.8683C188.067 52.5132 188.327 52.2173 188.67 52.17Z" fill="white"/>
<path d="M190.812 47.1857C189.487 47.1857 188.588 46.9726 188.114 46.5347C187.688 46.0612 187.463 45.209 187.463 43.9424C187.463 42.6759 187.699 41.7645 188.161 41.3029C188.635 40.8294 189.511 40.6045 190.801 40.6045C192.091 40.6045 192.908 40.8412 193.334 41.3029C193.808 41.7763 194.033 42.6523 194.033 43.9424C194.033 45.2327 193.819 46.0612 193.381 46.5347C192.955 46.9608 192.091 47.1857 190.789 47.1857H190.812Z" fill="white"/>
<path d="M202.01 78.151V52.5837C202.01 52.193 202.33 51.8735 202.721 51.8735H204.07C204.331 51.8735 204.567 52.0155 204.697 52.2404L205.561 53.8383C205.763 54.2171 206.26 54.3118 206.615 54.0632C207.799 53.211 209.077 52.56 210.438 52.1457C212.06 51.6012 213.906 51.3408 216.002 51.3408C218.523 51.3408 220.428 51.7314 221.718 52.5245C223.009 53.282 223.66 54.4183 223.66 55.9216V78.151C223.66 78.5416 223.34 78.8613 222.95 78.8613H218.972C218.582 78.8613 218.262 78.5416 218.262 78.151V56.478C218.262 56.0874 217.942 55.7677 217.552 55.7677H212.001C210.237 55.7677 209.029 55.9808 208.39 56.4187C207.751 56.8567 207.42 57.6735 207.42 58.9045V78.1629C207.42 78.5535 207.1 78.8731 206.71 78.8731H202.732C202.342 78.8731 202.022 78.5535 202.022 78.1629L202.01 78.151Z" fill="white"/>
<path d="M230.845 78.152V45.8377C230.845 45.447 231.164 45.1274 231.555 45.1274H238.171C238.562 45.1274 238.882 45.447 238.882 45.8377V71.5115C238.882 71.9021 239.201 72.2218 239.592 72.2218H249.559C249.949 72.2218 250.269 72.5414 250.269 72.9319V78.152C250.269 78.5426 249.949 78.8622 249.559 78.8622H231.555C231.164 78.8622 230.845 78.5426 230.845 78.152Z" fill="white"/>
<path d="M255.016 52.6544L261.632 51.7666C262.058 51.7074 262.437 52.0388 262.437 52.465V78.1389C262.437 78.5295 262.117 78.8491 261.727 78.8491H255.11C254.719 78.8491 254.4 78.5295 254.4 78.1389V53.3646C254.4 53.0095 254.66 52.7136 255.016 52.6662V52.6544Z" fill="white"/>
<path d="M258.448 48.3701C256.72 48.3701 255.536 48.0623 254.885 47.4468C254.269 46.8313 253.962 45.6713 253.962 43.9432C253.962 42.215 254.269 40.9958 254.885 40.3803C255.536 39.7292 256.744 39.4097 258.495 39.4097C260.247 39.4097 261.336 39.7292 261.951 40.3803C262.602 40.9958 262.922 42.1795 262.922 43.9432C262.922 45.7068 262.615 46.8431 261.999 47.4468C261.383 48.0623 260.2 48.3701 258.436 48.3701H258.448Z" fill="white"/>
<path d="M268.651 59.651C268.651 56.7036 269.551 54.5375 271.35 53.1763C273.149 51.7677 275.954 51.0693 279.766 51.0693C281.601 51.0693 283.364 51.1759 285.057 51.3889C286.548 51.5428 287.981 51.7795 289.365 52.0991C289.732 52.182 289.969 52.5489 289.91 52.9158L289.176 57.1653C289.105 57.5677 288.715 57.8281 288.312 57.7334C287.614 57.5677 286.844 57.4375 286.027 57.331C284.914 57.1889 283.755 57.1179 282.571 57.1179C281.601 57.1179 280.63 57.1771 279.659 57.2836C278.961 57.3428 278.333 57.4257 277.777 57.5322C277.446 57.6032 277.233 57.8991 277.233 58.2305V61.2489C277.233 61.604 277.505 61.9118 277.872 61.9473C280.393 62.255 282.5 62.622 284.204 63.0599C286.039 63.486 287.483 64.0542 288.525 64.7289C289.566 65.4155 290.3 66.2559 290.739 67.262C291.164 68.2326 291.389 69.4399 291.389 70.8722C291.389 72.92 290.975 74.6126 290.147 75.9502C289.318 77.2404 287.992 78.1991 286.158 78.8147C284.323 79.3947 281.932 79.6787 278.984 79.6787C277.15 79.6787 275.291 79.5367 273.421 79.2526C271.812 79.004 270.261 78.6489 268.793 78.1991C268.45 78.0926 268.237 77.7375 268.308 77.3824L269.172 72.8016C269.255 72.3636 269.705 72.1269 270.119 72.2808C272.569 73.1922 275.221 73.642 278.073 73.642C278.831 73.642 279.564 73.6065 280.287 73.5355C280.89 73.4526 281.565 73.3343 282.311 73.1685C282.642 73.0975 282.879 72.8016 282.879 72.4701V69.3571C282.879 69.002 282.606 68.6942 282.251 68.6469C279.553 68.3155 277.339 67.9604 275.599 67.5934C273.765 67.1673 272.344 66.6228 271.338 65.9718C270.332 65.2852 269.634 64.4448 269.231 63.4387C268.876 62.4326 268.686 61.1661 268.686 59.6628L268.651 59.651Z" fill="white"/>
<path d="M310.802 56.4548V52.5842C310.802 52.1936 310.483 51.8739 310.092 51.8739H307.192C306.801 51.8739 306.481 51.5544 306.481 51.1638V45.7189C306.481 45.2572 306.043 44.914 305.593 45.0323L299.024 46.6776C298.705 46.7605 298.492 47.0446 298.492 47.3642V51.1756C298.492 51.5662 298.172 51.8858 297.782 51.8858H295.911C295.52 51.8858 295.201 52.2054 295.201 52.596V56.4666C295.201 56.8572 295.52 57.1768 295.911 57.1768H297.782C298.172 57.1768 298.492 57.4964 298.492 57.8871V74.6123C298.492 76.305 298.918 77.5479 299.782 78.3409C300.681 79.134 302.055 79.5246 303.889 79.5246C304.647 79.5246 305.487 79.4654 306.422 79.3589C307.239 79.2642 308.126 79.1222 309.074 78.9328C309.381 78.8736 309.618 78.6013 309.642 78.2818L309.973 74.0916C310.009 73.6891 309.701 73.3458 309.299 73.3222C308.896 73.2985 308.505 73.2748 308.162 73.2512H308.115C307.784 73.2038 307.44 73.1564 307.085 73.1091C306.73 73.0618 306.458 72.7658 306.458 72.3989V57.8752C306.458 57.4846 306.777 57.165 307.168 57.165H310.068C310.459 57.165 310.778 56.8454 310.778 56.4548H310.802Z" fill="white"/>
<defs>
<linearGradient id="paint0_linear_1838_691" x1="180" y1="0" x2="180" y2="120" gradientUnits="userSpaceOnUse">
<stop stop-color="#00FFFF"/>
<stop offset="1" stop-color="#1CA7FB"/>
</linearGradient>
<linearGradient id="paint1_linear_1838_691" x1="70.5101" y1="32" x2="70.5101" y2="87.0882" gradientUnits="userSpaceOnUse">
<stop stop-color="#2F80ED"/>
<stop offset="1" stop-color="#2F80ED"/>
</linearGradient>
</defs>
</svg>
