<svg width="74" height="62" viewBox="0 0 74 62" fill="none" xmlns="http://www.w3.org/2000/svg">
<path d="M73.3085 33.5659C72.2919 36.5166 70.147 37.7068 67.122 37.4341C66.2293 37.3597 65.8574 37.6696 65.597 38.5375C65.2623 39.6781 64.7416 40.7691 64.2085 41.8353C63.9233 42.3932 63.9481 42.7651 64.4316 43.1123C64.4564 43.1371 64.4812 43.1743 64.506 43.1991C67.9278 46.7077 67.9278 48.8773 64.4316 52.2867C63.4522 53.2413 62.3736 54.2332 61.1586 54.7787C59.2493 55.6341 57.4764 55.0142 56.0011 53.5141C54.5009 51.9891 54.4885 52.0139 52.5917 52.857C51.9966 53.1174 51.4015 53.4645 50.7692 53.5761C49.4922 53.7868 49.3062 54.5307 49.3186 55.6837C49.3806 59.5022 47.459 61.3991 43.6652 61.3991C42.8098 61.3991 41.9667 61.4115 41.1113 61.3991C38.1358 61.3743 36.0901 59.3659 35.991 56.4028C35.9166 54.134 35.9166 54.134 33.8337 53.3281C33.3626 53.1421 32.8419 53.0306 32.4576 52.733C31.2798 51.8404 30.4987 52.2247 29.5689 53.2289C27.5976 55.3614 25.3164 55.8449 23.2708 54.3571C21.6962 53.2165 20.3077 51.7536 19.1051 50.2163C18.0761 48.9145 18.0389 47.278 18.7579 45.753C19.9977 46.0878 21.2003 46.4101 22.4277 46.7449C21.6714 47.5507 22.093 48.2822 22.8244 48.9889C23.4939 49.6336 24.1262 50.303 24.8081 50.9353C25.4404 51.518 26.0727 51.58 26.7174 50.8857C27.3496 50.2039 28.0067 49.5468 28.6886 48.9269C29.7424 47.9474 30.9326 47.8731 32.2344 48.431C33.9949 49.1996 35.7678 49.9435 37.5655 50.6502C38.9912 51.2081 39.6607 52.0635 39.6979 53.6133C39.7227 54.5059 39.7227 55.3862 39.7103 56.2788C39.6979 57.1962 40.1938 57.6426 41.0493 57.6674C42.1279 57.7046 43.2189 57.7046 44.2975 57.6674C45.1654 57.6426 45.6489 57.1838 45.6241 56.2664C45.6117 55.3366 45.6117 54.4067 45.6365 53.4893C45.6737 52.1007 46.3804 51.2081 47.6697 50.6874C49.5294 49.9435 51.3767 49.1624 53.2116 48.3814C54.4762 47.8359 55.6291 47.9846 56.6458 48.9269C57.3277 49.5592 57.9847 50.2163 58.617 50.8857C59.1625 51.4684 59.7576 51.58 60.3403 51.0593C61.2578 50.2287 62.138 49.3608 62.9811 48.4558C63.477 47.9226 63.353 47.3152 62.8447 46.8068C62.1876 46.1498 61.5181 45.5051 60.8858 44.8356C59.832 43.7074 59.7204 42.5172 60.3651 41.1038C61.1214 39.4177 61.8405 37.7068 62.4976 35.9835C63.0803 34.4462 63.9357 33.7643 65.6094 33.7271C66.4649 33.7147 67.3079 33.7147 68.1634 33.7271C69.0808 33.7395 69.5271 33.256 69.5643 32.3881C69.6015 31.3095 69.6015 30.2185 69.5643 29.1399C69.5395 28.2721 69.0808 27.7885 68.1634 27.8009C67.2335 27.8133 66.3037 27.8133 65.3863 27.7885C63.9977 27.7513 63.0927 27.0447 62.5843 25.7553C61.8405 23.8956 61.0594 22.0483 60.2783 20.2134C59.7328 18.9489 59.8816 17.7959 60.8115 16.7792C61.4437 16.0974 62.1132 15.4527 62.7703 14.808C63.415 14.1757 63.4646 13.5434 62.8323 12.8863C62.076 12.1053 61.3074 11.349 60.5387 10.5927C59.894 9.96043 59.2493 10.01 58.617 10.6423C57.9971 11.2746 57.3773 11.9193 56.7202 12.5268C55.592 13.5806 54.3894 13.6798 52.9884 13.0599C51.3023 12.3036 49.5914 11.5969 47.8681 10.9399C46.3308 10.3572 45.6489 9.5017 45.6117 7.82799C45.5993 6.97254 45.5993 6.12949 45.6117 5.27404C45.6241 4.3566 45.1406 3.89787 44.2727 3.87308C43.1941 3.83589 42.1031 3.83589 41.0245 3.87308C40.1566 3.89787 39.6731 4.3442 39.6855 5.26164C39.6979 6.19148 39.6979 7.12132 39.6731 8.03876C39.6359 9.42732 38.9416 10.3324 37.6399 10.8407C35.7802 11.5845 33.9329 12.3656 32.098 13.1467C30.8334 13.6798 29.6804 13.5434 28.6638 12.6136C27.9819 11.9813 27.3372 11.3118 26.6802 10.6547C25.9983 9.96043 25.3412 9.99762 24.6717 10.6671C23.9898 11.349 23.2955 12.0185 22.6261 12.7251C22.0062 13.3698 21.6218 14.0641 22.4897 14.7832C21.2251 15.1179 20.0349 15.4279 18.7951 15.7502C17.9273 14.2377 18.138 12.2044 19.5142 10.6299C20.4564 9.56369 21.4731 8.53467 22.5393 7.59243C24.4361 5.91873 27.3001 5.91873 29.0358 7.82799C30.3251 9.25375 31.3046 9.37773 33.1023 8.59666C35.0859 7.74121 36.1893 7.00974 36.1025 4.54256C36.0157 1.92662 38.3094 0.166121 40.9625 0.128927C42.0411 0.116529 43.1321 0.116529 44.2107 0.128927C47.1738 0.153723 49.2195 2.17457 49.3062 5.15006C49.3806 7.39407 49.3806 7.39407 51.4883 8.21233C51.9966 8.41069 52.5421 8.55947 52.9636 8.86941C54.0794 9.66288 54.7861 9.29094 55.6539 8.3735C58.1831 5.72036 60.923 5.75755 63.5018 8.32391C64.1837 9.00579 64.8779 9.67527 65.5474 10.382C67.4567 12.4152 67.4443 15.2419 65.5226 17.2628C63.9109 18.9613 63.9233 18.9613 64.8656 21.1557C65.0763 21.6516 65.3491 22.1475 65.4359 22.6682C65.6466 23.8212 66.2293 24.218 67.4195 24.1188C70.3454 23.8708 72.2795 25.2222 73.2465 27.9869C73.3085 29.859 73.3085 31.7187 73.3085 33.5659Z" fill="white"/>
<path d="M20.1961 24.8255C20.1961 23.4245 20.2085 22.1848 20.1961 20.9574C20.1837 20.0771 20.4317 19.358 21.2499 18.9241C22.093 18.4778 22.7997 18.8001 23.4939 19.3209C27.8208 22.5567 32.16 25.7925 36.4869 29.0284C37.9622 30.1442 37.9746 31.4088 36.4993 32.5122C32.1476 35.7852 27.7712 39.0334 23.4195 42.2941C22.7501 42.79 22.0806 43.0503 21.2747 42.6412C20.4441 42.2197 20.1961 41.5006 20.1961 40.6204C20.2085 39.393 20.1961 38.1532 20.1961 36.7894C19.7374 36.7646 19.3283 36.7274 18.9191 36.7274C15.9808 36.7274 13.0425 36.7274 10.1043 36.715C9.68272 36.715 9.2488 36.715 8.83967 36.6283C7.83544 36.3927 7.32713 35.7232 7.41392 34.6942C7.5007 33.7272 8.07101 33.1197 9.05044 33.0577C10.0919 32.9833 11.1333 33.0205 12.1747 33.0205C15.1502 33.0205 18.1257 33.0205 21.1011 33.0205C23.4443 33.0205 23.9031 33.4668 23.9031 35.7728C23.9031 36.1943 23.9031 36.6035 23.9031 37.2977C26.8785 35.0785 29.6805 32.9833 32.6188 30.7889C29.7301 28.6316 26.9405 26.5364 23.9031 24.2676C23.9031 25.0735 23.9031 25.6686 23.9031 26.2513C23.8907 27.8754 23.2832 28.5201 21.6838 28.5325C15.1874 28.5449 8.7033 28.5449 2.20682 28.5325C0.830659 28.5325 0 27.8134 0 26.6976C0 25.5942 0.830657 24.8379 2.19442 24.8379C7.68667 24.8255 13.1665 24.8255 18.6588 24.8255C19.1175 24.8255 19.5762 24.8255 20.1961 24.8255Z" fill="white"/>
<path d="M34.0321 39.0082C34.9743 38.3016 35.9166 37.5949 36.8464 36.8882C40.3922 39.9381 45.5621 40.1241 49.0211 36.1691C51.7734 33.0201 51.6495 28.2345 48.8227 25.1598C45.7109 21.7628 41.322 21.5769 36.8588 24.6887C35.929 23.9945 34.9867 23.2878 34.0321 22.5811C36.3505 19.3577 41.9295 17.8823 46.3308 19.2833C51.1907 20.833 54.6249 25.3582 54.7365 30.3545C54.8481 35.7352 51.6742 40.4092 46.6903 42.1449C42.2023 43.7318 36.6604 42.3805 34.0321 39.0082Z" fill="white"/>
</svg>
