<svg width="52" height="52" viewBox="0 0 52 52" fill="none" xmlns="http://www.w3.org/2000/svg">
<path d="M0 25.1876C0.262708 24.1543 0.580937 23.1468 1.26344 22.2951C2.47812 20.7811 4.04896 19.9321 5.99218 19.9172C10.1549 19.886 14.3189 19.9036 18.483 19.909C19.7072 19.9104 20.6199 20.8028 20.6077 21.9579C20.5955 23.094 19.6936 23.9648 18.4952 23.9675C14.4489 23.9729 10.4041 23.9688 6.35916 23.9688C4.875 23.9688 4.06385 24.7746 4.06385 26.2506C4.0625 32.7167 4.0625 39.1815 4.0625 45.6477C4.0625 47.1278 4.87229 47.9376 6.35239 47.9376C12.8172 47.9389 19.2833 47.9389 25.7481 47.9376C27.2214 47.9376 28.0299 47.1237 28.0312 45.6395C28.0326 41.5946 28.0312 37.5497 28.0326 33.5049C28.0326 32.6274 28.4172 31.9679 29.2121 31.5914C29.9717 31.2326 30.7003 31.3463 31.3516 31.8663C31.8419 32.2577 32.0897 32.7885 32.091 33.4155C32.0937 37.6635 32.1222 41.9115 32.0788 46.1595C32.0504 48.9329 29.9392 51.323 27.1388 51.8944C27.0278 51.9174 26.9208 51.9635 26.8125 52C19.6354 52 12.4583 52 5.28125 52C5.17291 51.9648 5.06729 51.9188 4.95625 51.8944C3.16469 51.5085 1.74823 50.5633 0.85177 48.9627C0.465833 48.272 0.277604 47.4704 0 46.7188C0 39.5417 0 32.3646 0 25.1876Z" fill="white"/>
<path d="M14.2187 0C14.2946 0.0352083 14.3691 0.0731249 14.4462 0.102917C15.4307 0.476666 15.9968 1.41375 15.8153 2.37656C15.6271 3.37458 14.8146 4.05437 13.7624 4.05979C11.9695 4.06927 10.1766 4.06114 8.38499 4.0625C5.77958 4.0652 4.0652 5.77958 4.0625 8.38364C4.06114 10.1251 4.06385 11.8679 4.06114 13.6094C4.05979 14.7902 3.42468 15.6176 2.37791 15.8153C1.38125 16.0035 0.513229 15.451 0.0744791 14.3501C0.056875 14.3041 0.0257291 14.2621 0 14.2187C0 11.8828 0 9.54687 0 7.21093C0.0311458 7.11749 0.0731249 7.02676 0.0920833 6.93062C0.729895 3.48291 2.73948 1.2675 6.08968 0.264062C6.45666 0.154375 6.83583 0.0866666 7.21093 0C9.54687 0 11.8828 0 14.2187 0Z" fill="white"/>
<path d="M52 14.2187C51.9553 14.3271 51.9092 14.4354 51.8646 14.5437C51.484 15.4578 50.5456 15.99 49.6221 15.8153C48.6416 15.6298 47.9497 14.8254 47.9429 13.8111C47.9293 12.002 47.9402 10.1915 47.9388 8.38229C47.9348 5.77823 46.2204 4.06521 43.6163 4.0625C41.8911 4.06114 40.1659 4.0625 38.4407 4.06114C37.2138 4.05979 36.3824 3.43687 36.1847 2.37521C35.9964 1.35958 36.5652 0.4875 37.6986 0.0555208C37.7298 0.0433333 37.7541 0.0189583 37.7826 0C40.1185 0 42.4545 0 44.7904 0C44.8838 0.0311458 44.9746 0.0771874 45.0707 0.0907291C48.3139 0.57552 50.9369 2.94666 51.7549 6.13843C51.8456 6.49322 51.9201 6.85343 52.0027 7.21093C52 9.54687 52 11.8828 52 14.2187Z" fill="white"/>
<path d="M37.7812 52.0001C37.6729 51.9554 37.5659 51.9094 37.4576 51.866C36.5449 51.4923 36.0113 50.5525 36.1833 49.6235C36.3648 48.6445 37.1705 47.9484 38.1848 47.9417C39.9939 47.9281 41.8044 47.9389 43.6136 47.9376C46.2163 47.9349 47.9334 46.2192 47.9361 43.6164C47.9388 41.9075 47.9361 40.1999 47.9361 38.4909C47.9361 37.2153 48.5428 36.3852 49.6207 36.1834C50.6309 35.9939 51.4881 36.5504 51.9471 37.6933C51.9593 37.7245 51.981 37.7516 51.9986 37.7813C51.9986 40.1173 51.9986 42.4532 51.9986 44.7892C51.9675 44.8826 51.9214 44.972 51.9065 45.0681C51.4217 48.3086 49.0479 50.9357 45.8588 51.7523C45.504 51.843 45.1438 51.9175 44.7877 52.0001C42.4531 52.0001 40.1172 52.0001 37.7812 52.0001Z" fill="white"/>
<path d="M30.4687 0C30.6068 0.0595833 30.7463 0.117812 30.8845 0.180104C31.7403 0.564687 32.2346 1.48552 32.0666 2.37791C31.8892 3.32041 31.1147 4.04489 30.1627 4.05166C27.388 4.07333 24.612 4.07333 21.8373 4.05166C20.8866 4.04489 20.1094 3.31771 19.9333 2.37791C19.7668 1.48417 20.2624 0.563333 21.1155 0.180104C21.2536 0.117812 21.3918 0.0609375 21.5312 0C24.5104 0 27.4896 0 30.4687 0Z" fill="white"/>
<path d="M52 30.4687C51.9471 30.592 51.8943 30.7152 51.8415 30.8384C51.4569 31.7254 50.5293 32.2373 49.6207 32.0653C48.6579 31.8825 47.9497 31.0916 47.9456 30.1099C47.9307 27.369 47.9307 24.6282 47.9456 21.8874C47.951 20.9056 48.6606 20.1134 49.622 19.9333C50.5334 19.7627 51.4569 20.2732 51.8429 21.1602C51.8957 21.2834 51.9485 21.4066 52.0013 21.5312C52 24.5104 52 27.4896 52 30.4687Z" fill="white"/>
<path d="M36.6884 12.1874C36.4623 12.1874 36.1142 12.1942 35.7662 12.186C34.6057 12.1603 33.7241 11.2869 33.7201 10.1643C33.716 9.04031 34.5962 8.13844 35.75 8.13031C37.7812 8.11542 39.8125 8.11542 41.8424 8.13031C42.9975 8.13844 43.8614 9.0051 43.8695 10.1643C43.8844 12.1955 43.8858 14.2268 43.8695 16.2567C43.8601 17.4104 42.9514 18.2879 41.8275 18.2798C40.7076 18.2717 39.8368 17.386 39.8138 16.2242C39.8071 15.887 39.8125 15.5498 39.8125 15.3142C32.8819 22.2461 25.9106 29.216 18.9692 36.1561C19.198 36.1561 19.546 36.1494 19.8927 36.1575C21.0519 36.1819 21.9321 37.058 21.9348 38.1833C21.9361 39.3059 21.0559 40.2051 19.8995 40.2132C17.8682 40.2281 15.837 40.2281 13.8071 40.2132C12.6533 40.2037 11.7921 39.3316 11.7853 38.1738C11.7718 36.1426 11.7704 34.1113 11.7867 32.0814C11.7961 30.9318 12.7088 30.0543 13.8328 30.0637C14.9351 30.0732 15.8072 30.9426 15.841 32.072C15.8519 32.4254 15.8424 32.7788 15.8424 33.0334C22.7757 26.0987 29.747 19.1275 36.6884 12.1874Z" fill="white"/>
</svg>
