<svg width="51" height="60" viewBox="0 0 51 60" fill="none" xmlns="http://www.w3.org/2000/svg">
<path d="M24.8516 59.3384C16.0204 57.1412 5.99316 47.7984 2.34994 37.6012C1.17283 34.3082 0.264565 30.944 0.161387 27.4504C0.00443878 22.1375 0.0364096 16.8216 7.91165e-05 11.5057C-0.00573377 10.7253 0.308162 10.3635 1.14231 10.1266C5.04421 9.01923 8.88071 7.72005 12.6257 6.15639C16.6395 4.47937 20.5239 2.53932 24.2674 0.326067C25.0056 -0.1099 25.6218 -0.106993 26.363 0.324613C33.5855 4.53605 41.2163 7.79271 49.2701 10.0525C50.421 10.3751 50.639 10.6759 50.6361 11.8559C50.6288 16.3798 50.7088 20.9051 50.591 25.4261C50.3484 34.7412 47.0786 42.8633 40.7164 49.7094C37.5673 53.0983 33.956 55.887 29.7809 57.8881C28.5079 58.4985 27.1157 58.8632 25.7788 59.3399C25.4692 59.3384 25.1597 59.3384 24.8516 59.3384ZM2.47346 19.8588C2.47346 21.2118 2.46765 22.5647 2.47491 23.9191C2.49962 28.2221 3.11724 32.4233 4.60824 36.4764C6.3928 41.3258 9.15246 45.5474 12.8422 49.1499C15.907 52.1436 19.3454 54.6053 23.317 56.2838C24.5464 56.804 25.7526 56.9915 27.0053 56.4044C27.5473 56.1501 28.1112 55.9437 28.6474 55.6807C32.545 53.7712 35.9368 51.1801 38.8868 48.0091C44.6299 41.8344 47.7108 34.5102 48.0537 26.1018C48.2339 21.6811 48.1264 17.2503 48.1642 12.8238C48.1671 12.443 48.0406 12.2933 47.6788 12.1945C46.7487 11.9417 45.8288 11.6481 44.9104 11.3502C38.2605 9.19071 31.8983 6.38018 25.8311 2.90699C25.4387 2.68319 25.1597 2.689 24.7818 2.91861C23.9579 3.41997 23.1063 3.87774 22.2547 4.3326C16.1425 7.6067 9.76863 10.2385 3.09835 12.1422C2.60134 12.2846 2.45021 12.4968 2.45893 13.017C2.49235 15.2971 2.47346 17.5787 2.47346 19.8588Z" fill="white"/>
<path d="M21.3537 31.6444C21.5397 31.4162 21.6603 31.2375 21.81 31.0878C25.7453 27.1481 29.6807 23.2084 33.6203 19.276C35.1419 17.7574 37.0063 17.4595 38.7415 18.4331C40.8457 19.6146 41.4125 22.5196 39.9055 24.403C39.7602 24.5832 39.6163 24.7677 39.4536 24.9305C34.4109 29.9775 29.3697 35.0246 24.3212 40.0658C23.0758 41.3083 21.5935 41.7254 19.9194 41.1194C19.3904 40.9275 18.8629 40.6049 18.4618 40.2126C15.9768 37.777 13.4903 35.3399 11.078 32.8331C9.06091 30.7361 9.62476 27.5448 12.1882 26.3081C13.6255 25.615 15.0613 25.7545 16.3386 26.7296C16.965 27.2077 17.5027 27.8021 18.0665 28.3586C19.1361 29.4166 20.1969 30.4861 21.3537 31.6444ZM38.2765 22.1926C38.2576 21.2495 37.8332 20.674 37.2054 20.4604C36.4323 20.1973 35.8728 20.5476 35.3497 21.0722C31.0757 25.3534 26.796 29.6287 22.5177 33.9041C21.5877 34.8342 21.018 34.8313 20.0763 33.891C18.4487 32.2663 16.8197 30.6431 15.1979 29.0126C14.7968 28.61 14.3477 28.3383 13.7592 28.411C13.1285 28.488 12.678 28.8309 12.4643 29.4282C12.2246 30.0996 12.428 30.6751 12.9221 31.1692C15.2749 33.5176 17.6218 35.8718 19.9746 38.2202C20.8901 39.1328 21.7126 39.1343 22.6253 38.2246C24.1453 36.7103 25.6596 35.1917 27.1768 33.6745C30.6485 30.2028 34.1261 26.7383 37.5804 23.252C37.9262 22.9018 38.1326 22.415 38.2765 22.1926Z" fill="white"/>
<path d="M4.92068 17.4535C4.92068 16.7386 4.90905 16.025 4.92358 15.31C4.93957 14.5108 5.21132 14.1213 5.92921 13.8641C8.10759 13.0895 10.2874 12.3179 12.4687 11.5535C13.175 11.3064 13.7185 11.4517 14.0716 11.9502C14.4 12.4138 14.4044 13.043 14.0091 13.4426C13.7882 13.6664 13.4845 13.8394 13.1866 13.9498C11.4703 14.5849 9.74973 15.2112 8.01749 15.8027C7.59024 15.948 7.40133 16.1093 7.42458 16.599C7.47253 17.5814 7.44492 18.5682 7.43475 19.552C7.43184 19.8005 7.40859 20.0563 7.34174 20.2931C7.19642 20.8119 6.70233 21.1636 6.17335 21.1592C5.62113 21.1563 5.05873 20.7814 5.01659 20.2234C4.94684 19.3049 4.9977 18.3763 4.9977 17.4535C4.97299 17.4535 4.94684 17.4535 4.92068 17.4535Z" fill="white"/>
<path d="M39.5466 40.0555C40.558 40.0729 41.0899 41.1236 40.4999 42.0304C39.952 42.8704 39.3577 43.6813 38.7342 44.4675C37.0485 46.5979 35.0837 48.4508 32.9577 50.1321C32.311 50.6437 31.6091 50.6219 31.1412 50.0929C30.6645 49.5523 30.7284 48.7894 31.3402 48.2444C32.0451 47.6151 32.7949 47.0339 33.4968 46.4003C35.3264 44.7509 36.9221 42.8951 38.2983 40.8519C38.727 40.2124 39.0118 40.0468 39.5466 40.0555Z" fill="white"/>
<path d="M29.0209 50.0669C29.6749 50.0611 30.2532 50.6192 30.2649 51.2673C30.2765 51.9401 29.669 52.5723 28.9875 52.5955C28.3045 52.6188 27.7348 52.0564 27.7333 51.3559C27.7304 50.6555 28.3132 50.0742 29.0209 50.0669Z" fill="white"/>
<path d="M16.59 12.4354C15.955 12.4412 15.3824 11.8643 15.3679 11.206C15.3548 10.5521 15.9506 9.94897 16.6191 9.94025C17.2832 9.93298 17.882 10.5332 17.8732 11.1973C17.866 11.8541 17.2672 12.4296 16.59 12.4354Z" fill="white"/>
</svg>
