<svg width="61" height="43" viewBox="0 0 61 43" fill="none" xmlns="http://www.w3.org/2000/svg">
<path d="M0.00234458 14.2012C0.0738542 13.9808 0.143019 13.7592 0.216873 13.54C0.856943 11.6339 2.74198 10.4979 4.73136 10.8168C6.65274 11.1251 8.10755 12.8331 8.08293 14.8154C8.07707 15.2597 8.20485 15.5223 8.55654 15.7791C10.2681 17.0287 12.0617 18.1143 14.1741 18.7649C14.2163 18.4437 14.2984 18.1436 14.2879 17.8482C14.2257 15.9174 14.1554 13.9878 14.0511 12.0582C14.0405 11.8671 13.8283 11.6198 13.6443 11.5143C11.9386 10.5354 11.1367 8.69844 11.6514 6.88257C12.1789 5.02097 13.8412 3.81 15.7685 3.88151C18.2525 3.97412 20.0766 6.41014 19.4565 8.86374C19.3357 9.34086 19.392 9.66675 19.7249 10.0102C20.9605 11.2845 22.1762 12.5787 23.4106 13.8553C23.6369 14.0898 23.9147 14.2727 24.1972 14.5024C25.271 12.7862 25.9896 10.9785 26.6051 9.12398C26.6731 8.92001 26.7223 8.70899 26.8032 8.51205C27.0963 7.79461 27.0752 7.20612 26.5805 6.48751C25.4398 4.83341 25.897 2.54158 27.4632 1.27434C29.0599 -0.0175243 31.3306 0.0762588 32.8147 1.49473C34.2672 2.88272 34.4911 5.15813 33.2743 6.77706C32.9636 7.19088 32.8827 7.53436 33.0668 7.9939C33.8123 9.85549 34.5415 11.7241 35.2929 13.5834C35.4148 13.887 35.6177 14.1578 35.8216 14.5095C36.0913 14.2914 36.3503 14.1215 36.559 13.9034C37.8685 12.5377 39.1744 11.1673 40.4557 9.77695C40.5905 9.63041 40.6491 9.3139 40.5975 9.11226C39.9739 6.66687 41.3466 4.41138 43.7744 3.93543C46.0123 3.49583 48.2221 5.16165 48.4859 7.57187C48.6652 9.21425 47.9748 10.519 46.5657 11.3701C46.1249 11.6362 45.9244 11.9035 45.9127 12.4064C45.8693 14.2785 45.7943 16.1507 45.7427 18.0228C45.7369 18.2514 45.8025 18.4824 45.8517 18.8282C46.7392 18.4413 47.6067 18.1471 48.3909 17.704C49.4929 17.0815 50.5421 16.364 51.5877 15.6501C51.7671 15.5282 51.9113 15.2187 51.9136 14.9936C51.9359 12.8284 53.3509 11.0852 55.3461 10.8097C57.4961 10.5131 59.312 11.7534 59.9157 13.9315C59.9415 14.0242 59.9849 14.1109 60.02 14.2012C60.02 14.6314 60.02 15.0616 60.02 15.4907C59.9544 15.67 59.8876 15.8494 59.8242 16.0299C59.2967 17.5375 58.2569 18.4507 56.6942 18.8012C56.4211 18.8622 56.1186 19.0439 55.9463 19.2619C53.7705 22.0074 51.8714 24.9358 50.1951 28.0107C50.0919 28.1995 49.9981 28.3929 49.8879 28.5769C49.582 29.0892 49.106 29.2616 48.6582 29.0306C48.1916 28.7903 48.0627 28.278 48.3581 27.72C49.9055 24.7998 51.6651 22.0133 53.6381 19.3616C53.835 19.0966 54.0331 18.8329 54.2242 18.5773C53.6568 18.099 53.1152 17.6418 52.6838 17.2784C50.9911 18.1975 49.3745 19.2361 47.6336 19.9864C44.3055 21.4213 40.9973 21.3732 37.8403 19.3721C35.9307 18.1623 34.7314 16.3523 33.7701 14.404C32.9108 12.6631 32.2719 10.8121 31.5404 9.00793C31.4537 8.7934 31.3986 8.56715 31.34 8.38427C30.4572 8.38427 29.612 8.38427 28.6859 8.38427C28.5159 8.91063 28.3307 9.52022 28.1209 10.1216C27.2182 12.7159 26.1245 15.2152 24.3062 17.3183C22.0437 19.936 19.2443 21.3064 15.7157 20.882C13.4215 20.6054 11.3642 19.691 9.42286 18.4871C8.7441 18.0674 8.09466 17.6008 7.4581 17.1729C6.91885 17.6289 6.3878 18.0791 5.79814 18.5785C6.07011 18.9454 6.38429 19.3592 6.68791 19.7813C7.09821 20.3522 7.51437 20.9196 7.90357 21.5045C8.22947 21.9945 8.13568 22.5092 7.70663 22.7905C7.29984 23.0566 6.80748 22.9593 6.4769 22.5127C5.77938 21.5713 5.08656 20.6265 4.41484 19.6664C4.05612 19.1529 3.64582 18.8458 2.99168 18.691C1.53453 18.3464 0.611935 17.3452 0.152398 15.9221C0.105506 15.7767 0.0515807 15.6349 0 15.4907C0.00234458 15.0605 0.00234458 14.6302 0.00234458 14.2012ZM15.9713 12.0699C15.9713 14.4028 15.9713 16.7532 15.9713 19.0978C18.4237 19.6336 22.0531 18.0076 23.0484 16.0229C21.4013 14.3512 19.78 12.7065 18.2162 11.1204C17.4612 11.4393 16.6981 11.7628 15.9713 12.0699ZM44.0534 19.0838C44.0534 16.6935 44.0534 14.3454 44.0534 12.0746C43.3032 11.7546 42.5271 11.4228 41.8132 11.118C40.2119 12.7417 38.5894 14.3864 36.9588 16.0393C38.4605 18.2444 41.6245 19.6277 44.0534 19.0838ZM6.33739 14.833C6.34794 13.5728 5.36088 12.5553 4.10301 12.5342C2.81584 12.5119 1.77367 13.5166 1.76195 14.7885C1.75023 16.0546 2.79825 17.1167 4.05378 17.112C5.27413 17.1073 6.32684 16.0569 6.33739 14.833ZM55.978 12.533C54.7166 12.5295 53.7002 13.5248 53.6873 14.7756C53.6744 16.0299 54.7307 17.1108 55.9721 17.1143C57.2018 17.1178 58.2475 16.0827 58.2628 14.8471C58.2803 13.5716 57.2569 12.5353 55.978 12.533ZM44.4907 10.213C45.7415 10.206 46.7778 9.17205 46.772 7.93763C46.7661 6.66569 45.7111 5.62236 44.4485 5.63994C43.193 5.65635 42.1848 6.68914 42.2036 7.9388C42.2223 9.18612 43.2621 10.2201 44.4907 10.213ZM29.986 6.70086C31.2403 6.71141 32.3083 5.65401 32.3036 4.40552C32.2989 3.1629 31.279 2.13597 30.0364 2.12425C28.7668 2.11252 27.7211 3.14766 27.7211 4.4149C27.7223 5.65049 28.7527 6.69149 29.986 6.70086ZM17.82 7.9048C17.8317 6.66569 16.8036 5.64111 15.5469 5.6376C14.3172 5.63408 13.2809 6.66101 13.2551 7.90832C13.2293 9.13922 14.2539 10.1896 15.5023 10.2107C16.745 10.2341 17.8094 9.17439 17.82 7.9048Z" fill="white"/>
<path d="M13.1226 34.8311C12.0464 32.599 10.9972 30.3811 9.90817 28.1842C9.47559 27.312 8.94923 26.4856 8.4686 25.6368C8.1298 25.0378 8.20483 24.5349 8.66906 24.2582C9.13915 23.978 9.62799 24.1515 9.97733 24.7377C11.7991 27.7927 13.4133 30.952 14.6606 34.2883C14.7814 34.613 14.9396 34.7256 15.2901 34.7256C25.1151 34.7162 34.9401 34.7162 44.765 34.7256C45.0921 34.7256 45.2398 34.6224 45.3582 34.32C45.7638 33.286 46.194 32.2602 46.636 31.2404C46.9162 30.5944 47.3663 30.3811 47.8704 30.612C48.3663 30.8394 48.4976 31.3271 48.2315 31.9555C47.8223 32.9226 47.4132 33.8886 47.0064 34.8487C47.3745 35.0632 47.7121 35.2226 48.0076 35.4395C49.3053 36.3914 49.8305 38.0455 49.3381 39.5601C48.8493 41.063 47.4507 42.0946 45.8341 42.1051C43.588 42.1192 41.3419 42.1086 39.0958 42.1086C30.8136 42.1086 22.5325 42.1122 14.2503 42.1051C12.4614 42.104 10.9867 40.9199 10.5963 39.2178C10.2141 37.5496 11.0371 35.8662 12.6232 35.0726C12.7416 35.0116 12.8635 34.9553 13.1226 34.8311ZM30.0375 36.4758C27.6941 36.4758 25.3507 36.4758 23.0073 36.4758C20.0977 36.4758 17.1881 36.4699 14.2773 36.4793C13.0675 36.4828 12.227 37.3562 12.2797 38.5168C12.3301 39.6211 13.1777 40.349 14.4309 40.349C24.8209 40.3502 35.2097 40.3502 45.5997 40.3502C45.697 40.3502 45.7954 40.3526 45.8927 40.3479C46.9818 40.2904 47.7813 39.4218 47.745 38.3351C47.7086 37.2448 46.8693 36.4793 45.6806 36.4781C40.4662 36.4735 35.2519 36.4758 30.0375 36.4758Z" fill="white"/>
<path d="M27.0365 19.9476C27.0693 19.4811 27.0447 19.0028 27.1455 18.5514C27.4808 17.0603 28.8278 16.1436 30.3846 16.3006C31.8054 16.4437 32.9179 17.6804 32.9554 19.1739C32.9695 19.7202 32.9718 20.2677 32.9519 20.814C32.8968 22.393 31.599 23.6392 30.0188 23.6462C28.4444 23.6521 27.1326 22.4012 27.0717 20.8292C27.0599 20.5373 27.0705 20.243 27.0705 19.9511C27.0588 19.9488 27.0482 19.9476 27.0365 19.9476ZM31.1899 19.9558C31.1899 19.6639 31.2145 19.3685 31.1852 19.079C31.1208 18.4541 30.6143 18.0309 29.9836 18.0438C29.3822 18.0567 28.884 18.4788 28.8442 19.0813C28.8067 19.6639 28.8067 20.2524 28.8442 20.8351C28.8829 21.4306 29.3916 21.8655 29.9836 21.8807C30.5979 21.896 31.1219 21.4517 31.1841 20.8339C31.2145 20.5432 31.1899 20.2477 31.1899 19.9558Z" fill="white"/>
<path d="M29.993 30.4796C28.8969 30.428 27.9345 30.0717 27.1736 29.2558C26.7669 28.8197 26.7598 28.3214 27.1373 27.9592C27.5019 27.6099 27.9544 27.6251 28.3928 28.0014C29.5018 28.9545 30.5322 28.958 31.6178 28.0131C32.0726 27.6169 32.5556 27.6075 32.9155 27.9885C33.2731 28.3672 33.2437 28.8466 32.8217 29.2874C32.0527 30.0928 31.0867 30.4421 29.993 30.4796Z" fill="white"/>
<path d="M21.6862 27.8748C21.6862 28.1667 21.7061 28.4598 21.6815 28.7505C21.6393 29.2511 21.2677 29.5887 20.7941 29.5676C20.2912 29.5442 19.984 29.2534 19.95 28.7693C19.9078 28.1691 19.9078 27.5618 19.9512 26.9616C19.9864 26.4739 20.3076 26.1926 20.8035 26.168C21.2665 26.1457 21.6428 26.5021 21.6827 27.0003C21.7061 27.2887 21.6874 27.5829 21.6862 27.8748Z" fill="white"/>
<path d="M40.0888 27.9182C40.0876 28.1902 40.1075 28.4645 40.0841 28.7353C40.0407 29.2394 39.6785 29.5723 39.2072 29.57C38.7371 29.5676 38.3655 29.2288 38.3432 28.7259C38.3186 28.1632 38.3198 27.597 38.3421 27.0331C38.362 26.5255 38.7231 26.1774 39.1873 26.1645C39.6738 26.1504 40.0501 26.5079 40.0864 27.0425C40.1064 27.3332 40.09 27.6263 40.0888 27.9182Z" fill="white"/>
</svg>
