<svg width="55" height="56" viewBox="0 0 55 56" fill="none" xmlns="http://www.w3.org/2000/svg">
<path d="M0 9.69296C0 9.08424 0 8.47552 0 7.86679C0.034375 7.7694 0.0859375 7.67486 0.103125 7.5746C0.720443 4.02109 3.69961 1.45872 7.30182 1.3871C11.8995 1.29544 15.4874 5.42473 14.754 9.94648C14.5306 11.3243 13.9534 12.5303 13.0983 13.5945C13.1212 13.6561 13.1255 13.6948 13.147 13.722C14.638 15.7129 16.1362 17.6995 17.6172 19.6975C17.822 19.9725 17.9781 19.8536 18.2016 19.7648C19.2128 19.3681 20.2139 18.9241 21.2538 18.6219C22.7806 18.1779 24.359 18.195 25.9531 18.3512C26.009 18.1779 26.0634 18.0303 26.1035 17.8771C26.4716 16.4949 26.8182 15.1085 27.2135 13.7335C27.3424 13.2866 27.3124 13.0331 26.8927 12.7237C24.7643 11.1568 24.0439 8.30794 25.1095 5.90169C26.1665 3.51262 28.7418 2.10182 31.2326 2.54583C34.1115 3.06002 36.1553 5.49492 36.0708 8.3108C35.982 11.2484 33.815 13.5516 30.8372 13.891C30.694 13.9068 30.4763 14.0285 30.4448 14.1417C29.9822 15.8088 29.5453 17.4832 29.1128 19.1189C30.124 19.6947 31.0951 20.2475 32.0833 20.8104C34.9579 17.8556 37.8383 14.895 40.7086 11.9445C38.5387 8.46979 39.4539 4.30325 42.3257 2.04739C45.2346 -0.23998 49.3424 -0.0609437 52.0108 2.46562C54.6835 4.99361 55.116 9.047 53.0464 12.0677C51.0526 14.9781 46.9076 16.4319 43.0074 14.2047C40.1257 17.1667 37.2367 20.1372 34.3406 23.115C35.3604 24.4126 36.0966 25.7934 36.5779 27.3087C37.0563 28.8184 37.221 30.3724 37.1622 31.9637C38.2107 32.1628 39.1947 32.3361 40.1729 32.5394C40.5654 32.6211 40.7845 32.5838 40.9994 32.1599C42.3829 29.4371 45.2003 27.9217 48.3155 28.171C51.1457 28.3973 53.7253 30.4712 54.6319 33.2685C54.7852 33.7411 54.8783 34.2338 55 34.718C55 35.2909 55 35.8638 55 36.4367C54.9671 36.5355 54.9184 36.6329 54.9026 36.7346C54.3555 40.1091 51.6241 42.6457 48.1866 42.968C44.8837 43.2773 41.6883 41.2148 40.5854 38.018C40.3434 37.3161 40.2374 36.5685 40.0569 35.7922C38.9397 35.5816 37.7681 35.3611 36.5564 35.1333C35.8546 37.2245 34.7245 39.022 33.149 40.5445C33.898 41.5615 34.6328 42.5297 35.3332 43.5237C35.5566 43.8402 35.7514 43.8861 36.1267 43.7858C39.7418 42.819 43.2667 45.5017 43.3139 49.2357C43.354 52.3853 40.826 54.9892 37.6965 55.0221C34.5139 55.0551 31.9301 52.5299 31.8914 49.3646C31.8757 48.0641 32.291 46.9082 33.0444 45.8354C32.2108 44.7068 31.3872 43.591 30.598 42.5225C24.4836 45.3441 19.1168 44.4045 14.396 39.6608C13.4836 40.2667 12.5741 40.9012 11.6316 41.4827C11.2779 41.7004 11.2163 41.9167 11.3022 42.3019C11.9654 45.2911 10.1206 48.256 7.14141 49.0223C4.17943 49.7842 1.11146 48.0598 0.242057 45.1436C0.15612 44.8572 0.0802083 44.5678 0 44.2799C0 43.7786 0 43.2773 0 42.776C0.0372396 42.64 0.0830729 42.5053 0.110286 42.3664C0.690365 39.4861 3.36016 37.5224 6.28919 37.8046C7.46367 37.9177 8.48203 38.3889 9.41302 39.1022C10.5044 38.376 11.5729 37.6642 12.6557 36.9423C11.4354 34.3842 11.0201 31.7417 11.4984 28.9773C11.9768 26.2159 13.2602 23.8684 15.2424 21.8861C13.644 19.7591 12.0671 17.6622 10.4958 15.574C10.3025 15.6456 10.1693 15.6943 10.0361 15.743C6.08724 17.2254 1.71302 15.14 0.382422 11.1281C0.22487 10.6612 0.126042 10.1728 0 9.69296ZM24.2501 40.884C29.6327 40.8725 33.9596 36.5184 33.9453 31.1301C33.931 25.7891 29.5553 21.4592 24.2 21.4836C18.8475 21.5079 14.5048 25.8721 14.5234 31.2074C14.5406 36.5542 18.9062 40.8954 24.2501 40.884ZM42.7353 7.8496C42.7253 10.1814 44.5772 12.0562 46.9018 12.0663C49.2236 12.0763 51.1171 10.2072 51.1271 7.89687C51.1385 5.58658 49.2565 3.68593 46.9477 3.67734C44.6216 3.66588 42.7453 5.52643 42.7353 7.8496ZM7.40925 4.61119C5.08893 4.61692 3.21836 6.49752 3.22409 8.81783C3.22982 11.121 5.13763 13.0173 7.43932 13.0087C9.74818 13.0001 11.6216 11.1066 11.6159 8.78776C11.6102 6.46171 9.73958 4.60403 7.40925 4.61119ZM47.6051 31.3764C45.2676 31.3664 43.3956 33.2098 43.3841 35.5358C43.3712 37.8633 45.2318 39.7553 47.5435 39.7682C49.8552 39.7811 51.763 37.9005 51.7745 35.596C51.7888 33.2742 49.9225 31.3865 47.6051 31.3764ZM30.3445 10.6841C31.7224 10.6841 32.8396 9.58124 32.851 8.21054C32.8611 6.847 31.7439 5.71692 30.3746 5.70689C28.9724 5.69687 27.8323 6.82122 27.8423 8.20768C27.8509 9.57838 28.9681 10.6827 30.3445 10.6841ZM5.7306 40.9928C4.37135 40.9842 3.23411 42.11 3.22409 43.4721C3.21406 44.8385 4.32122 45.9758 5.68477 45.9958C7.06836 46.0173 8.22135 44.8772 8.21849 43.4908C8.21706 42.1215 7.1013 41.0014 5.7306 40.9928ZM40.0927 49.3102C40.0941 47.9251 39.0027 46.8266 37.6191 46.818C36.2398 46.8094 35.127 47.9065 35.1169 49.2815C35.1069 50.6866 36.2184 51.8081 37.6177 51.8038C38.9927 51.7995 40.0927 50.6909 40.0927 49.3102Z" fill="white"/>
</svg>
