<svg width="54" height="51" viewBox="0 0 54 51" fill="none" xmlns="http://www.w3.org/2000/svg">
<path d="M0 46.4987C0.206711 45.7415 0.336432 44.9537 0.632788 44.2334C2.07449 40.7319 4.7206 38.7176 8.43084 38.0637C8.59537 38.0342 8.75989 38.0015 9.06785 37.9424C5.06125 37.2084 3.22194 33.9537 3.50986 31.0429C3.83364 27.7724 6.54197 25.3141 9.78395 25.3014C13.028 25.2898 15.729 27.6923 16.1013 30.9923C16.4261 33.8715 14.6237 37.1883 10.6899 37.9519C13.0512 38.2672 15.1479 39.1531 16.9186 40.8501C18.0566 39.4326 19.3675 38.2651 20.9442 37.4056C22.5072 36.5545 24.1757 36.0683 25.9643 35.8468C23.3994 35.4028 21.345 34.1668 19.9328 31.9858C18.5048 29.7784 18.1779 27.3812 18.9657 24.8732C20.1564 21.0807 23.9152 18.5939 27.7646 19.0041C31.8915 19.4439 35.0628 22.6627 35.415 26.7294C35.7377 30.4576 33.2572 35.0094 28.0346 35.8574C31.7269 36.255 34.7316 37.9002 37.074 40.8458C38.8342 39.1721 40.935 38.263 43.3112 37.9529C39.3773 37.1894 37.5749 33.8725 37.8998 30.9933C38.2721 27.6923 40.973 25.2898 44.2171 25.3025C47.458 25.3151 50.1664 27.7735 50.4912 31.044C50.7791 33.9537 48.9409 37.2094 44.9638 37.9382C45.5512 38.0584 46.0332 38.1238 46.4972 38.2567C50.5872 39.4221 53.1362 42.0197 53.9072 46.2625C53.922 46.3448 53.9684 46.4218 54 46.5009C54 47.6262 54 48.7504 54 49.8757C53.672 50.4642 53.1626 50.6235 52.5077 50.6235C35.5036 50.6119 18.4995 50.6119 1.49549 50.6235C0.840553 50.6235 0.331159 50.4653 0.00210929 49.8757C0 48.7494 0 47.624 0 46.4987ZM16.444 48.4709C23.507 48.4709 30.5067 48.4709 37.5064 48.4709C37.6076 45.2521 35.8569 41.3468 32.1952 39.3472C28.4892 37.3233 24.7547 37.4298 21.2121 39.7258C18.0935 41.7465 16.5864 44.7406 16.444 48.4709ZM27.0158 21.0839C23.5313 21.0744 20.6742 23.9219 20.6721 27.4054C20.67 30.8699 23.4922 33.7133 26.9547 33.7354C30.4403 33.7576 33.3089 30.9227 33.3247 27.4402C33.3405 23.9557 30.5004 21.0934 27.0158 21.0839ZM14.3464 48.4857C14.3896 46.5198 14.8062 44.689 15.6204 42.9456C15.6826 42.8117 15.5719 42.5175 15.4474 42.3888C12.2835 39.1025 6.62951 39.3778 3.77247 42.934C2.46471 44.5624 1.95215 46.4049 2.1441 48.4857C6.20976 48.4857 10.2438 48.4857 14.3464 48.4857ZM39.8213 48.4657C43.7699 48.4657 47.8156 48.4657 51.9561 48.4657C51.8749 47.604 51.8991 46.7624 51.704 45.9756C50.9795 43.0469 49.0959 41.1538 46.2125 40.3691C43.2869 39.5718 40.7051 40.348 38.4988 42.4173C38.2721 42.6303 38.2784 42.8054 38.3965 43.0585C38.5895 43.4709 38.8099 43.8832 38.9154 44.3198C39.2392 45.6761 39.5144 47.045 39.8213 48.4657ZM9.80927 27.4139C7.52385 27.4128 5.6181 29.3059 5.59279 31.6008C5.56853 33.8957 7.50064 35.8415 9.8061 35.8426C12.0915 35.8437 13.9973 33.9506 14.0226 31.6557C14.0479 29.3607 12.1147 27.4149 9.80927 27.4139ZM44.1686 27.4139C41.8758 27.4328 39.9795 29.3365 39.9753 31.624C39.9711 33.9274 41.9138 35.8626 44.2118 35.8437C46.5046 35.8247 48.4009 33.921 48.4051 31.6335C48.4093 29.3302 46.4656 27.3949 44.1686 27.4139Z" fill="white"/>
<path d="M21.3608 14.9742C21.5865 13.6379 21.8111 12.2163 22.0759 10.802C22.1339 10.4909 22.0463 10.3168 21.8407 10.1186C20.8904 9.20524 19.9571 8.27504 19.0047 7.36383C18.6314 7.0063 18.4226 6.60554 18.6008 6.09509C18.7716 5.60468 19.1809 5.43277 19.666 5.36738C20.9527 5.19231 22.2372 4.9972 23.5249 4.82318C23.8508 4.77889 24.0417 4.64495 24.1873 4.33172C24.7431 3.13891 25.3431 1.9672 25.9127 0.780725C26.1267 0.335664 26.4221 0.0108332 26.9388 0.000286748C27.4841 -0.0113144 27.791 0.330391 28.0125 0.790217C28.583 1.97564 29.1778 3.15051 29.7347 4.34227C29.8813 4.6555 30.0859 4.77994 30.4076 4.82424C31.6953 4.99826 32.9798 5.19126 34.2665 5.36844C34.7506 5.43488 35.1535 5.60995 35.3233 6.10563C35.492 6.60026 35.3001 6.99154 34.9457 7.33535C34.0113 8.24024 33.0937 9.16094 32.1446 10.05C31.8651 10.3116 31.7923 10.5647 31.8598 10.9264C32.095 12.2036 32.2975 13.4871 32.5337 14.7643C32.6213 15.2399 32.5453 15.6491 32.1625 15.9486C31.7543 16.2682 31.3124 16.2081 30.8769 15.9782C29.7125 15.3633 28.5408 14.7643 27.3871 14.1315C27.0717 13.9585 26.8281 13.9765 26.5233 14.142C25.3516 14.778 24.1735 15.4044 22.9828 16.0067C22.1497 16.4275 21.3292 15.9318 21.3608 14.9742ZM26.9589 3.45109C26.5866 4.21465 26.2037 4.8833 25.9285 5.59413C25.6005 6.4389 25.032 6.81225 24.1398 6.86392C23.4068 6.90611 22.6823 7.07274 21.9968 7.17715C22.5399 7.75826 23.0124 8.3573 23.5798 8.84666C24.2316 9.40879 24.4235 10.0236 24.2147 10.8515C24.0291 11.5866 23.95 12.3491 23.8086 13.1886C24.645 12.751 25.4043 12.3882 26.1267 11.9631C26.7079 11.6214 27.2246 11.633 27.8026 11.9695C28.5208 12.3882 29.2749 12.7467 30.1175 13.1855C29.9593 12.2574 29.8454 11.4443 29.6767 10.6427C29.5354 9.97619 29.6893 9.46785 30.1987 8.99326C30.8083 8.4248 31.3451 7.7783 31.9136 7.16555C31.1047 7.04638 30.2451 6.89873 29.3803 6.79959C28.7739 6.72998 28.3974 6.43257 28.1496 5.88205C27.7878 5.0879 27.3818 4.31274 26.9589 3.45109Z" fill="white"/>
<path d="M4.71321 20.3203C4.83766 19.6042 4.96738 18.7352 5.14667 17.8767C5.23526 17.4527 5.15195 17.1574 4.81973 16.8642C4.25339 16.3654 3.73978 15.8085 3.18714 15.2928C2.79376 14.9258 2.57861 14.5092 2.76845 13.9787C2.94457 13.4862 3.36432 13.3322 3.84629 13.2711C4.6299 13.1709 5.40928 13.0412 6.19288 12.9431C6.5367 12.8998 6.74657 12.7596 6.89528 12.4252C7.23065 11.6722 7.62193 10.9456 7.98262 10.2042C8.19038 9.77386 8.50361 9.49121 8.99613 9.49121C9.49076 9.49016 9.80188 9.78124 10.0107 10.2073C10.3798 10.9646 10.769 11.7123 11.117 12.478C11.251 12.7722 11.4397 12.8967 11.7445 12.9357C12.5281 13.0369 13.3065 13.173 14.0911 13.2658C14.6163 13.328 15.0582 13.4947 15.2407 14.0336C15.4253 14.5809 15.1426 14.9722 14.764 15.3308C14.1776 15.8866 13.5881 16.4413 13.0344 17.0288C12.8962 17.1754 12.8087 17.4548 12.835 17.6552C12.9447 18.4895 13.1019 19.3184 13.2527 20.1463C13.3413 20.6325 13.2727 21.0638 12.853 21.3718C12.4522 21.6671 12.0346 21.6175 11.6138 21.394C10.8544 20.99 10.1003 20.5755 9.32518 20.2054C9.14378 20.1189 8.85059 20.1147 8.66919 20.2011C7.86239 20.5861 7.08617 21.0364 6.28147 21.4277C5.47045 21.8232 4.69528 21.337 4.71321 20.3203ZM11.9713 14.9785C10.326 15.2085 9.42432 14.4459 8.99086 12.9294C8.58166 14.4818 7.61349 15.162 6.03363 15.0186C6.53459 15.6082 7.13152 16.0353 7.31292 16.5974C7.49748 17.169 7.27179 17.8725 7.22855 18.4779C7.82758 18.2469 8.42557 17.8377 9.02355 17.8377C9.60572 17.8377 10.1879 18.2574 10.7584 18.4884C10.7142 17.8503 10.4937 17.1701 10.6762 16.6217C10.8639 16.0564 11.4419 15.6198 11.9713 14.9785Z" fill="white"/>
<path d="M40.5765 20.2865C40.6988 19.5831 40.8296 18.733 40.9994 17.8904C41.0827 17.477 41.0279 17.1722 40.6872 16.8737C40.0934 16.3538 39.5524 15.7726 38.9797 15.2284C38.6138 14.8815 38.4566 14.4754 38.6212 13.9924C38.7815 13.5199 39.1738 13.3438 39.6378 13.2805C40.4373 13.1708 41.2356 13.0474 42.0372 12.9451C42.3746 12.9019 42.5982 12.7817 42.748 12.4389C43.0623 11.7154 43.4409 11.0204 43.7826 10.3096C44.0009 9.85502 44.293 9.49644 44.8415 9.49223C45.3878 9.48801 45.6904 9.82866 45.9088 10.2916C46.2462 11.0056 46.6249 11.6996 46.9444 12.421C47.1005 12.7743 47.3315 12.9093 47.6943 12.9525C48.4789 13.0443 49.2583 13.1761 50.0409 13.2784C50.5292 13.3417 50.9236 13.5315 51.0934 14.023C51.2653 14.5187 51.0586 14.9078 50.7053 15.2485C50.1105 15.8212 49.5283 16.4075 48.925 16.9707C48.6994 17.1817 48.6065 17.3725 48.6772 17.7005C48.8533 18.5232 48.9715 19.3584 49.117 20.1884C49.1993 20.6557 49.117 21.0701 48.7215 21.3675C48.325 21.666 47.9063 21.6259 47.4844 21.4023C46.7251 20.9995 45.9541 20.6156 45.2053 20.1948C44.9395 20.0461 44.7402 20.064 44.4839 20.2043C43.6993 20.6346 42.9125 21.0638 42.1057 21.4477C41.3021 21.8295 40.5364 21.3064 40.5765 20.2865ZM46.6702 18.5769C46.1007 17.0804 46.511 15.9678 47.8251 15.0913C46.2294 15.1536 45.2496 14.4934 44.8626 12.9188C44.427 14.4364 43.4999 15.1958 41.8695 15.0998C43.2511 15.9741 43.559 17.1173 43.0095 18.6128C44.2424 17.5877 45.4099 17.5761 46.6702 18.5769Z" fill="white"/>
<path d="M34.7126 45.2743C34.6789 45.8365 34.4426 46.1697 33.9733 46.3237C33.4671 46.4882 33.0885 46.2931 32.789 45.8881C32.3028 45.23 31.8387 44.553 31.3209 43.9202C31.0815 43.628 30.7282 43.4319 30.4403 43.1777C29.9488 42.7453 29.8686 42.1378 30.2283 41.6822C30.5731 41.2467 31.1775 41.1612 31.6921 41.5093C32.9356 42.3509 33.8942 43.4488 34.566 44.7913C34.6483 44.9601 34.6768 45.1562 34.7126 45.2743Z" fill="white"/>
<path d="M28.0451 41.1263C28.0409 41.6789 27.5442 42.1704 26.9926 42.1662C26.44 42.162 25.9485 41.6652 25.9527 41.1136C25.9569 40.561 26.4537 40.0695 27.0053 40.0738C27.5568 40.078 28.0494 40.5747 28.0451 41.1263Z" fill="white"/>
</svg>
