<svg width="53" height="53" viewBox="0 0 53 53" fill="none" xmlns="http://www.w3.org/2000/svg">
<path d="M14.7474 16.9328C14.0947 15.6304 13.4605 14.3138 12.7796 13.0227C12.1595 11.8477 12.0321 10.6685 12.4794 9.40143C12.9098 8.18253 12.3265 7.03725 11.1091 6.59414C10.4791 6.3648 9.83779 6.16519 9.19932 5.95709C8.81284 5.83251 8.47591 5.59184 8.53112 5.18413C8.57076 4.88259 8.77604 4.49894 9.02661 4.34322C13.4152 1.6138 18.2087 0.174054 23.3745 0.0423965C26.0628 -0.0269716 28.754 0.00417329 31.4438 0.0282398C37.3939 0.0792041 41.5659 5.85091 39.7269 11.5009C39.1918 13.1431 38.559 14.7541 37.9729 16.3793C37.9078 16.5591 37.8455 16.7417 37.7733 16.947C37.9602 16.9909 38.1131 17.0291 38.2645 17.0631C39.5174 17.3448 40.3428 18.1036 40.6712 19.3352C41.001 20.5739 40.6514 21.6583 39.6845 22.4893C38.7062 23.3303 37.677 24.1117 36.6733 24.9229C36.5516 25.0206 36.4029 25.1253 36.3491 25.2598C35.7673 26.7293 35.201 28.2044 34.6192 29.7065C34.7395 29.7065 34.9094 29.7065 35.0793 29.7065C37.2028 29.7065 39.3263 29.7022 41.4498 29.7079C44.0646 29.7135 45.8738 31.5298 45.8823 34.1503C45.8851 35.086 45.895 36.0232 45.8752 36.959C45.8696 37.252 45.9757 37.3851 46.2334 37.5139C50.4634 39.6233 52.594 43.0591 52.6761 47.7662C52.6974 49.0205 52.6818 50.2748 52.679 51.5291C52.6761 52.3176 52.3831 52.6064 51.5818 52.6064C34.7537 52.6078 17.9241 52.6078 1.096 52.6064C0.297556 52.6064 -0.0011515 52.3176 0.00875823 51.522C0.0299934 49.7567 -0.0747666 47.9757 0.126259 46.2316C0.579275 42.2918 2.68863 39.4293 6.22216 37.6342C6.66385 37.4091 6.8224 37.1784 6.81533 36.6871C6.79834 35.5235 6.73888 34.3428 6.9031 33.1989C7.19756 31.1575 8.953 29.7291 11.027 29.7107C13.2029 29.6923 15.3802 29.7065 17.5561 29.7065C17.7429 29.7065 17.9298 29.7065 18.1379 29.7065C17.6948 28.69 17.1611 27.7557 16.8822 26.7505C16.5396 25.5175 15.8587 24.6383 14.8181 23.9503C14.2448 23.5723 13.7323 23.1009 13.1958 22.6677C12.1581 21.8282 11.6824 20.7622 11.9924 19.4386C12.2997 18.1262 13.1561 17.3391 14.477 17.0574C14.5293 17.0461 14.5803 17.0305 14.6284 17.0107C14.6624 16.9979 14.6893 16.9725 14.7474 16.9328ZM44.1835 50.885C44.1835 50.6627 44.1835 50.4716 44.1835 50.2819C44.1835 44.9476 44.1835 39.6148 44.1835 34.2805C44.1835 32.4033 43.1798 31.4024 41.3026 31.4024C31.3249 31.4024 21.3458 31.4024 11.3681 31.4024C9.5221 31.4024 8.50139 32.4118 8.50139 34.2409C8.49998 39.5921 8.50139 44.9434 8.50139 50.2946C8.50139 50.4829 8.50139 50.6726 8.50139 50.885C20.4044 50.885 32.2522 50.885 44.1835 50.885ZM37.3755 13.044C37.602 12.4154 37.8398 11.7897 38.055 11.1569C39.6533 6.47947 36.2911 1.74829 31.3447 1.71997C28.8857 1.70581 26.4253 1.70581 23.9648 1.72139C20.386 1.74262 16.9431 2.45612 13.646 3.84348C12.9282 4.14502 12.2331 4.49753 11.4602 4.85852C14.1075 6.19067 14.7063 7.56813 13.9815 10.3315C13.8838 10.7053 13.8626 11.1767 14.0055 11.5207C14.4501 12.5909 14.9909 13.6216 15.5062 14.6932C17.447 13.4021 19.3327 12.1549 21.2099 10.8964C22.6567 9.92664 24.2395 9.37453 25.985 9.36037C27.7928 9.3448 29.3784 8.77145 30.7657 7.62051C31.3504 7.13493 31.9436 6.65785 32.5452 6.19492C33.0237 5.82685 33.5291 5.86082 33.8377 6.34074C35.2067 8.4685 36.9593 10.3995 37.3755 13.044ZM35.6739 18.7251C35.0736 18.7251 34.5385 18.7251 33.9864 18.7251C33.9864 19.6155 34.0062 20.4649 33.9821 21.3115C33.9439 22.6493 32.8737 23.7181 31.5358 23.7649C30.9172 23.7861 30.2971 23.7833 29.6785 23.7663C28.3124 23.7266 27.2407 22.6521 27.1968 21.2917C27.1869 20.9986 27.1954 20.7042 27.1954 20.4196C26.5866 20.4196 26.0501 20.4196 25.4937 20.4196C25.4937 20.6716 25.4952 20.8826 25.4937 21.0935C25.481 22.6847 24.4178 23.7578 22.8351 23.7705C22.3934 23.7748 21.9503 23.7719 21.5086 23.7705C19.7376 23.7677 18.7013 22.7385 18.6971 20.9802C18.6957 20.2271 18.6971 19.474 18.6971 18.7251C18.0968 18.7251 17.5617 18.7251 17.0068 18.7251C17.1158 22.5842 18.1011 26.1503 20.0292 29.4474C20.1099 29.5861 20.3633 29.6951 20.5375 29.6965C24.4122 29.7107 28.2869 29.7107 32.1616 29.6937C32.3414 29.6923 32.6061 29.5451 32.6882 29.3908C33.1653 28.4876 33.648 27.5815 34.0402 26.6387C35.0864 24.1202 35.6073 21.4856 35.6739 18.7251ZM27.1756 18.6571C27.1826 18.5113 27.1897 18.4065 27.1911 18.3032C27.2067 17.1735 27.3978 16.9838 28.5247 16.9838C30.719 16.9838 32.9119 16.9838 35.1062 16.9838C35.2916 16.9838 35.4785 16.9838 35.6583 16.9838C35.9386 13.027 35.16 10.5269 32.9246 8.11174C32.8921 8.12307 32.8553 8.12732 32.8298 8.14714C32.524 8.3878 32.214 8.6228 31.9167 8.87196C30.1839 10.3259 28.192 11.0464 25.9227 11.0592C24.5622 11.0663 23.3263 11.5235 22.1981 12.2809C20.6861 13.2945 19.1699 14.2997 17.6552 15.309C16.9261 15.7946 16.8369 16.0494 17.0889 16.9838C17.2588 16.9838 17.4343 16.9838 17.6113 16.9838C19.8933 16.9838 22.1754 16.981 24.4589 16.9852C25.1894 16.9866 25.4853 17.2882 25.4966 18.0144C25.4994 18.2211 25.4966 18.4278 25.4966 18.6557C26.0713 18.6571 26.5951 18.6571 27.1756 18.6571ZM6.76153 50.885C6.76153 46.9933 6.76153 43.144 6.76153 39.2453C5.13209 40.0933 3.92452 41.2881 2.993 42.7944C1.43576 45.3143 1.69483 48.1003 1.72314 50.885C3.41487 50.885 5.07121 50.885 6.76153 50.885ZM45.9205 39.224C45.9205 43.1667 45.9205 47.0244 45.9205 50.8835C47.6151 50.8835 49.2714 50.8835 51.0807 50.8835C50.9702 49.063 51.041 47.241 50.714 45.4941C50.1888 42.691 48.4857 40.6411 45.9205 39.224ZM20.4001 18.7038C20.4001 19.5858 20.3803 20.4281 20.4072 21.269C20.4228 21.7334 20.7187 22.0321 21.1802 22.0576C21.796 22.093 22.4161 22.0944 23.0305 22.0547C23.4651 22.0264 23.761 21.7334 23.7765 21.2959C23.8077 20.4394 23.7864 19.5815 23.7864 18.7024C22.6482 18.7038 21.561 18.7038 20.4001 18.7038ZM28.8928 18.701C28.8928 19.5759 28.8786 20.4012 28.8984 21.2266C28.9112 21.7291 29.234 22.0477 29.7379 22.0661C30.3014 22.0873 30.8676 22.0845 31.4311 22.0675C31.8968 22.0547 32.2394 21.7971 32.2635 21.3412C32.3102 20.4692 32.2777 19.5943 32.2777 18.701C31.138 18.701 30.0494 18.701 28.8928 18.701ZM15.6208 22.4341C15.4906 21.1034 15.3731 19.9001 15.2556 18.6996C14.4939 18.6769 13.9815 18.9601 13.7224 19.5348C13.4761 20.0827 13.5752 20.7226 14.0339 21.1388C14.5152 21.5734 15.0376 21.9613 15.6208 22.4341ZM37.0641 22.403C37.2269 22.2883 37.3146 22.2331 37.3953 22.168C37.7818 21.8594 38.1739 21.5592 38.5477 21.2365C39.0701 20.7877 39.2187 20.1606 38.9667 19.566C38.7091 18.9587 38.1626 18.6571 37.435 18.7166C37.3104 19.8519 37.1872 20.9859 37.0641 22.1213C37.0584 22.1906 37.0641 22.26 37.0641 22.403Z" fill="white"/>
<path d="M26.346 48.3635C24.4674 48.3621 22.9427 46.8389 22.9441 44.9617C22.9455 43.0916 24.4815 41.5711 26.363 41.5796C28.2147 41.5867 29.7294 43.1015 29.7379 44.9532C29.7464 46.829 28.2189 48.365 26.346 48.3635ZM28.0377 44.9843C28.0448 44.0599 27.2945 43.2954 26.3658 43.2784C25.4399 43.2629 24.6627 44.0103 24.6443 44.9319C24.6259 45.8819 25.3932 46.6647 26.3417 46.6647C27.269 46.6647 28.032 45.9088 28.0377 44.9843Z" fill="white"/>
<path d="M21.8158 39.2056C21.3784 39.6728 21.0202 40.055 20.6521 40.4486C19.4913 39.3005 18.3403 38.1821 17.2163 37.0382C16.8907 36.707 16.8935 36.2695 17.2205 35.9368C18.346 34.7944 19.4955 33.676 20.655 32.5293C21.0287 32.9229 21.3911 33.3037 21.7818 33.7142C20.8857 34.599 19.9655 35.5079 19.0043 36.4578C19.9981 37.4304 20.9155 38.3265 21.8158 39.2056Z" fill="white"/>
<path d="M30.8563 33.7708C31.2966 33.3065 31.6576 32.9242 32.0469 32.5137C33.2007 33.666 34.3445 34.7887 35.4643 35.9368C35.7885 36.2695 35.7942 36.7055 35.4686 37.0382C34.3474 38.1835 33.1992 39.3032 32.0412 40.4514C31.6675 40.0536 31.3079 39.6713 30.9115 39.248C31.8048 38.3873 32.7377 37.4912 33.7004 36.5639C32.6811 35.5645 31.7666 34.6655 30.8563 33.7708Z" fill="white"/>
<path d="M24.4759 40.3875C23.9988 40.0308 23.5769 39.7151 23.1168 39.3711C24.8199 37.1046 26.5031 34.8664 28.2118 32.5942C28.6705 32.934 29.0924 33.2469 29.5737 33.6036C27.8763 35.8602 26.1945 38.0984 24.4759 40.3875Z" fill="white"/>
</svg>
