<svg width="60" height="61" viewBox="0 0 60 61" fill="none" xmlns="http://www.w3.org/2000/svg">
<path d="M23.8893 60.0598C23.2564 59.781 22.857 59.2875 22.5186 58.6922C21.0132 56.0448 19.4733 53.4177 17.9678 50.7718C17.7563 50.4005 17.526 50.2611 17.0984 50.2642C14.0123 50.283 10.9247 50.2533 7.83857 50.2862C6.80465 50.2971 6.12634 49.9086 5.61408 49C3.88932 45.939 2.12384 42.9015 0.348947 39.8687C-0.116316 39.0745 -0.116316 38.3585 0.348947 37.5643C2.1442 34.4986 3.92536 31.425 5.67831 28.3343C6.14827 27.5056 6.78429 27.1547 7.72265 27.1594C11.2583 27.1797 14.7956 27.1829 18.3312 27.1578C19.2994 27.1515 19.9338 27.5322 20.41 28.3766C21.9343 31.0804 23.5149 33.7514 25.0454 36.4505C25.2726 36.85 25.5201 36.9675 25.9603 36.9628C28.6563 36.9424 31.3523 36.9424 34.0483 36.9628C34.4713 36.9659 34.7031 36.8468 34.9162 36.4709C36.4592 33.7561 38.0446 31.0647 39.5813 28.3468C40.0466 27.5228 40.6732 27.1531 41.6179 27.1578C45.1739 27.1797 48.7299 27.1766 52.286 27.1594C53.2024 27.1547 53.8243 27.5071 54.2833 28.3123C56.1741 31.6334 58.0963 34.9341 60.0075 38.2426C60.0075 38.5559 60.0075 38.8677 60.0075 39.181C59.8633 39.4301 59.7208 39.6807 59.5767 39.9298C57.8315 42.9548 56.0676 45.9688 54.3538 49.011C53.84 49.9227 53.1538 50.2956 52.1231 50.2846C49.0573 50.2517 45.9916 50.2846 42.9259 50.2611C42.4466 50.258 42.2006 50.4225 41.9719 50.8266C40.4774 53.4553 38.9485 56.0651 37.4556 58.6938C37.1172 59.2875 36.7208 59.7825 36.0848 60.0598C32.0212 60.0598 27.9561 60.0598 23.8893 60.0598ZM46.9315 46.7552C48.3195 46.7552 49.7075 46.7442 51.0938 46.763C51.4541 46.7677 51.65 46.6487 51.8286 46.3338C53.2008 43.9245 54.6029 41.5323 55.9674 39.1183C56.0817 38.9147 56.0942 38.5387 55.983 38.3413C54.6107 35.91 53.2134 33.4929 51.7941 31.0882C51.6782 30.8909 51.3508 30.706 51.1205 30.7044C48.3461 30.6778 45.5702 30.6935 42.7943 30.6794C42.4372 30.6778 42.2351 30.7922 42.0565 31.1055C40.6826 33.5148 39.2962 35.9147 37.8989 38.31C37.7313 38.5982 37.714 38.8097 37.8879 39.1089C39.2962 41.5198 40.6905 43.9386 42.0753 46.3636C42.2429 46.6581 42.4325 46.7677 42.7693 46.763C44.1572 46.7458 45.5436 46.7552 46.9315 46.7552ZM29.9926 56.5414C31.379 56.5414 32.7653 56.5335 34.1517 56.5476C34.4729 56.5508 34.6749 56.4787 34.8488 56.1732C36.2384 53.7326 37.6435 51.2997 39.0613 48.8747C39.2226 48.599 39.2132 48.4079 39.055 48.1384C37.6388 45.7119 36.2352 43.279 34.8426 40.8399C34.6859 40.5658 34.5199 40.4655 34.2034 40.4671C31.3915 40.4796 28.5795 40.4687 25.7692 40.489C25.5687 40.4906 25.2804 40.6394 25.1817 40.807C23.7374 43.2618 22.315 45.7291 20.9066 48.2042C20.8173 48.3625 20.8189 48.6617 20.9098 48.8199C22.3087 51.2794 23.7327 53.7216 25.1363 56.1779C25.2929 56.4521 25.4606 56.5539 25.7754 56.5492C27.1806 56.532 28.5858 56.5414 29.9926 56.5414ZM13.0301 46.7552C14.3977 46.7552 15.7668 46.7427 17.1344 46.763C17.5104 46.7693 17.7297 46.6659 17.9239 46.3244C19.2931 43.9135 20.6826 41.5136 22.08 39.1199C22.2492 38.8301 22.257 38.6155 22.0862 38.3209C20.6873 35.9273 19.3009 33.5258 17.9271 31.118C17.7516 30.811 17.5621 30.6762 17.1955 30.6794C14.4196 30.695 11.6453 30.6935 8.86935 30.6794C8.50748 30.6778 8.3148 30.8063 8.13778 31.1149C6.77332 33.5054 5.3979 35.8912 4.00681 38.2661C3.81256 38.5967 3.81413 38.8395 4.00838 39.17C5.39947 41.5449 6.77802 43.9292 8.13778 46.3228C8.33203 46.6659 8.54978 46.7693 8.92575 46.7646C10.2933 46.7442 11.6625 46.7568 13.0301 46.7552Z" fill="white"/>
<path d="M31.7706 23.1143C31.7706 24.5195 31.7706 25.8605 31.7706 27.3221C31.9946 27.1059 32.1497 26.9461 32.3173 26.7988C33.0238 26.1769 34.0515 26.1879 34.7141 26.8192C35.4018 27.474 35.4817 28.5424 34.8097 29.2473C33.6238 30.4912 32.4035 31.7068 31.1659 32.8989C30.4751 33.5647 29.438 33.5177 28.7331 32.8284C27.5597 31.6802 26.3974 30.5194 25.2506 29.346C24.5347 28.6129 24.5363 27.5696 25.2115 26.8693C25.8945 26.1628 26.9691 26.1597 27.732 26.874C27.8589 26.9931 27.9467 27.1544 28.0516 27.2954C28.0939 27.2719 28.1362 27.2469 28.1769 27.2234C28.1769 25.8777 28.1769 24.5336 28.1769 23.1143C27.0616 23.1143 25.9352 23.0767 24.8105 23.1253C23.7734 23.1692 23.0935 22.765 22.5797 21.8548C20.8628 18.811 19.1098 15.7876 17.3412 12.772C16.8524 11.9402 16.843 11.1945 17.3334 10.358C19.1317 7.29229 20.9051 4.21404 22.6659 1.12796C23.1092 0.350952 23.7201 -0.00465201 24.6178 4.76037e-05C28.1942 0.0188461 31.7706 0.0188461 35.347 4.76037e-05C36.2431 -0.00465201 36.8587 0.33842 37.3052 1.11856C39.0863 4.2391 40.8847 7.34868 42.6925 10.4536C43.1311 11.2055 43.1327 11.9057 42.6941 12.6577C40.8769 15.7798 39.0722 18.9082 37.277 22.0428C36.854 22.7807 36.2572 23.1284 35.4112 23.1159C34.2191 23.1018 33.0285 23.1143 31.7706 23.1143ZM29.9863 3.52789C28.5999 3.52789 27.2135 3.54199 25.8271 3.51849C25.4637 3.51223 25.2741 3.63598 25.0987 3.94459C23.717 6.36803 22.3228 8.7852 20.9176 11.1945C20.7563 11.4702 20.7641 11.6598 20.9223 11.9308C22.3385 14.3574 23.7421 16.7902 25.1363 19.2293C25.2914 19.5019 25.4574 19.6053 25.7739 19.6037C28.5858 19.5912 31.3977 19.5896 34.2097 19.6037C34.5308 19.6053 34.6906 19.4941 34.8441 19.2246C36.2384 16.7855 37.642 14.3527 39.0581 11.9261C39.2179 11.652 39.2163 11.4624 39.0566 11.1898C37.6404 8.76327 36.2352 6.33043 34.8426 3.89133C34.6859 3.61719 34.5199 3.51536 34.2034 3.51849C32.7982 3.53886 31.3915 3.52789 29.9863 3.52789Z" fill="white"/>
</svg>
