<svg width="50" height="50" viewBox="0 0 50 50" fill="none" xmlns="http://www.w3.org/2000/svg">
<path d="M8.52392 30.7081C7.80623 30.3441 7.17684 30.0242 6.54459 29.7071C4.86288 28.8624 3.18829 28.0064 1.49803 27.1817C0.568177 26.7281 -0.0085326 26.0484 0.00143522 24.989C0.011403 23.9538 0.586688 23.2983 1.49661 22.8503C3.66247 21.7853 5.81267 20.6889 7.96857 19.604C8.12378 19.5258 8.27757 19.4419 8.49401 19.3267C8.27472 19.2087 8.11381 19.1163 7.95006 19.0338C5.7785 17.9417 3.60978 16.8425 1.4311 15.7632C0.535425 15.321 0.00285919 14.6456 1.12454e-05 13.6374C-0.0028367 12.6278 0.535425 11.9509 1.42398 11.5073C8.89842 7.7732 16.37 4.03485 23.8402 0.292224C24.6134 -0.0945521 25.3681 -0.098818 26.1385 0.287958C33.6271 4.03769 41.1158 7.78742 48.6074 11.5329C49.4802 11.9694 50 12.6534 50 13.6303C50.0014 14.6299 49.4646 15.3182 48.5718 15.7604C46.3945 16.8411 44.2272 17.9389 42.0556 19.0309C41.8862 19.1163 41.7182 19.2073 41.4861 19.3281C42.171 19.6765 42.8004 19.9979 43.4312 20.315C45.1272 21.1682 46.8188 22.0313 48.5248 22.8674C49.4389 23.3153 49.9872 23.9979 49.9815 25.0302C49.9758 26.0626 49.409 26.7295 48.4991 27.1774C46.3176 28.2524 44.1517 29.3573 41.9802 30.4508C41.8392 30.5219 41.7025 30.6001 41.5074 30.7053C41.7153 30.8191 41.872 30.9115 42.0343 30.9925C44.1745 32.0675 46.3105 33.1511 48.4593 34.209C49.3806 34.6626 49.9815 35.3267 49.9843 36.3875C49.9872 37.4469 49.3934 38.1123 48.4721 38.5716C41.0888 42.256 33.7097 45.9474 26.3378 49.653C25.4179 50.1152 24.5749 50.1166 23.6522 49.6516C16.2817 45.946 8.90412 42.2574 1.52224 38.5745C0.599504 38.1152 0.00143522 37.4554 1.12454e-05 36.3946C-0.00141273 35.3338 0.595232 34.6698 1.51939 34.2147C3.82623 33.0786 6.12025 31.914 8.52392 30.7081ZM7.38189 13.6218C7.48014 13.6858 7.5072 13.7085 7.53853 13.7241C13.2629 16.5923 18.9859 19.4618 24.7188 22.3128C24.8925 22.3996 25.1986 22.3498 25.388 22.256C29.7255 20.1017 34.0543 17.9318 38.3861 15.7647C39.7759 15.0693 41.1671 14.374 42.6096 13.653C42.4344 13.5492 42.3177 13.4696 42.1938 13.4085C36.6118 10.6157 31.0255 7.82724 25.4493 5.02312C25.1047 4.84964 24.8484 4.87239 24.5166 5.03876C20.078 7.26983 15.6338 9.48668 11.191 11.7078C9.93935 12.3335 8.69052 12.9648 7.38189 13.6218ZM7.37477 36.3804C7.52714 36.4685 7.59976 36.5155 7.67808 36.5553C13.3412 39.3907 19.0029 42.2304 24.676 45.0459C24.8768 45.1454 25.2285 45.0928 25.4464 44.9847C30.3235 42.5645 35.1921 40.1273 40.0607 37.6914C40.898 37.2734 41.731 36.8468 42.6352 36.3903C40.5633 35.3509 38.5712 34.3441 36.5662 33.3672C36.4096 33.2904 36.1248 33.3814 35.9383 33.4739C32.7115 35.0722 29.4848 36.6733 26.2723 38.3C25.3866 38.7494 24.5707 38.7337 23.6878 38.2858C20.4768 36.6562 17.25 35.0565 14.0219 33.4582C13.8396 33.3686 13.5562 33.3047 13.3939 33.3829C11.4003 34.3555 9.42244 35.3551 7.37477 36.3804ZM7.37192 25.0089C7.59833 25.1312 7.70513 25.1923 7.8162 25.2478C13.4167 28.0505 19.02 30.8503 24.6148 33.6658C24.9366 33.8279 25.1716 33.7654 25.4535 33.6246C31.0355 30.8247 36.6189 28.0292 42.2023 25.2321C42.3191 25.1738 42.4273 25.0971 42.5982 24.9918C40.5491 23.9666 38.5726 22.9684 36.5819 22C36.4224 21.9218 36.1376 22 35.9525 22.091C32.7571 23.6722 29.5589 25.2478 26.3834 26.8688C25.4251 27.358 24.5593 27.3551 23.6038 26.8688C20.4426 25.2577 17.2557 23.6964 14.0874 22.0981C13.7456 21.9261 13.4893 21.9303 13.1547 22.1024C11.5926 22.9058 10.0162 23.6808 8.4456 24.4671C8.11951 24.6292 7.79342 24.7956 7.37192 25.0089Z" fill="url(#paint0_linear_1760_281)"/>
<defs>
<linearGradient id="paint0_linear_1760_281" x1="25" y1="0" x2="25" y2="50" gradientUnits="userSpaceOnUse">
<stop stop-color="#00FFFF"/>
<stop offset="1" stop-color="#1CA7FB"/>
</linearGradient>
</defs>
</svg>
