<svg width="295" height="295" viewBox="0 0 295 295" fill="none" xmlns="http://www.w3.org/2000/svg">
<mask id="mask0_1775_2578" style="mask-type:luminance" maskUnits="userSpaceOnUse" x="0" y="0" width="292" height="292">
<path d="M291.807 0H0V291.807H291.807V0Z" fill="white"/>
</mask>
<g mask="url(#mask0_1775_2578)">
<path fill-rule="evenodd" clip-rule="evenodd" d="M12.8651 95.44L25.7379 99.7111C30.5873 101.232 63.3959 112.273 65.1501 112.281C66.3205 110.225 67.8359 106.219 69.7854 102.864C71.4958 99.9157 73.3549 97.1568 75.3552 94.2869C77.4907 91.2279 82.4525 85.4549 85.2928 82.9346C85.9175 82.3798 88.5147 80.0808 88.9611 79.3856C88.5603 78.2402 82.1742 69.7987 81.0134 68.2186C78.3879 64.6459 75.6444 60.8403 73.0163 57.1291L56.8437 34.9287C54.8894 35.4983 44.5591 45.7255 43.1459 47.1416C35.2138 55.0786 26.6463 67.1303 20.9975 77.2763C19.6227 79.7466 12.7993 93.132 12.8651 95.44Z" fill="white"/>
<path d="M87.799 154.006H83.2894L80.1335 149.735H73.0625V154.006H69.4321V146.104H81.8195C82.4595 146.104 83.0284 145.889 83.4811 145.439C83.932 144.965 84.1686 144.419 84.1686 143.778C84.1686 143.137 83.932 142.592 83.4811 142.117C83.0297 141.666 82.4595 141.452 81.8195 141.452H69.4321V137.797L81.8195 137.82C82.6494 137.82 83.4093 137.962 84.1442 138.295C85.5917 138.936 86.6601 140.004 87.3238 141.476C87.6323 142.235 87.799 143.018 87.799 143.778C87.799 144.537 87.6323 145.32 87.3238 146.08C86.6838 147.527 85.6622 148.571 84.2392 149.212L87.799 154.006ZM152.515 154.006H134.147V150.375H152.515V154.006ZM152.515 141.5H134.147V137.871H152.515V141.5ZM151.02 147.741H135.619V144.112H151.02V147.741ZM166.815 154.007H158.984C158.272 154.007 157.608 153.889 156.99 153.628C155.709 153.105 154.76 152.252 154.143 150.994C153.859 150.401 153.715 149.736 153.715 149.048H157.346C157.346 149.332 157.441 149.571 157.607 149.761C157.774 149.974 157.986 150.116 158.247 150.211C158.486 150.305 158.746 150.377 158.983 150.377H166.814C167.05 150.377 167.312 150.305 167.549 150.211C167.811 150.116 168.024 149.974 168.19 149.761C168.356 149.571 168.451 149.332 168.451 149.048C168.451 148.764 168.356 148.525 168.19 148.336C168.024 148.146 167.811 147.98 167.549 147.885C167.311 147.766 167.05 147.719 166.814 147.719H158.983C158.271 147.719 157.607 147.599 156.989 147.362C155.709 146.841 154.759 145.962 154.142 144.729C153.857 144.135 153.714 143.47 153.714 142.783C153.714 142.071 153.857 141.43 154.142 140.814C154.758 139.581 155.709 138.702 156.989 138.203C157.607 137.942 158.271 137.824 158.983 137.824H166.814C167.526 137.824 168.19 137.942 168.807 138.203C170.088 138.702 171.038 139.581 171.654 140.814C171.939 141.43 172.082 142.072 172.082 142.783H168.452C168.452 142.498 168.358 142.261 168.19 142.071C168.024 141.857 167.811 141.714 167.55 141.62C167.312 141.502 167.051 141.454 166.815 141.454H158.984C158.747 141.454 158.486 141.502 158.248 141.62C157.987 141.714 157.775 141.858 157.608 142.071C157.442 142.261 157.347 142.497 157.347 142.783C157.347 143.067 157.442 143.306 157.608 143.495C157.775 143.685 157.987 143.827 158.248 143.946C158.487 144.041 158.747 144.089 158.984 144.089H166.815C167.527 144.089 168.19 144.231 168.809 144.492C170.089 144.99 171.038 145.868 171.655 147.102C171.94 147.72 172.084 148.36 172.084 149.048C172.084 149.736 171.941 150.401 171.655 150.994C171.04 152.252 170.089 153.107 168.809 153.628C168.19 153.889 167.526 154.007 166.815 154.007ZM182.536 154.007H178.906V141.43H173.02V137.8H188.422V141.43H182.538L182.536 154.007ZM199.419 154.007H195.788V141.43H189.903V137.8H205.305V141.43H199.42L199.419 154.007ZM222.375 154.007H218.222L211.72 142.404L205.218 154.007H201.065L210.129 137.8H213.31L222.375 154.007ZM132.15 154.007H128.543V143.424L122.989 151.349H120.025L114.471 143.424V154.007H110.84V137.8H114.946L121.496 147.148L128.046 137.8H132.151L132.15 154.007ZM109.971 154.007H105.818L99.3156 142.404L92.8134 154.007H88.6603L97.7251 137.8H100.905L109.971 154.007Z" fill="white"/>
<path fill-rule="evenodd" clip-rule="evenodd" d="M15.1877 110.556L8.40564 108.564C7.21537 111.001 5.32886 122.588 4.8123 125.832C1.85728 144.363 3.81256 165.862 8.34279 183.232C10.0398 183.106 48.3754 170.532 53.9496 168.628C55.9412 167.948 58.6752 167.253 60.6079 166.458C60.8299 165.63 59.4638 158.362 59.2173 156.647C58.3286 150.449 58.2157 141.62 59.1574 135.483L60.8033 125.614L59.4697 124.938C58.8589 124.734 58.4415 124.627 57.811 124.416L15.1877 110.556Z" fill="white"/>
<path fill-rule="evenodd" clip-rule="evenodd" d="M12.7989 196.474C13.2045 199.472 19.0811 211.076 20.9323 214.378C25.4557 222.43 30.7627 230.5 36.7994 237.551C40.8917 242.329 45.1793 246.723 49.5181 250.859C51.492 252.74 54.1337 255.099 56.5693 256.816C57.5376 256.293 59.8847 252.709 60.7145 251.558C66.7033 243.257 74.8864 231.589 80.8499 223.819C82.2999 221.93 83.5094 220.139 84.935 218.218C85.7187 217.163 86.1644 216.515 86.9365 215.486C87.4361 214.819 88.5109 213.422 88.9624 212.528C88.4795 211.431 86.3856 209.92 85.4859 209.079C79.7225 203.697 73.8103 195.942 69.8586 189.011C67.9584 185.673 66.1512 181.202 65.1507 179.454C63.8325 179.45 42.0986 186.793 39.0091 187.769C35.8242 188.777 13.7927 195.672 12.7989 196.474Z" fill="white"/>
<path fill-rule="evenodd" clip-rule="evenodd" d="M67.9545 265.12C84.4143 276.248 98.9494 281.146 118.035 285.624C123.481 286.901 133.255 288.223 139.128 288.155C139.128 281.994 139.554 234.644 138.876 232.939C131.201 232.323 124.296 230.89 117.666 228.613C114.426 227.499 111.503 226.287 108.653 224.972C105.642 223.584 103.108 221.879 100.304 220.522C99.0616 221.451 97.1935 224.549 96.2252 225.874C94.6687 228.009 93.4874 229.634 92.142 231.482C89.639 234.923 86.6364 238.973 83.998 242.714C82.1434 245.342 68.2393 263.929 67.9545 265.12Z" fill="white"/>
<path fill-rule="evenodd" clip-rule="evenodd" d="M152.805 288.187C156.713 288.465 169.362 286.588 173.476 285.696C180.154 284.249 185.983 282.772 192.038 280.729C199.213 278.309 218.005 270.031 223.786 265.12C223.573 263.972 217.14 255.587 215.9 253.864L191.648 220.557L182.877 225.102C180.041 226.409 176.595 227.806 173.428 228.869C167.652 230.808 163.069 231.705 157.08 232.521C152.146 233.193 152.675 232.358 152.701 234.928C152.745 239.355 152.419 285.651 152.805 288.187Z" fill="white"/>
<path fill-rule="evenodd" clip-rule="evenodd" d="M202.794 212.25C203.134 213.46 209.13 221.309 210.627 223.433C213.294 227.211 215.877 230.596 218.793 234.636C220.822 237.445 234.074 256.06 235.103 256.825C237.513 255.626 246.795 246.6 248.802 244.492C257.028 235.843 265.258 224.799 270.902 214.29C272.085 212.086 279.073 198.494 278.992 196.306L226.82 179.328C225.117 181.551 220.459 196.031 206.482 208.815C205.317 209.879 204.295 211.064 202.794 212.25Z" fill="white"/>
<path fill-rule="evenodd" clip-rule="evenodd" d="M230.976 125.394C231.287 129.994 233.261 134.671 233.261 144.435C233.261 150.224 232.985 151.834 232.538 157.458C232.377 159.469 230.887 165.156 231.109 166.407C235.241 167.981 239.627 169.163 244.052 170.65L283.381 183.308C287.396 166.782 288.4 159.841 288.4 142.774C288.4 131.692 286.099 118.262 283.43 108.54C280.184 108.908 238.198 123.453 230.976 125.394Z" fill="white"/>
<path fill-rule="evenodd" clip-rule="evenodd" d="M202.762 79.3864C203.689 80.4965 207.777 83.9269 209.899 86.326C214.955 92.0375 218.222 96.2175 221.948 102.807L226.802 112.338L279.026 95.4864C278.855 92.8878 272.372 80.1329 270.95 77.5549C267.954 72.1256 264.4 66.5648 260.736 61.5103C256.081 55.0847 248.145 46.0831 242.262 40.942C240.231 39.1665 237.358 36.2723 235.105 34.8955C234.152 35.6586 219.931 55.614 218.876 57.0625C216.542 60.269 213.58 64.158 210.834 68.1046L202.762 79.3864Z" fill="white"/>
<path fill-rule="evenodd" clip-rule="evenodd" d="M152.717 58.7151C156.564 59.3633 160.274 59.5489 163.867 60.3699C180.595 64.1893 190.518 70.9268 191.647 71.1654L219.811 32.5521C220.682 31.3275 223.424 27.9374 223.829 26.7953C223.185 26.0529 221.38 25.0541 220.352 24.4059C219.09 23.6134 217.889 22.9063 216.702 22.2258C214.167 20.7733 211.487 19.3837 208.924 18.0785C198.157 12.5997 185.981 8.65276 173.91 6.14556C169.156 5.15859 157.441 3.24849 152.772 3.64524L152.717 58.7151Z" fill="white"/>
<path fill-rule="evenodd" clip-rule="evenodd" d="M67.9289 26.7942L91.9271 60.0683C93.195 61.7575 99.281 70.49 100.303 71.1941L108.75 66.764C111.582 65.4166 114.778 64.175 117.778 63.1107C126.363 60.0624 137.53 59.1992 139.029 58.6266L139.126 3.74234C128.114 3.19239 109.805 7.6274 99.3598 11.1765C92.8673 13.3822 71.2399 22.8522 67.9289 26.7942Z" fill="white"/>
</g>
</svg>
