<svg width="80" height="80" viewBox="0 0 80 80" fill="none" xmlns="http://www.w3.org/2000/svg">
<path d="M39.9296 28C43.6241 28.1429 47.3191 28.273 51.0124 28.4387C51.8826 28.4778 52.7562 28.5917 53.6134 28.7474C55.691 29.1247 57.0202 30.5085 57.4138 32.6647C57.9581 35.6477 58.0669 38.6641 57.9665 41.6811C57.8966 43.7905 57.6896 45.8971 57.4855 47.9997C57.3343 49.5532 56.7038 50.8761 55.3171 51.7563C54.479 52.2888 53.5333 52.4406 52.5746 52.5406C48.8542 52.9285 45.118 53.0161 41.3829 52.9977C37.636 52.9793 33.8891 52.8677 30.1439 52.7471C28.9241 52.708 27.7032 52.5556 26.4946 52.3781C24.4531 52.0778 23.0032 50.6986 22.649 48.6126C22.3783 47.0201 22.2294 45.4031 22.1144 43.7905C21.9277 41.1843 21.9802 38.5731 22.1945 35.9698C22.2949 34.7529 22.433 33.5299 22.6862 32.3371C23.1402 30.2009 24.6494 28.916 26.829 28.6464C30.3323 28.2127 33.8553 28.1742 37.3777 28.1155C38.2271 28.1016 39.0769 28.1133 39.9262 28.1133C39.9274 28.0754 39.9285 28.038 39.9296 28ZM36.4303 45.8887C39.5704 44.0986 42.653 42.3409 45.7868 40.5541C42.6349 38.7579 39.5495 36.9996 36.4303 35.2218C36.4303 38.802 36.4303 42.3124 36.4303 45.8887Z" fill="white"/>
</svg>
